<?xml version="1.0" encoding="UTF-8" standalone="no"?>
<svg width="151px" height="102px" viewBox="0 0 151 102" version="1.1" xmlns="http://www.w3.org/2000/svg" xmlns:xlink="http://www.w3.org/1999/xlink" xmlns:sketch="http://www.bohemiancoding.com/sketch/ns">
    <!-- Generator: Sketch 3.1.1 (8761) - http://www.bohemiancoding.com/sketch -->
    <title>decorative_3</title>
    <desc>Created with Sketch.</desc>
    <defs></defs>
    <g id="Page-1" stroke="none" stroke-width="1" fill="none" fill-rule="evenodd" sketch:type="MSPage">
        <g id="decorative_3" sketch:type="MSLayerGroup" transform="translate(0.000000, 1.000000)" fill="#231F20">
            <path d="M46.1637931,100.804516 L18.8146552,52.3896774 L14.9353448,59.2316129 L16.9396552,64.5748387 L15.5818966,66.9858065 L13.5775862,61.6425806 L13.0603448,62.62 L15.0646552,68.0283871 L13.6422414,70.4393548 L11.637931,65.096129 L11.0560345,66.0735484 L13.0603448,71.4167742 L11.7025862,73.8277419 L9.69827586,68.4845161 L9.11637931,69.5270968 L11.1206897,74.8703226 L9.76293103,77.2812903 L7.75862069,71.9380645 L6.85344828,73.5670968 L4.71982759,72.3290323 L5.68965517,70.7 L0,71.7425806 L1.35775862,69.3316129 L6.91810345,68.3541935 L7.43534483,67.3767742 L1.875,68.3541935 L3.23275862,65.9432258 L8.79310345,64.9658065 L9.375,63.9232258 L3.87931034,64.8354839 L5.23706897,62.3593548 L10.7974138,61.3819355 L11.3793103,60.3393548 L5.81896552,61.3819355 L7.17672414,58.9709677 L12.737069,57.9935484 L17.3275862,49.9787097 L9.56896552,36.1645161 L6.91810345,43.1367742 L4.00862069,23.783871 L19.0086207,36.2296774 L11.637931,34.9264516 L18.75,47.5025806 L45.7112069,-0.0651612903 L104.612069,-0.0651612903 L131.573276,47.5025806 L135.387931,40.7258065 L133.383621,35.3825806 L134.741379,32.9716129 L136.74569,38.3148387 L137.327586,37.2722581 L135.323276,31.9290323 L136.74569,29.5180645 L138.685345,34.8612903 L139.267241,33.8187097 L137.262931,28.5406452 L138.62069,26.0645161 L140.625,31.4077419 L141.206897,30.4303226 L139.202586,25.0870968 L140.560345,22.676129 L142.564655,28.0193548 L143.534483,26.3903226 L145.668103,27.5632258 L144.698276,29.1922581 L150.258621,28.2148387 L148.900862,30.6258065 L143.340517,31.6032258 L142.823276,32.5806452 L148.383621,31.6032258 L147.025862,34.0141935 L141.465517,34.9916129 L140.883621,36.0341935 L146.443966,35.0567742 L145.086207,37.4677419 L139.525862,38.4451613 L139.008621,39.4225806 L144.568966,38.4451613 L143.211207,40.856129 L137.650862,41.8335484 L133.060345,49.9135484 L140.883621,63.7277419 L143.534483,56.7554839 L146.508621,76.1083871 L131.508621,63.7277419 L138.87931,65.0309677 L131.767241,52.4548387 L104.094828,100.804516 L46.1637931,100.804516 L46.1637931,100.804516 Z M102.543103,98.6541935 L130.150862,49.9135484 L102.99569,2.08516129 L47.262931,2.08516129 L20.1724138,49.9787097 L47.7801724,98.6541935 L102.543103,98.6541935 L102.543103,98.6541935 Z" id="Shape" sketch:type="MSShapeGroup"></path>
        </g>
    </g>
</svg>