<?xml version="1.0" encoding="utf-8"?>
<!-- Generator: Adobe Illustrator 18.1.0, SVG Export Plug-In . SVG Version: 6.00 Build 0)  -->
<!DOCTYPE svg PUBLIC "-//W3C//DTD SVG 1.1//EN" "http://www.w3.org/Graphics/SVG/1.1/DTD/svg11.dtd">
<svg version="1.1" id="Layer_1" xmlns="http://www.w3.org/2000/svg" xmlns:xlink="http://www.w3.org/1999/xlink" x="0px" y="0px"
	 width="110px" height="105.7px" viewBox="0 0 110 105.7" enable-background="new 0 0 110 105.7" xml:space="preserve">
<path fill-rule="evenodd" clip-rule="evenodd" fill="#231F20" d="M39,91.2l-0.9,0.9c-0.9,0.9-2.3,0.1-2-1.1l1.8-7.9
	c0.2-0.9,1.3-1.3,2-0.7l5.9,5.6c0.9,0.9,0.1,2.3-1.1,2.1l-1.3-0.3c1.5,4,5,6.9,9.3,7.8V48.5H4.3c-1.3,0-2.3-1.1-2.3-2.3
	c0-1.3,1.1-2.3,2.3-2.3h48.4V13.4c-2.6-1-4.6-3.5-4.6-6.5C48.1,3.1,51.2,0,55,0c3.8,0,6.9,3.1,6.9,6.9c0,3-1.9,5.6-4.5,6.5v30.5
	h48.4c1.3,0,2.3,1.1,2.3,2.3c0,1.3-1,2.3-2.3,2.3H57.3v49.1c4.3-0.8,7.8-3.8,9.3-7.8l-1.3,0.3c-1.2,0.2-2-1.2-1.1-2.1l5.9-5.6
	c0.7-0.6,1.8-0.3,2,0.7L74,91c0.3,1.2-1.2,2-2,1.1L71,91.2c-2.4,6.5-8.7,11.2-16,11.2C47.6,102.4,41.4,97.7,39,91.2z M58,6.9
	c0-1.7-1.4-3-3-3c-1.7,0-3,1.4-3,3c0,1.7,1.4,3,3,3C56.7,9.9,58,8.5,58,6.9z"/>
</svg>
