<?xml version="1.0" encoding="UTF-8" standalone="no"?>
<svg width="151px" height="143px" viewBox="0 0 151 143" version="1.1" xmlns="http://www.w3.org/2000/svg" xmlns:xlink="http://www.w3.org/1999/xlink" xmlns:sketch="http://www.bohemiancoding.com/sketch/ns">
    <!-- Generator: Sketch 3.1.1 (8761) - http://www.bohemiancoding.com/sketch -->
    <title>decorative_8</title>
    <desc>Created with Sketch.</desc>
    <defs></defs>
    <g id="Page-1" stroke="none" stroke-width="1" fill="none" fill-rule="evenodd" sketch:type="MSPage">
        <g id="decorative_8" sketch:type="MSLayerGroup" fill="#231F20">
            <g id="Group" sketch:type="MSShapeGroup">
                <path d="M75.2368421,120.878453 L52.7368421,98.2828729 L56.2105263,94.8066298 L75.2368421,113.925967 L121.736842,67.4707182 L102.631579,48.3513812 L106.105263,44.8751381 L128.605263,67.4707182 L75.2368421,120.878453 L75.2368421,120.878453 Z M44.2894737,89.9082873 L21.8684211,67.4707182 L75.2368421,13.9839779 L97.6578947,36.421547 L94.2631579,39.8977901 L75.3157895,20.9364641 L28.8157895,67.4707182 L47.7631579,86.4320442 L44.2894737,89.9082873 L44.2894737,89.9082873 Z" id="Shape"></path>
                <path d="M15.4736842,142.604972 L14.4473684,131.623204 L11.8421053,134.151381 L8.52631579,130.833149 L11.1315789,128.304972 L0.157894737,127.198895 L4.02631579,123.40663 L14.9210526,124.433702 L16.5,122.853591 L5.60526316,121.826519 L9.39473684,117.955249 L20.3684211,118.98232 L21.9473684,117.40221 L11.0526316,116.454144 L14.8421053,112.582873 L25.8157895,113.609945 L27.4736842,112.029834 L16.5,111.002762 L20.3684211,107.210497 L31.3421053,108.237569 L69.4736842,69.840884 L72.8684211,73.159116 L34.5,111.555801 L35.5263158,122.537569 L31.6578947,126.329834 L30.7105263,115.348066 L29.0526316,117.007182 L30.0789474,127.909945 L26.2894737,131.781215 L25.2631579,120.799448 L23.6842105,122.379558 L24.7105263,133.361326 L20.8421053,137.232597 L19.8157895,126.250829 L18.2368421,127.830939 L19.2631579,138.812707 L15.4736842,142.604972 L15.4736842,142.604972 Z M81.3157895,64.7055249 L78,61.3082873 L122.526316,16.7491713 L108.157895,15.4850829 L142.657895,0.0790055249 L127.263158,34.5254144 L125.842105,20.1464088 L81.3157895,64.7055249 L81.3157895,64.7055249 Z" id="Shape"></path>
                <path d="M135,142.604972 L131.131579,138.733702 L132.157895,127.751934 L130.578947,126.171823 L129.473684,137.153591 L125.684211,133.28232 L126.710526,122.300552 L125.131579,120.720442 L124.105263,131.70221 L120.236842,127.830939 L121.263158,116.928177 L119.684211,115.269061 L118.657895,126.250829 L114.789474,122.458564 L115.894737,111.476796 L102.868421,98.440884 L106.184211,95.1226519 L119.210526,108.158564 L130.184211,107.052486 L133.973684,110.923757 L123,111.950829 L124.657895,113.530939 L135.552632,112.503867 L139.421053,116.375138 L128.447368,117.40221 L130.026316,118.98232 L141,117.955249 L144.868421,121.747514 L133.894737,122.853591 L135.473684,124.433702 L146.447368,123.40663 L150.236842,127.198895 L139.342105,128.304972 L141.947368,130.833149 L138.631579,134.151381 L136.026316,131.623204 L135,142.604972 L135,142.604972 Z M94.5,90.0662983 L52.5,48.1143646 L55.8157895,44.7171271 L97.8157895,86.7480663 L94.5,90.0662983 L94.5,90.0662983 Z M44.0526316,39.581768 L24.5526316,20.1464088 L23.2105263,34.5254144 L7.81578947,0.0790055249 L42.2368421,15.4850829 L27.8684211,16.9071823 L47.3684211,36.2635359 L44.0526316,39.581768 L44.0526316,39.581768 Z" id="Shape"></path>
            </g>
        </g>
    </g>
</svg>