<?xml version="1.0" encoding="utf-8"?>
<!-- Generator: Adobe Illustrator 18.1.0, SVG Export Plug-In . SVG Version: 6.00 Build 0)  -->
<!DOCTYPE svg PUBLIC "-//W3C//DTD SVG 1.1//EN" "http://www.w3.org/Graphics/SVG/1.1/DTD/svg11.dtd">
<svg version="1.1" id="Layer_1" xmlns="http://www.w3.org/2000/svg" xmlns:xlink="http://www.w3.org/1999/xlink" x="0px" y="0px"
	 width="110px" height="101.1px" viewBox="0 0 110 101.1" enable-background="new 0 0 110 101.1" xml:space="preserve">
<polygon fill-rule="evenodd" clip-rule="evenodd" fill="#231F20" points="63.2,95.6 57.7,91 57.7,93.4 54.6,93.4 54.6,91 49,95.6 
	49,92 54.6,87.4 54.6,86 49,90.6 49,87 54.6,82.4 54.6,80.9 49,85.5 49,82 54.6,77.4 54.6,75.9 49,80.5 49,76.9 54.6,72.4 
	54.6,20.8 47.3,26.8 56.1,3.7 65,26.8 57.7,20.8 57.7,72.4 63.2,76.9 63.2,80.5 57.7,75.9 57.7,77.4 63.2,82 63.2,85.5 57.7,80.9 
	57.7,82.4 63.2,87 63.2,90.6 57.7,86 57.7,87.4 63.2,92 "/>
<g>
	<polygon fill-rule="evenodd" clip-rule="evenodd" fill="#231F20" points="2.4,96.6 18,77.3 16.4,86.7 61.1,60.9 62.3,53.8 65.4,52 
		64.2,59.1 65.4,58.4 66.6,51.2 69.7,49.5 68.5,56.6 69.8,55.8 71,48.7 74.1,47 72.9,54.1 74.1,53.3 75.4,46.2 78.4,44.4 77.2,51.6 
		79.3,50.4 80.8,53 78.8,54.3 85.5,56.8 82.4,58.5 75.7,56 74.4,56.8 81.2,59.3 78.1,61 71.3,58.5 70.1,59.2 76.8,61.8 73.7,63.6 
		67,61 65.7,61.8 72.5,64.3 69.4,66.1 62.6,63.6 18,89.4 26.9,92.6 	"/>
	<polygon fill-rule="evenodd" clip-rule="evenodd" fill="#231F20" points="109.8,96.6 85.3,92.6 94.2,89.4 49.6,63.6 42.8,66.1 
		39.8,64.3 46.5,61.8 45.2,61 38.5,63.6 35.4,61.8 42.1,59.2 40.9,58.5 34.1,61 31,59.3 37.8,56.8 36.5,56 29.8,58.5 26.7,56.8 
		33.5,54.3 31.3,53 32.9,50.4 35,51.6 33.8,44.4 36.9,46.2 38.1,53.3 39.3,54.1 38.1,47 41.2,48.7 42.4,55.8 43.7,56.6 42.5,49.5 
		45.5,51.2 46.8,58.4 48,59.1 46.8,52 49.9,53.8 51.1,60.9 95.8,86.7 94.2,77.3 	"/>
</g>
</svg>
