<?xml version="1.0" encoding="UTF-8" standalone="no"?>
<svg width="151px" height="186px" viewBox="0 0 151 186" version="1.1" xmlns="http://www.w3.org/2000/svg" xmlns:xlink="http://www.w3.org/1999/xlink" xmlns:sketch="http://www.bohemiancoding.com/sketch/ns">
    <!-- Generator: Sketch 3.1.1 (8761) - http://www.bohemiancoding.com/sketch -->
    <title>decorative_6</title>
    <desc>Created with Sketch.</desc>
    <defs></defs>
    <g id="Page-1" stroke="none" stroke-width="1" fill="none" fill-rule="evenodd" sketch:type="MSPage">
        <g id="decorative_6" sketch:type="MSLayerGroup" transform="translate(1.000000, 1.000000)" fill="#231F20">
            <path d="M22.7272727,141.953719 L22.7272727,138.380165 L138.333333,93.9768595 L138.333333,97.5504132 L22.7272727,141.953719 L22.7272727,141.953719 Z M11.2878788,89.4909091 L11.2878788,85.9173554 L126.893939,41.5900826 L126.893939,45.1636364 L11.2878788,89.4909091 L11.2878788,89.4909091 Z" id="Shape" sketch:type="MSShapeGroup"></path>
            <path d="M64.9242424,183.391736 C61.7424242,182.707438 59.469697,180.198347 59.7727273,177.309091 C55.9848485,176.016529 52.1212121,174.723967 48.6363636,172.82314 C47.0454545,175.332231 43.5606061,176.016529 40.6818182,174.115702 C35.3030303,170.922314 30.8333333,166.740496 26.3636364,162.634711 C24.1666667,160.049587 24.1666667,156.628099 26.0606061,154.65124 C23.4848485,151.457851 20.9848485,148.264463 19.0151515,144.766942 C16.4393939,146.059504 12.9545455,145.071074 11.6666667,141.877686 C8.78787879,136.783471 6.59090909,131.004959 4.6969697,125.302479 C3.78787879,122.413223 5,119.219835 7.87878788,118.307438 C6.96969697,114.12562 5.98484848,110.323967 5.68181818,106.446281 C2.8030303,106.446281 0.227272727,104.241322 -0.0757575758,100.667769 C-0.378787879,94.8892562 -0.378787879,88.8826446 -0.0757575758,83.1041322 C0.227272727,79.5305785 2.8030303,77.3256198 5.68181818,77.3256198 C5.98484848,73.4479339 6.96969697,69.2661157 7.87878788,65.4644628 C5,64.5520661 3.71212121,61.2826446 4.6969697,58.0892562 C6.59090909,52.6909091 8.86363636,46.9123967 11.6666667,41.8181818 C13.2575758,38.6247934 16.4393939,37.6363636 19.0151515,38.9289256 C20.9090909,35.3553719 23.4848485,32.2380165 26.0606061,29.0446281 C24.1666667,27.1438017 24.1666667,23.646281 26.3636364,21.061157 C30.8333333,16.8793388 35.6060606,12.6975207 40.6818182,9.58016529 C43.5606061,7.67933884 47.0454545,8.28760331 48.6363636,10.8727273 C52.1969697,8.97190083 55.9848485,7.67933884 60.0757576,6.69090909 C59.3939394,3.49752066 61.6666667,0.912396694 65.1515152,0.304132231 C71.2121212,-0.608264463 77.6515152,-0.608264463 83.9393939,0.304132231 C87.1212121,0.988429752 89.3181818,3.49752066 89.0909091,6.38677686 C92.8787879,7.67933884 96.7424242,8.97190083 100.530303,10.8727273 C102.121212,8.28760331 105.30303,7.67933884 108.181818,9.27603306 C113.560606,12.4694215 118.409091,16.6512397 122.878788,20.7570248 C125.075758,23.3421488 125.075758,26.7636364 123.181818,28.7404959 C125.757576,31.9338843 128.333333,35.1272727 130.227273,38.6247934 C132.80303,37.3322314 136.287879,38.3206612 137.878788,41.2099174 C140.454545,46.6082645 142.954545,52.0826446 144.924242,57.861157 C145.606061,61.0545455 144.242424,64.2479339 141.742424,65.2363636 C142.727273,69.1140496 143.636364,72.9157025 144.015152,77.0975207 C146.893939,77.0975207 149.393939,79.3024793 149.772727,82.4958678 L149.772727,101.732231 C149.469697,104.92562 146.893939,107.130579 144.015152,107.130579 C143.712121,110.932231 142.727273,115.11405 141.742424,118.915702 C144.318182,119.904132 145.606061,123.097521 144.621212,126.290909 C143.030303,131.689256 140.454545,137.467769 137.651515,142.638017 C136.060606,145.527273 132.878788,146.819835 130.30303,145.527273 C128.106061,149.024793 125.909091,152.218182 123.257576,155.41157 C125.151515,157.312397 125.151515,160.809917 122.651515,163.395041 C118.484848,167.57686 113.712121,171.682645 108.333333,174.571901 C105.454545,176.472727 101.969697,175.864463 100.378788,173.279339 C96.8181818,175.180165 93.030303,176.472727 89.2424242,177.461157 C89.5454545,180.350413 87.3484848,182.859504 83.7878788,183.543802 C77.6515152,184.304132 71.2878788,184.304132 64.9242424,183.391736 L64.9242424,183.391736 Z M84.9242424,178.221488 L82.7272727,178.52562 C81.4393939,178.829752 80.530303,177.917355 80.1515152,176.928926 C80.1515152,176.016529 81.0606061,175.028099 82.0454545,174.723967 L84.3181818,174.419835 C83.6363636,173.81157 82.7272727,173.127273 81.7424242,173.507438 C76.969697,174.115702 71.8939394,174.115702 67.4242424,173.203306 C66.1363636,173.203306 65.1515152,173.507438 64.5454545,174.495868 L66.7424242,174.8 C67.7272727,175.104132 68.6363636,176.092562 68.6363636,177.004959 C68.3333333,177.993388 67.3484848,178.905785 66.1363636,178.601653 L63.8636364,177.993388 C64.1666667,178.905785 65.1515152,179.894215 66.1363636,180.198347 L82.3484848,180.198347 C83.6363636,179.818182 84.6212121,179.209917 84.9242424,178.221488 L84.9242424,178.221488 Z M98.6363636,169.629752 C97.6515152,167.044628 98.9393939,164.155372 101.212121,162.558678 C105.378788,160.353719 109.166667,156.780165 113.030303,153.282645 C114.924242,151.381818 117.80303,151.077686 120.30303,152.67438 C122.878788,149.785124 125.075758,146.591736 127.045455,143.398347 C124.772727,141.497521 124.166667,138.304132 125.454545,136.02314 C128.030303,131.53719 129.924242,126.747107 131.439394,121.652893 C132.424242,119.067769 135.30303,117.471074 137.80303,117.85124 C138.712121,114.049587 139.69697,110.171901 140,106.370248 C137.424242,105.761983 135.530303,103.17686 135.833333,100.363636 L135.833333,83.6363636 C135.530303,80.7471074 137.424242,78.2380165 140,77.6297521 C139.69697,73.4479339 138.712121,69.9504132 137.80303,66.1487603 C135.227273,66.4528926 132.424242,64.8561983 131.439394,61.9669421 C129.924242,57.1768595 127.954545,52.3107438 125.757576,47.8247934 C124.166667,45.2396694 124.772727,42.046281 127.045455,40.5256198 C125.151515,37.3322314 122.878788,34.138843 120.30303,31.2495868 C118.106061,32.846281 114.924242,32.5421488 113.030303,30.3371901 C109.166667,26.7636364 105.378788,23.646281 101.212121,21.061157 C98.9393939,19.768595 98.030303,16.5752066 98.9393939,13.9900826 C95.4545455,12.4694215 91.6666667,11.1768595 88.1060606,10.1884298 C87.1969697,12.6975207 84.3181818,14.3702479 81.7424242,13.9900826 L67.4242424,13.9900826 C64.8484848,14.6743802 62.0454545,12.6975207 61.0606061,10.1884298 C57.2727273,11.1768595 53.7878788,12.4694215 50.2272727,14.3702479 C51.1363636,16.9553719 50.2272727,19.768595 48.030303,21.3652893 C43.8636364,23.9504132 40,27.1438017 36.2121212,30.6413223 C34.6212121,32.846281 31.4393939,32.846281 28.8636364,31.553719 C26.6666667,34.4429752 24.0909091,37.3322314 22.1969697,40.8297521 C24.3939394,42.7305785 25.0757576,45.6198347 23.7878788,48.2049587 C21.2121212,52.6909091 19.3181818,57.4809917 17.7272727,62.5752066 C17.0454545,65.1603306 14.2424242,66.7570248 11.3636364,66.3768595 C10.6818182,70.2545455 9.46969697,74.0561983 9.09090909,77.8578512 C11.969697,78.5421488 13.8636364,81.0512397 13.5606061,83.9404959 C13.2575758,89.0347107 13.2575758,94.5090909 13.5606061,99.6033058 C13.8636364,102.492562 11.969697,105.001653 9.09090909,105.68595 C9.39393939,109.487603 10.6818182,113.365289 11.3636364,117.166942 C14.2424242,116.86281 17.0454545,118.459504 17.7272727,120.968595 C19.3181818,126.06281 21.2878788,130.852893 23.7878788,135.338843 C25.0757576,137.923967 24.3939394,140.73719 22.1969697,142.638017 C24.0909091,146.21157 26.3636364,149.024793 28.8636364,151.91405 C31.1363636,150.621488 34.2424242,151.001653 36.2121212,152.826446 C39.6969697,156.4 43.5606061,159.593388 48.030303,162.102479 C50.2272727,163.699174 51.2121212,166.512397 50.2272727,169.097521 C53.7878788,170.998347 57.1969697,172.290909 60.6818182,173.279339 C61.969697,170.694215 64.5454545,169.097521 67.0454545,169.477686 C71.8181818,170.390083 76.8939394,170.390083 81.7424242,169.781818 C84.3181818,169.173554 86.8181818,171.07438 88.1060606,173.659504 C91.6666667,172.519008 95.4545455,171.530579 98.6363636,169.629752 L98.6363636,169.629752 Z M106.969697,171.226446 C111.742424,168.33719 115.909091,164.839669 119.69697,161.342149 C120.606061,160.429752 120.606061,159.13719 120.30303,158.14876 L118.787879,160.049587 C117.80303,160.733884 116.515152,160.733884 115.909091,160.049587 C115.227273,159.13719 115.227273,158.14876 116.212121,157.160331 L117.80303,155.563636 C116.893939,155.259504 115.606061,155.563636 114.924242,156.247934 C111.439394,159.821488 107.575758,162.938843 103.484848,165.523967 C102.575758,165.828099 102.19697,167.120661 102.19697,168.109091 L104.090909,166.816529 C105,166.208264 106.287879,166.512397 106.969697,167.500826 C107.272727,168.185124 106.969697,169.401653 106.060606,170.08595 L104.166667,171.378512 C104.69697,171.910744 105.984848,171.910744 106.969697,171.226446 L106.969697,171.226446 Z M44.8484848,170.922314 L42.9545455,169.629752 C42.0454545,168.945455 41.6666667,167.728926 42.3484848,167.044628 C42.6515152,166.132231 43.9393939,165.752066 44.9242424,166.436364 L46.8181818,167.728926 C47.1212121,166.436364 46.5151515,165.447934 45.530303,165.143802 C41.3636364,162.558678 37.8787879,159.365289 34.3939394,155.867769 C33.4848485,155.259504 32.5,154.955372 31.5151515,155.259504 C32.1969697,155.563636 32.5,156.171901 33.1060606,156.780165 C33.7878788,157.464463 33.7878788,158.680992 33.1060606,159.365289 C32.5,160.277686 31.2121212,160.277686 30.2272727,159.365289 C29.6212121,158.680992 29.3181818,158.072727 28.6363636,157.768595 C28.3333333,158.680992 28.6363636,159.973554 29.6212121,160.657851 C33.4090909,164.459504 37.2727273,168.033058 42.0454545,170.922314 C42.8787879,171.530579 44.1666667,171.530579 44.8484848,170.922314 L44.8484848,170.922314 Z M135,140.204959 C137.575758,135.414876 139.469697,130.624793 141.060606,125.530579 C141.363636,124.542149 141.060606,123.249587 140.378788,122.641322 L139.772727,124.846281 C139.469697,126.138843 138.181818,126.442975 137.19697,126.138843 C136.287879,125.834711 135.909091,124.846281 136.287879,123.553719 L136.969697,121.652893 C135.984848,121.652893 135.075758,122.33719 134.69697,123.553719 C133.106061,128.039669 131.212121,132.829752 128.939394,137.01157 C128.636364,137.923967 128.636364,139.216529 128.939394,139.824793 C129.621212,139.216529 129.924242,138.532231 130.227273,137.923967 C130.530303,137.01157 131.818182,136.631405 132.80303,137.01157 C133.712121,137.619835 134.090909,138.532231 133.409091,139.824793 C133.106061,140.509091 132.80303,141.117355 132.5,141.72562 C133.409091,141.801653 134.318182,141.497521 135,140.204959 L135,140.204959 Z M15.8333333,139.292562 C15.2272727,138.380165 15.530303,137.087603 16.5151515,136.403306 C17.4242424,136.099174 18.7121212,136.403306 19.0909091,137.315702 C19.3939394,138 19.7727273,138.912397 20.3787879,139.596694 C20.6818182,138.608264 21.0606061,137.695868 20.3787879,136.403306 C18.1818182,132.221488 16.2121212,127.431405 14.6212121,122.945455 C14.3181818,121.652893 13.7121212,121.044628 12.4242424,121.044628 L13.030303,122.945455 C13.3333333,124.238017 13.030303,125.226446 12.1212121,125.530579 C11.2121212,125.834711 9.92424242,125.530579 9.54545455,124.238017 L8.86363636,121.957025 C8.25757576,122.641322 7.95454545,123.857851 8.25757576,124.846281 C9.84848485,130.016529 12.0454545,134.730579 14.3181818,139.596694 C14.9242424,140.889256 15.8333333,141.193388 16.8939394,141.193388 C16.4393939,140.509091 16.1363636,139.900826 15.8333333,139.292562 L15.8333333,139.292562 Z M146.136364,100.287603 L146.136364,83.3322314 C146.136364,82.3438017 145.530303,81.431405 144.545455,80.7471074 L144.545455,83.3322314 C144.848485,84.2446281 143.939394,85.5371901 142.954545,85.5371901 C142.045455,85.5371901 141.060606,84.6247934 141.060606,83.6363636 L140.757576,81.431405 C139.848485,81.7355372 139.469697,83.0280992 139.469697,84.0165289 L139.469697,99.9834711 C139.469697,100.895868 139.772727,101.884298 140.757576,102.568595 L141.060606,100.363636 C141.060606,99.0710744 141.969697,98.4628099 142.954545,98.4628099 C143.939394,98.4628099 144.848485,99.3752066 144.545455,100.667769 L144.545455,102.94876 C145.530303,102.492562 146.136364,101.580165 146.136364,100.287603 L146.136364,100.287603 Z M4.6969697,99.9834711 C4.6969697,98.6909091 5.68181818,97.7024793 6.59090909,97.7024793 C7.5,97.7024793 8.48484848,98.3867769 8.48484848,99.6033058 C8.48484848,100.287603 8.78787879,101.2 8.78787879,101.808264 C9.77272727,101.2 10.0757576,100.287603 10.0757576,99.2231405 C9.77272727,94.1289256 9.77272727,89.338843 10.0757576,84.2446281 C10.0757576,83.3322314 9.77272727,82.3438017 8.78787879,81.6595041 C8.78787879,82.2677686 8.48484848,83.2561983 8.48484848,83.8644628 C8.48484848,85.1570248 7.5,85.7652893 6.59090909,85.7652893 C5.68181818,85.7652893 4.6969697,84.7768595 4.6969697,83.4842975 C4.6969697,82.8760331 5,81.8876033 5,81.2793388 C4.09090909,81.5834711 3.40909091,82.5719008 3.40909091,83.8644628 C3.10606061,88.9586777 3.10606061,94.4330579 3.40909091,99.5272727 C3.40909091,100.819835 4.09090909,101.732231 5,102.112397 C5,101.580165 4.6969697,100.591736 4.6969697,99.9834711 L4.6969697,99.9834711 Z M14.5454545,60.5983471 C16.1363636,56.1884298 18.1060606,51.322314 20.3030303,47.2165289 C20.9848485,45.9239669 20.6060606,45.0115702 20.3030303,44.0231405 C19.6969697,44.707438 19.3939394,45.6198347 19.0151515,46.3041322 C18.7121212,47.2165289 17.4242424,47.5966942 16.4393939,47.2165289 C15.530303,46.5322314 15.1515152,45.3157025 15.7575758,44.3272727 C16.0606061,43.6429752 16.4393939,43.0347107 16.7424242,42.4264463 C15.7575758,42.4264463 14.8484848,42.7305785 14.1666667,44.0231405 C11.8939394,48.5090909 9.6969697,53.6033058 8.10606061,58.7735537 C7.8030303,59.6859504 8.10606061,60.9785124 8.71212121,61.6628099 L9.39393939,59.3818182 C9.6969697,58.0892562 10.9848485,57.4809917 11.969697,58.0892562 C12.8787879,58.3933884 13.2575758,59.3818182 13.2575758,60.3702479 L12.6515152,62.5752066 C13.6363636,62.4991736 14.2424242,61.8909091 14.5454545,60.5983471 L14.5454545,60.5983471 Z M136.893939,62.1950413 L136.212121,59.9900826 C135.909091,59.0016529 136.212121,57.7090909 137.5,57.4049587 C138.484848,57.1008264 139.393939,57.7090909 139.772727,58.9256198 L140.378788,61.2066116 C141.287879,60.2942149 141.666667,59.3057851 141.287879,58.0132231 C139.393939,53.2231405 137.5,48.1289256 134.924242,43.338843 C134.621212,42.3504132 133.333333,41.7421488 132.348485,41.7421488 C132.651515,42.6545455 132.954545,43.338843 133.257576,43.9471074 C133.939394,44.9355372 133.560606,46.2280992 132.651515,46.8363636 C131.666667,47.1404959 130.757576,46.8363636 130.075758,45.9239669 C129.772727,45.0115702 129.469697,44.3272727 129.166667,43.6429752 C128.560606,44.631405 128.560606,45.5438017 128.863636,46.5322314 C131.136364,51.0181818 133.030303,55.5041322 134.621212,60.2942149 C135,61.2826446 135.909091,62.1950413 136.893939,62.1950413 L136.893939,62.1950413 Z M34.3181818,27.6760331 C37.8787879,24.1024793 41.6666667,21.2892562 45.7575758,18.7041322 C46.4393939,18.0198347 47.0454545,17.107438 47.0454545,15.814876 L45.1515152,17.107438 C44.1666667,17.7917355 42.8787879,17.4115702 42.2727273,16.4991736 C41.5909091,15.814876 41.969697,14.5983471 42.8787879,13.9140496 L45.1515152,12.6214876 L41.969697,12.6214876 C37.5,15.5107438 33.3333333,19.0842975 29.5454545,22.8859504 C28.5606061,23.5702479 28.5606061,24.7867769 28.8636364,25.7752066 C29.1666667,25.4710744 29.7727273,24.8628099 30.4545455,24.1785124 C31.1363636,23.2661157 32.3484848,23.2661157 33.3333333,24.1785124 C33.9393939,24.8628099 33.9393939,26.0793388 33.030303,26.6876033 C32.4242424,27.3719008 32.1212121,27.9801653 31.4393939,28.2842975 C32.4242424,28.6644628 33.3333333,28.2842975 34.3181818,27.6760331 L34.3181818,27.6760331 Z M116.136364,26.4595041 C115.530303,25.7752066 115.227273,24.5586777 116.136364,23.8743802 C116.818182,22.9619835 118.030303,23.2661157 118.712121,23.8743802 C119.318182,24.5586777 120,25.1669421 120.606061,25.4710744 C120.909091,24.5586777 120.606061,23.5702479 119.69697,22.5818182 C115.909091,18.7801653 111.742424,15.5867769 107.272727,12.6975207 C105.984848,12.0892562 105,12.0892562 104.090909,12.6975207 L105.984848,13.6859504 C107.272727,14.2942149 107.5,15.5867769 106.893939,16.5752066 C106.212121,17.1834711 105,17.4876033 104.015152,16.8793388 L102.121212,15.9669421 C102.121212,16.8793388 102.80303,17.8677686 103.409091,18.5520661 C107.575758,21.1371901 111.439394,24.3305785 114.848485,27.5239669 C115.833333,28.1322314 116.742424,28.4363636 117.727273,28.4363636 C117.121212,27.6760331 116.818182,27.0677686 116.136364,26.4595041 L116.136364,26.4595041 Z M84.3181818,9.12396694 L82.0454545,8.81983471 C81.1363636,8.51570248 80.1515152,7.90743802 80.530303,6.61487603 C80.530303,5.62644628 81.4393939,5.01818182 82.7272727,5.01818182 L84.9242424,5.62644628 C84.6212121,4.71404959 83.6363636,3.72561983 82.7272727,3.4214876 C77.3484848,2.73719008 71.8939394,2.73719008 66.4393939,3.72561983 C65.1515152,3.72561983 64.2424242,4.63801653 63.9393939,5.62644628 L66.4393939,5.32231405 C67.4242424,5.01818182 68.7121212,5.62644628 68.7121212,6.84297521 C68.7121212,7.83140496 68.030303,8.43966942 66.8181818,8.74380165 L64.9242424,9.42809917 C65.2272727,10.0363636 66.4393939,10.3404959 67.5,10.3404959 L81.8181818,10.3404959 C82.7272727,10.4165289 83.6363636,10.1123967 84.3181818,9.12396694 L84.3181818,9.12396694 Z" id="Shape" sketch:type="MSShapeGroup"></path>
        </g>
    </g>
</svg>