<?xml version="1.0" encoding="UTF-8" standalone="no"?>
<svg width="151px" height="131px" viewBox="0 0 151 131" version="1.1" xmlns="http://www.w3.org/2000/svg" xmlns:xlink="http://www.w3.org/1999/xlink" xmlns:sketch="http://www.bohemiancoding.com/sketch/ns">
    <!-- Generator: Sketch 3.1.1 (8761) - http://www.bohemiancoding.com/sketch -->
    <title>decorative_7</title>
    <desc>Created with Sketch.</desc>
    <defs></defs>
    <g id="Page-1" stroke="none" stroke-width="1" fill="none" fill-rule="evenodd" sketch:type="MSPage">
        <g id="decorative_7" sketch:type="MSLayerGroup" transform="translate(0.000000, 1.000000)" fill="#231F20">
            <path d="M85.0263158,128.573171 L77.2894737,122.073171 L77.2894737,125.481707 L72.9473684,125.481707 L72.9473684,122.073171 L65.2105263,128.493902 L65.2105263,123.579268 L72.9473684,117.079268 L72.9473684,115.018293 L65.2105263,121.518293 L65.2105263,116.52439 L72.9473684,110.02439 L72.9473684,107.963415 L65.2105263,114.463415 L65.2105263,109.469512 L72.9473684,102.969512 L72.9473684,100.908537 L65.2105263,107.408537 L65.2105263,102.414634 L72.9473684,95.9939024 L72.9473684,23.7012195 L62.7631579,32.1829268 L75.1578947,-0.237804878 L87.4736842,32.1829268 L77.2894737,23.7012195 L77.2894737,95.9939024 L85.0263158,102.414634 L85.0263158,107.408537 L77.2894737,100.987805 L77.2894737,102.969512 L85.0263158,109.469512 L85.0263158,114.463415 L77.2894737,107.963415 L77.2894737,110.02439 L85.0263158,116.52439 L85.0263158,121.518293 L77.2894737,115.018293 L77.2894737,117.079268 L85.0263158,123.579268 L85.0263158,128.573171 Z" id="Shape" sketch:type="MSShapeGroup"></path>
            <g id="Group" transform="translate(0.000000, 57.073171)" sketch:type="MSShapeGroup">
                <path d="M0.157894737,72.847561 L21.9473684,45.8963415 L19.7368421,58.9756098 L82.1052632,22.8292683 L83.7631579,12.8414634 L88.1052632,10.3841463 L86.3684211,20.3719512 L88.1052632,19.3414634 L89.8421053,9.35365854 L94.1842105,6.81707317 L92.4473684,16.804878 L94.2631579,15.7743902 L95.9210526,5.78658537 L100.184211,3.32926829 L98.5263158,13.3170732 L100.342105,12.2865854 L102,2.29878049 L106.263158,-0.237804878 L104.605263,9.75 L107.526316,8.08536585 L109.657895,11.8109756 L106.736842,13.554878 L116.210526,17.0426829 L111.868421,19.5792683 L102.473684,16.0121951 L100.657895,17.0426829 L110.131579,20.6097561 L105.789474,23.0670732 L96.3947368,19.5792683 L94.6578947,20.5304878 L104.052632,24.097561 L99.7105263,26.6341463 L90.3157895,23.0670732 L88.5789474,24.097561 L97.9736842,27.5853659 L93.7105263,30.1219512 L84.3157895,26.6341463 L21.9473684,62.7012195 L34.3421053,67.2987805 L0.157894737,72.847561 Z" id="Shape"></path>
                <path d="M150.157895,72.847561 L115.973684,67.2987805 L128.368421,62.7012195 L66,26.6341463 L56.6052632,30.1219512 L52.3421053,27.5853659 L61.7368421,24.097561 L60,23.0670732 L50.5263158,26.6341463 L46.2631579,24.097561 L55.6578947,20.5304878 L53.9210526,19.5792683 L44.4473684,23.0670732 L40.1842105,20.6097561 L49.5789474,17.0426829 L47.8421053,16.0121951 L38.3684211,19.5792683 L34.0263158,17.0426829 L43.5789474,13.554878 L40.5789474,11.8109756 L42.7105263,8.08536585 L45.6315789,9.75 L43.9736842,-0.237804878 L48.3157895,2.29878049 L49.9736842,12.2865854 L51.7105263,13.3170732 L50.0526316,3.32926829 L54.3947368,5.78658537 L55.9736842,15.7743902 L57.7894737,16.804878 L56.1315789,6.81707317 L60.3947368,9.35365854 L62.1315789,19.3414634 L63.8684211,20.3719512 L62.2105263,10.3841463 L66.4736842,12.8414634 L68.2105263,22.8292683 L130.5,58.9756098 L128.289474,45.8963415 L150.157895,72.847561 Z" id="Shape"></path>
            </g>
        </g>
    </g>
</svg>