<?xml version="1.0" encoding="utf-8"?>
<!-- Generator: Adobe Illustrator 18.1.0, SVG Export Plug-In . SVG Version: 6.00 Build 0)  -->
<!DOCTYPE svg PUBLIC "-//W3C//DTD SVG 1.1//EN" "http://www.w3.org/Graphics/SVG/1.1/DTD/svg11.dtd">
<svg version="1.1" id="Layer_1" xmlns="http://www.w3.org/2000/svg" xmlns:xlink="http://www.w3.org/1999/xlink" x="0px" y="0px"
	 width="110px" height="140.8px" viewBox="0 0 110 140.8" enable-background="new 0 0 110 140.8" xml:space="preserve">
<path fill-rule="evenodd" clip-rule="evenodd" fill="#231F20" d="M16.7,106.9v-2.6L101,72v2.6L16.7,106.9z M8.3,68.7v-2.6l84.3-32.2
	v2.6L8.3,68.7z"/>
<path fill-rule="evenodd" clip-rule="evenodd" fill="#231F20" d="M47.5,137c-2.3-0.5-4-2.3-3.7-4.4c-2.8-0.9-5.6-1.9-8.1-3.3
	c-1.2,1.9-3.7,2.3-5.8,0.9c-3.9-2.3-7.2-5.4-10.5-8.4c-1.6-1.9-1.6-4.4-0.2-5.8c-1.9-2.3-3.7-4.6-5.1-7.2c-1.9,0.9-4.4,0.2-5.4-2.1
	c-2.1-3.7-3.7-7.9-5.1-12.1c-0.7-2.1,0.2-4.4,2.3-5.1c-0.7-3-1.4-5.8-1.6-8.6c-2.1,0-4-1.6-4.2-4.2c-0.2-4.2-0.2-8.6,0-12.8
	c0.2-2.6,2.1-4.2,4.2-4.2C4.4,57,5.2,54,5.9,51.2c-2.1-0.7-3-3-2.3-5.4c1.4-3.9,3-8.1,5.1-11.8c1.2-2.3,3.5-3,5.4-2.1
	c1.4-2.6,3.3-4.9,5.1-7.2c-1.4-1.4-1.4-3.9,0.2-5.8c3.3-3.1,6.7-6.1,10.5-8.4c2.1-1.4,4.6-1,5.8,0.9c2.6-1.4,5.3-2.3,8.4-3
	c-0.5-2.3,1.2-4.2,3.7-4.7c4.4-0.7,9.1-0.7,13.7,0c2.3,0.5,3.9,2.3,3.7,4.4c2.8,0.9,5.6,1.9,8.3,3.3c1.2-1.9,3.5-2.3,5.6-1.2
	c3.9,2.3,7.4,5.4,10.7,8.4c1.6,1.9,1.6,4.4,0.2,5.8c1.9,2.3,3.7,4.6,5.1,7.2c1.9-0.9,4.4-0.2,5.6,1.9c1.9,3.9,3.7,7.9,5.1,12.1
	c0.5,2.3-0.5,4.7-2.3,5.4c0.7,2.8,1.4,5.6,1.6,8.6c2.1,0,3.9,1.6,4.2,3.9v14c-0.2,2.3-2.1,3.9-4.2,3.9c-0.2,2.8-0.9,5.8-1.6,8.6
	c1.9,0.7,2.8,3,2.1,5.4c-1.2,3.9-3,8.1-5.1,11.9c-1.2,2.1-3.5,3-5.4,2.1c-1.6,2.5-3.2,4.9-5.1,7.2c1.4,1.4,1.4,3.9-0.4,5.8
	c-3,3-6.5,6-10.5,8.1c-2.1,1.4-4.7,0.9-5.8-0.9c-2.6,1.4-5.4,2.3-8.1,3c0.2,2.1-1.4,3.9-4,4.4C56.8,137.7,52.1,137.7,47.5,137z
	 M62.1,133.2l-1.6,0.2c-0.9,0.2-1.6-0.4-1.9-1.2c0-0.7,0.7-1.4,1.4-1.6l1.6-0.2c-0.5-0.4-1.2-0.9-1.9-0.7c-3.5,0.4-7.2,0.4-10.5-0.2
	c-0.9,0-1.6,0.2-2.1,0.9l1.6,0.2c0.7,0.2,1.4,0.9,1.4,1.6c-0.2,0.7-0.9,1.4-1.9,1.2l-1.6-0.4c0.2,0.7,0.9,1.4,1.6,1.6h11.8
	C61.1,134.4,61.9,133.9,62.1,133.2z M72.1,127c-0.7-1.9,0.2-4,1.9-5.1c3-1.6,5.8-4.2,8.6-6.7c1.4-1.4,3.5-1.6,5.3-0.4
	c1.9-2.1,3.5-4.4,4.9-6.8c-1.6-1.4-2.1-3.7-1.2-5.4c1.9-3.3,3.3-6.7,4.4-10.5c0.7-1.9,2.8-3,4.7-2.8c0.7-2.8,1.4-5.6,1.6-8.4
	c-1.9-0.4-3.3-2.3-3-4.4V64.5c-0.2-2.1,1.2-3.9,3-4.4c-0.2-3.1-0.9-5.6-1.6-8.4c-1.9,0.2-3.9-0.9-4.7-3c-1.1-3.5-2.5-7-4.2-10.3
	c-1.2-1.9-0.7-4.2,0.9-5.3c-1.4-2.3-3-4.7-4.9-6.8c-1.6,1.2-3.9,0.9-5.3-0.7c-2.8-2.6-5.6-4.9-8.6-6.7c-1.6-1-2.3-3.3-1.6-5.1
	c-2.5-1.1-5.3-2.1-7.9-2.8c-0.7,1.9-2.8,3-4.6,2.8H49.3c-1.9,0.5-3.9-0.9-4.7-2.8c-2.8,0.7-5.3,1.6-7.9,3c0.7,1.9,0,3.9-1.6,5.1
	c-3,1.9-5.8,4.2-8.6,6.8c-1.2,1.6-3.5,1.6-5.4,0.7c-1.6,2.1-3.5,4.2-4.9,6.7c1.6,1.4,2.1,3.5,1.2,5.3c-1.9,3.3-3.3,6.8-4.4,10.5
	c-0.5,1.9-2.5,3-4.6,2.8c-0.5,2.8-1.4,5.6-1.6,8.4c2.1,0.5,3.5,2.3,3.3,4.4c-0.2,3.7-0.2,7.7,0,11.4c0.2,2.1-1.2,3.9-3.3,4.4
	c0.2,2.8,1.2,5.6,1.6,8.4c2.1-0.2,4.2,0.9,4.6,2.8c1.2,3.7,2.6,7.2,4.4,10.5c0.9,1.9,0.4,3.9-1.2,5.3c1.4,2.6,3,4.7,4.9,6.8
	c1.6-0.9,3.9-0.7,5.4,0.7c2.5,2.6,5.4,4.9,8.6,6.8c1.6,1.2,2.3,3.2,1.6,5.1c2.6,1.4,5.1,2.3,7.6,3c1-1.9,2.8-3,4.7-2.8
	c3.5,0.7,7.2,0.7,10.7,0.2c1.9-0.4,3.7,0.9,4.6,2.8C67,129,69.8,128.4,72.1,127z M78.1,128.1c3.5-2.1,6.5-4.6,9.3-7.2
	c0.7-0.7,0.7-1.6,0.4-2.3l-1.1,1.4c-0.7,0.5-1.6,0.5-2.1,0c-0.5-0.7-0.5-1.4,0.2-2.1l1.2-1.2c-0.7-0.2-1.6,0-2.1,0.5
	c-2.5,2.6-5.4,4.9-8.4,6.7c-0.7,0.2-0.9,1.2-0.9,1.9l1.4-1c0.7-0.4,1.6-0.2,2.1,0.5c0.2,0.5,0,1.4-0.7,1.9l-1.4,0.9
	C76.5,128.6,77.4,128.6,78.1,128.1z M32.8,127.9l-1.4-0.9c-0.7-0.5-0.9-1.4-0.4-1.9c0.2-0.7,1.2-0.9,1.9-0.4l1.4,0.9
	c0.2-0.9-0.2-1.6-0.9-1.9c-3-1.9-5.6-4.2-8.1-6.8c-0.7-0.4-1.4-0.7-2.1-0.4c0.5,0.2,0.7,0.7,1.2,1.1c0.5,0.5,0.5,1.4,0,1.9
	c-0.4,0.7-1.4,0.7-2.1,0c-0.4-0.5-0.7-0.9-1.2-1.2c-0.2,0.7,0,1.6,0.7,2.1c2.8,2.8,5.6,5.4,9.1,7.4
	C31.4,128.4,32.3,128.4,32.8,127.9z M98.6,105.6c1.9-3.5,3.3-7,4.4-10.7c0.2-0.7,0-1.6-0.5-2.1l-0.4,1.6c-0.2,0.9-1.2,1.2-1.9,0.9
	c-0.7-0.2-0.9-0.9-0.7-1.9l0.5-1.4c-0.7,0-1.4,0.5-1.6,1.4c-1.2,3.3-2.5,6.7-4.2,9.8c-0.2,0.7-0.2,1.6,0,2.1
	c0.5-0.4,0.7-0.9,0.9-1.4c0.2-0.7,1.2-0.9,1.9-0.7c0.7,0.4,0.9,1.1,0.4,2.1c-0.2,0.5-0.4,1-0.7,1.4
	C97.4,106.7,98.1,106.5,98.6,105.6z M11.7,104.9c-0.4-0.7-0.2-1.6,0.5-2.1c0.7-0.2,1.6,0,1.9,0.7c0.2,0.5,0.5,1.2,0.9,1.6
	c0.2-0.7,0.5-1.4,0-2.3c-1.6-3-3-6.5-4.2-9.8c-0.2-0.9-0.7-1.4-1.6-1.4L9.6,93c0.2,1,0,1.6-0.7,1.9c-0.7,0.2-1.6,0-1.9-0.9l-0.5-1.6
	c-0.4,0.5-0.7,1.4-0.4,2.1c1.2,3.7,2.8,7.2,4.4,10.7c0.4,0.9,1.1,1.2,1.9,1.2C12.1,105.8,11.9,105.3,11.7,104.9z M106.7,76.6V64.3
	c0-0.7-0.4-1.4-1.2-1.9v1.9c0.2,0.7-0.4,1.6-1.2,1.6c-0.7,0-1.4-0.7-1.4-1.4l-0.2-1.6c-0.7,0.2-0.9,1.2-0.9,1.9v11.6
	c0,0.7,0.2,1.4,0.9,1.9l0.2-1.6c0-1,0.7-1.4,1.4-1.4c0.7,0,1.4,0.7,1.2,1.6v1.6C106.2,78.2,106.7,77.5,106.7,76.6z M3.5,76.3
	c0-0.9,0.7-1.6,1.4-1.6c0.7,0,1.4,0.5,1.4,1.4c0,0.5,0.2,1.2,0.2,1.6c0.7-0.4,0.9-1.1,0.9-1.9c-0.2-3.7-0.2-7.2,0-10.9
	c0-0.7-0.2-1.4-0.9-1.9c0,0.4-0.2,1.2-0.2,1.6c0,0.9-0.7,1.4-1.4,1.4c-0.7,0-1.4-0.7-1.4-1.6c0-0.4,0.2-1.2,0.2-1.6
	c-0.7,0.2-1.2,0.9-1.2,1.9c-0.2,3.7-0.2,7.7,0,11.4c0,0.9,0.5,1.6,1.2,1.9C3.8,77.5,3.5,76.8,3.5,76.3z M10.7,47.7
	c1.2-3.2,2.6-6.7,4.2-9.7c0.5-0.9,0.2-1.6,0-2.3c-0.4,0.5-0.7,1.2-0.9,1.6c-0.2,0.7-1.2,0.9-1.9,0.7c-0.7-0.5-0.9-1.4-0.5-2.1
	c0.2-0.5,0.5-0.9,0.7-1.4c-0.7,0-1.4,0.2-1.9,1.2c-1.6,3.3-3.3,7-4.4,10.7c-0.2,0.7,0,1.6,0.4,2.1L7,46.8c0.2-0.9,1.2-1.4,1.9-0.9
	c0.7,0.2,0.9,0.9,0.9,1.6l-0.4,1.6C10,49.1,10.5,48.7,10.7,47.7z M100,48.9l-0.5-1.6c-0.2-0.7,0-1.6,0.9-1.9
	c0.7-0.2,1.4,0.2,1.6,1.1l0.4,1.6c0.7-0.7,0.9-1.4,0.7-2.3c-1.4-3.5-2.8-7.2-4.6-10.7c-0.2-0.7-1.2-1.2-1.9-1.2
	c0.2,0.7,0.4,1.2,0.7,1.6c0.5,0.7,0.2,1.6-0.4,2.1c-0.7,0.2-1.4,0-1.9-0.7c-0.2-0.7-0.4-1.2-0.7-1.6c-0.4,0.7-0.4,1.4-0.2,2.1
	c1.6,3.3,3,6.5,4.2,10C98.6,48.2,99.2,48.9,100,48.9z M25.1,23.8c2.6-2.6,5.4-4.7,8.4-6.5c0.5-0.5,0.9-1.2,0.9-2.1l-1.4,0.9
	c-0.7,0.5-1.6,0.2-2.1-0.4c-0.5-0.5-0.2-1.4,0.4-1.9l1.6-0.9h-2.3c-3.3,2.1-6.3,4.7-9.1,7.4c-0.7,0.5-0.7,1.4-0.5,2.1
	c0.2-0.2,0.7-0.7,1.2-1.2c0.5-0.7,1.4-0.7,2.1,0c0.4,0.5,0.4,1.4-0.2,1.9c-0.4,0.5-0.7,0.9-1.2,1.2C23.8,24.5,24.4,24.3,25.1,23.8z
	 M84.8,22.9c-0.4-0.5-0.7-1.4,0-1.9c0.5-0.7,1.4-0.4,1.9,0c0.4,0.5,0.9,0.9,1.4,1.2c0.2-0.7,0-1.4-0.7-2.1c-2.8-2.8-5.8-5.1-9.1-7.2
	c-0.9-0.4-1.6-0.4-2.3,0l1.4,0.7c0.9,0.4,1.1,1.4,0.7,2.1c-0.5,0.4-1.4,0.7-2.1,0.2l-1.4-0.7c0,0.7,0.5,1.4,0.9,1.9
	c3,1.9,5.8,4.2,8.4,6.5c0.7,0.4,1.4,0.7,2.1,0.7C85.6,23.8,85.3,23.3,84.8,22.9z M61.6,10.3L60,10.1c-0.7-0.2-1.4-0.7-1.1-1.6
	c0-0.7,0.7-1.2,1.6-1.2l1.6,0.4c-0.2-0.7-0.9-1.4-1.6-1.6c-3.9-0.5-7.9-0.5-11.9,0.2c-0.9,0-1.6,0.7-1.9,1.4l1.9-0.2
	c0.7-0.2,1.6,0.2,1.6,1.1c0,0.7-0.5,1.2-1.4,1.4l-1.4,0.5c0.2,0.4,1.1,0.7,1.9,0.7h10.5C60.5,11.3,61.1,11,61.6,10.3z"/>
</svg>
