<?xml version="1.0" encoding="utf-8"?>
<!-- Generator: Adobe Illustrator 18.1.0, SVG Export Plug-In . SVG Version: 6.00 Build 0)  -->
<!DOCTYPE svg PUBLIC "-//W3C//DTD SVG 1.1//EN" "http://www.w3.org/Graphics/SVG/1.1/DTD/svg11.dtd">
<svg version="1.1" id="Layer_1" xmlns="http://www.w3.org/2000/svg" xmlns:xlink="http://www.w3.org/1999/xlink" x="0px" y="0px"
	 width="110px" height="87.2px" viewBox="0 0 110 87.2" enable-background="new 0 0 110 87.2" xml:space="preserve">
<path fill-rule="evenodd" clip-rule="evenodd" fill="#231F20" d="M55,83.9L19.4,63.3V22.2L55,1.7l35.6,20.5v41.1L55,83.9z M55,81.5
	l33.5-19.3V23.5L55,4.1L21.5,23.5v38.7L55,81.5z"/>
<g>
	<path fill-rule="evenodd" clip-rule="evenodd" fill="#231F20" d="M96.8,62.5l-2.7-2.7c-0.5-0.4-0.5-1.3-0.5-1.9l0-34.4
		c1.5,2.4,3.2,5.6,5,7.1c-0.6,0-2.1-0.3-2.4,1.4v10.7c1.2-1.4,3.2-2.4,5.4-2.6c5.2-0.5,9.5,5,6.2,9.3c-1.8,2.4-4.9,3-6.8,1.1
		c-2-1.8-1.1-5,1.8-5.2c-0.5,1.5-0.2,2,0.1,2.3c0.6,0.6,2.7,0.6,2.9-1.7c0-1.7-1.6-3.5-4.1-3.3c-2.7,0.2-4.6,2.6-4.6,4.7
		c0,2,0.5,3.2,2.2,4.1c-0.2,1.5-2.1,1.4-3.1,0.6v7.7c0,0.7,0.1,1.2,0.5,1.8V62.5z M99.4,35.1c1.2-0.8,4-1,4.8,2.1
		c-2.9-0.1-5.6,2.1-7,3.7C96.9,39,97.8,36.1,99.4,35.1z"/>
	<path fill-rule="evenodd" clip-rule="evenodd" fill="#231F20" d="M13.2,62.5v-0.9c0.4-0.6,0.5-1.1,0.5-1.8v-7.7
		c-0.9,0.8-2.9,0.9-3.1-0.6c1.8-0.9,2.3-2.1,2.2-4.1c0-2.1-1.9-4.5-4.6-4.7c-2.5-0.2-4.1,1.6-4.1,3.3c0.1,2.3,2.3,2.3,2.9,1.7
		c0.3-0.3,0.7-0.8,0.1-2.3C10,45.6,11,48.8,9,50.6c-1.9,2-5,1.3-6.8-1.1c-3.3-4.3,1-9.7,6.2-9.3c2.3,0.2,4.2,1.2,5.4,2.6V32.2
		c-0.3-1.7-1.7-1.4-2.3-1.4c1.8-1.6,3.6-4.8,5-7.1l0,34.4c0,0.6-0.1,1.5-0.5,1.9L13.2,62.5z M5.8,37.2c0.8-3.1,3.5-2.9,4.8-2.1
		c1.6,1,2.5,3.9,2.2,5.8C11.4,39.3,8.7,37.1,5.8,37.2z"/>
</g>
</svg>
