<?xml version="1.0" encoding="UTF-8" standalone="no"?>
<svg width="151px" height="116px" viewBox="0 0 151 116" version="1.1" xmlns="http://www.w3.org/2000/svg" xmlns:xlink="http://www.w3.org/1999/xlink" xmlns:sketch="http://www.bohemiancoding.com/sketch/ns">
    <!-- Generator: Sketch 3.1.1 (8761) - http://www.bohemiancoding.com/sketch -->
    <title>decorative_2</title>
    <desc>Created with Sketch.</desc>
    <defs></defs>
    <g id="Page-1" stroke="none" stroke-width="1" fill="none" fill-rule="evenodd" sketch:type="MSPage">
        <g id="decorative_2" sketch:type="MSLayerGroup" transform="translate(1.000000, 1.000000)" fill="#231F20">
            <path d="M74.8536585,114.63141 L25.5365854,85.9551282 L25.5365854,28.4551282 L74.8536585,-0.221153846 L124.170732,28.4551282 L124.170732,85.8814103 L74.8536585,114.63141 L74.8536585,114.63141 Z M74.8536585,111.240385 L121.317073,84.1858974 L121.317073,30.224359 L74.8536585,3.16987179 L28.3902439,30.224359 L28.3902439,84.2596154 L74.8536585,111.240385 L74.8536585,111.240385 Z" id="Shape" sketch:type="MSShapeGroup"></path>
            <g id="Group" transform="translate(0.000000, 30.224359)" sketch:type="MSShapeGroup">
                <path d="M132.804878,54.5512821 L129.146341,50.7916667 C128.487805,50.2019231 128.414634,49.0224359 128.414634,48.1378205 L128.414634,0.147435897 C130.463415,3.46474359 132.878049,7.96153846 135.439024,10.099359 C134.560976,10.099359 132.585366,9.73076923 132.146341,12.0897436 L132.146341,27.0544872 C133.902439,25.0641026 136.536585,23.7371795 139.609756,23.4423077 C146.780488,22.7788462 152.780488,30.3717949 148.170732,36.4166667 C145.682927,39.7339744 141.365854,40.6923077 138.731707,37.8910256 C135.878049,35.3108974 137.268293,30.8141026 141.292683,30.6666667 C140.560976,32.7307692 141.073171,33.3942308 141.439024,33.9102564 C142.317073,34.7948718 145.243902,34.7948718 145.390244,31.625 C145.390244,29.2660256 143.195122,26.6858974 139.682927,26.9807692 C135.878049,27.275641 133.243902,30.5929487 133.243902,33.5416667 C133.243902,36.4166667 133.902439,37.9647436 136.317073,39.2916667 C136.02439,41.4294872 133.390244,41.2083333 132,40.1762821 L132,50.8653846 C132,51.8974359 132.219512,52.4871795 132.731707,53.3717949 L132.731707,54.5512821 L132.804878,54.5512821 Z M136.390244,16.2179487 C138.146341,15.1121795 141.95122,14.8173077 143.04878,19.1666667 C139.097561,19.0192308 135.292683,22.1153846 133.317073,24.3269231 C132.878049,21.599359 134.121951,17.6185897 136.390244,16.2179487 L136.390244,16.2179487 Z" id="Shape"></path>
                <path d="M16.8292683,54.5512821 L16.8292683,53.2980769 C17.3414634,52.4134615 17.5609756,51.8237179 17.5609756,50.7916667 L17.5609756,40.0288462 C16.2439024,41.0608974 13.6097561,41.2820513 13.3170732,39.1442308 C15.804878,37.8910256 16.4634146,36.2692308 16.3902439,33.3942308 C16.3902439,30.4455128 13.7560976,27.1282051 9.95121951,26.8333333 C6.43902439,26.5384615 4.24390244,29.1185897 4.24390244,31.4775641 C4.3902439,34.6474359 7.3902439,34.6474359 8.19512195,33.7628205 C8.63414634,33.3205128 9.14634146,32.6570513 8.34146341,30.5192308 C12.2926829,30.7403846 13.6829268,35.2371795 10.902439,37.7435897 C8.19512195,40.5448718 3.95121951,39.5865385 1.46341463,36.2692308 C-3.07317073,30.3717949 2.92682927,22.8525641 10.097561,23.4423077 C13.2439024,23.7371795 15.8780488,25.0641026 17.5609756,27.0544872 L17.5609756,12.0897436 C17.195122,9.65705128 15.2195122,10.099359 14.3414634,10.099359 C16.902439,7.88782051 19.3170732,3.39102564 21.3658537,0.147435897 L21.3658537,48.1378205 C21.3658537,48.9487179 21.2195122,50.2019231 20.6341463,50.7916667 L16.8292683,54.5512821 L16.8292683,54.5512821 Z M6.65853659,19.0929487 C7.68292683,14.7435897 11.5609756,15.1121795 13.3170732,16.1442308 C15.5121951,17.6185897 16.8292683,21.599359 16.3902439,24.2532051 C14.3414634,22.0416667 10.6097561,19.0192308 6.65853659,19.0929487 L6.65853659,19.0929487 Z" id="Shape"></path>
            </g>
        </g>
    </g>
</svg>