<?xml version="1.0" encoding="utf-8"?>
<!-- Generator: Adobe Illustrator 18.1.0, SVG Export Plug-In . SVG Version: 6.00 Build 0)  -->
<!DOCTYPE svg PUBLIC "-//W3C//DTD SVG 1.1//EN" "http://www.w3.org/Graphics/SVG/1.1/DTD/svg11.dtd">
<svg version="1.1" id="Layer_1" xmlns="http://www.w3.org/2000/svg" xmlns:xlink="http://www.w3.org/1999/xlink" x="0px" y="0px"
	 width="110px" height="66.7px" viewBox="0 0 110 66.7" enable-background="new 0 0 110 66.7" xml:space="preserve">
<path fill-rule="evenodd" clip-rule="evenodd" fill="#231F20" d="M53.4,15.9c0-0.3,0.1-0.7,0.3-1.1c-0.8-0.2-1.3-0.6-1.3-1.1
	c0-0.4,0.4-0.8,1-1c-0.3-1.4-1.3-2.5-2.3-1.8c-1,0.7-0.3,1.8,0.6,2.2c-1.3,0.5-3.2-1-3.1-2.4c0.1-2.3,3-3.5,4.5-1.9
	c0-0.2,0-0.4,0-0.6C53.2,6.6,54,3.5,55,2.2c1,1.3,1.8,4.4,1.9,5.9c0,0.2,0,0.4,0,0.6c1.5-1.6,4.4-0.4,4.5,1.9c0,1.4-1.8,2.9-3.1,2.4
	c0.8-0.4,1.6-1.5,0.6-2.2c-1-0.7-2,0.4-2.3,1.8c0.6,0.2,1,0.6,1,1c0,0.5-0.5,0.9-1.3,1.1c0.1,0.4,0.3,0.8,0.3,1.1
	c0.1,0.7-0.3,2-1.6,3C53.7,17.9,53.3,16.6,53.4,15.9z"/>
<path fill-rule="evenodd" clip-rule="evenodd" fill="#231F20" d="M60.8,60.7c-2.6-0.3-3.2-0.2-4,0c1.3,1,1.3,1.4,2,2L58,63.3
	c-0.9-0.9-1.9-1.6-3.1-2.1c-1.1,0.5-2.2,1.2-3,2.1l-0.7-0.6c0.6-0.7,1.3-1.4,2-2c-0.8-0.2-1.4-0.2-4,0c-4.9,1.2-9.4,3.6-14.4,3
	c-2.9-0.3-7.1-1.8-8.6-4.2L27,59c1.6,2,6.7,3,9.7,2.7c-0.1,0,0.3,0,0.3,0c6.1-0.7,12.1-5.1,18-2.1c5.9-3.1,12.3,1.6,18.4,2.1h0
	c3,0.3,8-0.7,9.7-2.7l0.7,0.6c-1.8,2.8-6.2,4.1-9.4,4.3C69.9,64,65.2,61.9,60.8,60.7z M49.3,60.7L49.3,60.7L49.3,60.7
	C50,60.6,50.6,60.5,49.3,60.7z M60.8,60.7L60.8,60.7L60.8,60.7C59.4,60.5,60,60.6,60.8,60.7z"/>
<g>
	<path fill-rule="evenodd" clip-rule="evenodd" fill="#231F20" d="M13.6,25.5c-3.5-0.6-9.3-2.7-11.2-5.6c-2.8-4.4,1.6-7.1,4.5-3
		c1.4,1.9,1.3,4.1,0.1,4.9c3.4,1.4,7.3,2.1,11.4,1.7l3.8-0.6c3.1-0.6,6.1-1.6,9.1-2.6c-2.1-1.2-4-1.7-6.4-1.6
		c-2.3,0.1-5.2,0.5-7.2,1.6c-0.5,0.3-1,0.5-1.4,0.9l-0.7-0.6c1.1-1.6,4.8-2.9,6.6-3.2c4.9-1,7.3-0.4,11.4,2.1
		c4-1.3,8.5-2.6,12.5-0.9c2,0.9,2.6,1.6,4.1,3c-2.5,2.6-6.7,3.9-10,3.2c-2.4-0.5-4.4-1.7-6.4-3C27.5,24.2,20.7,26.7,13.6,25.5z
		 M44.9,23.3c1.5-0.3,2.9-0.7,4-1.6c-4-3.2-8.4-2.2-12.7-0.6C39.2,22.9,41.3,23.9,44.9,23.3z"/>
	<path fill-rule="evenodd" clip-rule="evenodd" fill="#231F20" d="M76.1,21.9c-2,1.3-4,2.4-6.4,3c-3.3,0.7-7.5-0.6-10-3.2
		c1.4-1.4,2-2.1,4.1-3c4-1.7,8.5-0.4,12.5,0.9c4.1-2.5,6.6-3.1,11.4-2.1c1.9,0.4,5.5,1.6,6.6,3.2l-0.7,0.6c-0.3-0.4-0.9-0.7-1.4-0.9
		c-2-1-4.9-1.4-7.2-1.6c-2.4-0.1-4.3,0.4-6.4,1.6c3,1,5.9,1.9,9.1,2.6l3.8,0.6c4.1,0.4,8-0.3,11.4-1.7c-1.2-0.7-1.3-3,0.1-4.9
		c3-4,7.4-1.3,4.5,3c-1.9,2.9-7.7,5-11.2,5.6C89.4,26.7,82.5,24.2,76.1,21.9z M73.8,21.1c-4.3-1.6-8.7-2.6-12.7,0.6
		c1.2,0.9,2.6,1.3,4.1,1.6C68.7,23.9,70.8,22.9,73.8,21.1z"/>
</g>
</svg>
