<?xml version="1.0" encoding="utf-8"?>
<!-- Generator: Adobe Illustrator 18.1.0, SVG Export Plug-In . SVG Version: 6.00 Build 0)  -->
<!DOCTYPE svg PUBLIC "-//W3C//DTD SVG 1.1//EN" "http://www.w3.org/Graphics/SVG/1.1/DTD/svg11.dtd">
<svg version="1.1" id="Layer_1" xmlns="http://www.w3.org/2000/svg" xmlns:xlink="http://www.w3.org/1999/xlink" x="0px" y="0px"
	 width="110px" height="78.2px" viewBox="0 0 110 78.2" enable-background="new 0 0 110 78.2" xml:space="preserve">
<path fill-rule="evenodd" clip-rule="evenodd" fill="#231F20" d="M34.3,75.6L14.6,41.1L11.9,46l1.4,3.8l-1,1.7l-1.4-3.8l-0.4,0.7
	l1.4,3.8l-1,1.7l-1.4-3.8l-0.4,0.7l1.4,3.8l-1,1.7l-1.4-3.8l-0.4,0.7l1.4,3.8l-1,1.7l-1.4-3.8L6,56.2l-1.5-0.9l0.7-1.2l-4,0.7l1-1.7
	l4-0.7l0.4-0.7l-4,0.7l1-1.7l4-0.7L8,49.3L4,50l1-1.8l4-0.7l0.4-0.7l-4,0.7l1-1.7l4-0.7l3.3-5.7L8,29.6l-1.9,5L4,20.8l10.8,8.8
	l-5.3-0.9l5.1,8.9L33.9,3.8h42.2l19.3,33.8l2.7-4.8L96.7,29l1-1.7l1.4,3.8l0.4-0.7l-1.4-3.8l1-1.7l1.4,3.8l0.4-0.7l-1.4-3.8l1-1.8
	l1.4,3.8l0.4-0.7l-1.4-3.8l1-1.7l1.4,3.8l0.7-1.2l1.5,0.8l-0.7,1.2l4-0.7l-1,1.7l-4,0.7l-0.4,0.7l4-0.7l-1,1.7l-4,0.7l-0.4,0.7
	l4-0.7l-1,1.7l-4,0.7l-0.4,0.7l4-0.7l-1,1.7l-4,0.7l-3.3,5.7l5.6,9.8l1.9-5L106,58l-10.8-8.8l5.3,0.9l-5.1-8.9L75.7,75.6H34.3z
	 M74.6,74l19.8-34.6L75,5.4H35.1l-19.4,34L35.4,74H74.6z"/>
</svg>
