<?xml version="1.0" encoding="utf-8"?>
<!-- Generator: Adobe Illustrator 18.1.0, SVG Export Plug-In . SVG Version: 6.00 Build 0)  -->
<!DOCTYPE svg PUBLIC "-//W3C//DTD SVG 1.1//EN" "http://www.w3.org/Graphics/SVG/1.1/DTD/svg11.dtd">
<svg version="1.1" id="Layer_1" xmlns="http://www.w3.org/2000/svg" xmlns:xlink="http://www.w3.org/1999/xlink" x="0px" y="0px"
	 width="110px" height="59.6px" viewBox="0 0 110 59.6" enable-background="new 0 0 110 59.6" xml:space="preserve">
<g>
	<path fill-rule="evenodd" clip-rule="evenodd" fill="#231F20" d="M43.9,14.5l-0.1-0.7l-0.1-0.3l0.1-0.1c1.7-1.4,5.9-2.6,11.2-2.6
		c4.9,0,9.3,1.1,11.1,2.6l0.1,0.1l-0.1,0.3l-0.1,0.8l-0.3-0.2c-2.1-1.5-6.2-2.4-10.7-2.4c-4.1,0-8.3,0.8-10.6,2.3L43.9,14.5z"/>
	<path fill-rule="evenodd" clip-rule="evenodd" fill="#231F20" d="M43.6,12.5l-0.1-0.7c-0.1-0.6-0.3-1.2-0.5-1.7
		c-0.3-0.6-0.5-1.1-1-1.7c0,0-0.1-0.1-0.1-0.2c0,0-0.1,0-0.1,0l-0.3,0c-0.3,0-0.6-0.1-0.8-0.4c-0.2-0.2-0.4-0.5-0.4-0.9
		c0-0.7,0.5-1.3,1.2-1.3c0.3,0,0.6,0.1,0.8,0.4c0.2,0.2,0.3,0.5,0.4,0.9c0,0,0,0,0,0c0,0.2-0.1,0.5-0.2,0.7v0
		c0.1,0.1,0.2,0.2,0.2,0.2c0.8,0.9,2.7,1.4,4,0.6c0.7-0.4,1.4-1.7,1.4-2.7c0-0.2,0-0.4-0.1-0.6c0,0,0-0.1-0.1-0.2
		c-0.3,0-0.5-0.1-0.8-0.4c-0.2-0.2-0.3-0.5-0.3-0.9l0,0c0-0.7,0.5-1.3,1.2-1.3c0.3,0,0.6,0.1,0.9,0.4c0.2,0.2,0.3,0.5,0.3,0.9l0,0
		c0,0.4-0.2,0.8-0.5,1.1l0,0c0,0,0.1,0.1,0.1,0.1c0.5,1.1,2.1,2.2,3.5,2c1.3-0.2,2.3-1.7,2.4-2.8c0,0,0-0.1,0-0.2
		c-0.5-0.2-0.8-0.6-0.8-1.2c0,0,0,0,0,0c0-0.7,0.5-1.3,1.2-1.3c0.3,0,0.6,0.1,0.8,0.4C56,2,56.2,2.3,56.2,2.6c0,0,0,0,0,0
		c0,0.5-0.3,1-0.8,1.2c0,0.1,0,0.2,0,0.2c0.1,1.2,1.5,2.6,2.7,2.8c1.2,0.2,2.8-0.8,3.3-2c0,0,0-0.1,0-0.1C61.1,4.5,61,4.2,61,3.8
		c0,0,0,0,0,0c0-0.7,0.5-1.3,1.2-1.3c0.3,0,0.6,0.1,0.8,0.4c0.2,0.2,0.3,0.5,0.4,0.9c0,0.7-0.5,1.3-1.2,1.3h0c0,0,0,0.1,0,0.1
		C62,5.3,62,5.4,62,5.6c0,1.1,0.8,2.4,1.7,2.9c1,0.6,2.8,0.3,3.6-0.6c0,0,0,0,0.1-0.1c-0.1-0.2-0.1-0.4-0.1-0.6l0,0
		c0-0.7,0.5-1.3,1.2-1.3c0.3,0,0.6,0.1,0.8,0.4c0.2,0.2,0.4,0.5,0.4,0.9c0,0.7-0.5,1.3-1.2,1.3c-0.1,0-0.3,0-0.4-0.1
		c-0.1,0.1-0.1,0.2-0.1,0.2c-0.3,0.5-0.5,1-0.7,1.4L67,10.4c-0.2,0.4-0.3,0.9-0.5,1.5l-0.1,0.5l-0.1-0.1c-2.2-1.5-6.5-2.5-11.3-2.5
		c-4.3,0-8.8,0.9-11.2,2.4L43.6,12.5z"/>
	<path fill-rule="evenodd" clip-rule="evenodd" fill="#231F20" d="M44.8,17.7c-0.3-0.3-0.4-0.6-0.4-0.8L44.2,16l-0.1-0.5l0.4-0.3
		c1.6-1.3,5.6-2.5,10.6-2.5c4.6,0,8.8,1,10.6,2.5l0.2,0.2L65.7,16l-0.3,1.1c-0.8,2.1-6.8,2.7-10.5,2.7
		C50.8,19.7,46.1,19.1,44.8,17.7z M64.2,16.6c-0.3-0.6-3.6-1.8-9.2-1.8c-5.7,0-9,1.2-9.3,1.8c0.3,0.6,3.6,1.8,9.3,1.8
		C60.6,18.4,63.9,17.3,64.2,16.6z"/>
</g>
<path fill-rule="evenodd" clip-rule="evenodd" fill="#231F20" d="M19.5,55c-1.7-0.6-3.2-1-4.9-1.2c-3.7-0.3-8.2-0.4-11,0.4L1.2,55
	c1.9-9.6,2.1-14.9,0.1-24.6c2.6-0.9,4.4-1.2,7.5-1.2c4.4-0.1,6.6,0.1,10.4,1.2c-0.1-0.8-0.6-3.2-0.5-3.8c0.5-3,4.3-4.4,7.5-4.4
	c4.9,0,9.8,0.9,14.4,1.7c9.1,1.6,19.1,1.6,28.2,0c4.6-0.8,9.6-1.7,14.5-1.7c3.1,0,6.9,1.4,7.5,4.2c0.1,0.6-0.1,1.3-0.2,1.9l-0.3,2.1
	c3.9-1.2,6-1.3,10.5-1.3c3.1,0,4.9,0.4,7.5,1.2c-1.5,7.6-1.9,14.4-0.4,22l0.5,2.6l-2.4-0.7c-2.8-0.8-7.3-0.7-11-0.4
	c-4.1,0.3-7.2,2.5-11.8,2.5c-2.7,0-6.1-1.1-7.2-3.4c-0.6-1.3-0.4-4.3-0.4-5.8c-7.5,1.2-13.4,2.3-21.2,2.3c-7.7,0-13.4-1.1-20.8-2.3
	c0,1.4,0.2,4.5-0.4,5.8c-1.1,2.3-4.4,3.4-7.2,3.4C23.7,56.4,21.4,55.7,19.5,55z M32.4,51.5c0-0.4-0.2-0.9-0.5-1.3v1.3
	c-0.2,1.4-2.9,2.2-5.5,2.2c-4.2,0-7.3-2-6.9-4.9c0.9-5.6,1.1-11.1,0.7-16.5c-1.8-0.6-3.6-1.2-5.5-1.4c-3.1-0.2-8.5-0.5-11.5,0.5
	c1.4,7,1.4,14.1,0.1,21.2c3-0.9,7.8-0.7,11.5-0.4c4.2,0.3,7.3,2.5,11.7,2.5C29.7,54.8,32.4,53.3,32.4,51.5z M90.1,53.4
	c1.7-0.5,3.3-1.1,5.2-1.2c3.7-0.3,8.4-0.4,11.5,0.4c-1.4-7-1.3-14.1,0.1-21.2c-3-1-8.4-0.7-11.5-0.5c-1.9,0.2-3.7,0.8-5.5,1.4
	c-0.4,5.3-0.2,10.8,0.7,16.3c1.2,6.1-12.4,6.3-12.4,2.7v-1.1c-2,2.5,2.2,4.6,5.6,4.6C86,54.8,88.1,54.1,90.1,53.4z M31,51.4
	c0-1-4.7-1.9-7.7-0.8c-1,0.4-1.7-0.6-1.7-1.4v-1.8c-3.4,2.4,0.6,5.3,4.8,5.3C29.5,52.7,31,51.8,31,51.4z M89.6,49.4
	c0-0.8-0.5-1.5-1.3-2c0,0.7,0.1,1.5,0,2.2c-0.1,0.6-0.8,1.4-1.7,1c-2.6-1-7.8-0.2-7.7,0.8c0.1,0.4,1.6,1.3,4.6,1.3
	C86.8,52.7,89.6,51.2,89.6,49.4z M31,50v-0.7c-2.9-1.9-8.5-1.2-8.5-0.1c0,0.9,1.3-0.2,3.8-0.2C28.2,49.1,30,49.4,31,50z M83.6,49.1
	c2.5,0,3.9,1.1,3.8,0.2c0-1.1-5.6-1.7-8.5,0.1V50C80,49.4,81.8,49.1,83.6,49.1z M32.4,49.3v-2.9c-3-0.3-7.1-0.9-9.9,0.4v1
	C25.6,46.6,30.4,47.1,32.4,49.3z M83.6,47.1c1.3,0,2.7,0.2,3.8,0.7v-1c-2.8-1.3-6.9-0.7-9.9-0.4v2.8C78.8,48,81,47.1,83.6,47.1z
	 M69.2,46.7c4.7-0.8,9.6-1.7,14.4-1.7c2.4,0,4.4,0.7,5.7,1.8c-0.8-6.5-0.7-12.5,0.1-18.8c0.1-0.4,0.1-0.8,0.2-1.3
	c-0.3-1.6-2.9-3-6-3c-4.8,0-9.6,0.8-14.2,1.7c-9.3,1.6-19.4,1.7-28.7,0c-4.6-0.8-9.4-1.7-14.2-1.7c-3.1,0-5.7,1.4-6,3l0.6,4.7
	c0.5,5,0.4,10.1-0.3,15.3c1.2-1.1,3.3-1.8,5.7-1.8c4.9,0,9.7,0.8,14.4,1.7C50,48.4,59.9,48.4,69.2,46.7z"/>
</svg>
