<?xml version="1.0" encoding="UTF-8" standalone="no"?>
<svg width="152px" height="78px" viewBox="0 0 152 78" version="1.1" xmlns="http://www.w3.org/2000/svg" xmlns:xlink="http://www.w3.org/1999/xlink" xmlns:sketch="http://www.bohemiancoding.com/sketch/ns">
    <!-- Generator: Sketch 3.1.1 (8761) - http://www.bohemiancoding.com/sketch -->
    <title>decorative_4</title>
    <desc>Created with Sketch.</desc>
    <defs></defs>
    <g id="Page-1" stroke="none" stroke-width="1" fill="none" fill-rule="evenodd" sketch:type="MSPage">
        <g id="decorative_4" sketch:type="MSLayerGroup" transform="translate(1.000000, 0.000000)" fill="#231F20">
            <g id="Group" transform="translate(54.448399, 0.000000)" sketch:type="MSShapeGroup">
                <path d="M5.07117438,18.6662069 L4.91103203,17.697931 L4.85765125,17.2137931 L5.01779359,17.0524138 C7.41992883,15.062069 13.1850534,13.3944828 20.658363,13.3944828 C27.4377224,13.3944828 33.683274,14.9006897 36.2455516,17.1062069 L36.2989324,17.2137931 L36.2455516,17.5903448 L36.0320285,18.6662069 L35.6049822,18.3434483 C32.6690391,16.2993103 27.0106762,14.9544828 20.658363,14.9544828 C14.9466192,14.9544828 9.02135231,16.0841379 5.81850534,18.1282759 L5.07117438,18.6662069 L5.07117438,18.6662069 Z" id="Shape"></path>
                <path d="M4.48398577,14.9006897 C4.32384342,13.9862069 4.0569395,13.1793103 3.79003559,12.48 C3.36298932,11.6193103 3.04270463,10.92 2.40213523,10.0593103 C2.40213523,10.0593103 2.29537367,9.89793103 2.1886121,9.73655172 L1.76156584,9.79034483 C1.33451957,9.84413793 0.90747331,9.62896552 0.587188612,9.3062069 C0.266903915,8.98344828 0.106761566,8.55310345 0.106761566,8.06896552 C0.106761566,7.10068966 0.854092527,6.24 1.76156584,6.24 C2.1886121,6.24 2.61565836,6.40137931 2.93594306,6.72413793 C3.25622776,7.04689655 3.41637011,7.47724138 3.41637011,8.01517241 C3.41637011,8.01517241 3.41637011,8.01517241 3.41637011,8.06896552 C3.41637011,8.39172414 3.30960854,8.76827586 3.09608541,9.03724138 L3.09608541,9.09103448 C3.20284698,9.25241379 3.30960854,9.36 3.30960854,9.36 C4.48398577,10.6510345 7.09964413,11.2427586 8.86120996,10.1668966 C9.87544484,9.57517241 10.8362989,7.8 10.8362989,6.2937931 C10.8362989,6.02482759 10.8362989,5.75586207 10.7295374,5.48689655 C10.7295374,5.48689655 10.6761566,5.32551724 10.6761566,5.21793103 C10.2491103,5.16413793 9.92882562,5.00275862 9.60854093,4.7337931 C9.28825623,4.41103448 9.12811388,3.98068966 9.12811388,3.44275862 C9.12811388,2.47448276 9.87544484,1.66758621 10.7295374,1.6137931 C11.2099644,1.6137931 11.5836299,1.77517241 11.9039146,2.09793103 C12.2241993,2.42068966 12.3843416,2.85103448 12.3843416,3.38896552 C12.3843416,3.98068966 12.1174377,4.57241379 11.6370107,4.89517241 C11.6370107,4.94896552 11.6903915,5.05655172 11.6903915,5.05655172 C12.3843416,6.61655172 14.6263345,8.12275862 16.6014235,7.8537931 C18.3629893,7.58482759 19.8576512,5.48689655 19.911032,3.87310345 L19.911032,3.65793103 C19.2704626,3.44275862 18.7900356,2.79724138 18.7900356,2.04413793 C18.7900356,1.07586207 19.5373665,0.268965517 20.4448399,0.215172414 C20.8718861,0.215172414 21.2989324,0.376551724 21.6192171,0.699310345 C21.9395018,1.02206897 22.0996441,1.5062069 22.0996441,1.99034483 C22.0996441,1.99034483 22.0996441,1.99034483 22.0996441,2.04413793 C22.0996441,2.79724138 21.6192171,3.49655172 20.9786477,3.71172414 L20.9786477,3.92689655 C21.13879,5.59448276 23.0604982,7.63862069 24.7686833,7.90758621 C26.3701068,8.12275862 28.6654804,6.72413793 29.3060498,5.11034483 C29.3060498,5.11034483 29.3060498,5.00275862 29.3594306,4.94896552 C28.9857651,4.6262069 28.8256228,4.14206897 28.8256228,3.60413793 C28.8256228,2.63586207 29.519573,1.82896552 30.4270463,1.82896552 C30.8540925,1.82896552 31.2811388,1.99034483 31.6014235,2.31310345 C31.9217082,2.63586207 32.0818505,3.0662069 32.0818505,3.55034483 C32.0818505,4.51862069 31.3345196,5.37931034 30.4270463,5.37931034 L30.4270463,5.48689655 C30.3736655,5.70206897 30.3736655,5.91724138 30.3736655,6.13241379 C30.3736655,7.69241379 31.5480427,9.46758621 32.7758007,10.1668966 C34.2170819,11.0275862 36.6725979,10.5972414 37.8469751,9.25241379 C37.8469751,9.25241379 37.9003559,9.19862069 37.9003559,9.14482759 C37.7935943,8.87586207 37.7402135,8.66068966 37.7402135,8.33793103 C37.7402135,7.36965517 38.4341637,6.56275862 39.341637,6.50896552 C39.7686833,6.50896552 40.1957295,6.67034483 40.5160142,6.99310345 C40.8362989,7.31586207 40.9964413,7.7462069 40.9964413,8.28413793 C40.9964413,9.25241379 40.2491103,10.1131034 39.341637,10.1131034 C39.1281139,10.1131034 38.9145907,10.1131034 38.7544484,9.95172414 C38.7010676,10.1131034 38.594306,10.2206897 38.594306,10.2206897 C38.113879,10.92 37.9003559,11.5655172 37.633452,12.2648276 L37.366548,12.9641379 C37.0996441,13.5558621 36.886121,14.3089655 36.7259786,15.062069 L36.5658363,15.8151724 L36.405694,15.6537931 C34.0742909,14.0463013 29.9878434,12.8177953 25.2029509,12.3312617 C23.7430997,12.1828223 22.2182348,12.1034483 20.658363,12.1034483 C14.5729537,12.1034483 8.32740214,13.3406897 5.01779359,15.4924138 L4.64412811,15.8689655 L4.48398577,14.9006897 Z" id="Shape"></path>
                <path d="M6.29893238,23.1310345 C5.9252669,22.7006897 5.81850534,22.3241379 5.76512456,22.0013793 L5.44483986,20.7641379 L5.28469751,20.0648276 L5.76512456,19.5806897 C8.06049822,17.697931 13.5053381,16.0841379 20.6049822,16.0841379 C27.0106762,16.0841379 32.9359431,17.4827586 35.3380783,19.5806897 L35.658363,19.9034483 L35.4448399,20.7103448 L34.9644128,22.2703448 C33.8967972,25.1751724 25.4092527,26.0358621 20.3380783,26.0358621 C14.7330961,26.0896552 8.16725979,25.1751724 6.29893238,23.1310345 L6.29893238,23.1310345 Z M33.4697509,21.7324138 C33.0427046,20.8717241 28.3985765,19.257931 20.5516014,19.257931 C12.6512456,19.257931 7.90035587,20.8717241 7.52669039,21.7862069 C7.95373665,22.6468966 12.5978648,24.2606897 20.4982206,24.2606897 C28.3451957,24.2068966 33.0427046,22.5931034 33.4697509,21.7324138 L33.4697509,21.7324138 Z" id="Shape"></path>
            </g>
            <path d="M25.4092527,75.7944828 C23.0071174,74.9875862 20.9252669,74.342069 18.6298932,74.1806897 C13.5053381,73.7503448 7.15302491,73.5889655 3.30960854,74.7186207 L-0.0533807829,75.6331034 C2.56227758,62.1310345 2.88256228,54.7075862 0.160142349,40.9903448 C3.79003559,39.7531034 6.35231317,39.3227586 10.6761566,39.2689655 C16.8683274,39.1613793 19.911032,39.3765517 25.2491103,40.9903448 C25.088968,39.9144828 24.3950178,36.5793103 24.5551601,35.7186207 C25.1957295,31.5227586 30.6405694,29.5324138 35.0711744,29.5324138 C41.9572954,29.4786207 48.8434164,30.7696552 55.2491103,31.8993103 C67.9537367,34.2124138 81.9395018,34.1586207 94.6975089,31.8993103 C101.156584,30.7158621 108.096085,29.4786207 114.928826,29.5324138 C119.252669,29.5324138 124.590747,31.4151724 125.391459,35.5034483 C125.551601,36.3641379 125.231317,37.2786207 125.124555,38.1393103 L124.697509,41.0441379 C130.088968,39.4303448 133.131673,39.2151724 139.323843,39.2689655 C143.647687,39.3227586 146.156584,39.8068966 149.839858,40.9903448 C147.758007,51.6951724 147.170819,61.3241379 149.30605,71.9213793 L150.053381,75.6331034 L146.690391,74.6648276 C142.846975,73.5889655 136.494662,73.7503448 131.370107,74.1268966 C125.604982,74.6110345 121.33452,77.6772414 114.928826,77.7310345 C111.085409,77.7310345 106.3879,76.2248276 104.839858,72.9972414 C104.039146,71.1682759 104.359431,66.9186207 104.359431,64.8744828 C93.9501779,66.542069 85.569395,68.102069 74.6797153,68.102069 C63.8967972,68.0482759 55.8896797,66.542069 45.6405694,64.8744828 C45.6405694,66.8648276 45.9608541,71.1682759 45.1601423,72.9972414 C43.6654804,76.1710345 38.9679715,77.7310345 35.0711744,77.7310345 C31.2811388,77.7310345 28.1316726,76.7089655 25.4092527,75.7944828 L25.4092527,75.7944828 Z M43.5053381,70.737931 C43.5053381,70.1462069 43.2384342,69.5006897 42.8113879,68.9627586 L42.8113879,70.7917241 C42.5978648,72.782069 38.8078292,73.857931 35.0711744,73.857931 C29.252669,73.857931 24.8220641,71.1144828 25.4092527,66.9186207 C26.6370107,59.0110345 26.9572954,51.2648276 26.3701068,43.7337931 C23.8078292,42.9268966 21.3523132,42.0662069 18.683274,41.8510345 C14.4128114,41.5282759 6.83274021,41.2055172 2.66903915,42.5503448 C4.64412811,52.4482759 4.6975089,62.4537931 2.77580071,72.3517241 C7.04626335,71.1144828 13.7188612,71.3296552 18.7900356,71.76 C24.6085409,72.2441379 28.9323843,75.3103448 35.1245552,75.3641379 C39.6085409,75.417931 43.5053381,73.32 43.5053381,70.737931 L43.5053381,70.737931 Z M124.003559,73.5351724 C126.405694,72.782069 128.701068,72.0289655 131.263345,71.8137931 C136.3879,71.3834483 143.060498,71.222069 147.27758,72.4055172 C145.302491,62.6151724 145.462633,52.6096552 147.384342,42.6041379 C143.16726,41.2055172 135.640569,41.582069 131.316726,41.9048276 C128.647687,42.12 126.192171,42.9806897 123.629893,43.7875862 C123.042705,51.2648276 123.309609,58.9572414 124.537367,66.7572414 C126.245552,75.3103448 107.241993,75.5793103 107.188612,70.5227586 L107.188612,68.9089655 C104.359431,72.4593103 110.284698,75.417931 114.928826,75.3641379 C118.398577,75.417931 121.281139,74.4496552 124.003559,73.5351724 L124.003559,73.5351724 Z M41.5302491,70.6303448 C41.5302491,69.2317241 34.911032,67.9944828 30.747331,69.5006897 C29.3060498,70.0386207 28.3985765,68.6937931 28.3985765,67.5641379 L28.3985765,64.982069 C23.594306,68.4248276 29.1992883,72.4593103 35.0711744,72.4593103 C39.341637,72.5131034 41.5302491,71.222069 41.5302491,70.6303448 L41.5302491,70.6303448 Z M123.362989,67.8331034 C123.362989,66.6496552 122.615658,65.7889655 121.548043,65.0358621 C121.548043,65.9503448 121.708185,67.1875862 121.548043,68.102069 C121.3879,68.9627586 120.427046,70.0386207 119.199288,69.5544828 C115.569395,68.102069 108.362989,69.2317241 108.469751,70.737931 C108.576512,71.3296552 110.765125,72.5668966 114.928826,72.5668966 C119.519573,72.5131034 123.362989,70.3613793 123.362989,67.8331034 L123.362989,67.8331034 Z M41.5302491,68.7475862 L41.5302491,67.8331034 C37.4733096,65.1434483 29.6263345,66.1655172 29.7330961,67.6717241 C29.7864769,68.9627586 31.6014235,67.4027586 35.0711744,67.4027586 C37.5800712,67.3489655 40.0355872,67.8331034 41.5302491,68.7475862 L41.5302491,68.7475862 Z M114.928826,67.3489655 C118.398577,67.3489655 120.320285,68.9089655 120.266904,67.617931 C120.213523,66.1117241 112.47331,65.1434483 108.469751,67.8331034 L108.469751,68.7475862 C109.964413,67.8331034 112.419929,67.3489655 114.928826,67.3489655 L114.928826,67.3489655 Z M43.5053381,67.7255172 L43.5053381,63.6910345 C39.2882562,63.2068966 33.5765125,62.4537931 29.7330961,64.2827586 L29.7330961,65.6813793 C34.0035587,63.8524138 40.6761566,64.6055172 43.5053381,67.7255172 L43.5053381,67.7255172 Z M114.928826,64.6593103 C116.743772,64.6593103 118.66548,64.9282759 120.266904,65.6275862 L120.266904,64.2289655 C116.370107,62.4537931 110.658363,63.2068966 106.494662,63.6372414 L106.494662,67.617931 C108.202847,65.8965517 111.298932,64.6593103 114.928826,64.6593103 L114.928826,64.6593103 Z M94.8576512,64.1213793 C101.423488,62.937931 108.202847,61.7544828 114.982206,61.7544828 C118.291815,61.7544828 121.174377,62.7227586 122.882562,64.2827586 C121.708185,55.137931 121.868327,46.6386207 123.096085,37.8165517 C123.149466,37.2248276 123.256228,36.6331034 123.362989,36.0413793 C122.882562,33.7282759 119.252669,31.8993103 114.982206,31.8993103 C108.309609,31.8993103 101.58363,33.0827586 95.0711744,34.2662069 C82.0462633,36.5793103 67.9003559,36.6331034 54.9288256,34.2662069 C48.4697509,33.0827586 41.8505338,31.8993103 35.1245552,31.8993103 C30.8007117,31.8993103 27.1174377,33.8358621 26.7437722,36.1489655 L27.6512456,42.7655172 C28.2918149,49.8662069 28.1316726,56.9668966 27.1708185,64.3365517 C28.9323843,62.7765517 31.8149466,61.8082759 35.1245552,61.8082759 C41.9572954,61.8082759 48.683274,62.9917241 55.1957295,64.1751724 C68.0071174,66.4344828 81.9395018,66.4344828 94.8576512,64.1213793 L94.8576512,64.1213793 Z" id="Shape" sketch:type="MSShapeGroup"></path>
        </g>
    </g>
</svg>