<?xml version="1.0" encoding="utf-8"?>
<!-- Generator: Adobe Illustrator 18.1.0, SVG Export Plug-In . SVG Version: 6.00 Build 0)  -->
<!DOCTYPE svg PUBLIC "-//W3C//DTD SVG 1.1//EN" "http://www.w3.org/Graphics/SVG/1.1/DTD/svg11.dtd">
<svg version="1.1" id="Layer_1" xmlns="http://www.w3.org/2000/svg" xmlns:xlink="http://www.w3.org/1999/xlink" x="0px" y="0px"
	 width="110px" height="106.9px" viewBox="0 0 110 106.9" enable-background="new 0 0 110 106.9" xml:space="preserve">
<g>
	<path fill-rule="evenodd" clip-rule="evenodd" fill="#231F20" d="M54.9,88.4L39,72.5l2.4-2.4l13.4,13.4l32.7-32.7L74.2,37.3
		l2.4-2.4l15.8,15.9L54.9,88.4z M33,66.5L17.3,50.8l37.6-37.6l15.8,15.8l-2.4,2.4L54.9,18L22.2,50.8l13.3,13.3L33,66.5z"/>
	<path fill-rule="evenodd" clip-rule="evenodd" fill="#231F20" d="M12.8,103.6L12,95.9l-1.8,1.8l-2.3-2.3l1.8-1.8L2,92.8l2.7-2.7
		l7.7,0.7l1.1-1.1L5.8,89l2.7-2.7l7.7,0.7l1.1-1.1l-7.7-0.7l2.7-2.7l7.7,0.7l1.1-1.1l-7.7-0.7l2.7-2.7l7.7,0.7l27-27l2.4,2.3l-27,27
		l0.7,7.7l-2.7,2.7l-0.7-7.7l-1.1,1.1l0.7,7.7L20.4,96l-0.7-7.7l-1.1,1.1l0.7,7.7l-2.7,2.7l-0.7-7.7l-1.1,1.1l0.7,7.7L12.8,103.6z
		 M59.1,48.8l-2.3-2.4l31.3-31.3l-10.1-1l24.3-10.8L91.4,27.6l-1-10.1L59.1,48.8z"/>
	<path fill-rule="evenodd" clip-rule="evenodd" fill="#231F20" d="M96.9,103.6l-2.7-2.7l0.7-7.7l-1.1-1.1L93,99.8l-2.7-2.7l0.7-7.7
		L90,88.3L89.3,96l-2.7-2.7l0.7-7.7l-1.1-1.1l-0.7,7.7l-2.7-2.7l0.8-7.7l-9.2-9.2l2.3-2.3l9.2,9.2l7.7-0.8l2.7,2.7l-7.7,0.7l1.1,1.1
		l7.7-0.7l2.7,2.7L92.3,86l1.1,1.1l7.7-0.7l2.7,2.7l-7.7,0.8l1.1,1.1l7.7-0.7l2.7,2.7l-7.7,0.8l1.8,1.8l-2.3,2.3l-1.8-1.8
		L96.9,103.6z M68.4,66.7L38.8,37.1l2.3-2.4l29.6,29.6L68.4,66.7z M32.9,31.2L19.2,17.5l-1,10.1L7.4,3.3l24.2,10.8l-10.1,1
		l13.7,13.7L32.9,31.2z"/>
</g>
</svg>
