<?xml version="1.0" encoding="UTF-8" standalone="no"?>
<svg width="150px" height="88px" viewBox="0 0 150 88" version="1.1" xmlns="http://www.w3.org/2000/svg" xmlns:xlink="http://www.w3.org/1999/xlink" xmlns:sketch="http://www.bohemiancoding.com/sketch/ns">
    <!-- Generator: Sketch 3.1.1 (8761) - http://www.bohemiancoding.com/sketch -->
    <title>decorative_1</title>
    <desc>Created with Sketch.</desc>
    <defs></defs>
    <g id="Page-1" stroke="none" stroke-width="1" fill="none" fill-rule="evenodd" sketch:type="MSPage">
        <g id="decorative_1" sketch:type="MSLayerGroup" fill="#231F20">
            <path d="M72.8915663,19.4076923 C72.9518072,19.0426573 73.0722892,18.4342657 73.253012,17.8867133 C72.1686747,17.5825175 71.4457831,16.9741259 71.4457831,16.3657343 C71.4457831,15.8181818 72.0481928,15.2706294 72.8915663,14.9664336 C72.4698795,12.9587413 71.1445783,11.4377622 69.6987952,12.4111888 C68.313253,13.3237762 69.3373494,14.9664336 70.4819277,15.513986 C68.6144578,16.2440559 66.0240964,14.1146853 66.1445783,12.106993 C66.2650602,8.82167832 70.3012048,7.17902098 72.4096386,9.43006993 L72.4096386,8.51748252 C72.5903614,6.38811189 73.7349398,2.00769231 75.1204819,0.121678322 C76.5060241,1.94685315 77.7108434,6.32727273 77.8313253,8.51748252 C77.8915663,8.76083916 77.8915663,9.06503497 77.8915663,9.43006993 C79.939759,7.17902098 83.9759036,8.82167832 84.1566265,12.106993 C84.2168675,14.0538462 81.686747,16.2440559 79.8192771,15.513986 C80.9638554,14.9664336 81.9879518,13.3237762 80.6024096,12.4111888 C79.1566265,11.4377622 77.8313253,12.9587413 77.4096386,14.9664336 C78.313253,15.2706294 78.8554217,15.8181818 78.8554217,16.3657343 C78.8554217,17.034965 78.1325301,17.5825175 77.0481928,17.8867133 C77.2289157,18.4951049 77.4096386,19.0426573 77.4096386,19.4076923 C77.5301205,20.441958 77.0481928,22.2671329 75.1807229,23.6055944 C73.1927711,22.2671329 72.7108434,20.441958 72.8915663,19.4076923 L72.8915663,19.4076923 Z" id="Shape" sketch:type="MSShapeGroup"></path>
            <path d="M83.0722892,82.6804196 C79.4578313,82.3153846 78.5542169,82.3762238 77.4698795,82.6195804 C79.2168675,84.0797203 79.3373494,84.6272727 80.2409639,85.479021 L79.2771084,86.3916084 C77.9518072,85.1748252 76.5662651,84.1405594 75,83.4104895 C73.4337349,84.1405594 71.9879518,85.1748252 70.7831325,86.3916084 L69.8192771,85.479021 C70.7228916,84.4447552 71.626506,83.4713287 72.5903614,82.6195804 C71.4457831,82.3762238 70.6024096,82.3153846 66.9879518,82.6804196 C60.1807229,84.3839161 53.8554217,87.7909091 46.8072289,87 C42.7710843,86.5132867 36.8674699,84.4447552 34.8192771,81.0377622 L35.8433735,80.2468531 C38.0722892,83.0454545 45.1807229,84.4447552 49.3975904,84.0188811 C49.2168675,84.0797203 49.7590361,83.958042 49.8795181,83.958042 C58.4337349,82.9846154 66.8674699,76.7181818 75.060241,81.0377622 C83.253012,76.7181818 92.1686747,83.2888112 100.722892,84.0188811 L100.662651,84.0188811 C104.939759,84.5055944 111.927711,83.0454545 114.216867,80.2468531 L115.180723,81.0377622 C112.590361,84.9314685 106.506024,86.8783217 101.987952,87.1216783 C95.9036145,87.4258741 89.3373494,84.3230769 83.0722892,82.6804196 L83.0722892,82.6804196 Z M66.9879518,82.6804196 L66.9879518,82.6804196 L66.9277108,82.6804196 C68.0120482,82.4979021 68.8554217,82.3762238 66.9879518,82.6804196 L66.9879518,82.6804196 Z M83.1927711,82.6804196 L83.1325301,82.6804196 C81.2650602,82.4370629 82.1084337,82.5587413 83.1927711,82.6804196 L83.1927711,82.6804196 Z" id="Shape" sketch:type="MSShapeGroup"></path>
            <g id="Group" transform="translate(0.000000, 17.643357)" sketch:type="MSShapeGroup">
                <path d="M17.1686747,15.3314685 C12.3493976,14.5405594 4.15662651,11.5594406 1.5060241,7.48321678 C-2.46987952,1.33846154 3.73493976,-2.49440559 7.8313253,3.22447552 C9.75903614,5.84055944 9.69879518,9.06503497 8.01204819,10.0993007 C12.7710843,12.0461538 18.253012,13.0804196 23.9759036,12.5328671 L29.3373494,11.741958 C33.7349398,10.8293706 37.8313253,9.55174825 41.9879518,8.15244755 C38.9759036,6.50979021 36.3855422,5.71888112 33.0120482,5.9013986 C29.8192771,6.08391608 25.7831325,6.63146853 22.9518072,8.09160839 C22.2891566,8.45664336 21.5662651,8.76083916 21.0240964,9.43006993 L20.060241,8.63916084 C21.5662651,6.32727273 26.746988,4.62377622 29.3373494,4.07622378 C36.1445783,2.67692308 39.5783133,3.46783217 45.3012048,7.05734266 C50.8433735,5.17132867 57.1084337,3.46783217 62.7710843,5.84055944 C65.6024096,7.05734266 66.4457831,8.03076923 68.4337349,10.0993007 C64.939759,13.8104895 59.0963855,15.6356643 54.4578313,14.6013986 C51.1445783,13.8713287 48.313253,12.2286713 45.5421687,10.4034965 C36.626506,13.5671329 27.0481928,16.9741259 17.1686747,15.3314685 L17.1686747,15.3314685 Z M60.9638554,12.1678322 C63.0120482,11.8027972 64.939759,11.1335664 66.626506,9.91678322 C61.0240964,5.47552448 54.8192771,6.87482517 48.7951807,9.12587413 C52.9518072,11.6811189 55.9036145,13.1412587 60.9638554,12.1678322 L60.9638554,12.1678322 Z" id="Shape"></path>
                <path d="M104.457831,10.2818182 C101.626506,12.0461538 98.7951807,13.6888112 95.5421687,14.4797203 C90.9036145,15.513986 85,13.6888112 81.5662651,9.97762238 C83.5542169,7.96993007 84.3975904,6.93566434 87.2289157,5.71888112 C92.8313253,3.34615385 99.0963855,5.11048951 104.698795,6.93566434 C110.421687,3.40699301 113.855422,2.61608392 120.662651,3.95454545 C123.253012,4.5020979 128.373494,6.20559441 129.939759,8.51748252 L128.975904,9.30839161 C128.493976,8.7 127.771084,8.33496503 127.048193,7.96993007 C124.277108,6.50979021 120.240964,5.96223776 117.048193,5.77972028 C113.674699,5.5972028 111.084337,6.38811189 108.072289,8.03076923 C112.289157,9.43006993 116.385542,10.7685315 120.722892,11.6202797 L126.084337,12.4111888 C131.807229,12.9587413 137.289157,11.9244755 142.048193,9.97762238 C140.301205,8.94335664 140.301205,5.71888112 142.168675,3.1027972 C146.325301,-2.61608392 152.46988,1.21678322 148.493976,7.36153846 C145.903614,11.4377622 137.710843,14.4188811 132.891566,15.2097902 C123.072289,16.9741259 113.493976,13.5671329 104.457831,10.2818182 L104.457831,10.2818182 Z M101.325301,9.12587413 C95.3012048,6.81398601 89.1566265,5.47552448 83.4939759,9.91678322 C85.1807229,11.1335664 87.1084337,11.8027972 89.1566265,12.1678322 C94.1566265,13.1412587 97.1084337,11.6811189 101.325301,9.12587413 L101.325301,9.12587413 Z" id="Shape"></path>
            </g>
        </g>
    </g>
</svg>