<?xml version="1.0" encoding="UTF-8" standalone="no"?>
<svg width="151px" height="146px" viewBox="0 0 151 146" version="1.1" xmlns="http://www.w3.org/2000/svg" xmlns:xlink="http://www.w3.org/1999/xlink" xmlns:sketch="http://www.bohemiancoding.com/sketch/ns">
    <!-- Generator: Sketch 3.1.1 (8761) - http://www.bohemiancoding.com/sketch -->
    <title>decorative_5</title>
    <desc>Created with Sketch.</desc>
    <defs></defs>
    <g id="Page-1" stroke="none" stroke-width="1" fill="none" fill-rule="evenodd" sketch:type="MSPage">
        <g id="decorative_5" sketch:type="MSLayerGroup" transform="translate(1.000000, 0.000000)" fill="#231F20">
            <path d="M52.1351351,129.522472 L50.8378378,130.825843 C49.6216216,132.129213 47.5945946,130.907303 48,129.27809 L50.5945946,118.036517 C50.9189189,116.733146 52.4594595,116.244382 53.4324324,117.140449 L61.7837838,125.123596 C63.0810811,126.345506 61.9459459,128.382022 60.2432432,128.05618 L58.4594595,127.648876 C60.5675676,133.269663 65.5135135,137.505618 71.5135135,138.646067 L71.5135135,68.9157303 L3,68.9157303 C1.21621622,68.9157303 -0.243243243,67.4494382 -0.243243243,65.6573034 C-0.243243243,63.8651685 1.21621622,62.3988764 3,62.3988764 L71.4324324,62.3988764 L71.4324324,18.9803371 C67.7027027,17.5955056 65.027027,14.011236 65.027027,9.7752809 C65.027027,4.3988764 69.4054054,0 74.7567568,0 C80.1891892,0 84.4864865,4.3988764 84.4864865,9.7752809 C84.4864865,14.011236 81.8108108,17.6769663 78.0810811,18.9803371 L78.0810811,62.3988764 L146.513514,62.3988764 C148.378378,62.3988764 149.756757,63.8651685 149.756757,65.6573034 C149.756757,67.4494382 148.297297,68.9157303 146.513514,68.9157303 L78.0810811,68.9157303 L78.0810811,138.564607 C84.0810811,137.424157 89.027027,133.188202 91.1351351,127.567416 L89.3513514,127.974719 C87.6486486,128.300562 86.5135135,126.264045 87.8108108,125.042135 L96.1621622,117.058989 C97.1351351,116.162921 98.6756757,116.651685 99,117.955056 L101.594595,129.196629 C102,130.907303 99.8918919,132.047753 98.7567568,130.744382 L97.4594595,129.441011 C94.1351351,138.727528 85.2162162,145.325843 74.8378378,145.325843 C64.3783784,145.407303 55.4594595,138.808989 52.1351351,129.522472 L52.1351351,129.522472 Z M79.0540541,9.7752809 C79.0540541,7.41292135 77.1081081,5.45786517 74.7567568,5.45786517 C72.4054054,5.45786517 70.4594595,7.41292135 70.4594595,9.7752809 C70.4594595,12.1376404 72.4054054,14.0926966 74.7567568,14.0926966 C77.1081081,14.0926966 79.0540541,12.1376404 79.0540541,9.7752809 L79.0540541,9.7752809 Z" id="Shape" sketch:type="MSShapeGroup"></path>
        </g>
    </g>
</svg>