<?xml version="1.0" encoding="UTF-8" standalone="no"?>
<svg width="150px" height="124px" viewBox="0 0 150 124" version="1.1" xmlns="http://www.w3.org/2000/svg" xmlns:xlink="http://www.w3.org/1999/xlink" xmlns:sketch="http://www.bohemiancoding.com/sketch/ns">
    <!-- Generator: Sketch 3.1.1 (8761) - http://www.bohemiancoding.com/sketch -->
    <title>Occasion_holly</title>
    <desc>Created with Sketch.</desc>
    <defs></defs>
    <g id="Page-1" stroke="none" stroke-width="1" fill="none" fill-rule="evenodd" sketch:type="MSPage">
        <g id="Occasion_holly" sketch:type="MSLayerGroup" fill="#231F20">
            <g id="Group" sketch:type="MSShapeGroup">
                <path d="M100.078864,66.7801527 C93.1230284,69.2412214 89.5741325,77.0503817 92.1293375,84.1969466 C94.637224,91.3435115 102.350158,95.1770992 109.258675,92.7160305 C116.214511,90.2549618 119.763407,82.4458015 117.255521,75.2992366 C114.700315,68.1526718 106.987382,64.319084 100.078864,66.7801527 L100.078864,66.7801527 Z M106.845426,90.6335878 C106.70347,91.5328244 104.858044,91.9114504 102.634069,91.5328244 C100.457413,91.1068702 98.8012618,90.1129771 98.8958991,89.2137405 C99.0851735,88.3145038 100.930599,87.9358779 103.107256,88.3145038 C105.33123,88.6931298 106.987382,89.7343511 106.845426,90.6335878 L106.845426,90.6335878 Z" id="Shape"></path>
                <path d="M78.8328076,49.0793893 C71.6876972,51.0198473 67.6182965,58.5450382 69.6529968,65.880916 C71.6403785,73.2167939 79.0694006,77.5709924 86.1198738,75.6305344 C93.2176656,73.6427481 97.3343849,66.1648855 95.3470032,58.8290076 C93.3123028,51.4458015 85.8832808,47.0916031 78.8328076,49.0793893 L78.8328076,49.0793893 Z M83.8485804,73.3587786 C83.659306,74.210687 81.7192429,74.4946565 79.5899054,73.9740458 C77.4132492,73.4061069 75.851735,72.2229008 76.0410095,71.3709924 C76.2302839,70.4717557 78.1230284,70.2351145 80.2996845,70.8030534 C82.4763407,71.3236641 84.0851735,72.459542 83.8485804,73.3587786 L83.8485804,73.3587786 Z" id="Shape"></path>
                <g id="Shape">
                    <path d="M48.4069401,63.9877863 C48.4069401,63.9877863 58.4858044,63.3725191 67.7602524,71.2290076 C66.955836,69.9038168 66.340694,68.4366412 65.9148265,66.8748092 C64.3533123,61.2900763 65.7255521,55.421374 69.0851735,51.1618321 C66.5772871,45.9557252 55.7413249,23.7114504 48.9274448,14.340458 C47.555205,12.6366412 46.70347,11.6427481 46.70347,11.6427481 C47.3659306,12.3526718 48.1230284,13.2519084 48.9274448,14.340458 C54.1798107,20.8244275 67.2870662,37.6732824 71.3091483,48.7954198 C72.4921136,47.7541985 73.8643533,46.8549618 75.3785489,46.1923664 C76.1829653,45.8137405 77.0347003,45.529771 77.8391167,45.2931298 C79.3059937,44.8671756 80.7728707,44.7251908 82.192429,44.6778626 C79.7791798,41.3175573 78.5962145,35.5435115 81.340694,25.5099237 C81.340694,25.5099237 65.3470032,39.0458015 67.5709779,12.3053435 C67.5709779,12.3053435 53.9432177,20.7770992 41.4037855,-0.189312977 C41.4037855,-0.189312977 52.8548896,18.8839695 37.7602524,21.2030534 C37.7602524,21.2030534 53.4227129,28.870229 38.8012618,42.5480916 C38.8012618,42.5954198 59.0063091,47.0916031 48.4069401,63.9877863 L48.4069401,63.9877863 Z"></path>
                    <path d="M150.189274,16.5648855 C150.189274,16.5648855 134.006309,31.8045802 128.564669,17.5587786 C128.564669,17.5587786 124.400631,34.5022901 107.933754,23.1435115 C107.933754,23.1435115 107.839117,43.8259542 89.1009464,37.0580153 C89.1009464,37.0580153 90.1892744,40.9389313 89.5741325,46.4290076 C94.022082,48.5587786 97.6182965,52.5816794 99.0378549,57.7877863 C99.1324921,58.0717557 99.1798107,58.3557252 99.2271293,58.6396947 C106.466877,53.1969466 121.940063,41.3175573 128.659306,34.0763359 C130.078864,32.4198473 130.883281,31.378626 130.883281,31.378626 C130.315457,32.1832061 129.55836,33.0824427 128.659306,34.0763359 C123.359621,40.3236641 109.77918,55.8473282 99.6056782,62.189313 L99.6056782,62.8992366 C105.047319,61.3374046 110.725552,62.6152672 114.984227,65.9755725 C117.728707,62.8992366 123.170347,60.5328244 133.533123,61.1007634 C133.533123,61.1007634 116.876972,48.3694656 143.470032,44.8198473 C143.564669,44.7725191 132.397476,33.2717557 150.189274,16.5648855 L150.189274,16.5648855 Z"></path>
                    <path d="M66.8611987,99.389313 C61.5615142,92.1954198 62.9810726,82.1618321 69.9369085,77.0030534 C70.5047319,76.5770992 71.0725552,76.1984733 71.6876972,75.8671756 C70.7413249,75.0625954 69.8895899,74.1633588 69.0851735,73.2167939 C64.2113565,72.080916 59.8107256,69.8091603 57.3501577,65.5969466 C57.3501577,65.5969466 58.2018927,85.9954198 30.8044164,76.4351145 C30.8044164,76.4351145 44.384858,94.8458015 15.4731861,90.4916031 C15.4731861,90.4916031 23.7066246,105.920611 -3.3621896e-15,118.036641 C-3.3621896e-15,118.036641 21.5299685,106.961832 22.9495268,123.526718 C22.9495268,123.526718 32.4605678,107.056489 46.2776025,123.905344 C46.2776025,123.905344 52.6182965,102.276336 70.1735016,115.007634 C70.1735016,115.007634 70.2208202,110.274809 72.8233438,104.31145 C70.5047319,103.222901 68.4700315,101.519084 66.8611987,99.389313 L66.8611987,99.389313 Z M22.5709779,106.157252 C20.6782334,107.245802 19.5899054,107.908397 19.5899054,107.908397 C20.3470032,107.340458 21.340694,106.772519 22.5709779,106.157252 C30.2365931,101.755725 50.6782334,90.5862595 62.0820189,89.3083969 L63.3123028,91.8167939 C63.3123028,91.8167939 34.2586751,100.146565 22.5709779,106.157252 L22.5709779,106.157252 Z"></path>
                </g>
                <path d="M89.1009464,82.8717557 C85.0788644,77.4290076 77.5078864,76.151145 72.2082019,80.0793893 C66.9085174,84.0076336 65.9148265,91.5801527 69.9369085,97.070229 C73.9589905,102.512977 81.5299685,103.79084 86.829653,99.8625954 C92.1293375,95.9343511 93.1230284,88.3618321 89.1009464,82.8717557 L89.1009464,82.8717557 Z M84.2271293,98.7267176 C84.3690852,99.5312977 82.8548896,100.383206 80.8675079,100.619847 C78.8801262,100.856489 77.1766562,100.383206 77.0820189,99.6259542 C76.9873817,98.821374 78.5015773,97.9694656 80.4416404,97.7801527 C82.4290221,97.448855 84.0851735,97.9221374 84.2271293,98.7267176 L84.2271293,98.7267176 Z" id="Shape"></path>
            </g>
        </g>
    </g>
</svg>