<?xml version="1.0" encoding="UTF-8" standalone="no"?>
<svg width="150px" height="203px" viewBox="0 0 150 203" version="1.1" xmlns="http://www.w3.org/2000/svg" xmlns:xlink="http://www.w3.org/1999/xlink" xmlns:sketch="http://www.bohemiancoding.com/sketch/ns">
    <!-- Generator: Sketch 3.1.1 (8761) - http://www.bohemiancoding.com/sketch -->
    <title>Occasion_bunny2</title>
    <desc>Created with Sketch.</desc>
    <defs></defs>
    <g id="Page-1" stroke="none" stroke-width="1" fill="none" fill-rule="evenodd" sketch:type="MSPage">
        <g id="Occasion_bunny2" sketch:type="MSLayerGroup" fill="#231F20">
            <g id="Group" sketch:type="MSShapeGroup">
                <path d="M42.5,109.144127 C57.2435897,101.64127 84.2948718,116.133968 96.1538462,123.95746 C121.538462,140.630476 134.358974,170.577778 130.576923,200.781587 C103.589744,197.511111 71.9230769,198.024127 50.4487179,178.144762 C34.9358974,163.652063 14.9358974,120.302222 43.7179487,110.298413 L42.5,109.144127 L42.5,109.144127 Z" id="Shape"></path>
                <path d="M75.7051282,191.483175 C84.4230769,191.675556 118.974359,196.356825 129.358974,198.473016 C131.410256,198.857778 130.641026,200.973968 130.641026,200.973968 C130.641026,200.973968 85.1282051,202.192381 74.8076923,202 C64.4230769,201.743492 55.0641026,202.705397 55.3846154,199.434921 C55.7051282,195.779683 65.3205128,191.290794 75.7051282,191.483175 L75.7051282,191.483175 Z" id="Shape"></path>
                <path d="M38.5897436,151.532063 C37.0512821,152.23746 34.6794872,148.19746 32.9487179,148.518095 C33.0769231,149.608254 33.974359,155.315556 34.1025641,156.469841 C35.6410256,169.359365 30.7692308,181.286984 28.2051282,184.621587 C23.9102564,192.124444 17.7564103,197.767619 19.2948718,200.845714 C20.3205128,203.667302 31.474359,202 38.4615385,190.52127 C42.5,185.134603 44.8717949,168.012698 39.9358974,155.251429 C39.4871795,154.033016 39.0384615,152.750476 38.5897436,151.532063 L38.5897436,151.532063 Z" id="Shape"></path>
                <path d="M148.782051,177.631746 C146.923077,174.553651 141.858974,174.297143 137.884615,177.888254 C132.115385,183.018413 129.871795,196.03619 129.423077,201.102222 L130.641026,201.102222 C134.615385,196.67746 139.102564,192.509206 144.038462,189.174603 C147.948718,186.545397 151.794872,182.633651 148.782051,177.631746 L148.782051,177.631746 Z" id="Shape"></path>
                <g id="Shape">
                    <path d="M53.1410256,22.5085714 C49.3589744,26.9974603 40,42.2596825 36.3461538,58.7403175 C31.7948718,74.9644444 33.9102564,90.4831746 34.1666667,90.4831746 C33.974359,90.7396825 27.8205128,75.8622222 28.525641,57.7784127 C28.2051282,39.8869841 35,19.9434921 40.3205128,13.4025397 C49.8717949,-1.2184127 67.0512821,-1.85968254 66.9871795,2.75746032 C67.4358974,7.37460317 59.6794872,12.248254 53.1410256,22.5085714 L53.1410256,22.5085714 Z"></path>
                    <path d="M79.6794872,35.5263492 C75.1282051,38.7326984 61.1538462,51.4939683 53.3974359,68.551746 C44.7435897,84.904127 44.2307692,102.667302 44.4871795,102.667302 C44.3589744,102.987937 37.7564103,85.8019048 40.5769231,64.9606349 C41.9871795,44.375873 53.7179487,21.8673016 62.0512821,15.5187302 C78.0769231,0.897777778 98.5897436,7.24634921 96.9230769,14.6209524 C96.025641,22.3161905 87.8846154,27.5746032 79.6794872,35.5263492 L79.6794872,35.5263492 Z"></path>
                    <path d="M32.8205128,87.4692063 C24.9358974,87.4692063 17.0512821,90.2907937 11.2820513,95.6133333 C7.37179487,99.2044444 3.58974359,103.500952 1.98717949,108.695238 C0.705128205,112.799365 -0.897435897,118.827302 1.47435897,122.803175 C1.73076923,123.187937 1.98717949,123.508571 2.30769231,123.765079 C2.88461538,124.213968 3.52564103,124.534603 4.23076923,124.662857 C4.42307692,124.662857 5.83333333,124.534603 6.73076923,124.278095 C7.17948718,124.085714 7.56410256,123.893333 7.43589744,123.636825 C9.61538462,129.728889 20,129.793016 25,129.28 C53.8461538,126.650794 71.6666667,87.4692063 32.8205128,87.4692063 L32.8205128,87.4692063 Z M18.2692308,107.79746 C15.1923077,104.462857 23.974359,93.8177778 28.525641,99.5250794 C32.7564103,104.975873 21.2179487,111.00381 18.2692308,107.79746 L18.2692308,107.79746 Z"></path>
                    <path d="M25.6410256,104.655238 C29.1666667,103.500952 26.5384615,97.4088889 23.4615385,100.102222 C21.4102564,101.961905 22.6282051,105.68127 25.6410256,104.655238 L25.6410256,104.655238 Z"></path>
                </g>
            </g>
        </g>
    </g>
</svg>