<?xml version="1.0" encoding="UTF-8" standalone="no"?>
<svg width="150px" height="222px" viewBox="0 0 150 222" version="1.1" xmlns="http://www.w3.org/2000/svg" xmlns:xlink="http://www.w3.org/1999/xlink" xmlns:sketch="http://www.bohemiancoding.com/sketch/ns">
    <!-- Generator: Sketch 3.1.1 (8761) - http://www.bohemiancoding.com/sketch -->
    <title>Occasion_snowman</title>
    <desc>Created with Sketch.</desc>
    <defs></defs>
    <g id="Page-1" stroke="none" stroke-width="1" fill="none" fill-rule="evenodd" sketch:type="MSPage">
        <g id="Occasion_snowman" sketch:type="MSLayerGroup" fill="#231F20">
            <g id="Group" sketch:type="MSShapeGroup">
                <path d="M61.561086,38.2899083 C61.0180995,38.6293578 60.4751131,38.9688073 59.9321267,39.3082569 C60.2714932,39.7155963 60.4072398,40.3266055 60.2714932,40.8018349 C60.4072398,40.9376147 60.5429864,41.1412844 60.6108597,41.3449541 C61.4932127,41.7522936 62.3076923,42.159633 63.0542986,42.7027523 C62.8506787,42.4990826 62.6470588,42.2275229 62.5791855,41.9559633 C62.5113122,41.8880734 62.4434389,41.8201835 62.3755656,41.6844037 C62.1040724,41.4807339 61.8325792,41.2770642 61.6289593,40.9376147 C61.4932127,40.5981651 61.3574661,40.2587156 61.4253394,39.9192661 C61.2895928,39.4440367 61.3574661,38.8330275 61.6289593,38.4256881 C61.6289593,38.4256881 61.561086,38.3577982 61.561086,38.2899083 L61.561086,38.2899083 Z" id="Shape"></path>
                <path d="M41.5384615,13.3743119 C44.5927602,9.16513761 47.8506787,5.90642202 51.1085973,3.39449541 C48.1900452,3.19082569 45.3393665,3.19082569 42.6923077,3.3266055 C40.5882353,5.43119266 38.5520362,7.87522936 36.5837104,10.5908257 C38.3484163,11.4055046 39.9773756,12.2880734 41.5384615,13.3743119 L41.5384615,13.3743119 Z" id="Shape"></path>
                <path d="M29.9321267,5.97431193 C30.4072398,6.31376147 30.7466063,6.85688073 30.8823529,7.46788991 C30.9502262,7.94311927 30.8823529,8.35045872 30.678733,8.75779817 C32.3755656,9.09724771 34.0045249,9.57247706 35.5656109,10.1834862 L35.6334842,10.0477064 C37.2624434,7.73944954 39.0950226,5.49908257 40.9954751,3.53027523 C36.8552036,3.80183486 33.0542986,4.48073394 29.8642534,5.22752294 C29.8642534,5.29541284 29.7963801,5.36330275 29.7963801,5.43119266 L29.7963801,5.70275229 C29.8642534,5.70275229 29.8642534,5.83853211 29.9321267,5.97431193 L29.9321267,5.97431193 Z" id="Shape"></path>
                <path d="M15.4072398,9.57247706 L16.6289593,8.75779817 L16.6289593,9.0293578 L14.9321267,9.91192661 C14.6606335,10.0477064 14.5248869,10.387156 14.7285068,10.6587156 C14.8642534,10.9302752 15.2036199,11.066055 15.4751131,10.8623853 L16.8325792,10.1155963 C16.9004525,10.2513761 16.9004525,10.3192661 16.9683258,10.4550459 L16.2217195,10.9981651 C15.9502262,11.2018349 15.8823529,11.5412844 16.0859729,11.812844 C16.2895928,12.0844037 16.6289593,12.1522936 16.9004525,11.9486239 L17.5791855,11.4733945 C17.6470588,11.5412844 17.7149321,11.6091743 17.7828054,11.6770642 L17.1040724,12.4917431 C16.9004525,12.7633028 16.9683258,13.1027523 17.1719457,13.306422 C17.3755656,13.5100917 17.7828054,13.5100917 17.9864253,13.2385321 L18.5972851,12.4917431 C18.800905,12.6275229 19.0045249,12.7633028 19.2760181,12.8990826 L18.3257919,13.6458716 C18.0542986,13.8495413 17.9864253,14.1889908 18.1900452,14.4605505 C18.3936652,14.7321101 18.7330317,14.8 19.0045249,14.5963303 L20.0904977,13.8495413 L20.158371,14.3926606 C20.2262443,14.7321101 20.4977376,14.9357798 20.8371041,14.8678899 C21.040724,14.8 21.2443439,14.6642202 21.3122172,14.4605505 L21.5158371,15.4788991 C21.5837104,15.8183486 21.8552036,16.0220183 22.1945701,15.9541284 C22.5339367,15.8862385 22.7375566,15.6146789 22.6696833,15.2752294 L22.5339367,14.5963303 C22.6696833,14.7321101 22.8054299,14.8 23.0090498,14.7321101 C23.3484163,14.6642202 23.5520362,14.3926606 23.4841629,14.053211 L23.3484163,13.306422 C23.4162896,13.306422 23.4841629,13.2385321 23.5520362,13.2385321 C23.5520362,13.2385321 23.6199095,13.2385321 23.6199095,13.1706422 L24.5022624,14.3247706 C24.7058824,14.5963303 25.0452489,14.5963303 25.3167421,14.4605505 C25.5882353,14.2568807 25.5882353,13.9174312 25.4524887,13.6458716 L24.638009,12.559633 C24.7737557,12.4238532 24.9095023,12.2880734 25.0452489,12.2201835 L25.0452489,12.2880734 C25.1131222,12.6275229 25.3846154,12.8311927 25.7239819,12.7633028 C26.0633484,12.6954128 26.2669683,12.4238532 26.199095,12.0844037 L25.9954751,10.8623853 C25.9954751,10.7944954 26.0633484,10.7266055 26.0633484,10.6587156 L26.8778281,11.6770642 C27.081448,11.9486239 27.4208145,11.9486239 27.6923077,11.7449541 C27.9638009,11.5412844 27.9638009,11.2018349 27.8280543,10.9302752 L26.5384615,9.23302752 C26.5384615,9.09724771 26.6063348,8.89357798 26.6063348,8.75779817 L27.8959276,10.4550459 C28.0995475,10.7266055 28.438914,10.7266055 28.7104072,10.5229358 C28.9819005,10.3192661 28.9819005,9.97981651 28.8461538,9.70825688 L27.8280543,8.35045872 L28.9819005,8.14678899 C29.321267,8.07889908 29.5248869,7.80733945 29.4570136,7.46788991 C29.3891403,7.12844037 29.1176471,6.92477064 28.7782805,6.99266055 L27.0135747,7.26422018 L26.9457014,7.12844037 L28.0995475,6.92477064 C28.438914,6.85688073 28.6425339,6.5853211 28.5746606,6.24587156 C28.5067873,5.97431193 28.3031674,5.83853211 28.0995475,5.7706422 C28.3031674,5.63486239 28.3710407,5.43119266 28.3710407,5.22752294 C28.3710407,5.09174312 28.2352941,4.9559633 28.1674208,4.88807339 L28.438914,4.54862385 C28.6425339,4.34495413 28.6425339,3.93761468 28.3710407,3.73394495 C28.1674208,3.53027523 27.760181,3.53027523 27.5565611,3.80183486 L26.5384615,4.9559633 L25.7918552,5.36330275 L26.4705882,4.61651376 C26.6742081,4.41284404 26.6742081,4.00550459 26.4027149,3.80183486 C26.3348416,3.73394495 26.199095,3.66605505 26.1312217,3.66605505 L26.7420814,2.91926606 C26.9457014,2.64770642 26.9457014,2.30825688 26.6742081,2.10458716 C26.4705882,1.90091743 26.0633484,1.90091743 25.8597285,2.17247706 L25.7239819,2.30825688 C25.520362,2.03669725 25.1809955,1.96880734 24.9773756,2.17247706 L23.4841629,3.19082569 L23.7556561,1.01834862 C23.8235294,0.678899083 23.5520362,0.40733945 23.280543,0.40733945 C22.9411765,0.339449541 22.6696833,0.543119266 22.60181,0.882568807 L22.39819,2.17247706 L22.2624434,0.678899083 C22.2624434,0.339449541 21.9909502,0.135779817 21.6515837,0.135779817 C21.3122172,0.135779817 21.1085973,0.40733945 21.1085973,0.746788991 L21.1764706,1.69724771 C21.1085973,1.69724771 21.040724,1.6293578 20.9728507,1.6293578 C20.6334842,1.56146789 20.361991,1.76513761 20.2941176,2.10458716 L20.361991,2.64770642 L18.6651584,1.49357798 C18.3936652,1.28990826 18.0542986,1.35779817 17.8506787,1.6293578 C17.6470588,1.90091743 17.7149321,2.24036697 17.9864253,2.4440367 L18.1221719,2.51192661 C18.0542986,2.51192661 18.0542986,2.57981651 17.9864253,2.57981651 C17.918552,2.64770642 17.8506787,2.71559633 17.8506787,2.71559633 L17.7149321,2.51192661 C17.5791855,2.24036697 17.239819,2.17247706 16.9683258,2.30825688 C16.6968326,2.4440367 16.6289593,2.78348624 16.7647059,3.05504587 L17.0361991,3.53027523 C16.7647059,3.59816514 16.4932127,3.80183486 16.561086,4.1412844 L16.561086,4.61651376 L16.0180995,4.20917431 C15.7466063,4.00550459 15.4072398,4.1412844 15.2036199,4.34495413 C15,4.61651376 15.0678733,4.9559633 15.3393665,5.15963303 L15.7466063,5.43119266 C15.5429864,5.29541284 15.3393665,5.36330275 15.1357466,5.49908257 C14.8642534,5.70275229 14.8642534,6.04220183 15,6.31376147 L16.0180995,7.60366972 L14.7285068,8.48623853 C14.4570136,8.68990826 14.3891403,9.0293578 14.5927602,9.30091743 C14.7963801,9.64036697 15.1357466,9.77614679 15.4072398,9.57247706 L15.4072398,9.57247706 Z M24.2307692,4.0733945 L23.8914027,4.48073394 C23.8235294,4.48073394 23.8235294,4.41284404 23.7556561,4.41284404 L24.2307692,4.0733945 L24.2307692,4.0733945 Z M20.158371,3.93761468 L20.158371,4.0733945 C20.0904977,4.0733945 20.0226244,4.1412844 19.8868778,4.1412844 L19.2081448,3.2587156 L20.158371,3.93761468 L20.158371,3.93761468 Z M18.0542986,5.29541284 C17.9864253,5.36330275 17.918552,5.49908257 17.8506787,5.56697248 L17.8506787,5.56697248 L17.7828054,4.82018349 L18.0542986,5.29541284 L18.0542986,5.29541284 Z M16.0180995,5.7706422 C15.9502262,5.70275229 15.9502262,5.63486239 15.8823529,5.63486239 L16.7647059,6.24587156 L16.8325792,6.78899083 L16.0180995,5.7706422 L16.0180995,5.7706422 Z" id="Shape"></path>
                <path d="M42.4886878,13.8495413 C43.0316742,14.2568807 43.5746606,14.6642202 44.0497738,15.0715596 C48.7330317,10.6587156 53.8235294,7.19633028 59.3891403,4.61651376 C57.1493213,4.0733945 54.841629,3.73394495 52.60181,3.46238532 L51.6515837,4.20917431 C48.3257919,6.92477064 45.2036199,10.1834862 42.4886878,13.8495413 L42.4886878,13.8495413 Z" id="Shape"></path>
                <path d="M93.6651584,40.0550459 C92.7828054,39.1724771 91.3574661,37.8825688 90,36.9321101 L90,36.6605505 L89.3891403,35.8458716 L89.3891403,35.5743119 L90,36.3889908 C90.0678733,36.5247706 90.2714932,36.5247706 90.4072398,36.4568807 C90.5429864,36.3889908 90.5429864,36.1853211 90.4751131,36.0495413 L90,35.3706422 L90.5429864,35.3027523 C90.678733,35.3027523 90.8144796,35.1669725 90.7466063,34.9633028 C90.7466063,34.8275229 90.6108597,34.6917431 90.4072398,34.759633 L89.5927602,34.8954128 L89.5248869,34.8275229 L90.0678733,34.759633 C90.2036199,34.759633 90.3393665,34.6238532 90.2714932,34.4201835 C90.2714932,34.2844037 90.1357466,34.2165138 90.0678733,34.2165138 C90.1357466,34.1486239 90.2036199,34.0807339 90.2036199,33.9449541 C90.2036199,33.8770642 90.1357466,33.8091743 90.0678733,33.7412844 L90.2036199,33.6055046 C90.3393665,33.4697248 90.2714932,33.333945 90.2036199,33.1981651 C90.0678733,33.1302752 89.9321267,33.1302752 89.7963801,33.1981651 L89.321267,33.7412844 L89.0497738,33.8091743 L89.3891403,33.4697248 C89.4570136,33.333945 89.4570136,33.1981651 89.3891403,33.0623853 C89.321267,33.0623853 89.321267,32.9944954 89.2533937,32.9944954 L89.5248869,32.6550459 C89.5927602,32.5192661 89.5927602,32.3834862 89.5248869,32.2477064 C89.3891403,32.1119266 89.2533937,32.1798165 89.1176471,32.2477064 L89.0497738,32.3155963 C88.9819005,32.1798165 88.7782805,32.1798165 88.7104072,32.2477064 L87.9638009,32.7229358 L88.0995475,31.6366972 C88.0995475,31.5009174 88.0316742,31.3651376 87.8959276,31.2972477 C87.760181,31.2972477 87.6244344,31.3651376 87.5565611,31.5009174 L87.4886878,32.1119266 L87.4208145,31.3651376 C87.4208145,31.2293578 87.2850679,31.093578 87.1493213,31.093578 C87.0135747,31.093578 86.8778281,31.2293578 86.8778281,31.3651376 L86.9457014,31.840367 L86.8778281,31.840367 C86.7420814,31.840367 86.6063348,31.9082569 86.5384615,32.0440367 L86.4705882,32.3155963 L85.6561086,31.7724771 C85.520362,31.7045872 85.3846154,31.7045872 85.2488688,31.840367 C85.1809955,31.9761468 85.1809955,32.1119266 85.3167421,32.2477064 L85.3846154,32.3155963 C85.3846154,32.3155963 85.3167421,32.3155963 85.3167421,32.3834862 L85.2488688,32.4513761 L85.1809955,32.3834862 C85.1131222,32.2477064 84.9095023,32.1798165 84.7737557,32.3155963 C84.638009,32.3834862 84.638009,32.587156 84.7058824,32.6550459 L84.841629,32.8587156 C84.7058824,32.8587156 84.5701357,32.9944954 84.638009,33.1302752 L84.638009,33.4018349 L84.3665158,33.1981651 C84.2307692,33.1302752 84.0950226,33.1302752 83.959276,33.266055 C83.8914027,33.4018349 83.8914027,33.5376147 84.0271493,33.6733945 L84.638009,34.0807339 L84.638009,34.3522936 L84.2986425,33.8770642 C84.2307692,33.7412844 84.0271493,33.7412844 83.8914027,33.8091743 C83.7556561,33.8770642 83.7556561,34.0807339 83.8235294,34.2165138 L84.2986425,34.8275229 L83.6877828,35.2348624 C83.5520362,35.3027523 83.5520362,35.506422 83.6199095,35.6422018 C83.6877828,35.7779817 83.8914027,35.7779817 84.0271493,35.7100917 L84.638009,35.3027523 L84.638009,35.4385321 L83.8235294,35.8458716 C83.6877828,35.9137615 83.6199095,36.1174312 83.6877828,36.1853211 C83.7556561,36.3211009 83.8914027,36.3889908 84.0271493,36.3211009 L84.638009,35.9816514 C84.638009,36.0495413 84.638009,36.1174312 84.7058824,36.1174312 L84.3665158,36.3889908 C84.2307692,36.4568807 84.2307692,36.6605505 84.2986425,36.7963303 C84.3665158,36.9321101 84.5701357,36.9321101 84.7058824,36.8642202 L85.0452489,36.6605505 C85.0452489,36.7284404 85.1131222,36.7284404 85.1131222,36.7963303 L84.841629,37.3394495 C84.7737557,37.4752294 84.7737557,37.6110092 84.841629,37.746789 C84.9773756,37.8146789 85.1131222,37.8146789 85.2488688,37.6788991 L85.520362,37.3394495 C85.5882353,37.4073394 85.7239819,37.4752294 85.8597285,37.5431193 L85.4524887,37.8146789 C85.3167421,37.8825688 85.3167421,38.0862385 85.3846154,38.2220183 C85.4524887,38.3577982 85.6561086,38.3577982 85.7918552,38.2899083 L86.3348416,37.9504587 L86.4027149,38.2220183 C86.4027149,38.3577982 86.5384615,38.493578 86.7420814,38.4256881 C86.8099548,38.4256881 86.8099548,38.4256881 86.8099548,38.3577982 C86.7420814,41.0055046 85.4524887,43.653211 85.4524887,43.653211 C84.7737557,40.666055 82.5339367,38.9688073 80.361991,38.0862385 C80.361991,38.0183486 80.361991,37.9504587 80.2941176,37.9504587 L79.8190045,37.2715596 L80.361991,37.2036697 C80.4977376,37.2036697 80.6334842,37.0678899 80.5656109,36.8642202 C80.5656109,36.7284404 80.4298643,36.5926606 80.2262443,36.6605505 L79.4117647,36.7963303 L79.3438914,36.7284404 L79.8868778,36.6605505 C80.0226244,36.6605505 80.158371,36.5247706 80.0904977,36.3211009 C80.0904977,36.1853211 79.9547511,36.1174312 79.8868778,36.1174312 C79.9547511,36.0495413 80.0226244,35.9816514 80.0226244,35.8458716 C80.0226244,35.7779817 79.9547511,35.7100917 79.8868778,35.6422018 L80.0226244,35.506422 C80.0904977,35.3706422 80.0904977,35.2348624 80.0226244,35.0990826 C79.8868778,35.0311927 79.7511312,35.0311927 79.6153846,35.0990826 L79.1402715,35.6422018 L78.8687783,35.7100917 L79.2081448,35.3706422 C79.2760181,35.2348624 79.2760181,35.0990826 79.2081448,34.9633028 C79.1402715,34.9633028 79.1402715,34.8954128 79.0723982,34.8954128 L79.4117647,34.6238532 C79.479638,34.4880734 79.479638,34.3522936 79.4117647,34.2165138 C79.2760181,34.1486239 79.1402715,34.1486239 79.0045249,34.2165138 L78.9366516,34.2844037 C78.8687783,34.1486239 78.6651584,34.1486239 78.5294118,34.2165138 L77.7828054,34.6917431 L77.918552,33.6055046 C77.918552,33.4697248 77.8506787,33.333945 77.7149321,33.333945 C77.5791855,33.333945 77.4434389,33.4018349 77.3755656,33.5376147 L77.3076923,34.1486239 L77.239819,33.4018349 C77.239819,33.266055 77.1040724,33.1302752 76.9683258,33.1302752 C76.8325792,33.1302752 76.6968326,33.266055 76.6968326,33.4018349 L76.7647059,33.8770642 C76.7647059,33.8770642 76.6968326,33.8770642 76.6968326,33.8091743 C76.561086,33.8091743 76.4253394,33.8770642 76.3574661,34.012844 L76.2895928,34.2844037 L75.4751131,33.7412844 C75.3393665,33.6733945 75.2036199,33.6733945 75.0678733,33.8091743 C75,33.9449541 75,34.0807339 75.1357466,34.2165138 L75.2036199,34.2844037 C75.2036199,34.2844037 75.1357466,34.2844037 75.1357466,34.3522936 L75.0678733,34.4201835 L75,34.3522936 C74.9321267,34.2165138 74.7285068,34.1486239 74.6606335,34.2844037 C74.5248869,34.3522936 74.4570136,34.5559633 74.5927602,34.6238532 L74.7285068,34.8275229 C74.5927602,34.8275229 74.4570136,34.9633028 74.4570136,35.0990826 L74.4570136,35.3027523 L74.1855204,35.0990826 C74.0497738,35.0311927 73.9140271,35.0311927 73.7782805,35.1669725 C73.7104072,35.3027523 73.7104072,35.4385321 73.8461538,35.5743119 L74.4570136,35.9816514 L74.4570136,36.253211 L74.1176471,35.7779817 C74.0497738,35.6422018 73.8461538,35.6422018 73.7104072,35.7100917 C73.5746606,35.7779817 73.5746606,35.9816514 73.6425339,36.1174312 L74.1176471,36.7284404 L73.5067873,37.1357798 C73.3710407,37.2036697 73.3710407,37.4073394 73.438914,37.5431193 C73.5067873,37.6788991 73.7104072,37.6788991 73.8461538,37.6110092 L74.4570136,37.2036697 L74.4570136,37.3394495 L73.6425339,37.746789 C73.5067873,37.8146789 73.438914,37.9504587 73.5067873,38.0862385 C73.5746606,38.2220183 73.7104072,38.2899083 73.8461538,38.2220183 L74.4570136,37.8825688 C74.4570136,37.9504587 74.5248869,38.0183486 74.5248869,38.0183486 L74.1855204,38.2899083 C74.0497738,38.3577982 74.0497738,38.5614679 74.1176471,38.6972477 C74.1855204,38.8330275 74.3891403,38.8330275 74.5248869,38.7651376 L74.8642534,38.5614679 C74.8642534,38.6293578 74.9321267,38.6293578 74.9321267,38.6972477 L74.5927602,39.1045872 C74.5248869,39.240367 74.5248869,39.3761468 74.6606335,39.5119266 C74.7963801,39.5798165 74.9321267,39.5798165 75.0678733,39.4440367 L75.3393665,39.1045872 C75.4072398,39.1724771 75.5429864,39.240367 75.678733,39.3082569 L75.2714932,39.5798165 C75.1357466,39.6477064 75.1357466,39.8513761 75.2036199,39.987156 C75.2714932,40.1229358 75.4751131,40.1229358 75.6108597,40.0550459 L76.1538462,39.7155963 L76.2217195,39.987156 C76.2217195,40.1229358 76.3574661,40.2587156 76.561086,40.1908257 L76.6289593,40.1908257 C76.7647059,44.1284404 74.6606335,46.2330275 74.6606335,46.2330275 C73.9140271,42.8385321 71.6742081,40.8018349 69.7058824,39.6477064 L69.2986425,39.1045872 L69.841629,39.0366972 C69.9773756,39.0366972 70.1131222,38.9009174 70.0452489,38.6972477 C70.0452489,38.5614679 69.9095023,38.4256881 69.7058824,38.493578 L68.8914027,38.6293578 L68.8235294,38.5614679 L69.3665158,38.493578 C69.5022624,38.493578 69.638009,38.3577982 69.5701357,38.1541284 C69.5701357,38.0183486 69.4343891,37.9504587 69.3665158,37.9504587 C69.4343891,37.8825688 69.5022624,37.8146789 69.5022624,37.6788991 C69.5022624,37.6110092 69.4343891,37.5431193 69.3665158,37.4752294 L69.5022624,37.3394495 C69.5701357,37.2036697 69.5701357,37.0678899 69.5022624,36.9321101 C69.3665158,36.8642202 69.2307692,36.8642202 69.0950226,36.9321101 L68.6199095,37.4752294 L68.3484163,37.5431193 L68.6877828,37.2036697 C68.7556561,37.0678899 68.7556561,36.9321101 68.6877828,36.7963303 C68.6199095,36.7963303 68.6199095,36.7284404 68.5520362,36.7284404 L68.8914027,36.3889908 C68.959276,36.253211 68.959276,36.1174312 68.8914027,35.9816514 C68.7556561,35.9137615 68.6199095,35.9137615 68.4841629,35.9816514 L68.4162896,36.0495413 C68.3484163,35.9137615 68.1447964,35.9137615 68.0769231,35.9816514 L67.3303167,36.4568807 L67.4660633,35.3706422 C67.4660633,35.2348624 67.39819,35.0990826 67.2624434,35.0311927 C67.1266968,35.0311927 66.9909502,35.0990826 66.9230769,35.2348624 L66.8552036,35.8458716 L66.7873303,35.0990826 C66.7873303,34.9633028 66.6515837,34.8275229 66.5158371,34.8275229 C66.3800905,34.8275229 66.2443439,34.9633028 66.2443439,35.0990826 L66.2443439,35.5743119 C66.2443439,35.5743119 66.1764706,35.5743119 66.1085973,35.506422 C65.9728507,35.506422 65.8371041,35.5743119 65.8371041,35.7100917 L65.7692308,35.9816514 L64.9547511,35.4385321 C64.8190045,35.3706422 64.6832579,35.3706422 64.6153846,35.506422 C64.5475113,35.6422018 64.5475113,35.7779817 64.6832579,35.9137615 L64.7511312,35.9816514 C64.7511312,35.9816514 64.6832579,35.9816514 64.6832579,36.0495413 L64.6153846,36.1174312 L64.5475113,36.0495413 C64.479638,35.9137615 64.2760181,35.8458716 64.2081448,35.9816514 C64.0723982,36.0495413 64.0723982,36.253211 64.1402715,36.3889908 L64.2760181,36.5926606 C64.1402715,36.5926606 64.0045249,36.7284404 64.0723982,36.8642202 L64.0723982,37.1357798 L63.800905,36.9321101 C63.6651584,36.8642202 63.5294118,36.8642202 63.3936652,37 C63.3257919,37.1357798 63.3257919,37.2715596 63.4615385,37.4073394 L64.0723982,37.8146789 L64.0723982,38.0862385 L63.7330317,37.6110092 C63.6651584,37.4752294 63.4615385,37.4752294 63.3257919,37.5431193 C63.1900452,37.6110092 63.1900452,37.8146789 63.2579186,37.9504587 L63.7330317,38.5614679 L63.1221719,39.1724771 C62.9864253,39.240367 62.9864253,39.4440367 63.0542986,39.5798165 C63.1221719,39.7155963 63.3257919,39.7155963 63.4615385,39.6477064 L64.0723982,39.240367 L64.0723982,39.3761468 L63.2579186,39.7834862 C63.1221719,39.9192661 63.0542986,40.0550459 63.1221719,40.1908257 C63.1900452,40.3266055 63.3257919,40.3944954 63.5294118,40.3266055 L64.1402715,39.987156 C64.1402715,40.0550459 64.1402715,40.1229358 64.2081448,40.1229358 L63.800905,40.3944954 C63.6651584,40.4623853 63.6651584,40.666055 63.7330317,40.733945 C63.800905,40.8697248 64.0045249,40.8697248 64.1402715,40.8018349 L64.479638,40.5981651 C64.479638,40.666055 64.5475113,40.666055 64.5475113,40.733945 L64.2081448,41.1412844 C64.1402715,41.2770642 64.1402715,41.412844 64.2760181,41.5486239 C64.4117647,41.6165138 64.5475113,41.6165138 64.6832579,41.4807339 L64.9547511,41.1412844 C65.0904977,41.2091743 65.158371,41.2770642 65.2941176,41.3449541 L64.8868778,41.6165138 C64.7511312,41.6844037 64.7511312,41.8880734 64.8190045,42.0238532 C64.8868778,42.159633 65.0904977,42.159633 65.2262443,42.0917431 L65.7692308,41.7522936 L65.8371041,42.0238532 C65.8371041,42.159633 65.9728507,42.2954128 66.1764706,42.2275229 C66.3122172,42.2275229 66.3800905,42.159633 66.3800905,42.0238532 L66.4479638,42.4990826 C66.4479638,42.6348624 66.5837104,42.7706422 66.7873303,42.7027523 C66.9230769,42.7027523 67.0588235,42.5669725 66.9909502,42.3633028 L66.9230769,42.0238532 C66.9909502,42.0917431 67.0588235,42.0917431 67.1266968,42.0917431 C67.1945701,42.0917431 67.2624434,42.0238532 67.3303167,41.9559633 C67.1945701,44.8073394 66.1764706,47.9981651 66.1764706,47.9981651 C64.3438914,44.8752294 61.4253394,43.2458716 58.8461538,42.3633028 L59.0497738,42.3633028 C59.1855204,42.3633028 59.321267,42.2275229 59.2533937,42.0238532 C59.2533937,41.8880734 59.1176471,41.7522936 58.9140271,41.8201835 L58.0995475,41.9559633 L58.0316742,41.8880734 L58.5746606,41.8201835 C58.7104072,41.8201835 58.8461538,41.6844037 58.7782805,41.4807339 C58.7782805,41.3449541 58.6425339,41.2770642 58.5746606,41.2770642 C58.6425339,41.2091743 58.7104072,41.1412844 58.7104072,41.0055046 C58.7104072,40.9376147 58.6425339,40.8697248 58.5746606,40.8018349 L58.7104072,40.666055 C58.7782805,40.5302752 58.7782805,40.3944954 58.7104072,40.2587156 C58.5746606,40.1908257 58.438914,40.1908257 58.3031674,40.2587156 L57.6923077,40.8697248 L57.4208145,40.9376147 L57.760181,40.5981651 C57.8280543,40.4623853 57.8280543,40.3266055 57.760181,40.1908257 C57.6923077,40.1908257 57.6923077,40.1229358 57.6244344,40.1229358 L57.8959276,39.7834862 C57.9638009,39.6477064 57.9638009,39.5119266 57.8959276,39.3761468 C57.760181,39.3082569 57.6244344,39.3082569 57.4886878,39.3761468 L57.4208145,39.4440367 C57.3529412,39.3082569 57.1493213,39.3082569 57.0135747,39.3761468 L56.3348416,39.9192661 L56.4705882,38.8330275 C56.4705882,38.6972477 56.4027149,38.5614679 56.2669683,38.493578 C56.1312217,38.493578 55.9954751,38.5614679 55.9276018,38.6972477 L55.8597285,39.3761468 L55.7918552,38.6293578 C55.7918552,38.493578 55.6561086,38.3577982 55.520362,38.3577982 C55.3846154,38.3577982 55.2488688,38.493578 55.2488688,38.6293578 L55.2488688,39.1045872 L55.1809955,39.1045872 C55.0452489,39.1045872 54.9095023,39.1724771 54.841629,39.3082569 L54.7737557,39.5798165 L53.959276,39.0366972 C53.8235294,38.9688073 53.6877828,38.9688073 53.5520362,39.1045872 C53.4841629,39.240367 53.4841629,39.3761468 53.6199095,39.5119266 L53.6877828,39.5798165 C53.6877828,39.5798165 53.6199095,39.5798165 53.6199095,39.6477064 L53.5520362,39.7155963 L53.6199095,39.6477064 C53.5520362,39.5119266 53.3484163,39.4440367 53.280543,39.5798165 C53.1447964,39.6477064 53.0769231,39.8513761 53.1447964,39.9192661 L53.280543,40.1229358 C53.1447964,40.1229358 53.0090498,40.2587156 53.0769231,40.3944954 L53.0769231,40.666055 L52.8054299,40.4623853 C52.6696833,40.3944954 52.5339367,40.3944954 52.39819,40.5302752 C52.3303167,40.666055 52.3303167,40.8018349 52.4660633,40.9376147 L53.0769231,41.3449541 L53.0769231,41.6165138 L52.7375566,41.1412844 C52.6696833,41.0055046 52.4660633,41.0055046 52.3303167,41.0733945 C52.2624434,41.1412844 52.2624434,41.3449541 52.3303167,41.412844 L52.8054299,42.0238532 L52.1945701,42.4311927 C52.0588235,42.4990826 52.0588235,42.7027523 52.1266968,42.8385321 C52.1945701,42.9743119 52.39819,42.9743119 52.5339367,42.906422 L53.1447964,42.4990826 L53.1447964,42.6348624 L52.3303167,43.0422018 C52.1945701,43.1100917 52.1266968,43.2458716 52.1945701,43.3816514 C52.2624434,43.5174312 52.39819,43.5853211 52.5339367,43.5174312 L53.1447964,43.1779817 C53.1447964,43.2458716 53.1447964,43.3137615 53.2126697,43.3816514 L52.8733032,43.653211 C52.7375566,43.7211009 52.7375566,43.9247706 52.8054299,44.0605505 C52.8733032,44.1963303 53.0769231,44.1963303 53.2126697,44.1284404 L53.5520362,43.9247706 C53.5520362,43.9926606 53.6199095,43.9926606 53.6199095,44.0605505 L53.280543,44.4678899 C53.2126697,44.6036697 53.2126697,44.7394495 53.280543,44.8752294 C53.4162896,44.9431193 53.5520362,44.9431193 53.6877828,44.8073394 L53.959276,44.4678899 C54.0271493,44.5357798 54.1628959,44.6036697 54.2986425,44.6715596 L53.8914027,44.9431193 C53.7556561,45.0110092 53.7556561,45.2146789 53.8235294,45.3504587 C53.8914027,45.4862385 54.0950226,45.4862385 54.2307692,45.4183486 L54.7737557,45.0788991 L54.841629,45.3504587 C54.841629,45.4862385 54.9773756,45.6220183 55.1809955,45.5541284 C55.2488688,45.5541284 55.3846154,45.4862385 55.3846154,45.3504587 L55.4524887,45.8256881 C55.4524887,45.9614679 55.5882353,46.0972477 55.7918552,46.0293578 C55.9276018,46.0293578 56.0633484,45.893578 55.9954751,45.6899083 L55.9276018,45.3504587 C55.9954751,45.4183486 56.0633484,45.4183486 56.1312217,45.4183486 C56.2669683,45.4183486 56.4027149,45.2825688 56.3348416,45.0788991 L56.2669683,44.7394495 C56.2669683,44.7394495 56.3348416,44.7394495 56.4027149,44.6715596 L56.4705882,44.6715596 L56.8778281,45.2146789 C56.9457014,45.3504587 57.1493213,45.3504587 57.2850679,45.2825688 C57.3529412,45.2146789 57.4208145,45.146789 57.3529412,45.0110092 C58.2352941,46.5045872 58.8461538,47.9981651 59.2533937,49.4238532 C59.7285068,52.2073394 60.1357466,55.0587156 60.1357466,55.0587156 C83.8914027,63.1376147 100.859729,48.5412844 100.859729,48.5412844 C100.791855,48.133945 100.723982,47.7266055 100.656109,47.387156 C100.656109,47.2513761 100.588235,47.1834862 100.588235,47.0477064 C100.520362,46.7761468 100.452489,46.4366972 100.452489,46.1651376 C100.452489,46.0972477 100.452489,45.9614679 100.384615,45.893578 C100.248869,45.146789 100.180995,44.4 100.113122,43.7211009 C99.7058824,40.0550459 99.7737557,37.2036697 99.9095023,35.1669725 L99.9095023,35.3027523 C99.9095023,35.4385321 100.045249,35.5743119 100.248869,35.506422 C100.384615,35.506422 100.520362,35.3706422 100.452489,35.1669725 L100.384615,34.8275229 C100.452489,34.8954128 100.520362,34.8954128 100.588235,34.8954128 C100.723982,34.8954128 100.859729,34.759633 100.791855,34.5559633 L100.723982,34.2165138 L100.859729,34.2165138 L100.927602,34.2165138 L101.334842,34.759633 C101.402715,34.8954128 101.606335,34.8954128 101.742081,34.8275229 C101.877828,34.759633 101.877828,34.5559633 101.809955,34.4201835 L101.402715,33.9449541 C101.470588,33.8770642 101.538462,33.8091743 101.606335,33.7412844 L101.606335,33.8091743 C101.606335,33.9449541 101.742081,34.0807339 101.945701,34.012844 C102.081448,34.012844 102.217195,33.8770642 102.149321,33.6733945 L102.081448,33.1302752 L102.149321,33.0623853 L102.556561,33.5376147 C102.624434,33.6733945 102.828054,33.6733945 102.963801,33.6055046 C103.099548,33.5376147 103.099548,33.333945 103.031674,33.1981651 L102.420814,32.3834862 L102.420814,32.1119266 L103.031674,32.9266055 C103.099548,33.0623853 103.303167,33.0623853 103.438914,32.9944954 C103.574661,32.9266055 103.574661,32.7229358 103.506787,32.587156 L103.031674,31.9082569 L103.574661,31.840367 C103.710407,31.840367 103.846154,31.7045872 103.778281,31.5009174 C103.778281,31.3651376 103.642534,31.2293578 103.438914,31.2972477 L102.624434,31.4330275 L102.556561,31.3651376 L103.099548,31.2972477 C103.235294,31.2972477 103.371041,31.1614679 103.303167,30.9577982 C103.303167,30.8220183 103.167421,30.7541284 103.099548,30.7541284 C103.167421,30.6862385 103.235294,30.6183486 103.235294,30.4825688 C103.235294,30.4146789 103.167421,30.346789 103.167421,30.2788991 L103.303167,30.1431193 C103.371041,30.0073394 103.371041,29.8715596 103.303167,29.7357798 C103.167421,29.6678899 103.031674,29.6678899 102.895928,29.7357798 L102.420814,30.2788991 L102.149321,30.346789 L102.488688,30.0073394 C102.556561,29.8715596 102.556561,29.7357798 102.488688,29.6 C102.420814,29.6 102.420814,29.5321101 102.352941,29.5321101 L102.624434,29.1926606 C102.692308,29.0568807 102.692308,28.9211009 102.624434,28.7853211 C102.488688,28.7174312 102.352941,28.7174312 102.217195,28.7853211 L102.149321,28.853211 C102.081448,28.7174312 101.877828,28.7174312 101.809955,28.7853211 L101.063348,29.2605505 L101.199095,28.1743119 C101.199095,28.0385321 101.131222,27.9027523 100.995475,27.8348624 C100.859729,27.8348624 100.723982,27.9027523 100.723982,28.0385321 L100.656109,28.6495413 L100.588235,27.9027523 C100.588235,27.7669725 100.452489,27.6311927 100.316742,27.6311927 C100.180995,27.6311927 100.045249,27.7669725 100.045249,27.9027523 L100.113122,28.3779817 C100.113122,28.3779817 100.045249,28.3779817 100.045249,28.3100917 C99.9095023,28.3100917 99.7737557,28.3779817 99.7058824,28.5137615 L99.638009,28.7853211 L98.8235294,28.2422018 C98.6877828,28.1743119 98.5520362,28.1743119 98.4162896,28.3100917 C98.3484163,28.4458716 98.3484163,28.5816514 98.4841629,28.7174312 L98.5520362,28.7853211 C98.5520362,28.7853211 98.4841629,28.7853211 98.4841629,28.853211 L98.4162896,28.9211009 L98.3484163,28.853211 C98.280543,28.7174312 98.0769231,28.6495413 97.9411765,28.7853211 C97.8054299,28.853211 97.8054299,29.0568807 97.8733032,29.1926606 L98.0090498,29.3963303 C97.8733032,29.3963303 97.7375566,29.5321101 97.7375566,29.6678899 L97.7375566,29.8715596 L97.4660633,29.6678899 C97.3303167,29.6 97.1945701,29.6 97.0588235,29.7357798 C96.9909502,29.8715596 96.9909502,30.0073394 97.1266968,30.1431193 L97.3303167,30.2788991 C97.2624434,30.2110092 97.1266968,30.2110092 97.0588235,30.2788991 C96.9230769,30.346789 96.9230769,30.5504587 96.9909502,30.6862385 L97.4660633,31.2972477 L96.8552036,31.7045872 C96.719457,31.7724771 96.719457,31.9761468 96.7873303,32.1119266 C96.8552036,32.2477064 97.0588235,32.2477064 97.1945701,32.1798165 L97.8054299,31.7724771 L97.8054299,31.9082569 L96.9909502,32.3155963 C96.8552036,32.3834862 96.7873303,32.5192661 96.9230769,32.6550459 C96.9909502,32.7908257 97.1266968,32.8587156 97.2624434,32.7908257 L97.8733032,32.4513761 C97.8733032,32.5192661 97.8733032,32.587156 97.9411765,32.6550459 L97.60181,32.9266055 C97.4660633,32.9944954 97.4660633,33.1981651 97.5339367,33.333945 C97.60181,33.4697248 97.8054299,33.4697248 97.9411765,33.4018349 L98.280543,33.1981651 C98.280543,33.266055 98.3484163,33.266055 98.3484163,33.333945 L97.7375566,33.9449541 C97.60181,34.0807339 97.6696833,34.2165138 97.7375566,34.3522936 C97.8733032,34.4201835 98.0090498,34.4201835 98.1447964,34.2844037 L98.4162896,33.9449541 L98.4162896,33.9449541 C96.5837104,37 95.158371,41.6844037 93.6651584,40.0550459 L93.6651584,40.0550459 Z M85.2488688,34.012844 L85.2488688,34.012844 L85.2488688,33.6733945 L85.3846154,33.8770642 C85.3167421,33.9449541 85.2488688,33.9449541 85.2488688,34.012844 L85.2488688,34.012844 Z M86.3348416,33.266055 C86.2669683,33.266055 86.2669683,33.266055 86.199095,33.333945 L85.8597285,32.9266055 L86.3348416,33.1981651 L86.3348416,33.266055 L86.3348416,33.266055 Z M75.1357466,35.9137615 L75.1357466,35.9137615 L75.0678733,35.5743119 L75.2036199,35.7779817 C75.2036199,35.8458716 75.1357466,35.9137615 75.1357466,35.9137615 L75.1357466,35.9137615 Z M76.2217195,35.2348624 C76.1538462,35.2348624 76.1538462,35.2348624 76.0859729,35.3027523 L75.7466063,34.8954128 L76.2217195,35.1669725 L76.2217195,35.2348624 L76.2217195,35.2348624 Z M64.6153846,37.746789 L64.6153846,37.746789 L64.5475113,37.4073394 L64.6832579,37.6110092 C64.6153846,37.6788991 64.6153846,37.6788991 64.6153846,37.746789 L64.6153846,37.746789 Z M65.7013575,37 C65.6334842,37 65.6334842,37 65.5656109,37.0678899 L65.2262443,36.6605505 L65.7013575,36.9321101 L65.7013575,37 L65.7013575,37 Z M53.6877828,41.0055046 L53.6877828,41.0055046 L53.6877828,40.666055 L53.8235294,40.8697248 C53.7556561,40.9376147 53.6877828,41.0055046 53.6877828,41.0055046 L53.6877828,41.0055046 Z M54.7737557,40.3266055 C54.7058824,40.3266055 54.7058824,40.3266055 54.638009,40.3944954 L54.2986425,39.987156 L54.7737557,40.2587156 L54.7737557,40.3266055 L54.7737557,40.3266055 Z M56.5384615,40.4623853 L56.5384615,40.4623853 L56.6742081,40.2587156 L56.5384615,40.4623853 L56.5384615,40.4623853 Z M56.8778281,44.4 L56.8778281,44.4 C57.0135747,44.4678899 57.081448,44.6036697 57.1493213,44.7394495 L56.8778281,44.4 L56.8778281,44.4 Z M67.1945701,41.6844037 L67.1266968,41.412844 L67.1945701,41.412844 L67.1945701,41.6844037 L67.1945701,41.6844037 Z M67.4660633,37.2036697 L67.4660633,37.2036697 L67.60181,37 L67.4660633,37.2036697 L67.4660633,37.2036697 Z M77.9864253,35.3706422 L77.9864253,35.3706422 L78.1221719,35.1669725 L77.9864253,35.3706422 L77.9864253,35.3706422 Z M79.2081448,37.746789 L79.2081448,37.5431193 L79.4117647,37.8825688 C79.4117647,37.8146789 79.2760181,37.746789 79.2081448,37.746789 L79.2081448,37.746789 Z M88.1674208,33.4697248 C88.0995475,33.4697248 88.0995475,33.4697248 88.1674208,33.4697248 L88.3031674,33.266055 L88.1674208,33.4697248 L88.1674208,33.4697248 Z M101.199095,29.8715596 L101.063348,30.0752294 L100.995475,30.0752294 L101.199095,29.8715596 L101.199095,29.8715596 Z M99.2307692,29.7357798 L99.2307692,29.8036697 C99.1628959,29.8036697 99.1628959,29.8036697 99.0950226,29.8715596 L98.7556561,29.4642202 L99.2307692,29.7357798 L99.2307692,29.7357798 Z M97.2624434,30.6183486 L97.1945701,30.5504587 L97.60181,30.8220183 L97.60181,31.093578 L97.2624434,30.6183486 L97.2624434,30.6183486 Z M98.1447964,30.5504587 L98.1447964,30.5504587 L98.0769231,30.2110092 L98.2126697,30.4146789 C98.2126697,30.4825688 98.1447964,30.5504587 98.1447964,30.5504587 L98.1447964,30.5504587 Z" id="Shape"></path>
                <path d="M83.2126697,32.0440367 C83.280543,31.840367 83.4162896,31.5688073 83.6199095,31.4330275 L82.8054299,31.4330275 C81.3800905,31.5009174 79.8868778,31.7045872 78.4615385,31.9082569 C78.800905,32.0440367 79.0723982,32.2477064 79.2760181,32.5192661 L79.2760181,32.5192661 C79.6832579,32.5192661 80.158371,32.7229358 80.4977376,32.9944954 C80.7692308,33.1981651 80.9049774,33.4697248 81.040724,33.8091743 C81.1085973,33.8770642 81.1764706,33.8770642 81.2443439,33.9449541 C81.7873303,34.4201835 81.9909502,35.0990826 81.8552036,35.7779817 C81.9909502,35.9137615 82.1266968,36.1174312 82.1945701,36.3211009 L82.1945701,36.3211009 C82.0588235,35.7779817 82.1266968,35.2348624 82.39819,34.759633 C82.3303167,34.5559633 82.3303167,34.2844037 82.3303167,34.012844 C82.3303167,33.8770642 82.39819,33.8091743 82.39819,33.6733945 C82.39819,33.333945 82.4660633,32.9266055 82.7375566,32.587156 C82.8054299,32.3834862 82.9411765,32.1798165 83.2126697,32.0440367 L83.2126697,32.0440367 Z" id="Shape"></path>
                <path d="M72.4886878,34.4880734 C72.6244344,34.2844037 72.8280543,34.0807339 73.0316742,33.9449541 C73.1674208,33.5376147 73.438914,33.1981651 73.8461538,32.9944954 C73.8461538,32.9266055 73.9140271,32.9266055 73.9140271,32.8587156 C72.3529412,33.266055 70.7239819,33.8091743 69.1628959,34.4201835 C69.4343891,34.4880734 69.638009,34.6238532 69.841629,34.759633 C70.1131222,34.9633028 70.2488688,35.2348624 70.3846154,35.506422 C70.4524887,35.5743119 70.520362,35.5743119 70.520362,35.6422018 C70.9276018,35.9816514 71.1312217,36.4568807 71.199095,37 L71.199095,37.4752294 C71.4027149,37.746789 71.6063348,38.0862385 71.6063348,38.4256881 L71.6063348,38.9688073 C72.1493213,39.3761468 72.6923077,39.7834862 73.1674208,40.3266055 C73.0995475,40.2587156 73.0995475,40.1908257 73.0995475,40.1229358 C73.0316742,40.0550459 72.9638009,39.987156 72.8959276,39.8513761 C72.5565611,39.6477064 72.3529412,39.4440367 72.1493213,39.1045872 C71.9457014,38.7651376 71.8778281,38.4256881 71.9457014,38.0862385 C71.8099548,37.5431193 71.8778281,37 72.1493213,36.5926606 C72.081448,36.253211 72.081448,35.9137615 72.1493213,35.5743119 C72.1493213,35.2348624 72.2850679,34.8275229 72.4886878,34.4880734 L72.4886878,34.4880734 Z" id="Shape"></path>
                <path d="M51.040724,22.6073394 C57.4886878,18.0587156 64.479638,15.0036697 71.7420814,13.5100917 C73.3710407,13.1706422 75,12.8990826 76.6289593,12.7633028 C74.7285068,11.3376147 72.760181,10.0477064 70.7918552,9.0293578 L69.638009,9.36880734 C62.3076923,11.3376147 55.520362,15.2073394 49.6153846,20.7743119 C50.0904977,21.3174312 50.5656109,21.9963303 51.040724,22.6073394 L51.040724,22.6073394 Z" id="Shape"></path>
                <path id="Shape" d="M82.1945701,37.2036697 C82.2624434,37.2036697 82.2624434,37.2715596 82.3303167,37.2715596 C82.3303167,37.2715596 82.3303167,37.2715596 82.3303167,37.2036697 C82.3303167,37.1357798 82.2624434,37.0678899 82.2624434,37 C82.2624434,37.1357798 82.1945701,37.1357798 82.1945701,37.2036697 L82.1945701,37.2036697 Z"></path>
                <path d="M48.7330317,19.959633 C55.8597285,13.2385321 63.1221719,9.8440367 69.3665158,8.2146789 C66.6515837,6.85688073 63.9366516,5.83853211 61.1538462,5.09174312 C55.8597285,7.33211009 50.2941176,10.7944954 44.8642534,15.9541284 C46.2217195,17.1761468 47.5113122,18.533945 48.7330317,19.959633 L48.7330317,19.959633 Z" id="Shape"></path>
                <path d="M91.0859729,31.7724771 C91.0859729,31.840367 91.1538462,31.840367 91.1538462,31.9082569 L91.2895928,32.0440367 C91.8325792,32.5192661 92.0361991,33.1981651 91.9004525,33.8770642 C92.1040724,34.1486239 92.3076923,34.4880734 92.3755656,34.8275229 C92.4434389,35.2348624 92.3755656,35.7100917 92.1719457,36.0495413 L92.1719457,36.5247706 C92.918552,37.1357798 93.6651584,37.8146789 94.2760181,38.3577982 C94.3438914,38.2220183 94.4117647,38.1541284 94.479638,38.0183486 C93.6651584,35.8458716 92.7828054,33.8770642 91.8325792,31.9761468 L91.0859729,31.7724771 L91.0859729,31.7724771 L91.0859729,31.7724771 Z" id="Shape"></path>
                <path d="M54.4343891,28.4458716 C63.7330317,21.7926606 72.6244344,19.6201835 79.5475113,19.212844 C80.9728507,19.1449541 82.2624434,19.1449541 83.4841629,19.1449541 C81.6515837,17.1082569 79.8190045,15.2752294 77.8506787,13.7137615 C70.3167421,14.3247706 61.0180995,16.9045872 51.4479638,23.6256881 C52.60181,25.187156 53.5520362,26.8165138 54.4343891,28.4458716 L54.4343891,28.4458716 Z" id="Shape"></path>
                <path d="M79.6153846,20.2990826 C77.5113122,20.4348624 75.3393665,20.706422 73.3031674,21.1816514 C66.9230769,22.5394495 60.8144796,25.2550459 55.1131222,29.3284404 C55.5882353,30.2788991 56.0633484,31.2293578 56.4705882,32.1798165 C62.3076923,28.4458716 68.4841629,25.933945 74.9321267,24.5761468 C77.3755656,24.0330275 79.8868778,23.7614679 82.3303167,23.6256881 C83.8914027,23.5577982 85.3846154,23.4899083 86.9457014,23.5577982 C86.1312217,22.4036697 85.3167421,21.3174312 84.5022624,20.2990826 L83.4841629,20.2990826 C82.1945701,20.2311927 80.9049774,20.2311927 79.6153846,20.2990826 L79.6153846,20.2990826 Z" id="Shape"></path>
                <path d="M82.39819,24.7119266 C75.2036199,25.1192661 66.1764706,27.2917431 56.8099548,33.333945 C57.4886878,34.8275229 58.0316742,36.3889908 58.5746606,37.8146789 C58.7104072,37.8825688 58.8461538,37.9504587 58.9819005,38.0862385 C59.1176471,38.1541284 59.1855204,38.2899083 59.2533937,38.4256881 C60.0678733,37.8825688 60.8823529,37.4073394 61.6968326,36.9321101 C61.7647059,36.7284404 61.8325792,36.5247706 61.9683258,36.3211009 C62.1040724,36.1174312 62.3076923,35.9137615 62.5113122,35.7779817 C62.6470588,35.3706422 62.918552,35.0311927 63.3257919,34.8275229 L63.3257919,34.8275229 C63.5972851,34.4880734 64.0045249,34.2165138 64.4117647,34.1486239 C64.6153846,34.0807339 64.8190045,34.0807339 65.0226244,34.1486239 C65.2941176,33.8770642 65.6334842,33.6055046 66.1085973,33.5376147 L66.2443439,33.5376147 L66.3800905,33.5376147 C66.6515837,33.5376147 66.9909502,33.5376147 67.2624434,33.6733945 L67.4660633,33.6733945 C67.6696833,33.6733945 67.8054299,33.7412844 68.0090498,33.8091743 C73.438914,31.5688073 78.4615385,30.6183486 82.8054299,30.346789 C83.8914027,30.2788991 84.9095023,30.2788991 85.8597285,30.2788991 C86.1312217,30.0073394 86.4027149,29.8715596 86.8099548,29.8036697 L86.9457014,29.8036697 L87.081448,29.8036697 C87.3529412,29.8036697 87.6923077,29.8036697 87.9638009,29.9394495 L88.1674208,29.9394495 C88.5746606,30.0073394 88.9819005,30.2110092 89.2533937,30.4825688 C90,30.5504587 90.678733,30.6183486 91.2895928,30.6862385 C90.2036199,28.5137615 88.9819005,26.5449541 87.760181,24.7119266 C86.0633484,24.6440367 84.2986425,24.6440367 82.39819,24.7119266 L82.39819,24.7119266 Z" id="Shape"></path>
                <path d="M59.7963801,83.0972477 C67.6696833,89.2752294 75.3393665,91.2440367 82.0588235,91.3119266 C88.6425339,91.3119266 94.2760181,89.4110092 98.3484163,87.5100917 C100.384615,86.559633 101.945701,85.6091743 103.031674,84.8623853 C102.963801,84.2513761 102.895928,83.640367 102.692308,83.0972477 C98.6877828,85.4733945 91.2217195,88.9357798 82.0588235,88.9357798 L81.9909502,88.9357798 C75.4751131,88.9357798 68.0769231,87.0348624 60.4751131,81.7394495 C61.0180995,81.0605505 61.6968326,80.5174312 62.4434389,80.1779817 C69.3665158,84.7944954 76.0859729,86.3559633 81.9909502,86.4238532 C88.5746606,86.4238532 94.2081448,84.5229358 98.280543,82.6220183 C99.4343891,82.0788991 100.452489,81.5357798 101.334842,81.0605505 C99.7737557,79.2954128 93.5294118,81.4 93.5294118,81.4 C83.7556561,84.1155963 77.5113122,83.0972477 70.9276018,81.2642202 C70.9276018,81.2642202 65.8371041,79.7706422 60.6108597,76.5798165 C60.3393665,76.4440367 60.1357466,76.240367 59.8642534,76.1045872 C58.9819005,75.5614679 58.1674208,74.8825688 57.3529412,74.2715596 L52.5339367,83.5724771 C52.1945701,83.3009174 51.7873303,83.0293578 51.4479638,82.7577982 L51.5158371,82.7577982 C50.6334842,83.2330275 49.8190045,83.7082569 48.8687783,84.1834862 C48.800905,84.1834862 48.800905,84.1834862 48.7330317,84.2513761 L41.8099548,97.7614679 C43.6425339,97.3541284 45.4072398,96.8110092 47.1040724,96.2678899 L55.3167421,80.5853211 C56.1312217,80.0422018 56.9457014,79.4990826 57.6923077,78.8880734 L48.9366516,95.5211009 C50.4977376,94.9100917 52.0588235,94.2311927 53.4841629,93.4844037 C56.0633484,92.1944954 58.3710407,90.8366972 60.4751131,89.4788991 C60.9502262,90.0899083 61.561086,90.6330275 62.3076923,91.040367 C70.3846154,94.9100917 77.3076923,96.3357798 82.9411765,96.3357798 L83.0090498,96.3357798 C94.6832579,96.3357798 100.791855,90.3614679 101.402715,89.6825688 C101.877828,89.2073394 102.217195,88.6642202 102.488688,88.053211 C98.4162896,90.4293578 91.0859729,93.8238532 82.0588235,93.8238532 L81.9909502,93.8238532 C75.0678733,93.8238532 67.1945701,91.7192661 59.2533937,85.7449541 C59.2533937,84.9981651 59.3891403,84.1834862 59.6606335,83.4366972 C59.6606335,83.3009174 59.7285068,83.2330275 59.7963801,83.0972477 L59.7963801,83.0972477 Z M50.361991,86.8990826 C49.8190045,86.8990826 49.4117647,86.4917431 49.4117647,85.9486239 C49.4117647,85.4055046 49.8190045,84.9981651 50.361991,84.9981651 C50.9049774,84.9981651 51.3122172,85.4055046 51.3122172,85.9486239 C51.3122172,86.4917431 50.9049774,86.8990826 50.361991,86.8990826 L50.361991,86.8990826 Z M53.6199095,92.3302752 C53.0769231,92.3302752 52.6696833,91.9229358 52.6696833,91.3798165 C52.6696833,90.8366972 53.0769231,90.4293578 53.6199095,90.4293578 C54.1628959,90.4293578 54.5701357,90.8366972 54.5701357,91.3798165 C54.5701357,91.9229358 54.1628959,92.3302752 53.6199095,92.3302752 L53.6199095,92.3302752 Z M57.9638009,78.6165138 C57.4208145,78.6165138 57.0135747,78.2091743 57.0135747,77.666055 C57.0135747,77.1229358 57.4208145,76.7155963 57.9638009,76.7155963 C58.5067873,76.7155963 58.9140271,77.1229358 58.9140271,77.666055 C58.9140271,78.1412844 58.438914,78.6165138 57.9638009,78.6165138 L57.9638009,78.6165138 Z" id="Shape"></path>
                <path d="M30.4751131,53.9045872 C30.9502262,55.1944954 31.8325792,57.2311927 33.0542986,59.6752294 L38.7556561,49.4917431 L39.7058824,49.1522936 L39.638009,49.1522936 L38.3484163,45.146789 C38.2126697,44.7394495 37.8054299,44.5357798 37.39819,44.6715596 C36.9909502,44.8073394 36.7873303,45.2146789 36.9230769,45.6220183 L36.9230769,45.6899083 C36.719457,45.4862385 36.3800905,45.3504587 36.040724,45.4862385 C35.6334842,45.6220183 35.4977376,46.0972477 35.6334842,46.5045872 L37.1945701,49.9669725 L37.0588235,50.0348624 C37.0588235,49.9669725 37.0588235,49.8990826 36.9909502,49.7633028 L35.0226244,45.2825688 C34.8868778,44.8752294 34.4117647,44.7394495 34.0045249,44.8752294 C33.6651584,45.0110092 33.4615385,45.4183486 33.5972851,45.8256881 L33.3257919,45.8256881 C32.918552,45.893578 32.6470588,46.3009174 32.7149321,46.7082569 L33.5294118,51.1211009 L33.4615385,51.1211009 L32.1040724,48.4733945 C31.9004525,48.133945 31.4932127,47.9302752 31.0859729,48.133945 C30.7466063,48.3376147 30.5429864,48.7449541 30.7466063,49.1522936 L31.9683258,51.5963303 L32.918552,51.2568807 L30.7466063,55.1266055 C30.7466063,54.7192661 30.6108597,54.3119266 30.4751131,53.9045872 L30.4751131,53.9045872 Z M35.6334842,50.4422018 C35.6334842,50.5100917 35.7013575,50.5100917 35.7013575,50.5100917 L35.0904977,50.7137615 L34.5475113,47.9302752 L35.6334842,50.4422018 L35.6334842,50.4422018 Z M34.5475113,51.8678899 C35.0904977,51.8678899 35.4977376,52.2752294 35.4977376,52.8183486 C35.4977376,53.3614679 35.0904977,53.7688073 34.5475113,53.7688073 C34.0045249,53.7688073 33.5972851,53.3614679 33.5972851,52.8183486 C33.5972851,52.2752294 34.0723982,51.8678899 34.5475113,51.8678899 L34.5475113,51.8678899 Z" id="Shape"></path>
                <path id="Shape" d="M103.031674,84.8623853 L103.031674,84.8623853 L103.031674,84.9981651 L103.031674,84.8623853 L103.031674,84.8623853 Z"></path>
                <path id="Shape" d="M41.7420814,97.7614679 C41.199095,97.8972477 40.6561086,97.9651376 40.1809955,98.0330275 L40.1809955,98.0330275 C40.6561086,97.9651376 41.199095,97.8972477 41.7420814,97.7614679 L41.7420814,97.7614679 Z"></path>
                <path d="M34.7511312,88.4605505 L28.7104072,98.8477064 C30.2714932,98.9155963 31.8325792,98.9155963 33.3257919,98.8477064 L39.9773756,87.5779817 C38.2126697,87.9853211 36.5158371,88.2568807 34.7511312,88.4605505 L34.7511312,88.4605505 Z M36.3122172,91.040367 C35.7692308,91.040367 35.361991,90.6330275 35.361991,90.0899083 C35.361991,89.546789 35.7692308,89.1394495 36.3122172,89.1394495 C36.8552036,89.1394495 37.2624434,89.546789 37.2624434,90.0899083 C37.2624434,90.6330275 36.8552036,91.040367 36.3122172,91.040367 L36.3122172,91.040367 Z" id="Shape"></path>
                <path d="M28.3710407,48.066055 C28.0316742,48.2697248 27.8280543,48.6770642 28.0316742,49.0844037 L28.1674208,49.3559633 L27.8280543,49.0844037 C27.4886878,48.8807339 27.0135747,48.9486239 26.8099548,49.2880734 C26.6063348,49.6275229 26.6742081,50.1027523 27.0135747,50.306422 L29.6606335,52.0715596 L30.2714932,53.2256881 C30.3393665,53.3614679 30.3393665,53.4972477 30.4072398,53.6330275 L31.3574661,52.0036697 L32.0361991,51.8 L31.9683258,51.8 L31.9683258,51.8 L30.8823529,51.053211 L29.5248869,48.4055046 C29.1855204,47.9981651 28.7782805,47.8623853 28.3710407,48.066055 L28.3710407,48.066055 Z" id="Shape"></path>
                <path d="M41.7420814,87.0348624 L34.8868778,98.7798165 C36.719457,98.6440367 38.4162896,98.3724771 40.1809955,98.0330275 L46.9004525,85.133945 C45.2036199,85.8807339 43.5067873,86.559633 41.7420814,87.0348624 L41.7420814,87.0348624 Z M39.3665158,96.4715596 C38.8235294,96.4715596 38.4162896,96.0642202 38.4162896,95.5211009 C38.4162896,94.9779817 38.8235294,94.5706422 39.3665158,94.5706422 C39.9095023,94.5706422 40.3167421,94.9779817 40.3167421,95.5211009 C40.3167421,96.0642202 39.841629,96.4715596 39.3665158,96.4715596 L39.3665158,96.4715596 Z" id="Shape"></path>
                <path id="Shape" d="M34.8190045,98.7798165 C34.3438914,98.7798165 33.800905,98.8477064 33.2579186,98.8477064 L33.2579186,98.8477064 C33.800905,98.8477064 34.2760181,98.8477064 34.8190045,98.7798165 L34.8190045,98.7798165 Z"></path>
                <path d="M39.9773756,50.0348624 L33.7330317,61.1688073 C34.3438914,62.3229358 35.0226244,63.5449541 35.8371041,64.8348624 L41.6063348,53.8366972 C41.0633484,52.6146789 40.5882353,51.5963303 40.2488688,50.8495413 C40.1809955,50.5100917 40.0452489,50.2385321 39.9773756,50.0348624 L39.9773756,50.0348624 Z M35.7013575,61.7798165 C35.158371,61.7798165 34.7511312,61.3724771 34.7511312,60.8293578 C34.7511312,60.2862385 35.158371,59.8788991 35.7013575,59.8788991 C36.2443439,59.8788991 36.6515837,60.2862385 36.6515837,60.8293578 C36.6515837,61.3724771 36.2443439,61.7798165 35.7013575,61.7798165 L35.7013575,61.7798165 Z" id="Shape"></path>
                <path d="M10.520362,81.6036697 C10.2488688,81.4 9.97737557,81.1963303 9.63800905,80.9926606 L9.63800905,80.9926606 L6.99095023,78.1412844 C6.58371041,77.733945 6.04072398,77.5981651 5.76923077,77.8697248 C5.49773756,78.1412844 5.56561086,78.6844037 5.90497738,79.0917431 L7.26244344,80.5853211 L5.42986425,79.2954128 C4.95475113,78.9559633 4.41176471,78.9559633 4.2081448,79.2954128 C4.00452489,79.6348624 4.14027149,80.1100917 4.61538462,80.4495413 L8.21266968,82.9614679 L8.07692308,83.1651376 L6.04072398,81.7394495 C5.56561086,81.4 5.02262443,81.4 4.81900452,81.7394495 C4.61538462,82.0788991 4.75113122,82.6220183 5.22624434,82.893578 L7.26244344,84.3192661 L7.12669683,84.5229358 L3.46153846,82.0110092 C2.98642534,81.6715596 2.44343891,81.7394495 2.239819,82.0110092 C2.0361991,82.3504587 2.1719457,82.893578 2.64705882,83.1651376 L6.31221719,85.6770642 L6.17647059,85.8807339 L3.39366516,83.9798165 C2.91855204,83.640367 2.30769231,83.7761468 1.96832579,84.2513761 C1.62895928,84.7266055 1.76470588,85.3376147 2.239819,85.6770642 L5.02262443,87.5779817 L4.88687783,87.7137615 L1.35746606,86.2201835 C0.814479638,86.0165138 0.271493213,86.2201835 0.0678733032,86.7633028 C-0.135746606,87.2385321 0.0678733032,87.8495413 0.610859729,88.053211 L3.73303167,89.4110092 C4.00452489,89.6146789 4.3438914,89.8183486 4.68325792,90.0899083 C5.42986425,90.5651376 6.10859729,91.040367 6.85520362,91.5155963 L12.2850679,82.7577982 C11.6742081,82.3504587 11.0633484,82.0110092 10.520362,81.6036697 L10.520362,81.6036697 Z" id="Shape"></path>
                <path d="M101.402715,52.2752294 C97.7375566,54.9229358 88.0316742,60.8293578 74.4570136,60.8293578 C70.1809955,60.8293578 65.9049774,60.2183486 61.6968326,59.0642202 C61.0859729,61.1009174 60.7466063,63.2055046 60.7466063,65.3779817 C60.7466063,68.9761468 61.6289593,72.4385321 63.1221719,75.4256881 C76.3574661,85.3376147 87.0135747,80.2458716 95.2262443,79.0917431 C98.0090498,78.6844037 99.841629,78.6844037 101.063348,78.8880734 C103.914027,75.1541284 105.61086,70.4697248 105.61086,65.3779817 C105.678733,60.5577982 104.117647,56.0091743 101.402715,52.2752294 L101.402715,52.2752294 Z M94.9547511,57.5706422 C96.1764706,57.5706422 97.1266968,58.5889908 97.1266968,59.946789 C97.1266968,61.2366972 96.1764706,62.3229358 94.9547511,62.3229358 C93.7330317,62.3229358 92.7828054,61.3045872 92.7828054,59.946789 C92.7828054,58.5889908 93.7330317,57.5706422 94.9547511,57.5706422 L94.9547511,57.5706422 Z M79.3438914,66.1247706 C78.1221719,66.1247706 77.1719457,65.106422 77.1719457,63.8165138 C77.1719457,62.5266055 78.1221719,61.440367 79.3438914,61.440367 C80.5656109,61.440367 81.5158371,62.4587156 81.5158371,63.8165138 C81.5158371,65.106422 80.4977376,66.1247706 79.3438914,66.1247706 L79.3438914,66.1247706 Z M81.040724,74.4073394 C87.2850679,76.5798165 94.6153846,73.1853211 94.6153846,73.1853211 C88.5067873,80.9926606 81.040724,74.4073394 81.040724,74.4073394 L81.040724,74.4073394 Z M90.0678733,71.2844037 C90.0678733,71.2844037 85.7239819,68.7724771 89.1176471,64.2238532 C89.1176471,64.2238532 104.728507,59.8788991 104.049774,61.8477064 C102.828054,65.5137615 90.0678733,71.2844037 90.0678733,71.2844037 L90.0678733,71.2844037 Z" id="Shape"></path>
                <path d="M42.3529412,55.3302752 L36.6515837,66.1247706 C37.39819,67.346789 38.280543,68.6366972 39.1628959,69.8587156 L44.6606335,59.4715596 C43.7782805,58.0458716 43.0316742,56.6880734 42.4208145,55.3981651 C42.4208145,55.3981651 42.4208145,55.3302752 42.3529412,55.3302752 L42.3529412,55.3302752 Z M43.1674208,60.1504587 C43.1674208,60.693578 42.760181,61.1009174 42.2171946,61.1009174 C41.6742081,61.1009174 41.2669683,60.693578 41.2669683,60.1504587 C41.2669683,59.6073394 41.6742081,59.2 42.2171946,59.2 C42.760181,59.2 43.1674208,59.6752294 43.1674208,60.1504587 L43.1674208,60.1504587 Z" id="Shape"></path>
                <path id="Shape" d="M6.78733032,91.5155963 C6.99095023,91.6513761 7.26244344,91.787156 7.46606335,91.9229358 C7.26244344,91.787156 7.05882353,91.6513761 6.78733032,91.5155963 L6.78733032,91.5155963 L6.78733032,91.5155963 Z"></path>
                <path d="M12.6244344,94.706422 L12.6244344,94.706422 C12.2171946,94.5027523 11.8099548,94.3669725 11.4027149,94.1633028 C11.8778281,94.3669725 12.2850679,94.5027523 12.6244344,94.706422 L12.6244344,94.706422 Z" id="Shape"></path>
                <path d="M148.642534,117.177982 L139.276018,115.412844 C139.072398,115.344954 138.868778,115.412844 138.733032,115.412844 L105.882353,88.1889908 C100.045249,94.706422 93.7330317,97.7614679 87.6244344,98.8477064 C89.5927602,98.9155963 91.1538462,100.477064 91.1538462,102.445872 C91.1538462,104.414679 89.5248869,106.044037 87.5565611,106.044037 C85.5882353,106.044037 83.959276,104.414679 83.959276,102.445872 C83.959276,100.816514 85.0452489,99.4587156 86.4705882,99.0513761 C73.0995475,100.816514 61.0859729,93.3486239 58.7104072,91.7192661 L27.1493213,121.251376 C27.1493213,121.251376 27.1493213,121.319266 27.081448,121.319266 C26.9457014,121.319266 26.7420814,121.251376 26.6063348,121.251376 L17.239819,123.016514 C16.4932127,123.152294 16.0180995,123.831193 16.1538462,124.577982 C16.2895928,125.324771 16.9683258,125.8 17.7149321,125.66422 L26.1312217,124.102752 L22.8733032,131.027523 C22.5339367,131.706422 22.8733032,132.453211 23.4841629,132.792661 C24.1628959,133.13211 24.9095023,132.792661 25.2488688,132.181651 L28.1674208,126.00367 C28.438914,126.07156 28.7782805,126.13945 29.0497738,126.13945 L29.1176471,126.13945 L27.8959276,133.33578 C27.760181,134.082569 28.2352941,134.761468 28.9819005,134.897248 C29.7285068,135.033028 30.4072398,134.557798 30.5429864,133.811009 L32.1719457,124.442202 L32.1719457,124.374312 L52.8733032,104.957798 C52.5339367,106.790826 52.3303167,108.691743 52.3303167,110.66055 C52.3303167,117.992661 54.9095023,124.781651 59.2533937,130.077064 C45.3393665,138.902752 36.1085973,154.381651 36.1085973,172.100917 C36.1085973,199.52844 58.3710407,221.79633 85.7918552,221.79633 C113.21267,221.79633 135.475113,199.52844 135.475113,172.100917 C135.475113,152.888073 124.547511,136.187156 108.529412,127.904587 C111.855204,123.016514 113.823529,117.042202 113.823529,110.66055 C113.823529,107.130275 113.21267,103.80367 112.126697,100.680734 L133.9819,118.807339 L135.542986,128.040367 C135.678733,128.787156 136.357466,129.262385 137.104072,129.126606 C137.850679,128.990826 138.325792,128.311927 138.190045,127.565138 L136.968326,120.708257 C137.104072,120.708257 137.171946,120.776147 137.307692,120.776147 C137.579186,120.776147 137.850679,120.708257 138.054299,120.640367 L140.769231,126.411009 C141.108597,127.089908 141.855204,127.361468 142.533937,127.022018 C143.21267,126.682569 143.484163,125.93578 143.144796,125.256881 L140.022624,118.53578 C140.022624,118.46789 140.022624,118.4 140.090498,118.33211 L148.303167,119.825688 C149.049774,119.961468 149.728507,119.486239 149.864253,118.73945 C149.79638,117.992661 149.321267,117.313761 148.642534,117.177982 L148.642534,117.177982 Z M85.0452489,120.233028 C85.0452489,118.26422 86.6742081,116.634862 88.6425339,116.634862 C90.6108597,116.634862 92.239819,118.26422 92.239819,120.233028 C92.239819,122.201835 90.6108597,123.831193 88.6425339,123.831193 C86.6742081,123.831193 85.0452489,122.201835 85.0452489,120.233028 L85.0452489,120.233028 Z M86.2669683,144.944954 C86.2669683,142.976147 87.8959276,141.346789 89.8642534,141.346789 C91.8325792,141.346789 93.4615385,142.976147 93.4615385,144.944954 C93.4615385,146.913761 91.8325792,148.543119 89.8642534,148.543119 C87.8959276,148.543119 86.2669683,146.913761 86.2669683,144.944954 L86.2669683,144.944954 Z M91.9683258,195.183486 C90,195.183486 88.3710407,193.554128 88.3710407,191.585321 C88.3710407,189.616514 90,187.987156 91.9683258,187.987156 C93.9366516,187.987156 95.5656109,189.616514 95.5656109,191.585321 C95.5656109,193.554128 94.0045249,195.183486 91.9683258,195.183486 L91.9683258,195.183486 Z M93.800905,170.811009 C91.8325792,170.811009 90.2036199,169.181651 90.2036199,167.212844 C90.2036199,165.244037 91.8325792,163.614679 93.800905,163.614679 C95.7692308,163.614679 97.39819,165.244037 97.39819,167.212844 C97.39819,169.181651 95.7692308,170.811009 93.800905,170.811009 L93.800905,170.811009 Z" id="Shape"></path>
                <path d="M21.9909502,87.2385321 C20.7013575,86.8311927 19.479638,86.4238532 18.1221719,85.8807339 L12.6244344,94.7743119 C13.8461538,95.3174312 15.1357466,95.8605505 16.3574661,96.3357798 L21.9909502,87.2385321 L21.9909502,87.2385321 Z M15.2036199,94.7743119 C14.6606335,94.7743119 14.2533937,94.3669725 14.2533937,93.8238532 C14.2533937,93.2807339 14.6606335,92.8733945 15.2036199,92.8733945 C15.7466063,92.8733945 16.1538462,93.2807339 16.1538462,93.8238532 C16.1538462,94.2990826 15.678733,94.7743119 15.2036199,94.7743119 L15.2036199,94.7743119 Z" id="Shape"></path>
                <path d="M13.3710407,83.4366972 L7.94117647,92.2623853 C9.09502262,92.9412844 10.3167421,93.6201835 11.4705882,94.1633028 L16.9683258,85.3376147 C15.7466063,84.7266055 14.5927602,84.1155963 13.3710407,83.4366972 L13.3710407,83.4366972 Z M14.0497738,87.306422 C13.5067873,87.306422 13.0995475,86.8990826 13.0995475,86.3559633 C13.0995475,85.812844 13.5067873,85.4055046 14.0497738,85.4055046 C14.5927602,85.4055046 15,85.812844 15,86.3559633 C15,86.8990826 14.5248869,87.306422 14.0497738,87.306422 L14.0497738,87.306422 Z" id="Shape"></path>
                <path d="M43.7782805,75.5614679 C44.9321267,76.7834862 46.1538462,78.0733945 47.4434389,79.2275229 L52.39819,69.6550459 C51.1764706,68.3651376 50.0226244,67.0073394 49.0045249,65.7174312 L43.7782805,75.5614679 L43.7782805,75.5614679 Z M49.9547511,69.9944954 C49.9547511,70.5376147 49.5475113,70.9449541 49.0045249,70.9449541 C48.4615385,70.9449541 48.0542986,70.5376147 48.0542986,69.9944954 C48.0542986,69.4513761 48.4615385,69.0440367 49.0045249,69.0440367 C49.479638,69.0440367 49.9547511,69.4513761 49.9547511,69.9944954 L49.9547511,69.9944954 Z" id="Shape"></path>
                <path d="M51.5837104,82.7577982 L56.4027149,73.3889908 C55.3167421,72.506422 54.2986425,71.5559633 53.3484163,70.5376147 L53.3484163,70.5376147 L48.4615385,80.0422018 C49.4117647,81.0605505 50.4977376,81.9431193 51.5837104,82.7577982 L51.5837104,82.7577982 Z M51.2443439,77.733945 C51.7873303,77.733945 52.1945701,78.1412844 52.1945701,78.6844037 C52.1945701,79.2275229 51.7873303,79.6348624 51.2443439,79.6348624 C50.7013575,79.6348624 50.2941176,79.2275229 50.2941176,78.6844037 C50.2941176,78.1412844 50.7692308,77.733945 51.2443439,77.733945 L51.2443439,77.733945 Z" id="Shape"></path>
                <path d="M33.1221719,88.5963303 C31.6289593,88.6642202 30.0678733,88.6642202 28.5746606,88.5284404 L22.9411765,98.1009174 C24.3665158,98.3724771 25.7918552,98.5761468 27.2171946,98.7119266 L33.1221719,88.5963303 L33.1221719,88.5963303 Z M26.199095,97.5577982 C25.6561086,97.5577982 25.2488688,97.1504587 25.2488688,96.6073394 C25.2488688,96.0642202 25.6561086,95.6568807 26.199095,95.6568807 C26.7420814,95.6568807 27.1493213,96.0642202 27.1493213,96.6073394 C27.1493213,97.0825688 26.7420814,97.5577982 26.199095,97.5577982 L26.199095,97.5577982 Z" id="Shape"></path>
                <path d="M40.0452489,71.0807339 C40.9276018,72.2348624 41.8099548,73.3211009 42.760181,74.4752294 L48.0542986,64.4954128 C47.1040724,63.2055046 46.2895928,61.9834862 45.4751131,60.7614679 L40.0452489,71.0807339 L40.0452489,71.0807339 Z M42.6923077,71.0807339 C42.1493213,71.0807339 41.7420814,70.6733945 41.7420814,70.1302752 C41.7420814,69.587156 42.1493213,69.1798165 42.6923077,69.1798165 C43.2352941,69.1798165 43.6425339,69.587156 43.6425339,70.1302752 C43.6425339,70.6055046 43.2352941,71.0807339 42.6923077,71.0807339 L42.6923077,71.0807339 Z" id="Shape"></path>
                <path d="M17.7149321,96.6752294 C19.0045249,97.0825688 20.2941176,97.4899083 21.5158371,97.7614679 L27.081448,88.3247706 C25.8597285,88.1889908 24.5701357,87.9174312 23.3484163,87.5779817 L17.7149321,96.6752294 L17.7149321,96.6752294 Z M24.1628959,89.0036697 C24.7058824,89.0036697 25.1131222,89.4110092 25.1131222,89.9541284 C25.1131222,90.4972477 24.7058824,90.9045872 24.1628959,90.9045872 C23.6199095,90.9045872 23.2126697,90.4972477 23.2126697,89.9541284 C23.2126697,89.4110092 23.6877828,89.0036697 24.1628959,89.0036697 L24.1628959,89.0036697 Z" id="Shape"></path>
                <path id="Shape" d="M17.7149321,96.6752294 L17.7149321,96.6752294 C17.3076923,96.5394495 16.8325792,96.4036697 16.4253394,96.2 C16.8325792,96.4036697 17.239819,96.5394495 17.7149321,96.6752294 L17.7149321,96.6752294 Z"></path>
            </g>
        </g>
    </g>
</svg>