<?xml version="1.0" encoding="UTF-8" standalone="no"?>
<svg width="151px" height="379px" viewBox="0 0 151 379" version="1.1" xmlns="http://www.w3.org/2000/svg" xmlns:xlink="http://www.w3.org/1999/xlink" xmlns:sketch="http://www.bohemiancoding.com/sketch/ns">
    <!-- Generator: Sketch 3.1.1 (8761) - http://www.bohemiancoding.com/sketch -->
    <title>Occasion_candycane</title>
    <desc>Created with Sketch.</desc>
    <defs></defs>
    <g id="Page-1" stroke="none" stroke-width="1" fill="none" fill-rule="evenodd" sketch:type="MSPage">
        <g id="Occasion_candycane" sketch:type="MSLayerGroup" fill="#231F20">
            <path d="M146.818182,90.96 C146.818182,90.8084 134.242424,90.0504 137.272727,82.4704 C137.272727,82.4704 138.636364,80.0448 141.060606,82.1672 C140,78.832 142.424242,77.9224 142.424242,77.9224 C149.242424,76.558 146.666667,90.96 146.818182,90.96 L146.818182,90.96 L146.818182,90.96 Z M127.424242,37.142 C127.424242,37.142 127.424242,36.9904 127.424242,37.142 C127.272727,37.142 124.545455,22.8916 118.484848,26.53 C118.484848,26.53 116.666667,28.1976 118.787879,31.078 C115.757576,30.0168 115.30303,32.7456 115.30303,32.7456 C115.454545,40.7804 127.424242,36.9904 127.424242,37.142 L127.424242,37.142 Z M45.6060606,98.3884 C44.8484848,97.4788 43.7878788,96.1144 43.030303,95.2048 C43.3333333,93.992 43.9393939,92.1728 44.2424242,90.96 C43.030303,91.5664 41.5151515,92.3244 40.3030303,92.9308 C39.2424242,92.3244 37.8787879,91.4148 36.6666667,90.8084 C36.6666667,92.0212 36.8181818,93.6888 36.8181818,95.0532 C35.7575758,95.9628 34.2424242,97.024 33.030303,97.9336 C34.3939394,98.2368 36.0606061,98.54 37.4242424,98.8432 C37.7272727,100.056 38.1818182,101.7236 38.6363636,102.9364 C39.3939394,101.7236 40.6060606,100.2076 41.3636364,98.9948 C42.5757576,98.6916 44.2424242,98.54 45.6060606,98.3884 L45.6060606,98.3884 Z M29.6969697,93.8404 C28.9393939,92.9308 27.8787879,91.5664 27.1212121,90.6568 C27.4242424,89.444 28.030303,87.6248 28.3333333,86.412 C27.1212121,87.0184 25.6060606,87.7764 24.3939394,88.3828 C23.3333333,87.7764 21.969697,86.8668 20.7575758,86.2604 C20.7575758,87.4732 20.7575758,89.2924 20.9090909,90.5052 C19.6969697,91.4148 18.1818182,92.476 17.1212121,93.3856 C18.4848485,93.6888 20.1515152,93.992 21.5151515,94.2952 C21.8181818,95.508 22.2727273,97.1756 22.7272727,98.3884 C23.6363636,97.1756 24.6969697,95.6596 25.4545455,94.4468 C26.6666667,94.1436 28.4848485,93.992 29.6969697,93.8404 L29.6969697,93.8404 Z M14.0909091,88.8376 C13.3333333,87.928 12.2727273,86.5636 11.5151515,85.654 C11.8181818,84.4412 12.4242424,82.622 12.7272727,81.4092 C11.5151515,82.0156 10,82.7736 8.78787879,83.38 C7.72727273,82.7736 6.36363636,81.864 5.15151515,81.2576 L5.15151515,85.5024 C4.09090909,86.412 2.57575758,87.4732 1.36363636,88.3828 C2.72727273,88.686 4.39393939,88.9892 5.75757576,89.2924 C6.06060606,90.5052 6.51515152,92.1728 6.96969697,93.3856 C7.87878788,92.0212 9.09090909,90.5052 9.84848485,89.444 C11.2121212,89.2924 12.8787879,88.9892 14.0909091,88.8376 L14.0909091,88.8376 Z M33.9393939,52.1504 L41.8181818,46.8444 C42.4242424,46.3896 42.8787879,46.6928 42.7272727,47.4508 L40.4545455,56.6984 C40.3030303,57.4564 39.5454545,57.7596 38.9393939,57.3048 L33.7878788,53.818 C33.3333333,53.2116 33.3333333,52.6052 33.9393939,52.1504 L33.9393939,52.1504 Z M38.7878788,53.9696 C39.5454545,53.9696 40.3030303,53.2116 40.3030303,52.4536 C40.3030303,51.6956 39.5454545,50.9376 38.7878788,50.9376 C38.030303,50.9376 37.2727273,51.6956 37.2727273,52.4536 C37.2727273,53.3632 37.8787879,53.9696 38.7878788,53.9696 L38.7878788,53.9696 Z M31.8181818,39.2644 L29.5454545,48.512 C29.3939394,49.27 28.6363636,49.5732 28.030303,49.1184 L23.030303,45.6316 C22.4242424,45.1768 22.4242424,44.4188 23.030303,43.964 L30.9090909,38.658 C31.6666667,38.2032 31.969697,38.5064 31.8181818,39.2644 L31.8181818,39.2644 Z M27.7272727,42.9028 C26.969697,42.9028 26.2121212,43.6608 26.2121212,44.4188 C26.2121212,45.3284 26.969697,45.9348 27.7272727,45.9348 C28.4848485,45.9348 29.2424242,45.1768 29.2424242,44.4188 C29.2424242,43.5092 28.6363636,42.9028 27.7272727,42.9028 L27.7272727,42.9028 Z M18.7878788,40.4772 C18.6363636,41.2352 17.8787879,41.5384 17.2727273,41.0836 L12.1212121,37.5968 C11.5151515,37.142 11.5151515,36.384 12.1212121,36.0808 L20,30.7748 C20.6060606,30.32 21.0606061,30.6232 20.9090909,31.3812 L18.7878788,40.4772 L18.7878788,40.4772 Z M16.969697,34.868 C16.0606061,34.868 15.4545455,35.626 15.4545455,36.384 C15.4545455,37.142 16.2121212,37.9 16.969697,37.9 C17.7272727,37.9 18.4848485,37.142 18.4848485,36.384 C18.4848485,35.4744 17.7272727,34.868 16.969697,34.868 L16.969697,34.868 Z M135,100.3592 C135,100.3592 135.151515,100.2076 135,100.3592 C134.848485,100.3592 137.424242,85.9572 130.606061,87.17 C130.606061,87.17 128.333333,88.0796 129.242424,91.4148 C126.818182,89.444 125.454545,91.718 125.454545,91.718 C122.424242,99.4496 135.151515,100.2076 135,100.3592 L135,100.3592 Z M112.121212,101.7236 C109.090909,109.3036 121.818182,110.0616 121.666667,110.2132 L121.818182,110.2132 C121.666667,110.2132 124.242424,95.9628 117.272727,97.1756 C117.272727,97.1756 115,98.0852 115.909091,101.4204 C113.484848,99.298 112.121212,101.7236 112.121212,101.7236 L112.121212,101.7236 Z M111.363636,43.964 C108.333333,43.0544 107.878788,45.6316 107.878788,45.6316 C107.878788,53.818 119.848485,49.8764 119.848485,50.028 C119.848485,50.028 119.848485,50.028 119.848485,49.8764 C119.69697,50.028 116.818182,35.626 110.909091,39.416 C111.060606,39.5676 109.242424,41.2352 111.363636,43.964 L111.363636,43.964 Z M102.424242,57.9112 C99.3939394,56.85 98.9393939,59.5788 98.9393939,59.5788 C98.9393939,67.7652 110.909091,63.8236 110.909091,63.9752 C110.909091,63.9752 110.909091,63.9752 110.909091,63.8236 C110.757576,63.9752 107.878788,49.5732 101.969697,53.3632 C102.121212,53.5148 100.30303,55.1824 102.424242,57.9112 L102.424242,57.9112 Z M60.7575758,200.87 C54.0909091,203.144 62.7272727,212.3916 62.7272727,212.3916 L62.8787879,212.3916 C62.7272727,212.24 73.1818182,205.8728 67.4242424,201.7796 C67.4242424,201.7796 65.1515152,200.7184 63.9393939,203.2956 C63.1818182,200.5668 60.7575758,200.87 60.7575758,200.87 L60.7575758,200.87 Z M44.3939394,197.6864 C37.7272727,199.9604 46.3636364,209.208 46.2121212,209.208 L46.3636364,209.208 C46.2121212,209.0564 56.6666667,202.6892 50.9090909,198.596 C50.9090909,198.596 48.6363636,197.5348 47.4242424,200.112 C46.8181818,197.2316 44.3939394,197.6864 44.3939394,197.6864 L44.3939394,197.6864 Z M30,205.8728 L30,205.8728 C30,205.7212 40.4545455,199.354 34.6969697,195.2608 C34.6969697,195.2608 32.4242424,194.1996 31.2121212,196.7768 C30.6060606,193.8964 28.1818182,194.3512 28.1818182,194.3512 C21.3636364,196.6252 30.1515152,205.8728 30,205.8728 L30,205.8728 Z M16.0606061,147.3552 L16.0606061,147.3552 C15.9090909,146.7488 15.9090909,146.294 16.2121212,145.6876 C16.5151515,145.0812 17.1212121,144.778 17.5757576,144.6264 C18.030303,144.4748 18.3333333,144.6264 18.4848485,144.6264 L21.0606061,145.0812 L23.3333333,143.5652 C23.4848485,143.4136 23.9393939,143.262 24.2424242,143.1104 C24.6969697,142.9588 25.4545455,143.1104 26.0606061,143.5652 C26.5151515,143.8684 26.8181818,144.4748 26.969697,144.9296 L26.969697,145.2328 L27.2727273,147.81 L29.3939394,149.4776 C29.6969697,149.6292 30.1515152,150.2356 30.3030303,150.842 C30.6060606,152.0548 29.6969697,153.116 29.0909091,153.2676 L26.6666667,154.4804 L25.7575758,157.0576 C25.6060606,157.664 25,158.2704 24.0909091,158.5736 C23.1818182,158.7252 22.4242424,158.2704 21.969697,157.9672 L20.1515152,155.9964 L17.4242424,155.9964 C16.6666667,155.9964 15.4545455,155.5416 15.3030303,154.3288 C15.1515152,153.7224 15.3030303,153.116 15.6060606,152.6612 L16.969697,150.2356 L16.0606061,147.3552 L16.0606061,147.3552 Z M20.6060606,152.0548 C21.5151515,152.2064 22.1212121,152.358 22.8787879,153.116 L23.030303,153.4192 L23.1818182,153.116 C23.6363636,152.2064 23.9393939,151.7516 24.8484848,151.2968 L25.1515152,151.1452 L24.8484848,150.9936 C24.0909091,150.3872 23.9393939,149.9324 23.6363636,149.1744 C23.6363636,149.1744 23.6363636,149.1744 23.6363636,149.0228 L23.6363636,149.0228 L23.6363636,149.0228 L23.6363636,148.568 L23.3333333,148.7196 C22.8787879,149.0228 22.5757576,149.1744 22.2727273,149.1744 C21.8181818,149.1744 21.5151515,149.326 21.0606061,149.1744 L20.7575758,149.1744 L20.9090909,149.4776 L20.9090909,149.7808 C21.0606061,150.5388 20.9090909,151.1452 20.6060606,152.0548 L20.4545455,152.358 L20.6060606,152.358 L20.6060606,152.0548 Z M53.3333333,155.9964 C53.6363636,157.2092 52.7272727,158.2704 52.1212121,158.422 L49.6969697,159.6348 L48.7878788,162.212 C48.6363636,162.8184 48.030303,163.4248 47.1212121,163.728 C46.2121212,163.8796 45.4545455,163.4248 45,163.1216 L43.1818182,161.1508 L40.4545455,161.1508 C39.6969697,161.1508 38.4848485,160.696 38.3333333,159.4832 C38.1818182,158.8768 38.3333333,158.2704 38.6363636,157.9672 L40,155.5416 L39.0909091,152.8128 L39.0909091,152.6612 C39.0909091,152.2064 39.0909091,151.6 39.3939394,151.1452 C39.6969697,150.5388 40.3030303,150.2356 40.7575758,150.084 C41.2121212,149.9324 41.5151515,150.084 41.6666667,150.084 L44.2424242,150.5388 L46.5151515,149.0228 C46.6666667,148.8712 47.1212121,148.7196 47.4242424,148.568 C47.8787879,148.4164 48.6363636,148.568 49.2424242,149.0228 C49.6969697,149.326 50,149.9324 50.1515152,150.3872 L50.1515152,150.6904 L50.4545455,153.4192 L52.5757576,155.0868 C52.7272727,154.9352 53.1818182,155.39 53.3333333,155.9964 L53.3333333,155.9964 Z M47.7272727,155.9964 C46.969697,155.39 46.8181818,154.9352 46.5151515,154.1772 C46.5151515,154.1772 46.5151515,154.1772 46.5151515,154.0256 L46.5151515,154.0256 L46.5151515,154.0256 L46.5151515,153.5708 L46.2121212,153.7224 C45.7575758,154.0256 45.4545455,154.1772 45.1515152,154.1772 C44.6969697,154.1772 44.3939394,154.3288 43.9393939,154.1772 L43.6363636,154.1772 L43.7878788,154.4804 L43.7878788,154.7836 C43.9393939,155.5416 43.7878788,156.148 43.4848485,156.906 L43.3333333,157.2092 L43.6363636,157.2092 C44.6969697,157.3608 45.1515152,157.5124 45.9090909,158.2704 L46.0606061,158.5736 L46.2121212,158.2704 C46.5151515,157.3608 46.969697,156.906 47.8787879,156.4512 L48.1818182,156.2996 L47.7272727,155.9964 L47.7272727,155.9964 Z M55.7575758,258.7812 C56.0606061,259.994 55.1515152,261.0552 54.3939394,261.2068 L51.969697,262.268 L51.0606061,264.8452 C50.9090909,265.4516 50.3030303,266.058 49.3939394,266.3612 C48.4848485,266.5128 47.7272727,266.058 47.2727273,265.6032 L45.4545455,263.6324 L42.7272727,263.4808 C41.969697,263.4808 40.7575758,262.8744 40.6060606,261.6616 C40.4545455,261.0552 40.6060606,260.4488 40.9090909,259.994 L42.2727273,257.5684 L41.5151515,254.8396 L41.5151515,254.688 C41.5151515,254.2332 41.5151515,253.6268 41.8181818,253.172 C42.1212121,252.5656 42.7272727,252.2624 43.3333333,252.1108 C43.7878788,251.9592 44.0909091,252.1108 44.3939394,252.1108 L46.969697,252.7172 L49.2424242,251.2012 C49.3939394,251.0496 49.8484848,250.898 50.1515152,250.898 C50.6060606,250.7464 51.3636364,250.898 51.969697,251.3528 C52.4242424,251.8076 52.7272727,252.2624 52.7272727,252.7172 L52.7272727,253.0204 L53.030303,255.7492 L55.1515152,257.4168 C55.3030303,257.72 55.6060606,258.1748 55.7575758,258.7812 L55.7575758,258.7812 Z M50.1515152,258.6296 C49.3939394,258.0232 49.2424242,257.5684 48.9393939,256.8104 C48.9393939,256.8104 48.9393939,256.8104 48.9393939,256.6588 L48.9393939,256.6588 L48.9393939,256.6588 L48.9393939,256.204 L48.6363636,256.3556 C48.1818182,256.6588 47.8787879,256.8104 47.4242424,256.8104 C46.969697,256.8104 46.6666667,256.962 46.2121212,256.8104 L45.9090909,256.6588 L46.0606061,256.962 L46.0606061,257.2652 C46.2121212,258.0232 46.0606061,258.6296 45.7575758,259.3876 L45.6060606,259.6908 L45.9090909,259.6908 C46.8181818,259.8424 47.4242424,259.994 48.1818182,260.752 L48.3333333,261.0552 L48.4848485,260.752 C48.9393939,259.8424 49.2424242,259.3876 50.1515152,258.9328 L50.4545455,258.7812 L50.1515152,258.6296 L50.1515152,258.6296 Z M78.4848485,264.3904 C78.7878788,265.6032 77.8787879,266.6644 77.1212121,266.816 L74.6969697,267.8772 L73.7878788,270.4544 C73.6363636,271.0608 73.030303,271.6672 72.1212121,271.9704 C71.2121212,272.122 70.4545455,271.6672 70,271.2124 L68.1818182,269.2416 L65.4545455,269.09 C64.6969697,269.09 63.4848485,268.4836 63.3333333,267.2708 C63.1818182,266.6644 63.3333333,266.058 63.6363636,265.7548 L65,263.3292 L64.2424242,260.6004 L64.2424242,260.4488 C64.2424242,259.994 64.2424242,259.3876 64.5454545,258.9328 C64.8484848,258.3264 65.4545455,258.0232 66.0606061,257.8716 L67.1212121,257.8716 L69.6969697,258.478 L71.969697,256.962 C72.1212121,256.8104 72.5757576,256.6588 72.8787879,256.6588 C73.4848485,256.5072 74.0909091,256.6588 74.6969697,257.1136 C75.1515152,257.5684 75.4545455,258.0232 75.4545455,258.478 L75.4545455,258.7812 L75.7575758,261.51 L77.8787879,263.1776 C78.030303,263.3292 78.3333333,263.784 78.4848485,264.3904 L78.4848485,264.3904 Z M72.8787879,264.2388 C72.1212121,263.6324 71.969697,263.1776 71.6666667,262.268 C71.6666667,262.268 71.6666667,262.268 71.6666667,262.1164 L71.6666667,262.1164 L71.6666667,262.1164 L71.6666667,261.6616 L71.3636364,261.8132 C70.9090909,262.1164 70.6060606,262.268 70.1515152,262.268 C69.6969697,262.268 69.3939394,262.4196 68.9393939,262.268 L68.6363636,262.1164 L68.7878788,262.4196 L68.7878788,262.7228 C68.9393939,263.4808 68.7878788,264.0872 68.4848485,264.8452 L68.3333333,265.1484 L68.6363636,265.1484 C69.5454545,265.3 70.1515152,265.4516 70.9090909,266.2096 L71.0606061,266.5128 L71.2121212,266.2096 C71.6666667,265.3 71.969697,264.8452 72.8787879,264.3904 L73.1818182,264.2388 L72.8787879,264.2388 L72.8787879,264.2388 Z M47.1212121,292.8912 C56.2121212,295.9232 73.9393939,301.5324 92.5757576,305.9288 L88.4848485,287.282 L87.1212121,286.9788 C74.2424242,284.4016 59.5454545,280.7632 43.4848485,276.0636 L41.5151515,275.4572 L45.1515152,292.2848 L47.1212121,292.8912 L47.1212121,292.8912 Z M35.3030303,238.4668 C44.3939394,241.4988 62.1212121,246.9564 80.7575758,251.5044 L75.3030303,226.642 L73.9393939,226.3388 C61.0606061,223.7616 46.3636364,220.1232 30.3030303,215.4236 L28.3333333,214.8172 L33.3333333,238.012 L35.3030303,238.4668 L35.3030303,238.4668 Z M53.3333333,329.8816 L55.3030303,330.488 C71.3636364,335.1876 86.0606061,338.9776 98.9393939,341.4032 L100.30303,341.7064 L102.575758,352.0152 C105.151515,363.6884 97.7272727,375.3616 85.9090909,377.7872 C74.2424242,380.3644 62.5757576,372.936 60.1515152,361.1112 L53.3333333,329.8816 L53.3333333,329.8816 Z M73.7878788,347.7704 C72.4242424,346.406 70.9090909,345.7996 70.3030303,346.406 C69.6969697,347.0124 70.3030303,348.5284 71.6666667,350.0444 C73.030303,351.4088 74.5454545,352.0152 75.1515152,351.4088 C75.7575758,350.8024 75.1515152,349.1348 73.7878788,347.7704 L73.7878788,347.7704 Z M80.6060606,343.6772 C79.8484848,343.5256 78.7878788,344.89 78.4848485,346.8608 C78.1818182,348.68 78.4848485,350.3476 79.3939394,350.4992 C80.3030303,350.6508 81.2121212,349.2864 81.5151515,347.3156 C81.8181818,345.3448 81.3636364,343.6772 80.6060606,343.6772 L80.6060606,343.6772 Z M89.2424242,349.438 C88.9393939,348.68 87.1212121,348.68 85.4545455,349.438 C83.6363636,350.196 82.5757576,351.5604 83.030303,352.3184 C83.3333333,353.0764 85.1515152,353.0764 86.8181818,352.1668 C88.4848485,351.5604 89.5454545,350.3476 89.2424242,349.438 L89.2424242,349.438 Z M86.3636364,360.05 C88.1818182,360.5048 89.8484848,360.2016 90.1515152,359.4436 C90.3030303,358.6856 88.9393939,357.6244 87.1212121,357.018 C85.3030303,356.5632 83.6363636,356.8664 83.3333333,357.6244 C83.030303,358.534 84.3939394,359.5952 86.3636364,360.05 L86.3636364,360.05 Z M82.7272727,367.0236 C83.4848485,366.7204 83.6363636,365.0528 83.030303,363.2336 C82.4242424,361.4144 81.2121212,360.2016 80.4545455,360.5048 C79.6969697,360.808 79.5454545,362.4756 80.1515152,364.2948 C80.7575758,365.9624 81.969697,367.1752 82.7272727,367.0236 L82.7272727,367.0236 Z M76.0606061,357.4728 C76.2121212,357.3212 76.3636364,357.1696 76.3636364,356.8664 L77.8787879,356.1084 C78.030303,356.26 78.1818182,356.26 78.3333333,356.26 L78.6363636,358.0792 C78.4848485,358.2308 78.3333333,358.3824 78.3333333,358.6856 C78.3333333,358.9888 78.6363636,359.1404 78.7878788,359.1404 L78.9393939,359.7468 C78.6363636,359.8984 78.4848485,360.2016 78.4848485,360.5048 C78.6363636,360.808 78.9393939,361.1112 79.2424242,360.9596 C79.5454545,360.9596 79.8484848,360.5048 79.6969697,360.2016 C79.6969697,359.8984 79.3939394,359.5952 79.0909091,359.7468 L78.9393939,359.1404 C79.0909091,358.9888 79.2424242,358.8372 79.2424242,358.534 C79.2424242,358.2308 78.9393939,358.0792 78.7878788,358.0792 L78.4848485,356.26 C78.6363636,356.26 78.6363636,356.1084 78.6363636,356.1084 L79.6969697,356.4116 L79.6969697,356.5632 C79.8484848,356.7148 80,356.7148 80.3030303,356.7148 C80.3030303,356.7148 80.4545455,356.7148 80.4545455,356.5632 L80.9090909,356.7148 L80.9090909,357.018 C81.0606061,357.3212 81.5151515,357.4728 81.8181818,357.3212 C82.1212121,357.1696 82.2727273,356.7148 81.969697,356.4116 C81.8181818,356.1084 81.3636364,355.9568 81.0606061,356.1084 C80.9090909,356.26 80.7575758,356.26 80.7575758,356.4116 L80.4545455,356.26 L80.4545455,355.9568 C80.3030303,355.8052 80.1515152,355.8052 79.8484848,355.8052 L79.6969697,355.9568 L78.6363636,355.6536 L78.6363636,355.502 L80.6060606,354.4408 C80.7575758,354.5924 80.9090909,354.5924 81.0606061,354.5924 C81.2121212,354.4408 81.3636364,354.2892 81.2121212,354.1376 L81.8181818,353.8344 C81.969697,354.1376 82.4242424,354.1376 82.7272727,353.986 C83.030303,353.8344 83.1818182,353.3796 83.030303,353.0764 C82.8787879,352.7732 82.4242424,352.6216 82.1212121,352.7732 C81.8181818,352.9248 81.6666667,353.228 81.8181818,353.6828 L81.2121212,353.986 C81.0606061,353.8344 80.9090909,353.8344 80.6060606,353.8344 C80.4545455,353.986 80.3030303,354.1376 80.4545455,354.2892 L78.4848485,355.3504 C78.3333333,355.1988 78.3333333,355.1988 78.1818182,355.1988 L77.8787879,353.6828 C78.030303,353.6828 78.1818182,353.3796 78.1818182,353.228 C78.1818182,353.0764 78.030303,352.9248 77.8787879,352.9248 L77.7272727,352.1668 C78.030303,352.0152 78.1818182,351.712 78.1818182,351.4088 C78.030303,351.1056 77.7272727,350.8024 77.4242424,350.954 C77.1212121,350.954 76.8181818,351.4088 76.969697,351.712 C76.969697,352.0152 77.2727273,352.3184 77.5757576,352.1668 L77.7272727,352.9248 C77.5757576,352.9248 77.4242424,353.228 77.4242424,353.3796 C77.4242424,353.5312 77.5757576,353.6828 77.8787879,353.6828 L78.1818182,355.0472 L78.030303,355.0472 C77.8787879,355.0472 77.8787879,355.1988 77.8787879,355.3504 L77.1212121,355.1988 L77.1212121,354.8956 C76.969697,354.744 76.8181818,354.5924 76.5151515,354.744 L76.3636364,354.8956 L75.7575758,354.744 C75.7575758,354.5924 75.7575758,354.4408 75.6060606,354.2892 C75.4545455,353.986 75,353.8344 74.6969697,354.1376 C74.3939394,354.2892 74.2424242,354.744 74.3939394,355.0472 C74.5454545,355.3504 75,355.502 75.3030303,355.3504 C75.4545455,355.3504 75.4545455,355.1988 75.6060606,355.0472 L76.2121212,355.1988 L76.2121212,355.3504 C76.3636364,355.502 76.6666667,355.502 76.8181818,355.502 C76.8181818,355.502 76.969697,355.502 76.969697,355.3504 L77.7272727,355.502 L77.7272727,355.6536 L76.2121212,356.4116 C76.0606061,356.26 75.9090909,356.1084 75.6060606,356.26 C75.4545455,356.4116 75.3030303,356.5632 75.4545455,356.8664 L74.8484848,357.1696 C74.6969697,356.8664 74.2424242,356.8664 73.9393939,357.018 C73.6363636,357.1696 73.4848485,357.6244 73.6363636,357.9276 C73.7878788,358.2308 74.2424242,358.3824 74.5454545,358.2308 C74.8484848,358.0792 75,357.776 74.8484848,357.4728 L75.4545455,357.1696 C75.6060606,357.4728 75.9090909,357.4728 76.0606061,357.4728 L76.0606061,357.4728 Z M72.1212121,366.2656 C72.8787879,366.7204 74.2424242,365.6592 75.1515152,363.9916 C76.0606061,362.324 76.2121212,360.6564 75.4545455,360.2016 C74.6969697,359.7468 73.3333333,360.808 72.4242424,362.4756 C71.5151515,364.1432 71.3636364,365.9624 72.1212121,366.2656 L72.1212121,366.2656 Z M70.1515152,357.776 C71.969697,357.3212 73.3333333,356.4116 73.1818182,355.502 C73.030303,354.744 71.3636364,354.2892 69.3939394,354.744 C67.5757576,355.1988 66.2121212,356.1084 66.3636364,357.018 C66.6666667,357.776 68.3333333,358.0792 70.1515152,357.776 L70.1515152,357.776 Z M22.1212121,177.6752 C31.2121212,180.7072 48.9393939,186.3164 67.5757576,190.7128 L64.2424242,175.2496 L63.030303,175.098 C58.030303,174.34 51.969697,173.1272 44.8484848,171.4596 C36.8181818,169.4888 27.5757576,167.0632 17.4242424,164.1828 L20.3030303,177.2204 L22.1212121,177.6752 L22.1212121,177.6752 Z M20,21.8304 L48.030303,48.8152 L50.7575758,50.786 C51.5151515,50.3312 58.9393939,46.6928 59.8484848,46.3896 C55.6060606,39.2644 48.1818182,25.1656 42.7272727,6.822 L42.5757576,6.5188 C35.3030303,9.5508 25.9090909,16.5244 20,21.8304 L20,21.8304 Z M81.8181818,45.0252 L81.6666667,45.7832 C83.4848485,46.3896 85.1515152,47.2992 86.8181818,48.3604 C89.2424242,49.8764 91.2121212,51.6956 93.030303,53.818 C95.1515152,45.48 98.6363636,39.7192 101.969697,34.2616 L102.272727,33.6552 C104.242424,30.32 111.060606,19.2532 115.151515,15.3116 C113.636364,14.0988 111.969697,12.886 110.30303,11.8248 C104.242424,7.8832 97.7272727,5.0028 90.7575758,3.1836 C88.030303,18.0404 85.1515152,31.6844 81.8181818,45.0252 L81.8181818,45.0252 Z M150.30303,99.7528 C140.454545,106.878 130.30303,114.6096 120.30303,122.796 C124.393939,124.6152 128.939394,125.07 133.484848,124.1604 C144.69697,121.7348 151.969697,110.9712 150.30303,99.7528 L150.30303,99.7528 Z M102.878788,85.1992 L105.30303,96.4176 C121.060606,83.6832 134.242424,74.4356 142.424242,68.8264 L143.484848,68.0684 L141.060606,56.092 C140,50.9376 138.181818,46.0864 136.060606,41.3868 C135,42.5996 133.333333,44.722 131.515152,46.8444 C129.69697,48.9668 127.727273,51.544 125.757576,53.818 C124.545455,55.6372 115.151515,69.8876 104.545455,83.0768 L102.878788,85.1992 L102.878788,85.1992 Z M36.2121212,134.7724 C43.3333333,136.7432 50.6060606,138.5624 56.6666667,139.9268 L51.8181818,117.49 L51.2121212,117.49 C49.5454545,117.49 47.8787879,117.3384 46.2121212,116.8836 C36.0606061,114.0032 23.030303,109.4552 6.36363636,103.2396 L4.09090909,102.33 L9.39393939,127.0408 L11.2121212,127.6472 C16.0606061,128.86 25.6060606,131.892 36.2121212,134.7724 L36.2121212,134.7724 Z M22.7272727,79.1352 C30.6060606,82.0156 38.7878788,85.5024 45,87.6248 L43.4848485,78.9836 L40.6060606,76.8612 C24.5454545,64.43 8.03030303,50.028 3.93939394,46.3896 C1.66666667,52.302 0.909090909,66.704 0.151515152,72.9196 L22.7272727,79.1352 L22.7272727,79.1352 Z M76.2121212,6.5188 L76.2121212,6.5188 C76.2121212,6.5188 66.3636364,-4.2448 63.1818182,1.9708 C63.1818182,1.9708 62.4242424,4.3964 65.7575758,5.6092 C62.5757576,6.2156 63.6363636,8.7928 63.6363636,8.7928 C67.7272727,15.7664 76.2121212,6.3672 76.2121212,6.5188 L76.2121212,6.5188 Z M63.3333333,16.9792 C63.3333333,16.9792 62.5757576,19.4048 65.9090909,20.6176 C62.8787879,21.3756 63.7878788,23.9528 63.7878788,23.8012 C67.8787879,30.7748 76.3636364,21.3756 76.3636364,21.5272 L76.3636364,21.3756 C76.2121212,21.6788 66.5151515,10.7636 63.3333333,16.9792 L63.3333333,16.9792 Z M63.3333333,40.4772 C67.4242424,47.4508 75.9090909,38.0516 75.9090909,38.2032 C75.9090909,38.2032 75.9090909,38.2032 75.9090909,38.0516 C75.9090909,38.2032 66.0606061,27.288 62.8787879,33.5036 C62.8787879,33.5036 62.1212121,35.9292 65.4545455,37.142 C62.2727273,37.9 63.1818182,40.4772 63.3333333,40.4772 L63.3333333,40.4772 Z M56.0606061,307.8996 C49.2424242,309.7188 57.7272727,321.5436 57.5757576,321.6952 L57.7272727,321.6952 C57.5757576,321.5436 68.7878788,315.6312 62.8787879,310.022 C62.8787879,310.022 60.6060606,308.506 59.2424242,311.3864 C58.4848485,307.748 56.0606061,307.8996 56.0606061,307.8996 L56.0606061,307.8996 Z M70.6060606,311.3864 C63.7878788,313.2056 72.2727273,325.0304 72.1212121,325.0304 L72.2727273,325.0304 C72.1212121,324.8788 83.3333333,318.8148 77.4242424,313.2056 C77.4242424,313.2056 75.1515152,311.6896 73.7878788,314.57 C73.1818182,311.2348 70.6060606,311.3864 70.6060606,311.3864 L70.6060606,311.3864 Z M93.4848485,316.6924 C93.4848485,316.6924 91.2121212,315.1764 89.8484848,318.0568 C89.2424242,314.57 86.8181818,314.7216 86.8181818,314.7216 C80,316.3892 88.3333333,328.3656 88.1818182,328.5172 L88.3333333,328.5172 C88.3333333,328.3656 99.3939394,322.3016 93.4848485,316.6924 L93.4848485,316.6924 Z" id="Shape" sketch:type="MSShapeGroup"></path>
        </g>
    </g>
</svg>