<?xml version="1.0" encoding="UTF-8" standalone="no"?>
<svg width="151px" height="270px" viewBox="0 0 151 270" version="1.1" xmlns="http://www.w3.org/2000/svg" xmlns:xlink="http://www.w3.org/1999/xlink" xmlns:sketch="http://www.bohemiancoding.com/sketch/ns">
    <!-- Generator: Sketch 3.1.1 (8761) - http://www.bohemiancoding.com/sketch -->
    <title>Occasion_bunny</title>
    <desc>Created with Sketch.</desc>
    <defs></defs>
    <g id="Page-1" stroke="none" stroke-width="1" fill="none" fill-rule="evenodd" sketch:type="MSPage">
        <g id="Occasion_bunny" sketch:type="MSLayerGroup" transform="translate(1.000000, 1.000000)" fill="#231F20">
            <g id="Group" sketch:type="MSShapeGroup">
                <path d="M130.452128,229.050298 C134.042553,221.284524 135.797872,212.157738 135.797872,201.910119 C135.797872,188.540179 132.68617,173.729167 127.021277,160.119048 C122.074468,148.270238 115.452128,137.94256 107.792553,129.936607 C115.851064,120.809821 120.398936,108.880952 120.398936,96.5517857 C120.398936,85.6636905 116.968085,75.2559524 110.585106,66.6095238 C115.691489,62.366369 120.159574,56.7622024 123.510638,50.277381 C127.340426,42.8318452 129.414894,34.7458333 129.414894,27.3002976 C129.414894,25.7791667 129.335106,24.2580357 129.175532,22.8169643 C128.058511,13.289881 123.590426,6.00446429 116.489362,2.32172619 C109.388298,-1.3610119 100.851064,-0.800595238 92.4734043,3.84285714 C84.8138298,8.0860119 78.0319149,15.3714286 73.4042553,24.4181548 C72.1276596,26.9 71.0904255,29.4619048 70.212766,31.94375 C69.3351064,29.3818452 68.2978723,26.9 67.0212766,24.4181548 C61.1968085,13.0497024 51.8617021,4.40327381 42.0478723,1.28095238 C35.5851064,-0.800595238 29.2819149,-0.400297619 23.9361702,2.40178571 C18.5904255,5.20386905 14.6808511,10.0875 12.606383,16.4922619 C11.5691489,19.8547619 11.0106383,23.4574405 11.0106383,27.3002976 C11.0106383,34.7458333 13.0053191,42.8318452 16.8351064,50.3574405 C20.2659574,56.8422619 24.7340426,62.4464286 29.8404255,66.6895833 C23.4574468,75.3360119 20.0265957,85.74375 20.0265957,96.6318452 C20.0265957,109.36131 24.8138298,121.450298 33.2712766,130.737202 C25.5319149,138.743155 18.8297872,148.990774 13.7234043,160.599405 C7.7393617,174.289583 4.54787234,188.620238 4.54787234,201.910119 C4.54787234,213.43869 6.94148936,223.52619 11.7287234,231.93244 C4.06914894,235.775298 -0.319148936,241.459524 -0.319148936,247.704167 C-0.319148936,254.188988 4.14893617,259.873214 12.287234,263.796131 C19.0691489,267.078571 28.0053191,268.91994 37.4202128,268.91994 C48.5904255,268.91994 63.8297872,266.518155 73.4042553,261.314286 C83.9361702,267.879167 101.648936,268.91994 111.861702,268.91994 C121.276596,268.91994 130.212766,267.078571 136.994681,263.796131 C145.132979,259.873214 149.601064,254.188988 149.601064,247.704167 C149.840426,239.538095 142.420213,232.652976 130.452128,229.050298 L130.452128,229.050298 Z M112.021277,263.155655 C97.9787234,263.155655 81.2234043,260.994048 74.0425532,254.509226 L73.5638298,254.509226 C66.462766,259.793155 50.8244681,263.155655 37.5797872,263.155655 C19.8670213,263.155655 5.50531915,256.270536 5.50531915,247.704167 C5.50531915,242.18006 11.4893617,237.376488 20.4255319,234.654464 C14.0425532,226.568452 10.2925532,215.760417 10.2925532,201.910119 C10.2925532,176.371131 22.9787234,147.069345 41.4893617,130.737202 C31.8351064,122.571131 25.6914894,110.322024 25.6914894,96.6318452 C25.6914894,84.5428571 30.4787234,73.6547619 38.2180851,65.56875 C31.9946809,61.9660714 26.1702128,55.7214286 22.0212766,47.7154762 C13.4840426,31.2232143 15.5585106,13.1297619 26.5691489,7.44553571 C37.5797872,1.76130952 53.4574468,10.5678571 61.9148936,27.060119 C66.3031915,35.6264881 67.8989362,44.5931548 66.8617021,52.11875 C67.9787234,52.0386905 69.0957447,51.958631 70.212766,51.958631 C71.3297872,51.958631 72.4468085,52.0386905 73.5638298,52.11875 C72.5265957,44.6732143 74.0425532,35.7065476 78.5106383,27.060119 C86.9680851,10.4877976 102.845745,1.76130952 113.856383,7.44553571 C124.867021,13.1297619 126.941489,31.1431548 118.484043,47.7154762 C114.335106,55.8014881 108.510638,61.9660714 102.287234,65.56875 C110.026596,73.5747024 114.81383,84.5428571 114.81383,96.6318452 C114.81383,109.921726 108.989362,121.930655 99.7340426,130.096726 C118.005319,146.26875 130.212766,176.130952 130.212766,201.910119 C130.212766,214.799702 127.180851,225.127381 121.835106,232.973214 C134.840426,234.974702 144.255319,240.819048 144.255319,247.704167 C144.095745,256.270536 129.734043,263.155655 112.021277,263.155655 L112.021277,263.155655 Z" id="Shape"></path>
                <path id="Shape" d="M71.9680851,52.0386905 L71.9680851,52.11875 C72.2074468,52.11875 72.4468085,52.11875 72.7659574,52.0386905 L71.9680851,52.0386905 L71.9680851,52.0386905 Z"></path>
                <path id="Shape" d="M75.6382979,106.639286 C75.6382979,106.639286 75.6382979,106.559226 75.6382979,106.639286 C75.6382979,106.559226 75.5585106,106.639286 75.5585106,106.639286 C75.5585106,106.559226 75.6382979,106.639286 75.6382979,106.639286 L75.6382979,106.639286 Z"></path>
                <path d="M70.9308511,110.402083 L70.9308511,113.284226 C70.9308511,116.966964 67.8989362,120.009226 64.0691489,120.009226 C60.3989362,120.009226 57.3670213,116.966964 57.3670213,113.284226 L55.9308511,113.284226 C55.9308511,117.76756 59.6010638,121.450298 64.0691489,121.450298 C67.4202128,121.450298 70.2925532,119.44881 71.5691489,116.566667 C72.8457447,119.44881 75.7180851,121.450298 79.0691489,121.450298 C83.537234,121.450298 87.2074468,117.76756 87.2074468,113.284226 L85.7712766,113.284226 C85.7712766,116.966964 82.7393617,120.009226 79.0691489,120.009226 C75.3191489,120.009226 72.2074468,116.966964 72.2074468,113.284226 L72.2074468,110.482143 C72.0478723,110.482143 71.8085106,110.562202 71.6489362,110.562202 C71.4893617,110.482143 71.25,110.482143 70.9308511,110.402083 L70.9308511,110.402083 Z" id="Shape"></path>
                <ellipse id="Oval" transform="translate(42.499157, 39.261263) rotate(63.007051) translate(-42.499157, -39.261263) " cx="42.4991569" cy="39.2612625" rx="19.4689068" ry="8.40660482"></ellipse>
                <ellipse id="Oval" cx="70.8510638" cy="188.940476" rx="24.5744681" ry="36.0267857"></ellipse>
                <path d="M84.1755319,93.5895833 C86.5691489,93.5895833 88.4840426,91.6681548 88.4840426,89.266369 C88.4840426,86.8645833 86.5691489,84.9431548 84.1755319,84.9431548 C81.7819149,84.9431548 79.8670213,86.8645833 79.8670213,89.266369 C79.9468085,91.6681548 81.8617021,93.5895833 84.1755319,93.5895833 L84.1755319,93.5895833 Z M83.0585106,87.3449405 C83.4574468,87.3449405 83.7765957,87.6651786 83.7765957,88.0654762 C83.7765957,88.4657738 83.4574468,88.7860119 83.0585106,88.7860119 C82.6595745,88.7860119 82.3404255,88.4657738 82.3404255,88.0654762 C82.3404255,87.6651786 82.6595745,87.3449405 83.0585106,87.3449405 L83.0585106,87.3449405 Z" id="Shape"></path>
                <path d="M68.9361702,104.077381 C67.3404255,103.356845 65.4255319,101.515476 64.2287234,99.4339286 L64.2287234,99.4339286 C64.1489362,99.19375 63.9095745,99.033631 63.5904255,99.033631 C63.1914894,99.033631 62.8723404,99.353869 62.8723404,99.7541667 C62.8723404,99.9142857 62.8723404,99.9943452 62.9521277,100.074405 L62.9521277,100.074405 C63.9095745,101.835714 65.7446809,103.997321 67.7393617,105.038095 C67.8989362,105.038095 68.0585106,105.118155 68.2180851,105.118155 C68.3776596,104.797917 68.6170213,104.477679 68.9361702,104.077381 L68.9361702,104.077381 Z" id="Shape"></path>
                <path d="M60,100.634821 C59.7606383,100.394643 59.6808511,100.234524 59.3617021,100.234524 C58.962766,100.234524 58.643617,100.554762 58.643617,100.95506 C58.643617,101.195238 58.962766,101.515476 58.962766,101.515476 C61.7553191,104.2375 63.75,105.91875 67.5797872,106.559226 C67.7393617,106.479167 67.8191489,106.479167 67.9787234,106.399107 C67.9787234,105.99881 68.0585106,105.678571 68.2180851,105.278274 C68.0585106,105.198214 67.8989362,105.118155 67.7393617,105.038095 C64.787234,104.637798 62.3138298,103.276786 60,100.634821 L60,100.634821 Z" id="Shape"></path>
                <path id="Shape" d="M68.4574468,105.278274 L68.2180851,105.278274 C68.2180851,105.358333 68.2180851,105.358333 68.1382979,105.438393 C68.2180851,105.518452 68.2978723,105.518452 68.3776596,105.518452 L68.4574468,105.278274 L68.4574468,105.278274 Z"></path>
                <path d="M67.5797872,106.559226 C64.787234,107.439881 60.7978723,106.559226 58.0851064,103.917262 C57.7659574,103.597024 57.5265957,103.356845 57.2074468,103.356845 C56.8085106,103.356845 56.4095745,103.677083 56.4095745,104.15744 C56.4095745,104.397619 56.5691489,104.557738 56.7287234,104.797917 C59.6010638,107.840179 64.787234,109.041071 68.1382979,107.920238 C67.9787234,107.51994 67.8989362,107.119643 67.8989362,106.639286 C67.8191489,106.639286 67.7393617,106.639286 67.5797872,106.559226 L67.5797872,106.559226 Z" id="Shape"></path>
                <path id="Shape" d="M67.9787234,106.639286 C68.0585106,106.639286 68.2180851,106.639286 68.2978723,106.719345 L68.2978723,106.479167 L68.2180851,106.319048 C68.1382979,106.399107 68.0585106,106.399107 67.8989362,106.479167 C67.9787234,106.479167 67.9787234,106.559226 67.9787234,106.639286 L67.9787234,106.639286 L67.9787234,106.639286 Z"></path>
                <path d="M75.3989362,105.118155 C77.393617,104.077381 79.1489362,101.915774 80.1861702,100.154464 L80.1861702,100.154464 C80.2659574,100.074405 80.2659574,99.9142857 80.2659574,99.8342262 C80.2659574,99.4339286 79.9468085,99.1136905 79.5478723,99.1136905 C79.3085106,99.1136905 79.0691489,99.2738095 78.9095745,99.5139881 L78.9095745,99.5139881 C77.8723404,101.435417 76.1170213,103.196726 74.6010638,103.997321 C74.9202128,104.31756 75.1595745,104.717857 75.3989362,105.118155 L75.3989362,105.118155 L75.3989362,105.118155 Z" id="Shape"></path>
                <path d="M75.6382979,106.559226 C79.3882979,105.91875 81.462766,104.31756 84.1755319,101.595536 C84.1755319,101.595536 84.4946809,101.275298 84.4946809,101.035119 C84.4946809,100.634821 84.1755319,100.314583 83.7765957,100.314583 C83.537234,100.314583 83.3776596,100.474702 83.1382979,100.714881 C80.8244681,103.356845 78.3510638,104.717857 75.3989362,105.198214 C75.3989362,105.198214 75.3989362,105.198214 75.3191489,105.198214 C75.5585106,105.598512 75.6382979,106.078869 75.6382979,106.559226 L75.6382979,106.559226 Z" id="Shape"></path>
                <path id="Shape" d="M75.3989362,105.118155 C75.1595745,105.198214 74.9202128,105.198214 74.6808511,105.198214 L74.6808511,105.438393 C74.9202128,105.358333 75.1595745,105.278274 75.3989362,105.118155 L75.3989362,105.118155 L75.3989362,105.118155 Z"></path>
                <path d="M75.3989362,108.000298 C78.75,108.880952 83.6968085,107.68006 86.4095745,104.797917 C86.6489362,104.557738 86.7287234,104.397619 86.7287234,104.15744 C86.7287234,103.757143 86.4095745,103.356845 85.9308511,103.356845 C85.6117021,103.356845 85.3723404,103.516964 85.0531915,103.917262 C82.3404255,106.559226 78.4308511,107.51994 75.6382979,106.639286 L75.6382979,106.639286 C75.6382979,107.119643 75.5585106,107.6 75.3989362,108.000298 L75.3989362,108.000298 Z" id="Shape"></path>
                <path id="Shape" d="M75.5585106,106.559226 C75.3191489,106.479167 75.0797872,106.399107 74.9202128,106.319048 L74.8404255,106.479167 L74.8404255,106.719345 C75.0797872,106.639286 75.3191489,106.639286 75.5585106,106.559226 L75.5585106,106.559226 Z"></path>
                <ellipse id="Oval" transform="translate(97.635008, 39.035030) rotate(-63.007051) translate(-97.635008, -39.035030) " cx="97.635008" cy="39.0350303" rx="19.4689068" ry="8.40660482"></ellipse>
                <path d="M78.9095745,127.69494 C76.7553191,128.175298 74.6010638,129.296131 73.1648936,130.737202 C72.5265957,129.53631 71.5691489,128.815774 70.5319149,128.815774 C69.4946809,128.815774 68.6170213,129.53631 67.8989362,130.657143 C66.3829787,129.136012 64.2287234,128.015179 62.0744681,127.534821 C57.1276596,126.413988 56.1702128,142.185714 62.0744681,141.30506 C64.0691489,140.984821 66.3829787,140.024107 67.8989362,138.583036 C68.537234,139.62381 69.4148936,140.344345 70.4521277,140.344345 C71.4095745,140.344345 72.287234,139.703869 72.9255319,138.743155 C74.5212766,140.184226 76.8351064,141.225 78.8297872,141.545238 C84.893617,142.345833 83.9361702,126.654167 78.9095745,127.69494 L78.9095745,127.69494 Z" id="Shape"></path>
                <path d="M56.4095745,93.5895833 C58.8031915,93.5895833 60.7180851,91.6681548 60.7180851,89.266369 C60.7180851,86.8645833 58.8031915,84.9431548 56.4095745,84.9431548 C54.0159574,84.9431548 52.1010638,86.8645833 52.1010638,89.266369 C52.1010638,91.6681548 54.0159574,93.5895833 56.4095745,93.5895833 L56.4095745,93.5895833 Z M55.212766,87.3449405 C55.6117021,87.3449405 55.9308511,87.6651786 55.9308511,88.0654762 C55.9308511,88.4657738 55.6117021,88.7860119 55.212766,88.7860119 C54.8138298,88.7860119 54.4946809,88.4657738 54.4946809,88.0654762 C54.4946809,87.6651786 54.8138298,87.3449405 55.212766,87.3449405 L55.212766,87.3449405 Z" id="Shape"></path>
                <ellipse id="Oval" cx="71.9680851" cy="106.639286" rx="4.14893617" ry="4.16309524"></ellipse>
            </g>
        </g>
    </g>
</svg>