<?xml version="1.0" encoding="UTF-8" standalone="no"?>
<svg width="255px" height="322px" viewBox="0 0 255 322" version="1.1" xmlns="http://www.w3.org/2000/svg" xmlns:xlink="http://www.w3.org/1999/xlink" xmlns:sketch="http://www.bohemiancoding.com/sketch/ns">
    <!-- Generator: Sketch 3.1.1 (8761) - http://www.bohemiancoding.com/sketch -->
    <title>Occasion_egg</title>
    <desc>Created with Sketch.</desc>
    <defs></defs>
    <g id="Page-1" stroke="none" stroke-width="1" fill="none" fill-rule="evenodd" sketch:type="MSPage">
        <g id="Occasion_egg" sketch:type="MSLayerGroup" transform="translate(1.000000, 0.000000)" fill="#231F20">
            <g id="Group" sketch:type="MSShapeGroup">
                <path d="M191.2,219 C180.2,219 171.3,227.9 171.3,238.9 C171.3,249.9 180.2,258.8 191.2,258.8 C202.2,258.8 211.1,249.9 211.1,238.9 C211.2,227.9 202.2,219 191.2,219 L191.2,219 Z M191.6,253.9 C183.4,253.9 176.8,247.3 176.8,239 C176.8,230.8 183.5,224.2 191.6,224.2 C199.8,224.2 206.5,230.8 206.5,239 C206.5,247.3 199.8,253.9 191.6,253.9 L191.6,253.9 Z" id="Shape"></path>
                <path d="M126.4,0.1 C61,0.1 -0.4,121.8 -0.4,195.2 C-0.4,265.1 56.5,322 126.4,322 C196.3,322 253.2,265.1 253.2,195.2 C253.1,121.8 191.7,0.1 126.4,0.1 L126.4,0.1 Z M214.5,96 C214.5,96 226.4,111.3 224.1,127.7 C221.7,144.1 206,155.4 206,155.4 C206,155.4 194.1,140.1 196.4,123.7 C198.8,107.3 214.5,96 214.5,96 L214.5,96 Z M197.9,68.4 C197.9,68.4 206.1,76.1 206.3,85.7 C206.4,95.3 198.4,103.2 198.4,103.2 C198.4,103.2 190.2,95.5 190,85.9 C189.9,76.3 197.9,68.4 197.9,68.4 L197.9,68.4 Z M171.1,87.3 C171.1,87.3 183.8,91.7 188.7,102.2 C193.5,112.7 188.6,125.2 188.6,125.2 C188.6,125.2 175.8,120.8 171,110.3 C166.1,99.9 171.1,87.3 171.1,87.3 L171.1,87.3 Z M152.3,143.4 C148.5,139.9 149.6,131 158.8,127.9 C168,125.1 174.2,131.5 173.1,136.6 C175.3,131.8 184,130.3 189.8,137.9 C195.4,145.8 191.1,153.6 186,154.2 C191.1,154.8 195.4,162.7 189.8,170.5 C183.9,178.1 175.2,176.6 173.1,171.8 C174.1,176.9 168,183.3 158.8,180.5 C149.6,177.4 148.5,168.6 152.3,165 C147.7,167.6 139.8,163.7 139.5,154.1 C139.9,144.7 147.8,140.8 152.3,143.4 L152.3,143.4 Z M103,159.1 C103,159.1 127.7,167 137.4,186.9 C147.1,206.8 138.2,231.1 138.2,231.1 C138.2,231.1 113.5,223.2 103.8,203.3 C94.1,183.4 103,159.1 103,159.1 L103,159.1 Z M81.3,199.2 C99.7,206.3 109.8,224.7 109.8,224.7 C109.8,224.7 90,231.5 71.6,224.4 C53.1,217.2 43,198.9 43,198.9 C43,198.9 62.8,192.1 81.3,199.2 L81.3,199.2 Z M88.3,277 C55.4,281.1 25.9,262 25.9,262 C25.9,262 49.8,236.3 82.7,232.1 C115.6,228 145,247.1 145,247.1 C145,247.1 121.2,272.9 88.3,277 L88.3,277 Z M156.8,290.6 C153.8,294.4 149.5,293.7 148.4,291.3 C148.9,293.9 145.9,297.1 141.2,295.7 C136.6,294.1 136,289.7 137.9,287.9 C135.6,289.2 131.6,287.2 131.5,282.4 C131.6,277.6 135.6,275.6 137.9,276.9 C136,275.1 136.5,270.7 141.2,269.1 C145.9,267.7 148.9,270.9 148.4,273.5 C149.5,271.1 153.9,270.3 156.8,274.2 C159.6,278.2 157.4,282.1 154.9,282.4 C157.5,282.7 159.7,286.6 156.8,290.6 L156.8,290.6 Z M227.4,264.4 C217.8,276.8 203.7,274.4 200.2,266.5 C201.9,274.8 192,285.2 177,280.7 C162.1,275.7 160.3,261.3 166.5,255.6 C159.1,259.8 146.2,253.4 145.7,237.8 C146.2,222.2 159,215.8 166.5,220 C160.3,214.3 162.1,199.9 177,194.9 C192,190.4 202,200.8 200.2,209.1 C203.7,201.3 217.9,198.9 227.4,211.2 C236.5,224 229.5,236.7 221.2,237.8 C229.4,238.8 236.5,251.6 227.4,264.4 L227.4,264.4 Z M225.1,189.8 C225.9,193.7 221.3,198.5 214.2,196.4 C207.3,194.1 206.4,187.4 209.3,184.7 C205.8,186.7 199.8,183.7 199.6,176.4 C199.8,169.1 205.8,166.1 209.3,168.1 C206.4,165.4 207.2,158.7 214.2,156.4 C221.2,154.3 225.8,159.1 225.1,163 C226.7,159.4 233.3,158.2 237.8,164 C242,170 238.8,175.9 234.9,176.4 C238.8,176.9 242,182.8 237.8,188.8 C233.3,194.6 226.7,193.4 225.1,189.8 L225.1,189.8 Z" id="Shape"></path>
                <path d="M166.7,171.6 C175.4,171.6 182.5,164.5 182.5,155.8 C182.5,147.1 175.4,140 166.7,140 C158,140 150.9,147.1 150.9,155.8 C150.9,164.5 158,171.6 166.7,171.6 L166.7,171.6 Z M167.6,142.7 C174.4,142.7 179.9,148.2 179.9,155 C179.9,161.8 174.4,167.3 167.6,167.3 C160.8,167.3 155.3,161.8 155.3,155 C155.4,148.2 160.9,142.7 167.6,142.7 L167.6,142.7 Z" id="Shape"></path>
                <path d="M220.4,164.6 C213.7,164.6 208.2,170.1 208.2,176.8 C208.2,183.5 213.7,189 220.4,189 C227.1,189 232.6,183.5 232.6,176.8 C232.6,170 227.1,164.6 220.4,164.6 L220.4,164.6 Z M220.9,186.2 C215.8,186.2 211.6,182 211.6,176.9 C211.6,171.8 215.8,167.6 220.9,167.6 C226,167.6 230.2,171.8 230.2,176.9 C230.2,182.1 226.1,186.2 220.9,186.2 L220.9,186.2 Z" id="Shape"></path>
                <path d="M102.4,241.4 C85.9,243.5 74,256.4 74,256.4 C74,256.4 88.8,266 105.2,263.9 C121.7,261.8 133.6,248.9 133.6,248.9 C133.6,248.9 118.8,239.3 102.4,241.4 L102.4,241.4 Z" id="Shape"></path>
                <path d="M134.3,221.4 C134.3,221.4 138.7,209.5 133.9,199.7 C129.1,189.9 117,186.1 117,186.1 C117,186.1 112.6,198 117.4,207.8 C122.1,217.6 134.3,221.4 134.3,221.4 L134.3,221.4 Z" id="Shape"></path>
                <path d="M218.8,134.2 C220.4,122.9 212.2,112.3 212.2,112.3 C212.2,112.3 201.3,120.1 199.7,131.4 C198.1,142.7 206.3,153.3 206.3,153.3 C206.3,153.3 217.2,145.5 218.8,134.2 L218.8,134.2 Z M203,137.5 C203.9,131.5 209.6,127.4 209.6,127.4 C209.6,127.4 214,133 213.1,139 C212.2,145 206.5,149.1 206.5,149.1 C206.5,149.1 202.2,143.5 203,137.5 L203,137.5 Z" id="Shape"></path>
                <path d="M187.5,122.8 C187.5,122.8 190.7,116 188.3,110 C186,104 179,101.1 179,101.1 C179,101.1 175.8,107.9 178.2,114 C180.5,119.9 187.5,122.8 187.5,122.8 L187.5,122.8 Z" id="Shape"></path>
                <path d="M202.9,88.5 C202.8,82.6 197.8,77.9 197.8,77.9 C197.8,77.9 192.9,82.8 193,88.7 C193.1,94.6 198.1,99.3 198.1,99.3 C198.1,99.3 203,94.4 202.9,88.5 L202.9,88.5 Z" id="Shape"></path>
                <path d="M81.2,222 C91.1,225.8 101.8,222.2 101.8,222.2 C101.8,222.2 96.4,212.3 86.5,208.5 C76.6,204.7 65.9,208.3 65.9,208.3 C65.9,208.3 71.3,218.2 81.2,222 L81.2,222 Z" id="Shape"></path>
            </g>
        </g>
    </g>
</svg>