<?xml version="1.0" encoding="UTF-8" standalone="no"?>
<svg width="150px" height="252px" viewBox="0 0 150 252" version="1.1" xmlns="http://www.w3.org/2000/svg" xmlns:xlink="http://www.w3.org/1999/xlink" xmlns:sketch="http://www.bohemiancoding.com/sketch/ns">
    <!-- Generator: Sketch 3.1.1 (8761) - http://www.bohemiancoding.com/sketch -->
    <title>Occasion_tree</title>
    <desc>Created with Sketch.</desc>
    <defs></defs>
    <g id="Page-1" stroke="none" stroke-width="1" fill="none" fill-rule="evenodd" sketch:type="MSPage">
        <g id="Occasion_tree" sketch:type="MSLayerGroup" fill="#231F20">
            <g id="Group" sketch:type="MSShapeGroup">
                <path d="M90.12,83.178043 C90.6,83.178043 91.02,82.877327 91.02,82.3961814 C91.02,81.975179 90.66,81.6143198 90.18,81.6143198 C89.7,81.6143198 89.28,81.9150358 89.28,82.3360382 C89.28,82.8171838 89.64,83.178043 90.12,83.178043 L90.12,83.178043 Z" id="Shape"></path>
                <path d="M76.2,82.9374702 C76.68,82.9374702 77.1,82.576611 77.1,82.1556086 C77.1,81.7346062 76.74,81.373747 76.26,81.373747 C75.78,81.373747 75.36,81.7346062 75.36,82.1556086 C75.3,82.576611 75.72,82.9374702 76.2,82.9374702 L76.2,82.9374702 Z" id="Shape"></path>
                <path d="M115.8,163.108353 L31.8,160.281623 L11.64,192.037232 L138.36,192.037232 L115.8,163.108353 L115.8,163.108353 Z M27.78,180.970883 L26.94,179.527446 C26.88,179.40716 26.7,179.286874 26.52,179.22673 L24.9,178.865871 C24.78,178.805728 24.72,178.685442 24.84,178.565155 L25.92,177.302148 C26.04,177.181862 26.1,176.941289 26.1,176.821002 L25.98,175.197136 C25.98,175.07685 26.04,174.956563 26.22,175.016706 L27.72,175.678282 C27.84,175.738425 28.08,175.738425 28.2,175.678282 L29.7,175.016706 C29.82,174.956563 29.94,175.016706 29.94,175.197136 L29.82,176.821002 C29.82,176.941289 29.88,177.181862 30,177.302148 L31.08,178.565155 C31.2,178.685442 31.14,178.805728 31.02,178.865871 L29.4,179.22673 C29.28,179.286874 29.04,179.40716 28.98,179.527446 L28.14,180.970883 C27.96,181.091169 27.84,181.091169 27.78,180.970883 L27.78,180.970883 Z M34.92,187.285919 L33.3,187.646778 C33.18,187.706921 33,187.827208 32.88,187.947494 L32.04,189.390931 C31.98,189.511217 31.86,189.511217 31.74,189.390931 L30.9,187.947494 C30.84,187.827208 30.66,187.706921 30.48,187.646778 L28.86,187.285919 C28.74,187.225776 28.68,187.105489 28.8,187.045346 L29.88,185.782339 C30,185.662053 30.06,185.42148 30.06,185.301193 L29.94,183.677327 C29.94,183.557041 30.06,183.436754 30.18,183.496897 L31.68,184.158473 C31.8,184.218616 32.04,184.218616 32.16,184.158473 L33.66,183.496897 C33.78,183.436754 33.9,183.496897 33.9,183.677327 L33.78,185.301193 C33.78,185.481623 33.84,185.662053 33.96,185.782339 L35.04,187.045346 C35.1,187.165632 35.04,187.285919 34.92,187.285919 L34.92,187.285919 Z M37.92,167.198091 L36.3,167.55895 C36.18,167.619093 35.94,167.739379 35.88,167.859666 L35.04,169.303103 C34.98,169.423389 34.86,169.423389 34.74,169.303103 L33.9,167.859666 C33.84,167.739379 33.66,167.619093 33.48,167.55895 L31.86,167.198091 C31.74,167.137947 31.68,167.017661 31.8,166.897375 L32.88,165.634368 C33,165.514081 33.06,165.273508 33.06,165.153222 L32.94,163.529356 C32.94,163.409069 33,163.288783 33.18,163.348926 L34.68,164.010501 C34.8,164.070644 35.04,164.070644 35.16,164.010501 L36.66,163.348926 C36.78,163.288783 36.9,163.348926 36.9,163.529356 L36.78,165.153222 C36.78,165.273508 36.84,165.514081 36.96,165.634368 L38.04,166.897375 C38.16,167.077804 38.1,167.198091 37.92,167.198091 L37.92,167.198091 Z M43.8,179.828162 L42.96,181.271599 C42.9,181.391885 42.78,181.391885 42.66,181.271599 L41.82,179.828162 C41.76,179.707876 41.58,179.587589 41.4,179.527446 L39.78,179.166587 C39.66,179.106444 39.6,178.986158 39.72,178.865871 L40.8,177.602864 C40.92,177.482578 40.98,177.242005 40.98,177.121718 L40.86,175.497852 C40.86,175.317422 40.92,175.257279 41.1,175.317422 L42.6,175.978998 C42.72,176.039141 42.96,176.039141 43.08,175.978998 L44.58,175.317422 C44.7,175.257279 44.82,175.317422 44.82,175.497852 L44.7,177.121718 C44.7,177.242005 44.76,177.482578 44.88,177.602864 L45.96,178.865871 C46.08,178.986158 46.02,179.106444 45.9,179.166587 L44.28,179.527446 C44.1,179.527446 43.92,179.647733 43.8,179.828162 L43.8,179.828162 Z M51.9,188.007637 L50.28,188.368496 C50.16,188.42864 49.92,188.548926 49.86,188.669212 L49.02,190.112649 C48.96,190.232936 48.84,190.232936 48.72,190.112649 L47.88,188.669212 C47.82,188.548926 47.64,188.42864 47.46,188.368496 L45.84,188.007637 C45.72,187.947494 45.66,187.827208 45.78,187.706921 L46.86,186.443914 C46.98,186.323628 47.04,186.143198 47.04,185.962768 L46.92,184.338902 C46.92,184.158473 47.04,184.098329 47.16,184.158473 L48.66,184.820048 C48.78,184.880191 49.02,184.880191 49.14,184.820048 L50.64,184.158473 C50.76,184.098329 50.88,184.158473 50.88,184.338902 L50.76,185.962768 C50.76,186.143198 50.82,186.323628 50.94,186.443914 L52.02,187.706921 C52.08,187.827208 52.08,187.947494 51.9,188.007637 L51.9,188.007637 Z M51.9,168.641527 L50.28,169.002387 C50.16,169.06253 49.92,169.182816 49.86,169.303103 L49.02,170.746539 C48.96,170.866826 48.84,170.866826 48.72,170.746539 L47.88,169.303103 C47.82,169.182816 47.64,169.06253 47.46,169.002387 L45.84,168.641527 C45.72,168.581384 45.66,168.461098 45.78,168.340811 L46.86,167.077804 C46.98,166.957518 47.04,166.716945 47.04,166.596659 L46.92,164.972792 C46.92,164.792363 47.04,164.73222 47.16,164.792363 L48.66,165.453938 C48.78,165.514081 49.02,165.514081 49.14,165.453938 L50.64,164.792363 C50.76,164.73222 50.88,164.792363 50.88,164.972792 L50.76,166.596659 C50.76,166.777088 50.82,166.957518 50.94,167.077804 L52.02,168.340811 C52.08,168.461098 52.08,168.581384 51.9,168.641527 L51.9,168.641527 Z M56.28,173.031981 L57.36,171.768974 C57.48,171.648687 57.54,171.408115 57.54,171.287828 L57.42,169.663962 C57.42,169.543675 57.48,169.423389 57.66,169.483532 L59.16,170.145107 C59.28,170.205251 59.52,170.205251 59.64,170.145107 L61.14,169.483532 C61.26,169.423389 61.38,169.483532 61.38,169.663962 L61.26,171.287828 C61.26,171.468258 61.32,171.648687 61.44,171.768974 L62.52,173.031981 C62.64,173.152267 62.58,173.272554 62.46,173.272554 L60.84,173.633413 C60.72,173.693556 60.48,173.813842 60.42,173.934129 L59.58,175.317422 C59.52,175.437709 59.4,175.437709 59.28,175.317422 L58.44,173.934129 C58.38,173.813842 58.2,173.693556 58.02,173.633413 L56.4,173.272554 C56.22,173.272554 56.16,173.152267 56.28,173.031981 L56.28,173.031981 Z M62.64,183.797613 L61.02,184.158473 C60.9,184.218616 60.66,184.338902 60.6,184.459189 L59.76,185.902625 C59.7,186.022912 59.58,186.022912 59.46,185.902625 L58.62,184.459189 C58.56,184.338902 58.38,184.218616 58.2,184.158473 L56.58,183.797613 C56.46,183.73747 56.4,183.617184 56.52,183.496897 L57.6,182.23389 C57.72,182.113604 57.78,181.873031 57.78,181.752745 L57.66,180.128878 C57.66,180.008592 57.72,179.888305 57.9,179.948449 L59.4,180.610024 C59.52,180.670167 59.76,180.670167 59.88,180.610024 L61.38,179.948449 C61.5,179.888305 61.62,179.948449 61.62,180.128878 L61.5,181.752745 C61.5,181.873031 61.56,182.113604 61.68,182.23389 L62.76,183.496897 C62.82,183.617184 62.76,183.73747 62.64,183.797613 L62.64,183.797613 Z M73.14,181.933174 L71.52,182.294033 C71.4,182.354177 71.22,182.474463 71.1,182.594749 L70.26,184.038186 C70.2,184.158473 70.08,184.158473 69.96,184.038186 L69.12,182.594749 C69.06,182.474463 68.88,182.354177 68.7,182.294033 L67.08,181.933174 C66.96,181.873031 66.9,181.752745 67.02,181.692601 L68.1,180.429594 C68.22,180.309308 68.28,180.068735 68.28,179.948449 L68.16,178.324582 C68.16,178.144153 68.22,178.08401 68.4,178.144153 L69.9,178.805728 C70.02,178.865871 70.26,178.865871 70.38,178.805728 L71.88,178.144153 C72,178.08401 72.12,178.144153 72.12,178.324582 L72,179.948449 C72,180.068735 72.06,180.309308 72.18,180.429594 L73.26,181.692601 C73.32,181.752745 73.26,181.873031 73.14,181.933174 L73.14,181.933174 Z M76.62,169.06253 L75,169.423389 C74.88,169.483532 74.64,169.603819 74.58,169.724105 L73.74,171.167542 C73.68,171.287828 73.56,171.287828 73.44,171.167542 L72.6,169.724105 C72.54,169.603819 72.36,169.483532 72.18,169.423389 L70.56,169.06253 C70.44,169.002387 70.38,168.8821 70.5,168.761814 L71.58,167.498807 C71.7,167.37852 71.76,167.137947 71.76,167.017661 L71.64,165.393795 C71.64,165.213365 71.7,165.153222 71.88,165.213365 L73.38,165.87494 C73.5,165.935084 73.74,165.935084 73.92,165.87494 L75.42,165.213365 C75.54,165.153222 75.66,165.213365 75.66,165.393795 L75.54,167.017661 C75.54,167.137947 75.6,167.37852 75.72,167.498807 L76.8,168.761814 C76.8,168.942243 76.74,169.06253 76.62,169.06253 L76.62,169.06253 Z M83.4,188.24821 L81.78,188.609069 C81.66,188.669212 81.42,188.789499 81.36,188.909785 L80.52,190.353222 C80.46,190.473508 80.34,190.473508 80.22,190.353222 L79.38,188.909785 C79.32,188.789499 79.14,188.669212 78.96,188.609069 L77.34,188.24821 C77.22,188.188067 77.16,188.06778 77.28,188.007637 L78.36,186.74463 C78.48,186.624344 78.54,186.383771 78.54,186.263484 L78.42,184.639618 C78.42,184.459189 78.48,184.399045 78.66,184.459189 L80.16,185.120764 C80.28,185.180907 80.52,185.180907 80.7,185.120764 L82.2,184.459189 C82.32,184.399045 82.44,184.459189 82.44,184.639618 L82.32,186.263484 C82.32,186.443914 82.38,186.624344 82.5,186.74463 L83.58,188.007637 C83.58,188.06778 83.52,188.188067 83.4,188.24821 L83.4,188.24821 Z M85.92,177.482578 L84.3,177.843437 C84.18,177.90358 83.94,178.023866 83.88,178.144153 L83.04,179.587589 C82.98,179.707876 82.86,179.707876 82.74,179.587589 L81.9,178.144153 C81.84,178.023866 81.66,177.90358 81.48,177.843437 L79.86,177.482578 C79.74,177.422434 79.68,177.302148 79.8,177.242005 L80.88,175.978998 C81,175.858711 81.06,175.618138 81.06,175.497852 L80.94,173.873986 C80.94,173.693556 81,173.633413 81.18,173.693556 L82.68,174.355131 C82.8,174.415274 83.04,174.415274 83.16,174.355131 L84.66,173.693556 C84.78,173.633413 84.9,173.693556 84.9,173.873986 L84.78,175.497852 C84.78,175.618138 84.84,175.858711 84.96,175.978998 L86.04,177.242005 C86.1,177.362291 86.1,177.482578 85.92,177.482578 L85.92,177.482578 Z M90.3,169.964678 L91.38,168.701671 C91.5,168.581384 91.56,168.340811 91.56,168.220525 L91.44,166.596659 C91.44,166.416229 91.56,166.356086 91.68,166.416229 L93.18,167.077804 C93.3,167.137947 93.54,167.137947 93.66,167.077804 L95.16,166.416229 C95.28,166.356086 95.4,166.416229 95.4,166.596659 L95.28,168.220525 C95.28,168.340811 95.34,168.581384 95.46,168.701671 L96.54,169.964678 C96.66,170.084964 96.6,170.205251 96.48,170.265394 L94.86,170.626253 C94.74,170.686396 94.5,170.806683 94.44,170.926969 L93.6,172.370406 C93.54,172.490692 93.42,172.490692 93.3,172.370406 L92.46,170.926969 C92.4,170.806683 92.22,170.686396 92.04,170.626253 L90.42,170.265394 C90.24,170.205251 90.18,170.084964 90.3,169.964678 L90.3,169.964678 Z M97.38,182.654893 L95.76,183.015752 C95.64,183.075895 95.4,183.196181 95.34,183.316468 L94.5,184.759905 C94.44,184.880191 94.32,184.880191 94.2,184.759905 L93.36,183.316468 C93.3,183.196181 93.12,183.075895 92.94,183.015752 L91.32,182.654893 C91.2,182.594749 91.14,182.474463 91.2,182.354177 L92.28,181.091169 C92.4,180.970883 92.46,180.73031 92.46,180.610024 L92.34,178.986158 C92.34,178.805728 92.4,178.745585 92.58,178.805728 L94.08,179.467303 C94.2,179.527446 94.44,179.527446 94.56,179.467303 L96.06,178.805728 C96.18,178.745585 96.3,178.805728 96.3,178.986158 L96.18,180.610024 C96.18,180.790453 96.24,180.970883 96.36,181.091169 L97.44,182.354177 C97.56,182.474463 97.5,182.594749 97.38,182.654893 L97.38,182.654893 Z M105.6,176.279714 L104.76,177.72315 C104.7,177.843437 104.58,177.843437 104.46,177.72315 L103.62,176.279714 C103.56,176.159427 103.38,176.039141 103.2,175.978998 L101.58,175.618138 C101.46,175.557995 101.4,175.437709 101.52,175.317422 L102.6,174.054415 C102.72,173.934129 102.78,173.693556 102.78,173.57327 L102.66,171.949403 C102.66,171.768974 102.72,171.708831 102.9,171.768974 L104.4,172.430549 C104.52,172.490692 104.76,172.490692 104.94,172.430549 L106.44,171.768974 C106.56,171.708831 106.68,171.768974 106.68,171.949403 L106.56,173.57327 C106.56,173.693556 106.62,173.934129 106.74,174.054415 L107.82,175.317422 C107.94,175.437709 107.88,175.557995 107.76,175.618138 L106.14,175.978998 C105.84,176.039141 105.66,176.159427 105.6,176.279714 L105.6,176.279714 Z M112.02,188.729356 L110.4,189.090215 C110.28,189.150358 110.04,189.270644 109.98,189.390931 L109.14,190.834368 C109.08,190.954654 108.96,190.954654 108.84,190.834368 L108,189.390931 C107.94,189.270644 107.76,189.150358 107.58,189.090215 L105.96,188.729356 C105.84,188.669212 105.78,188.548926 105.9,188.42864 L106.98,187.165632 C107.1,187.045346 107.16,186.804773 107.16,186.684487 L107.04,185.060621 C107.04,184.940334 107.1,184.820048 107.28,184.880191 L108.78,185.541766 C108.9,185.601909 109.14,185.601909 109.32,185.541766 L110.82,184.880191 C110.94,184.820048 111.06,184.880191 111.06,185.060621 L110.94,186.684487 C110.94,186.864916 111,187.045346 111.12,187.165632 L112.2,188.42864 C112.2,188.548926 112.2,188.669212 112.02,188.729356 L112.02,188.729356 Z M112.74,169.06253 L111.12,169.423389 C111,169.483532 110.76,169.603819 110.7,169.724105 L109.86,171.167542 C109.8,171.287828 109.68,171.287828 109.56,171.167542 L108.72,169.724105 C108.66,169.603819 108.48,169.483532 108.3,169.423389 L106.68,169.06253 C106.56,169.002387 106.5,168.8821 106.62,168.761814 L107.7,167.498807 C107.82,167.37852 107.88,167.137947 107.88,167.017661 L107.76,165.393795 C107.76,165.273508 107.82,165.153222 108,165.213365 L109.5,165.87494 C109.62,165.935084 109.86,165.935084 109.98,165.87494 L111.48,165.213365 C111.6,165.153222 111.72,165.213365 111.72,165.393795 L111.6,167.017661 C111.6,167.137947 111.66,167.37852 111.78,167.498807 L112.86,168.761814 C112.92,168.942243 112.86,169.06253 112.74,169.06253 L112.74,169.06253 Z M120.9,179.828162 L119.28,180.189021 C119.16,180.249165 118.92,180.369451 118.86,180.489737 L118.02,181.933174 C117.96,182.053461 117.84,182.053461 117.72,181.933174 L116.88,180.489737 C116.82,180.369451 116.64,180.249165 116.46,180.189021 L114.84,179.828162 C114.72,179.768019 114.66,179.647733 114.78,179.527446 L115.86,178.264439 C115.98,178.144153 116.04,177.90358 116.04,177.783294 L115.92,176.159427 C115.92,176.039141 115.98,175.918854 116.16,175.978998 L117.66,176.640573 C117.78,176.700716 118.02,176.700716 118.14,176.640573 L119.64,175.978998 C119.76,175.918854 119.88,175.978998 119.88,176.159427 L119.76,177.783294 C119.76,177.90358 119.82,178.144153 119.94,178.264439 L121.02,179.527446 C121.08,179.707876 121.02,179.828162 120.9,179.828162 L120.9,179.828162 Z M128.1,187.706921 C127.98,187.767064 127.8,187.887351 127.68,188.007637 L126.84,189.451074 C126.78,189.57136 126.66,189.57136 126.54,189.451074 L125.7,188.007637 C125.64,187.887351 125.46,187.767064 125.28,187.706921 L123.66,187.346062 C123.54,187.285919 123.48,187.165632 123.6,187.045346 L124.68,185.782339 C124.8,185.662053 124.86,185.42148 124.86,185.301193 L124.74,183.677327 C124.74,183.496897 124.8,183.436754 124.98,183.496897 L126.48,184.158473 C126.6,184.218616 126.84,184.218616 126.96,184.158473 L128.46,183.496897 C128.58,183.436754 128.7,183.496897 128.7,183.677327 L128.58,185.301193 C128.58,185.42148 128.64,185.662053 128.76,185.782339 L129.84,187.045346 C129.96,187.165632 129.9,187.285919 129.78,187.346062 L128.1,187.706921 L128.1,187.706921 Z" id="Shape"></path>
                <rect id="Rectangle-path" x="60" y="235.159905" width="30.12" height="16.5995227"></rect>
                <path d="M61.68,82.8171838 C62.16,82.8171838 62.58,82.4563246 62.58,82.0353222 C62.58,81.6143198 62.22,81.2534606 61.68,81.2534606 C61.2,81.2534606 60.78,81.6143198 60.78,82.0353222 C60.78,82.4563246 61.2,82.8171838 61.68,82.8171838 L61.68,82.8171838 Z" id="Shape"></path>
                <path d="M88.74,63.3909308 L60.42,68.623389 L51.48,89.0720764 L98.52,89.0720764 L88.74,63.3909308 L88.74,63.3909308 Z M90.48,77.1637232 C91.8,78.3665871 93.06,79.5694511 94.38,80.772315 C94.74,81.073031 94.68,81.5541766 94.32,81.8548926 C93.96,82.1556086 93.42,82.1556086 93.06,81.8548926 C92.16,81.0128878 91.32,80.2310263 90.42,79.3890215 C89.46,80.1708831 88.56,80.9527446 87.6,81.7346062 C87.24,82.0353222 86.7,82.0353222 86.34,81.7346062 C85.98,81.4338902 86.04,80.8926014 86.4,80.5918854 C87.72,79.5093079 89.1,78.3665871 90.48,77.1637232 L90.48,77.1637232 Z M91.62,81.1933174 C91.56,82.0353222 91.56,82.9374702 91.5,83.7794749 C90.54,83.7794749 89.58,83.7193317 88.62,83.7193317 C88.68,82.877327 88.68,81.975179 88.74,81.1331742 C89.7,81.1331742 90.66,81.1331742 91.62,81.1933174 L91.62,81.1933174 Z M86.1,77.3441527 C86.46,77.0434368 87,77.0434368 87.36,77.3441527 C87.72,77.6448687 87.66,78.1861575 87.3,78.4868735 C85.92,79.6295943 84.6,80.772315 83.22,81.9150358 C81.96,80.7121718 80.64,79.5093079 79.38,78.3064439 C79.02,78.0057279 79.08,77.5245823 79.44,77.1637232 C79.8,76.8630072 80.34,76.8630072 80.7,77.1637232 C81.6,78.0057279 82.44,78.7875895 83.34,79.6295943 C84.18,78.9078759 85.14,78.1260143 86.1,77.3441527 L86.1,77.3441527 Z M76.26,79.1484487 C75.3,79.9303103 74.4,80.7121718 73.44,81.5541766 C73.08,81.8548926 72.54,81.8548926 72.18,81.5541766 C71.82,81.2534606 71.88,80.772315 72.24,80.4114558 C73.62,79.2687351 75,78.0658711 76.32,76.9231504 C77.58,78.1260143 78.9,79.3288783 80.16,80.5317422 C80.52,80.8324582 80.46,81.373747 80.1,81.674463 C79.74,81.975179 79.2,81.975179 78.84,81.674463 C78,80.8324582 77.16,79.9904535 76.26,79.1484487 L76.26,79.1484487 Z M77.7,80.8926014 C77.7,81.7346062 77.64,82.6367542 77.64,83.4787589 C76.68,83.4787589 75.72,83.4787589 74.76,83.4186158 C74.76,82.576611 74.82,81.674463 74.82,80.8324582 C75.72,80.8926014 76.74,80.8926014 77.7,80.8926014 L77.7,80.8926014 Z M76.38,72.5928401 L79.14,75.299284 C79.38,75.5398568 79.38,75.900716 79.14,76.1412888 C78.9,76.3818616 78.54,76.3818616 78.3,76.1412888 L76.44,74.2768496 L74.58,76.1412888 C74.34,76.3818616 73.98,76.3818616 73.74,76.1412888 C73.5,75.900716 73.5,75.5398568 73.74,75.299284 L76.38,72.5928401 L76.38,72.5928401 Z M75.42,71.3298329 C75.42,70.7885442 75.84,70.3675418 76.38,70.3675418 C76.92,70.3675418 77.34,70.7885442 77.34,71.3298329 C77.34,71.8711217 76.92,72.2921241 76.38,72.2921241 C75.84,72.2921241 75.42,71.8711217 75.42,71.3298329 L75.42,71.3298329 Z M81.24,68.5632458 C81.48,68.8038186 81.48,69.1646778 81.24,69.4052506 L79.38,71.2696897 L81.24,73.1341289 C81.48,73.3747017 81.48,73.7355609 81.24,73.9761337 C81,74.2167064 80.64,74.2167064 80.4,73.9761337 L77.64,71.2696897 L80.34,68.5031026 C80.58,68.322673 81,68.322673 81.24,68.5632458 L81.24,68.5632458 Z M73.62,66.4582339 C73.86,66.2176611 74.22,66.2176611 74.46,66.4582339 L76.32,68.322673 L78.18,66.4582339 C78.42,66.2176611 78.78,66.2176611 79.02,66.4582339 C79.26,66.6988067 79.26,67.0596659 79.02,67.3002387 L76.32,70.0668258 L73.56,67.3603819 C73.38,67.1198091 73.38,66.6988067 73.62,66.4582339 L73.62,66.4582339 Z M71.52,68.623389 C71.76,68.3828162 72.12,68.3828162 72.36,68.623389 L75.12,71.3298329 L72.42,74.09642 C72.18,74.3369928 71.82,74.3369928 71.58,74.09642 C71.34,73.8558473 71.34,73.4949881 71.58,73.2544153 L73.44,71.3899761 L71.58,69.525537 C71.28,69.224821 71.28,68.8639618 71.52,68.623389 L71.52,68.623389 Z M65.46,77.0434368 C65.82,76.7427208 66.42,76.7427208 66.72,77.0434368 C67.62,77.8854415 68.52,78.6673031 69.36,79.5093079 C70.32,78.7274463 71.22,77.8854415 72.18,77.10358 C72.54,76.802864 73.08,76.802864 73.44,77.10358 C73.8,77.4042959 73.74,77.9455847 73.38,78.2463007 C72,79.3890215 70.62,80.5918854 69.24,81.7346062 C67.92,80.5317422 66.6,79.3288783 65.34,78.1861575 C65.04,77.8854415 65.1,77.3441527 65.46,77.0434368 L65.46,77.0434368 Z M57.6,80.3513126 C59.04,79.1484487 60.48,78.0057279 61.86,76.802864 C63.18,78.0057279 64.44,79.1484487 65.76,80.3513126 C66.12,80.6520286 66.06,81.1331742 65.7,81.4940334 C65.34,81.7947494 64.74,81.7947494 64.44,81.4940334 C63.54,80.7121718 62.64,79.8701671 61.74,79.0883055 C60.78,79.8701671 59.82,80.7121718 58.86,81.4940334 C58.5,81.7947494 57.9,81.7947494 57.54,81.4940334 C57.24,81.1933174 57.24,80.6520286 57.6,80.3513126 L57.6,80.3513126 Z M63.24,80.772315 C63.24,81.6143198 63.18,82.5164678 63.18,83.3584726 L60.18,83.3584726 C60.18,82.5164678 60.24,81.6143198 60.24,80.772315 L63.24,80.772315 L63.24,80.772315 Z M57.54,83.5990453 C57.18,83.2983294 57.18,82.8171838 57.54,82.4563246 C57.9,82.1556086 58.5,82.1556086 58.86,82.4563246 C59.76,83.2381862 60.72,84.0801909 61.68,84.8620525 C62.64,84.0801909 63.54,83.2381862 64.5,82.4563246 C64.86,82.1556086 65.46,82.1556086 65.76,82.4563246 C66.12,82.7570406 66.12,83.2381862 65.76,83.5389021 C64.38,84.6816229 63,85.8844869 61.68,87.0272076 C60.3,85.9446301 58.92,84.8019093 57.54,83.5990453 L57.54,83.5990453 Z M73.26,86.9670644 C72.9,87.2677804 72.36,87.2677804 72,86.9670644 C71.1,86.1250597 70.2,85.3431981 69.3,84.5011933 C68.4,85.2830549 67.44,86.1250597 66.54,86.9069212 C66.18,87.2076372 65.64,87.2076372 65.28,86.9069212 C64.92,86.6062053 64.92,86.1250597 65.28,85.7642005 C66.66,84.6214797 67.98,83.4186158 69.36,82.275895 C70.68,83.4787589 72,84.6816229 73.32,85.8243437 C73.62,86.1852029 73.56,86.6663484 73.26,86.9670644 L73.26,86.9670644 Z M72.18,83.6591885 C71.82,83.3584726 71.82,82.877327 72.18,82.5164678 C72.54,82.2157518 73.08,82.2157518 73.44,82.5164678 C74.34,83.3584726 75.24,84.1403341 76.14,84.9823389 C77.04,84.2004773 78,83.4186158 78.9,82.576611 C79.26,82.275895 79.8,82.275895 80.16,82.576611 C80.52,82.877327 80.46,83.3584726 80.1,83.6591885 C78.78,84.8019093 77.4,85.9446301 76.08,87.147494 C74.76,86.0649165 73.5,84.8620525 72.18,83.6591885 L72.18,83.6591885 Z M87,87.2076372 C86.64,87.5083532 86.1,87.5083532 85.74,87.2076372 C84.9,86.3656325 84,85.5837709 83.1,84.7417661 C82.2,85.5236277 81.24,86.3054893 80.34,87.0873508 C79.98,87.3880668 79.44,87.3880668 79.08,87.0873508 C78.78,86.7866348 78.78,86.3054893 79.08,85.9446301 C80.4,84.8019093 81.78,83.6591885 83.1,82.4563246 C84.36,83.6591885 85.68,84.8620525 86.94,86.0649165 C87.36,86.4257757 87.36,86.9069212 87,87.2076372 L87,87.2076372 Z M94.2,84.0801909 C92.82,85.2229117 91.44,86.3656325 90.06,87.5083532 C88.8,86.3054893 87.54,85.1026253 86.22,83.8997613 C85.86,83.5990453 85.92,83.0577566 86.28,82.7570406 C86.64,82.4563246 87.18,82.4563246 87.54,82.7570406 C88.44,83.5990453 89.28,84.3809069 90.18,85.2229117 C91.14,84.4410501 92.04,83.6591885 93,82.877327 C93.36,82.576611 93.9,82.576611 94.26,82.9374702 C94.62,83.2381862 94.56,83.7794749 94.2,84.0801909 L94.2,84.0801909 Z" id="Shape"></path>
                <path d="M65.46,35.9656325 L59.64,59.1809069 L90.42,59.1809069 L84,33.4997613 L65.46,35.9656325 L65.46,35.9656325 Z M80.22,36.6272076 C80.88,36.6272076 81.36,37.1684964 81.36,37.7699284 C81.36,38.4315036 80.82,38.9126492 80.22,38.9126492 C79.56,38.9126492 79.08,38.3713604 79.08,37.7699284 C79.08,37.1684964 79.56,36.6272076 80.22,36.6272076 L80.22,36.6272076 Z M81.6,45.8892601 C81.6,46.5508353 81.06,47.0319809 80.46,47.0319809 C79.8,47.0319809 79.32,46.4906921 79.32,45.8892601 C79.32,45.227685 79.86,44.7465394 80.46,44.7465394 C81.12,44.6863962 81.6,45.227685 81.6,45.8892601 L81.6,45.8892601 Z M73.56,37.7097852 C74.22,37.7097852 74.7,38.251074 74.7,38.852506 C74.7,39.5140811 74.16,39.9952267 73.56,39.9952267 C72.9,39.9952267 72.42,39.4539379 72.42,38.852506 C72.42,38.251074 72.96,37.7097852 73.56,37.7097852 L73.56,37.7097852 Z M69.96,44.926969 C69.96,45.5885442 69.42,46.0696897 68.82,46.0696897 C68.16,46.0696897 67.68,45.528401 67.68,44.926969 C67.68,44.2653938 68.22,43.7842482 68.82,43.7842482 C69.42,43.7842482 69.96,44.325537 69.96,44.926969 L69.96,44.926969 Z M62.64,55.9331742 C61.98,55.9331742 61.5,55.3918854 61.5,54.7904535 C61.5,54.1288783 62.04,53.6477327 62.64,53.6477327 C63.3,53.6477327 63.78,54.1890215 63.78,54.7904535 C63.78,55.3918854 63.3,55.9331742 62.64,55.9331742 L62.64,55.9331742 Z M65.1,49.7384248 C64.44,49.7384248 63.96,49.197136 63.96,48.5957041 C63.96,47.9341289 64.5,47.4529833 65.1,47.4529833 C65.76,47.4529833 66.24,47.9942721 66.24,48.5957041 C66.24,49.197136 65.7,49.7384248 65.1,49.7384248 L65.1,49.7384248 Z M67.98,36.9880668 C68.64,36.9880668 69.12,37.5293556 69.12,38.1307876 C69.12,38.7923628 68.58,39.2735084 67.98,39.2735084 C67.32,39.2735084 66.84,38.7322196 66.84,38.1307876 C66.84,37.5293556 67.32,36.9880668 67.98,36.9880668 L67.98,36.9880668 Z M68.1,57.5570406 C67.44,57.5570406 66.96,57.0157518 66.96,56.4143198 C66.96,55.7527446 67.5,55.271599 68.1,55.271599 C68.76,55.271599 69.24,55.8128878 69.24,56.4143198 C69.24,57.0157518 68.76,57.5570406 68.1,57.5570406 L68.1,57.5570406 Z M70.2,52.3245823 C69.54,52.3245823 69.06,51.7832936 69.06,51.1818616 C69.06,50.5202864 69.6,50.0391408 70.2,50.0391408 C70.86,50.0391408 71.34,50.5804296 71.34,51.1818616 C71.34,51.7832936 70.86,52.3245823 70.2,52.3245823 L70.2,52.3245823 Z M71.94,42.9422434 C71.94,42.2806683 72.48,41.7995227 73.08,41.7995227 C73.74,41.7995227 74.22,42.3408115 74.22,42.9422434 C74.22,43.6038186 73.68,44.0849642 73.08,44.0849642 C72.48,44.1451074 71.94,43.6038186 71.94,42.9422434 L71.94,42.9422434 Z M73.92,55.6926014 C73.26,55.6926014 72.78,55.1513126 72.78,54.5498807 C72.78,53.8883055 73.32,53.4071599 73.92,53.4071599 C74.58,53.4071599 75.06,53.9484487 75.06,54.5498807 C75.12,55.1513126 74.58,55.6926014 73.92,55.6926014 L73.92,55.6926014 Z M75.54,49.1369928 C74.88,49.1369928 74.4,48.5957041 74.4,47.9942721 C74.4,47.3326969 74.94,46.8515513 75.54,46.8515513 C76.2,46.8515513 76.68,47.3928401 76.68,47.9942721 C76.74,48.6558473 76.2,49.1369928 75.54,49.1369928 L75.54,49.1369928 Z M78,41.9198091 C78,41.2582339 78.54,40.7770883 79.14,40.7770883 C79.8,40.7770883 80.28,41.3183771 80.28,41.9198091 C80.28,42.5813842 79.74,43.0625298 79.14,43.0625298 C78.54,43.0625298 78,42.5813842 78,41.9198091 L78,41.9198091 Z M79.98,56.5947494 C79.32,56.5947494 78.84,56.0534606 78.84,55.4520286 C78.84,54.7904535 79.38,54.3093079 79.98,54.3093079 C80.64,54.3093079 81.12,54.8505967 81.12,55.4520286 C81.18,56.1136038 80.64,56.5947494 79.98,56.5947494 L79.98,56.5947494 Z M82.2,53.4673031 C81.54,53.4673031 81.06,52.9260143 81.06,52.3245823 C81.06,51.6630072 81.6,51.1818616 82.2,51.1818616 C82.86,51.1818616 83.34,51.7231504 83.34,52.3245823 C83.34,52.9260143 82.86,53.4673031 82.2,53.4673031 L82.2,53.4673031 Z M87.66,56.0534606 C87.66,56.7150358 87.12,57.1961814 86.52,57.1961814 C85.86,57.1961814 85.38,56.6548926 85.38,56.0534606 C85.38,55.3918854 85.92,54.9107399 86.52,54.9107399 C87.18,54.8505967 87.66,55.3918854 87.66,56.0534606 L87.66,56.0534606 Z M85.92,44.6863962 C85.92,45.3479714 85.38,45.8291169 84.78,45.8291169 C84.12,45.8291169 83.64,45.2878282 83.64,44.6863962 C83.64,44.024821 84.18,43.5436754 84.78,43.5436754 C85.38,43.5436754 85.92,44.0849642 85.92,44.6863962 L85.92,44.6863962 Z" id="Shape"></path>
                <path d="M43.62,130.450597 L104.46,132.134606 L99.6,124.376134 L45.12,127.443437 L43.62,130.450597 Z" id="Shape"></path>
                <path d="M105.84,134.299761 L42.48,132.736038 L40.62,136.52506 L108.06,137.908353 L105.84,134.299761 Z" id="Shape"></path>
                <path d="M112.92,145.787112 L36.42,144.945107 L34.5,148.794272 L115.14,149.335561 L112.92,145.787112 Z" id="Shape"></path>
                <path d="M109.38,140.073508 L39.48,138.810501 L37.56,142.599523 L111.6,143.621957 L109.38,140.073508 Z" id="Shape"></path>
                <path d="M94.14,97.4921241 L54.6,94.3045346 L42.12,120.346539 L107.82,120.346539 L94.14,97.4921241 L94.14,97.4921241 Z M100.62,111.505489 C100.62,111.505489 102.12,114.572792 100.14,114.572792 L98.22,114.572792 C98.22,114.572792 99.6,109.460621 100.62,111.505489 L100.62,111.505489 Z M97.08,109.580907 C97.08,109.580907 99.96,109.460621 97.44,114.031504 C97.44,114.091647 93.9,110.543198 97.08,109.580907 L97.08,109.580907 Z M97.68,114.512649 C97.68,114.753222 97.5,114.933652 97.26,114.933652 C97.02,114.933652 96.84,114.753222 96.84,114.512649 C96.84,114.272076 97.02,114.091647 97.26,114.091647 C97.5,114.15179 97.68,114.33222 97.68,114.512649 L97.68,114.512649 Z M93.96,100.739857 C93.96,100.739857 95.46,103.80716 93.48,103.80716 L91.56,103.80716 C91.56,103.867303 92.94,98.6949881 93.96,100.739857 L93.96,100.739857 Z M90.42,98.8754177 C90.42,98.8754177 93.3,98.7551313 90.78,103.326014 C90.78,103.326014 87.24,99.7775656 90.42,98.8754177 L90.42,98.8754177 Z M90.96,103.80716 C90.96,104.047733 90.78,104.228162 90.54,104.228162 C90.3,104.228162 90.12,104.047733 90.12,103.80716 C90.12,103.566587 90.3,103.386158 90.54,103.386158 C90.78,103.386158 90.96,103.566587 90.96,103.80716 L90.96,103.80716 Z M85.08,110.483055 C85.08,110.483055 86.58,113.550358 84.6,113.550358 L82.68,113.550358 C82.68,113.610501 84.06,108.438186 85.08,110.483055 L85.08,110.483055 Z M81.54,108.618616 C81.54,108.618616 84.42,108.498329 81.9,113.069212 C81.9,113.069212 78.36,109.520764 81.54,108.618616 L81.54,108.618616 Z M82.14,113.550358 C82.14,113.790931 81.96,113.97136 81.72,113.97136 C81.48,113.97136 81.3,113.790931 81.3,113.550358 C81.3,113.309785 81.48,113.129356 81.72,113.129356 C81.96,113.129356 82.14,113.309785 82.14,113.550358 L82.14,113.550358 Z M76.2,102.183294 C76.2,102.183294 77.7,105.250597 75.72,105.250597 L73.8,105.250597 C73.8,105.250597 75.18,100.078282 76.2,102.183294 L76.2,102.183294 Z M72.66,100.258711 C72.66,100.258711 75.54,100.138425 73.02,104.709308 C72.96,104.709308 69.42,101.160859 72.66,100.258711 L72.66,100.258711 Z M73.2,105.190453 C73.2,105.431026 73.02,105.611456 72.78,105.611456 C72.54,105.611456 72.36,105.431026 72.36,105.190453 C72.36,104.949881 72.54,104.769451 72.78,104.769451 C73.02,104.769451 73.2,104.949881 73.2,105.190453 L73.2,105.190453 Z M64.38,110.723628 C64.38,110.723628 65.88,113.790931 63.9,113.790931 L61.98,113.790931 C61.98,113.851074 63.36,108.678759 64.38,110.723628 L64.38,110.723628 Z M61.2,113.309785 C61.2,113.309785 57.66,109.761337 60.84,108.859189 C60.84,108.859189 63.66,108.738902 61.2,113.309785 L61.2,113.309785 Z M61.38,113.790931 C61.38,114.031504 61.2,114.211933 60.96,114.211933 C60.72,114.211933 60.54,114.031504 60.54,113.790931 C60.54,113.550358 60.72,113.369928 60.96,113.369928 C61.2,113.369928 61.38,113.550358 61.38,113.790931 L61.38,113.790931 Z M57.84,102.063007 C57.84,102.063007 61.62,101.942721 61.44,103.386158 C61.44,103.386158 58.74,108.017184 57.84,102.063007 L57.84,102.063007 Z M60.6,98.8152745 C60.6,98.8152745 62.1,101.882578 60.12,101.882578 L58.2,101.882578 C58.2,101.942721 59.58,96.7704057 60.6,98.8152745 L60.6,98.8152745 Z M57.06,96.9508353 C57.06,96.9508353 59.94,96.8305489 57.42,101.401432 C57.42,101.401432 53.88,97.8529833 57.06,96.9508353 L57.06,96.9508353 Z M57.66,101.882578 C57.66,102.12315 57.48,102.30358 57.24,102.30358 C57,102.30358 56.82,102.12315 56.82,101.882578 C56.82,101.642005 57,101.461575 57.24,101.461575 C57.48,101.461575 57.66,101.642005 57.66,101.882578 L57.66,101.882578 Z M54.54,99.0558473 C55.8,98.8754177 56.7,101.822434 56.7,101.822434 C54.42,102.48401 52.8,101.160859 52.8,101.160859 C51.72,99.29642 54.54,99.0558473 54.54,99.0558473 L54.54,99.0558473 Z M53.88,104.709308 C53.1,103.927446 53.28,103.326014 53.28,103.326014 C53.7,101.822434 56.64,102.243437 56.64,102.243437 C54.6,105.852029 53.88,104.709308 53.88,104.709308 L53.88,104.709308 Z M57.18,102.243437 C58.38,104.528878 57.66,105.611456 57.66,105.611456 C56.94,106.393317 55.8,105.791885 55.8,105.791885 C54.54,105.31074 57.18,102.243437 57.18,102.243437 L57.18,102.243437 Z M58.32,110.9642 C59.58,110.783771 60.48,113.730788 60.48,113.730788 C58.2,114.392363 56.58,113.069212 56.58,113.069212 C55.44,111.204773 58.32,110.9642 58.32,110.9642 L58.32,110.9642 Z M57.66,116.617661 C56.88,115.8358 57.06,115.234368 57.06,115.234368 C57.48,113.730788 60.42,114.15179 60.42,114.15179 C58.38,117.760382 57.66,116.617661 57.66,116.617661 L57.66,116.617661 Z M61.38,117.519809 C60.66,118.301671 59.52,117.700239 59.52,117.700239 C58.32,117.15895 60.96,114.15179 60.96,114.15179 C62.16,116.437232 61.38,117.519809 61.38,117.519809 L61.38,117.519809 Z M61.56,113.97136 C61.56,113.97136 65.34,113.851074 65.16,115.294511 C65.16,115.294511 62.46,119.925537 61.56,113.97136 L61.56,113.97136 Z M70.14,102.363723 C71.4,102.183294 72.3,105.13031 72.3,105.13031 C70.02,105.791885 68.4,104.468735 68.4,104.468735 C67.26,102.604296 70.14,102.363723 70.14,102.363723 L70.14,102.363723 Z M69.42,108.077327 C68.64,107.295465 68.82,106.694033 68.82,106.694033 C69.24,105.190453 72.18,105.611456 72.18,105.611456 C70.2,109.220048 69.42,108.077327 69.42,108.077327 L69.42,108.077327 Z M73.2,108.979475 C72.48,109.761337 71.34,109.159905 71.34,109.159905 C70.14,108.618616 72.78,105.611456 72.78,105.611456 C73.98,107.896897 73.2,108.979475 73.2,108.979475 L73.2,108.979475 Z M73.38,105.431026 C73.38,105.431026 77.16,105.31074 76.98,106.754177 C76.98,106.754177 74.28,111.385203 73.38,105.431026 L73.38,105.431026 Z M79.02,110.723628 C80.28,110.543198 81.18,113.490215 81.18,113.490215 C78.9,114.15179 77.28,112.82864 77.28,112.82864 C76.2,110.9642 79.02,110.723628 79.02,110.723628 L79.02,110.723628 Z M78.36,116.377088 C77.58,115.595227 77.76,114.993795 77.76,114.993795 C78.18,113.490215 81.12,113.911217 81.12,113.911217 C79.08,117.519809 78.36,116.377088 78.36,116.377088 L78.36,116.377088 Z M82.14,117.339379 C81.42,118.121241 80.28,117.519809 80.28,117.519809 C79.08,116.97852 81.72,113.97136 81.72,113.97136 C82.86,116.256802 82.14,117.339379 82.14,117.339379 L82.14,117.339379 Z M82.32,113.790931 C82.32,113.790931 86.1,113.670644 85.92,115.114081 C85.92,115.053938 83.22,119.745107 82.32,113.790931 L82.32,113.790931 Z M87.9,100.98043 C89.16,100.8 90.06,103.747017 90.06,103.747017 C87.78,104.408592 86.16,103.085442 86.16,103.085442 C85.02,101.221002 87.9,100.98043 87.9,100.98043 L87.9,100.98043 Z M87.24,106.63389 C86.46,105.852029 86.64,105.250597 86.64,105.250597 C87.06,103.747017 90,104.168019 90,104.168019 C87.96,107.776611 87.24,106.63389 87.24,106.63389 L87.24,106.63389 Z M90.96,107.596181 C90.24,108.378043 89.1,107.776611 89.1,107.776611 C87.9,107.235322 90.54,104.228162 90.54,104.228162 C91.74,106.513604 90.96,107.596181 90.96,107.596181 L90.96,107.596181 Z M91.14,104.047733 C91.14,104.047733 94.92,103.927446 94.74,105.370883 C94.74,105.31074 92.1,110.001909 91.14,104.047733 L91.14,104.047733 Z M94.62,111.746062 C95.88,111.565632 96.78,114.512649 96.78,114.512649 C94.5,115.174224 92.88,113.851074 92.88,113.851074 C91.74,111.986635 94.62,111.746062 94.62,111.746062 L94.62,111.746062 Z M93.9,117.399523 C93.12,116.617661 93.3,116.016229 93.3,116.016229 C93.72,114.512649 96.66,114.933652 96.66,114.933652 C94.62,118.542243 93.9,117.399523 93.9,117.399523 L93.9,117.399523 Z M97.68,118.301671 C96.96,119.083532 95.82,118.4821 95.82,118.4821 C94.62,117.940811 97.26,114.933652 97.26,114.933652 C98.4,117.219093 97.68,118.301671 97.68,118.301671 L97.68,118.301671 Z M97.86,114.753222 C97.86,114.753222 101.64,114.632936 101.46,116.076372 C101.46,116.076372 98.76,120.707399 97.86,114.753222 L97.86,114.753222 Z" id="Shape"></path>
                <path d="M116.46,151.440573 L33.36,151.079714 L31.68,154.447733 L118.32,154.447733 L116.46,151.440573 Z" id="Shape"></path>
                <path d="M135.36,202.381862 L133.26,198.472554 L128.94,198.652983 C127.8,200.457279 127.02,202.622434 127.26,204.847733 C127.98,210.862053 131.04,211.583771 132.9,211.162768 C134.7,210.741766 136.02,209.057757 135.6,207.073031 C135.18,205.088305 133.74,204.60716 133.74,204.60716 C133.74,204.60716 134.76,206.591885 133.02,207.313604 C131.34,208.035322 129.06,205.810024 130.26,203.344153 C131.1,201.6 133.44,201.41957 135.36,202.381862 L135.36,202.381862 Z" id="Shape"></path>
                <path d="M65.16,29.4100239 L74.82,24.5384248 L84.3,29.7107399 L82.68,19.0052506 L90.54,11.547494 L79.86,9.80334129 L75.18,0 L70.26,9.68305489 L59.52,11.0663484 L67.14,18.7646778 L65.16,29.4100239 Z" id="Shape"></path>
                <path d="M108.9,229.747017 L150,229.747017 L142.14,215.011933 C140.7,215.011933 139.08,214.290215 138.12,213.027208 C137.82,212.606205 137.58,212.12506 137.34,211.643914 C137.1,212.004773 136.8,212.305489 136.44,212.606205 C133.74,214.95179 129.78,214.831504 126.66,211.042482 C126.3,210.561337 125.94,210.080191 125.7,209.538902 C125.22,210.380907 123.78,212.185203 120.12,212.485919 C118.86,212.606205 117.78,212.245346 116.76,211.643914 C116.76,211.643914 113.34,209.599045 113.28,205.569451 C113.22,204.667303 113.4,203.825298 113.76,203.10358 C115.2,200.27685 118.32,199.374702 120.18,200.216706 C122.16,201.058711 122.76,204.005728 121.14,204.968019 C119.52,205.93031 118.5,205.148449 118.14,204.126014 C117.78,203.10358 118.62,202.562291 118.62,202.562291 C118.62,202.562291 116.7,202.742721 116.1,204.968019 C115.5,207.193317 116.82,209.358473 118.86,209.839618 C120.9,210.320764 123.06,209.1179 124.2,207.373747 C124.44,206.952745 124.68,206.591885 124.8,206.291169 C124.5,203.344153 125.34,200.397136 125.76,199.073986 C125.82,198.953699 125.88,198.833413 125.88,198.713126 L88.26,200.457279 L88.86,200.397136 L88.92,200.397136 C87.48,202.381862 86.34,204.907876 86.64,207.554177 C87.36,213.568496 90.48,214.290215 92.28,213.869212 C94.08,213.44821 95.4,211.7642 94.98,209.779475 C94.56,207.794749 93.12,207.313604 93.12,207.313604 C93.12,207.313604 94.14,209.298329 92.4,210.020048 C90.72,210.741766 88.44,208.516468 89.64,206.050597 C90.84,203.584726 94.8,204.186158 96.54,206.471599 C98.28,208.757041 98.58,212.967064 95.88,215.312649 C93.18,217.658234 89.22,217.537947 86.1,213.748926 C85.68,213.26778 85.38,212.786635 85.14,212.245346 C84.66,213.087351 83.22,214.891647 79.56,215.192363 C78.3,215.312649 77.22,214.95179 76.2,214.350358 C76.2,214.350358 72.78,212.305489 72.72,208.275895 C72.72,207.373747 72.84,206.531742 73.2,205.810024 C74.64,202.983294 77.76,202.141289 79.62,202.92315 C81.6,203.765155 82.14,206.712172 80.58,207.674463 C78.96,208.636754 77.94,207.854893 77.58,206.832458 C77.22,205.810024 78.06,205.268735 78.06,205.268735 C78.06,205.268735 76.14,205.449165 75.54,207.674463 C74.94,209.899761 76.26,212.064916 78.3,212.546062 C80.34,213.027208 82.5,211.824344 83.64,210.080191 C83.88,209.659189 84.12,209.298329 84.24,208.997613 C83.94,206.050597 84.78,203.10358 85.2,201.78043 C85.38,201.299284 85.56,200.938425 85.74,200.517422 L43.2,202.682578 L43.92,202.622434 L44.58,202.622434 C43.14,204.60716 42,207.133174 42.3,209.779475 C43.02,215.793795 46.08,216.515513 47.94,216.094511 C49.74,215.673508 51.06,214.049642 50.64,212.004773 C50.22,210.020048 48.78,209.538902 48.78,209.538902 C48.78,209.538902 49.8,211.523628 48.06,212.245346 C46.38,212.967064 44.1,210.741766 45.3,208.275895 C46.5,205.810024 50.52,206.411456 52.2,208.696897 C53.94,210.982339 54.24,215.192363 51.54,217.537947 C48.84,219.883532 44.88,219.763246 41.76,215.974224 C41.34,215.493079 41.04,215.011933 40.8,214.470644 C40.32,215.312649 38.88,217.116945 35.22,217.417661 C33.96,217.537947 32.88,217.177088 31.86,216.575656 C31.86,216.575656 28.44,214.530788 28.38,210.501193 C28.38,209.599045 28.5,208.757041 28.86,208.035322 C30.3,205.208592 33.42,204.366587 35.28,205.148449 C37.26,205.990453 37.86,208.93747 36.24,209.899761 C34.62,210.862053 33.6,210.080191 33.24,209.057757 C32.88,208.035322 33.72,207.494033 33.72,207.494033 C33.72,207.494033 31.8,207.674463 31.2,209.899761 C30.6,212.12506 31.92,214.290215 33.96,214.77136 C36,215.252506 38.16,214.049642 39.3,212.305489 C39.54,211.884487 39.78,211.523628 39.9,211.222912 C39.6,208.275895 40.44,205.328878 40.86,204.005728 C41.04,203.524582 41.22,203.10358 41.46,202.742721 L13.98,204.005728 L0,229.747017 L16.14,229.747017 C17.58,227.762291 18.72,225.236277 18.42,222.589976 C17.7,216.575656 14.58,215.853938 12.78,216.27494 C10.98,216.695943 9.66,218.379952 10.08,220.364678 C10.5,222.349403 11.94,222.830549 11.94,222.830549 C11.94,222.830549 10.92,220.845823 12.66,220.124105 C14.34,219.402387 16.62,221.627685 15.42,224.093556 C14.22,226.559427 10.2,225.957995 8.52,223.672554 C6.78,221.387112 6.48,217.177088 9.18,214.831504 C11.88,212.485919 15.84,212.606205 18.96,216.395227 C19.38,216.876372 19.68,217.357518 19.92,217.898807 C20.4,217.056802 21.84,215.252506 25.5,214.95179 C26.76,214.831504 27.84,215.192363 28.86,215.793795 C28.86,215.793795 32.28,217.838663 32.34,221.868258 C32.34,222.770406 32.22,223.612411 31.86,224.334129 C30.42,227.160859 27.3,228.063007 25.44,227.221002 C23.46,226.378998 22.86,223.431981 24.48,222.46969 C26.1,221.507399 27.12,222.28926 27.48,223.311695 C27.84,224.334129 27,224.875418 27,224.875418 C27,224.875418 28.92,224.694988 29.52,222.46969 C30.12,220.244391 28.8,218.079236 26.76,217.598091 C24.72,217.116945 22.56,218.319809 21.42,220.063962 C21.18,220.484964 20.94,220.845823 20.82,221.146539 C21.12,224.093556 20.28,227.040573 19.86,228.363723 C19.68,228.844869 19.44,229.326014 19.26,229.747017 L62.4,229.747017 C63.78,227.762291 64.98,225.236277 64.68,222.589976 C63.96,216.575656 60.84,215.853938 59.04,216.27494 C57.24,216.695943 55.92,218.379952 56.34,220.364678 C56.76,222.349403 58.2,222.830549 58.2,222.830549 C58.2,222.830549 57.18,220.845823 58.92,220.124105 C60.6,219.402387 62.88,221.627685 61.68,224.093556 C60.48,226.559427 56.52,225.957995 54.78,223.672554 C53.04,221.387112 52.74,217.177088 55.44,214.831504 C58.14,212.485919 62.1,212.606205 65.22,216.395227 C65.58,216.876372 65.94,217.357518 66.18,217.898807 C66.66,217.056802 68.1,215.252506 71.76,214.95179 C73.02,214.831504 74.1,215.192363 75.12,215.793795 C75.12,215.793795 78.54,217.838663 78.6,221.868258 C78.6,222.770406 78.48,223.612411 78.12,224.334129 C76.68,227.160859 73.56,228.063007 71.7,227.221002 C69.72,226.378998 69.12,223.431981 70.74,222.46969 C72.36,221.507399 73.38,222.28926 73.74,223.311695 C74.1,224.334129 73.26,224.875418 73.26,224.875418 C73.26,224.875418 75.18,224.694988 75.78,222.46969 C76.38,220.244391 75.06,218.079236 73.02,217.598091 C70.98,217.116945 68.82,218.319809 67.68,220.063962 C67.44,220.484964 67.2,220.845823 67.08,221.146539 C67.38,224.093556 66.54,227.040573 66.12,228.363723 C65.94,228.844869 65.7,229.326014 65.52,229.747017 L105.9,229.747017 C107.28,227.762291 108.48,225.236277 108.18,222.589976 C107.46,216.575656 104.4,215.853938 102.54,216.27494 C100.74,216.695943 99.42,218.379952 99.84,220.364678 C100.26,222.349403 101.7,222.830549 101.7,222.830549 C101.7,222.830549 100.68,220.845823 102.42,220.124105 C104.1,219.402387 106.38,221.627685 105.18,224.093556 C103.98,226.559427 100.02,225.957995 98.28,223.672554 C96.54,221.387112 96.24,217.177088 98.94,214.831504 C101.64,212.485919 105.6,212.606205 108.72,216.395227 C109.14,216.876372 109.44,217.357518 109.68,217.898807 C110.16,217.056802 111.6,215.252506 115.26,214.95179 C116.52,214.831504 117.6,215.192363 118.62,215.793795 C118.62,215.793795 122.04,217.838663 122.1,221.868258 C122.1,222.770406 121.98,223.612411 121.62,224.334129 C120.18,227.160859 117.06,228.063007 115.2,227.221002 C113.22,226.378998 112.62,223.431981 114.24,222.46969 C115.86,221.507399 116.88,222.28926 117.24,223.311695 C117.6,224.334129 116.76,224.875418 116.76,224.875418 C116.76,224.875418 118.68,224.694988 119.28,222.46969 C119.88,220.244391 118.56,218.079236 116.52,217.598091 C114.48,217.116945 112.32,218.319809 111.18,220.063962 C110.94,220.484964 110.7,220.845823 110.58,221.146539 C110.88,224.093556 110.04,227.040573 109.62,228.363723 C109.38,228.844869 109.14,229.326014 108.9,229.747017 L108.9,229.747017 Z M129.48,217.116945 L130.56,215.974224 L130.8,217.598091 L132.18,218.379952 L130.8,219.101671 L130.56,220.725537 L129.48,219.522673 L127.92,219.763246 L128.64,218.319809 L127.92,216.816229 L129.48,217.116945 L129.48,217.116945 Z M16.2,210.44105 L15.12,211.583771 L14.88,209.959905 L13.5,209.178043 L14.88,208.456325 L15.12,206.832458 L16.2,208.035322 L17.76,207.794749 L17.04,209.238186 L17.76,210.741766 L16.2,210.44105 L16.2,210.44105 Z M22.32,213.26778 C21.48,213.568496 20.52,213.087351 20.22,212.185203 C19.92,211.283055 20.34,210.260621 21.18,209.959905 C22.02,209.659189 22.98,210.140334 23.28,211.042482 C23.58,211.94463 23.16,212.967064 22.32,213.26778 L22.32,213.26778 Z M39.6,222.46969 C38.76,222.770406 37.8,222.28926 37.5,221.387112 C37.2,220.484964 37.62,219.46253 38.46,219.161814 C39.3,218.861098 40.26,219.342243 40.56,220.244391 C40.86,221.146539 40.44,222.168974 39.6,222.46969 L39.6,222.46969 Z M45.9,223.97327 L45.66,225.597136 L44.58,224.394272 L43.02,224.634845 L43.74,223.191408 L43.02,221.687828 L44.58,221.988544 L45.66,220.845823 L45.9,222.46969 L47.28,223.251551 L45.9,223.97327 L45.9,223.97327 Z M62.4,210.44105 L61.32,211.583771 L61.08,209.959905 L59.7,209.178043 L61.08,208.456325 L61.32,206.832458 L62.4,208.035322 L63.96,207.794749 L63.24,209.238186 L63.96,210.741766 L62.4,210.44105 L62.4,210.44105 Z M68.52,213.26778 C67.68,213.568496 66.72,213.087351 66.42,212.185203 C66.12,211.283055 66.54,210.260621 67.38,209.959905 C68.22,209.659189 69.18,210.140334 69.48,211.042482 C69.78,211.94463 69.36,212.967064 68.52,213.26778 L68.52,213.26778 Z M84,220.364678 C83.16,220.665394 82.2,220.184248 81.9,219.2821 C81.6,218.379952 82.02,217.357518 82.86,217.056802 C83.7,216.756086 84.66,217.237232 84.96,218.139379 C85.26,219.041527 84.84,220.063962 84,220.364678 L84,220.364678 Z M90.3,221.868258 L90.06,223.492124 L88.98,222.28926 L87.42,222.529833 L88.14,221.086396 L87.42,219.582816 L88.98,219.883532 L90.06,218.740811 L90.3,220.364678 L91.68,221.146539 L90.3,221.868258 L90.3,221.868258 Z M105.84,210.44105 L104.76,211.583771 L104.52,209.959905 L103.14,209.178043 L104.52,208.456325 L104.76,206.832458 L105.84,208.035322 L107.4,207.794749 L106.68,209.238186 L107.4,210.741766 L105.84,210.44105 L105.84,210.44105 Z M111.96,213.26778 C111.12,213.568496 110.16,213.087351 109.86,212.185203 C109.56,211.283055 109.98,210.260621 110.82,209.959905 C111.66,209.659189 112.62,210.140334 112.92,211.042482 C113.28,211.94463 112.86,212.967064 111.96,213.26778 L111.96,213.26778 Z M123.36,214.290215 C124.2,213.989499 125.16,214.470644 125.46,215.372792 C125.76,216.27494 125.34,217.297375 124.5,217.598091 C123.66,217.898807 122.7,217.417661 122.4,216.515513 C122.1,215.553222 122.52,214.590931 123.36,214.290215 L123.36,214.290215 Z" id="Shape"></path>
            </g>
        </g>
    </g>
</svg>