<?xml version="1.0" encoding="utf-8"?>
<!-- Generator: Adobe Illustrator 18.1.0, SVG Export Plug-In . SVG Version: 6.00 Build 0)  -->
<!DOCTYPE svg PUBLIC "-//W3C//DTD SVG 1.1//EN" "http://www.w3.org/Graphics/SVG/1.1/DTD/svg11.dtd">
<svg version="1.1" id="Layer_1" xmlns="http://www.w3.org/2000/svg" xmlns:xlink="http://www.w3.org/1999/xlink" x="0px" y="0px"
	 width="110px" height="289.5px" viewBox="0 0 110 289.5" enable-background="new 0 0 110 289.5" xml:space="preserve">
<g>
	<path fill="#231F20" d="M98.4,225c-6.2-7.8-8.9-17.4-5.5-26.7c3.3-9,17-19.2,9.4-29.6c-7.1-9.7-11.9-0.4-11.9-0.4
		s-4.9,15.5-15.5,15.5c-5.8,0-7.4-3.6-8.7-7.6v31.2h-20v-42.4c-9.6,2.1-17.1-15.2-20.4-27.3c-0.9-3.4-4.9-10.6-11.1,8.4
		c-6.2,19,5.5,34.5,10.7,44.6c6.2,12.1-5.9,26.2-12,32.2c-7.7,6.2-12.3,14.3-12.3,23c0,19.9,24.1,36.1,53.8,36.1
		c29.7,0,53.8-16.2,53.8-36.1C108.5,238.2,104.7,230.9,98.4,225z M67.3,260.1c0,3-2.4,5.5-5.5,5.5H48.6c-3,0-5.5-2.4-5.5-5.5v-1.9
		c0-3,2.4-5.5,5.5-5.5h13.2c3,0,5.5,2.4,5.5,5.5V260.1z M65.6,243H44.9c-1,0-1.8-0.8-1.8-1.8c0-1,0.8-1.8,1.8-1.8h20.7
		c1,0,1.8,0.8,1.8,1.8C67.4,242.2,66.6,243,65.6,243z M65.6,233.4H44.9c-1,0-1.8-0.8-1.8-1.8c0-1,0.8-1.8,1.8-1.8h20.7
		c1,0,1.8,0.8,1.8,1.8C67.4,232.6,66.6,233.4,65.6,233.4z M44.5,22.1c1.5,0,2.8-1.2,2.8-2.8c0-1.5-1.2-2.8-2.8-2.8
		c-1.5,0-2.8,1.2-2.8,2.8C41.7,20.8,43,22.1,44.5,22.1z M40.7,50l8.3,8.3v146.6h14.3V58.6l8-8.6l-3.4-16.5
		c-1.4-8.6-0.1-17.6,2.8-20.2c2.9-2.5,3.5-7.1,1.4-10.2c-2.2-3.1-7.1-2.8-11.1,0.6c-4,3.4-10.1,15.1-13.7,26.2
		C43.6,41,40.7,50,40.7,50z M47.3,13.2c1.5,0,2.8-1.2,2.8-2.8c0-1.5-1.2-2.8-2.8-2.8c-1.5,0-2.8,1.3-2.8,2.8
		C44.5,11.9,45.7,13.2,47.3,13.2z M41.7,31c1.5,0,2.8-1.2,2.8-2.8c0-1.5-1.3-2.8-2.8-2.8c-1.5,0-2.8,1.2-2.8,2.8
		C38.9,29.7,40.2,31,41.7,31z M38.9,39.9c1.5,0,2.8-1.2,2.8-2.8c0-1.5-1.2-2.8-2.8-2.8c-1.5,0-2.8,1.2-2.8,2.8
		C36.1,38.6,37.4,39.9,38.9,39.9z"/>
</g>
</svg>
