<?xml version="1.0" encoding="utf-8"?>
<!-- Generator: Adobe Illustrator 18.1.0, SVG Export Plug-In . SVG Version: 6.00 Build 0)  -->
<!DOCTYPE svg PUBLIC "-//W3C//DTD SVG 1.1//EN" "http://www.w3.org/Graphics/SVG/1.1/DTD/svg11.dtd">
<svg version="1.1" id="Layer_1" xmlns="http://www.w3.org/2000/svg" xmlns:xlink="http://www.w3.org/1999/xlink" x="0px" y="0px"
	 width="110px" height="126.2px" viewBox="0 0 110 126.2" enable-background="new 0 0 110 126.2" xml:space="preserve">
<g>
	<rect x="53.3" y="0.7" fill="#231F20" width="2.8" height="26.7"/>
	<g>
		<path fill="#231F20" d="M51.2,121.2c0.5,0,1,0.1,1.6,0.1c0,0,0.1,0,0.1,0c-0.8,0-1.4-0.1-2-0.1c-2.7-0.2-5.2-0.7-7.7-1.3
			c0.1,0,0.2,0.1,0.3,0.1c2.4,0.6,4.8,1,7.4,1.2C51,121.2,51.1,121.2,51.2,121.2z"/>
		<path fill="#231F20" d="M51.6,121.3C51.6,121.3,51.6,121.3,51.6,121.3c0.3,0,0.5,0,0.8,0.1C52.1,121.3,51.9,121.3,51.6,121.3z"/>
		<path fill="#231F20" d="M52.5,121.3c0.1,0,0.3,0,0.5,0c0,0-0.1,0-0.1,0C52.7,121.3,52.6,121.3,52.5,121.3z"/>
		<path fill="#231F20" d="M54.7,24.2c-27.6,0-50,22.4-50,50c0,27.6,22.4,50,50,50c27.6,0,50-22.4,50-50
			C104.8,46.6,82.4,24.2,54.7,24.2z M95.5,65.3c0.2,0,0.5,0,0.7,0l0.4,0c0.9,0.2,1.5,1.4,1.8,3.4c0.2,1.7,0.3,3.5,0.3,5.3
			c0,1.2,0,2.3-0.1,3.5c-0.2,2.1-0.8,3.2-1.7,3.4l-0.4,0c-0.2,0-0.5,0-0.7,0c-1-0.2-1.5-1.4-1.4-3.5c0.1-1.1,0.1-2.3,0.1-3.5
			c0-1.8-0.1-3.5-0.2-5.3C94.1,66.6,94.5,65.5,95.5,65.3z M97.2,86c-0.7,2.7-1.5,5.4-2.6,7.9c-0.9,1.8-1.7,2.8-2.6,2.9l-0.3,0
			c-0.2,0-0.4,0-0.6,0c-0.8-0.2-0.9-1.2-0.3-3c1-2.5,1.8-5.1,2.4-7.9c0.6-2,1.3-3.1,2.4-3.3c0.2,0,0.5,0,0.7,0l0.4,0
			C97.4,82.9,97.7,84,97.2,86z M83.5,37.6c0.5,0,0.8,0,0.9,0.1c0.1,0,0.3,0.2,1.4,1.2l2.3,2.1c1.7,1.7,1.7,1.8,4.7,5.5l0.1,0.1
			c1.2,1.6,1.2,1.9,1.3,2.1c-0.2,0-0.6-0.1-1.2-0.1c-0.6-0.2-1.4-1.1-2.6-2.7c-1.6-2.2-3.3-4.2-5.2-6.1
			C83.7,38.2,83.5,37.9,83.5,37.6L83.5,37.6z M74.7,107.1c1.2-2,2.2-4.1,3.2-6.4c0.8-1.7,1.9-2.6,3.3-2.8c1.8,0,3.5,0.1,5,0.1
			c1,0.2,1.1,1.1,0.3,2.8c-1.3,2.3-2.7,4.4-4.3,6.3c-1.2,1.4-2.3,2.1-3.3,2.2c-1.2,0-2.4,0-3.8-0.1C74.4,109.3,73.8,109,74.7,107.1z
			 M69.4,96.4c-1.6-0.2-2.4-1.1-2.3-3c0.3-2.5,0.6-5.2,0.8-7.9c0.3-2,1.4-3.1,3.3-3.3c2.5,0,4.9,0,7.3,0.1c1.7,0.2,2.4,1.3,2.3,3.4
			c-0.4,2.7-1,5.4-1.6,7.9c-0.6,1.8-1.7,2.8-3.3,2.9C73.8,96.5,71.7,96.4,69.4,96.4z M85.7,45.7c0.9,1.6,0.8,2.5-0.2,2.6
			c-1.5,0-3.1-0.1-4.9-0.1c-1.4-0.2-2.5-1.1-3.3-2.7c-1-2.2-2.1-4.2-3.3-6c-0.8-1.3-0.7-2,0.2-2.1c1.3,0,2.5,0,3.7,0.1
			c1,0.1,2.1,0.9,3.3,2.2C82.9,41.5,84.4,43.5,85.7,45.7z M68.5,29.6h0.1c0.2,0,1.1,0.2,3.4,1.2c2.4,1.1,4.7,2.4,6.8,3.9
			c0.6,0.4,1.9,1.4,1.8,1.8l-0.1,0l-0.2,0c-0.1,0-0.3,0-0.4,0c-0.7-0.1-1.7-0.7-3.3-1.9c-1.9-1.5-4-2.8-6.1-3.8
			c-1.7-0.8-1.8-0.9-2-1.1l0-0.1L68.5,29.6z M69.2,49.5c2.2,0,4.3,0,6.3,0.1c1.5,0.2,2.6,1.1,3.3,2.9c0.7,2.4,1.3,5,1.8,7.7
			c0.2,2-0.6,3-2.2,3.2c-2.3,0-4.7,0-7.2-0.1c-1.8-0.2-2.9-1.3-3.3-3.3c-0.2-2.7-0.5-5.3-0.9-7.7C66.9,50.6,67.6,49.6,69.2,49.5z
			 M53.8,30.6c0.3-1.1,1-1.1,1.2-1.1c0.9,0,1.8,0,2.7,0c0.7,0.1,1.3,0.5,1.8,1.1c0.7,1.1,1.3,2.3,1.9,3.8c0.3,1.1-0.1,1.7-1.2,1.8
			c-1.6,0-3.3,0-4.9,0c-1.2-0.1-1.8-0.7-1.8-1.9C53.5,32.9,53.6,31.7,53.8,30.6z M52.4,52.3c0.2-1.7,1.2-2.7,2.9-2.9
			c2.4,0,4.7,0,7,0c1.7,0.2,2.7,1.1,3.1,2.9c0.3,2.4,0.6,5,0.8,7.7c0,2-1,3-2.9,3.2c-2.6,0-5.3,0-8,0c-2-0.2-3-1.3-3.2-3.3
			C52.3,57.3,52.4,54.7,52.4,52.3z M52.9,116.6c0.1,1.1-0.5,1.3-0.9,1.4c-1,0-2,0-3,0c-0.8-0.1-1.6-0.5-2.4-1.4
			c-1-1.2-2-2.6-2.9-4.2c-0.6-1.2-0.2-1.9,1-2c1.7,0,3.5,0,5.2,0c1.3,0.1,2.1,0.8,2.3,2C52.4,114,52.6,115.4,52.9,116.6z M51.7,107
			c0,1.4-0.7,2.1-2,2.3c-1.8,0-3.6,0-5.4,0c-1.4-0.1-2.4-0.9-3.1-2.3c-0.8-2-1.5-4.1-2.1-6.4c-0.3-1.7,0.4-2.6,2.1-2.8
			c2.3,0,4.7,0,7.1,0c1.8,0.2,2.7,1.1,3,2.8C51.3,102.9,51.5,105,51.7,107z M28.7,110.5c0.8,0,1.8,0,2.9-0.1c0.9,0.1,1.9,0.7,3.3,2
			c1.6,1.6,3.4,3,5.2,4.2c1.5,1,1.6,1.2,1.6,1.3l-0.1,0c-0.6,0-1.2,0-1.7,0c-0.2,0-1.1-0.2-3.3-1.3c-2.3-1.2-4.4-2.6-6.4-4.2
			c-0.8-0.7-1.8-1.5-1.6-2L28.7,110.5z M27.8,96.5c-1.5-0.2-2.5-1.1-3.2-2.9c-0.8-2.5-1.5-5.2-2-7.9c-0.2-2,0.4-3.2,1.9-3.4
			c2.1,0,4.4,0,6.9-0.1c1.8,0.2,2.9,1.3,3.4,3.3c0.3,2.7,0.7,5.4,1.2,7.9c0.2,1.8-0.5,2.8-2.1,3C31.7,96.4,29.6,96.4,27.8,96.5z
			 M50.6,85.5c0.1,2.7,0.1,5.4,0.2,7.9c-0.1,1.8-1,2.8-2.8,3c-2.4,0-4.8,0-7.2,0c-1.8-0.2-2.9-1.1-3.4-3c-0.5-2.5-0.8-5.2-1.1-7.9
			c0-2.1,0.9-3.2,2.9-3.4c2.7,0,5.4,0,8.1,0C49.3,82.4,50.4,83.4,50.6,85.5z M47.1,29.5c0.7,0-0.1,0.9-0.4,1.1
			c-1.1,1.1-2.2,2.3-3.2,3.8c-0.9,1.1-1.9,1.7-3,1.9c-1.5,0-2.9,0-4.2,0c-0.3,0-1.2-0.2,0.4-1.8c1.6-1.5,3.3-2.8,5.2-3.8
			c1.6-0.9,2.6-1.1,3-1.2C45.5,29.5,46.3,29.5,47.1,29.5z M31.5,34.6c2.1-1.5,4.3-2.8,6.6-3.8c2.2-1,3.1-1.2,3.3-1.2
			c0.4,0,0.9,0,1.5,0l0.1,0.1c-0.2,0.2-0.4,0.3-1.6,1.1c-1.9,1.1-3.6,2.3-5.3,3.8c-1.4,1.2-2.4,1.7-3.3,1.9c-1.1,0-2,0-2.8,0.1
			l-0.1,0C29.7,35.9,31,35,31.5,34.6z M28.2,45.5c1.2-2.2,2.5-4.2,3.9-6c1.1-1.3,2.2-2,3.3-2.1c1.3,0,2.8,0,4.4,0
			c0.7,0.1,1.5,0.4,0.9,2.1c-0.9,1.8-1.7,3.9-2.4,6c-0.7,1.6-1.8,2.5-3.4,2.7c-2.1,0-4.1,0-5.9,0.1C28.5,48.1,27.1,47.9,28.2,45.5z
			 M31.4,64.9c1.8,0.2,2.7,1.3,2.8,3.4c-0.1,1.7-0.1,3.5-0.1,5.3c0,1.2,0,2.3,0,3.5c-0.1,2.1-1.1,3.2-2.9,3.5c-2.5,0-4.8,0-6.9,0.1
			c-1.6-0.2-2.4-1.3-2.7-3.4c-0.1-1.2-0.1-2.3-0.1-3.5c0-1.8,0.1-3.6,0.2-5.3c0.3-2.1,1.2-3.2,2.8-3.4C26.6,65,28.9,65,31.4,64.9z
			 M19.5,49.7c1.1,0,2.5-0.1,4-0.1c1,0.2,1.3,1.1,0.7,2.8c-0.9,2.4-1.7,5-2.3,7.7c-0.6,2-1.5,3.1-2.8,3.3c-1.7,0-3.2,0.1-4.5,0.1
			c-0.9-0.2-1.1-1.2-0.7-3.2c0.7-2.7,1.7-5.3,2.8-7.7C17.6,50.8,18.5,49.9,19.5,49.7z M8.8,63.6c0.1-0.3,0.2-0.6,0.3-1
			c0.3-1.1,0.6-2.3,0.9-3.2c0.6-1.9,1-2.8,2.9-6.8l0.8-1.5c0.2-0.3,0.4-0.7,0.5-0.9l-0.5,0.9c-0.4,0.7-0.7,1.4-0.9,1.7
			c-1.3,2.5-2.3,5-3.1,7.7c-0.1,0.4-0.4,1.2-0.6,2c-0.1,0.4-0.2,0.8-0.3,1.1L8.8,63.6z M8.1,81L8,80.3c-0.2-1.8-0.3-4.3-0.4-6.1
			c0-2.5,0-2.6,0.6-7.6l0.2-0.9c-0.1,0.8-0.3,2.5-0.4,3.2c-0.2,1.7-0.3,3.5-0.3,5.3c0,1.2,0,2.3,0.1,3.5C8,80.1,8.1,80.8,8.1,81
			L8.1,81z M11.7,68.6c-0.2,1.7-0.3,3.5-0.3,5.3c0,1.2,0,2.3,0.1,3.5c0.1,2.1-0.2,3.2-0.8,3.5c-0.9,0-1.5,0.1-2,0.1
			c-0.3-0.2-0.6-1.3-0.8-3.4c-0.1-1.2-0.1-2.3-0.1-3.5c0-1.8,0.1-3.5,0.3-5.3c0.3-2.1,0.6-3.2,0.9-3.4c0.4,0,1.1-0.1,2-0.1
			C11.6,65.5,11.8,66.6,11.7,68.6z M11.3,63.6c-0.9,0-1.5,0.1-2,0.1c-0.3-0.2-0.1-1.2,0.5-3.2c0.8-2.7,1.9-5.3,3.1-7.7
			c0.9-1.7,1.6-2.7,1.9-2.9c0.4,0,0.9-0.1,1.7-0.1c0.5,0.1,0.3,1-0.5,2.8c-1.2,2.5-2.1,5-2.9,7.7C12.6,62.3,12,63.4,11.3,63.6z
			 M12.1,73.9c0-1.8,0.1-3.5,0.3-5.3c0.3-2.1,0.9-3.2,1.9-3.4c1.3,0,2.8-0.1,4.5-0.1c1.2,0.2,1.8,1.3,1.8,3.4
			c-0.1,1.7-0.2,3.5-0.2,5.3c0,1.2,0,2.3,0.1,3.5c0,2.1-0.6,3.2-1.9,3.5c-1.7,0-3.3,0.1-4.6,0.1c-1-0.2-1.6-1.3-1.8-3.4
			C12.1,76.2,12.1,75.1,12.1,73.9z M14.2,82.4c1.3,0,2.8-0.1,4.5-0.1c1.3,0.2,2.2,1.3,2.7,3.3c0.5,2.7,1.2,5.4,2,7.9
			c0.5,1.8,0.2,2.8-0.8,3c-1.5,0-2.9,0.1-4.1,0.1c-1-0.2-1.8-1.1-2.7-2.9c-1.4-3.3-1.5-3.2-1.5-3.1c0,0,0,0,0,0c0-0.1-0.1-0.9-1-4.8
			C13,83.8,13.3,82.7,14.2,82.4z M20.3,106.4c-1.6-1.7-1.7-1.8-4.5-5.6l-1.5-2.4c0.2,0.4,0.8,1.2,1.8,2.7c1.6,2.3,3.3,4.4,5.2,6.3
			c0.6,0.6,1.3,1.3,2.3,2.3C22.6,108.7,21.3,107.4,20.3,106.4z M21.4,107.4c-1.9-1.9-3.7-4.1-5.2-6.3c-0.6-1-1.4-2.1-1.5-2.7
			l0.1-0.1c0.4,0,0.9-0.1,1.7-0.1c0.7,0.2,1.5,1,2.6,2.7c1.4,2.3,3.1,4.4,4.8,6.3c1.4,1.5,1.5,2,1.5,2.2l-0.1,0.1
			c-0.6,0-1,0-1.3,0.1C23.9,109.5,23.3,109.2,21.4,107.4z M38,118.2c0,0-0.8-0.2-3.1-1.2c0.9,0.4,1.7,0.8,2.5,1.1
			c0.1,0.1,0.3,0.1,0.4,0.2l0,0c-0.1-0.1-0.3-0.1-0.4-0.2c-2-0.8-2-0.9-2.7-1.2c-0.3-0.1-0.5-0.3-0.8-0.4c-0.8-0.4-1.5-0.7-2.2-1.1
			c-2.3-1.3-2.3-1.3-6-4l-0.6-0.5c0,0,0,0-0.1,0l0,0l0.1,0.1c1.2,0.9,1.7,1.3,2.5,1.9c2,1.4,4.1,2.6,6.3,3.7
			c0.3,0.1,0.5,0.3,0.8,0.4c-2.5-1.2-4.8-2.6-7-4.1c-2.1-1.5-2.3-1.9-2.3-2c0.3,0,0.7,0,1.3-0.1c0.5,0.1,1.4,0.7,3.1,2
			c2.1,1.6,4.2,3,6.5,4.2c2.3,1.2,2.3,1.2,2.4,1.4C38.3,118.1,38.1,118.1,38,118.2z M54.5,121.4l-0.2,0h0h-0.1h0l-0.2,0
			c-0.1,0-0.1,0-0.2,0c0,0-0.1,0-0.1,0l0,0c-0.1,0-0.3,0-0.4,0c-0.7,0-1,0-1.5-0.1c-0.2,0-0.4,0-0.5,0c-0.3,0-0.6-0.1-1-0.1
			c0.2,0,0.2,0,0.4,0c-0.4,0-0.7-0.1-1.1-0.1c-1.8-0.2-2.1-0.3-3.9-0.6c-0.6-0.1-1.3-0.3-2-0.5c-0.3-0.1-0.7-0.1-1-0.2
			c-1.1-0.3-1.7-0.5-3-0.9c-0.1,0-0.1,0-0.2-0.1l0.1,0c0.1,0,0.1,0,0.1,0c0.5,0.1,0.9,0.3,1.4,0.4c-0.8-0.3-1.2-0.4-1.4-0.5
			c0.1,0,0.4,0,0.7,0c0.1,0,0.1,0,3.3,1c2.5,0.7,5.1,1.3,7.8,1.5c0.8,0.1,1.7,0.1,3.1,0.2c-1.4,0-2.3-0.1-3-0.2
			c-2.6-0.2-5.2-0.8-7.6-1.5c-0.7-0.2-1.7-0.5-2.4-0.9l0-0.1c0.4,0,0.9,0,1.5,0c0.6,0.1,1.4,0.4,3.1,1c2,0.8,4,1.3,6.2,1.5
			C52.7,121.3,53.3,121.3,54.5,121.4L54.5,121.4L54.5,121.4L54.5,121.4L54.5,121.4L54.5,121.4L54.5,121.4L54.5,121.4
			c-0.2,0-0.4,0-0.5,0H54C54.2,121.4,54.3,121.4,54.5,121.4L54.5,121.4L54.5,121.4l0.1,0L54.5,121.4L54.5,121.4z M54.7,121.4
			L54.7,121.4h-0.2H54.7L54.7,121.4L54.7,121.4L54.7,121.4L54.7,121.4z M54.9,121.4L54.9,121.4L54.9,121.4l-0.2,0h0L54.9,121.4
			L54.9,121.4H55H54.9z M52.8,107c-0.1-2-0.2-4.1-0.3-6.4c0.1-1.7,1-2.6,2.8-2.8c2.4,0,4.7,0,7,0c1.7,0.2,2.4,1.1,2.3,2.8
			c-0.4,2.3-0.9,4.4-1.4,6.4c-0.5,1.4-1.4,2.1-2.7,2.3c-1.8,0-3.6,0-5.4,0C53.8,109.1,53,108.4,52.8,107z M60.7,118
			c-0.4-0.1-0.8-0.3-0.2-1.4c0.7-1.2,1.4-2.6,2.1-4.2c0.6-1.3,1.5-1.9,2.7-2c1.6,0,3.2,0,4.7,0c1,0.1,1.1,0.8,0.2,2
			c-1.3,1.6-2.6,3-4.1,4.2c-1.3,1-2.2,1.3-2.8,1.3C62.5,118,61.6,118,60.7,118z M65.8,118.1l-0.2-0.1c0-0.3,0.3-0.6,1.1-1.3
			c1.5-1.2,2.9-2.6,4.3-4.2c1.1-1.3,2.1-1.9,3.2-2c1.3,0,2.5,0,3.7,0.1c0.3,0,1,0.3-0.9,2c-1.8,1.6-3.8,3-5.9,4.2
			c-2,1.1-3,1.3-3.3,1.3C67.2,118.1,66.5,118.1,65.8,118.1z M69.8,118.1l-0.3,0l-0.1,0c0.1-0.1,0.3-0.3,2-1.3c2.1-1.2,4.1-2.6,6-4.2
			c1.6-1.3,2.6-1.9,3.3-2c0.2,0,0.3,0,0.5,0l0.2,0l0.1,0c0.1,0.5-1.2,1.5-1.7,2c-2.1,1.6-4.3,3-6.6,4.2c-2.3,1.1-3.2,1.3-3.4,1.3
			L69.8,118.1z M81.8,112.8c-2.1,1.5-4.3,2.8-6.6,3.9c0.1,0,0.1-0.1,0.2-0.1c1.1-0.5,2.1-1,3.1-1.6l-1.5,0.8c-0.5,0.3-1,0.5-1.6,0.8
			c-0.2,0.1-0.5,0.3-0.7,0.4c-0.5,0.2-1.1,0.5-1.6,0.7c0.1-0.1,0.3-0.1,0.5-0.2c-1.4,0.6-2,0.8-2,0.8c-0.1,0-0.2,0-0.5-0.1
			c0.2-0.1,0.2-0.1,2.6-1.3c2.4-1.2,4.6-2.6,6.7-4.2c1.8-1.3,2.6-1.9,3.1-2c0.5,0,0.8,0.1,0.9,0.1C83.7,111.4,82.3,112.4,81.8,112.8
			z M93.4,101.2c-1.6,2.2-3.3,4.4-5.3,6.3c-1.9,1.8-2.4,2.2-2.5,2.2c-0.1,0-0.5-0.1-0.9-0.1l-0.1,0c0-0.3,0.3-0.8,1.7-2.2
			c1.8-1.9,3.5-4.1,5-6.3c1.2-1.7,2-2.6,2.6-2.7c0.6,0,1,0.1,1.2,0.1C95,98.6,94.8,99.1,93.4,101.2z M100.3,86.3
			c-0.7,2.7-1.7,5.3-2.8,7.8c-0.8,1.8-1.4,2.8-1.6,2.9c-0.2,0-0.6-0.1-1.2-0.1c-0.4-0.2-0.2-1.2,0.5-3c1.1-2.5,2-5.1,2.7-7.9
			c0.6-2,1.1-3.1,1.7-3.3c0.7,0,1.2,0.1,1.4,0.1C101,83.1,100.8,84.2,100.3,86.3z M101.2,81.2c-0.2,0-0.7-0.1-1.4-0.1
			c-0.5-0.2-0.7-1.3-0.6-3.5c0.1-1.1,0.1-2.3,0.1-3.5c0-1.8-0.1-3.5-0.3-5.3c-0.2-2.1,0-3.2,0.5-3.3c0.7,0,1.2,0.1,1.4,0.1
			c0.2,0.2,0.4,1.4,0.6,3.4c0.2,1.7,0.3,3.5,0.3,5.3c0,1.2,0,2.3-0.1,3.5C101.6,79.9,101.4,81,101.2,81.2z"/>
	</g>
</g>
</svg>
