<?xml version="1.0" encoding="utf-8"?>
<!-- Generator: Adobe Illustrator 18.1.0, SVG Export Plug-In . SVG Version: 6.00 Build 0)  -->
<!DOCTYPE svg PUBLIC "-//W3C//DTD SVG 1.1//EN" "http://www.w3.org/Graphics/SVG/1.1/DTD/svg11.dtd">
<svg version="1.1" id="Layer_1" xmlns="http://www.w3.org/2000/svg" xmlns:xlink="http://www.w3.org/1999/xlink" x="0px" y="0px"
	 width="110px" height="249.7px" viewBox="0 0 110 249.7" enable-background="new 0 0 110 249.7" xml:space="preserve">
<g>
	<path fill="#231F20" d="M106.8,204.1l0-0.7c0-35.6-35.5-67.5-46.2-76.4l-3.1-92.8L47,34.4L46.9,127c-4.3,3.5-12.4,10.5-20.4,20.2
		c-15.3,18.4-23.3,38.2-23.3,57.3l0,1.1C3.4,220,9,230.9,19.8,237.9c8.9,5.8,21,8.6,35.8,8.3C88.3,245.7,106.5,230.8,106.8,204.1z
		 M48.8,125.5l-0.3-91h0.7l0.3,90.5l0,3.2l0,5l0.1,17.9c0.8-0.3,1.7-0.5,2.6-0.6l-0.2-19.3l-0.1-4.8l0-3.1l-1.1-88.8l0.7,0l1.1,88.4
		l0,3.1l0.1,4.7l0.2,19.8c0.4,0,0.9-0.1,1.3-0.1c0.4,0,0.9,0,1.3,0L55,130.7l-0.1-5l-0.1-3.2l-1.8-88.1l0.7,0l1.8,88.7l0.1,3.2
		l0.1,5l0.4,19.1c0.9,0.1,1.8,0.3,2.6,0.5l-0.5-17.5l-0.1-5.2l-0.1-3.3l-2.6-90.5l0.7,0l2.6,91.1l0.1,3.3l0.1,5.2l0.5,17.1
		c0.7,0.2,1.4,0.5,2,0.8c5.4,2.6,9.2,8.1,9.3,14.5c0.1,7.1-4.3,13.2-10.5,15.6l0.2,7.1l17.2-0.3l0.1,3.3l-17.1,0.3l0.9,31.8
		c0.4,0.7,0.8,1.5,1,2.3c1.6-0.2,3.1-0.5,4.7-0.9c0.8-0.1,3.9,0.6,5,1.7c0.9,0.9,0.9,1.4,0,2.4c-1,1.1-4.1,2-4.9,1.8
		c-1.7-0.4-3.3-0.8-4.9-1c-0.9,3.1-3.8,5.5-7.2,5.5c-3.4,0.1-6.3-2.1-7.3-5.2c-1.4,0.3-2.8,0.6-4.3,1c-0.8,0.2-3.9-0.6-5-1.6
		c-0.9-1-0.9-1.4,0-2.4c1-1.1,4.1-2,4.9-1.8c1.4,0.3,2.8,0.5,4.1,0.7c0.3-1.2,0.8-2.3,1.6-3.2L49,192.6l-17.2,0.3l0-3.3l17.2-0.3
		l0-7.1c-6.3-2.2-10.9-8.1-11-15.2c-0.1-6.4,3.5-12.1,8.9-14.8c0.6-0.3,1.3-0.6,2-0.9l-0.1-17.6l0-5L48.8,125.5z M21.2,235.8
		c-10.1-6.6-15.3-16.7-15.5-30.3c-0.3-18.8,7.5-38.4,22.7-56.8c7-8.5,14-14.9,18.5-18.5l0,5.1c-12.6,11-37.9,37.3-37.4,70.1
		c0,0.3,0,0.6,0,0.9c0.9,25.2,21.2,33.9,46,33.5c25.1-0.4,44.5-9.9,44.9-35.9c0.1-6.4-1.1-12.7-3.2-18.7
		c-7.5-21.6-26-40.4-36.3-49.6l-0.2-5.3c12.2,10.4,44,40.6,43.6,73.7c-0.3,25.1-17.6,39.2-48.7,39.7C41.2,244,29.6,241.3,21.2,235.8
		z M54.7,183.1c-0.5,0-1,0-1.4,0l0.1,6.1l2.9,0l-0.1-6.1C55.6,183.1,55.1,183.1,54.7,183.1z M57.5,221.1c1.3,0.4,2.4,1.2,3.3,2.2
		l-0.9-30.9l-3,0L57.5,221.1z M56.9,189.2l2.9,0l-0.2-6.8c-0.9,0.3-1.9,0.5-2.9,0.7L56.9,189.2z M49.7,182.4l0,6.8l2.9,0l-0.1-6.2
		C51.6,182.9,50.6,182.7,49.7,182.4z M52.7,192.6l-3,0l0.1,30.2c0.9-0.8,2-1.5,3.2-1.8L52.7,192.6z M54.9,220.7
		c0.7,0,1.3,0.1,1.9,0.2l-0.6-28.4l-3,0l0.3,28.3C54.1,220.8,54.5,220.7,54.9,220.7z M59.5,178.4l-0.7-23.7
		c-0.8-0.3-1.7-0.5-2.7-0.7l0.5,25.2C57.7,179.1,58.6,178.8,59.5,178.4z M41.6,166.9c0.1,5,3.1,9.3,7.4,11.3l-0.1-23.1
		C44.5,157.3,41.5,161.8,41.6,166.9z M49.6,154.9l0.1,23.7c0.9,0.4,1.9,0.6,2.9,0.7l-0.3-25.2C51.3,154.3,50.4,154.5,49.6,154.9z
		 M53.2,179.4c0.5,0,0.9,0.1,1.4,0.1c0.5,0,1-0.1,1.4-0.2L55.5,154c-0.4,0-0.9-0.1-1.3-0.1c-0.5,0-0.9,0.1-1.3,0.2L53.2,179.4z
		 M67.2,166.5c-0.1-5.2-3.2-9.5-7.7-11.5l0.7,23.1C64.4,175.9,67.3,171.6,67.2,166.5z M59,5.8L44.4,6l2.5,26.1l10.5-0.2L59,5.8z
		 M43.5,8.9c0-1.1-0.9-2.1-2.1-2.1c-1.1,0-2.1,0.9-2.1,2.1c0,1.1,0.9,2.1,2.1,2.1C42.6,10.9,43.5,10,43.5,8.9z M44.2,15.8
		c0-1.1-0.9-2.1-2.1-2.1c-1.1,0-2.1,0.9-2.1,2.1c0,1.1,0.9,2.1,2.1,2.1C43.3,17.9,44.2,16.9,44.2,15.8z M45,22.7
		c0-1.1-0.9-2.1-2.1-2.1c-1.1,0-2.1,0.9-2.1,2.1c0,1.1,0.9,2.1,2.1,2.1C44.1,24.8,45,23.8,45,22.7z M45.8,29.6
		c0-1.1-0.9-2.1-2.1-2.1c-1.1,0-2.1,0.9-2.1,2.1c0,1.1,0.9,2.1,2.1,2.1C44.8,31.7,45.8,30.8,45.8,29.6z M60.2,8.6c0,1.1,1,2,2.1,2
		c1.1,0,2-1,2-2.1c0-1.1-1-2-2.1-2C61.1,6.5,60.2,7.5,60.2,8.6z M59.7,15.5c0,1.1,1,2,2.1,2c1.1,0,2-1,2-2.1c0-1.1-1-2-2.1-2
		C60.6,13.4,59.7,14.4,59.7,15.5z M59.2,22.5c0,1.1,1,2,2.1,2c1.1,0,2-1,2-2.1c0-1.1-1-2-2.1-2C60,20.4,59.1,21.3,59.2,22.5z
		 M58.6,29.4c0,1.1,1,2,2.1,2c1.1,0,2-1,2-2.1c0-1.1-1-2-2.1-2C59.5,27.3,58.6,28.3,58.6,29.4z"/>
</g>
</svg>
