<?xml version="1.0" encoding="UTF-8" standalone="no"?>
<svg width="151px" height="349px" viewBox="0 0 151 349" version="1.1" xmlns="http://www.w3.org/2000/svg" xmlns:xlink="http://www.w3.org/1999/xlink" xmlns:sketch="http://www.bohemiancoding.com/sketch/ns">
    <!-- Generator: Sketch 3.1.1 (8761) - http://www.bohemiancoding.com/sketch -->
    <title>music_lute</title>
    <desc>Created with Sketch.</desc>
    <defs></defs>
    <g id="Page-1" stroke="none" stroke-width="1" fill="none" fill-rule="evenodd" sketch:type="MSPage">
        <g id="music_lute" sketch:type="MSLayerGroup" transform="translate(0.000000, 1.000000)" fill="#231F20">
            <path d="M150.171429,286.885714 L150.171429,285.857143 C150.171429,234.257143 98.7428571,188.057143 83.2285714,175.285714 L78.7714286,40.9714286 L63.5142857,41.2285714 L63.3428571,175.285714 C57.0857143,180.342857 45.4285714,190.457143 33.7714286,204.514286 C11.6571429,231.171429 0,259.885714 0,287.4 L0,289.028571 C0.342857143,309.942857 8.48571429,325.714286 24.1714286,335.828571 C37.0285714,344.228571 54.5142857,348.257143 76.0285714,347.914286 C123.342857,347.228571 149.657143,325.542857 150.171429,286.885714 L150.171429,286.885714 Z M66.0857143,173.142857 L65.5714286,41.4 L66.5142857,41.4 L67.0285714,172.457143 L67.0285714,177.085714 L67.0285714,184.285714 L67.1142857,210.257143 C68.3142857,209.914286 69.6,209.571429 70.8857143,209.4 L70.5428571,181.457143 L70.4571429,174.514286 L70.3714286,170.057143 L68.8285714,41.4857143 L69.7714286,41.4857143 L71.3142857,169.371429 L71.4,173.828571 L71.4857143,180.685714 L71.8285714,209.314286 C72.4285714,209.228571 73.0285714,209.228571 73.7142857,209.228571 C74.3142857,209.228571 75,209.228571 75.6,209.314286 L75,180.942857 L74.8285714,173.742857 L74.7428571,169.114286 L72.1714286,41.5714286 L73.2,41.5714286 L75.7714286,169.885714 L75.8571429,174.514286 L76.0285714,181.714286 L76.6285714,209.4 C77.9142857,209.571429 79.2,209.742857 80.4,210.085714 L79.7142857,184.714286 L79.4571429,177.257143 L79.2857143,172.457143 L75.6857143,41.2285714 L76.7142857,41.1428571 L80.4857143,172.971429 L80.6571429,177.771429 L80.9142857,185.314286 L81.6,210.085714 C82.6285714,210.428571 83.5714286,210.771429 84.5142857,211.285714 C92.4,215.057143 97.8857143,223.028571 98.0571429,232.371429 C98.2285714,242.571429 91.8857143,251.4 82.8857143,254.914286 L83.1428571,265.2 L108,264.771429 L108.085714,269.571429 L83.2285714,270 L84.5142857,316.028571 C85.2,317.057143 85.6285714,318.171429 85.9714286,319.371429 C88.2,319.028571 90.5142857,318.6 92.8285714,318 C94.0285714,317.828571 98.4857143,318.857143 100.028571,320.4 C101.4,321.771429 101.4,322.457143 100.114286,323.914286 C98.6571429,325.542857 94.2,326.742857 93,326.571429 C90.5142857,325.885714 88.2,325.457143 85.8857143,325.114286 C84.5142857,329.657143 80.4,333 75.4285714,333.085714 C70.5428571,333.171429 66.3428571,330 64.8,325.628571 C62.7428571,326.057143 60.7714286,326.485714 58.6285714,327.171429 C57.4285714,327.428571 52.9714286,326.314286 51.4285714,324.771429 C50.0571429,323.4 50.0571429,322.714286 51.3428571,321.257143 C52.8,319.628571 57.2571429,318.428571 58.4571429,318.6 C60.5142857,319.028571 62.4857143,319.371429 64.3714286,319.628571 C64.7142857,317.914286 65.5714286,316.371429 66.6,315 L66.4285714,270.257143 L41.5714286,270.685714 L41.4857143,265.885714 L66.3428571,265.457143 L66.3428571,255.171429 C57.2571429,252 50.5714286,243.428571 50.4,233.142857 C50.2285714,223.8 55.5428571,215.657143 63.2571429,211.628571 C64.2,211.114286 65.1428571,210.685714 66.1714286,210.342857 L66.0857143,184.885714 L66.0857143,177.685714 L66.0857143,173.142857 L66.0857143,173.142857 Z M26.1428571,332.828571 C11.5714286,323.314286 4.02857143,308.571429 3.68571429,289.028571 C3.25714286,261.857143 14.5714286,233.4 36.6,206.828571 C46.8,194.571429 56.9142857,185.314286 63.3428571,180 L63.3428571,187.371429 C45.1714286,203.314286 8.48571429,241.371429 9.25714286,288.857143 C9.25714286,289.285714 9.25714286,289.8 9.34285714,290.228571 C10.6285714,326.742857 40.0285714,339.257143 75.9428571,338.657143 C112.285714,338.057143 140.4,324.342857 140.914286,286.714286 C141.085714,277.457143 139.285714,268.371429 136.2,259.628571 C125.4,228.342857 98.4857143,201.171429 83.6571429,187.885714 L83.4,180.171429 C101.057143,195.171429 147.171429,238.885714 146.485714,286.8 C145.971429,323.142857 120.942857,343.542857 75.9428571,344.228571 C55.1142857,344.657143 38.4,340.8 26.1428571,332.828571 L26.1428571,332.828571 Z M74.5714286,256.542857 C73.8857143,256.542857 73.2,256.542857 72.5142857,256.457143 L72.6,265.371429 L76.8,265.285714 L76.6285714,256.371429 C75.9428571,256.457143 75.2571429,256.542857 74.5714286,256.542857 L74.5714286,256.542857 Z M78.7714286,311.571429 C80.6571429,312.171429 82.2,313.285714 83.4857143,314.742857 L82.2,270 L77.9142857,270.085714 L78.7714286,311.571429 L78.7714286,311.571429 Z M77.8285714,265.285714 L82.0285714,265.2 L81.7714286,255.257143 C80.4857143,255.685714 79.0285714,256.028571 77.6571429,256.2 L77.8285714,265.285714 L77.8285714,265.285714 Z M67.3714286,255.514286 L67.3714286,265.457143 L71.5714286,265.371429 L71.4857143,256.371429 C70.1142857,256.2 68.6571429,255.942857 67.3714286,255.514286 L67.3714286,255.514286 Z M71.6571429,270.257143 L67.3714286,270.342857 L67.5428571,314.057143 C68.8285714,312.857143 70.3714286,311.914286 72.1714286,311.485714 L71.6571429,270.257143 L71.6571429,270.257143 Z M75,310.971429 C75.9428571,310.971429 76.8857143,311.142857 77.8285714,311.314286 L76.9714286,270.171429 L72.6857143,270.257143 L73.2,311.228571 C73.7142857,311.057143 74.3142857,310.971429 75,310.971429 L75,310.971429 Z M81.6,249.771429 L80.6571429,215.485714 C79.4571429,215.057143 78.1714286,214.714286 76.8,214.542857 L77.5714286,250.971429 C78.9428571,250.714286 80.3142857,250.371429 81.6,249.771429 L81.6,249.771429 Z M55.6285714,233.057143 C55.7142857,240.342857 60.0857143,246.6 66.3428571,249.514286 L66.2571429,216.085714 C59.9142857,219.171429 55.5428571,225.6 55.6285714,233.057143 L55.6285714,233.057143 Z M67.2,215.657143 L67.3714286,250.028571 C68.6571429,250.542857 70.0285714,250.885714 71.4857143,251.057143 L71.0571429,214.542857 C69.6857143,214.8 68.4,215.142857 67.2,215.657143 L67.2,215.657143 Z M72.4285714,251.142857 C73.1142857,251.228571 73.8,251.314286 74.4857143,251.314286 C75.1714286,251.314286 75.8571429,251.142857 76.5428571,251.057143 L75.7714286,214.371429 C75.1714286,214.285714 74.4857143,214.2 73.8857143,214.2 C73.2,214.2 72.6,214.371429 72,214.457143 L72.4285714,251.142857 L72.4285714,251.142857 Z M92.7428571,232.457143 C92.6571429,225 88.1142857,218.657143 81.6857143,215.828571 L82.6285714,249.171429 C88.7142857,246.085714 92.8285714,239.828571 92.7428571,232.457143 L92.7428571,232.457143 Z M80.9142857,-0.171428571 L59.7428571,0.171428571 L63.3428571,37.9714286 L78.6,37.7142857 L80.9142857,-0.171428571 L80.9142857,-0.171428571 Z M58.3714286,4.28571429 C58.3714286,2.65714286 57.0857143,1.28571429 55.3714286,1.28571429 C53.7428571,1.28571429 52.3714286,2.65714286 52.3714286,4.28571429 C52.3714286,5.91428571 53.7428571,7.28571429 55.3714286,7.28571429 C57.0857143,7.28571429 58.4571429,5.91428571 58.3714286,4.28571429 L58.3714286,4.28571429 Z M59.4857143,14.3142857 C59.4857143,12.6857143 58.1142857,11.3142857 56.4857143,11.3142857 C54.8571429,11.3142857 53.4857143,12.6857143 53.4857143,14.3142857 C53.4857143,15.9428571 54.8571429,17.3142857 56.4857143,17.3142857 C58.2,17.3142857 59.4857143,15.9428571 59.4857143,14.3142857 L59.4857143,14.3142857 Z M60.6,24.2571429 C60.6,22.6285714 59.2285714,21.2571429 57.6,21.2571429 C55.9714286,21.2571429 54.6,22.6285714 54.6,24.2571429 C54.6,25.8857143 55.9714286,27.2571429 57.6,27.2571429 C59.2285714,27.2571429 60.6,25.9714286 60.6,24.2571429 L60.6,24.2571429 Z M61.7142857,34.2857143 C61.7142857,32.6571429 60.3428571,31.2857143 58.7142857,31.2857143 C57.0857143,31.2857143 55.7142857,32.6571429 55.7142857,34.2857143 C55.7142857,35.9142857 57.0857143,37.2857143 58.7142857,37.2857143 C60.3428571,37.2857143 61.7142857,36 61.7142857,34.2857143 L61.7142857,34.2857143 Z M82.6285714,3.85714286 C82.7142857,5.48571429 84.0857143,6.77142857 85.7142857,6.77142857 C87.3428571,6.68571429 88.6285714,5.31428571 88.6285714,3.68571429 C88.5428571,2.05714286 87.1714286,0.771428571 85.5428571,0.771428571 C83.9142857,0.857142857 82.6285714,2.22857143 82.6285714,3.85714286 L82.6285714,3.85714286 Z M81.8571429,13.8857143 C81.8571429,15.5142857 83.3142857,16.8 84.9428571,16.8 C86.5714286,16.7142857 87.8571429,15.3428571 87.8571429,13.7142857 C87.7714286,12.0857143 86.4,10.8 84.7714286,10.8 C83.1428571,10.8857143 81.8571429,12.2571429 81.8571429,13.8857143 L81.8571429,13.8857143 Z M81.0857143,24 C81.1714286,25.6285714 82.5428571,26.9142857 84.1714286,26.9142857 C85.8,26.8285714 87.0857143,25.4571429 87.0857143,23.8285714 C87,22.2 85.6285714,20.9142857 84,20.9142857 C82.3714286,20.9142857 81.0857143,22.2857143 81.0857143,24 L81.0857143,24 Z M80.3142857,34.0285714 C80.4,35.6571429 81.7714286,36.9428571 83.4,36.9428571 C85.0285714,36.8571429 86.3142857,35.4857143 86.3142857,33.8571429 C86.2285714,32.2285714 84.8571429,30.9428571 83.2285714,30.9428571 C81.6,30.9428571 80.2285714,32.4 80.3142857,34.0285714 L80.3142857,34.0285714 Z" id="Shape" sketch:type="MSShapeGroup"></path>
        </g>
    </g>
</svg>