<?xml version="1.0" encoding="utf-8"?>
<!-- Generator: Adobe Illustrator 18.1.0, SVG Export Plug-In . SVG Version: 6.00 Build 0)  -->
<!DOCTYPE svg PUBLIC "-//W3C//DTD SVG 1.1//EN" "http://www.w3.org/Graphics/SVG/1.1/DTD/svg11.dtd">
<svg version="1.1" id="Layer_1" xmlns="http://www.w3.org/2000/svg" xmlns:xlink="http://www.w3.org/1999/xlink" x="0px" y="0px"
	 width="110px" height="115.1px" viewBox="0 0 110 115.1" enable-background="new 0 0 110 115.1" xml:space="preserve">
<path fill="#231F20" d="M42.4,107.7c-3,0.3-6.3,0.2-9.7-0.2c-7.5-0.9-13.9-3.1-18.9-6.6C7,96,6.1,91,6.4,87.7
	c0.4-3.3,2.5-8,10.2-11.1c3.1-1.3,6.5-2.1,10.2-2.4c3-0.3,6.3-0.2,9.7,0.2c6.2,0.7,11.6,2.3,15.9,4.8l2.5,1.4l0.4-2.9l7.5-65.5
	L63.3,7l0.1-0.5c0.4-4.1,1.8-6.2,4.1-6.4l0.4,0l0.3,0.1c1.8,0.2,2.6,1.8,4.1,5.7l0.2,0.5c0.4,0.9,0.7,1.7,1,2.5
	c3.1,6.4,9.3,15.8,20.6,23.6c8.5,5.9,11.4,17.4,8.1,32.3c-2.2,9.9-5.7,17.5-8.3,17.9c0,0,0,0,0,0c-1,0.1-1.7-0.2-2.3-0.7
	c-1.2-1.1-1.3-2.6-1.3-6.2c-0.1-5.3-0.2-14-5.6-17.8c-2.3-1.6-4.9-2.7-7.7-3.8c-2.1-0.9-4.4-1.8-6.6-3l-2.5-1.5l-0.3,2.9l-4.8,41.6
	c-0.4,3.3-2.5,8-10.1,11.1C49.5,106.5,46,107.3,42.4,107.7L42.4,107.7z"/>
</svg>
