<?xml version="1.0" encoding="UTF-8" standalone="no"?>
<svg width="152px" height="169px" viewBox="0 0 152 169" version="1.1" xmlns="http://www.w3.org/2000/svg" xmlns:xlink="http://www.w3.org/1999/xlink" xmlns:sketch="http://www.bohemiancoding.com/sketch/ns">
    <!-- Generator: Sketch 3.1.1 (8761) - http://www.bohemiancoding.com/sketch -->
    <title>music_note</title>
    <desc>Created with Sketch.</desc>
    <defs></defs>
    <g id="Page-1" stroke="none" stroke-width="1" fill="none" fill-rule="evenodd" sketch:type="MSPage">
        <g id="music_note" sketch:type="MSLayerGroup" transform="translate(1.000000, 0.000000)" fill="#231F20">
            <path d="M55.4913295,167.825907 C50.8092486,168.26114 45.7803468,168.174093 40.4913295,167.47772 C28.8728324,166.172021 19.0751445,162.690155 11.2716763,157.119171 C0.780346821,149.633161 -0.693641618,141.88601 -0.0867052023,136.750259 C0.520231214,131.527461 3.7283237,124.389637 15.6069364,119.427979 C20.4624277,117.425907 25.7514451,116.207254 31.3872832,115.684974 C36.0693642,115.249741 41.1849711,115.336788 46.3872832,116.033161 C56.0115607,117.164767 64.3352601,119.602073 71.0115607,123.432124 L74.9132948,125.60829 L75.433526,121.168912 L87.0520231,19.2373057 L88.0057803,11.3160622 L88.0924855,10.4455959 C88.7861272,4.09119171 90.9537572,0.783419689 94.4219653,0.435233161 L95.0289017,0.348186528 L95.4624277,0.435233161 C98.2369942,0.783419689 99.4508671,3.22072539 101.878613,9.22694301 L102.225434,10.0974093 C102.745665,11.4901554 103.352601,12.7958549 103.872832,13.9274611 C108.728324,23.9378238 118.265896,38.4746114 135.867052,50.6611399 C149.046243,59.8010363 153.468208,77.6455959 148.352601,100.887047 C144.971098,116.294301 139.595376,128.045596 135.433526,128.741969 C135.433526,128.741969 135.433526,128.741969 135.346821,128.741969 C133.786127,128.916062 132.65896,128.480829 131.791908,127.697409 C129.971098,126.043523 129.884393,123.693264 129.710983,118.12228 C129.624277,109.939896 129.364162,96.3606218 121.040462,90.4414508 C117.572254,88.0041451 113.49711,86.3502591 109.075145,84.6093264 C105.867052,83.3036269 102.225434,81.8238342 98.8439306,79.9088083 L94.9421965,77.6455959 L94.4219653,82.1720207 L87.0520231,146.847668 C86.4450867,152.070466 83.2369942,159.295337 71.3583815,164.169948 C66.5028902,165.997927 61.2138728,167.303627 55.4913295,167.825907 L55.4913295,167.825907 L55.4913295,167.825907 Z" id="Shape" sketch:type="MSShapeGroup"></path>
        </g>
    </g>
</svg>