<?xml version="1.0" encoding="UTF-8" standalone="no"?>
<svg width="151px" height="186px" viewBox="0 0 151 186" version="1.1" xmlns="http://www.w3.org/2000/svg" xmlns:xlink="http://www.w3.org/1999/xlink" xmlns:sketch="http://www.bohemiancoding.com/sketch/ns">
    <!-- Generator: Sketch 3.1.1 (8761) - http://www.bohemiancoding.com/sketch -->
    <title>music_disco</title>
    <desc>Created with Sketch.</desc>
    <defs></defs>
    <g id="Page-1" stroke="none" stroke-width="1" fill="none" fill-rule="evenodd" sketch:type="MSPage">
        <g id="music_disco" sketch:type="MSLayerGroup" fill="#231F20">
            <g id="Group" sketch:type="MSShapeGroup">
                <rect id="Rectangle-path" x="72.8706625" y="0" width="4.16403785" height="40.1418367"></rect>
                <g transform="translate(0.000000, 35.112245)" id="Shape">
                    <path d="M69.8422713,146.095408 C70.5520505,146.142857 71.3564669,146.190306 72.3028391,146.237755 L72.4921136,146.237755 C71.2618297,146.190306 70.3154574,146.142857 69.4637224,146.047959 C65.488959,145.715816 61.6088328,145.051531 57.8706625,144.055102 C58.0126183,144.102551 58.1545741,144.15 58.3438486,144.197449 C61.9400631,145.09898 65.5835962,145.715816 69.3690852,146.047959 C69.511041,146.047959 69.7476341,146.047959 69.8422713,146.095408 L69.8422713,146.095408 Z"></path>
                    <path d="M70.4574132,146.142857 L70.5520505,146.142857 C70.9305994,146.142857 71.2618297,146.190306 71.7350158,146.190306 C71.214511,146.190306 70.8359621,146.142857 70.4574132,146.142857 L70.4574132,146.142857 Z"></path>
                    <path d="M71.7350158,146.190306 L72.444795,146.190306 L72.3028391,146.190306 L71.7350158,146.190306 L71.7350158,146.190306 Z"></path>
                    <path d="M75.1419558,0.142346939 C33.6908517,0.142346939 0.094637224,33.8311224 0.094637224,75.4438776 C0.094637224,117.009184 33.6908517,150.697959 75.1419558,150.697959 C116.59306,150.697959 150.189274,117.009184 150.189274,75.4438776 C150.189274,33.8311224 116.59306,0.142346939 75.1419558,0.142346939 L75.1419558,0.142346939 Z M136.324921,61.9683673 C136.70347,61.9683673 137.082019,61.9683673 137.413249,62.0158163 L137.933754,62.0158163 C139.305994,62.3954082 140.205047,64.0561224 140.678233,67.1877551 C140.962145,69.797449 141.056782,72.4545918 141.056782,75.1591837 C141.056782,76.9147959 141.009464,78.6704082 140.867508,80.3785714 C140.536278,83.5102041 139.684543,85.2183673 138.264984,85.4556122 L137.744479,85.4556122 C137.413249,85.4556122 137.0347,85.4556122 136.656151,85.4081633 C135.189274,85.0285714 134.479495,83.3204082 134.526814,80.1413265 C134.621451,78.4331633 134.66877,76.677551 134.716088,74.9219388 C134.716088,72.2173469 134.574132,69.6076531 134.337539,66.9979592 C134.195584,63.9137755 134.858044,62.2530612 136.324921,61.9683673 L136.324921,61.9683673 Z M138.880126,93.094898 C137.886435,97.1755102 136.561514,101.161224 134.905363,104.909694 C133.580442,107.661735 132.350158,109.085204 130.977918,109.275 L130.504732,109.275 C130.173502,109.275 129.88959,109.275 129.511041,109.227551 C128.280757,108.942857 128.138801,107.471939 129.085174,104.719898 C130.55205,100.92398 131.782334,96.9857143 132.681388,92.905102 C133.533123,89.8209184 134.66877,88.2076531 136.230284,87.9229592 C136.608833,87.9229592 136.987382,87.9229592 137.318612,87.9704082 L137.839117,87.9704082 C139.211356,88.35 139.542587,90.0107143 138.880126,93.094898 L138.880126,93.094898 Z M118.29653,20.3081633 C118.958991,20.3556122 119.432177,20.4030612 119.621451,20.4505102 C119.763407,20.4979592 120.094637,20.6877551 121.750789,22.2061224 L125.157729,25.4326531 C127.665615,27.947449 127.760252,28.0897959 132.208202,33.6887755 L132.302839,33.8311224 C134.053628,36.2984694 134.195584,36.6306122 134.290221,36.9153061 C134.006309,36.8678571 133.438486,36.8204082 132.492114,36.7729592 C131.640379,36.4882653 130.410095,35.1596939 128.564669,32.6923469 C126.246057,29.4183673 123.643533,26.3341837 120.804416,23.5346939 C118.485804,21.2096939 118.201893,20.6877551 118.154574,20.4030612 L118.29653,20.3081633 L118.29653,20.3081633 Z M105.141956,124.838265 C106.892744,121.896429 108.501577,118.717347 109.921136,115.30102 C111.198738,112.738776 112.807571,111.410204 114.88959,111.172959 C117.586751,111.220408 120.094637,111.267857 122.365931,111.315306 C123.927445,111.6 124.069401,113.023469 122.791798,115.538265 C120.851735,118.954592 118.675079,122.133673 116.309148,125.07551 C114.463722,127.163265 112.85489,128.254592 111.340694,128.444388 C109.589905,128.396939 107.697161,128.396939 105.615142,128.34949 C104.66877,128.159694 103.675079,127.637755 105.141956,124.838265 L105.141956,124.838265 Z M97.1451104,108.753061 C94.6845426,108.468367 93.5962145,107.044898 93.7381703,104.245408 C94.2586751,100.44949 94.6845426,96.5112245 94.9684543,92.3831633 C95.488959,89.2989796 97.0977918,87.6857143 99.8895899,87.3535714 C103.675079,87.4010204 107.318612,87.4010204 110.772871,87.4484694 C113.280757,87.7806122 114.416404,89.4413265 114.227129,92.5255102 C113.611987,96.6061224 112.807571,100.591837 111.81388,104.387755 C110.867508,107.092347 109.258675,108.563265 106.892744,108.80051 C103.769716,108.847959 100.504732,108.80051 97.1451104,108.753061 L97.1451104,108.753061 Z M121.656151,32.4076531 C122.981073,34.875 122.933754,36.1561224 121.419558,36.3933673 C119.195584,36.3459184 116.735016,36.2984694 114.132492,36.2510204 C112.097792,35.9663265 110.44164,34.6377551 109.164038,32.1704082 C107.697161,28.8964286 106.041009,25.8596939 104.242902,23.1076531 C103.059937,21.0673469 103.154574,20.1183673 104.479495,19.9285714 C106.466877,19.9760204 108.312303,19.9760204 109.968454,20.0234694 C111.435331,20.2607143 113.044164,21.3045918 114.936909,23.297449 C117.350158,26.0969388 119.621451,29.1336735 121.656151,32.4076531 L121.656151,32.4076531 Z M95.7728707,8.25612245 L95.9621451,8.25612245 C96.1987382,8.30357143 97.5709779,8.58826531 100.977918,10.0591837 C104.574132,11.672449 107.981073,13.6178571 111.198738,15.8479592 C112.050473,16.4647959 114.037855,17.8882653 113.895899,18.6 L113.706625,18.647449 L113.375394,18.647449 L112.712934,18.647449 C111.624606,18.4576531 110.157729,17.6035714 107.697161,15.8005102 C104.810726,13.5704082 101.687697,11.625 98.4700315,10.0117347 C95.9621451,8.73061224 95.7255521,8.58826531 95.3943218,8.39846939 L95.3943218,8.25612245 L95.7728707,8.25612245 L95.7728707,8.25612245 Z M96.8138801,38.1489796 C100.078864,38.1964286 103.29653,38.1964286 106.324921,38.2438776 C108.643533,38.5285714 110.252366,39.9520408 111.246057,42.6091837 C112.334385,46.2627551 113.233438,50.1535714 113.895899,54.1867347 C114.132492,57.1760204 113.091483,58.7418367 110.583596,59.0265306 C107.129338,58.9790816 103.533123,58.9790816 99.7476341,58.9316327 C96.955836,58.5994898 95.3943218,56.9862245 94.8264984,53.9969388 C94.4952681,49.9637755 94.022082,46.0729592 93.5015773,42.4193878 C93.3596215,39.8096939 94.4479495,38.3862245 96.8138801,38.1489796 L96.8138801,38.1489796 Z M73.7223975,9.7744898 C74.1009464,8.20867347 75.2365931,8.06632653 75.615142,8.06632653 L79.5899054,8.06632653 C80.6782334,8.16122449 81.5772871,8.73061224 82.3343849,9.7744898 C83.3280757,11.3403061 84.2744479,13.2857143 85.126183,15.4683673 C85.6466877,17.1765306 85.0315457,18.0780612 83.2807571,18.2204082 C80.8675079,18.2204082 78.3596215,18.1729592 75.8990536,18.1729592 C74.0536278,17.9831633 73.1545741,17.0816327 73.1072555,15.3734694 C73.29653,13.2382653 73.4858044,11.3403061 73.7223975,9.7744898 L73.7223975,9.7744898 Z M71.6876972,42.3244898 C72.0189274,39.7147959 73.4858044,38.2913265 76.0883281,38.0066327 C79.637224,38.0066327 83.1861199,38.0540816 86.6403785,38.0540816 C89.2429022,38.3387755 90.7570978,39.7147959 91.3722397,42.3719388 C91.8454259,46.0255102 92.2712934,49.9163265 92.555205,53.9494898 C92.5078864,56.9862245 91.0883281,58.5520408 88.2018927,58.8367347 C84.2744479,58.8367347 80.2523659,58.7892857 76.1829653,58.7892857 C73.2018927,58.4571429 71.6403785,56.8913265 71.4037855,53.9020408 C71.4984227,49.8688776 71.5930599,46.0255102 71.6876972,42.3244898 L71.6876972,42.3244898 Z M72.3501577,139.120408 C72.4921136,140.828571 71.6403785,141.113265 70.977918,141.160714 L66.5299685,141.160714 C65.2996845,141.018367 64.0694006,140.354082 62.9337539,139.120408 C61.4195584,137.317347 60,135.182143 58.6277603,132.762245 C57.7760252,130.911735 58.29653,129.915306 60.0946372,129.72551 L67.9022082,129.72551 C69.8422713,129.915306 70.977918,130.911735 71.4037855,132.762245 C71.6876972,135.182143 71.9716088,137.317347 72.3501577,139.120408 L72.3501577,139.120408 Z M70.5520505,124.648469 C70.5520505,126.736224 69.5583596,127.875 67.6182965,128.064796 L59.4794953,128.064796 C57.3974763,127.875 55.8832808,126.736224 54.8422713,124.648469 C53.7066246,121.706633 52.6182965,118.480102 51.6719243,115.063776 C51.2460568,112.501531 52.2397476,111.12551 54.7476341,110.840816 L65.3470032,110.840816 C67.9968454,111.12551 69.4637224,112.454082 69.8422713,115.016327 C70.0315457,118.480102 70.2681388,121.706633 70.5520505,124.648469 L70.5520505,124.648469 Z M36.0567823,130.010204 C37.3343849,129.962755 38.8012618,129.962755 40.4574132,129.915306 C41.829653,130.105102 43.3438486,131.006633 45.3785489,132.904592 C47.8391167,135.32449 50.4416404,137.459694 53.1388013,139.262755 C55.362776,140.781122 55.5047319,141.065816 55.5047319,141.255612 L55.362776,141.303061 C54.4164038,141.303061 53.5646688,141.35051 52.8548896,141.35051 C52.5236593,141.303061 51.1514196,141.018367 47.8391167,139.357653 C44.4321767,137.554592 41.214511,135.466837 38.1861199,133.046939 C36.955836,132.003061 35.5362776,130.721939 35.8201893,130.057653 L36.0567823,130.010204 L36.0567823,130.010204 Z M34.6845426,108.847959 C32.5078864,108.610714 30.9463722,107.187245 29.8580442,104.435204 C28.6277603,100.639286 27.6340694,96.7010204 26.8769716,92.5729592 C26.5457413,89.4887755 27.4921136,87.8280612 29.7634069,87.4959184 C32.9337539,87.4484694 36.3880126,87.4484694 40.0788644,87.4010204 C42.8706625,87.6857143 44.4794953,89.3464286 45.1419558,92.4306122 C45.615142,96.5586735 46.2302839,100.496939 46.9873817,104.292857 C47.2712934,107.044898 46.2776025,108.515816 43.9116719,108.80051 C40.5520505,108.753061 37.5236593,108.80051 34.6845426,108.847959 L34.6845426,108.847959 Z M68.9432177,92.3357143 C69.0378549,96.4637755 69.1324921,100.402041 69.3217666,104.197959 C69.1798107,106.997449 67.8548896,108.373469 65.1577287,108.658163 C61.5141956,108.658163 57.8706625,108.658163 54.3217666,108.705612 C51.6246057,108.420918 49.9684543,106.997449 49.1640379,104.245408 C48.4542587,100.44949 47.8864353,96.4637755 47.4605678,92.3831633 C47.4605678,89.2989796 48.8801262,87.6382653 51.7665615,87.3061224 C55.7886435,87.3061224 59.8580442,87.2586735 63.9274448,87.2586735 C66.955836,87.5908163 68.5646688,89.2515306 68.9432177,92.3357143 L68.9432177,92.3357143 Z M63.6908517,8.06632653 C64.7791798,8.11377551 63.5488959,9.39489796 63.170347,9.7744898 C61.466877,11.3403061 59.8580442,13.2857143 58.3438486,15.4683673 C57.0189274,17.1765306 55.5520505,18.0780612 53.7539432,18.2678571 C51.4826498,18.2678571 49.3533123,18.3153061 47.4132492,18.3153061 C46.9400631,18.2678571 45.5678233,17.9831633 48.0283912,15.5632653 C50.4416404,13.3331633 53.044164,11.4352041 55.7413249,9.82193878 C58.2018927,8.44591837 59.6214511,8.11377551 60.2365931,8.06632653 L63.6908517,8.06632653 L63.6908517,8.06632653 Z M40.3154574,15.7530612 C43.4384858,13.5229592 46.7507886,11.577551 50.2523659,9.96428571 C53.6119874,8.49336735 54.9842271,8.20867347 55.2208202,8.20867347 C55.8832808,8.20867347 56.6403785,8.16122449 57.4921136,8.16122449 L57.5867508,8.30357143 C57.3501577,8.54081633 57.0189274,8.8255102 55.126183,9.91683673 C52.3343849,11.530102 49.637224,13.4280612 47.1293375,15.6581633 C45.0473186,17.4137755 43.533123,18.2678571 42.2082019,18.505102 C40.6466877,18.552551 39.2271293,18.552551 38.044164,18.6 L37.807571,18.552551 C37.5709779,17.7933673 39.511041,16.322449 40.3154574,15.7530612 L40.3154574,15.7530612 Z M35.3943218,32.1704082 C37.1451104,28.8964286 39.0851735,25.8596939 41.214511,23.1076531 C42.8706625,21.1622449 44.4794953,20.0709184 46.1829653,19.8811224 C48.2176656,19.8811224 50.3943218,19.8336735 52.807571,19.8336735 C53.8485804,19.9285714 55.126183,20.4030612 54.0851735,23.0127551 C52.7602524,25.7647959 51.5299685,28.8015306 50.4416404,32.0755102 C49.4006309,34.4954082 47.6971609,35.8239796 45.2839117,36.1086735 C42.1135647,36.1561224 39.1798107,36.1561224 36.4826498,36.2035714 C35.8201893,36.0612245 33.7381703,35.7765306 35.3943218,32.1704082 L35.3943218,32.1704082 Z M40.126183,61.3989796 C42.8233438,61.6836735 44.2429022,63.3443878 44.3375394,66.4760204 C44.1955836,69.0857143 44.148265,71.7428571 44.148265,74.4 C44.148265,76.1556122 44.148265,77.9112245 44.2429022,79.6193878 C44.0536278,82.7984694 42.6340694,84.4591837 39.8895899,84.8387755 C36.1514196,84.8862245 32.6971609,84.8862245 29.5268139,84.9336735 C27.2082019,84.6489796 25.8359621,82.9408163 25.4574132,79.8091837 C25.362776,78.1010204 25.3154574,76.3454082 25.3154574,74.5897959 C25.3154574,71.8852041 25.4100946,69.2280612 25.6466877,66.6658163 C26.1198738,63.5341837 27.4921136,61.8734694 29.8580442,61.5413265 C32.9810726,61.4938776 36.4353312,61.4464286 40.126183,61.3989796 L40.126183,61.3989796 Z M22.2397476,38.4336735 C23.9432177,38.3862245 25.9305994,38.3387755 28.2018927,38.2913265 C29.7160883,38.5285714 30.0946372,39.9045918 29.2429022,42.5617347 C27.8706625,46.2627551 26.7350158,50.1061224 25.8359621,54.1392857 C24.9842271,57.1285714 23.6119874,58.7418367 21.6719243,59.0739796 C19.1167192,59.1214286 16.8454259,59.1688776 14.9053628,59.2163265 C13.533123,58.9790816 13.2018927,57.3658163 13.9116719,54.3765306 C15,50.3433673 16.466877,46.452551 18.170347,42.7515306 C19.4952681,40.1418367 20.8201893,38.7183673 22.2397476,38.4336735 L22.2397476,38.4336735 Z M6.29337539,59.3586735 C6.38801262,58.9316327 6.57728707,58.4096939 6.7192429,57.8403061 C7.19242902,56.1795918 7.66561514,54.4239796 8.09148265,52.9530612 C8.99053628,50.0112245 9.55835962,48.777551 12.3974763,42.7989796 L13.6277603,40.5688776 C13.9116719,40.0469388 14.148265,39.572449 14.384858,39.1928571 L13.6277603,40.5688776 C13.1072555,41.5653061 12.5394322,42.6091837 12.2555205,43.1785714 C10.362776,46.8795918 8.80126183,50.7704082 7.57097792,54.8035714 C7.38170347,55.3729592 7.00315457,56.6540816 6.67192429,57.8403061 C6.52996845,58.4096939 6.34069401,59.0265306 6.19873817,59.5484694 L6.29337539,59.3586735 L6.29337539,59.3586735 Z M5.15772871,85.5979592 L5.01577287,84.4591837 C4.7318612,81.7071429 4.54258675,78.0535714 4.44794953,75.3015306 C4.44794953,71.4581633 4.44794953,71.3158163 5.39432177,63.8188776 L5.63091483,62.4428571 C5.44164038,63.6290816 5.15772871,66.1913265 5.01577287,67.2826531 C4.7318612,69.8923469 4.54258675,72.5494898 4.54258675,75.2066327 C4.54258675,76.9622449 4.58990536,78.7178571 4.7318612,80.4260204 C5.01577287,84.2219388 5.15772871,85.3132653 5.15772871,85.5979592 L5.15772871,85.5979592 L5.15772871,85.5979592 Z M10.5520505,66.9505102 C10.2681388,69.5602041 10.126183,72.2173469 10.126183,74.8744898 C10.126183,76.630102 10.1735016,78.3857143 10.3154574,80.0938776 C10.4100946,83.3204082 10.0315457,84.9811224 9.0851735,85.3132653 C7.76025237,85.3607143 6.76656151,85.4081633 6.10410095,85.5030612 C5.58359621,85.2183673 5.20504732,83.5576531 4.96845426,80.4260204 C4.82649842,78.6704082 4.77917981,76.9622449 4.77917981,75.2066327 C4.77917981,72.5020408 4.92113565,69.8923469 5.25236593,67.2826531 C5.63091483,64.1510204 6.10410095,62.4428571 6.62460568,62.1107143 C7.28706625,62.0632653 8.2807571,61.9683673 9.55835962,61.9209184 C10.4100946,62.2056122 10.7886435,63.8663265 10.5520505,66.9505102 L10.5520505,66.9505102 Z M9.98422713,59.4061224 C8.65930599,59.4535714 7.66561514,59.5010204 7.05047319,59.5959184 C6.67192429,59.3112245 6.90851735,57.7454082 7.76025237,54.7561224 C8.99053628,50.7229592 10.5520505,46.8321429 12.444795,43.1311224 C13.8170347,40.5214286 14.8107256,39.0505102 15.3785489,38.7183673 C15.9463722,38.6709184 16.7981073,38.6234694 17.9337539,38.5760204 C18.6435331,38.8132653 18.4069401,40.1418367 17.2239748,42.8464286 C15.4731861,46.547449 14.0536278,50.4382653 12.9179811,54.4714286 C11.9716088,57.4607143 11.0252366,59.0739796 9.98422713,59.4061224 L9.98422713,59.4061224 Z M11.1198738,74.8744898 C11.1198738,72.169898 11.2618297,69.5602041 11.5457413,66.9505102 C12.0189274,63.8188776 12.9652997,62.1581633 14.4321767,61.7785714 C16.4195584,61.7311224 18.6908517,61.6836735 21.2460568,61.6362245 C23.0914826,61.9209184 23.9905363,63.5816327 23.8958991,66.6658163 C23.659306,69.2755102 23.5646688,71.9326531 23.5646688,74.5897959 C23.5646688,76.3454082 23.6119874,78.1010204 23.7066246,79.8091837 C23.659306,82.9882653 22.7602524,84.6964286 20.8675079,85.0285714 C18.2649842,85.0760204 15.9936909,85.1234694 14.0063091,85.1709184 C12.5394322,84.8862245 11.6403785,83.2255102 11.3091483,80.0464286 C11.1671924,78.3857143 11.1198738,76.630102 11.1198738,74.8744898 L11.1198738,74.8744898 Z M14.384858,87.7331633 C16.3249211,87.6857143 18.6435331,87.6382653 21.1987382,87.5908163 C23.1388013,87.8755102 24.4637224,89.4887755 25.2208202,92.5729592 C25.977918,96.6535714 27.0189274,100.639286 28.29653,104.435204 C29.0536278,107.187245 28.6750789,108.658163 27.0662461,108.942857 C24.7476341,108.990306 22.7602524,109.037755 20.9621451,109.085204 C19.5425868,108.847959 18.2649842,107.471939 16.9873817,104.672449 C14.9053628,99.6903061 14.6687697,99.880102 14.6687697,100.022449 C14.6687697,100.069898 14.6687697,100.069898 14.6687697,100.022449 C14.6687697,99.8326531 14.5268139,98.6938776 13.2018927,92.8576531 C12.5867508,89.7260204 13.0126183,88.0653061 14.384858,87.7331633 L14.384858,87.7331633 Z M23.5173502,123.841837 C21.1041009,121.279592 20.9621451,121.089796 16.7507886,115.348469 L14.4321767,111.742347 C14.8107256,112.311735 15.5678233,113.45051 17.1766562,115.822959 C19.5425868,119.191837 22.1451104,122.370918 25.0315457,125.312755 C25.977918,126.261735 26.9716088,127.258163 28.533123,128.729082 C26.9716088,127.305612 25.0315457,125.312755 23.5173502,123.841837 L23.5173502,123.841837 Z M25.1735016,125.265306 C22.2870662,122.323469 19.6845426,119.144388 17.318612,115.77551 C16.3722397,114.352041 15.2365931,112.596429 15.0946372,111.647449 L15.1892744,111.552551 C15.7570978,111.505102 16.6088328,111.457653 17.7444795,111.410204 C18.7381703,111.647449 20.0157729,112.928571 21.7192429,115.538265 C23.8958991,118.954592 26.3091483,122.133673 28.9589905,125.07551 C30.9936909,127.40051 31.2776025,128.064796 31.2302839,128.444388 L31.0883281,128.539286 C30.1892744,128.586735 29.5268139,128.586735 29.1009464,128.634184 C28.8643533,128.491837 27.9179811,128.017347 25.1735016,125.265306 L25.1735016,125.265306 Z M49.9684543,141.445408 C49.9211356,141.445408 48.8328076,141.160714 45.3312303,139.547449 C46.6088328,140.164286 47.8864353,140.733673 49.022082,141.208163 C49.2113565,141.303061 49.4006309,141.397959 49.637224,141.492857 L49.637224,141.492857 C49.4479495,141.397959 49.2113565,141.303061 49.022082,141.208163 C46.0883281,139.927041 45.9936909,139.879592 45.0473186,139.452551 C44.6214511,139.262755 44.2429022,139.02551 43.8170347,138.788265 C42.681388,138.218878 41.5457413,137.64949 40.5520505,137.175 C37.1451104,135.229592 37.1451104,135.229592 31.5141956,131.101531 L30.615142,130.389796 C30.5678233,130.342347 30.5678233,130.342347 30.5205047,130.342347 L30.4731861,130.294898 L30.615142,130.437245 C32.3659306,131.765816 33.2176656,132.382653 34.4006309,133.236735 C37.3817035,135.371939 40.5520505,137.222449 43.8170347,138.835714 C44.2429022,139.02551 44.6214511,139.262755 45.0473186,139.452551 C41.3564669,137.696939 37.807571,135.609184 34.4952681,133.236735 C31.3249211,130.911735 31.0883281,130.437245 30.9936909,130.2 C31.4195584,130.152551 32.0347003,130.105102 32.8864353,130.105102 C33.6908517,130.247449 35.0157729,131.101531 37.6182965,133.094388 C40.6940063,135.466837 43.9589905,137.602041 47.4132492,139.405102 C50.8675079,141.208163 50.8675079,141.208163 51.0567823,141.445408 C50.5835962,141.445408 50.2050473,141.445408 49.9684543,141.445408 L49.9684543,141.445408 Z M74.7160883,146.285204 L74.4321767,146.285204 L74.384858,146.285204 L74.2902208,146.285204 L74.2429022,146.285204 L74.0063091,146.285204 L73.6750789,146.285204 L73.4858044,146.285204 L73.4858044,146.285204 L72.8706625,146.285204 C71.8769716,146.237755 71.4037855,146.237755 70.5520505,146.142857 C70.2681388,146.142857 69.9842271,146.095408 69.7476341,146.095408 C69.2744479,146.047959 68.7539432,146.00051 68.2807571,145.953061 C68.5173502,145.953061 68.6119874,146.00051 68.8485804,146.00051 C68.2807571,145.953061 67.7602524,145.905612 67.192429,145.858163 C64.5425868,145.52602 64.022082,145.431122 61.3249211,144.956633 C60.4258675,144.766837 59.4321767,144.482143 58.3911672,144.244898 C57.8706625,144.102551 57.3501577,144.055102 56.8769716,143.912755 C55.2681388,143.438265 54.3690852,143.20102 52.3343849,142.536735 C52.2397476,142.489286 52.1451104,142.489286 52.0504732,142.441837 L52.1451104,142.441837 C52.2397476,142.489286 52.2870662,142.489286 52.3343849,142.489286 C52.9968454,142.679082 53.7066246,142.916327 54.4637224,143.106122 C53.2807571,142.726531 52.6182965,142.489286 52.2870662,142.29949 C52.5236593,142.29949 52.807571,142.252041 53.2807571,142.252041 C53.4700315,142.29949 53.4700315,142.29949 58.29653,143.770408 C62.0820189,144.861735 65.9621451,145.668367 69.9369085,146.00051 C71.214511,146.095408 72.444795,146.190306 74.5268139,146.237755 C72.444795,146.190306 71.1198738,146.095408 69.9842271,146.00051 C66.0567823,145.620918 62.2239748,144.861735 58.533123,143.722959 C57.444795,143.390816 55.9305994,142.916327 54.9369085,142.346939 L54.8895899,142.204592 C55.5520505,142.157143 56.3091483,142.157143 57.1608833,142.157143 C58.0126183,142.252041 59.2429022,142.726531 61.7507886,143.67551 C64.7318612,144.814286 67.807571,145.620918 70.977918,146.00051 C72.0189274,146.142857 73.0126183,146.237755 74.8107256,146.285204 L74.7160883,146.285204 L74.6687697,146.285204 L74.6214511,146.285204 L73.9589905,146.285204 L74.0536278,146.285204 L74.8107256,146.285204 L74.8580442,146.285204 L74.9053628,146.285204 L74.9526814,146.285204 L74.8580442,146.285204 L74.7160883,146.285204 L74.7160883,146.285204 Z M75.0946372,146.285204 L75.0473186,146.285204 L74.9053628,146.285204 L75.0473186,146.285204 L75.0946372,146.285204 L75.0946372,146.285204 Z M75.3785489,146.285204 L75.3785489,146.285204 L75.2365931,146.285204 L75.0946372,146.285204 L75.1419558,146.285204 L75.3785489,146.285204 L75.5678233,146.285204 L75.3785489,146.285204 L75.3785489,146.285204 Z M72.3028391,124.648469 C72.1608833,121.706633 72.0189274,118.480102 71.8769716,115.063776 C72.0662461,112.501531 73.3911672,111.12551 75.9936909,110.888265 C79.5425868,110.888265 83.0914826,110.888265 86.5457413,110.935714 C89.0536278,111.220408 90.1892744,112.596429 89.9526814,115.158673 C89.3375394,118.575 88.6750789,121.801531 87.9179811,124.743367 C87.2082019,126.831122 85.8359621,127.969898 83.8485804,128.159694 C81.1987382,128.159694 78.5015773,128.159694 75.7570978,128.112245 C73.7223975,127.875 72.5867508,126.736224 72.3028391,124.648469 L72.3028391,124.648469 Z M84.0851735,141.208163 C83.4700315,141.113265 82.9022082,140.828571 83.7539432,139.167857 C84.8422713,137.364796 85.8832808,135.229592 86.8769716,132.809694 C87.8233438,130.911735 89.1009464,129.962755 90.9463722,129.772959 C93.3596215,129.772959 95.7255521,129.820408 97.9495268,129.820408 C99.4637224,130.010204 99.6056782,131.054082 98.3280757,132.857143 C96.3880126,135.277041 94.3533123,137.412245 92.2239748,139.215306 C90.2839117,140.733673 88.8643533,141.160714 88.1072555,141.255612 C86.7823344,141.255612 85.4574132,141.255612 84.0851735,141.208163 L84.0851735,141.208163 Z M91.6561514,141.303061 L91.3722397,141.160714 C91.4195584,140.733673 91.8454259,140.306633 93.0757098,139.262755 C95.3470032,137.459694 97.4763407,135.32449 99.511041,132.904592 C101.214511,131.006633 102.728707,130.057653 104.337539,129.915306 C106.324921,129.915306 108.170347,129.962755 109.826498,130.010204 C110.252366,130.057653 111.388013,130.389796 108.548896,133.046939 C105.804416,135.419388 102.870662,137.554592 99.7476341,139.357653 C96.7665615,141.018367 95.2996845,141.303061 94.8264984,141.35051 C93.8801262,141.35051 92.7917981,141.303061 91.6561514,141.303061 L91.6561514,141.303061 Z M97.7602524,141.445408 L97.3817035,141.445408 L97.2870662,141.397959 C97.3817035,141.160714 97.6656151,140.923469 100.362776,139.405102 C103.533123,137.602041 106.514196,135.514286 109.353312,133.094388 C111.719243,131.196429 113.18612,130.294898 114.321767,130.152551 L115.031546,130.152551 L115.362776,130.152551 L115.55205,130.2 C115.788644,130.959184 113.801262,132.525 112.996845,133.189286 C109.873817,135.561735 106.514196,137.64949 103.012618,139.452551 C99.6056782,141.113265 98.2807571,141.397959 97.9495268,141.397959 L97.7602524,141.445408 L97.7602524,141.445408 Z M115.741325,133.426531 C112.618297,135.656633 109.258675,137.554592 105.804416,139.262755 C105.899054,139.215306 105.993691,139.167857 106.088328,139.120408 C107.649842,138.361224 109.258675,137.554592 110.772871,136.653061 L108.501577,137.934184 C107.791798,138.313776 106.940063,138.693367 106.088328,139.120408 C105.757098,139.310204 105.425868,139.5 105.047319,139.689796 C104.242902,140.069388 103.438486,140.401531 102.634069,140.781122 C102.823344,140.686224 103.107256,140.543878 103.29653,140.44898 C101.119874,141.397959 100.315457,141.635204 100.315457,141.635204 C100.173502,141.635204 99.9369085,141.587755 99.5583596,141.540306 C99.8422713,141.35051 99.8422713,141.35051 103.391167,139.547449 C106.940063,137.744388 110.299685,135.656633 113.470032,133.284184 C116.167192,131.291327 117.444795,130.484694 118.154574,130.342347 C118.817035,130.389796 119.290221,130.437245 119.479495,130.532143 C118.62776,131.338776 116.498423,132.857143 115.741325,133.426531 L115.741325,133.426531 Z M133.059937,116.012755 C130.694006,119.381633 128.044164,122.560714 125.157729,125.455102 C122.318612,128.254592 121.561514,128.681633 121.419558,128.776531 C121.182965,128.729082 120.757098,128.681633 120,128.634184 L119.905363,128.586735 C119.952681,128.159694 120.425868,127.40051 122.413249,125.217857 C125.157729,122.27602 127.665615,119.096939 129.88959,115.728061 C131.640379,113.165816 132.870662,111.837245 133.722397,111.647449 C134.66877,111.694898 135.283912,111.742347 135.567823,111.789796 C135.615142,111.979592 135.283912,112.786224 133.059937,116.012755 L133.059937,116.012755 Z M143.51735,93.4744898 C142.429022,97.555102 141.009464,101.493367 139.258675,105.289286 C137.981073,107.946429 137.176656,109.417347 136.798107,109.654592 C136.514196,109.607143 135.899054,109.559694 134.952681,109.512245 C134.384858,109.180102 134.621451,107.756633 135.757098,105.004592 C137.413249,101.256122 138.785489,97.2704082 139.77918,93.1897959 C140.630915,90.1056122 141.435331,88.4923469 142.334385,88.255102 C143.422713,88.302551 144.085174,88.397449 144.416404,88.444898 C144.55836,88.7295918 144.274448,90.4377551 143.51735,93.4744898 L143.51735,93.4744898 Z M144.842271,85.8352041 C144.511041,85.7877551 143.801262,85.6928571 142.712934,85.6454082 C141.955836,85.2658163 141.624606,83.605102 141.766562,80.4260204 C141.908517,78.7178571 141.955836,76.9622449 141.955836,75.2066327 C141.955836,72.5020408 141.81388,69.8923469 141.529968,67.2826531 C141.293375,64.1035714 141.529968,62.5377551 142.287066,62.2530612 C143.375394,62.3005102 144.037855,62.3954082 144.369085,62.4428571 C144.652997,62.822449 144.984227,64.4831633 145.315457,67.6147959 C145.599369,70.2244898 145.741325,72.8816327 145.741325,75.5862245 C145.741325,77.3418367 145.694006,79.097449 145.55205,80.8056122 C145.362776,83.8897959 145.126183,85.5979592 144.842271,85.8352041 L144.842271,85.8352041 Z"></path>
                </g>
            </g>
        </g>
    </g>
</svg>