<?xml version="1.0" encoding="utf-8"?>
<!-- Generator: Adobe Illustrator 18.1.0, SVG Export Plug-In . SVG Version: 6.00 Build 0)  -->
<!DOCTYPE svg PUBLIC "-//W3C//DTD SVG 1.1//EN" "http://www.w3.org/Graphics/SVG/1.1/DTD/svg11.dtd">
<svg version="1.1" id="Layer_1" xmlns="http://www.w3.org/2000/svg" xmlns:xlink="http://www.w3.org/1999/xlink" x="0px" y="0px"
	 width="110px" height="221.2px" viewBox="0 0 110 221.2" enable-background="new 0 0 110 221.2" xml:space="preserve">
<g>
	<path fill="#231F20" d="M11.4,4.1c-0.4-0.1-0.8-0.2-1.2-0.3L0.6,4.3L0.4,5.9c1.8,0.7,7.1,2.9,7.1,2.9c3.1,1.3,5.8,2.2,8.4,2.9
		l2-6.8L11.4,4.1z"/>
	<path fill="#231F20" d="M68.4,99.8c-0.2,1.9-1.9,3.2-3.8,3c-1.9-0.2-3.2-1.9-3-3.8c0.2-1.9,1.9-3.2,3.8-3
		C67.2,96.3,68.6,97.9,68.4,99.8z"/>
	<path fill="#231F20" d="M67.2,111.6c-0.2,1.9-1.9,3.2-3.8,3.1c-1.9-0.2-3.2-1.9-3-3.8c0.2-1.9,1.9-3.2,3.8-3
		C66,108,67.4,109.7,67.2,111.6z"/>
	<path fill="#231F20" d="M65.4,124.4c-0.2,1.9-1.9,3.2-3.8,3.1c-1.9-0.2-3.3-1.9-3-3.8c0.2-1.9,1.9-3.2,3.8-3
		C64.2,120.8,65.6,122.5,65.4,124.4z"/>
	<g>
		<path fill="#231F20" d="M71,25.4L71,25.4l0-0.2c0-0.1,2.5-12.8-6.5-19.1c6,6.6,4,16.8,4,16.9l0,0.1l0,0.1l-7.4,63.9l2.3,4L71,25.4
			z"/>
		<path fill="#231F20" d="M50,6.4c-3.4,0.4-6.8,1-10.1,1.9c-3.5,0.9-6.7,2.2-10.4,2.3c-1.8,0-3.5,0-5.2-0.1
			c-0.9-0.1-1.8-0.2-2.7-0.3c-0.8-0.1-0.7,0.2-0.9,0.9c3.5,0.6,7.1,0.8,10.6,0.6c3.6-0.3,7-1.9,10.4-2.7c6.5-1.5,15-3.4,21,0.5
			C61.9,8.4,61,7.6,59.9,7C56.7,5.9,53.3,6,50,6.4z"/>
		<path fill="#231F20" d="M94,131.9l4,11.1c-0.2,0-0.4,0-0.6,0c-20.1,0-23,28.2-24.3,39.7c-0.5,4.8-4.1,28.9-25,26.6l-0.5-0.1
			c-4.2-0.5-7.4-1.9-9.9-3.7c2.7,2.9,6.6,5.2,12.4,5.9l0.5,0.1c20.9,2.2,24.5-21.8,25-26.6c1.2-11.4,4.1-39.7,24.3-39.7
			c0.2,0,0.4,0,0.6,0c0.9,0.1,1.9,0.4,2.9,0.8L94,131.9z"/>
		<path fill="#231F20" d="M84.4,113.4c0,0,2.2,7.6-2.2,11.1c-4.4,3.5-14.1,17.2-16.6,31.4c-2.2,12.3-5.4,19.7-7.1,28.7
			c-0.2,1.2-1,2.1-1.7,2c-0.7-0.1-1.1-1.1-1-2.3l4.4-42.6c-0.1,0-0.3,0-0.4,0c-2.6-0.3-4.5-2.6-4.2-5.2c0.3-2.4,2.3-4.2,4.7-4.2
			c0.2,0,0.3,0,0.5,0c0.1,0,0.2,0,0.4,0.1l0.4-3.8c0,0-0.1,0-0.1,0c-1.3-0.1-2.4-0.7-3.2-1.7c-0.8-1-1.2-2.2-1-3.5
			c0.2-2.4,2.3-4.2,4.7-4.2c0.2,0,0.3,0,0.5,0c0,0,0.1,0,0.1,0l0.4-3.5c-1.1-0.2-2.2-0.8-2.9-1.7c-0.8-1-1.2-2.2-1-3.5
			c0.3-2.4,2.3-4.2,4.7-4.2c0.1,0,0.1,0,0.2,0l0.2-2.4c-1.1-0.2-2.1-0.8-2.9-1.7c-0.8-1-1.2-2.2-1-3.5c0.3-2.4,2.3-4.2,4.7-4.2
			c0.1,0,0.1,0,0.2,0l8-69.1c0,0,3-14.9-8.2-21.9C56.7-1.4,41.8,3.3,34.6,6c-2.3,0.9-6,1.2-8.4,0.6l-6.4-0.9l-2,6.8
			c3.9,1,7.8,1.3,13,1.1c3.3-0.1,6.1-1.3,9.3-2.2c3.3-0.9,6.8-1.5,10.3-1.9c3.2-0.4,7-0.5,9.9,0.9c7.6,3.7,5.8,13.3,4.4,19.7
			c-1.3,6-30,134.9-34.2,155.4c-0.2,1.2-1,6.3-0.5,8.8c1,5.3,4.7,17.3,19.8,19.1c18.9,2.4,26.5-14.6,28-28.5
			c1.5-14,4.7-37.7,22-37.7c2.4,0,6.6,2.7,10.1,4.5L84.4,113.4z M41.8,8.9c-3.5,0.8-6.9,2.4-10.4,2.7c-3.5,0.3-7.2,0.1-10.6-0.6
			c0.2-0.7,0-1,0.9-0.9c0.9,0.1,1.8,0.2,2.7,0.3c1.7,0.1,3.5,0.2,5.2,0.1c3.7-0.1,6.9-1.3,10.4-2.3c3.3-0.9,6.7-1.5,10.1-1.9
			C53.3,6,56.7,5.9,59.9,7c1.1,0.6,2,1.4,2.8,2.4C56.7,5.5,48.2,7.3,41.8,8.9z M68.5,23.3L68.5,23.3l0-0.2c0-0.1,2-10.3-4-16.9
			c9,6.3,6.5,19,6.5,19.1l0,0.1l0,0.1l-7.6,65.7l-2.3-4L68.5,23.3z M99.9,145.1c-20.1,0-23,28.3-24.3,39.7
			c-0.5,4.8-4.1,28.8-25,26.6l-0.5-0.1c-5.8-0.7-9.7-3-12.4-5.9c2.5,1.8,5.7,3.2,9.9,3.7l0.5,0.1c20.9,2.2,24.5-21.8,25-26.6
			c1.2-11.4,4.1-39.7,24.3-39.7c0.2,0,0.4,0,0.6,0l-4-11.1l9.4,14.1c-1-0.4-2-0.7-2.9-0.8C100.3,145.1,100.1,145.1,99.9,145.1z"/>
	</g>
	<path fill="#231F20" d="M63.8,137.5c-0.2,1.9-1.9,3.2-3.8,3c-1.9-0.2-3.2-1.9-3-3.8c0.2-1.9,1.9-3.2,3.8-3
		C62.6,133.9,64,135.6,63.8,137.5z"/>
</g>
</svg>
