<?xml version="1.0" encoding="utf-8"?>
<!-- Generator: Adobe Illustrator 18.1.0, SVG Export Plug-In . SVG Version: 6.00 Build 0)  -->
<!DOCTYPE svg PUBLIC "-//W3C//DTD SVG 1.1//EN" "http://www.w3.org/Graphics/SVG/1.1/DTD/svg11.dtd">
<svg version="1.1" id="Layer_1" xmlns="http://www.w3.org/2000/svg" xmlns:xlink="http://www.w3.org/1999/xlink" x="0px" y="0px"
	 viewBox="0 0 420.7 488.4" enable-background="new 0 0 420.7 488.4" xml:space="preserve">
<g>
	<path fill="#231F20" d="M253,244.3c-7.5,0.3-15,1.3-22.5,3.3c-53.2,14.4-84.6,69.2-70.2,122.4c2.3,8.6,5.8,16.5,10.1,23.9
		c2.4,4.2,5,8.2,8,11.9c24,30.3,64.6,45.1,104.3,34.4c21.5-5.8,39.3-18.3,52.1-34.5c2.9-3.7,5.7-7.6,8.1-11.7
		c12.9-22.2,17.3-49.4,10-76.2c-11-40.7-45.8-68.6-85.4-73C262.7,244.3,257.8,244.2,253,244.3z M194.8,218.7l0.1-0.3
		c2.5-5.8-9.9-22.2-36.6-36.8c-26.7-14.6-47.2-16.1-50.7-10.9l-0.2,0.2c-3,5.5,9.4,22.4,36.5,37.2
		C170.9,222.9,191.8,224.2,194.8,218.7z M411.2,160.6l-22.3-40.8l-6.3-11.5l-0.1,0.1c-5.7-8.1-29.9-3.8-55,9.9
		c-25.1,13.7-41.8,31.8-38,40.9l-0.1,0l6.3,11.5l3,5.5h-31.3v-3.2c0-4-3.3-7.2-7.3-7.2c-4,0-7.2,3.2-7.2,7.2v3.2h-31.3l3-5.5
		l6.3-11.5l-0.1,0c3.8-9.1-12.9-27.2-38.1-40.9c-25.1-13.8-49.3-18-55-9.9l-0.1-0.1l-6.3,11.5l-22.3,40.8l-4.6,8.5l0.1,0
		c5.2-8.5,29.7-4.4,55.2,9.6c25.5,13.9,42.3,32.3,37.9,41.3l0,0l4.6-8.5l14.1-25.8H253v32.9c-9.7,0.3-19.5,1.6-29.3,4.2
		c-66.9,18.2-106.4,87.1-88.3,154c4.6,17,12.6,32.3,22.9,45.3l-23.2,54.1c-1.3,3.1,0.1,6.6,3.2,7.9c3.1,1.3,6.6-0.1,7.9-3.2l20.9-49
		c30.8,31.2,76.9,45.4,122.2,33.1c22.3-6,41.4-17.8,56.5-33.2l21,49c1.3,3.1,4.9,4.5,7.9,3.2c3.1-1.3,4.5-4.8,3.2-7.9l-23.2-54.3
		c23.9-30.2,33.8-70.8,22.9-110.8c-14.2-52.2-59.3-87.6-110.2-92v-33.4h36.4l14.1,25.8l4.6,8.5l0,0c-4.4-9,12.4-27.4,37.9-41.3
		c25.5-13.9,50-18.1,55.2-9.6l0.1-0.1L411.2,160.6z M212.8,185.7l-10.6,19.9c-0.4-1.4-1-2.9-1.9-4.4l3.4-6.2l-2.5-1.4l-2.5,4.7
		c-1.9-2.7-4.6-5.7-7.7-8.6l-1.5-1.5c-1-1-2.2-1.9-3.3-2.9c-1-0.9-2.1-1.7-3.1-2.6c-1-0.8-2.1-1.6-3.1-2.4c-1.5-1.1-3.1-2.2-4.7-3.2
		c-0.9-0.6-1.8-1.2-2.7-1.8c-1.9-1.2-3.9-2.4-5.9-3.5l3-5.5l-2.5-1.4l-3,5.4c-2.8-1.5-5.6-2.9-8.4-4.2c-1-0.5-2-0.9-3-1.3
		c-1.8-0.8-3.5-1.5-5.2-2.2c-1.2-0.5-2.5-0.9-3.7-1.4c-1.3-0.5-2.6-0.9-3.8-1.3c-1.4-0.4-2.9-0.9-4.2-1.2l-1.9-0.4
		c-3.2-0.8-6.2-1.3-8.9-1.6l3.3-6l-2.5-1.4l-3.9,7.1c-2.9-0.1-5.3,0.3-7.4,0.9l22.6-40.7l0.5-0.2c0.8-0.2,1.7-0.4,2.6-0.4l0.7,0
		c1.1-0.1,2.1-0.1,3.3-0.1l-2.2,4l2.5,1.3l2.9-5.2c2.9,0.3,6,0.8,9.4,1.6l1.6,0.4c1.4,0.4,2.8,0.8,4.2,1.3c1.3,0.4,2.5,0.8,3.8,1.3
		c1.2,0.4,2.5,0.9,3.7,1.4c1.7,0.6,3.4,1.4,5.1,2.1c1,0.4,2,0.8,3,1.3c2.7,1.3,5.5,2.7,8.3,4.2l-3.2,5.9l2.5,1.4l3.2-5.8l0,0
		c2,1.2,4,2.3,5.9,3.5c0.9,0.6,1.7,1.1,2.6,1.7c1.6,1.1,3.2,2.2,4.7,3.3c1,0.7,2,1.5,3,2.2c1.1,0.9,2.2,1.8,3.3,2.7
		c1.1,0.9,2.2,1.8,3.2,2.7l1.3,1.3c3.3,3.2,6,6.2,8,9.2l-3.5,6.5l2.5,1.4l2.8-5.1c0.7,1.3,1.3,2.6,1.7,3.8l0,0l-6.4,12.1
		L212.8,185.7z M370.2,313.1c9.8,36.1,1.6,72.7-18.9,100.7c-2.7,3.6-5.6,7.1-8.7,10.4c-14.5,15.6-33.2,27.5-55.2,33.4
		c-43.6,11.8-88.1-2.5-116.9-33.4c-3.1-3.3-5.9-6.8-8.6-10.5c-8.4-11.4-15-24.5-18.9-39c-17-62.7,20.1-127.4,82.8-144.4
		c9.1-2.5,18.2-3.7,27.2-4c4.9-0.1,9.7,0,14.5,0.5C315,231.3,357,264.4,370.2,313.1z M406.6,157.7c-2.2-0.8-4.8-1.2-8.1-1.1
		l-3.9-7.1l-2.5,1.4l3.3,6c-2.5,0.3-5.3,0.7-8.2,1.4c-0.8,0.2-1.6,0.3-2.4,0.6c-1.4,0.4-2.8,0.8-4.2,1.2c-1.3,0.4-2.6,0.8-3.9,1.3
		c-1.2,0.4-2.5,0.9-3.7,1.4c-1.7,0.7-3.4,1.4-5.2,2.2c-1,0.4-2,0.9-3.1,1.3c-2.8,1.3-5.6,2.7-8.4,4.2l-3-5.4l-2.5,1.4l3,5.5
		c-2.1,1.2-4.1,2.4-6,3.6c-0.9,0.6-1.8,1.2-2.7,1.8c-1.6,1.1-3.2,2.1-4.7,3.2c-1.1,0.8-2.1,1.6-3.2,2.4c-1.1,0.8-2.1,1.7-3.1,2.5
		c-1.2,1-2.3,1.9-3.3,2.9l-1.6,1.5c-3,2.9-5.6,5.8-7.5,8.5l-2.5-4.7l-2.5,1.4l3.4,6.2l-0.3,0.7c-0.7,1.4-1.3,2.7-1.7,4l-10.5-20.1
		l-5-9.4l-6.5-12.3l0,0c0.4-1.1,0.9-2.3,1.6-3.6l2.8,5.1l2.5-1.4l-3.5-6.5c2-2.9,4.6-6,7.9-9.1l1.5-1.5c0.9-0.9,2-1.7,3-2.6
		c1.1-0.9,2.2-1.9,3.4-2.8c0.9-0.7,1.9-1.4,2.9-2.2c1.5-1.1,3.1-2.2,4.8-3.3c0.8-0.6,1.7-1.1,2.5-1.7c1.9-1.2,3.9-2.4,5.9-3.5v0
		l3.2,5.8l2.5-1.4l-3.2-5.9c2.8-1.5,5.6-2.9,8.4-4.2c1-0.5,2.1-0.9,3.1-1.4c1.7-0.8,3.4-1.5,5.1-2.1c1.3-0.5,2.6-1,3.8-1.4
		c1.3-0.4,2.5-0.8,3.7-1.2c1.5-0.4,2.9-0.9,4.3-1.3l2-0.5c3.1-0.7,6-1.2,8.6-1.4l2.8,5.2l2.5-1.3l-2.2-4c1.2,0,2.4,0.1,3.5,0.1
		l0.9,0.1c0.9,0.1,1.7,0.3,2.5,0.5l0.9,0.3L406.6,157.7L406.6,157.7z M412.9,170.7c-3.5-5.2-24-3.7-50.7,10.9
		c-26.7,14.6-39.1,31.1-36.5,36.8l0.1,0.3c3,5.5,23.9,4.2,51-10.6c27.1-14.8,39.5-31.6,36.5-37.2L412.9,170.7z M74.6,420.1V104.9
		l-0.2-0.9l21.2-25c3.2,1.2,6.4,2.3,9.8,3.4c42.8,13.3,82.2,8.7,88.1-10.1c5.9-18.9-24.1-44.9-66.9-58.2
		C83.8,0.7,44.4,5.3,38.5,24.2c-4.9,15.7,15,36.3,46.4,50.5l-60.9,71.6c-1.9,2.3-1.7,5.7,0.6,7.7c1,0.9,2.3,1.3,3.5,1.3
		c1.6,0,3.1-0.7,4.2-1.9l31.2-36.7v303.4L8.2,475.5c-2.1,2.1-2.1,5.6,0,7.8c1.1,1.1,2.5,1.6,3.9,1.6c1.4,0,2.8-0.5,3.9-1.6
		l47.7-47.7v34.8c0,3,2.4,5.5,5.5,5.5c3,0,5.5-2.4,5.5-5.5v-34.8l47.2,47.2c2.1,2.1,5.6,2.1,7.8,0c2.1-2.1,2.1-5.6,0-7.8L74.6,420.1
		z M141.3,83.2c21.9,0,37.3-6.2,40.4-16.2c2.3-7.5-2.9-17.9-14-28.3c16,11.4,24,23.7,21.3,32.1c-2.8,8.9-17.1,14.5-37.2,14.5
		c-10.2,0-21.2-1.4-32.5-4C126.9,82.5,134.3,83.2,141.3,83.2z"/>
</g>
</svg>
