<?xml version="1.0" encoding="UTF-8" standalone="no"?>
<svg width="150px" height="100px" viewBox="0 0 150 100" version="1.1" xmlns="http://www.w3.org/2000/svg" xmlns:xlink="http://www.w3.org/1999/xlink" xmlns:sketch="http://www.bohemiancoding.com/sketch/ns">
    <!-- Generator: Sketch 3.1.1 (8761) - http://www.bohemiancoding.com/sketch -->
    <title>music_tape</title>
    <desc>Created with Sketch.</desc>
    <defs></defs>
    <g id="Page-1" stroke="none" stroke-width="1" fill="none" fill-rule="evenodd" sketch:type="MSPage">
        <g id="music_tape" sketch:type="MSLayerGroup" transform="translate(0.000000, 1.000000)" fill="#231F20">
            <path d="M145.55666,-0.0601823708 L4.44333996,-0.0601823708 C1.99801193,-0.0601823708 0,1.92583587 0,4.39331307 L0,94.3659574 C0,96.8334347 1.99801193,98.8495441 4.44333996,98.8495441 L145.55666,98.8495441 C148.001988,98.8495441 150,96.8635258 150,94.3659574 L150,4.39331307 C149.970179,1.92583587 148.001988,-0.0601823708 145.55666,-0.0601823708 L145.55666,-0.0601823708 Z M39.1848907,92.5604863 C38.111332,92.5604863 37.2465209,91.6878419 37.2465209,90.5744681 C37.2465209,89.4911854 38.111332,88.618541 39.1848907,88.618541 C40.2584493,88.618541 41.1232604,89.4911854 41.1232604,90.5744681 C41.1232604,91.6577508 40.2584493,92.5604863 39.1848907,92.5604863 L39.1848907,92.5604863 Z M110.815109,92.5604863 C109.741551,92.5604863 108.87674,91.6878419 108.87674,90.5744681 C108.87674,89.4911854 109.741551,88.618541 110.815109,88.618541 C111.888668,88.618541 112.753479,89.4911854 112.753479,90.5744681 C112.7833,91.6577508 111.888668,92.5604863 110.815109,92.5604863 L110.815109,92.5604863 Z M125.129225,98.5787234 L118.270378,83.9544073 C117.22664,81.7276596 114.393638,79.8920973 111.94831,79.8920973 L37.9920477,79.8920973 C35.5467197,79.8920973 32.7137177,81.6975684 31.6699801,83.9544073 L24.8111332,98.5787234 L22.3658052,98.5787234 L22.693837,97.8866261 L29.6719682,82.9914894 C31.1033797,79.9522796 34.6819085,77.6653495 37.9920477,77.6653495 L111.94831,77.6653495 C115.258449,77.6653495 118.866799,79.9522796 120.26839,82.9914894 L127.246521,97.8866261 L127.574553,98.5787234 L125.129225,98.5787234 L125.129225,98.5787234 Z M140.487078,72.0984802 C140.487078,73.3322188 139.502982,74.3553191 138.280318,74.3553191 L11.7196819,74.3553191 C10.4970179,74.3553191 9.51292247,73.36231 9.51292247,72.0984802 L9.51292247,15.1960486 L13.0318091,11.6452888 L136.192843,11.6452888 L140.516899,16.0386018 L140.516899,72.0984802 L140.487078,72.0984802 Z M110.725646,25.8483283 L39.2445328,25.8483283 C32.3558648,25.8483283 26.5109344,30.3620061 24.4234592,36.5908815 L12.554672,36.5908815 L12.554672,70.0221884 C12.554672,71.2559271 13.5387674,72.2489362 14.7614314,72.2489362 L135.685885,72.2489362 C136.908549,72.2489362 137.892644,71.2559271 137.892644,70.0221884 L137.892644,36.6209726 L125.54672,36.6209726 C123.459245,30.3620061 117.614314,25.8483283 110.725646,25.8483283 L110.725646,25.8483283 Z M110.725646,54.7960486 L39.2743539,54.7960486 C32.0874751,54.7960486 26.2723658,48.8981763 26.2723658,41.6462006 C26.2723658,39.8708207 26.6302187,38.1857143 27.2564612,36.6209726 C29.2246521,31.8665653 33.8767396,28.5264438 39.2743539,28.5264438 L110.755467,28.5264438 C116.153082,28.5264438 120.805169,31.8665653 122.77336,36.6209726 C123.399602,38.1857143 123.787276,39.8708207 123.787276,41.6462006 C123.757455,48.8981763 117.912525,54.7960486 110.725646,54.7960486 L110.725646,54.7960486 Z M58.5387674,30.7231003 L39.2445328,30.7231003 C35.0994036,30.7231003 31.5208748,33.1303951 29.7017893,36.5908815 C28.8966203,38.0954407 28.4194831,39.8106383 28.4194831,41.6161094 C28.4194831,47.6343465 33.250497,52.5091185 39.2147117,52.5091185 L58.4493042,52.5091185 C60.3578529,49.2893617 61.5208748,45.5580547 61.5208748,41.5258359 C61.5208748,39.8106383 61.2823062,38.1556231 60.8946322,36.5607903 C60.387674,34.5446809 59.582505,32.5586626 58.5387674,30.7231003 L58.5387674,30.7231003 Z M39.9900596,49.7407295 C35.5168986,49.7407295 31.8787276,46.0696049 31.8787276,41.5559271 C31.8787276,39.6902736 32.5347913,38.0051672 33.5487078,36.6209726 C35.0397614,34.6650456 37.3658052,33.3711246 39.9900596,33.3711246 C42.6441352,33.3711246 44.9403579,34.6650456 46.4314115,36.6209726 C47.4751491,38.0051672 48.1013917,39.6902736 48.1013917,41.5559271 C48.1312127,46.099696 44.4930417,49.7407295 39.9900596,49.7407295 L39.9900596,49.7407295 Z M110.725646,30.7231003 L81.7992048,30.7231003 C81.083499,32.618845 80.5765408,34.574772 80.2485089,36.5908815 C79.9801193,38.2158055 79.8011928,39.8407295 79.8011928,41.5559271 C79.8011928,45.43769 80.5467197,49.1088146 81.8588469,52.5392097 L110.725646,52.5392097 C116.689861,52.5392097 121.520875,47.6644377 121.520875,41.6462006 C121.520875,39.8106383 121.043738,38.1255319 120.238569,36.6209726 C118.449304,33.1303951 114.900596,30.7231003 110.725646,30.7231003 L110.725646,30.7231003 Z M110.00994,49.7407295 C105.536779,49.7407295 101.898608,46.0696049 101.898608,41.5559271 C101.898608,39.6902736 102.524851,38.0051672 103.568588,36.6209726 C105.059642,34.6650456 107.385686,33.3711246 110.00994,33.3711246 C112.634195,33.3711246 114.960239,34.6650456 116.451292,36.6209726 C117.49503,38.0051672 118.121272,39.6902736 118.121272,41.5559271 C118.121272,46.099696 114.483101,49.7407295 110.00994,49.7407295 L110.00994,49.7407295 Z" id="Shape" sketch:type="MSShapeGroup"></path>
        </g>
    </g>
</svg>