<?xml version="1.0" encoding="UTF-8" standalone="no"?>
<svg width="151px" height="293px" viewBox="0 0 151 293" version="1.1" xmlns="http://www.w3.org/2000/svg" xmlns:xlink="http://www.w3.org/1999/xlink" xmlns:sketch="http://www.bohemiancoding.com/sketch/ns">
    <!-- Generator: Sketch 3.1.1 (8761) - http://www.bohemiancoding.com/sketch -->
    <title>music_saxaphone</title>
    <desc>Created with Sketch.</desc>
    <defs></defs>
    <g id="Page-1" stroke="none" stroke-width="1" fill="none" fill-rule="evenodd" sketch:type="MSPage">
        <g id="music_saxaphone" sketch:type="MSLayerGroup" transform="translate(0.000000, 1.000000)" fill="#231F20">
            <g id="Group" sketch:type="MSShapeGroup">
                <path d="M15.0561798,3.32586873 C14.4382022,3.15675676 13.8764045,3.04401544 13.3707865,2.98764479 L0.337078652,3.55135135 L0.0561797753,5.80617761 C2.47191011,6.82084942 9.83146067,9.86486486 9.83146067,9.86486486 C14.1011236,11.6123552 17.752809,12.9088803 21.2921348,13.8671815 L23.988764,4.50965251 L15.0561798,3.32586873 L15.0561798,3.32586873 Z" id="Shape"></path>
                <path d="M93.258427,135.064093 C92.9775281,137.657143 90.6741573,139.517375 88.0898876,139.235521 C85.505618,138.953668 83.6516854,136.642471 83.9325843,134.049421 C84.2134831,131.456371 86.5168539,129.596139 89.1011236,129.877992 C91.6853933,130.159846 93.5393258,132.471042 93.258427,135.064093 L93.258427,135.064093 Z" id="Shape"></path>
                <path d="M91.5730337,151.1861 C91.2921348,153.779151 88.988764,155.639382 86.4044944,155.357529 C83.8202247,155.075676 81.9662921,152.764479 82.247191,150.171429 C82.5280899,147.578378 84.8314607,145.718147 87.4157303,146 C89.9438202,146.281853 91.8539326,148.59305 91.5730337,151.1861 L91.5730337,151.1861 Z" id="Shape"></path>
                <path d="M89.1573034,168.830116 C88.8764045,171.423166 86.5730337,173.283398 83.988764,173.001544 C81.4044944,172.719691 79.5505618,170.408494 79.8314607,167.815444 C80.1123596,165.222394 82.4157303,163.362162 85,163.644015 C87.5842697,163.982239 89.4382022,166.293436 89.1573034,168.830116 L89.1573034,168.830116 Z" id="Shape"></path>
                <g transform="translate(24.157303, 0.000000)" id="Shape">
                    <path d="M72.6966292,32.63861 L72.6966292,32.5258687 L72.752809,32.4131274 C72.8089888,32.2440154 76.1235955,14.8254826 63.8764045,6.14440154 C72.1348315,15.2764479 69.4382022,29.2563707 69.3820225,29.4254826 L69.3258427,29.5382239 L69.3258427,29.6509653 L59.1573034,117.532819 L62.247191,123.000772 L72.6966292,32.63861 L72.6966292,32.63861 Z"></path>
                    <path d="M43.8764045,6.48262548 C39.2134831,7.04633205 34.5505618,7.83552124 30,9.07567568 C25.2247191,10.3158301 20.7865169,12.0633205 15.7303371,12.1760618 C13.3146067,12.2324324 10.8988764,12.1760618 8.53932584,12.0069498 C7.30337079,11.8942085 6.06741573,11.7814672 4.83146067,11.5559846 C3.70786517,11.3868726 3.93258427,11.7814672 3.65168539,12.796139 C8.37078652,13.6980695 13.4269663,13.9235521 18.258427,13.5289575 C23.1460674,13.1343629 27.8089888,10.992278 32.5842697,9.86486486 C41.5168539,7.77915058 53.1460674,5.18610039 61.3483146,10.5976834 C60.2247191,9.3011583 58.9325843,8.17374517 57.5280899,7.32818533 C53.1460674,5.74980695 48.4269663,5.91891892 43.8764045,6.48262548 L43.8764045,6.48262548 Z"></path>
                    <path d="M104.269663,179.145946 L109.775281,194.422394 C109.494382,194.422394 109.213483,194.366023 108.932584,194.366023 C81.3483146,194.309653 77.3595506,233.205405 75.6741573,248.932819 C74.9438202,255.584556 70,288.617761 41.4044944,285.573745 L40.6741573,285.517375 C34.8876404,284.784556 30.4494382,282.867954 27.0224719,280.387645 C30.7303371,284.333591 36.1235955,287.546718 44.0449438,288.505019 L44.7752809,288.56139 C73.4269663,291.605405 78.3707865,258.572201 79.0449438,251.920463 C80.7303371,236.19305 84.7191011,197.297297 112.303371,197.353668 C112.58427,197.353668 112.865169,197.353668 113.146067,197.410039 C114.382022,197.52278 115.730337,197.917375 117.134831,198.537452 L104.269663,179.145946 L104.269663,179.145946 Z"></path>
                    <path d="M91.011236,153.779151 C91.011236,153.779151 93.988764,164.207722 87.9775281,169.055598 C82.0224719,173.903475 68.7078652,192.731274 65.1685393,212.291892 C62.0786517,229.203089 57.8089888,239.462548 55.505618,251.864093 C55.1685393,253.498842 54.1573034,254.795367 53.2022472,254.682625 C52.247191,254.569884 51.6292135,253.160618 51.7977528,251.469498 L57.8651685,192.900386 L57.3595506,192.900386 C53.8202247,192.505792 51.2359551,189.292664 51.5730337,185.741313 C51.9101124,182.415444 54.7191011,179.935135 58.0337079,179.935135 C58.258427,179.935135 58.4831461,179.935135 58.7078652,179.991506 C58.8764045,179.991506 59.0449438,180.047876 59.2134831,180.104247 L59.7752809,174.918147 L59.6629213,174.918147 C57.9213483,174.749035 56.4044944,173.903475 55.2808989,172.550579 C54.2134831,171.197683 53.7078652,169.506564 53.8764045,167.759073 C54.2134831,164.433205 56.9662921,161.952896 60.3370787,161.952896 C60.5617978,161.952896 60.7865169,161.952896 61.011236,162.009266 C61.0674157,162.009266 61.1235955,162.009266 61.1235955,162.065637 L61.6292135,157.217761 C60.0561798,156.935907 58.6516854,156.146718 57.6966292,154.906564 C56.6292135,153.553668 56.1235955,151.862548 56.2921348,150.115058 C56.6292135,146.789189 59.3820225,144.30888 62.752809,144.30888 L63.0337079,144.30888 L63.3707865,141.039382 C61.8539326,140.757529 60.4494382,139.96834 59.4382022,138.728185 C58.3146067,137.37529 57.8651685,135.68417 58.0337079,133.93668 C58.3707865,130.610811 61.1235955,128.130502 64.4382022,128.130502 L64.7191011,128.130502 L75.7303371,33.0895753 C75.7303371,33.0895753 79.8876404,12.627027 64.494382,2.98764479 C53.0898876,-4.11505792 32.6966292,2.25482625 22.8089888,6.08803089 C19.6629213,7.27181467 14.5505618,7.77915058 11.2921348,6.98996139 L2.52808989,5.80617761 L-0.168539326,15.1637066 C5.2247191,16.5166023 10.505618,16.9675676 17.6404494,16.7420849 C22.1910112,16.572973 26.011236,14.8818533 30.3370787,13.6980695 C34.8876404,12.4579151 39.7191011,11.6123552 44.3820225,11.0486486 C48.7640449,10.4849421 53.9325843,10.3158301 58.0337079,12.2888031 C68.4269663,17.3621622 66.011236,30.6092664 64.1011236,39.3467181 C62.3033708,47.5204633 22.9213483,224.918919 17.1910112,253.160618 C16.8539326,254.795367 15.8988764,261.898069 16.5168539,265.280309 C17.8651685,272.608494 22.9213483,289.012355 43.5955056,291.605405 C69.5505618,294.874903 80,271.537452 82.0224719,252.315058 C84.0449438,233.092664 88.4269663,200.397683 112.247191,200.454054 C115.505618,200.454054 121.235955,204.118147 126.067416,206.598456 L91.011236,153.779151 L91.011236,153.779151 Z M32.5842697,9.86486486 C27.8089888,10.9359073 23.1460674,13.1343629 18.258427,13.5289575 C13.4269663,13.9235521 8.42696629,13.6416988 3.65168539,12.796139 C3.93258427,11.7814672 3.70786517,11.3868726 4.83146067,11.5559846 C6.06741573,11.7814672 7.30337079,11.8942085 8.53932584,12.0069498 C10.9550562,12.1760618 13.3146067,12.2324324 15.7303371,12.1760618 C20.7303371,12.0633205 25.1685393,10.3158301 30,9.07567568 C34.5505618,7.83552124 39.2134831,7.04633205 43.8764045,6.48262548 C48.4269663,5.91891892 53.1460674,5.74980695 57.4719101,7.32818533 C58.9325843,8.23011583 60.2247191,9.3011583 61.2921348,10.5976834 C53.0898876,5.18610039 41.4606742,7.77915058 32.5842697,9.86486486 L32.5842697,9.86486486 Z M69.3258427,29.7073359 L69.3258427,29.5945946 L69.3820225,29.4818533 C69.4382022,29.3127413 72.1348315,15.3328185 63.8764045,6.2007722 C76.1797753,14.8254826 72.8089888,32.3003861 72.752809,32.4694981 L72.6966292,32.5822394 L72.6966292,32.6949807 L62.247191,123.057143 L59.1573034,117.589189 L69.3258427,29.7073359 L69.3258427,29.7073359 Z M112.303371,197.353668 C84.6629213,197.297297 80.7303371,236.249421 79.0449438,251.920463 C78.3146067,258.572201 73.3707865,291.605405 44.7752809,288.56139 L44.0449438,288.505019 C36.1235955,287.490347 30.7303371,284.333591 27.0224719,280.387645 C30.4494382,282.924324 34.8876404,284.840927 40.6741573,285.517375 L41.4044944,285.573745 C70.0561798,288.617761 75,255.584556 75.6741573,248.932819 C77.3595506,233.205405 81.3483146,194.309653 108.932584,194.366023 C109.213483,194.366023 109.494382,194.366023 109.775281,194.422394 L104.269663,179.145946 L117.134831,198.481081 C115.730337,197.917375 114.382022,197.52278 113.146067,197.353668 C112.865169,197.353668 112.58427,197.353668 112.303371,197.353668 L112.303371,197.353668 Z"></path>
                </g>
                <path d="M86.9101124,186.868726 C86.6292135,189.461776 84.3258427,191.322008 81.741573,191.040154 C79.1573034,190.758301 77.3033708,188.447104 77.5842697,185.854054 C77.8651685,183.261004 80.1685393,181.400772 82.752809,181.682625 C85.3370787,181.964479 87.1910112,184.275676 86.9101124,186.868726 L86.9101124,186.868726 Z" id="Shape"></path>
            </g>
        </g>
    </g>
</svg>