<?xml version="1.0" encoding="UTF-8" standalone="no"?>
<svg width="152px" height="97px" viewBox="0 0 152 97" version="1.1" xmlns="http://www.w3.org/2000/svg" xmlns:xlink="http://www.w3.org/1999/xlink" xmlns:sketch="http://www.bohemiancoding.com/sketch/ns">
    <!-- Generator: Sketch 3.1.1 (8761) - http://www.bohemiancoding.com/sketch -->
    <title>music_stereo</title>
    <desc>Created with Sketch.</desc>
    <defs></defs>
    <g id="Page-1" stroke="none" stroke-width="1" fill="none" fill-rule="evenodd" sketch:type="MSPage">
        <g id="music_stereo" sketch:type="MSLayerGroup" transform="translate(1.000000, 1.000000)" fill="#231F20">
            <path d="M145.167984,22.1813665 L141.343874,22.1813665 L141.343874,10.7329193 C141.343874,4.71055901 136.482213,-0.149068323 130.523715,-0.149068323 L19.4762846,-0.149068323 C13.4881423,-0.149068323 8.65612648,4.71055901 8.65612648,10.7329193 L8.65612648,22.1813665 L4.80237154,22.1813665 C2.07509881,22.1813665 -0.118577075,24.3875776 -0.118577075,27.1304348 L-0.118577075,91.0509317 C-0.118577075,93.7937888 2.07509881,96 4.80237154,96 L145.13834,96 C147.865613,96 150.059289,93.7937888 150.059289,91.0509317 L150.059289,27.1304348 C150.088933,24.3875776 147.865613,22.1813665 145.167984,22.1813665 L145.167984,22.1813665 Z M13.4288538,10.7329193 C13.4288538,7.36397516 16.1264822,4.65093168 19.4762846,4.65093168 L130.494071,4.65093168 C133.843874,4.65093168 136.541502,7.36397516 136.541502,10.7329193 L136.541502,22.1813665 L123.231225,22.1813665 L25.8794466,12.0745342 C25.8794466,10.6732919 24.7233202,9.51055901 23.3300395,9.51055901 C21.9367589,9.51055901 20.7806324,10.6732919 20.7806324,12.0745342 C20.7806324,13.5055901 21.9367589,14.6385093 23.3300395,14.6385093 C24.2786561,14.6385093 25.0790514,14.1018634 25.5237154,13.2968944 L110.928854,22.1813665 L13.4288538,22.1813665 L13.4288538,10.7329193 L13.4288538,10.7329193 Z M7.70750988,27.8459627 L142.262846,27.8459627 L142.262846,39.4732919 L7.70750988,39.4732919 L7.70750988,27.8459627 L7.70750988,27.8459627 Z M103.962451,45.1378882 L103.962451,51.1900621 L46.0079051,51.1900621 L46.0079051,45.1378882 L103.962451,45.1378882 L103.962451,45.1378882 Z M26.1758893,89.4708075 C14.6146245,89.4708075 5.24703557,80.0496894 5.24703557,68.4223602 C5.24703557,62.489441 7.70750988,57.1229814 11.6798419,53.2770186 C12.8359684,52.1440994 14.1403162,51.1602484 15.5335968,50.3254658 C18.6462451,48.4770186 22.2924901,47.373913 26.1758893,47.373913 C31.0079051,47.373913 35.4545455,49.0434783 39.0118577,51.8161491 C40.7312253,53.1875776 42.2727273,54.7975155 43.5177866,56.6161491 C45.770751,59.9850932 47.1047431,64.0397516 47.1047431,68.3925466 C47.1047431,80.0795031 37.7371542,89.4708075 26.1758893,89.4708075 L26.1758893,89.4708075 Z M56.798419,90.573913 L52.173913,90.573913 L52.173913,85.952795 L56.7687747,85.952795 L56.7687747,90.573913 L56.798419,90.573913 Z M64.9802372,90.573913 L60.3853755,90.573913 L60.3853755,85.952795 L64.9802372,85.952795 L64.9802372,90.573913 L64.9802372,90.573913 Z M73.1916996,90.573913 L68.5968379,90.573913 L68.5968379,85.952795 L73.1916996,85.952795 L73.1916996,90.573913 L73.1916996,90.573913 Z M81.3735178,90.573913 L76.7786561,90.573913 L76.7786561,85.952795 L81.3735178,85.952795 L81.3735178,90.573913 L81.3735178,90.573913 Z M89.5849802,90.573913 L84.9901186,90.573913 L84.9901186,85.952795 L89.5849802,85.952795 L89.5849802,90.573913 L89.5849802,90.573913 Z M98.0039526,84.1341615 L51.9664032,84.1341615 L51.9664032,55.0062112 L97.9743083,55.0062112 L97.9743083,84.1341615 L98.0039526,84.1341615 Z M123.794466,89.4708075 C112.233202,89.4708075 102.865613,80.0496894 102.865613,68.4223602 C102.865613,64.0695652 104.199605,60.0149068 106.452569,56.6459627 C107.697628,54.8273292 109.209486,53.1875776 110.958498,51.8459627 C114.51581,49.0732919 118.962451,47.4037267 123.794466,47.4037267 C127.677866,47.4037267 131.324111,48.4770186 134.436759,50.3552795 C135.83004,51.1900621 137.134387,52.173913 138.290514,53.3068323 C142.233202,57.1229814 144.72332,62.489441 144.72332,68.4521739 C144.693676,80.0795031 135.355731,89.4708075 123.794466,89.4708075 L123.794466,89.4708075 Z M132.065217,56.4968944 C129.72332,54.8571429 126.87747,53.8732919 123.794466,53.8732919 C120.62253,53.8732919 117.687747,54.9167702 115.316206,56.6459627 C111.699605,59.2993789 109.328063,63.5627329 109.328063,68.4223602 C109.328063,76.4720497 115.820158,83.0012422 123.794466,83.0012422 C131.798419,83.0012422 138.290514,76.4720497 138.290514,68.4223602 C138.26087,63.5031056 135.800395,59.1503106 132.065217,56.4968944 L132.065217,56.4968944 Z M123.794466,73.3118012 C121.126482,73.3118012 118.962451,71.1354037 118.962451,68.4521739 C118.962451,65.7689441 121.126482,63.5925466 123.794466,63.5925466 C126.462451,63.5925466 128.626482,65.7689441 128.626482,68.4521739 C128.626482,71.1354037 126.462451,73.3118012 123.794466,73.3118012 L123.794466,73.3118012 Z M34.6541502,56.6757764 C32.2529644,54.9167702 29.3478261,53.9031056 26.1758893,53.9031056 C23.0928854,53.9031056 20.2470356,54.8869565 17.9051383,56.5267081 C14.1699605,59.1503106 11.7094862,63.5329193 11.7094862,68.4521739 C11.7094862,76.5018634 18.201581,83.0310559 26.2055336,83.0310559 C34.2094862,83.0310559 40.701581,76.5018634 40.701581,68.4521739 C40.6719368,63.5925466 38.3003953,59.3291925 34.6541502,56.6757764 L34.6541502,56.6757764 Z M26.1758893,73.3118012 C23.5079051,73.3118012 21.3438735,71.1354037 21.3438735,68.4521739 C21.3438735,65.7689441 23.5079051,63.5925466 26.1758893,63.5925466 C28.8438735,63.5925466 31.0079051,65.7689441 31.0079051,68.4521739 C31.0079051,71.1354037 28.8438735,73.3118012 26.1758893,73.3118012 L26.1758893,73.3118012 Z M21.2252964,37.7142857 L103.903162,37.7142857 L103.903162,29.9925466 L21.2252964,29.9925466 L21.2252964,37.7142857 L21.2252964,37.7142857 Z M105.770751,37.7142857 L116.857708,37.7142857 L116.857708,29.9925466 L105.770751,29.9925466 L105.770751,37.7142857 L105.770751,37.7142857 Z M118.488142,37.7142857 L129.575099,37.7142857 L129.575099,29.9925466 L118.488142,29.9925466 L118.488142,37.7142857 L118.488142,37.7142857 Z M136.541502,30.0521739 C136.333992,30.0223602 136.156126,29.9925466 135.948617,29.9925466 C133.814229,29.9925466 132.094862,31.7217391 132.094862,33.868323 C132.094862,36.0149068 133.814229,37.7440994 135.948617,37.7440994 C136.156126,37.7440994 136.333992,37.7142857 136.541502,37.684472 C138.379447,37.3863354 139.802372,35.8062112 139.802372,33.868323 C139.802372,31.9304348 138.379447,30.3204969 136.541502,30.0521739 L136.541502,30.0521739 Z M14.4664032,29.9925466 C14.1106719,29.9925466 13.7549407,30.0521739 13.4288538,30.1416149 C11.798419,30.5888199 10.6126482,32.0795031 10.6126482,33.8385093 C10.6126482,35.5975155 11.798419,37.0881988 13.4288538,37.5354037 C13.7549407,37.6248447 14.1106719,37.684472 14.4664032,37.684472 C16.6007905,37.684472 18.3201581,35.9552795 18.3201581,33.8086957 C18.3201581,31.7217391 16.6007905,29.9925466 14.4664032,29.9925466 L14.4664032,29.9925466 Z M84.5454545,49.5801242 C85.4347826,49.5801242 86.1462451,48.8347826 86.1462451,47.9403727 C86.1462451,47.0459627 85.4347826,46.3006211 84.5454545,46.3006211 C83.6561265,46.3006211 82.9150198,47.0161491 82.9150198,47.9403727 C82.9150198,48.8645963 83.6561265,49.5801242 84.5454545,49.5801242 L84.5454545,49.5801242 Z M91.4525692,49.5801242 C92.3418972,49.5801242 93.083004,48.8347826 93.083004,47.9403727 C93.083004,47.0459627 92.3715415,46.3006211 91.4525692,46.3006211 C90.5632411,46.3006211 89.8221344,47.0161491 89.8221344,47.9403727 C89.8221344,48.8645963 90.5632411,49.5801242 91.4525692,49.5801242 L91.4525692,49.5801242 Z M98.3596838,49.5801242 C99.2490119,49.5801242 99.9901186,48.8347826 99.9901186,47.9403727 C99.9901186,47.0459627 99.2786561,46.3006211 98.3596838,46.3006211 C97.4703557,46.3006211 96.729249,47.0161491 96.729249,47.9403727 C96.7588933,48.8645963 97.4703557,49.5801242 98.3596838,49.5801242 L98.3596838,49.5801242 Z M50.2173913,48 L50.2766798,47.6720497 L47.7865613,47.6720497 L47.7865613,48.4173913 L50.3063241,48.4173913 L50.2173913,48 L50.2173913,48 Z M81.1660079,48.3875776 L81.1660079,47.642236 L53.9229249,47.642236 L53.9822134,47.9701863 L53.8932806,48.3875776 L81.1660079,48.3875776 L81.1660079,48.3875776 Z M95.06917,58.1068323 L54.9011858,58.1068323 L54.9011858,77.336646 L95.06917,77.336646 L95.06917,58.1068323 L95.06917,58.1068323 Z M61.986166,68.2136646 C60.326087,68.2136646 58.9624506,66.842236 58.9624506,65.1726708 C58.9624506,63.5031056 60.326087,62.131677 61.986166,62.131677 C63.6462451,62.131677 65.0098814,63.5031056 65.0098814,65.1726708 C65.0098814,66.842236 63.6462451,68.2136646 61.986166,68.2136646 L61.986166,68.2136646 Z M68.8339921,69.2571429 C69.5454545,68.0645963 69.9901186,66.6931677 69.9901186,65.2024845 C69.9901186,63.7416149 69.5750988,62.3701863 68.8932806,61.2074534 L77.5197628,61.2074534 C77.0454545,62.4596273 76.7786561,63.8012422 76.7786561,65.2024845 C76.7786561,66.6335404 77.0454545,68.0049689 77.5494071,69.2571429 L68.8339921,69.2571429 L68.8339921,69.2571429 Z M87.9841897,68.2136646 C86.3241107,68.2136646 84.9604743,66.842236 84.9604743,65.1726708 C84.9604743,63.5031056 86.3241107,62.131677 87.9841897,62.131677 C89.6442688,62.131677 91.0079051,63.5031056 91.0079051,65.1726708 C91.0079051,66.842236 89.6442688,68.2136646 87.9841897,68.2136646 L87.9841897,68.2136646 Z" id="Shape" sketch:type="MSShapeGroup"></path>
        </g>
    </g>
</svg>