<?xml version="1.0" encoding="utf-8"?>
<!-- Generator: Adobe Illustrator 18.1.0, SVG Export Plug-In . SVG Version: 6.00 Build 0)  -->
<!DOCTYPE svg PUBLIC "-//W3C//DTD SVG 1.1//EN" "http://www.w3.org/Graphics/SVG/1.1/DTD/svg11.dtd">
<svg version="1.1" id="Layer_1" xmlns="http://www.w3.org/2000/svg" xmlns:xlink="http://www.w3.org/1999/xlink" x="0px" y="0px"
	 width="110px" height="82.8px" viewBox="0 0 110 82.8" enable-background="new 0 0 110 82.8" xml:space="preserve">
<g>
	<path fill="#231F20" d="M106.3,3.8H3.7c-1.8,0-3.2,1.4-3.2,3.2v64.8c0,1.8,1.4,3.2,3.2,3.2h102.6c1.8,0,3.2-1.4,3.2-3.2V7.1
		C109.5,5.3,108.1,3.8,106.3,3.8z M29,70.6c-0.8,0-1.4-0.6-1.4-1.4c0-0.8,0.6-1.4,1.4-1.4c0.8,0,1.4,0.6,1.4,1.4
		C30.4,70,29.7,70.6,29,70.6z M81,70.6c-0.8,0-1.4-0.6-1.4-1.4c0-0.8,0.6-1.4,1.4-1.4c0.8,0,1.4,0.6,1.4,1.4
		C82.5,70,81.8,70.6,81,70.6z M91.5,74.9l-5-10.5c-0.8-1.6-2.8-2.9-4.6-2.9H28.1c-1.8,0-3.8,1.3-4.6,2.9l-5,10.5h-1.8l0.2-0.5
		l5.1-10.7c1-2.2,3.6-3.8,6.1-3.8h53.8c2.4,0,5,1.7,6.1,3.8L93,74.4l0.2,0.5H91.5z M102.6,55.9c0,0.9-0.7,1.6-1.6,1.6H9
		c-0.9,0-1.6-0.7-1.6-1.6v-41l2.6-2.6h89.5l3.2,3.2V55.9z M81,22.5H29c-5,0-9.3,3.2-10.8,7.7H9.6v24.1c0,0.9,0.7,1.6,1.6,1.6h87.9
		c0.9,0,1.6-0.7,1.6-1.6V30.3h-9C90.2,25.8,86,22.5,81,22.5z M81,43.4H29c-5.2,0-9.5-4.2-9.5-9.5c0-1.3,0.3-2.5,0.7-3.6
		c1.4-3.4,4.8-5.8,8.7-5.8h52c3.9,0,7.3,2.4,8.7,5.8c0.5,1.1,0.7,2.3,0.7,3.6C90.4,39.1,86.2,43.4,81,43.4z M43,26H29
		c-3,0-5.6,1.7-6.9,4.2c-0.6,1.1-0.9,2.3-0.9,3.6c0,4.3,3.5,7.9,7.9,7.9H43c1.4-2.3,2.2-5,2.2-7.9c0-1.2-0.2-2.4-0.5-3.6
		C44.4,28.8,43.8,27.4,43,26z M29.5,39.7c-3.3,0-5.9-2.6-5.9-5.9c0-1.3,0.5-2.6,1.2-3.6c1.1-1.4,2.8-2.3,4.7-2.3
		c1.9,0,3.6,0.9,4.7,2.3c0.8,1,1.2,2.2,1.2,3.6C35.5,37.1,32.8,39.7,29.5,39.7z M81,26h-21c-0.5,1.4-0.9,2.8-1.1,4.2
		c-0.2,1.2-0.3,2.4-0.3,3.6c0,2.8,0.5,5.5,1.5,7.9h21c4.3,0,7.9-3.5,7.9-7.9c0-1.3-0.4-2.5-0.9-3.6C86.6,27.8,84,26,81,26z
		 M80.5,39.7c-3.3,0-5.9-2.6-5.9-5.9c0-1.3,0.5-2.6,1.2-3.6c1.1-1.4,2.8-2.3,4.7-2.3c1.9,0,3.6,0.9,4.7,2.3c0.8,1,1.2,2.2,1.2,3.6
		C86.4,37.1,83.7,39.7,80.5,39.7z"/>
</g>
</svg>
