<?xml version="1.0" encoding="utf-8"?>
<!-- Generator: Adobe Illustrator 18.1.0, SVG Export Plug-In . SVG Version: 6.00 Build 0)  -->
<!DOCTYPE svg PUBLIC "-//W3C//DTD SVG 1.1//EN" "http://www.w3.org/Graphics/SVG/1.1/DTD/svg11.dtd">
<svg version="1.1" id="Layer_1" xmlns="http://www.w3.org/2000/svg" xmlns:xlink="http://www.w3.org/1999/xlink" x="0px" y="0px"
	 width="110px" height="124px" viewBox="0 0 110 124" enable-background="new 0 0 110 124" xml:space="preserve">
<g>
	<path fill="#231F20" d="M64.8,67.4c-1.9,0.1-3.8,0.3-5.8,0.9C45.4,72,37.4,86,41.1,99.6c0.6,2.2,1.5,4.2,2.6,6.1
		c0.6,1.1,1.3,2.1,2,3.1c6.2,7.8,16.6,11.6,26.7,8.8c5.5-1.5,10.1-4.7,13.3-8.8c0.8-1,1.5-2,2.1-3c3.3-5.7,4.4-12.7,2.6-19.5
		c-2.8-10.4-11.7-17.6-21.9-18.7C67.3,67.4,66.1,67.4,64.8,67.4z M49.9,60.8L49.9,60.8c0.7-1.6-2.5-5.8-9.4-9.5
		c-6.8-3.7-12.1-4.1-13-2.8l-0.1,0.1c-0.8,1.4,2.4,5.7,9.3,9.5C43.8,61.9,49.1,62.2,49.9,60.8z M105.4,45.9l-5.7-10.4l-1.6-2.9l0,0
		c-1.5-2.1-7.7-1-14.1,2.5c-6.4,3.5-10.7,8.1-9.8,10.5l0,0l1.6,2.9l0.8,1.4h-8v-0.8c0-1-0.8-1.9-1.9-1.9c-1,0-1.9,0.8-1.9,1.9v0.8
		h-8l0.8-1.4l1.6-2.9l0,0c1-2.3-3.3-7-9.8-10.5c-6.4-3.5-12.6-4.6-14.1-2.5l0,0l-1.6,2.9L28,45.9l-1.2,2.2l0,0
		c1.3-2.2,7.6-1.1,14.2,2.5c6.5,3.6,10.8,8.3,9.7,10.6l0,0l1.2-2.2l3.6-6.6h9.3v8.4c-2.5,0.1-5,0.4-7.5,1.1
		C40.2,66.5,30,84.2,34.7,101.4c1.2,4.4,3.2,8.3,5.9,11.6l-5.9,13.9c-0.3,0.8,0,1.7,0.8,2c0.8,0.3,1.7,0,2-0.8l5.4-12.6
		c7.9,8,19.7,11.6,31.3,8.5c5.7-1.6,10.6-4.6,14.5-8.5L94,128c0.3,0.8,1.2,1.1,2,0.8c0.8-0.3,1.1-1.2,0.8-2l-6-13.9
		c6.1-7.7,8.7-18.2,5.9-28.4c-3.6-13.4-15.2-22.5-28.3-23.6v-8.5h9.3l3.6,6.6l1.2,2.2l0,0c-1.1-2.3,3.2-7,9.7-10.6
		c6.5-3.6,12.8-4.6,14.1-2.4l0,0L105.4,45.9z M54.5,52.4l-2.7,5.1c-0.1-0.4-0.3-0.7-0.5-1.1l0.9-1.6l-0.6-0.3l-0.7,1.2
		c-0.5-0.7-1.2-1.4-2-2.2L48.5,53c-0.3-0.2-0.6-0.5-0.9-0.7c-0.3-0.2-0.5-0.4-0.8-0.7c-0.3-0.2-0.5-0.4-0.8-0.6
		c-0.4-0.3-0.8-0.6-1.2-0.8c-0.2-0.2-0.5-0.3-0.7-0.5c-0.5-0.3-1-0.6-1.5-0.9l0.8-1.4l-0.6-0.4L42,48.5c-0.7-0.4-1.4-0.8-2.2-1.1
		c-0.3-0.1-0.5-0.2-0.8-0.3c-0.5-0.2-0.9-0.4-1.3-0.6c-0.3-0.1-0.6-0.2-0.9-0.3c-0.3-0.1-0.7-0.2-1-0.3c-0.4-0.1-0.7-0.2-1.1-0.3
		l-0.5-0.1C33.5,45.2,32.7,45,32,45l0.8-1.5l-0.6-0.3l-1,1.8c-0.7,0-1.4,0.1-1.9,0.2l5.8-10.4l0.1,0c0.2-0.1,0.4-0.1,0.7-0.1l0.2,0
		c0.3,0,0.6,0,0.8,0l-0.6,1l0.6,0.3l0.7-1.3c0.7,0.1,1.5,0.2,2.4,0.4l0.4,0.1c0.3,0.1,0.7,0.2,1.1,0.3c0.3,0.1,0.6,0.2,1,0.3
		c0.3,0.1,0.6,0.2,0.9,0.4c0.4,0.2,0.9,0.4,1.3,0.5c0.3,0.1,0.5,0.2,0.8,0.3c0.7,0.3,1.4,0.7,2.1,1.1l-0.8,1.5l0.6,0.3l0.8-1.5l0,0
		c0.5,0.3,1,0.6,1.5,0.9c0.2,0.1,0.4,0.3,0.7,0.4c0.4,0.3,0.8,0.6,1.2,0.8c0.3,0.2,0.5,0.4,0.8,0.6c0.3,0.2,0.6,0.5,0.8,0.7
		c0.3,0.2,0.6,0.5,0.8,0.7l0.3,0.3c0.8,0.8,1.5,1.6,2,2.4l-0.9,1.7l0.6,0.3l0.7-1.3c0.2,0.3,0.3,0.7,0.4,1l0,0l-1.7,3.1L54.5,52.4z
		 M94.9,85c2.5,9.2,0.4,18.6-4.9,25.8c-0.7,0.9-1.4,1.8-2.2,2.7c-3.7,4-8.5,7-14.2,8.6c-11.2,3-22.6-0.6-30-8.6
		c-0.8-0.8-1.5-1.7-2.2-2.7c-2.2-2.9-3.8-6.3-4.9-10c-4.4-16.1,5.1-32.7,21.2-37c2.3-0.6,4.7-0.9,7-1c1.2,0,2.5,0,3.7,0.1
		C80.7,64,91.5,72.5,94.9,85z M104.2,45.2c-0.6-0.2-1.2-0.3-2.1-0.3l-1-1.8l-0.6,0.3l0.8,1.5c-0.6,0.1-1.4,0.2-2.1,0.4
		c-0.2,0-0.4,0.1-0.6,0.1c-0.4,0.1-0.7,0.2-1.1,0.3c-0.3,0.1-0.7,0.2-1,0.3c-0.3,0.1-0.6,0.2-1,0.4c-0.4,0.2-0.9,0.4-1.3,0.6
		c-0.3,0.1-0.5,0.2-0.8,0.3c-0.7,0.3-1.4,0.7-2.2,1.1l-0.8-1.4l-0.6,0.4l0.8,1.4c-0.5,0.3-1,0.6-1.5,0.9c-0.2,0.2-0.5,0.3-0.7,0.5
		c-0.4,0.3-0.8,0.5-1.2,0.8c-0.3,0.2-0.5,0.4-0.8,0.6c-0.3,0.2-0.5,0.4-0.8,0.7c-0.3,0.2-0.6,0.5-0.9,0.7l-0.4,0.4
		c-0.8,0.7-1.4,1.5-1.9,2.2l-0.7-1.2l-0.6,0.3l0.9,1.6l-0.1,0.2c-0.2,0.4-0.3,0.7-0.4,1l-2.7-5.2l-1.3-2.4l-1.7-3.1l0,0
		c0.1-0.3,0.2-0.6,0.4-0.9l0.7,1.3l0.6-0.3l-0.9-1.7c0.5-0.7,1.2-1.5,2-2.3l0.4-0.4c0.2-0.2,0.5-0.4,0.8-0.7
		c0.3-0.2,0.6-0.5,0.9-0.7c0.2-0.2,0.5-0.4,0.7-0.6c0.4-0.3,0.8-0.6,1.2-0.9c0.2-0.1,0.4-0.3,0.7-0.4c0.5-0.3,1-0.6,1.5-0.9v0
		l0.8,1.5l0.6-0.3L85.6,38c0.7-0.4,1.4-0.8,2.2-1.1c0.3-0.1,0.5-0.2,0.8-0.4c0.4-0.2,0.9-0.4,1.3-0.5c0.3-0.1,0.7-0.3,1-0.4
		c0.3-0.1,0.6-0.2,1-0.3c0.4-0.1,0.8-0.2,1.1-0.3l0.5-0.1c0.8-0.2,1.5-0.3,2.2-0.4l0.7,1.3l0.6-0.3l-0.6-1c0.3,0,0.6,0,0.9,0l0.2,0
		c0.2,0,0.4,0.1,0.6,0.1l0.2,0.1L104.2,45.2L104.2,45.2z M105.8,48.5c-0.9-1.3-6.2-1-13,2.8c-6.8,3.7-10,8-9.4,9.4l0,0.1
		c0.8,1.4,6.1,1.1,13.1-2.7C103.5,54.3,106.6,50,105.8,48.5L105.8,48.5z M19.1,112.4V31.7l0-0.2l5.4-6.4c0.8,0.3,1.6,0.6,2.5,0.9
		c11,3.4,21.1,2.2,22.6-2.6c1.5-4.8-6.2-11.5-17.1-14.9C21.5,5,11.4,6.1,9.9,11c-1.2,4,3.9,9.3,11.9,12.9L6.1,42.3
		c-0.5,0.6-0.4,1.5,0.2,2c0.3,0.2,0.6,0.3,0.9,0.3c0.4,0,0.8-0.2,1.1-0.5l8-9.4v77.8L2.1,126.7c-0.5,0.5-0.5,1.4,0,2
		c0.3,0.3,0.6,0.4,1,0.4c0.4,0,0.7-0.1,1-0.4l12.2-12.2v8.9c0,0.8,0.6,1.4,1.4,1.4c0.8,0,1.4-0.6,1.4-1.4v-8.9l12.1,12.1
		c0.6,0.5,1.4,0.5,2,0c0.5-0.6,0.5-1.4,0-2L19.1,112.4z M36.2,26.1c5.6,0,9.6-1.6,10.3-4.1c0.6-1.9-0.7-4.6-3.6-7.2
		c4.1,2.9,6.1,6.1,5.5,8.2c-0.7,2.3-4.4,3.7-9.5,3.7c-2.6,0-5.4-0.4-8.3-1C32.5,25.9,34.4,26.1,36.2,26.1z"/>
</g>
</svg>
