<?xml version="1.0" encoding="UTF-8" standalone="no"?>
<svg width="151px" height="394px" viewBox="0 0 151 394" version="1.1" xmlns="http://www.w3.org/2000/svg" xmlns:xlink="http://www.w3.org/1999/xlink" xmlns:sketch="http://www.bohemiancoding.com/sketch/ns">
    <!-- Generator: Sketch 3.1.1 (8761) - http://www.bohemiancoding.com/sketch -->
    <title>music_guitar</title>
    <desc>Created with Sketch.</desc>
    <defs></defs>
    <g id="Page-1" stroke="none" stroke-width="1" fill="none" fill-rule="evenodd" sketch:type="MSPage">
        <g id="music_guitar" sketch:type="MSLayerGroup" transform="translate(0.000000, 1.000000)" fill="#231F20">
            <path d="M136.20603,312.966795 C127.462312,302.029175 123.768844,288.677735 128.517588,275.703455 C133.115578,263.181766 152.261307,248.925144 141.633166,234.366795 C131.758794,220.78906 124.974874,233.76334 124.974874,233.76334 C124.974874,233.76334 118.190955,255.412284 103.341709,255.412284 C95.201005,255.412284 93.0150754,250.433781 91.1306533,244.851823 L91.1306533,288.45144 L63.241206,288.45144 L63.241206,229.237428 C49.8241206,232.179271 39.3467337,207.965643 34.6733668,191.068906 C33.3919598,186.392131 27.8894472,176.208829 19.2211055,202.836276 C10.5527638,229.463724 26.8341709,250.961804 34.0703518,265.218426 C42.6633166,282.039731 25.7788945,301.802879 17.2613065,310.251248 C6.48241206,319.001344 1.33896244e-14,330.165259 1.33896244e-14,342.385221 C1.33896244e-14,370.219578 33.6180905,392.773704 75.0753769,392.773704 C116.532663,392.773704 150.150754,370.219578 150.150754,342.385221 C150.301508,331.372169 145.025126,321.264299 136.20603,312.966795 L136.20603,312.966795 Z M92.7135678,361.922073 C92.7135678,366.146257 89.321608,369.540691 85.1005025,369.540691 L66.6331658,369.540691 C62.4120603,369.540691 59.0201005,366.146257 59.0201005,361.922073 L59.0201005,359.206526 C59.0201005,354.982342 62.4120603,351.587908 66.6331658,351.587908 L85.1005025,351.587908 C89.321608,351.587908 92.7135678,354.982342 92.7135678,359.206526 L92.7135678,361.922073 L92.7135678,361.922073 Z M90.3768844,338.161036 L61.4321608,338.161036 C60,338.161036 58.8693467,337.029559 58.8693467,335.596353 C58.8693467,334.163148 60,333.03167 61.4321608,333.03167 L90.3768844,333.03167 C91.8090452,333.03167 92.9396985,334.163148 92.9396985,335.596353 C92.9396985,337.029559 91.7336683,338.161036 90.3768844,338.161036 L90.3768844,338.161036 Z M90.3768844,324.734165 L61.4321608,324.734165 C60,324.734165 58.8693467,323.602687 58.8693467,322.169482 C58.8693467,320.736276 60,319.604798 61.4321608,319.604798 L90.3768844,319.604798 C91.8090452,319.604798 92.9396985,320.736276 92.9396985,322.169482 C92.9396985,323.527255 91.7336683,324.734165 90.3768844,324.734165 L90.3768844,324.734165 Z M60.9045226,29.4184261 C63.0150754,29.4184261 64.8241206,27.6834933 64.8241206,25.4959693 C64.8241206,23.3838772 63.0904523,21.5735125 60.9045226,21.5735125 C58.7939698,21.5735125 56.9849246,23.3084453 56.9849246,25.4959693 C57.0603015,27.6834933 58.7939698,29.4184261 60.9045226,29.4184261 L60.9045226,29.4184261 Z M55.6281407,68.4921305 L67.160804,80.0332054 L67.160804,284.755278 L87.0603015,284.755278 L87.0603015,80.3349328 L98.2160804,68.3412668 L93.4673367,45.2591171 C91.5075377,33.2654511 93.241206,20.5928983 97.3869347,17.0476008 C101.457286,13.5023033 102.361809,7.16602687 99.3467337,2.86641075 C96.3316583,-1.43320537 89.3969849,-1.05604607 83.8190955,3.62072937 C78.241206,8.37293666 69.6482412,24.7416507 64.6733668,40.2806142 C59.6984925,55.9704415 55.6281407,68.4921305 55.6281407,68.4921305 L55.6281407,68.4921305 Z M64.8241206,16.9721689 C67.0100503,16.9721689 68.7437186,15.2372361 68.7437186,13.0497121 C68.7437186,10.93762 67.0100503,9.12725528 64.8241206,9.12725528 C62.7135678,9.12725528 60.9045226,10.8621881 60.9045226,13.0497121 C60.9045226,15.2372361 62.638191,16.9721689 64.8241206,16.9721689 L64.8241206,16.9721689 Z M57.0603015,41.8646833 C59.1708543,41.8646833 60.9798995,40.1297505 60.9798995,37.9422265 C60.9798995,35.7547025 59.2462312,34.0197697 57.0603015,34.0197697 C54.9497487,34.0197697 53.1407035,35.7547025 53.1407035,37.9422265 C53.1407035,40.1297505 54.8743719,41.8646833 57.0603015,41.8646833 L57.0603015,41.8646833 Z M53.1407035,54.3109405 C55.2512563,54.3109405 57.0603015,52.5760077 57.0603015,50.3884837 C57.0603015,48.2763916 55.3266332,46.4660269 53.1407035,46.4660269 C51.0301508,46.4660269 49.2211055,48.2009597 49.2211055,50.3884837 C49.2211055,52.5760077 51.0301508,54.3109405 53.1407035,54.3109405 L53.1407035,54.3109405 Z" id="Shape" sketch:type="MSShapeGroup"></path>
        </g>
    </g>
</svg>