<?xml version="1.0" encoding="utf-8"?>
<!-- Generator: Adobe Illustrator 18.1.0, SVG Export Plug-In . SVG Version: 6.00 Build 0)  -->
<!DOCTYPE svg PUBLIC "-//W3C//DTD SVG 1.1//EN" "http://www.w3.org/Graphics/SVG/1.1/DTD/svg11.dtd">
<svg version="1.1" id="Layer_1" xmlns="http://www.w3.org/2000/svg" xmlns:xlink="http://www.w3.org/1999/xlink" x="0px" y="0px"
	 width="110px" height="90.5px" viewBox="0 0 110 90.5" enable-background="new 0 0 110 90.5" xml:space="preserve">
<g>
	<path fill="#231F20" d="M72.9,49.6c-5,1.8-7.5,7.3-5.7,12.5c1.8,5.1,7.3,7.9,12.3,6.1c5-1.8,7.5-7.3,5.7-12.5
		C83.3,50.6,77.8,47.9,72.9,49.6z M77.7,66.7c-0.1,0.6-1.4,0.9-3,0.6c-1.6-0.3-2.8-1-2.7-1.7c0.1-0.6,1.5-0.9,3-0.6
		C76.6,65.3,77.8,66.1,77.7,66.7z"/>
	<path fill="#231F20" d="M57.7,37c-5.1,1.4-8,6.8-6.6,12c1.4,5.2,6.7,8.4,11.8,7c5.1-1.4,8-6.8,6.6-12C68,38.7,62.7,35.6,57.7,37z
		 M61.3,54.3c-0.1,0.6-1.5,0.8-3,0.4c-1.5-0.4-2.7-1.2-2.5-1.9c0.1-0.6,1.5-0.8,3.1-0.4C60.3,52.9,61.4,53.7,61.3,54.3z"/>
	<g>
		<path fill="#231F20" d="M35.9,47.6c0,0,7.2-0.4,13.8,5.2c-0.6-1-1-2-1.3-3.1c-1.1-4-0.1-8.2,2.3-11.2c-1.8-3.7-9.5-19.7-14.4-26.3
			c-1-1.2-1.6-1.9-1.6-1.9c0.5,0.5,1,1.1,1.6,1.9c3.8,4.7,13.2,16.7,16,24.7c0.9-0.7,1.8-1.4,2.9-1.9c0.6-0.3,1.2-0.5,1.8-0.6
			c1-0.3,2.1-0.4,3.1-0.4c-1.7-2.4-2.6-6.5-0.6-13.7c0,0-11.4,9.7-9.9-9.4c0,0-9.8,6.1-18.7-8.9c0,0,8.2,13.7-2.6,15.3
			c0,0,11.2,5.5,0.8,15.3C29,32.3,43.5,35.6,35.9,47.6z"/>
		<path fill="#231F20" d="M108.8,13.7c0,0-11.6,10.9-15.5,0.7c0,0-3,12.1-14.8,4c0,0-0.1,14.8-13.5,9.9c0,0,0.8,2.8,0.3,6.7
			c3.2,1.5,5.7,4.4,6.8,8.1c0.1,0.2,0.1,0.4,0.1,0.6c5.2-3.9,16.3-12.4,21.1-17.6c1-1.2,1.6-1.9,1.6-1.9c-0.4,0.6-0.9,1.2-1.6,1.9
			c-3.8,4.5-13.5,15.6-20.8,20.1c0,0.2,0,0.3,0,0.5c3.9-1.1,8-0.2,11,2.2c2-2.2,5.8-3.9,13.3-3.5c0,0-11.9-9.1,7.1-11.7
			C104,33.9,96,25.6,108.8,13.7z"/>
		<path fill="#231F20" d="M49.1,73c-3.8-5.1-2.8-12.3,2.2-16c0.4-0.3,0.8-0.6,1.3-0.8c-0.7-0.6-1.3-1.2-1.8-1.9
			c-3.5-0.8-6.6-2.5-8.4-5.5c0,0,0.6,14.6-19,7.7c0,0,9.7,13.2-11,10.1c0,0,5.9,11-11.1,19.7c0,0,15.4-7.9,16.4,3.9
			c0,0,6.8-11.8,16.7,0.3c0,0,4.5-15.5,17.1-6.4c0,0,0-3.4,1.9-7.7C51.7,75.7,50.2,74.5,49.1,73z M17.4,77.8
			c-1.4,0.8-2.1,1.3-2.1,1.3C15.8,78.7,16.5,78.2,17.4,77.8c5.5-3.1,20.1-11.1,28.3-12.1l0.9,1.8C46.5,67.5,25.8,73.5,17.4,77.8z"/>
	</g>
	<path fill="#231F20" d="M65,61.2c-2.9-3.9-8.3-4.8-12.1-2c-3.8,2.8-4.5,8.2-1.6,12.1c2.9,3.9,8.3,4.8,12.1,2
		C67.2,70.5,67.9,65.1,65,61.2z M61.5,72.5c0.1,0.6-1,1.2-2.4,1.3c-1.4,0.2-2.6-0.2-2.7-0.7c-0.1-0.6,1-1.2,2.4-1.3
		C60.2,71.6,61.4,71.9,61.5,72.5z"/>
</g>
</svg>
