<?xml version="1.0" encoding="utf-8"?>
<!-- Generator: Adobe Illustrator 18.1.0, SVG Export Plug-In . SVG Version: 6.00 Build 0)  -->
<!DOCTYPE svg PUBLIC "-//W3C//DTD SVG 1.1//EN" "http://www.w3.org/Graphics/SVG/1.1/DTD/svg11.dtd">
<svg version="1.1" id="Layer_1" xmlns="http://www.w3.org/2000/svg" xmlns:xlink="http://www.w3.org/1999/xlink" x="0px" y="0px"
	 width="110px" height="141px" viewBox="0 0 110 141" enable-background="new 0 0 110 141" xml:space="preserve">
<g>
	<path fill="#231F20" d="M32.3,76.1c10.3-5.3,29.2,4.9,37.4,10.3c17.7,11.6,26.7,32.5,24,53.6c-18.8-2.3-40.9-1.9-55.9-15.8
		C27,114.2,13,83.9,33.2,77L32.3,76.1z"/>
	<g>
		<path fill="#231F20" d="M55.5,133.6c6.1,0.1,30.2,3.4,37.5,4.9c1.4,0.3,0.9,1.8,0.9,1.8s-31.7,0.9-39,0.7
			c-7.2-0.2-13.8,0.5-13.6-1.8C41.5,136.6,48.2,133.5,55.5,133.6z"/>
	</g>
	<g>
		<path fill="#231F20" d="M29.6,105.7c-1.1,0.5-2.7-2.3-3.9-2.1c0.1,0.8,0.7,4.7,0.8,5.5c1.1,9-2.3,17.3-4.1,19.7
			c-3,5.3-7.3,9.2-6.2,11.3c0.7,2,8.5,0.8,13.4-7.2c2.8-3.8,4.5-15.7,1-24.6C30.2,107.5,29.9,106.6,29.6,105.7z"/>
	</g>
	<path fill="#231F20" d="M106.5,123.9c-1.3-2.2-4.8-2.3-7.6,0.2c-4,3.6-5.6,12.7-5.9,16.2h0.9c2.8-3.1,5.9-6,9.4-8.3
		C105.9,130.2,108.6,127.4,106.5,123.9z"/>
	<g>
		<path fill="#231F20" d="M39.7,15.7C37.1,18.9,30.5,29.5,28,41c-3.2,11.3-1.7,22.2-1.5,22.1c-0.1,0.2-4.4-10.2-3.9-22.8
			c-0.2-12.5,4.5-26.4,8.2-31C37.4-0.8,49.4-1.3,49.4,1.9C49.7,5.1,44.3,8.6,39.7,15.7z"/>
		<path fill="#231F20" d="M58.3,24.8c-3.2,2.3-12.9,11.1-18.3,23c-6,11.4-6.4,23.8-6.2,23.8C33.6,71.9,29,59.9,31,45.3
			c1-14.4,9.2-30.1,15-34.5c11.2-10.2,25.5-5.8,24.3-0.6C69.7,15.6,64,19.2,58.3,24.8z"/>
		<path fill="#231F20" d="M25.5,61c-5.5,0-11,2-15,5.7c-2.7,2.5-5.4,5.5-6.5,9.1c-0.9,2.9-2,7.1-0.4,9.8c0.2,0.3,0.4,0.5,0.6,0.7
			c0.4,0.3,0.8,0.6,1.3,0.6c0.2,0,1.1-0.1,1.8-0.3c0.3-0.1,0.6-0.3,0.5-0.4c1.5,4.2,8.8,4.3,12.3,4C40.2,88.3,52.6,61.1,25.5,61z
			 M15.4,75.2c-2.1-2.3,4-9.8,7.1-5.8C25.5,73.2,17.4,77.5,15.4,75.2z"/>
		<path fill="#231F20" d="M20.5,73c2.5-0.8,0.6-5-1.5-3.2C17.6,71.1,18.4,73.7,20.5,73z"/>
	</g>
</g>
</svg>
