<?xml version="1.0" encoding="utf-8"?>
<!-- Generator: Adobe Illustrator 18.1.0, SVG Export Plug-In . SVG Version: 6.00 Build 0)  -->
<!DOCTYPE svg PUBLIC "-//W3C//DTD SVG 1.1//EN" "http://www.w3.org/Graphics/SVG/1.1/DTD/svg11.dtd">
<svg version="1.1" id="Layer_1" xmlns="http://www.w3.org/2000/svg" xmlns:xlink="http://www.w3.org/1999/xlink" x="0px" y="0px"
	 width="110px" height="139.4px" viewBox="0 0 110 139.4" enable-background="new 0 0 110 139.4" xml:space="preserve">
<g>
	<path fill="#231F20" d="M81.9,92.4c-4.6,0-8.3,3.7-8.3,8.3c0,4.6,3.7,8.3,8.3,8.3c4.6,0,8.3-3.7,8.3-8.3
		C90.2,96.1,86.5,92.4,81.9,92.4z M82,106.8c-3.4,0-6.2-2.8-6.2-6.2c0-3.4,2.8-6.2,6.2-6.2c3.4,0,6.2,2.8,6.2,6.2
		C88.2,104.1,85.5,106.8,82,106.8z"/>
	<path fill="#231F20" d="M55,1.5C27.9,1.5,2.4,52,2.4,82.5c0,29,23.6,52.6,52.6,52.6c29,0,52.6-23.6,52.6-52.6
		C107.6,52,82.1,1.5,55,1.5z M91.6,41.3c0,0,5,6.3,4,13.1c-1,6.8-7.5,11.5-7.5,11.5s-4.9-6.3-4-13.1C85,46,91.6,41.3,91.6,41.3z
		 M84.7,29.9c0,0,3.4,3.2,3.5,7.2c0.1,4-3.3,7.3-3.3,7.3s-3.4-3.2-3.5-7.2C81.3,33.2,84.7,29.9,84.7,29.9z M73.5,37.7
		c0,0,5.3,1.8,7.3,6.2c2,4.3-0.1,9.5-0.1,9.5s-5.3-1.8-7.3-6.2C71.5,42.9,73.5,37.7,73.5,37.7z M65.8,61c-1.6-1.5-1.1-5.1,2.7-6.4
		c3.8-1.2,6.4,1.5,5.9,3.6c0.9-2,4.5-2.6,6.9,0.5c2.3,3.3,0.5,6.5-1.6,6.8c2.1,0.3,3.9,3.5,1.6,6.8c-2.4,3.2-6,2.5-6.9,0.5
		c0.4,2.1-2.1,4.8-5.9,3.6c-3.8-1.3-4.3-5-2.7-6.4c-1.9,1.1-5.2-0.6-5.3-4.5C60.6,61.5,63.9,59.9,65.8,61z M45.3,67.5
		c0,0,10.2,3.3,14.3,11.5c4,8.2,0.3,18.3,0.3,18.3s-10.2-3.3-14.3-11.5C41.6,77.6,45.3,67.5,45.3,67.5z M36.3,84.2
		c7.6,3,11.8,10.6,11.8,10.6s-8.2,2.8-15.9-0.1C24.6,91.6,20.4,84,20.4,84S28.6,81.2,36.3,84.2z M39.2,116.4
		c-13.6,1.7-25.9-6.2-25.9-6.2s9.9-10.7,23.5-12.4c13.6-1.7,25.9,6.2,25.9,6.2S52.8,114.7,39.2,116.4z M67.6,122.1
		c-1.2,1.6-3,1.3-3.5,0.3c0.2,1.1-1.1,2.4-3,1.8c-1.9-0.6-2.1-2.5-1.4-3.2c-1,0.5-2.6-0.3-2.7-2.3c0.1-2,1.7-2.8,2.7-2.3
		c-0.8-0.7-0.6-2.6,1.4-3.2c1.9-0.6,3.2,0.8,3,1.8c0.5-1,2.3-1.3,3.5,0.3c1.2,1.6,0.3,3.3-0.8,3.4C67.9,118.8,68.8,120.4,67.6,122.1
		z M96.9,111.2c-4,5.1-9.8,4.1-11.3,0.9c0.7,3.5-3.4,7.8-9.6,5.9c-6.2-2.1-6.9-8-4.4-10.4c-3.1,1.8-8.4-0.9-8.6-7.4
		c0.2-6.5,5.5-9.1,8.6-7.4c-2.6-2.4-1.8-8.3,4.4-10.4c6.2-1.9,10.4,2.4,9.6,5.9c1.5-3.2,7.3-4.2,11.3,0.9c3.8,5.3,0.9,10.6-2.6,11
		C97.7,100.6,100.7,105.9,96.9,111.2z M95.9,80.2c0.3,1.6-1.6,3.6-4.5,2.8c-2.9-1-3.2-3.8-2-4.9c-1.4,0.8-3.9-0.4-4-3.4
		c0.1-3,2.6-4.3,4-3.4c-1.2-1.1-0.9-3.9,2-4.9c2.9-0.9,4.8,1.1,4.5,2.8c0.7-1.5,3.4-2,5.3,0.4c1.8,2.5,0.4,4.9-1.2,5.1
		c1.6,0.2,3,2.7,1.2,5.1C99.4,82.2,96.6,81.8,95.9,80.2z"/>
	<path fill="#231F20" d="M71.7,72.7c3.6,0,6.5-2.9,6.5-6.5c0-3.6-2.9-6.5-6.5-6.5c-3.6,0-6.5,2.9-6.5,6.5
		C65.2,69.8,68.1,72.7,71.7,72.7z M72.1,60.7c2.8,0,5.1,2.3,5.1,5.1c0,2.8-2.3,5.1-5.1,5.1c-2.8,0-5.1-2.3-5.1-5.1
		C67,63,69.3,60.7,72.1,60.7z"/>
	<path fill="#231F20" d="M94,69.8c-2.8,0-5.1,2.3-5.1,5.1c0,2.8,2.3,5.1,5.1,5.1c2.8,0,5.1-2.3,5.1-5.1C99,72,96.8,69.8,94,69.8z
		 M94.2,78.8c-2.1,0-3.9-1.7-3.9-3.9c0-2.1,1.7-3.9,3.9-3.9c2.1,0,3.9,1.7,3.9,3.9C98.1,77,96.3,78.8,94.2,78.8z"/>
	<path fill="#231F20" d="M45,101.7c-6.8,0.9-11.8,6.2-11.8,6.2s6.1,4,13,3.1c6.8-0.9,11.8-6.2,11.8-6.2S51.9,100.8,45,101.7z"/>
	<path fill="#231F20" d="M58.3,93.4c0,0,1.8-5-0.2-9c-2-4-7-5.7-7-5.7s-1.8,5,0.2,9C53.2,91.8,58.3,93.4,58.3,93.4z"/>
	<path fill="#231F20" d="M93.3,57.2c0.7-4.7-2.7-9.1-2.7-9.1s-4.5,3.2-5.2,7.9c-0.7,4.7,2.7,9.1,2.7,9.1S92.7,61.9,93.3,57.2z
		 M86.8,58.5c0.4-2.5,2.7-4.2,2.7-4.2s1.8,2.3,1.5,4.8c-0.4,2.5-2.8,4.2-2.8,4.2S86.4,61,86.8,58.5z"/>
	<path fill="#231F20" d="M80.4,52.4c0,0,1.3-2.8,0.3-5.3c-1-2.5-3.9-3.7-3.9-3.7s-1.3,2.8-0.3,5.3C77.5,51.2,80.4,52.4,80.4,52.4z"
		/>
	<path fill="#231F20" d="M86.8,38.2c0-2.5-2.1-4.4-2.1-4.4s-2,2-2,4.5c0,2.5,2.1,4.4,2.1,4.4S86.8,40.7,86.8,38.2z"/>
	<path fill="#231F20" d="M36.3,93.6c4.1,1.6,8.5,0.1,8.5,0.1s-2.3-4.1-6.4-5.7c-4.1-1.6-8.5-0.1-8.5-0.1S32.1,92,36.3,93.6z"/>
</g>
</svg>
