<?xml version="1.0" encoding="utf-8"?>
<!-- Generator: Adobe Illustrator 18.1.0, SVG Export Plug-In . SVG Version: 6.00 Build 0)  -->
<!DOCTYPE svg PUBLIC "-//W3C//DTD SVG 1.1//EN" "http://www.w3.org/Graphics/SVG/1.1/DTD/svg11.dtd">
<svg version="1.1" id="Layer_1" xmlns="http://www.w3.org/2000/svg" xmlns:xlink="http://www.w3.org/1999/xlink" x="0px" y="0px"
	 width="110px" height="177.4px" viewBox="0 0 110 177.4" enable-background="new 0 0 110 177.4" xml:space="preserve">
<g>
	<path fill="#231F20" d="M65.7,58.7c0.3,0,0.6-0.2,0.6-0.5c0-0.3-0.3-0.5-0.6-0.6c-0.3,0-0.6,0.2-0.6,0.5
		C65.1,58.4,65.3,58.7,65.7,58.7z"/>
	<path fill="#231F20" d="M55.8,58.5c0.3,0,0.6-0.2,0.6-0.5c0-0.3-0.3-0.5-0.6-0.6c-0.3,0-0.6,0.2-0.6,0.5
		C55.2,58.3,55.5,58.5,55.8,58.5z"/>
	<path fill="#231F20" d="M83.9,115.1l-59.4-2l-14.3,22.4h89.6L83.9,115.1z M21.6,127.7l-0.6-1c-0.1-0.1-0.2-0.2-0.3-0.2l-1.1-0.3
		c-0.1,0-0.1-0.1-0.1-0.2l0.8-0.9c0.1-0.1,0.1-0.2,0.1-0.3l-0.1-1.2c0-0.1,0.1-0.2,0.2-0.1l1.1,0.5c0.1,0,0.3,0,0.4,0l1.1-0.5
		c0.1,0,0.2,0,0.2,0.1l-0.1,1.2c0,0.1,0,0.3,0.1,0.3l0.8,0.9c0.1,0.1,0,0.2-0.1,0.2l-1.1,0.3c-0.1,0-0.2,0.1-0.3,0.2l-0.6,1
		C21.7,127.8,21.6,127.8,21.6,127.7z M26.6,132.1l-1.1,0.3c-0.1,0-0.2,0.1-0.3,0.2l-0.6,1c-0.1,0.1-0.1,0.1-0.2,0l-0.6-1
		c-0.1-0.1-0.2-0.2-0.3-0.2l-1.1-0.3c-0.1,0-0.1-0.1-0.1-0.2l0.8-0.9c0.1-0.1,0.1-0.2,0.1-0.3l-0.1-1.2c0-0.1,0.1-0.2,0.2-0.1
		l1.1,0.5c0.1,0,0.3,0,0.4,0l1.1-0.5c0.1,0,0.2,0,0.2,0.1l-0.1,1.2c0,0.1,0,0.3,0.1,0.3l0.8,0.9C26.8,132,26.7,132.1,26.6,132.1z
		 M28.8,118l-1.1,0.3c-0.1,0-0.2,0.1-0.3,0.2l-0.6,1c-0.1,0.1-0.1,0.1-0.2,0l-0.6-1c-0.1-0.1-0.2-0.2-0.3-0.2l-1.1-0.3
		c-0.1,0-0.1-0.1-0.1-0.2l0.8-0.9c0.1-0.1,0.1-0.2,0.1-0.3l-0.1-1.2c0-0.1,0.1-0.2,0.2-0.1l1.1,0.5c0.1,0,0.3,0,0.4,0l1.1-0.5
		c0.1,0,0.2,0,0.2,0.1l-0.1,1.2c0,0.1,0,0.3,0.1,0.3l0.8,0.9C28.9,117.9,28.9,117.9,28.8,118z M32.9,126.8l-0.6,1
		c-0.1,0.1-0.1,0.1-0.2,0l-0.6-1c-0.1-0.1-0.2-0.2-0.3-0.2l-1.1-0.3c-0.1,0-0.1-0.1-0.1-0.2l0.8-0.9c0.1-0.1,0.1-0.2,0.1-0.3
		l-0.1-1.2c0-0.1,0.1-0.2,0.2-0.1l1.1,0.5c0.1,0,0.3,0,0.4,0l1.1-0.5c0.1,0,0.2,0,0.2,0.1l-0.1,1.2c0,0.1,0,0.3,0.1,0.3l0.8,0.9
		c0.1,0.1,0,0.2-0.1,0.2l-1.1,0.3C33.1,126.7,33,126.7,32.9,126.8z M38.7,132.6l-1.1,0.3c-0.1,0-0.2,0.1-0.3,0.2l-0.6,1
		c-0.1,0.1-0.1,0.1-0.2,0l-0.6-1c-0.1-0.1-0.2-0.2-0.3-0.2l-1.1-0.3c-0.1,0-0.1-0.1-0.1-0.2l0.8-0.9c0.1-0.1,0.1-0.2,0.1-0.3
		l-0.1-1.2c0-0.1,0.1-0.2,0.2-0.1l1.1,0.5c0.1,0,0.3,0,0.4,0l1.1-0.5c0.1,0,0.2,0,0.2,0.1l-0.1,1.2c0,0.1,0,0.3,0.1,0.3l0.8,0.9
		C38.8,132.5,38.8,132.6,38.7,132.6z M38.7,119l-1.1,0.3c-0.1,0-0.2,0.1-0.3,0.2l-0.6,1c-0.1,0.1-0.1,0.1-0.2,0l-0.6-1
		c-0.1-0.1-0.2-0.2-0.3-0.2l-1.1-0.3c-0.1,0-0.1-0.1-0.1-0.2l0.8-0.9c0.1-0.1,0.1-0.2,0.1-0.3l-0.1-1.2c0-0.1,0.1-0.2,0.2-0.1
		l1.1,0.5c0.1,0,0.3,0,0.4,0l1.1-0.5c0.1,0,0.2,0,0.2,0.1l-0.1,1.2c0,0.1,0,0.3,0.1,0.3l0.8,0.9C38.8,118.8,38.8,118.9,38.7,119z
		 M41.7,122.1l0.8-0.9c0.1-0.1,0.1-0.2,0.1-0.3l-0.1-1.2c0-0.1,0.1-0.2,0.2-0.1l1.1,0.5c0.1,0,0.3,0,0.4,0l1.1-0.5
		c0.1,0,0.2,0,0.2,0.1l-0.1,1.2c0,0.1,0,0.3,0.1,0.3l0.8,0.9c0.1,0.1,0,0.2-0.1,0.2l-1.1,0.3c-0.1,0-0.2,0.1-0.3,0.2l-0.6,1
		c-0.1,0.1-0.1,0.1-0.2,0l-0.6-1c-0.1-0.1-0.2-0.2-0.3-0.2l-1.1-0.3C41.7,122.2,41.7,122.1,41.7,122.1z M46.2,129.7l-1.1,0.3
		c-0.1,0-0.2,0.1-0.3,0.2l-0.6,1c-0.1,0.1-0.1,0.1-0.2,0l-0.6-1c-0.1-0.1-0.2-0.2-0.3-0.2l-1.1-0.3c-0.1,0-0.1-0.1-0.1-0.2l0.8-0.9
		c0.1-0.1,0.1-0.2,0.1-0.3l-0.1-1.2c0-0.1,0.1-0.2,0.2-0.1l1.1,0.5c0.1,0,0.3,0,0.4,0l1.1-0.5c0.1,0,0.2,0,0.2,0.1l-0.1,1.2
		c0,0.1,0,0.3,0.1,0.3l0.8,0.9C46.4,129.5,46.3,129.6,46.2,129.7z M53.7,128.3l-1.1,0.3c-0.1,0-0.2,0.1-0.3,0.2l-0.6,1
		c-0.1,0.1-0.1,0.1-0.2,0l-0.6-1c-0.1-0.1-0.2-0.2-0.3-0.2l-1.1-0.3c-0.1,0-0.1-0.1-0.1-0.2l0.8-0.9c0.1-0.1,0.1-0.2,0.1-0.3
		l-0.1-1.2c0-0.1,0.1-0.2,0.2-0.1l1.1,0.5c0.1,0,0.3,0,0.4,0l1.1-0.5c0.1,0,0.2,0,0.2,0.1l-0.1,1.2c0,0.1,0,0.3,0.1,0.3l0.8,0.9
		C53.8,128.2,53.8,128.3,53.7,128.3z M56.1,119.3l-1.1,0.3c-0.1,0-0.2,0.1-0.3,0.2l-0.6,1c-0.1,0.1-0.1,0.1-0.2,0l-0.6-1
		c-0.1-0.1-0.2-0.2-0.3-0.2l-1.1-0.3c-0.1,0-0.1-0.1-0.1-0.2l0.8-0.9c0.1-0.1,0.1-0.2,0.1-0.3l-0.1-1.2c0-0.1,0.1-0.2,0.2-0.1
		l1.1,0.5c0.1,0,0.3,0,0.4,0l1.1-0.5c0.1,0,0.2,0,0.2,0.1l-0.1,1.2c0,0.1,0,0.3,0.1,0.3l0.8,0.9C56.2,119.2,56.2,119.3,56.1,119.3z
		 M60.9,132.8l-1.1,0.3c-0.1,0-0.2,0.1-0.3,0.2l-0.6,1c-0.1,0.1-0.1,0.1-0.2,0l-0.6-1c-0.1-0.1-0.2-0.2-0.3-0.2l-1.1-0.3
		c-0.1,0-0.1-0.1-0.1-0.2l0.8-0.9c0.1-0.1,0.1-0.2,0.1-0.3l-0.1-1.2c0-0.1,0.1-0.2,0.2-0.1l1.1,0.5c0.1,0,0.3,0,0.4,0l1.1-0.5
		c0.1,0,0.2,0,0.2,0.1l-0.1,1.2c0,0.1,0,0.3,0.1,0.3l0.8,0.9C61,132.7,61,132.8,60.9,132.8z M62.7,125.2l-1.1,0.3
		c-0.1,0-0.2,0.1-0.3,0.2l-0.6,1c-0.1,0.1-0.1,0.1-0.2,0l-0.6-1c-0.1-0.1-0.2-0.2-0.3-0.2l-1.1-0.3c-0.1,0-0.1-0.1-0.1-0.2l0.8-0.9
		c0.1-0.1,0.1-0.2,0.1-0.3l-0.1-1.2c0-0.1,0.1-0.2,0.2-0.1l1.1,0.5c0.1,0,0.3,0,0.4,0l1.1-0.5c0.1,0,0.2,0,0.2,0.1l-0.1,1.2
		c0,0.1,0,0.3,0.1,0.3l0.8,0.9C62.9,125.1,62.8,125.2,62.7,125.2z M65.8,119.9l0.8-0.9c0.1-0.1,0.1-0.2,0.1-0.3l-0.1-1.2
		c0-0.1,0.1-0.2,0.2-0.1l1.1,0.5c0.1,0,0.3,0,0.4,0l1.1-0.5c0.1,0,0.2,0,0.2,0.1l-0.1,1.2c0,0.1,0,0.3,0.1,0.3l0.8,0.9
		c0.1,0.1,0,0.2-0.1,0.2l-1.1,0.3c-0.1,0-0.2,0.1-0.3,0.2l-0.6,1c-0.1,0.1-0.1,0.1-0.2,0l-0.6-1c-0.1-0.1-0.2-0.2-0.3-0.2l-1.1-0.3
		C65.8,120.1,65.7,120,65.8,119.9z M70.8,128.8l-1.1,0.3c-0.1,0-0.2,0.1-0.3,0.2l-0.6,1c-0.1,0.1-0.1,0.1-0.2,0l-0.6-1
		c-0.1-0.1-0.2-0.2-0.3-0.2l-1.1-0.3c-0.1,0-0.1-0.1-0.1-0.2l0.8-0.9c0.1-0.1,0.1-0.2,0.1-0.3l-0.1-1.2c0-0.1,0.1-0.2,0.2-0.1
		l1.1,0.5c0.1,0,0.3,0,0.4,0l1.1-0.5c0.1,0,0.2,0,0.2,0.1l-0.1,1.2c0,0.1,0,0.3,0.1,0.3l0.8,0.9C70.9,128.7,70.9,128.8,70.8,128.8z
		 M76.6,124.4l-0.6,1c-0.1,0.1-0.1,0.1-0.2,0l-0.6-1c-0.1-0.1-0.2-0.2-0.3-0.2l-1.1-0.3c-0.1,0-0.1-0.1-0.1-0.2l0.8-0.9
		c0.1-0.1,0.1-0.2,0.1-0.3l-0.1-1.2c0-0.1,0.1-0.2,0.2-0.1l1.1,0.5c0.1,0,0.3,0,0.4,0l1.1-0.5c0.1,0,0.2,0,0.2,0.1l-0.1,1.2
		c0,0.1,0,0.3,0.1,0.3l0.8,0.9c0.1,0.1,0,0.2-0.1,0.2l-1.1,0.3C76.8,124.2,76.7,124.3,76.6,124.4z M81.2,133.1l-1.1,0.3
		c-0.1,0-0.2,0.1-0.3,0.2l-0.6,1c-0.1,0.1-0.1,0.1-0.2,0l-0.6-1c-0.1-0.1-0.2-0.2-0.3-0.2l-1.1-0.3c-0.1,0-0.1-0.1-0.1-0.2l0.8-0.9
		c0.1-0.1,0.1-0.2,0.1-0.3l-0.1-1.2c0-0.1,0.1-0.2,0.2-0.1l1.1,0.5c0.1,0,0.3,0,0.4,0l1.1-0.5c0.1,0,0.2,0,0.2,0.1l-0.1,1.2
		c0,0.1,0,0.3,0.1,0.3l0.8,0.9C81.3,133,81.3,133.1,81.2,133.1z M81.7,119.3l-1.1,0.3c-0.1,0-0.2,0.1-0.3,0.2l-0.6,1
		c-0.1,0.1-0.1,0.1-0.2,0l-0.6-1c-0.1-0.1-0.2-0.2-0.3-0.2l-1.1-0.3c-0.1,0-0.1-0.1-0.1-0.2l0.8-0.9c0.1-0.1,0.1-0.2,0.1-0.3
		l-0.1-1.2c0-0.1,0.1-0.2,0.2-0.1l1.1,0.5c0.1,0,0.3,0,0.4,0l1.1-0.5c0.1,0,0.2,0,0.2,0.1l-0.1,1.2c0,0.1,0,0.3,0.1,0.3l0.8,0.9
		C81.8,119.2,81.8,119.3,81.7,119.3z M87.4,126.9l-1.1,0.3c-0.1,0-0.2,0.1-0.3,0.2l-0.6,1c-0.1,0.1-0.1,0.1-0.2,0l-0.6-1
		c-0.1-0.1-0.2-0.2-0.3-0.2l-1.1-0.3c-0.1,0-0.1-0.1-0.1-0.2l0.8-0.9c0.1-0.1,0.1-0.2,0.1-0.3l-0.1-1.2c0-0.1,0.1-0.2,0.2-0.1
		l1.1,0.5c0.1,0,0.3,0,0.4,0l1.1-0.5c0.1,0,0.2,0,0.2,0.1l-0.1,1.2c0,0.1,0,0.3,0.1,0.3l0.8,0.9C87.6,126.8,87.5,126.8,87.4,126.9z
		 M92.6,132.4c-0.1,0-0.2,0.1-0.3,0.2l-0.6,1c-0.1,0.1-0.1,0.1-0.2,0l-0.6-1c-0.1-0.1-0.2-0.2-0.3-0.2l-1.1-0.3
		c-0.1,0-0.1-0.1-0.1-0.2l0.8-0.9c0.1-0.1,0.1-0.2,0.1-0.3l-0.1-1.2c0-0.1,0.1-0.2,0.2-0.1l1.1,0.5c0.1,0,0.3,0,0.4,0l1.1-0.5
		c0.1,0,0.2,0,0.2,0.1l-0.1,1.2c0,0.1,0,0.3,0.1,0.3l0.8,0.9c0.1,0.1,0,0.2-0.1,0.2L92.6,132.4z"/>
	<rect x="44.3" y="165.7" fill="#231F20" width="21.3" height="11.7"/>
	<path fill="#231F20" d="M45.6,58.4c0.4,0,0.6-0.2,0.6-0.5c0-0.3-0.3-0.5-0.6-0.5c-0.3,0-0.6,0.2-0.6,0.5
		C44.9,58.2,45.2,58.4,45.6,58.4z"/>
	<path fill="#231F20" d="M64.7,44.7l-20,3.7l-6.3,14.4h33.3L64.7,44.7z M65.9,54.5c0.9,0.9,1.8,1.7,2.7,2.6c0.2,0.2,0.2,0.6,0,0.8
		c-0.3,0.2-0.7,0.2-0.9,0c-0.6-0.6-1.2-1.2-1.9-1.7c-0.7,0.6-1.3,1.1-2,1.7c-0.3,0.2-0.6,0.2-0.9,0c-0.2-0.2-0.2-0.6,0-0.8
		C64,56.1,65,55.3,65.9,54.5z M66.8,57.3c0,0.6,0,1.2-0.1,1.8c-0.7,0-1.4,0-2.1,0c0-0.6,0-1.2,0.1-1.8
		C65.4,57.2,66.1,57.2,66.8,57.3z M62.8,54.6c0.3-0.2,0.6-0.2,0.9,0c0.2,0.2,0.2,0.6,0,0.8c-1,0.8-1.9,1.6-2.9,2.4
		c-0.9-0.8-1.8-1.7-2.7-2.5c-0.2-0.2-0.2-0.6,0-0.8c0.3-0.2,0.6-0.2,0.9,0c0.6,0.6,1.2,1.2,1.9,1.7C61.5,55.7,62.2,55.1,62.8,54.6z
		 M55.9,55.8c-0.7,0.6-1.3,1.1-2,1.7c-0.3,0.2-0.7,0.2-0.9,0c-0.2-0.2-0.2-0.6,0-0.8c1-0.8,1.9-1.6,2.9-2.5c0.9,0.8,1.8,1.7,2.7,2.5
		c0.2,0.2,0.2,0.6,0,0.8c-0.2,0.2-0.6,0.2-0.9,0C57.1,57,56.5,56.4,55.9,55.8z M56.9,57.1c0,0.6,0,1.2-0.1,1.8c-0.7,0-1.4,0-2.1,0
		c0-0.6,0-1.2,0-1.8C55.5,57.1,56.2,57.1,56.9,57.1z M56,51.2l1.9,1.9c0.2,0.2,0.2,0.4,0,0.6c-0.2,0.2-0.4,0.2-0.6,0L56,52.4
		l-1.3,1.3c-0.2,0.2-0.4,0.2-0.6,0c-0.2-0.2-0.2-0.4,0-0.6L56,51.2z M55.3,50.3c0-0.4,0.3-0.7,0.7-0.7c0.4,0,0.7,0.3,0.7,0.7
		c0,0.4-0.3,0.7-0.7,0.7C55.6,51,55.3,50.7,55.3,50.3z M59.4,48.4c0.2,0.2,0.2,0.4,0,0.6l-1.3,1.3l1.3,1.3c0.2,0.2,0.2,0.4,0,0.6
		c-0.2,0.2-0.4,0.2-0.6,0l-1.9-1.9l1.9-1.9C58.9,48.2,59.2,48.2,59.4,48.4z M54,46.9c0.2-0.2,0.4-0.2,0.6,0l1.3,1.3l1.3-1.3
		c0.2-0.2,0.4-0.2,0.6,0c0.2,0.2,0.2,0.4,0,0.6L56,49.4L54,47.5C53.8,47.3,53.8,47.1,54,46.9z M52.5,48.4c0.2-0.2,0.4-0.2,0.6,0
		l1.9,1.9l-1.9,1.9c-0.2,0.2-0.4,0.2-0.6,0c-0.2-0.2-0.2-0.4,0-0.6l1.3-1.3L52.5,49C52.4,48.9,52.4,48.6,52.5,48.4z M48.2,54.4
		c0.3-0.2,0.7-0.2,0.9,0c0.6,0.6,1.3,1.2,1.9,1.7c0.7-0.6,1.3-1.1,2-1.7c0.3-0.2,0.7-0.2,0.9,0c0.2,0.2,0.2,0.6,0,0.8
		c-1,0.8-1.9,1.6-2.9,2.5c-0.9-0.8-1.9-1.7-2.8-2.5C48,54.9,48,54.6,48.2,54.4z M42.7,56.7c1-0.8,2-1.7,3-2.5
		c0.9,0.8,1.8,1.7,2.8,2.5c0.2,0.2,0.2,0.6,0,0.8c-0.3,0.2-0.7,0.2-0.9,0c-0.6-0.6-1.3-1.1-1.9-1.7c-0.7,0.6-1.4,1.1-2.1,1.7
		c-0.3,0.2-0.7,0.2-0.9,0C42.4,57.3,42.4,56.9,42.7,56.7z M46.7,57c0,0.6,0,1.2,0,1.8c-0.7,0-1.4,0-2.1,0c0-0.6,0-1.2,0-1.8
		C45.3,57,46,57,46.7,57z M42.6,59c-0.3-0.2-0.2-0.6,0-0.8c0.3-0.2,0.7-0.2,0.9,0c0.7,0.6,1.3,1.1,2,1.7c0.7-0.6,1.3-1.1,2-1.7
		c0.3-0.2,0.7-0.2,0.9,0c0.2,0.2,0.2,0.6,0,0.8c-1,0.8-1.9,1.7-2.9,2.5C44.6,60.6,43.6,59.8,42.6,59z M53.7,61.4
		c-0.2,0.2-0.6,0.2-0.9,0c-0.6-0.6-1.3-1.1-1.9-1.7c-0.7,0.6-1.3,1.1-2,1.7c-0.3,0.2-0.7,0.2-0.9,0c-0.2-0.2-0.2-0.6,0-0.8
		c1-0.8,1.9-1.6,2.9-2.5c0.9,0.8,1.9,1.7,2.8,2.5C54,60.8,54,61.1,53.7,61.4z M53,59c-0.2-0.2-0.2-0.6,0-0.8c0.3-0.2,0.6-0.2,0.9,0
		c0.6,0.6,1.3,1.2,1.9,1.7c0.6-0.6,1.3-1.1,2-1.7c0.2-0.2,0.6-0.2,0.9,0c0.2,0.2,0.2,0.6,0,0.8c-1,0.8-1.9,1.6-2.8,2.4
		C54.8,60.7,53.9,59.9,53,59z M63.5,61.5c-0.2,0.2-0.6,0.2-0.9,0c-0.6-0.6-1.2-1.2-1.9-1.7c-0.7,0.6-1.3,1.1-1.9,1.7
		c-0.2,0.2-0.6,0.2-0.9,0c-0.2-0.2-0.2-0.6,0-0.8c0.9-0.8,1.9-1.6,2.9-2.4c0.9,0.8,1.8,1.7,2.7,2.5C63.7,61,63.7,61.3,63.5,61.5z
		 M68.6,59.3c-1,0.8-2,1.6-2.9,2.4c-0.9-0.8-1.8-1.7-2.7-2.5c-0.2-0.2-0.2-0.6,0-0.8c0.3-0.2,0.6-0.2,0.9,0c0.6,0.6,1.2,1.2,1.9,1.7
		c0.7-0.6,1.3-1.1,2-1.7c0.3-0.2,0.7-0.2,0.9,0C68.8,58.7,68.8,59.1,68.6,59.3z"/>
	<path fill="#231F20" d="M48.3,25.4l-4.1,16.4h21.7l-4.5-18.1L48.3,25.4z M58.7,25.9c0.5,0,0.8,0.4,0.8,0.8c0,0.5-0.4,0.8-0.8,0.8
		c-0.5,0-0.8-0.4-0.8-0.8C57.9,26.2,58.2,25.9,58.7,25.9z M59.7,32.4c0,0.5-0.4,0.8-0.8,0.8c-0.5,0-0.8-0.4-0.8-0.8
		c0-0.5,0.4-0.8,0.8-0.8C59.3,31.5,59.7,31.9,59.7,32.4z M54,26.6c0.5,0,0.8,0.4,0.8,0.8c0,0.5-0.4,0.8-0.8,0.8
		c-0.5,0-0.8-0.4-0.8-0.8C53.2,27,53.5,26.6,54,26.6z M51.4,31.7c0,0.5-0.4,0.8-0.8,0.8c-0.5,0-0.8-0.4-0.8-0.8
		c0-0.5,0.4-0.8,0.8-0.8C51.1,30.9,51.4,31.3,51.4,31.7z M46.2,39.4c-0.5,0-0.8-0.4-0.8-0.8c0-0.5,0.4-0.8,0.8-0.8
		c0.5,0,0.8,0.4,0.8,0.8C47.1,39.1,46.7,39.4,46.2,39.4z M48,35.1c-0.5,0-0.8-0.4-0.8-0.8c0-0.5,0.4-0.8,0.8-0.8
		c0.5,0,0.8,0.4,0.8,0.8C48.8,34.7,48.4,35.1,48,35.1z M50,26.1c0.5,0,0.8,0.4,0.8,0.8c0,0.5-0.4,0.8-0.8,0.8
		c-0.5,0-0.8-0.4-0.8-0.8C49.2,26.5,49.6,26.1,50,26.1z M50.1,40.6c-0.5,0-0.8-0.4-0.8-0.8c0-0.5,0.4-0.8,0.8-0.8
		c0.5,0,0.8,0.4,0.8,0.8C50.9,40.2,50.6,40.6,50.1,40.6z M51.6,36.9c-0.5,0-0.8-0.4-0.8-0.8c0-0.5,0.4-0.8,0.8-0.8
		c0.5,0,0.8,0.4,0.8,0.8C52.4,36.5,52,36.9,51.6,36.9z M52.8,30.3c0-0.5,0.4-0.8,0.8-0.8c0.5,0,0.8,0.4,0.8,0.8
		c0,0.5-0.4,0.8-0.8,0.8C53.2,31.1,52.8,30.8,52.8,30.3z M54.2,39.3c-0.5,0-0.8-0.4-0.8-0.8c0-0.5,0.4-0.8,0.8-0.8
		c0.5,0,0.8,0.4,0.8,0.8C55.1,38.9,54.7,39.3,54.2,39.3z M55.4,34.7c-0.5,0-0.8-0.4-0.8-0.8s0.4-0.8,0.8-0.8c0.5,0,0.8,0.4,0.8,0.8
		S55.8,34.7,55.4,34.7z M57.1,29.6c0-0.5,0.4-0.8,0.8-0.8c0.5,0,0.8,0.4,0.8,0.8c0,0.5-0.4,0.8-0.8,0.8C57.5,30.4,57.1,30,57.1,29.6
		z M58.5,39.9c-0.5,0-0.8-0.4-0.8-0.8c0-0.5,0.4-0.8,0.8-0.8c0.5,0,0.8,0.4,0.8,0.8C59.3,39.6,59,39.9,58.5,39.9z M60.1,37.7
		c-0.5,0-0.8-0.4-0.8-0.8c0-0.5,0.4-0.8,0.8-0.8c0.5,0,0.8,0.4,0.8,0.8C60.9,37.3,60.5,37.7,60.1,37.7z M63.9,39.5
		c0,0.5-0.4,0.8-0.8,0.8c-0.5,0-0.8-0.4-0.8-0.8c0-0.5,0.4-0.8,0.8-0.8C63.6,38.7,63.9,39.1,63.9,39.5z M62.7,31.5
		c0,0.5-0.4,0.8-0.8,0.8c-0.5,0-0.8-0.4-0.8-0.8c0-0.5,0.4-0.8,0.8-0.8C62.3,30.7,62.7,31.1,62.7,31.5z"/>
	<polygon fill="#231F20" points="32.8,92 75.8,93.2 72.4,87.7 33.8,89.9 	"/>
	<polygon fill="#231F20" points="76.8,94.7 32,93.6 30.7,96.3 78.4,97.3 	"/>
	<polygon fill="#231F20" points="81.8,102.8 27.7,102.2 26.4,105 83.4,105.3 	"/>
	<polygon fill="#231F20" points="79.3,98.8 29.9,97.9 28.5,100.6 80.9,101.3 	"/>
	<path fill="#231F20" d="M68.5,68.8l-27.9-2.2l-8.8,18.4h46.5L68.5,68.8z M73.1,78.7c0,0,1.1,2.2-0.3,2.2h-1.4
		C71.4,80.8,72.4,77.2,73.1,78.7z M70.6,77.3c0,0,2-0.1,0.2,3.2C70.9,80.5,68.4,78,70.6,77.3z M71,80.8c0,0.2-0.1,0.3-0.3,0.3
		c-0.2,0-0.3-0.1-0.3-0.3c0-0.2,0.1-0.3,0.3-0.3C70.9,80.5,71,80.6,71,80.8z M68.4,71.1c0,0,1,2.2-0.3,2.2h-1.4
		C66.7,73.3,67.7,69.6,68.4,71.1z M65.9,69.7c0,0,2-0.1,0.2,3.2C66.1,72.9,63.6,70.4,65.9,69.7z M66.3,73.2c0,0.2-0.1,0.3-0.3,0.3
		c-0.2,0-0.3-0.1-0.3-0.3c0-0.2,0.1-0.3,0.3-0.3C66.2,72.9,66.3,73.1,66.3,73.2z M62.1,78c0,0,1.1,2.2-0.3,2.2h-1.4
		C60.4,80.1,61.4,76.5,62.1,78z M59.6,76.6c0,0,2-0.1,0.2,3.2C59.9,79.8,57.4,77.3,59.6,76.6z M60,80.1c0,0.2-0.1,0.3-0.3,0.3
		c-0.2,0-0.3-0.1-0.3-0.3c0-0.2,0.1-0.3,0.3-0.3C59.9,79.8,60,79.9,60,80.1z M55.8,72.1c0,0,1,2.2-0.3,2.2h-1.4
		C54.1,74.2,55.1,70.6,55.8,72.1z M53.3,70.7c0,0,2-0.1,0.2,3.2C53.6,73.9,51.1,71.4,53.3,70.7z M53.7,74.2c0,0.2-0.1,0.3-0.3,0.3
		c-0.2,0-0.3-0.1-0.3-0.3c0-0.2,0.1-0.3,0.3-0.3C53.6,73.9,53.7,74.1,53.7,74.2z M47.5,78.1c0,0,1.1,2.2-0.3,2.2h-1.4
		C45.8,80.3,46.7,76.7,47.5,78.1z M45.2,79.9c0,0-2.5-2.5-0.2-3.2C45,76.8,47,76.7,45.2,79.9z M45.4,80.3c0,0.2-0.1,0.3-0.3,0.3
		c-0.2,0-0.3-0.1-0.3-0.3c0-0.2,0.1-0.3,0.3-0.3C45.2,80,45.4,80.1,45.4,80.3z M42.8,72c0,0,2.7-0.1,2.5,0.9
		C45.4,72.9,43.5,76.2,42.8,72z M44.8,69.7c0,0,1.1,2.2-0.3,2.2h-1.4C43.1,71.9,44.1,68.3,44.8,69.7z M42.3,68.4c0,0,2-0.1,0.2,3.1
		C42.6,71.5,40.1,69,42.3,68.4z M42.7,71.9c0,0.2-0.1,0.3-0.3,0.3c-0.2,0-0.3-0.1-0.3-0.3c0-0.2,0.1-0.3,0.3-0.3
		C42.6,71.6,42.7,71.7,42.7,71.9z M40.5,69.9c0.9-0.1,1.5,1.9,1.5,1.9c-1.6,0.5-2.7-0.5-2.7-0.5C38.5,70,40.5,69.9,40.5,69.9z
		 M40.1,73.9c-0.6-0.6-0.4-1-0.4-1c0.3-1,2.4-0.8,2.4-0.8C40.6,74.7,40.1,73.9,40.1,73.9z M42.4,72.1c0.8,1.6,0.3,2.4,0.3,2.4
		c-0.5,0.6-1.3,0.1-1.3,0.1C40.5,74.3,42.4,72.1,42.4,72.1z M43.2,78.3c0.9-0.1,1.5,1.9,1.5,1.9c-1.6,0.5-2.7-0.5-2.7-0.5
		C41.2,78.4,43.2,78.3,43.2,78.3z M42.7,82.3c-0.6-0.6-0.4-1-0.4-1c0.3-1.1,2.4-0.8,2.4-0.8C43.2,83.1,42.7,82.3,42.7,82.3z
		 M45.4,82.9C44.8,83.5,44,83,44,83c-0.8-0.4,1-2.5,1-2.5C45.9,82.2,45.4,82.9,45.4,82.9z M45.5,80.4c0,0,2.7-0.1,2.5,0.9
		C48,81.3,46.1,84.6,45.5,80.4z M51.5,72.2c0.9-0.1,1.5,1.9,1.5,1.9c-1.6,0.5-2.7-0.5-2.7-0.5C49.5,72.4,51.5,72.2,51.5,72.2z
		 M51.1,76.2c-0.6-0.6-0.4-1-0.4-1c0.3-1,2.4-0.8,2.4-0.8C51.6,77,51.1,76.2,51.1,76.2z M53.7,76.9c-0.5,0.6-1.3,0.1-1.3,0.1
		c-0.8-0.4,1-2.5,1-2.5C54.3,76.1,53.7,76.9,53.7,76.9z M53.8,74.4c0,0,2.7-0.1,2.5,0.9C56.4,75.3,54.5,78.6,53.8,74.4z M57.8,78.1
		c0.9-0.1,1.5,1.9,1.5,1.9c-1.6,0.5-2.7-0.5-2.7-0.5C55.8,78.3,57.8,78.1,57.8,78.1z M57.4,82.1c-0.6-0.6-0.4-1-0.4-1
		c0.3-1,2.4-0.8,2.4-0.8C57.9,82.9,57.4,82.1,57.4,82.1z M60,82.8c-0.5,0.6-1.3,0.1-1.3,0.1c-0.8-0.4,1-2.5,1-2.5
		C60.6,82,60,82.8,60,82.8z M60.2,80.3c0,0,2.7-0.1,2.5,0.9C62.7,81.2,60.8,84.5,60.2,80.3z M64.1,71.2c0.9-0.1,1.5,1.9,1.5,1.9
		c-1.6,0.5-2.7-0.5-2.7-0.5C62.1,71.4,64.1,71.2,64.1,71.2z M63.6,75.2c-0.6-0.6-0.4-1-0.4-1c0.3-1.1,2.4-0.8,2.4-0.8
		C64.2,76,63.6,75.2,63.6,75.2z M66.3,75.9C65.8,76.5,65,76,65,76c-0.8-0.4,1-2.5,1-2.5C66.8,75.1,66.3,75.9,66.3,75.9z M66.4,73.4
		c0,0,2.7-0.1,2.5,0.9C69,74.3,67.1,77.6,66.4,73.4z M68.8,78.8c0.9-0.1,1.5,1.9,1.5,1.9c-1.6,0.5-2.7-0.5-2.7-0.5
		C66.8,79,68.8,78.8,68.8,78.8z M68.4,82.8c-0.6-0.6-0.4-1-0.4-1c0.3-1.1,2.4-0.8,2.4-0.8C68.9,83.6,68.4,82.8,68.4,82.8z M71,83.5
		c-0.5,0.6-1.3,0.1-1.3,0.1c-0.8-0.4,1-2.5,1-2.5C71.5,82.7,71,83.5,71,83.5z M71.1,81c0,0,2.7-0.1,2.5,0.9
		C73.7,81.9,71.8,85.2,71.1,81z"/>
	<polygon fill="#231F20" points="84.3,106.8 25.5,106.6 24.4,109 85.6,109 	"/>
	<path fill="#231F20" d="M97.7,142.8l-1.5-2.7l-3.1,0.1c-0.8,1.3-1.4,2.8-1.2,4.4c0.5,4.2,2.7,4.7,4,4.4c1.3-0.3,2.2-1.5,1.9-2.9
		c-0.3-1.4-1.3-1.7-1.3-1.7s0.7,1.4-0.5,1.9c-1.2,0.5-2.8-1.1-1.9-2.8C94.7,142.2,96.3,142.1,97.7,142.8z"/>
	<polygon fill="#231F20" points="48,20.8 54.9,17.3 61.6,21 60.4,13.4 66,8.1 58.4,6.9 55.1,0 51.6,6.8 44,7.8 49.4,13.2 	"/>
	<path fill="#231F20" d="M79,162.1H108l-5.6-10.4c-1,0-2.2-0.5-2.8-1.4c-0.2-0.3-0.4-0.6-0.5-1c-0.2,0.2-0.4,0.5-0.6,0.7
		c-1.9,1.6-4.7,1.6-6.9-1.1c-0.3-0.3-0.5-0.7-0.7-1.1c-0.3,0.6-1.4,1.9-3.9,2.1c-0.9,0.1-1.7-0.2-2.4-0.6c0,0-2.4-1.4-2.5-4.3
		c0-0.6,0.1-1.2,0.4-1.7c1-2,3.2-2.6,4.5-2.1c1.4,0.6,1.8,2.7,0.7,3.4c-1.1,0.7-1.9,0.1-2.1-0.6c-0.3-0.7,0.3-1.1,0.3-1.1
		s-1.3,0.1-1.8,1.7c-0.4,1.6,0.5,3.1,2,3.4c1.5,0.3,3-0.5,3.8-1.7c0.2-0.3,0.3-0.5,0.4-0.8c-0.2-2.1,0.4-4.2,0.7-5.1
		c0-0.1,0.1-0.2,0.1-0.2l-26.6,1.2l0.4,0h0c-1,1.4-1.8,3.2-1.6,5c0.5,4.2,2.7,4.7,4,4.4c1.3-0.3,2.2-1.5,1.9-2.9
		c-0.3-1.4-1.3-1.7-1.3-1.7s0.7,1.4-0.5,1.9c-1.2,0.5-2.8-1.1-1.9-2.8c0.9-1.8,3.7-1.3,4.9,0.3c1.2,1.6,1.4,4.6-0.5,6.2
		c-1.9,1.6-4.7,1.6-6.9-1.1c-0.3-0.3-0.5-0.7-0.7-1.1c-0.3,0.6-1.4,1.9-4,2.1c-0.9,0.1-1.7-0.2-2.4-0.6c0,0-2.4-1.4-2.5-4.3
		c0-0.6,0.1-1.2,0.4-1.7c1-2,3.2-2.6,4.5-2.1c1.4,0.6,1.8,2.7,0.7,3.4c-1.1,0.7-1.9,0.1-2.1-0.6c-0.3-0.7,0.3-1.1,0.3-1.1
		s-1.4,0.1-1.8,1.7c-0.4,1.6,0.5,3.1,2,3.4c1.5,0.3,3-0.5,3.8-1.7c0.2-0.3,0.3-0.5,0.4-0.8c-0.2-2.1,0.4-4.2,0.7-5.1
		c0.1-0.3,0.2-0.6,0.4-0.9L32.5,143l0.5,0h0.5c-1,1.4-1.8,3.2-1.6,5c0.5,4.2,2.7,4.7,4,4.4c1.3-0.3,2.2-1.5,1.9-2.9
		c-0.3-1.4-1.3-1.7-1.3-1.7s0.7,1.4-0.5,1.9c-1.2,0.5-2.8-1.1-1.9-2.8c0.9-1.8,3.7-1.3,4.9,0.3c1.2,1.6,1.4,4.6-0.5,6.2
		c-1.9,1.6-4.7,1.6-6.9-1.1c-0.3-0.3-0.5-0.7-0.7-1.1c-0.3,0.6-1.4,1.9-3.9,2.1c-0.9,0.1-1.7-0.2-2.4-0.6c0,0-2.4-1.4-2.5-4.3
		c0-0.6,0.1-1.2,0.3-1.7c1-2,3.2-2.6,4.5-2.1c1.4,0.6,1.8,2.7,0.7,3.4c-1.1,0.7-1.9,0.1-2.1-0.6c-0.3-0.7,0.3-1.1,0.3-1.1
		s-1.4,0.1-1.8,1.7c-0.4,1.6,0.5,3.1,2,3.4c1.5,0.3,3-0.5,3.8-1.7c0.2-0.3,0.3-0.5,0.4-0.8c-0.2-2.1,0.4-4.2,0.7-5.1
		c0.1-0.3,0.3-0.6,0.4-0.9L11.8,144L2,162.1h11.4c1-1.4,1.8-3.2,1.6-5c-0.5-4.2-2.7-4.8-4-4.4c-1.3,0.3-2.2,1.5-1.9,2.9
		c0.3,1.4,1.3,1.7,1.3,1.7s-0.7-1.4,0.5-1.9c1.2-0.5,2.8,1.1,1.9,2.8c-0.9,1.8-3.7,1.3-4.9-0.3c-1.2-1.6-1.4-4.6,0.5-6.2
		c1.9-1.6,4.7-1.6,6.9,1.1c0.3,0.3,0.5,0.7,0.7,1.1c0.3-0.6,1.4-1.9,3.9-2.1c0.9-0.1,1.7,0.2,2.4,0.6c0,0,2.4,1.4,2.5,4.3
		c0,0.6-0.1,1.2-0.4,1.7c-1,2-3.2,2.6-4.5,2.1c-1.4-0.6-1.8-2.7-0.7-3.4c1.1-0.7,1.9-0.1,2.1,0.6c0.3,0.7-0.3,1.1-0.3,1.1
		s1.4-0.1,1.8-1.7c0.4-1.6-0.5-3.1-2-3.4c-1.5-0.3-3,0.5-3.8,1.7c-0.2,0.3-0.3,0.5-0.4,0.8c0.2,2.1-0.4,4.2-0.7,5.1
		c-0.1,0.4-0.3,0.7-0.4,1h30.5c1-1.4,1.8-3.2,1.6-5c-0.5-4.2-2.7-4.8-4-4.4c-1.3,0.3-2.2,1.5-1.9,2.9c0.3,1.4,1.3,1.7,1.3,1.7
		s-0.7-1.4,0.5-1.9c1.2-0.5,2.8,1.1,1.9,2.8c-0.9,1.8-3.7,1.3-4.9-0.3c-1.2-1.6-1.4-4.6,0.5-6.2c1.9-1.6,4.7-1.6,6.9,1.1
		c0.3,0.3,0.5,0.7,0.7,1.1c0.3-0.6,1.4-1.9,3.9-2.1c0.9-0.1,1.7,0.2,2.4,0.6c0,0,2.4,1.4,2.5,4.3c0,0.6-0.1,1.2-0.4,1.7
		c-1,2-3.2,2.6-4.5,2.1c-1.4-0.6-1.8-2.7-0.7-3.4c1.1-0.7,1.9-0.1,2.1,0.6c0.3,0.7-0.3,1.1-0.3,1.1s1.4-0.1,1.8-1.7
		c0.4-1.6-0.5-3.1-2-3.4c-1.5-0.3-3,0.5-3.8,1.7c-0.2,0.3-0.3,0.5-0.4,0.8c0.2,2.1-0.4,4.2-0.7,5.1c-0.1,0.4-0.3,0.7-0.4,1h28.6
		c1-1.4,1.8-3.2,1.6-5c-0.5-4.2-2.7-4.8-4-4.4c-1.3,0.3-2.2,1.5-1.9,2.9c0.3,1.4,1.3,1.7,1.3,1.7s-0.7-1.4,0.5-1.9
		c1.2-0.5,2.8,1.1,1.9,2.8c-0.9,1.8-3.7,1.3-4.9-0.3c-1.2-1.6-1.4-4.6,0.5-6.2c1.9-1.6,4.7-1.6,6.9,1.1c0.3,0.3,0.5,0.7,0.7,1.1
		c0.3-0.6,1.4-1.9,3.9-2.1c0.9-0.1,1.7,0.2,2.4,0.6c0,0,2.4,1.4,2.5,4.3c0,0.6-0.1,1.2-0.4,1.7c-1,2-3.2,2.6-4.5,2.1
		c-1.4-0.6-1.8-2.7-0.7-3.4c1.1-0.7,1.9-0.1,2.1,0.6c0.3,0.7-0.3,1.1-0.3,1.1s1.4-0.1,1.8-1.7c0.4-1.6-0.5-3.1-2-3.4
		c-1.5-0.3-3,0.5-3.8,1.7c-0.2,0.3-0.3,0.5-0.4,0.8c0.2,2.1-0.4,4.2-0.7,5.1C79.3,161.5,79.1,161.8,79,162.1z M93.5,153.2l0.8-0.8
		l0.2,1.2l1,0.5l-1,0.5l-0.2,1.2l-0.8-0.8l-1.1,0.2l0.5-1l-0.5-1L93.5,153.2z M13.4,148.4l-0.8,0.8l-0.2-1.2l-1-0.5l1-0.5l0.2-1.2
		l0.8,0.8l1.1-0.2l-0.5,1l0.5,1L13.4,148.4z M17.7,150.4c-0.6,0.2-1.3-0.1-1.5-0.8c-0.2-0.6,0.1-1.3,0.7-1.6
		c0.6-0.2,1.3,0.1,1.5,0.8C18.6,149.5,18.3,150.2,17.7,150.4z M29.9,156.9c-0.6,0.2-1.3-0.1-1.5-0.8c-0.2-0.6,0.1-1.3,0.7-1.6
		c0.6-0.2,1.3,0.1,1.5,0.8C30.9,156,30.5,156.7,29.9,156.9z M34.4,158l-0.2,1.2l-0.8-0.8l-1.1,0.2l0.5-1l-0.5-1l1.1,0.2l0.8-0.8
		l0.2,1.2l1,0.5L34.4,158z M46.1,148.4l-0.8,0.8l-0.2-1.2l-1-0.5l1-0.5l0.2-1.2l0.8,0.8l1.1-0.2l-0.5,1l0.5,1L46.1,148.4z
		 M50.4,150.4c-0.6,0.2-1.3-0.1-1.5-0.8c-0.2-0.6,0.1-1.3,0.7-1.6c0.6-0.2,1.3,0.1,1.5,0.8C51.3,149.5,51,150.2,50.4,150.4z
		 M61.3,155.5c-0.6,0.2-1.3-0.1-1.5-0.8c-0.2-0.6,0.1-1.3,0.7-1.6c0.6-0.2,1.3,0.1,1.5,0.8C62.3,154.5,61.9,155.2,61.3,155.5z
		 M65.8,156.5l-0.2,1.2l-0.8-0.8l-1.1,0.2l0.5-1l-0.5-1l1.1,0.2l0.8-0.8l0.2,1.2l1,0.5L65.8,156.5z M76.8,148.4l-0.8,0.8l-0.2-1.2
		l-1-0.5l1-0.5l0.2-1.2l0.8,0.8l1.1-0.2l-0.5,1l0.5,1L76.8,148.4z M81.1,150.4c-0.6,0.2-1.3-0.1-1.5-0.8c-0.2-0.6,0.1-1.3,0.7-1.6
		c0.6-0.2,1.3,0.1,1.5,0.8C82.1,149.5,81.7,150.2,81.1,150.4z M89.2,151.1c0.6-0.2,1.3,0.1,1.5,0.8c0.2,0.6-0.1,1.3-0.7,1.6
		c-0.6,0.2-1.3-0.1-1.5-0.8C88.3,152.1,88.6,151.4,89.2,151.1z"/>
</g>
</svg>
