<?xml version="1.0" encoding="utf-8"?>
<!-- Generator: Adobe Illustrator 18.1.0, SVG Export Plug-In . SVG Version: 6.00 Build 0)  -->
<!DOCTYPE svg PUBLIC "-//W3C//DTD SVG 1.1//EN" "http://www.w3.org/Graphics/SVG/1.1/DTD/svg11.dtd">
<svg version="1.1" id="Layer_1" xmlns="http://www.w3.org/2000/svg" xmlns:xlink="http://www.w3.org/1999/xlink" x="0px" y="0px"
	 width="110px" height="199.3px" viewBox="0 0 110 199.3" enable-background="new 0 0 110 199.3" xml:space="preserve">
<g>
	<path fill="#231F20" d="M94.8,170.2c2.6-5.6,3.9-12.2,3.9-19.6c0-9.6-2.3-20.3-6.4-30.1c-3.6-8.6-8.4-16-13.9-21.8
		c5.8-6.6,9.1-15.2,9.1-24.1c0-7.9-2.5-15.4-7.1-21.6c3.7-3,6.9-7.1,9.4-11.8c2.8-5.4,4.2-11.2,4.2-16.6c0-1.1-0.1-2.2-0.2-3.2
		c-0.8-6.9-4-12.2-9.2-14.8C79.6,4,73.4,4.4,67.3,7.8c-5.5,3.1-10.4,8.3-13.8,14.8c-0.9,1.8-1.7,3.6-2.3,5.4
		c-0.6-1.8-1.4-3.7-2.3-5.4C44.7,14.4,38,8.2,30.8,5.9c-4.7-1.5-9.2-1.2-13.1,0.8c-3.9,2-6.7,5.5-8.2,10.2c-0.8,2.4-1.1,5-1.1,7.8
		c0,5.4,1.4,11.2,4.2,16.6C15.1,46,18.3,50,22,53.1c-4.6,6.2-7.1,13.7-7.1,21.6c0,9.2,3.5,17.9,9.6,24.6
		c-5.6,5.8-10.5,13.2-14.1,21.6C6,130.7,3.8,141,3.8,150.6c0,8.3,1.8,15.6,5.2,21.7c-5.5,2.8-8.7,6.8-8.7,11.4
		c0,4.7,3.2,8.8,9.1,11.6c4.9,2.4,11.4,3.7,18.2,3.7c8.1,0,19.1-1.7,26-5.5c7.6,4.7,20.4,5.5,27.8,5.5c6.8,0,13.3-1.3,18.2-3.7
		c5.9-2.8,9.1-7,9.1-11.6C108.9,177.8,103.5,172.8,94.8,170.2z M81.5,194.8c-10.2,0-22.3-1.6-27.5-6.2c-0.1,0-0.2,0-0.4,0
		c-5.2,3.8-16.5,6.2-26,6.2c-12.8,0-23.2-5-23.2-11.1c0-4,4.3-7.5,10.8-9.4c-4.6-5.8-7.3-13.6-7.3-23.6c0-18.4,9.2-39.6,22.6-51.4
		C23.5,93.4,19,84.5,19,74.7c0-8.7,3.4-16.6,9-22.4c-4.5-2.6-8.7-7.1-11.7-12.9c-6.1-11.9-4.7-24.9,3.3-29c8-4.1,19.4,2.2,25.6,14.1
		c3.2,6.2,4.3,12.7,3.6,18c0.8-0.1,1.6-0.1,2.4-0.1c0.8,0,1.6,0,2.4,0.1c-0.8-5.4,0.4-11.9,3.6-18c6.1-11.9,17.6-18.3,25.6-14.1
		c8,4.1,9.5,17.1,3.3,29c-3,5.8-7.2,10.3-11.7,12.9c5.6,5.8,9,13.7,9,22.4c0,9.6-4.2,18.2-10.9,24.1c13.2,11.7,22,33.2,22,51.8
		c0,9.3-2.2,16.7-6.1,22.4c9.4,1.4,16.2,5.6,16.2,10.6C104.7,189.8,94.3,194.8,81.5,194.8z"/>
	<path fill="#231F20" d="M52.5,42.5C52.5,42.5,52.5,42.5,52.5,42.5c0.2,0,0.4,0,0.6,0C52.9,42.5,52.7,42.5,52.5,42.5z"/>
	<path fill="#231F20" d="M55.2,81.9C55.2,81.9,55.2,81.9,55.2,81.9C55.2,81.9,55.1,81.9,55.2,81.9C55.1,81.9,55.2,81.9,55.2,81.9z"
		/>
	<path fill="#231F20" d="M51.8,84.6v2.1c0,2.7-2.2,4.9-4.9,4.9c-2.7,0-4.9-2.2-4.9-4.9h-1c0,3.3,2.6,5.9,5.9,5.9
		c2.4,0,4.5-1.4,5.5-3.5c0.9,2.1,3,3.5,5.5,3.5c3.3,0,5.9-2.6,5.9-5.9h-1c0,2.7-2.2,4.9-4.9,4.9c-2.7,0-4.9-2.2-4.9-4.9v-2
		c-0.1,0-0.3,0-0.4,0C52.2,84.7,52,84.7,51.8,84.6z"/>
	<ellipse transform="matrix(0.4539 0.8911 -0.8911 0.4539 46.3966 -9.5357)" fill="#231F20" cx="31" cy="33.1" rx="14.1" ry="6"/>
	<ellipse fill="#231F20" cx="51.7" cy="141.3" rx="17.8" ry="26"/>
	<path fill="#231F20" d="M61.4,72.5c1.7,0,3.1-1.4,3.1-3.1c0-1.7-1.4-3.1-3.1-3.1c-1.7,0-3.1,1.4-3.1,3.1
		C58.3,71.1,59.7,72.5,61.4,72.5z M60.5,68c0.3,0,0.5,0.2,0.5,0.5c0,0.3-0.2,0.5-0.5,0.5c-0.3,0-0.5-0.2-0.5-0.5
		C60,68.2,60.2,68,60.5,68z"/>
	<path fill="#231F20" d="M50.3,80.1c-1.2-0.5-2.6-1.8-3.4-3.3l0,0c-0.1-0.2-0.3-0.3-0.5-0.3c-0.3,0-0.5,0.2-0.5,0.5
		c0,0.1,0,0.2,0.1,0.3l0,0c0.7,1.3,2,2.8,3.4,3.6c0.1,0,0.2,0,0.4,0.1C49.9,80.6,50.1,80.3,50.3,80.1z"/>
	<path fill="#231F20" d="M43.9,77.6c-0.2-0.2-0.3-0.3-0.5-0.3c-0.3,0-0.5,0.2-0.5,0.5c0,0.2,0.2,0.4,0.2,0.4c2,2,3.5,3.2,6.3,3.6
		c0.1,0,0.2-0.1,0.3-0.1c0-0.3,0.1-0.5,0.2-0.8c-0.1,0-0.2-0.1-0.3-0.2C47.3,80.4,45.5,79.5,43.9,77.6z"/>
	<path fill="#231F20" d="M50,80.9c-0.1,0-0.1,0-0.2,0c0,0,0,0.1,0,0.1c0.1,0,0.1,0.1,0.2,0.1L50,80.9z"/>
	<path fill="#231F20" d="M49.4,81.9c-2,0.7-4.9,0-6.9-1.9c-0.2-0.2-0.4-0.4-0.7-0.4c-0.3,0-0.6,0.2-0.6,0.6c0,0.2,0.1,0.3,0.3,0.5
		c2.1,2.2,5.9,3,8.3,2.2c-0.1-0.3-0.2-0.6-0.2-0.9C49.5,81.9,49.4,81.9,49.4,81.9z"/>
	<path fill="#231F20" d="M49.6,81.9c0.1,0,0.2,0,0.3,0l0-0.1l-0.1-0.1c-0.1,0-0.1,0.1-0.2,0.1C49.6,81.8,49.6,81.9,49.6,81.9
		C49.6,81.9,49.6,81.9,49.6,81.9z"/>
	<path fill="#231F20" d="M55,80.8c1.4-0.8,2.7-2.3,3.4-3.6l0,0c0-0.1,0.1-0.2,0.1-0.3c0-0.3-0.2-0.5-0.5-0.5c-0.2,0-0.4,0.1-0.5,0.3
		l0,0c-0.8,1.4-2,2.7-3.1,3.2C54.7,80.2,54.8,80.5,55,80.8C55,80.8,55,80.8,55,80.8z"/>
	<path fill="#231F20" d="M55.2,81.9c2.7-0.4,4.2-1.6,6.2-3.6c0,0,0.2-0.3,0.2-0.4c0-0.3-0.2-0.5-0.5-0.5c-0.2,0-0.3,0.1-0.5,0.3
		c-1.7,1.9-3.5,2.9-5.6,3.3c0,0,0,0,0,0C55.1,81.2,55.2,81.5,55.2,81.9z"/>
	<path fill="#231F20" d="M55,80.8c-0.2,0-0.3,0.1-0.5,0.1l0,0.2C54.7,81,54.8,80.9,55,80.8C55,80.8,55,80.8,55,80.8z"/>
	<path fill="#231F20" d="M55,82.9c2.4,0.6,6-0.2,8-2.3c0.2-0.2,0.3-0.3,0.3-0.5c0-0.3-0.2-0.6-0.6-0.6c-0.2,0-0.4,0.1-0.7,0.4
		c-2,1.9-4.8,2.6-6.8,1.9c0,0,0,0,0,0C55.2,82.2,55.1,82.6,55,82.9z"/>
	<path fill="#231F20" d="M55.1,81.9c-0.2-0.1-0.3-0.1-0.5-0.2l-0.1,0.1l0,0.1C54.8,81.9,55,81.9,55.1,81.9z"/>
	<ellipse transform="matrix(0.4539 -0.8911 0.8911 0.4539 9.4192 81.5346)" fill="#231F20" cx="71.2" cy="33.1" rx="14.1" ry="6"/>
	<path fill="#231F20" d="M57.6,97.1c-1.6,0.3-3.1,1.2-4.2,2.2c-0.5-0.8-1.2-1.4-1.9-1.4c-0.7,0-1.4,0.5-1.9,1.3
		c-1.1-1.1-2.6-1.9-4.2-2.3c-3.6-0.8-4.3,10.5,0,9.9c1.4-0.2,3.1-0.9,4.2-2c0.5,0.8,1.1,1.2,1.8,1.2c0.7,0,1.3-0.5,1.8-1.2
		c1.1,1.1,2.8,1.8,4.3,2C61.9,107.7,61.2,96.3,57.6,97.1z"/>
	<path fill="#231F20" d="M41.3,72.5c1.7,0,3.1-1.4,3.1-3.1c0-1.7-1.4-3.1-3.1-3.1c-1.7,0-3.1,1.4-3.1,3.1
		C38.2,71.1,39.6,72.5,41.3,72.5z M40.4,68c0.3,0,0.5,0.2,0.5,0.5c0,0.3-0.2,0.5-0.5,0.5c-0.3,0-0.5-0.2-0.5-0.5
		C39.9,68.2,40.1,68,40.4,68z"/>
	<circle fill="#231F20" cx="52.7" cy="81.6" r="3"/>
</g>
</svg>
