<?xml version="1.0" encoding="utf-8"?>
<!-- Generator: Adobe Illustrator 18.1.0, SVG Export Plug-In . SVG Version: 6.00 Build 0)  -->
<!DOCTYPE svg PUBLIC "-//W3C//DTD SVG 1.1//EN" "http://www.w3.org/Graphics/SVG/1.1/DTD/svg11.dtd">
<svg version="1.1" id="Layer_1" xmlns="http://www.w3.org/2000/svg" xmlns:xlink="http://www.w3.org/1999/xlink" x="0px" y="0px"
	 width="110px" height="264.3px" viewBox="0 0 110 264.3" enable-background="new 0 0 110 264.3" xml:space="preserve">
<path fill="#231F20" d="M100,64c0-0.1-8.3-0.6-6.3-5.6c0,0,0.9-1.6,2.5-0.2c-0.7-2.2,0.9-2.8,0.9-2.8C101.6,54.5,100,64,100,64
	C100.1,64,100.1,64,100,64z M87.3,28.5C87.3,28.5,87.3,28.4,87.3,28.5c-0.1,0-1.9-9.4-5.9-7c0,0-1.2,1.1,0.2,3
	c-2-0.7-2.3,1.1-2.3,1.1C79.3,30.9,87.3,28.4,87.3,28.5z M33.2,68.9c-0.5-0.6-1.2-1.5-1.7-2.1c0.2-0.8,0.6-2,0.8-2.8
	c-0.8,0.4-1.8,0.9-2.6,1.3c-0.7-0.4-1.6-1-2.4-1.4c0,0.8,0.1,1.9,0.1,2.8c-0.7,0.6-1.7,1.3-2.5,1.9c0.9,0.2,2,0.4,2.9,0.6
	c0.2,0.8,0.5,1.9,0.8,2.7c0.5-0.8,1.3-1.8,1.8-2.6C31.2,69.1,32.4,69,33.2,68.9z M22.8,65.9c-0.5-0.6-1.2-1.5-1.7-2.1
	c0.2-0.8,0.6-2,0.8-2.8c-0.8,0.4-1.8,0.9-2.6,1.3c-0.7-0.4-1.6-1-2.4-1.4c0,0.8,0,2,0.1,2.8c-0.8,0.6-1.8,1.3-2.5,1.9
	c0.9,0.2,2,0.4,2.9,0.6c0.2,0.8,0.5,1.9,0.8,2.7c0.6-0.8,1.3-1.8,1.8-2.6C20.8,66.1,21.9,66,22.8,65.9z M12.5,62.6
	c-0.5-0.6-1.2-1.5-1.7-2.1c0.2-0.8,0.6-2,0.8-2.8C10.9,58.1,9.8,58.6,9,59c-0.7-0.4-1.6-1-2.4-1.4c0,0.8,0,2,0,2.8
	C6,61,5,61.7,4.2,62.3c0.9,0.2,2,0.4,2.9,0.6c0.2,0.8,0.5,1.9,0.8,2.7c0.6-0.8,1.3-1.8,1.8-2.5C10.5,62.9,11.7,62.7,12.5,62.6z
	 M25.5,38.4l5.2-3.5c0.4-0.3,0.7-0.1,0.6,0.4l-1.5,6.1c-0.1,0.5-0.6,0.7-1,0.4l-3.4-2.3C25.1,39.1,25.1,38.7,25.5,38.4z M28.7,39.6
	c0.5,0,1-0.5,1-1c0-0.5-0.5-1-1-1c-0.5,0-1,0.5-1,1C27.7,39.2,28.2,39.6,28.7,39.6z M24.2,29.9L22.7,36c-0.1,0.5-0.6,0.7-1,0.4
	l-3.3-2.3c-0.4-0.3-0.4-0.8,0-1.1l5.2-3.5C24,29.2,24.3,29.4,24.2,29.9z M21.5,32.3c-0.5,0-1,0.5-1,1c0,0.6,0.5,1,1,1
	c0.5,0,1-0.5,1-1C22.5,32.7,22,32.3,21.5,32.3z M15.5,30.7c-0.1,0.5-0.6,0.7-1,0.4l-3.4-2.3c-0.4-0.3-0.4-0.8,0-1l5.2-3.5
	c0.4-0.3,0.7-0.1,0.6,0.4L15.5,30.7z M14.3,27c-0.6,0-1,0.5-1,1c0,0.5,0.5,1,1,1c0.5,0,1-0.5,1-1C15.3,27.4,14.9,27,14.3,27z
	 M92.3,70.2C92.3,70.2,92.3,70.1,92.3,70.2c-0.1,0,1.6-9.5-2.9-8.7c0,0-1.5,0.6-0.9,2.8c-1.6-1.3-2.5,0.2-2.5,0.2
	C84,69.6,92.3,70.1,92.3,70.2z M77.1,71.1c-2,5,6.4,5.5,6.3,5.6c0,0,0,0,0.1,0c-0.1,0,1.6-9.4-3-8.6c0,0-1.5,0.6-0.9,2.8
	C78,69.5,77.1,71.1,77.1,71.1z M76.6,33c-2-0.6-2.3,1.1-2.3,1.1c0,5.4,7.9,2.8,7.9,2.9c0,0,0,0,0-0.1c-0.1,0.1-2-9.4-5.9-6.9
	C76.4,30.1,75.2,31.2,76.6,33z M70.8,42.2c-2-0.7-2.3,1.1-2.3,1.1c0,5.4,7.9,2.8,7.9,2.9c0,0,0,0,0-0.1c-0.1,0.1-2-9.4-5.9-6.9
	C70.6,39.3,69.4,40.4,70.8,42.2z M43.2,136.5c-4.4,1.5,1.3,7.6,1.3,7.6c0,0,0,0,0.1,0c-0.1-0.1,6.8-4.3,3-7c0,0-1.5-0.7-2.3,1
	C44.8,136.3,43.2,136.5,43.2,136.5z M32.5,134.4c-4.4,1.5,1.3,7.6,1.2,7.6c0,0,0,0,0.1,0c-0.1-0.1,6.8-4.3,3-7c0,0-1.5-0.7-2.3,1
	C34.1,134.1,32.5,134.4,32.5,134.4z M23,139.8C23,139.8,23,139.8,23,139.8c0-0.1,6.9-4.3,3.1-7c0,0-1.5-0.7-2.3,1
	c-0.4-1.9-2-1.6-2-1.6C17.3,133.7,23,139.8,23,139.8z M13.7,101.2L13.7,101.2c-0.1-0.4-0.1-0.7,0.1-1.1c0.2-0.4,0.6-0.6,0.9-0.7
	c0.3-0.1,0.5,0,0.6,0l1.7,0.3l1.5-1c0.1-0.1,0.4-0.2,0.6-0.3c0.3-0.1,0.8,0,1.2,0.3c0.3,0.2,0.5,0.6,0.6,0.9c0,0.1,0,0.2,0,0.2
	l0.2,1.7l1.4,1.1c0.2,0.1,0.5,0.5,0.6,0.9c0.2,0.8-0.4,1.5-0.8,1.6l-1.6,0.8l-0.6,1.7c-0.1,0.4-0.5,0.8-1.1,1
	c-0.6,0.1-1.1-0.2-1.4-0.4l-1.2-1.3l-1.8,0c-0.5,0-1.3-0.3-1.4-1.1c-0.1-0.4,0-0.8,0.2-1.1l0.9-1.6L13.7,101.2z M16.7,104.3
	c0.6,0.1,1,0.2,1.5,0.7l0.1,0.2l0.1-0.2c0.3-0.6,0.5-0.9,1.1-1.2l0.2-0.1l-0.2-0.1c-0.5-0.4-0.6-0.7-0.8-1.2c0,0,0,0,0-0.1
	c0,0,0,0,0,0l0,0l0-0.3l-0.2,0.1c-0.3,0.2-0.5,0.3-0.7,0.3c-0.3,0-0.5,0.1-0.8,0l-0.2,0l0.1,0.2c0,0,0,0.1,0,0.2
	c0.1,0.5,0,0.9-0.2,1.5l-0.1,0.2H16.7z M38.3,106.9c0.2,0.8-0.4,1.5-0.8,1.6l-1.6,0.8l-0.6,1.7c-0.1,0.4-0.5,0.8-1.1,1
	c-0.6,0.1-1.1-0.2-1.4-0.4l-1.2-1.3l-1.8,0c-0.5,0-1.3-0.3-1.4-1.1c-0.1-0.4,0-0.8,0.2-1l0.9-1.6l-0.6-1.8l0-0.1c0-0.3,0-0.7,0.2-1
	c0.2-0.4,0.6-0.6,0.9-0.7c0.3-0.1,0.5,0,0.6,0l1.7,0.3l1.5-1c0.1-0.1,0.4-0.2,0.6-0.3c0.3-0.1,0.8,0,1.2,0.3
	c0.3,0.2,0.5,0.6,0.6,0.9c0,0.1,0,0.2,0,0.2l0.2,1.8l1.4,1.1C38,106.2,38.3,106.5,38.3,106.9z M34.6,106.9c-0.5-0.4-0.6-0.7-0.8-1.2
	c0,0,0,0,0-0.1c0,0,0,0,0,0l0,0l0-0.3l-0.2,0.1c-0.3,0.2-0.5,0.3-0.7,0.3c-0.3,0-0.5,0.1-0.8,0l-0.2,0l0.1,0.2c0,0,0,0.1,0,0.2
	c0.1,0.5,0,0.9-0.2,1.4l-0.1,0.2l0.2,0c0.7,0.1,1,0.2,1.5,0.7l0.1,0.2l0.1-0.2c0.2-0.6,0.5-0.9,1.1-1.2l0.2-0.1L34.6,106.9z
	 M40,174.7c0.2,0.8-0.4,1.5-0.9,1.6l-1.6,0.7l-0.6,1.7c-0.1,0.4-0.5,0.8-1.1,1c-0.6,0.1-1.1-0.2-1.4-0.5l-1.2-1.3l-1.8-0.1
	c-0.5,0-1.3-0.4-1.4-1.2c-0.1-0.4,0-0.8,0.2-1.1l0.9-1.6l-0.5-1.8l0-0.1c0-0.3,0-0.7,0.2-1c0.2-0.4,0.6-0.6,1-0.7
	c0.3-0.1,0.5,0,0.7,0l1.7,0.4l1.5-1c0.1-0.1,0.4-0.2,0.6-0.2c0.3-0.1,0.8,0,1.2,0.3c0.3,0.3,0.5,0.6,0.5,0.9c0,0.1,0,0.2,0,0.2
	l0.2,1.8l1.4,1.1C39.6,174,39.9,174.3,40,174.7z M36.3,174.6c-0.5-0.4-0.6-0.7-0.8-1.2c0,0,0,0,0-0.1c0,0,0,0,0,0v0l0-0.3l-0.2,0.1
	c-0.3,0.2-0.5,0.3-0.8,0.3c-0.3,0-0.5,0.1-0.8,0l-0.2-0.1l0.1,0.2c0,0,0,0.1,0,0.2c0.1,0.5,0,0.9-0.2,1.4l-0.1,0.2h0.2
	c0.6,0.1,1,0.2,1.5,0.7l0.1,0.2l0.1-0.2c0.3-0.6,0.5-0.9,1.1-1.2l0.2-0.1L36.3,174.6z M55,178.4c0.2,0.8-0.4,1.5-0.9,1.6l-1.6,0.7
	l-0.6,1.7c-0.1,0.4-0.5,0.8-1.1,1c-0.6,0.1-1.1-0.2-1.4-0.5l-1.2-1.3l-1.8-0.1c-0.5,0-1.3-0.4-1.4-1.2c-0.1-0.4,0-0.8,0.2-1l0.9-1.6
	l-0.5-1.8l0-0.1c0-0.3,0-0.7,0.2-1c0.2-0.4,0.6-0.6,1-0.7c0.3,0,0.5,0,0.7,0l1.7,0.4l1.5-1c0.1-0.1,0.4-0.2,0.6-0.2
	c0.4-0.1,0.8,0,1.2,0.3c0.3,0.3,0.5,0.6,0.5,0.9c0,0.1,0,0.2,0,0.2l0.2,1.8l1.4,1.1C54.7,177.7,54.9,178,55,178.4z M51.3,178.3
	c-0.5-0.4-0.6-0.7-0.8-1.3c0,0,0,0,0-0.1c0,0,0,0,0,0l0,0l0-0.3l-0.2,0.1c-0.3,0.2-0.5,0.3-0.8,0.3c-0.3,0-0.5,0.1-0.8,0l-0.2-0.1
	l0.1,0.2c0,0,0,0.1,0,0.2c0.1,0.5,0,0.9-0.2,1.4l-0.1,0.2l0.2,0c0.6,0.1,1,0.2,1.5,0.7l0.1,0.2l0.1-0.2c0.3-0.6,0.5-0.9,1.1-1.2
	l0.2-0.1L51.3,178.3z M34.2,197.2c6,2,17.7,5.7,30,8.6l-2.7-12.3l-0.9-0.2c-8.5-1.7-18.2-4.1-28.8-7.2l-1.3-0.4l2.4,11.1L34.2,197.2
	z M26.5,161.3c6,2,17.7,5.6,30,8.6L53,153.4l-0.9-0.2c-8.5-1.7-18.2-4.1-28.8-7.2l-1.3-0.4l3.3,15.3L26.5,161.3z M38.4,221.6
	l1.3,0.4c10.6,3.1,20.3,5.6,28.8,7.2l0.9,0.2l1.5,6.8c1.7,7.7-3.2,15.4-11,17c-7.7,1.7-15.4-3.2-17-11L38.4,221.6z M51.9,233.4
	c-0.9-0.9-1.9-1.3-2.3-0.9c-0.4,0.4,0,1.4,0.9,2.4c0.9,0.9,1.9,1.3,2.3,0.9C53.2,235.4,52.8,234.3,51.9,233.4z M56.3,230.7
	c-0.5-0.1-1.2,0.8-1.4,2.1c-0.2,1.2,0,2.3,0.6,2.4c0.6,0.1,1.2-0.8,1.4-2.1C57.2,231.8,56.9,230.7,56.3,230.7z M62,234.5
	c-0.2-0.5-1.4-0.5-2.5,0c-1.2,0.5-1.9,1.4-1.6,1.9c0.2,0.5,1.4,0.5,2.5-0.1C61.5,235.9,62.3,235.1,62,234.5z M60.1,241.5
	c1.2,0.3,2.3,0.1,2.5-0.4c0.1-0.5-0.8-1.2-2-1.6c-1.2-0.3-2.3-0.1-2.5,0.4C58,240.5,58.9,241.2,60.1,241.5z M57.8,246.1
	c0.5-0.2,0.6-1.3,0.2-2.5c-0.4-1.2-1.2-2-1.7-1.8c-0.5,0.2-0.6,1.3-0.2,2.5C56.5,245.4,57.2,246.2,57.8,246.1z M53.4,239.8
	c0.1-0.1,0.2-0.2,0.2-0.4l1-0.5c0.1,0.1,0.2,0.1,0.3,0.1l0.2,1.2c-0.1,0.1-0.2,0.2-0.2,0.4c0,0.2,0.2,0.3,0.3,0.3l0.1,0.4
	c-0.2,0.1-0.3,0.3-0.3,0.5c0.1,0.2,0.3,0.4,0.5,0.3c0.2,0,0.4-0.3,0.3-0.5c0-0.2-0.2-0.4-0.4-0.3l-0.1-0.4c0.1-0.1,0.2-0.2,0.2-0.4
	c0-0.2-0.2-0.3-0.3-0.3L55,239c0.1,0,0.1-0.1,0.1-0.1l0.7,0.2c0,0,0,0.1,0,0.1c0.1,0.1,0.2,0.1,0.4,0.1c0,0,0.1,0,0.1-0.1l0.3,0.1
	c0,0.1,0,0.2,0,0.2c0.1,0.2,0.4,0.3,0.6,0.2c0.2-0.1,0.3-0.4,0.1-0.6c-0.1-0.2-0.4-0.3-0.6-0.2c-0.1,0.1-0.2,0.1-0.2,0.2l-0.2-0.1
	c0-0.1,0-0.1,0-0.2c-0.1-0.1-0.2-0.1-0.4-0.1c0,0-0.1,0.1-0.1,0.1l-0.7-0.2c0,0,0-0.1,0-0.1l1.3-0.7c0.1,0.1,0.2,0.1,0.3,0.1
	c0.1-0.1,0.2-0.2,0.1-0.3l0.4-0.2c0.1,0.2,0.4,0.2,0.6,0.1c0.2-0.1,0.3-0.4,0.2-0.6c-0.1-0.2-0.4-0.3-0.6-0.2
	c-0.2,0.1-0.3,0.3-0.2,0.6l-0.4,0.2c-0.1-0.1-0.2-0.1-0.4-0.1c-0.1,0.1-0.2,0.2-0.1,0.3l-1.3,0.7c-0.1-0.1-0.1-0.1-0.2-0.1l-0.2-1
	c0.1,0,0.2-0.2,0.2-0.3c0-0.1-0.1-0.2-0.2-0.2l-0.1-0.5c0.2-0.1,0.3-0.3,0.3-0.5c-0.1-0.2-0.3-0.4-0.5-0.3c-0.2,0-0.4,0.3-0.3,0.5
	c0,0.2,0.2,0.4,0.4,0.3l0.1,0.5c-0.1,0-0.2,0.2-0.2,0.3c0,0.1,0.1,0.2,0.3,0.2l0.2,0.9c0,0-0.1,0-0.1,0c-0.1,0-0.1,0.1-0.1,0.2
	l-0.5-0.1c0-0.1,0-0.1,0-0.2c-0.1-0.1-0.2-0.2-0.4-0.1c0,0-0.1,0.1-0.1,0.1l-0.4-0.1c0-0.1,0-0.2-0.1-0.3c-0.1-0.2-0.4-0.3-0.6-0.1
	c-0.2,0.1-0.3,0.4-0.2,0.6c0.1,0.2,0.4,0.3,0.6,0.2c0.1,0,0.1-0.1,0.2-0.2l0.4,0.1c0,0,0,0.1,0,0.1c0.1,0.1,0.3,0.1,0.4,0.1
	c0,0,0.1,0,0.1-0.1l0.5,0.1c0,0,0,0.1,0,0.1l-1,0.5c-0.1-0.1-0.2-0.2-0.4-0.1c-0.1,0.1-0.2,0.2-0.1,0.4l-0.4,0.2
	c-0.1-0.2-0.4-0.2-0.6-0.1c-0.2,0.1-0.3,0.4-0.2,0.6c0.1,0.2,0.4,0.3,0.6,0.2c0.2-0.1,0.3-0.3,0.2-0.5l0.4-0.2
	C53.1,239.8,53.2,239.8,53.4,239.8z M50.8,245.6c0.5,0.3,1.4-0.4,2-1.5c0.6-1.1,0.7-2.2,0.2-2.5c-0.5-0.3-1.4,0.4-2,1.5
	C50.4,244.2,50.3,245.4,50.8,245.6z M49.5,240c1.2-0.3,2.1-0.9,2-1.5c-0.1-0.5-1.2-0.8-2.5-0.5c-1.2,0.3-2.1,0.9-2,1.5
	C47.1,240,48.2,240.2,49.5,240z M17.8,121.2c6,2,17.7,5.7,30,8.6l-2.2-10.2l-0.8-0.1c-3.3-0.5-7.3-1.3-12-2.4
	c-5.3-1.3-11.4-2.9-18.1-4.8l1.9,8.6L17.8,121.2z M16.4,18.4l18.5,17.8l1.8,1.3c0.5-0.3,5.4-2.7,6-2.9c-2.8-4.7-7.7-14-11.3-26.1
	l-0.1-0.2C26.5,10.3,20.3,14.9,16.4,18.4z M57.2,33.7L57,34.2c1.2,0.4,2.3,1,3.4,1.7c1.6,1,2.9,2.2,4.1,3.6
	c1.4-5.5,3.7-9.3,5.9-12.9l0.2-0.4c1.3-2.2,5.8-9.5,8.5-12.1c-1-0.8-2.1-1.6-3.2-2.3C71.9,9.2,67.6,7.3,63,6
	C61.2,15.9,59.3,24.9,57.2,33.7z M102.4,69.8c-6.6,4.7-13.2,9.8-19.8,15.2c2.7,1.2,5.7,1.5,8.7,0.9C98.7,84.3,103.5,77.2,102.4,69.8
	z M71.1,60.2l1.6,7.4c10.4-8.4,19.1-14.6,24.5-18.2l0.7-0.5L96.2,41c-0.7-3.4-1.9-6.6-3.3-9.7c-0.7,0.8-1.8,2.2-3,3.6
	c-1.2,1.4-2.5,3.1-3.8,4.6c-0.7,1.2-6.9,10.5-13.9,19.3L71.1,60.2z M27.1,92.9c4.7,1.3,9.5,2.5,13.5,3.4l-3.2-14.8l-0.4,0
	c-1.1,0-2.2-0.1-3.3-0.4c-6.7-1.9-15.3-4.9-26.3-9l-1.5-0.6l3.5,16.3l1.2,0.4C13.7,89,20.1,91,27.1,92.9z M18.1,56.2
	c5.2,1.9,10.6,4.2,14.7,5.6l-1-5.7L30,54.6C19.3,46.5,8.4,37,5.7,34.6c-1.5,3.9-2,13.4-2.5,17.5L18.1,56.2z M53.5,8.3
	C53.5,8.3,53.5,8.3,53.5,8.3c0,0-6.5-7.1-8.6-3c0,0-0.5,1.6,1.7,2.4c-2.1,0.5-1.4,2.1-1.4,2.1C47.9,14.4,53.4,8.2,53.5,8.3z
	 M45,15.2c0,0-0.5,1.6,1.7,2.4c-2,0.5-1.4,2.2-1.4,2.1c2.7,4.6,8.3-1.6,8.3-1.5c0,0,0-0.1,0-0.1C53.5,18.3,47.1,11.1,45,15.2z
	 M44.9,30.7c2.7,4.6,8.3-1.6,8.3-1.5c0,0,0,0,0-0.1c0,0.1-6.5-7.1-8.6-3c0,0-0.5,1.6,1.7,2.4C44.2,29,44.9,30.7,44.9,30.7z
	 M40.1,207.1c-4.5,1.2,1.1,9,1,9.1c0,0,0,0,0.1,0c-0.1-0.1,7.3-4,3.4-7.7c0,0-1.5-1-2.4,0.9C41.8,207,40.1,207.1,40.1,207.1z
	 M49.8,209.4c-4.5,1.2,1.1,9,1,9c0,0,0.1,0,0.1,0c-0.1-0.1,7.3-4.1,3.4-7.8c0,0-1.5-1-2.4,0.9C51.4,209.3,49.8,209.4,49.8,209.4z
	 M64.9,212.9c0,0-1.5-1-2.4,0.9c-0.4-2.3-2-2.2-2-2.2c-4.5,1.1,1,9,0.9,9.1c0,0,0,0,0.1,0C61.4,220.6,68.8,216.6,64.9,212.9z"/>
</svg>
