<?xml version="1.0" encoding="utf-8"?>
<!-- Generator: Adobe Illustrator 18.1.0, SVG Export Plug-In . SVG Version: 6.00 Build 0)  -->
<!DOCTYPE svg PUBLIC "-//W3C//DTD SVG 1.1//EN" "http://www.w3.org/Graphics/SVG/1.1/DTD/svg11.dtd">
<svg version="1.1" id="Layer_1" xmlns="http://www.w3.org/2000/svg" xmlns:xlink="http://www.w3.org/1999/xlink" x="0px" y="0px"
	 width="110px" height="212.3px" viewBox="0 0 110 212.3" enable-background="new 0 0 110 212.3" xml:space="preserve">
<g>
	<path fill="#231F20" d="M52.9,34.2c0.3-1.2-0.2-2.2-1.1-2.4c-0.9-0.2-1.8,0.5-2.1,1.7c-0.3,1.2,0.2,2.2,1.1,2.4
		C51.7,36.1,52.7,35.4,52.9,34.2z M50.2,33.5c0.2-0.9,1-1.6,1.6-1.4c0.7,0.2,1,1.1,0.8,2c-0.2,0.9-1,1.6-1.6,1.4
		C50.3,35.4,49.9,34.5,50.2,33.5z"/>
	<path fill="#231F20" d="M56.1,15.6c-0.1,0.2-0.3,0.3-0.5,0.4c0,0.1-0.1,0.3-0.1,0.4c-0.3,0.8-1.1,1.4-2.1,1.4c-0.2,0-0.3,0-0.5-0.1
		c-0.1,0.1-0.3,0.2-0.4,0.3c-0.1,0.5-0.4,0.9-0.8,1.2c1.6,2.6,2.4,4.7-1.2,11.3l-0.1,0.1c0,0,0.1,0,0.1,0C53.9,30,58,30,62,31.7
		c-0.1-0.6-0.1-1.2-0.1-1.7c-0.3-6.9-2.2-12.4-5.3-15.9c0,0-0.1,0.1-0.1,0.1C56.6,14.7,56.4,15.2,56.1,15.6z"/>
	<path fill="#231F20" d="M55.6,34.5c0,0,0-0.1,0-0.1l0-0.1c0,0,0.1,0,0.1,0c0,0,0-0.1,0-0.1l0.1-0.2c0,0,0,0,0,0l-0.1,0.9
		c0,0-0.1,0-0.1,0.1c0,0,0,0.1,0.1,0.1c0,0,0.1,0,0.1-0.1c0,0,0-0.1-0.1-0.1l0.1-0.9l0,0.1c0,0,0,0,0,0c0,0,0,0.1,0,0.1c0,0,0,0,0,0
		l0,0.1c0,0,0,0,0,0c0,0,0,0.1,0,0.1c0,0,0.1,0,0.1,0c0,0,0-0.1,0-0.1c0,0,0,0-0.1,0l0-0.1c0,0,0,0,0,0c0,0,0-0.1,0-0.1c0,0,0,0,0,0
		l0-0.1c0,0,0,0,0,0l0.5,0.7c0,0,0,0.1,0,0.1c0,0,0.1,0,0.1,0c0,0,0-0.1,0-0.1c0,0-0.1,0-0.1,0l-0.5-0.7c0,0,0,0,0,0c0,0,0,0,0,0
		l0.2,0c0,0,0,0.1,0.1,0.1c0,0,0.1,0,0.1,0l0.1,0c0,0,0,0.1,0.1,0.1c0.1,0,0.1,0,0.1-0.1c0-0.1,0-0.1-0.1-0.1c0,0-0.1,0-0.1,0.1
		l-0.1,0c0,0,0-0.1-0.1-0.1c0,0-0.1,0-0.1,0l-0.2,0c0,0,0,0,0,0l0.7-0.5c0,0,0.1,0,0.1,0c0,0,0-0.1,0-0.1c0,0-0.1,0-0.1,0
		c0,0,0,0.1,0,0.1l-0.7,0.5c0,0,0,0,0,0l0.1-0.3c0,0,0.1,0,0.1,0c0,0,0-0.1,0-0.1l0-0.1c0.1,0,0.1,0,0.1-0.1c0-0.1,0-0.1-0.1-0.1
		c-0.1,0-0.1,0-0.1,0c0,0,0,0.1,0,0.1l0,0.1c0,0-0.1,0-0.1,0c0,0,0,0.1,0,0.1l-0.1,0.2l0.1-0.8c0,0,0.1,0,0.1-0.1c0,0,0-0.1-0.1-0.1
		c0,0-0.1,0-0.1,0.1c0,0,0,0.1,0.1,0.1l-0.1,0.9c0,0,0,0,0,0l-0.1-0.2c0,0,0,0,0,0c0,0,0-0.1,0-0.1c0,0,0,0,0,0l0-0.1c0,0,0,0,0,0
		c0-0.1,0-0.1,0-0.1c-0.1,0-0.1,0-0.1,0c0,0.1,0,0.1,0,0.1c0,0,0,0,0.1,0l0,0.1c0,0,0,0,0,0c0,0,0,0.1,0,0.1c0,0,0,0,0,0l0,0.1
		L55.3,33c0,0,0-0.1,0-0.1c0,0-0.1,0-0.1,0c0,0,0,0.1,0,0.1c0,0,0.1,0,0.1,0l0.5,0.7c0,0,0,0,0,0l-0.3,0c0,0,0-0.1-0.1-0.1
		c0,0-0.1,0-0.1,0.1l-0.1,0c0,0,0-0.1-0.1-0.1c-0.1,0-0.1,0-0.1,0.1c0,0.1,0,0.1,0.1,0.1c0,0,0.1,0,0.1-0.1l0.1,0c0,0,0,0.1,0.1,0.1
		c0,0,0.1,0,0.1-0.1l0.3,0c0,0,0,0,0,0L55,34.4c0,0-0.1,0-0.1,0c0,0,0,0.1,0,0.1c0,0,0.1,0,0.1,0c0,0,0-0.1,0-0.1l0.7-0.5
		c0,0,0,0,0,0l-0.1,0.2c0,0-0.1,0-0.1,0c0,0,0,0.1,0,0.1l0,0.1c0,0-0.1,0-0.1,0.1c0,0.1,0,0.1,0.1,0.1
		C55.5,34.6,55.6,34.5,55.6,34.5z"/>
	<path fill="#231F20" d="M60.2,35.7C60.2,35.7,60.2,35.7,60.2,35.7c0.1,0.1,0.2,0.1,0.2,0C60.3,35.6,60.3,35.6,60.2,35.7l0.2-0.9
		l0,0.1c0,0,0,0,0,0c0,0,0,0.1,0,0.1c0,0,0,0,0,0l0,0.1c0,0,0,0,0,0c0,0,0,0.1,0.1,0.1c0,0,0.1,0,0.1-0.1c0-0.1,0-0.1-0.1-0.1
		c0,0,0,0-0.1,0l0-0.1c0,0,0,0,0,0c0,0,0-0.1,0-0.1c0,0,0,0,0,0l0-0.1c0,0,0,0,0,0l0.6,0.7c0,0,0,0.1,0,0.1c0,0,0.1,0,0.1,0
		c0,0,0-0.1,0-0.1c0,0-0.1,0-0.1,0l-0.6-0.7c0,0,0,0,0,0c0,0,0,0,0,0l0.2,0c0,0,0,0.1,0.1,0.1c0,0,0.1,0,0.1,0l0.1,0
		c0,0,0,0.1,0.1,0.1c0.1,0,0.1,0,0.1-0.1c0-0.1,0-0.1-0.1-0.1c0,0-0.1,0-0.1,0.1l-0.1,0c0,0,0-0.1-0.1-0.1c0,0-0.1,0-0.1,0l-0.2,0
		c0,0,0,0,0,0l0.7-0.6c0,0,0.1,0,0.1,0c0,0,0-0.1,0-0.1c0,0-0.1,0-0.1,0c0,0,0,0.1,0,0.1l-0.7,0.6c0,0,0,0,0,0l0.1-0.3
		c0,0,0.1,0,0.1,0c0,0,0-0.1,0-0.1l0-0.1c0,0,0.1,0,0.1-0.1c0-0.1,0-0.1-0.1-0.1c-0.1,0-0.1,0-0.1,0.1c0,0.1,0,0.1,0,0.1l0,0.1
		c0,0-0.1,0-0.1,0c0,0,0,0.1,0,0.1l-0.1,0.3l0.1-0.8c0,0,0.1,0,0.1-0.1c0,0,0-0.1-0.1-0.1c0,0-0.1,0-0.1,0.1c0,0,0,0.1,0.1,0.1
		l-0.1,0.9c0,0,0,0,0,0l-0.1-0.2c0,0,0,0,0,0c0,0,0-0.1,0-0.1c0,0,0,0,0,0l0-0.1c0,0,0,0,0,0c0-0.1,0-0.1-0.1-0.1c0,0-0.1,0-0.1,0.1
		c0,0.1,0,0.1,0.1,0.1c0,0,0,0,0.1,0l0,0.1c0,0,0,0,0,0c0,0,0,0.1,0,0.1c0,0,0,0,0,0l0,0.1l-0.5-0.6c0,0,0-0.1,0-0.1
		c0,0-0.1,0-0.1,0c0,0,0,0.1,0,0.1c0,0,0.1,0,0.1,0l0.6,0.7c0,0,0,0,0,0l-0.3,0c0,0,0-0.1-0.1-0.1c0,0-0.1,0-0.1,0.1l-0.1,0
		c0,0,0-0.1-0.1-0.1c-0.1,0-0.1,0-0.1,0.1c0,0.1,0,0.1,0.1,0.1c0.1,0,0.1,0,0.1-0.1l0.1,0c0,0,0,0.1,0.1,0.1c0,0,0.1,0,0.1-0.1
		l0.3,0c0,0,0,0,0,0l-0.7,0.6c0,0-0.1,0-0.1,0c0,0,0,0.1,0,0.1c0,0,0.1,0,0.1,0c0,0,0-0.1,0-0.1l0.7-0.6c0,0,0,0,0,0l-0.1,0.3
		c0,0-0.1,0-0.1,0c0,0,0,0.1,0,0.1l0,0.1c0,0-0.1,0-0.1,0.1c0,0.1,0,0.1,0.1,0.1c0.1,0,0.1,0,0.1-0.1c0,0,0-0.1,0-0.1l0-0.1
		c0,0,0.1,0,0.1,0c0,0,0-0.1,0-0.1l0.1-0.3c0,0,0,0,0,0L60.2,35.7C60.2,35.6,60.2,35.6,60.2,35.7z"/>
	<path fill="#231F20" d="M57.4,34c0.2-1.2-0.4-2.2-1.3-2.3c-0.9-0.1-1.7,0.7-1.9,1.9c-0.2,1.2,0.4,2.2,1.3,2.3
		C56.4,36,57.2,35.2,57.4,34z M54.6,33.6c0.1-1,0.8-1.7,1.5-1.5c0.7,0.1,1.1,1,1,1.9c-0.1,1-0.8,1.7-1.5,1.6
		C54.9,35.4,54.5,34.6,54.6,33.6z"/>
	<path fill="#231F20" d="M61.9,34.8c0.1-1.2-0.5-2.2-1.4-2.3c-0.9-0.1-1.7,0.8-1.8,2c-0.1,1.2,0.5,2.2,1.4,2.3
		C61.1,36.8,61.8,35.9,61.9,34.8z M59.1,34.5c0.1-1,0.7-1.7,1.4-1.6c0.7,0.1,1.2,0.9,1.1,1.9c-0.1,1-0.7,1.7-1.4,1.6
		C59.5,36.3,59,35.5,59.1,34.5z"/>
	<path fill="#231F20" d="M42.5,66.7c0,0,3.4-1.7,7.3-0.2C49.8,66.4,46.9,60.9,42.5,66.7z"/>
	<path fill="#231F20" d="M107.2,79.2c-1.8-6.2-5.7-4.5-5.7-4.5c1.8-2.7-0.7-3.5-0.7-3.5c-2.3-1.9-6,3.3-8.1,6.7
		c-0.4-0.3-0.7-0.5-1.1-0.7c1.6,2.3,0.7,4.6,0.7,4.6c4.2,1.1,3.2,5.1,3.2,5.1c2.4,1.9,2.7,3.9,2.3,5.6c-0.4,0.4-0.9,0.7-1.6,0.9
		c0.4-1.6,0-3.5-2.3-5.4c0,0,1-4-3.2-5.1c0,0,1.3-3.3-1.9-5.9c0,0,0,0,0,0c-2.2,1-5.1,4.5-4.6,6.3c0.1,0.4,0.3,0.9,0.4,1.4l-11,4.2
		c-1.5,3.9-4,7.5-6.3,9.5c-3.6,3.3-5.2,6.5-6.5,9c-0.6,1.3-1.3,2.6-2.2,3.7c-0.3,1.2-0.9,2.3-1.8,3.1c1.2,1.1,1.9,2.7,1.9,4.6
		c0,2-0.9,3.8-2.3,4.9c0.7,0.6,1.3,1.4,1.7,2.3c4.6-0.2,9.3-0.9,13.9-2.1c-0.1-0.1-0.1-0.2-0.1-0.3c0-0.2,0.1-0.3,0.3-0.4l0-0.4
		c-0.1,0-0.2-0.1-0.2-0.3c0-0.1,0.1-0.3,0.2-0.3l0-1.1c0,0-0.1,0-0.1-0.1l-0.6,0.3c0,0,0,0.1,0,0.1c0,0.1-0.2,0.2-0.3,0.1
		c0,0-0.1,0-0.1,0l-0.2,0.1c0,0.1,0,0.1,0,0.2c-0.1,0.2-0.3,0.3-0.5,0.2c-0.2-0.1-0.3-0.3-0.2-0.5c0.1-0.2,0.3-0.3,0.5-0.2
		c0.1,0,0.2,0.1,0.2,0.2l0.2-0.1c0-0.1,0-0.1,0-0.2c0-0.1,0.2-0.2,0.3-0.1c0,0,0.1,0,0.1,0.1l0.6-0.3c0,0,0-0.1,0-0.1l-1.2-0.3
		c0,0.1-0.2,0.2-0.3,0.1c-0.1,0-0.2-0.1-0.2-0.3l-0.4-0.1c-0.1,0.2-0.3,0.3-0.5,0.2c-0.2-0.1-0.3-0.3-0.3-0.5
		c0.1-0.2,0.3-0.3,0.5-0.3c0.2,0.1,0.3,0.2,0.3,0.4l0.4,0.1c0.1-0.1,0.2-0.2,0.3-0.1c0.1,0,0.2,0.1,0.2,0.3l1.2,0.3
		c0-0.1,0.1-0.1,0.2-0.2l0-0.9c-0.1,0-0.2-0.1-0.2-0.2s0.1-0.2,0.2-0.2l0-0.5c-0.2,0-0.3-0.2-0.3-0.3c0-0.2,0.1-0.4,0.4-0.4
		c0.2,0,0.4,0.2,0.4,0.4c0,0.2-0.1,0.3-0.3,0.4l0,0.5c0.1,0,0.2,0.1,0.2,0.2c0,0.1-0.1,0.2-0.2,0.2l0,0.8c0,0,0.1,0,0.1,0
		c0.1,0,0.1,0.1,0.2,0.1l0.4-0.2c0,0,0-0.1,0-0.2c0-0.1,0.2-0.2,0.3-0.1c0.1,0,0.1,0,0.1,0.1l0.3-0.2c0-0.1,0-0.2,0-0.2
		c0.1-0.2,0.3-0.3,0.5-0.2c0.2,0.1,0.3,0.3,0.2,0.5c-0.1,0.2-0.3,0.3-0.5,0.2c-0.1,0-0.2-0.1-0.2-0.2l-0.3,0.2c0,0,0,0.1,0,0.1
		c0,0.1-0.2,0.2-0.3,0.1c0,0-0.1,0-0.1,0l-0.4,0.2c0,0,0,0.1,0,0.1l1,0.3c0-0.1,0.2-0.2,0.3-0.1c0.1,0,0.2,0.2,0.2,0.3l0.4,0.1
		c0.1-0.2,0.3-0.3,0.5-0.2c0.2,0.1,0.3,0.3,0.3,0.5c-0.1,0.2-0.3,0.3-0.5,0.3c-0.2,0-0.3-0.2-0.3-0.4l-0.4-0.1
		c-0.1,0.1-0.2,0.2-0.3,0.2c-0.1,0-0.2-0.2-0.2-0.3l-1-0.3c0,0.1-0.1,0.2-0.2,0.2l0,1.1c0.1,0,0.2,0.1,0.2,0.3
		c0,0.1-0.1,0.3-0.2,0.3l0,0.4c0.2,0,0.3,0.2,0.3,0.3c0,0,0,0.1,0,0.1c2-0.5,3.9-1.1,5.9-1.7c-1.9-5.2-4.2-11-6.9-17.5l16.8-11.8
		c0.5,0.5,0.9,0.8,1.5,1c2,0.7,7.6-0.1,8-2.1c0.2-1,0.2-2,0.1-3.2c1.2-0.1,2.4-0.2,3.2-0.4C109.6,86.1,107.2,79.2,107.2,79.2z
		 M68.5,110.9c0,0.2-0.3,0.3-0.5,0.3c-0.2-0.1-0.3-0.2-0.3-0.4l-0.4-0.1c-0.1,0.1-0.2,0.2-0.3,0.1c-0.1,0-0.2-0.2-0.2-0.3l-1-0.3
		c0,0.1-0.1,0.2-0.2,0.2l0,1.1c0.1,0,0.2,0.1,0.2,0.3c0,0.1-0.1,0.3-0.2,0.3l0,0.4c0.2,0,0.3,0.2,0.3,0.3c0,0.2-0.2,0.4-0.4,0.4
		c-0.2,0-0.4-0.2-0.4-0.4c0-0.2,0.1-0.3,0.3-0.4l0-0.4c-0.1,0-0.2-0.1-0.2-0.3c0-0.1,0.1-0.3,0.2-0.3l0-1.1c0,0-0.1,0-0.1-0.1
		l-0.6,0.3c0,0,0,0.1,0,0.1c0,0.1-0.2,0.2-0.3,0.1c0,0-0.1,0-0.1,0l-0.2,0.1c0,0.1,0,0.1,0,0.2c-0.1,0.2-0.3,0.3-0.5,0.2
		c-0.2-0.1-0.3-0.3-0.2-0.5c0.1-0.2,0.3-0.3,0.5-0.2c0.1,0,0.2,0.1,0.2,0.2l0.2-0.1c0-0.1,0-0.1,0-0.2c0-0.1,0.2-0.2,0.3-0.1
		c0,0,0.1,0,0.1,0.1l0.6-0.3c0,0,0-0.1,0-0.1l-1.2-0.3c0,0.1-0.2,0.2-0.3,0.1c-0.1,0-0.2-0.1-0.2-0.3l-0.4-0.1
		c-0.1,0.2-0.3,0.3-0.5,0.2c-0.2-0.1-0.3-0.3-0.3-0.5c0.1-0.2,0.3-0.3,0.5-0.3c0.2,0.1,0.3,0.2,0.3,0.4l0.4,0.1
		c0.1-0.1,0.2-0.2,0.3-0.1c0.1,0,0.2,0.1,0.2,0.3l1.2,0.3c0-0.1,0.1-0.1,0.2-0.2l0-0.9c-0.1,0-0.2-0.1-0.2-0.2s0.1-0.2,0.2-0.2
		l0-0.5c-0.2,0-0.3-0.2-0.3-0.3c0-0.2,0.1-0.4,0.4-0.4c0.2,0,0.4,0.2,0.4,0.4c0,0.2-0.1,0.3-0.3,0.4l0,0.5c0.1,0,0.2,0.1,0.2,0.2
		c0,0.1-0.1,0.2-0.2,0.2l0,0.8c0,0,0.1,0,0.1,0c0.1,0,0.1,0.1,0.1,0.1l0.4-0.2c0,0,0-0.1,0-0.2c0-0.1,0.2-0.2,0.3-0.1
		c0,0,0.1,0,0.1,0.1l0.3-0.2c0-0.1,0-0.2,0-0.2c0.1-0.2,0.3-0.3,0.5-0.2c0.2,0.1,0.3,0.3,0.2,0.5c-0.1,0.2-0.3,0.3-0.5,0.2
		c-0.1,0-0.2-0.1-0.2-0.1l-0.3,0.2c0,0,0,0.1,0,0.1c0,0.1-0.2,0.2-0.3,0.1c0,0-0.1,0-0.1,0l-0.4,0.2c0,0,0,0.1,0,0.1l1,0.3
		c0-0.1,0.2-0.2,0.3-0.1c0.1,0,0.2,0.2,0.2,0.3l0.4,0.1c0.1-0.2,0.3-0.3,0.4-0.2C68.4,110.5,68.5,110.7,68.5,110.9z M85.6,82.6
		C85.6,82.6,85.6,82.6,85.6,82.6c0,0,0.2-4,2.1-3c0,0,0.6,0.5,0.1,1.3c0.9-0.3,1.1,0.5,1.1,0.5C89.4,83.7,85.6,82.5,85.6,82.6z
		 M88.5,86.8C88.5,86.8,88.4,86.8,88.5,86.8c0,0,0.6-4.1,2.4-2.8c0,0,0.6,0.6,0,1.3C91.8,85.2,92,86,92,86
		C92.1,88.4,88.5,86.8,88.5,86.8z M90.9,92.1C90.9,92.1,90.8,92.1,90.9,92.1c0,0,1-4.1,2.7-2.5c0,0,0.5,0.6-0.1,1.3
		c0.9-0.1,1,0.8,1,0.8C94.4,94.1,90.9,92.1,90.9,92.1z"/>
	<path fill="#231F20" d="M47.5,127.2c-3.6,1.3,0.4,10.5,0.4,10.5c4.6,1.9,14.1,0.9,14.1,0.9c1.5-2.8,0.7-9,0.7-9
		C61.4,126.3,47.5,127.2,47.5,127.2z M59.4,131c0,0,0.5,3.7-0.4,5.4c0,0-5.8,0.7-8.6-0.5c0,0-2.4-5.7-0.2-6.5
		C50.2,129.4,58.6,129,59.4,131z"/>
	<path fill="#231F20" d="M50.9,34.4c0,0.1,0,0.1,0,0.1c0,0,0.1,0,0.1,0c0,0,0-0.1,0-0.1l0.1-0.1c0,0,0.1,0,0.1,0c0,0,0-0.1,0-0.1
		l0.1-0.2c0,0,0,0,0,0l-0.2,0.9c0,0-0.1,0-0.1,0.1c0,0,0,0.1,0.1,0.1c0,0,0.1,0,0.1-0.1c0,0,0-0.1,0-0.1l0.2-0.9l0,0.1c0,0,0,0,0,0
		c0,0,0,0.1,0,0.1c0,0,0,0,0,0l0,0.1c0,0,0,0,0,0c0,0,0,0.1,0,0.1c0,0,0.1,0,0.1,0c0,0,0-0.1,0-0.1c0,0,0,0-0.1,0l0-0.1c0,0,0,0,0,0
		c0,0,0-0.1,0-0.1c0,0,0,0,0,0l0-0.1c0,0,0,0,0,0l0.5,0.8c0,0,0,0.1,0,0.1c0,0,0.1,0,0.1,0c0,0,0-0.1,0-0.1c0,0-0.1,0-0.1,0
		l-0.5-0.8c0,0,0,0,0,0c0,0,0,0,0,0l0.2,0.1c0,0,0,0.1,0,0.1c0,0,0.1,0,0.1,0l0.1,0c0,0,0,0.1,0.1,0.1c0.1,0,0.1,0,0.1-0.1
		c0-0.1,0-0.1-0.1-0.1c0,0-0.1,0-0.1,0.1l-0.1,0c0,0,0-0.1,0-0.1c0,0-0.1,0-0.1,0l-0.2,0c0,0,0,0,0,0l0.8-0.5c0,0,0.1,0,0.1,0
		c0,0,0.1-0.1,0-0.1c0,0-0.1,0-0.1,0c0,0,0,0.1,0,0.1l-0.8,0.5c0,0,0,0,0,0l0.2-0.3c0,0,0.1,0,0.1,0c0,0,0-0.1,0-0.1l0-0.1
		c0.1,0,0.1,0,0.1,0c0-0.1,0-0.1,0-0.1c0,0-0.1,0-0.1,0c0,0,0,0.1,0,0.1l-0.1,0.1c0,0-0.1,0-0.1,0c0,0,0,0.1,0,0.1l-0.1,0.2l0.2-0.8
		c0,0,0.1,0,0.1-0.1c0,0,0-0.1-0.1-0.1c0,0-0.1,0-0.1,0.1c0,0,0,0.1,0,0.1l-0.2,0.9c0,0,0,0,0,0l0-0.2c0,0,0,0,0,0c0,0,0-0.1,0-0.1
		c0,0,0,0,0,0l0-0.1c0,0,0,0,0.1,0c0,0,0-0.1,0-0.1c0,0-0.1,0-0.1,0c0,0,0,0.1,0,0.1c0,0,0,0,0.1,0l0,0.1c0,0,0,0,0,0
		c0,0,0,0.1,0,0.1c0,0,0,0,0,0l0,0.1L50.9,33c0,0,0-0.1,0-0.1c0,0-0.1-0.1-0.1,0c0,0,0,0.1,0,0.1c0,0,0.1,0,0.1,0l0.5,0.8
		c0,0,0,0,0,0L51,33.7c0,0,0-0.1-0.1-0.1c0,0-0.1,0-0.1,0l-0.1,0c0,0,0-0.1-0.1-0.1c-0.1,0-0.1,0-0.1,0.1c0,0.1,0,0.1,0.1,0.1
		c0,0,0.1,0,0.1-0.1l0.1,0c0,0,0,0.1,0.1,0.1c0,0,0.1,0,0.1,0l0.3,0.1c0,0,0,0,0,0l-0.7,0.5c0,0-0.1,0-0.1,0c0,0,0,0.1,0,0.1
		c0,0,0.1,0.1,0.1,0c0,0,0-0.1,0-0.1l0.8-0.5c0,0,0,0,0,0l-0.1,0.2c0,0-0.1,0-0.1,0c0,0,0,0.1,0,0.1l-0.1,0.1
		C51,34.3,51,34.3,50.9,34.4z"/>
	<circle fill="#231F20" cx="52.5" cy="72.6" r="2.7"/>
	<path fill="#231F20" d="M46,38c-0.1,0-0.1,0-0.2,0l0,0.1c0,0,0,0,0,0c-0.9,1.4-1.8,2.8-2.6,4l0.4-0.1c2.3-0.4,4.9-0.5,7.7-0.5
		c3.9,0,8.2,0.4,12.7,1.1l0,0c-0.3-1.3-0.6-2.7-0.9-4C55.5,37,49.9,37.2,46,38z"/>
	<circle fill="#231F20" cx="40.4" cy="69.9" r="2.3"/>
	<circle fill="#231F20" cx="65.4" cy="69.1" r="2.3"/>
	<path fill="#231F20" d="M62.6,66.7c-4.4-5.8-7.3-0.2-7.3-0.2C59.6,64.3,62.6,66.7,62.6,66.7z"/>
	<path fill="#231F20" d="M55.4,156.1c-1.4-0.7-3-0.1-3.7,1.3c-0.7,1.4-0.1,3,1.3,3.7c1.4,0.7,3,0.1,3.7-1.3
		C57.4,158.4,56.8,156.8,55.4,156.1z"/>
	<path fill="#231F20" d="M28.4,151.6c-1.4-0.7-3-0.1-3.7,1.3c-0.7,1.4-0.1,3,1.3,3.7c1.4,0.7,3,0.1,3.7-1.3
		C30.4,153.9,29.8,152.3,28.4,151.6z"/>
	<path fill="#231F20" d="M20.1,76.7c0.2,0,0.5,0.1,0.8,0.2C20.6,76.8,20.3,76.7,20.1,76.7z"/>
	<path fill="#231F20" d="M37.6,104.5c-1.9,5.8-4,12.1-5.9,18.2c3.9,1.2,9,2.2,15,3c0.9,0.1,1.7,0.2,2.6,0.3c0.4-0.9,1-1.6,1.7-2.2
		c-1.4-1.1-2.2-2.9-2.2-4.9c0-1.9,0.8-3.5,1.9-4.6c-0.7-0.7-1.3-1.6-1.6-2.6c-1.3-1.8-2.6-4.3-4.2-7.6c-1.4-2.7-2.9-5.8-3.9-6.9
		c-2.8-3.2-4.9-6.2-6.3-8.9l-9.5-3.6c0.2-0.5,0.3-1,0.4-1.4c0.5-1.8-2.4-5.3-4.6-6.3c0,0,0,0,0,0c-3.2,2.5-1.9,5.9-1.9,5.9
		c-4.2,1.1-3.2,5.1-3.2,5.1c-2.3,1.9-2.7,3.8-2.3,5.4c-0.6-0.2-1.2-0.5-1.6-0.9c-0.4-1.6-0.1-3.6,2.3-5.6c0,0-1-4,3.2-5.1
		c0,0-0.9-2.4,0.6-4.6c-0.4,0.2-0.7,0.4-1.1,0.7c-2.1-3.4-5.8-8.5-8.1-6.7c0,0-2.5,0.8-0.7,3.5c0,0-3.9-1.7-5.7,4.5
		c0,0-2.5,6.9,5.7,9c0.8,0.2,2,0.2,3.2,0.4c-0.1,1.1-0.1,2.2,0.1,3.2c0.5,2,6.1,2.9,8,2.1c0.5-0.2,1-0.5,1.5-1L37.6,104.5z
		 M40.9,111.5c0.1-0.2,0.3-0.3,0.5-0.3c0.2,0.1,0.3,0.2,0.3,0.4l0.4,0.1c0.1-0.1,0.2-0.2,0.3-0.1c0.1,0,0.2,0.1,0.2,0.3l1.2,0.3
		c0-0.1,0.1-0.1,0.2-0.2l0-0.9c-0.1,0-0.2-0.1-0.2-0.2c0-0.1,0.1-0.2,0.2-0.2l0-0.5c-0.2,0-0.3-0.2-0.3-0.3c0-0.2,0.1-0.4,0.4-0.4
		c0.2,0,0.4,0.2,0.4,0.4c0,0.2-0.1,0.3-0.3,0.4l0,0.5c0.1,0,0.2,0.1,0.2,0.2c0,0.1-0.1,0.2-0.2,0.2l0,0.8c0,0,0.1,0,0.1,0
		c0.1,0,0.1,0.1,0.1,0.1l0.4-0.2c0,0,0-0.1,0-0.2c0-0.1,0.2-0.2,0.3-0.1c0.1,0,0.1,0,0.1,0.1l0.3-0.2c0-0.1,0-0.2,0-0.2
		c0.1-0.2,0.3-0.3,0.5-0.2c0.2,0.1,0.3,0.3,0.2,0.5c-0.1,0.2-0.3,0.3-0.5,0.2c-0.1,0-0.2-0.1-0.2-0.1l-0.3,0.2c0,0,0,0.1,0,0.1
		c-0.1,0.1-0.2,0.2-0.3,0.1c0,0-0.1,0-0.1,0l-0.4,0.2c0,0,0,0.1,0,0.1l1,0.3c0-0.1,0.2-0.2,0.3-0.1c0.1,0,0.2,0.2,0.2,0.3l0.4,0.1
		c0.1-0.2,0.3-0.3,0.5-0.2c0.2,0.1,0.3,0.3,0.3,0.5c0,0.2-0.3,0.3-0.5,0.3c-0.2-0.1-0.3-0.2-0.3-0.4l-0.4-0.1
		c-0.1,0.1-0.2,0.2-0.3,0.1c-0.1,0-0.2-0.2-0.2-0.3l-1-0.3c0,0.1-0.1,0.2-0.2,0.2l0,1.1c0.1,0,0.2,0.1,0.2,0.3
		c0,0.1-0.1,0.3-0.2,0.3l0,0.4c0.2,0,0.3,0.2,0.3,0.3c0,0.2-0.2,0.4-0.4,0.4c-0.2,0-0.4-0.2-0.4-0.4c0-0.2,0.1-0.3,0.3-0.4l0-0.4
		c-0.1,0-0.2-0.1-0.2-0.3c0-0.1,0.1-0.3,0.2-0.3l0-1.1c0,0-0.1,0-0.1-0.1l-0.6,0.3c0,0,0,0.1,0,0.1c0,0.1-0.2,0.2-0.3,0.1
		c0,0-0.1,0-0.1,0l-0.2,0.1c0,0.1,0,0.1,0,0.2c-0.1,0.2-0.3,0.3-0.5,0.2c-0.2-0.1-0.3-0.3-0.2-0.5c0.1-0.2,0.3-0.3,0.5-0.2
		c0.1,0,0.2,0.1,0.2,0.2l0.2-0.1c0-0.1,0-0.1,0-0.2c0-0.1,0.2-0.2,0.3-0.1c0,0,0.1,0,0.1,0.1l0.6-0.3c0,0,0-0.1,0-0.1l-1.2-0.3
		c0,0.1-0.2,0.2-0.3,0.1c-0.1,0-0.2-0.1-0.2-0.3l-0.4-0.1c-0.1,0.2-0.3,0.3-0.5,0.2C41,111.9,40.9,111.7,40.9,111.5z M38,120.5
		c0.1,0,0.2,0.1,0.2,0.3l1.2,0.3c0-0.1,0.1-0.1,0.2-0.2l0-0.9c-0.1,0-0.2-0.1-0.2-0.2c0-0.1,0.1-0.2,0.2-0.2l0-0.5
		c-0.2,0-0.3-0.2-0.3-0.4c0-0.2,0.1-0.4,0.4-0.4c0.2,0,0.4,0.2,0.4,0.4c0,0.2-0.1,0.3-0.3,0.4l0,0.5c0.1,0,0.2,0.1,0.2,0.2
		c0,0.1-0.1,0.2-0.2,0.2l0,0.8c0,0,0,0,0.1,0c0.1,0,0.1,0.1,0.2,0.1l0.4-0.2c0,0,0-0.1,0-0.2c0-0.1,0.2-0.2,0.3-0.1
		c0.1,0,0.1,0,0.1,0.1l0.3-0.2c0-0.1,0-0.2,0-0.2c0.1-0.2,0.3-0.3,0.5-0.2c0.2,0.1,0.3,0.3,0.2,0.5c-0.1,0.2-0.3,0.3-0.5,0.2
		c-0.1,0-0.2-0.1-0.2-0.1l-0.3,0.2c0,0,0,0.1,0,0.1c-0.1,0.1-0.2,0.2-0.3,0.1c0,0-0.1,0-0.1,0l-0.4,0.2c0,0,0,0.1,0,0.1l1,0.3
		c0-0.1,0.2-0.2,0.3-0.1c0.1,0,0.2,0.2,0.2,0.3l0.4,0.1c0.1-0.2,0.3-0.3,0.5-0.2c0.2,0.1,0.3,0.3,0.3,0.5c-0.1,0.2-0.3,0.3-0.5,0.3
		c-0.2,0-0.3-0.2-0.3-0.4l-0.4-0.1c-0.1,0.1-0.2,0.2-0.3,0.1c-0.1,0-0.2-0.2-0.2-0.3l-1-0.3c0,0.1-0.1,0.2-0.2,0.2l0,1.1
		c0.1,0,0.2,0.1,0.2,0.3c0,0.1-0.1,0.3-0.2,0.3l0,0.4c0.2,0,0.3,0.2,0.3,0.3c0,0.2-0.2,0.4-0.4,0.4c-0.2,0-0.4-0.2-0.4-0.4
		c0-0.2,0.1-0.3,0.3-0.4l0-0.4c-0.1,0-0.2-0.1-0.2-0.3c0-0.1,0.1-0.3,0.2-0.3l0-1.1c0,0-0.1,0-0.1-0.1l-0.6,0.3c0,0,0,0.1,0,0.1
		c0,0.1-0.2,0.2-0.3,0.1c0,0-0.1,0-0.1,0l-0.2,0.1c0,0.1,0,0.1,0,0.2c-0.1,0.2-0.3,0.3-0.5,0.2c-0.2-0.1-0.3-0.3-0.2-0.5
		c0.1-0.2,0.3-0.3,0.5-0.2c0.1,0,0.2,0.1,0.2,0.2l0.2-0.1c0-0.1,0-0.1,0-0.2c0-0.1,0.2-0.2,0.3-0.1c0,0,0.1,0,0.1,0.1l0.6-0.3
		c0,0,0-0.1,0-0.1l-1.2-0.3c0,0.1-0.2,0.2-0.3,0.1c-0.1,0-0.2-0.1-0.2-0.3l-0.4-0.1c-0.1,0.2-0.3,0.3-0.5,0.2
		c-0.2-0.1-0.3-0.3-0.3-0.5c0.1-0.2,0.3-0.3,0.5-0.3c0.2,0.1,0.3,0.2,0.3,0.4l0.4,0.1C37.8,120.6,37.9,120.5,38,120.5z M20.8,81.4
		c0,0,0.3-0.8,1.1-0.5c-0.5-0.8,0.1-1.3,0.1-1.3c2-1.1,2.1,3,2.2,2.9c0,0,0,0,0,0C24.2,82.5,20.4,83.7,20.8,81.4z M18.9,92.1
		c0-0.1-3.5,2-3.6-0.5c0,0,0.1-0.8,1-0.8c-0.6-0.7-0.1-1.3-0.1-1.3C18,88.1,18.9,92.1,18.9,92.1C18.9,92.1,18.9,92.1,18.9,92.1z
		 M17.8,86c0,0,0.2-0.8,1.1-0.6c-0.6-0.7,0-1.3,0-1.3c1.9-1.3,2.4,2.8,2.4,2.7c0,0,0,0,0,0C21.3,86.8,17.6,88.4,17.8,86z"/>
	<circle fill="#231F20" cx="39.2" cy="156.8" r="2.8"/>
	<path fill="#231F20" d="M30.7,125.9c-0.6,2.1-1.3,4.1-1.9,6.1c3.2,1.2,7.9,2.4,14.8,3.4c-0.6-2.1-1.1-4.7-0.7-6.8
		C37.6,127.7,33.7,126.8,30.7,125.9z"/>
	<path fill="#231F20" d="M67,154.6c-1.5,0.2-2.5,1.7-2.3,3.2c0.2,1.5,1.7,2.5,3.2,2.3c1.5-0.2,2.5-1.7,2.3-3.2
		C69.9,155.4,68.5,154.4,67,154.6z"/>
	<path fill="#231F20" d="M87.4,149.7c-0.8-3.3-2.2-8.5-4.5-15.4c-5.6,2.1-14.1,4.5-24.1,5c-0.1,1.4-0.7,2.7-1.5,3.6
		c0.9,1.1,1.5,2.6,1.5,4.2c0,2.8-1.7,5.1-3.9,5.7c-1.2-0.3-2.2-0.4-3.2-0.3c-1.8-0.9-3-3-3-5.4c0-1.7,0.6-3.1,1.5-4.2
		c-0.9-1-1.4-2.3-1.5-3.8c-1-0.1-1.9-0.2-2.9-0.3c-7.4-0.9-13.4-2.2-18-3.8c-1.4,4.9-2.7,9.4-3.6,13.1c-1.9,0.3-3.2,0.9-3.2,0.9
		c-3.5,7.7,2.5,9.4,2.5,9.4c9,6,34.4,5.6,34.4,5.6c17.1,1.7,29.7-6.3,29.7-6.3c4.4-2.7,0.4-7.9,0.4-7.9
		C87.9,149.9,87.7,149.8,87.4,149.7z M30.1,156.1c-0.9,1.9-3.2,2.7-5.1,1.8c-1.9-0.9-2.7-3.2-1.8-5.1c0.9-1.9,3.2-2.7,5.1-1.8
		C30.2,151.9,31,154.2,30.1,156.1z M33.8,145.4c-0.2,0-0.4-0.2-0.4-0.4c0-0.2,0.1-0.3,0.3-0.4l0-0.4c-0.1,0-0.2-0.1-0.2-0.3
		c0-0.1,0.1-0.3,0.2-0.3l0-1.1c0,0-0.1,0-0.1-0.1l-0.6,0.3c0,0,0,0.1,0,0.1c0,0.1-0.2,0.2-0.3,0.1c0,0-0.1,0-0.1,0l-0.2,0.1
		c0,0.1,0,0.1,0,0.2c-0.1,0.2-0.3,0.3-0.5,0.2c-0.2-0.1-0.3-0.3-0.2-0.5c0.1-0.2,0.3-0.3,0.5-0.2c0.1,0,0.2,0.1,0.2,0.2l0.2-0.1
		c0-0.1,0-0.1,0-0.2c0-0.1,0.2-0.2,0.3-0.1c0,0,0.1,0,0.1,0.1l0.6-0.3c0,0,0-0.1,0-0.1l-1.2-0.3c0,0.1-0.2,0.2-0.3,0.1
		c-0.1,0-0.2-0.1-0.2-0.3l-0.4-0.1c-0.1,0.2-0.3,0.3-0.5,0.2c-0.2-0.1-0.3-0.3-0.3-0.5c0.1-0.2,0.3-0.3,0.5-0.3
		c0.2,0.1,0.3,0.2,0.3,0.4l0.4,0.1c0-0.1,0.2-0.2,0.3-0.1c0.1,0,0.2,0.1,0.2,0.3l1.2,0.3c0-0.1,0.1-0.1,0.2-0.2l0-0.9
		c-0.1,0-0.2-0.1-0.2-0.2c0-0.1,0.1-0.2,0.2-0.2l0-0.5c-0.2,0-0.3-0.2-0.3-0.3c0-0.2,0.1-0.4,0.4-0.4c0.2,0,0.4,0.2,0.4,0.4
		c0,0.2-0.1,0.3-0.3,0.4l0,0.5c0.1,0,0.2,0.1,0.2,0.2c0,0.1-0.1,0.2-0.2,0.2l0,0.8c0,0,0.1,0,0.1,0c0.1,0,0.1,0.1,0.1,0.1l0.4-0.2
		c0,0,0-0.1,0-0.2c0-0.1,0.2-0.2,0.3-0.1c0,0,0.1,0,0.1,0.1l0.3-0.2c0-0.1,0-0.2,0-0.2c0.1-0.2,0.3-0.3,0.5-0.2
		c0.2,0.1,0.3,0.3,0.2,0.5c-0.1,0.2-0.3,0.3-0.5,0.2c-0.1,0-0.2-0.1-0.2-0.1l-0.3,0.2c0,0,0,0.1,0,0.1c-0.1,0.1-0.2,0.2-0.3,0.1
		c0,0-0.1,0-0.1,0l-0.4,0.2c0,0,0,0.1,0,0.1l1,0.3c0-0.1,0.2-0.2,0.3-0.1c0.1,0,0.2,0.2,0.2,0.3l0.4,0.1c0.1-0.2,0.3-0.3,0.5-0.2
		c0.2,0.1,0.3,0.3,0.3,0.5c-0.1,0.2-0.3,0.3-0.5,0.3c-0.2,0-0.3-0.2-0.3-0.4l-0.4-0.1c0,0.1-0.2,0.2-0.3,0.1c-0.1,0-0.2-0.2-0.2-0.3
		l-1-0.3c0,0.1-0.1,0.2-0.2,0.2l0,1.1c0.1,0,0.2,0.1,0.2,0.3c0,0.1-0.1,0.3-0.2,0.3l0,0.4c0.2,0,0.3,0.2,0.3,0.3
		C34.2,145.2,34,145.3,33.8,145.4z M39.5,161.1c-2.1,0.3-4.1-1.1-4.4-3.2c-0.3-2.1,1.1-4.1,3.2-4.4c2.1-0.3,4.1,1.1,4.4,3.2
		C43,158.8,41.6,160.8,39.5,161.1z M45.3,147.9c0,0.2-0.3,0.3-0.5,0.3c-0.2-0.1-0.3-0.2-0.3-0.4l-0.4-0.1c-0.1,0.1-0.2,0.2-0.3,0.1
		c-0.1,0-0.2-0.2-0.2-0.3l-1-0.3c0,0.1-0.1,0.2-0.2,0.2l0,1.1c0.1,0,0.2,0.1,0.2,0.3c0,0.1-0.1,0.3-0.2,0.3l0,0.4
		c0.2,0,0.3,0.2,0.3,0.3c0,0.2-0.2,0.4-0.4,0.4c-0.2,0-0.4-0.2-0.4-0.4c0-0.2,0.1-0.3,0.3-0.4l0-0.4c-0.1,0-0.2-0.1-0.2-0.3
		c0-0.1,0.1-0.3,0.2-0.3l0-1.1c0,0-0.1,0-0.1-0.1l-0.6,0.3c0,0,0,0.1,0,0.1c0,0.1-0.2,0.2-0.3,0.1c0,0-0.1,0-0.1,0l-0.2,0.1
		c0,0.1,0,0.1,0,0.2c-0.1,0.2-0.3,0.3-0.5,0.2c-0.2-0.1-0.3-0.3-0.2-0.5c0.1-0.2,0.3-0.3,0.5-0.2c0.1,0,0.2,0.1,0.2,0.2l0.2-0.1
		c0-0.1,0-0.1,0-0.2c0-0.1,0.2-0.2,0.3-0.1c0,0,0.1,0,0.1,0.1l0.6-0.3c0,0,0-0.1,0-0.1l-1.2-0.3c0,0.1-0.2,0.2-0.3,0.1
		c-0.1,0-0.2-0.1-0.2-0.3l-0.4-0.1c-0.1,0.2-0.3,0.3-0.5,0.2c-0.2-0.1-0.3-0.3-0.3-0.5c0.1-0.2,0.3-0.3,0.5-0.3
		c0.2,0.1,0.3,0.2,0.3,0.4l0.4,0.1c0.1-0.1,0.2-0.2,0.3-0.1c0.1,0,0.2,0.1,0.2,0.3l1.2,0.3c0-0.1,0.1-0.1,0.2-0.2l0-0.9
		c-0.1,0-0.2-0.1-0.2-0.2c0-0.1,0.1-0.2,0.2-0.2l0-0.5c-0.2,0-0.3-0.2-0.3-0.3c0-0.2,0.1-0.4,0.4-0.4c0.2,0,0.4,0.2,0.4,0.4
		c0,0.2-0.1,0.3-0.3,0.4l0,0.5c0.1,0,0.2,0.1,0.2,0.2c0,0.1-0.1,0.2-0.2,0.2l0,0.8c0,0,0,0,0.1,0c0.1,0,0.1,0.1,0.2,0.1l0.4-0.2
		c0,0,0-0.1,0-0.2c0-0.1,0.2-0.2,0.3-0.1c0.1,0,0.1,0,0.1,0.1l0.3-0.2c0-0.1,0-0.2,0-0.2c0.1-0.2,0.3-0.3,0.5-0.2
		c0.2,0.1,0.3,0.3,0.2,0.5c-0.1,0.2-0.3,0.3-0.5,0.2c-0.1,0-0.2-0.1-0.2-0.1l-0.3,0.2c0,0,0,0.1,0,0.1c-0.1,0.1-0.2,0.2-0.3,0.1
		c0,0-0.1,0-0.1,0l-0.4,0.2c0,0,0,0.1,0,0.1l1,0.3c0-0.1,0.2-0.2,0.3-0.1c0.1,0,0.2,0.2,0.2,0.3l0.4,0.1c0.1-0.2,0.3-0.3,0.5-0.2
		C45.3,147.5,45.4,147.7,45.3,147.9z M57.1,160.6c-0.9,1.9-3.2,2.7-5.1,1.8c-1.9-0.9-2.7-3.2-1.8-5.1c0.9-1.9,3.2-2.7,5.1-1.8
		C57.2,156.3,58,158.6,57.1,160.6z M77.4,140.6c0.1-0.2,0.3-0.3,0.5-0.3c0.2,0.1,0.3,0.2,0.3,0.4l0.4,0.1c0.1-0.1,0.2-0.2,0.3-0.1
		c0.1,0,0.2,0.1,0.2,0.3l1.2,0.3c0-0.1,0.1-0.1,0.2-0.2l0-0.9c-0.1,0-0.2-0.1-0.2-0.2c0-0.1,0.1-0.2,0.2-0.2l0-0.5
		c-0.2,0-0.3-0.2-0.3-0.3c0-0.2,0.1-0.4,0.4-0.4c0.2,0,0.4,0.2,0.4,0.4c0,0.2-0.1,0.3-0.3,0.4l0,0.5c0.1,0,0.2,0.1,0.2,0.2
		c0,0.1-0.1,0.2-0.2,0.2l0,0.8c0,0,0.1,0,0.1,0c0.1,0,0.1,0.1,0.1,0.1l0.4-0.2c0,0,0-0.1,0-0.2c0-0.1,0.2-0.2,0.3-0.1
		c0.1,0,0.1,0,0.1,0.1l0.3-0.2c0-0.1,0-0.2,0-0.2c0.1-0.2,0.3-0.3,0.5-0.2c0.2,0.1,0.3,0.3,0.2,0.5c-0.1,0.2-0.3,0.3-0.5,0.2
		c-0.1,0-0.2-0.1-0.2-0.1l-0.3,0.2c0,0,0,0.1,0,0.1c-0.1,0.1-0.2,0.2-0.3,0.1c0,0-0.1,0-0.1,0l-0.4,0.2c0,0,0,0.1,0,0.1l1,0.3
		c0-0.1,0.2-0.2,0.3-0.1c0.1,0,0.2,0.2,0.2,0.3l0.4,0.1c0.1-0.2,0.3-0.3,0.5-0.2c0.2,0.1,0.3,0.3,0.3,0.5c-0.1,0.2-0.3,0.3-0.5,0.3
		c-0.2-0.1-0.3-0.2-0.3-0.4l-0.4-0.1c0,0.1-0.2,0.2-0.3,0.2c-0.1,0-0.2-0.2-0.2-0.3l-1-0.3c0,0.1-0.1,0.2-0.2,0.2l0,1.1
		c0.1,0,0.2,0.1,0.2,0.3c0,0.1-0.1,0.3-0.2,0.3l0,0.4c0.2,0,0.3,0.2,0.3,0.3c0,0.2-0.2,0.4-0.4,0.4c-0.2,0-0.4-0.2-0.4-0.4
		c0-0.2,0.1-0.3,0.3-0.4l0-0.4c-0.1,0-0.2-0.1-0.2-0.3c0-0.1,0.1-0.3,0.2-0.3l0-1.1c0,0-0.1,0-0.1-0.1l-0.6,0.3c0,0,0,0.1,0,0.1
		c0,0.1-0.2,0.2-0.3,0.1c0,0-0.1,0-0.1,0l-0.2,0.1c0,0.1,0,0.1,0,0.2c-0.1,0.2-0.3,0.3-0.5,0.2c-0.2-0.1-0.3-0.3-0.2-0.5
		c0.1-0.2,0.3-0.3,0.5-0.2c0.1,0,0.2,0.1,0.2,0.2l0.2-0.1c0-0.1,0-0.1,0-0.2c0-0.1,0.2-0.2,0.3-0.1c0,0,0.1,0,0.1,0.1l0.6-0.3
		c0,0,0-0.1,0-0.1l-1.2-0.3c0,0.1-0.2,0.2-0.3,0.1c-0.1,0-0.2-0.1-0.2-0.3l-0.4-0.1c-0.1,0.2-0.3,0.3-0.5,0.2
		C77.5,141,77.4,140.8,77.4,140.6z M67.7,161.7c-2.1,0.3-4.1-1.1-4.4-3.2c-0.3-2.1,1.1-4.1,3.2-4.4c2.1-0.3,4.1,1.1,4.4,3.2
		C71.2,159.4,69.8,161.3,67.7,161.7z M75.2,141.8c0,0.2-0.3,0.3-0.5,0.3c-0.2,0-0.3-0.2-0.3-0.4l-0.4-0.1c-0.1,0.1-0.2,0.2-0.3,0.2
		c-0.1,0-0.2-0.2-0.2-0.3l-1-0.3c0,0.1-0.1,0.2-0.2,0.2l0,1.1c0.1,0,0.2,0.1,0.2,0.3c0,0.1-0.1,0.3-0.2,0.3l0,0.4
		c0.2,0,0.3,0.2,0.3,0.3c0,0.2-0.2,0.4-0.4,0.4c-0.2,0-0.4-0.2-0.4-0.4c0-0.2,0.1-0.3,0.3-0.4l0-0.4c-0.1,0-0.3-0.1-0.3-0.3
		c0-0.1,0.1-0.3,0.2-0.3l0-1.1c0,0-0.1,0-0.1-0.1l-0.6,0.3c0,0,0,0.1,0,0.1c0,0.1-0.2,0.2-0.3,0.1c0,0-0.1,0-0.1,0l-0.2,0.1
		c0,0.1,0,0.1,0,0.2c-0.1,0.2-0.3,0.3-0.5,0.2c-0.2-0.1-0.3-0.3-0.2-0.5c0.1-0.2,0.3-0.3,0.5-0.2c0.1,0,0.2,0.1,0.2,0.2l0.2-0.1
		c0-0.1,0-0.1,0-0.2c0-0.1,0.2-0.2,0.3-0.1c0,0,0.1,0,0.1,0.1l0.6-0.3c0,0,0-0.1,0-0.1l-1.2-0.3c0,0.1-0.2,0.2-0.3,0.1
		c-0.1,0-0.2-0.1-0.2-0.3l-0.4-0.1c-0.1,0.2-0.3,0.3-0.5,0.2c-0.2-0.1-0.3-0.3-0.3-0.5c0.1-0.2,0.3-0.3,0.5-0.3
		c0.2,0.1,0.3,0.2,0.3,0.4l0.4,0.1c0.1-0.1,0.2-0.2,0.3-0.1c0.1,0,0.2,0.1,0.2,0.3l1.2,0.3c0-0.1,0.1-0.1,0.2-0.2l0-0.9
		c-0.1,0-0.2-0.1-0.2-0.2c0-0.1,0.1-0.2,0.2-0.2l0-0.5c-0.2,0-0.3-0.2-0.3-0.3c0-0.2,0.1-0.4,0.4-0.4c0.2,0,0.4,0.2,0.4,0.4
		c0,0.2-0.1,0.3-0.3,0.4l0,0.5c0.1,0,0.2,0.1,0.2,0.2c0,0.1-0.1,0.2-0.2,0.2l0,0.8c0,0,0.1,0,0.1,0c0.1,0,0.1,0.1,0.2,0.1l0.4-0.2
		c0,0,0-0.1,0-0.2c0-0.1,0.2-0.2,0.3-0.1c0,0,0.1,0,0.1,0.1l0.3-0.2c0-0.1,0-0.2,0-0.2c0.1-0.2,0.3-0.3,0.5-0.2
		c0.2,0.1,0.3,0.3,0.2,0.5c-0.1,0.2-0.3,0.3-0.5,0.2c-0.1,0-0.2-0.1-0.2-0.1l-0.3,0.2c0,0,0,0.1,0,0.1c-0.1,0.1-0.2,0.2-0.3,0.1
		c0,0-0.1,0-0.1,0l-0.4,0.2c0,0,0,0.1,0,0.1l1,0.3c0-0.1,0.2-0.2,0.3-0.1c0.1,0,0.2,0.2,0.2,0.3l0.4,0.1c0.1-0.2,0.3-0.3,0.5-0.2
		C75.2,141.4,75.3,141.6,75.2,141.8z M83.7,157.6c-1.3,1.7-3.7,2-5.4,0.8c-1.7-1.3-2-3.7-0.8-5.4c1.3-1.7,3.7-2,5.4-0.8
		C84.6,153.5,85,155.9,83.7,157.6z"/>
	<path fill="#231F20" d="M81.9,131.2c-0.6-1.9-1.3-3.9-2.1-6c-3.9,1.3-8.6,2.6-14,3.4l0.1,0.2l0,0.4c0.1,0.7,0.4,3.4,0.2,6.2
		C72.4,134.4,77.8,132.8,81.9,131.2z"/>
	<path fill="#231F20" d="M42,12l1.2,0l-0.8,1.6c-0.1,0.3,0,0.6,0.3,0.8c0.3,0.1,0.6,0,0.8-0.3l1-2c0,0.2,0.1,0.3,0.2,0.5l-1,2
		c-0.1,0.3,0,0.6,0.3,0.8c0.3,0.1,0.6,0,0.8-0.3l0.6-1.2c0,0.1,0.1,0.1,0.1,0.2l0.1,1.2c0,0.3,0.3,0.6,0.6,0.6
		c0.3,0,0.6-0.3,0.6-0.6l0-0.1c0.2,0.1,0.3,0.2,0.5,0.3l-0.6,1.2c-0.1,0.3,0,0.6,0.3,0.8c0.3,0.1,0.6,0,0.8-0.3l0.7-1.4
		c0,0,0.1,0,0.1,0c0.1,0,0.2,0,0.2,0l0,0.8c0,0.3,0.3,0.6,0.6,0.6c0.2,0,0.3-0.1,0.5-0.3l0,0.7c0,0.3,0.3,0.6,0.6,0.6
		c0.3,0,0.6-0.3,0.6-0.6l0-1.1c0.1,0.2,0.3,0.3,0.5,0.3c0.3,0,0.6-0.3,0.6-0.6l0-0.5l1.3,0.5c0.3,0.1,0.6,0,0.8-0.3
		c0.1-0.3,0-0.6-0.3-0.8l-1-0.4c0.2-0.2,0.4-0.4,0.6-0.6l0.8,0.6c0.3,0.2,0.6,0.2,0.8-0.1c0.2-0.3,0.2-0.6-0.1-0.8l-0.8-0.7
		c0-0.1,0.1-0.2,0.2-0.3l0.8,0.3c0.3,0.1,0.6,0,0.8-0.3c0.1-0.3,0-0.6-0.3-0.8l-0.9-0.4c0-0.1,0-0.3,0-0.4l1.5,0.5
		c0.3,0.1,0.6-0.1,0.7-0.4c0.1-0.3-0.1-0.6-0.4-0.7l-1.9-0.6c0-0.1,0-0.2,0-0.3l1.4,0.6c0.3,0.1,0.6,0,0.8-0.3
		c0.1-0.3,0-0.6-0.3-0.8l-1.5-0.6l0.7-1.5c0.1-0.3,0-0.6-0.3-0.8c-0.3-0.1-0.6,0-0.8,0.3l-0.6,1.1l-0.1-0.5l1.1-1.2
		c0.2-0.2,0.2-0.6,0-0.8C54.6,5,54.2,5,54,5.3l-0.5,0.5l-0.1-0.5c0-0.3-0.3-0.5-0.6-0.5L53,4.3c0.1-0.3-0.1-0.6-0.4-0.7
		c-0.3-0.1-0.6,0.1-0.7,0.4l-0.1,0.2c0-0.1-0.1-0.1-0.2-0.1c-0.1,0-0.1,0-0.2,0l0.1-0.1c0.2-0.2,0.2-0.6,0-0.8
		c-0.2-0.2-0.6-0.2-0.8,0l-1.4,1.5L49,3.8c-0.1-0.3-0.4-0.5-0.8-0.3c-0.1,0-0.1,0.1-0.2,0.1l-0.1-1c0-0.3-0.3-0.5-0.7-0.5
		c-0.3,0-0.5,0.3-0.5,0.7L47,4.3l-0.5-1.2c-0.1-0.3-0.4-0.5-0.8-0.3c-0.3,0.1-0.5,0.4-0.4,0.8l0.8,2.2l-1.8-0.7
		c-0.3-0.1-0.6,0-0.7,0.3l-0.2-0.1c-0.3-0.2-0.6-0.1-0.8,0.1c-0.2,0.3-0.1,0.6,0.1,0.8l0.8,0.6c-0.1,0-0.2,0.1-0.3,0.2
		c-0.2,0.3-0.1,0.6,0.1,0.8l0.8,0.6l-0.6,0l-1.3-1c-0.3-0.2-0.6-0.1-0.8,0.1c-0.2,0.3-0.1,0.6,0.1,0.8l0.4,0.3C42.1,8.7,42,8.8,42,9
		c0,0.2,0.2,0.4,0.4,0.5C42.1,9.6,42,9.8,42,10c0,0.3,0.3,0.6,0.6,0.6l1.2,0l-0.1,0.2l-1.8,0.1c-0.3,0-0.6,0.3-0.6,0.6
		C41.4,11.7,41.6,12,42,12z M52.3,6.1l0.1,0.8l0,0c-0.1-0.1-0.2-0.2-0.3-0.2L52.3,6.1z M50.5,4.8l-0.5,1c-0.1,0-0.2,0-0.3,0
		l-0.1-0.2L50.5,4.8z M48.4,5.4L48.4,5.4L48.4,5.4L48.4,5.4z M46.2,6.9c0,0-0.1,0.1-0.1,0.1l-0.4-0.3L46.2,6.9z"/>
	<path fill="#231F20" d="M68.7,60.9c0.6-4.1,1.2-8.2,1.6-12.4c0,0-0.1,0-0.1,0c-0.1-1.1-2.3-2.2-5.1-2.6c-1.5-0.2-2.9-0.1-3.8,0.2
		c-0.9-0.4-2.2-0.7-3.7-0.8c-1.5-0.1-2.8,0.1-3.8,0.4c-1-0.4-2.3-0.6-3.7-0.6c-1.5,0-2.8,0.3-3.7,0.7c-1-0.3-2.3-0.5-3.7-0.4
		c-1.5,0.1-2.7,0.4-3.6,0.9c-1-0.3-2.3-0.3-3.6-0.1c0,0-3.7,2.2-0.4,14.6C45.9,59.1,57.2,59.1,68.7,60.9z M63.1,59.5
		c-0.3,0.2-0.7,0.2-0.9,0c-0.3-0.2-0.3-0.6,0-0.9c0.2-0.2,0.7-0.2,0.9,0C63.3,58.9,63.3,59.3,63.1,59.5z M65.5,59.5
		c-0.3,0.2-0.7,0.2-0.9,0c-0.3-0.3-0.3-0.7,0-0.9c0.3-0.2,0.7-0.2,0.9,0C65.8,58.9,65.8,59.3,65.5,59.5z M68.4,49.5
		c0.3-0.2,0.8-0.1,1,0.2c0.2,0.3,0.2,0.7-0.1,0.9c-0.3,0.2-0.8,0.1-1-0.2C68.1,50.1,68.1,49.7,68.4,49.5z M67.8,60.1
		c-0.3,0.2-0.7,0.2-0.9,0c-0.3-0.3-0.3-0.7,0-0.9c0.3-0.2,0.7-0.2,0.9,0.1C68.1,59.5,68,59.9,67.8,60.1z M66,48.5
		c0.3-0.2,0.8-0.1,1,0.2c0.3,0.3,0.2,0.7-0.1,0.9c-0.3,0.2-0.8,0.1-1-0.2C65.7,49.1,65.7,48.7,66,48.5z M63.4,48.2
		c0.3-0.2,0.8-0.1,1,0.1c0.3,0.3,0.2,0.7-0.1,0.9c-0.3,0.2-0.7,0.1-1-0.1C63.1,48.8,63.1,48.4,63.4,48.2z M61.1,48.3
		c0.3-0.2,0.7-0.2,1,0.1c0.3,0.3,0.2,0.7-0.1,0.9c-0.3,0.2-0.7,0.2-1-0.1C60.8,48.9,60.8,48.5,61.1,48.3z M60.4,51.7
		c0.1-0.6,0.6-1.1,1.4-1.4c0,0,0.1,0,0.2,0c0.6,0,1.3,0.3,1.7,1.4c0.1,0.2,0.1,0.5,0.2,0.7c0.1-0.2,0.2-0.4,0.3-0.6
		c0.4-0.9,1.1-1.1,1.6-1.1c0.3,0,0.5,0.1,0.5,0.1c0.8,0.5,1.2,1,1.3,1.7c0.1,2-3.3,4.4-3.9,4.9C63.2,56.7,60.1,53.7,60.4,51.7z
		 M61,58.4c0.3,0.2,0.3,0.6,0,0.9c-0.2,0.2-0.7,0.3-0.9,0c-0.3-0.2-0.3-0.6,0-0.9C60.3,58.1,60.7,58.1,61,58.4z M58.7,47.9
		c0.2-0.3,0.7-0.3,1,0c0.3,0.2,0.3,0.6,0.1,0.9c-0.2,0.2-0.7,0.3-1,0C58.5,48.5,58.5,48.1,58.7,47.9z M57.8,57.9
		c0.2-0.3,0.7-0.3,0.9,0c0.3,0.2,0.3,0.6,0.1,0.9c-0.2,0.2-0.7,0.3-0.9,0C57.6,58.5,57.5,58.1,57.8,57.9z M47.6,59
		c-0.2,0.3-0.6,0.3-0.9,0.1c-0.3-0.2-0.4-0.6-0.1-0.9c0.2-0.3,0.6-0.3,0.9-0.1C47.7,58.3,47.8,58.7,47.6,59z M49.7,58.9
		c-0.2,0.3-0.6,0.3-0.9,0.1c-0.3-0.2-0.3-0.6-0.1-0.9c0.2-0.3,0.6-0.3,0.9-0.1C49.9,58.2,49.9,58.6,49.7,58.9z M52.1,58.5
		c-0.2,0.3-0.6,0.3-0.9,0.1c-0.3-0.2-0.3-0.6-0.1-0.9c0.2-0.3,0.6-0.3,0.9-0.1C52.2,57.9,52.3,58.3,52.1,58.5z M54.3,58.9
		c-0.2,0.3-0.6,0.3-0.9,0.1c-0.3-0.2-0.3-0.6-0.1-0.9c0.2-0.3,0.6-0.3,0.9-0.1C54.5,58.2,54.6,58.6,54.3,58.9z M56.2,47.4
		c0.2-0.3,0.7-0.3,1,0c0.3,0.2,0.4,0.6,0.1,0.9c-0.2,0.3-0.7,0.3-1,0C56,48.1,56,47.7,56.2,47.4z M55.4,58.1
		c0.2-0.3,0.6-0.3,0.9-0.1c0.3,0.2,0.3,0.6,0.1,0.9c-0.2,0.3-0.6,0.3-0.9,0.1C55.2,58.8,55.1,58.4,55.4,58.1z M53.6,47.7
		c0.2-0.3,0.7-0.3,1-0.1c0.3,0.2,0.4,0.6,0.1,0.9c-0.2,0.3-0.7,0.3-1,0.1C53.5,48.3,53.4,47.9,53.6,47.7z M51.3,47.5
		c0.2-0.3,0.7-0.3,1-0.1c0.3,0.2,0.4,0.6,0.1,0.9c-0.2,0.3-0.7,0.3-1,0.1C51.1,48.1,51,47.7,51.3,47.5z M48.8,47.1
		c0.2-0.3,0.7-0.3,1-0.1c0.3,0.2,0.4,0.6,0.1,0.9c-0.2,0.3-0.7,0.3-1,0.1C48.6,47.8,48.5,47.4,48.8,47.1z M48.9,49.6
		C48.9,49.6,48.9,49.6,48.9,49.6c0,0,0.1,0,0.2,0c0.6-0.1,1.3,0.1,1.8,1.2c0.1,0.2,0.2,0.4,0.3,0.7c0.1-0.2,0.1-0.4,0.2-0.7
		c0.3-1,0.9-1.2,1.4-1.2c0.3,0,0.5,0,0.5,0c0.8,0.4,1.3,0.9,1.4,1.5c0.3,2-2.8,4.7-3.4,5.3c-0.7-0.6-3.9-3.3-3.8-5.2
		C47.7,50.5,48.1,50,48.9,49.6z M46.2,47.5c0.2-0.3,0.7-0.3,1-0.1c0.3,0.2,0.4,0.6,0.2,0.9c-0.2,0.3-0.7,0.3-1,0.1
		C46,48.1,46,47.8,46.2,47.5z M45.3,58.7c-0.2,0.3-0.6,0.3-0.9,0.1c-0.3-0.2-0.4-0.6-0.2-0.9c0.2-0.3,0.6-0.3,0.9-0.1
		C45.4,58.1,45.5,58.5,45.3,58.7z M44.1,47.8c0.2-0.3,0.6-0.4,1-0.2c0.3,0.2,0.4,0.6,0.2,0.9c-0.2,0.3-0.6,0.4-1,0.2
		C44,48.5,43.9,48.1,44.1,47.8z M38.6,59.3c-0.2,0.3-0.6,0.4-0.9,0.2c-0.3-0.2-0.4-0.6-0.2-0.9c0.2-0.3,0.6-0.4,0.9-0.2
		C38.7,58.6,38.8,59,38.6,59.3z M40.9,59.4c-0.2,0.3-0.6,0.4-0.9,0.2c-0.3-0.2-0.4-0.6-0.2-0.9c0.2-0.3,0.6-0.4,0.9-0.2
		C41,58.7,41.1,59.1,40.9,59.4z M43,59.2c-0.2,0.3-0.6,0.4-0.9,0.2c-0.3-0.2-0.4-0.6-0.2-0.9c0.2-0.3,0.6-0.4,0.9-0.2
		C43.1,58.5,43.2,58.9,43,59.2z M41.6,47.7c0.2-0.3,0.6-0.4,1-0.2c0.3,0.2,0.4,0.6,0.2,0.9c-0.2,0.3-0.6,0.4-1,0.2
		C41.5,48.4,41.4,48,41.6,47.7z M39.1,48.3c0.2-0.3,0.6-0.4,1-0.2c0.3,0.2,0.4,0.6,0.2,0.9c-0.2,0.3-0.6,0.4-0.9,0.2
		C39,49,38.9,48.6,39.1,48.3z M36.9,48.3c0.2-0.3,0.6-0.4,0.9-0.3c0.4,0.2,0.5,0.5,0.3,0.8c-0.2,0.3-0.6,0.4-0.9,0.3
		C36.9,49,36.7,48.6,36.9,48.3z M37.5,51C37.5,51,37.5,51,37.5,51c0,0,0.1,0,0.2-0.1c0.5-0.1,1.3,0,1.9,1c0.1,0.2,0.2,0.4,0.3,0.6
		c0-0.2,0.1-0.5,0.1-0.7c0.2-1,0.8-1.3,1.3-1.4c0.3,0,0.5,0,0.5,0c0.8,0.3,1.4,0.7,1.5,1.4c0.5,1.9-2.2,5-2.8,5.6
		c-0.7-0.5-4.1-2.8-4.2-4.8C36.4,52,36.8,51.5,37.5,51z M36.2,59.1c0.3,0.2,0.4,0.6,0.2,0.9c-0.2,0.3-0.6,0.4-0.9,0.2
		c-0.3-0.2-0.4-0.6-0.2-0.9C35.5,59,35.9,58.9,36.2,59.1z M34.8,49.4c-0.3-0.1-0.5-0.5-0.4-0.8c0.2-0.3,0.6-0.5,0.9-0.3
		c0.3,0.1,0.5,0.5,0.4,0.8C35.5,49.4,35.1,49.5,34.8,49.4z"/>
	<path fill="#231F20" d="M82.1,152.4c-1.2-0.9-2.9-0.7-3.9,0.6c-0.9,1.2-0.7,2.9,0.6,3.9c1.2,0.9,2.9,0.7,3.9-0.6
		C83.6,155.1,83.3,153.4,82.1,152.4z"/>
	<circle fill="#231F20" cx="46.9" cy="185.5" r="0.5"/>
	<path fill="#231F20" d="M37.2,182.2l1,4.5c0,0,6.5-1.4,9.4,0.2l1.1-5C48.7,182,41.4,179.1,37.2,182.2z M39.7,185.7
		c-0.2,0.3-0.5,0.4-0.8,0.3c-0.3-0.2-0.4-0.5-0.3-0.8c0.2-0.3,0.5-0.4,0.8-0.3C39.7,185,39.9,185.4,39.7,185.7z M40,183.6l-0.3,0.5
		c0,0-0.1,0-0.1,0l-0.3-0.5c0,0-0.1-0.1-0.2-0.1l-0.6-0.1c-0.1,0-0.1-0.1,0-0.1l0.4-0.5c0,0,0.1-0.1,0.1-0.2l-0.1-0.6
		c0-0.1,0-0.1,0.1-0.1l0.6,0.2c0.1,0,0.1,0,0.2,0l0.6-0.2c0.1,0,0.1,0,0.1,0.1l-0.1,0.6c0,0.1,0,0.1,0.1,0.2l0.4,0.5
		c0,0,0,0.1,0,0.1l-0.6,0.1C40.1,183.5,40,183.6,40,183.6z M41.1,185.8c-0.3,0.1-0.7-0.1-0.8-0.4c-0.1-0.3,0.1-0.7,0.4-0.8
		c0.3-0.1,0.7,0.1,0.8,0.4C41.7,185.3,41.5,185.7,41.1,185.8z M43.2,185.7c-0.3,0.1-0.7-0.1-0.8-0.4c-0.1-0.3,0.1-0.7,0.4-0.8
		c0.3-0.1,0.7,0.1,0.8,0.4C43.7,185.3,43.5,185.6,43.2,185.7z M47,186.2c-0.3,0.1-0.7-0.1-0.8-0.4c-0.1-0.3,0.1-0.7,0.4-0.8
		c0.3-0.1,0.7,0.1,0.8,0.4C47.6,185.8,47.4,186.1,47,186.2z M45.6,183.5L46,183c0,0,0.1-0.1,0.1-0.2l-0.1-0.6c0-0.1,0-0.1,0.1-0.1
		l0.6,0.2c0.1,0,0.1,0,0.2,0l0.6-0.2c0.1,0,0.1,0,0.1,0.1l-0.1,0.6c0,0.1,0,0.1,0.1,0.2l0.4,0.5c0,0,0,0.1,0,0.1l-0.6,0.1
		c-0.1,0-0.1,0.1-0.2,0.1l-0.3,0.5c0,0-0.1,0-0.1,0l-0.3-0.5c0,0-0.1-0.1-0.2-0.1L45.6,183.5C45.5,183.6,45.5,183.5,45.6,183.5z
		 M44.9,184.5c0.3-0.1,0.7,0.1,0.8,0.4c0.1,0.3-0.1,0.7-0.4,0.8c-0.3,0.1-0.7-0.1-0.8-0.4C44.3,185,44.5,184.6,44.9,184.5z
		 M43.1,181.9l0.6-0.2c0.1,0,0.1,0,0.1,0.1l-0.1,0.6c0,0.1,0,0.1,0.1,0.2l0.4,0.5c0,0,0,0.1,0,0.1l-0.6,0.1c-0.1,0-0.1,0.1-0.2,0.1
		l-0.3,0.5c0,0-0.1,0-0.1,0l-0.3-0.5c0,0-0.1-0.1-0.2-0.1l-0.6-0.1c-0.1,0-0.1-0.1,0-0.1l0.4-0.5c0,0,0.1-0.1,0.1-0.2l-0.1-0.6
		c0-0.1,0-0.1,0.1-0.1l0.6,0.2C43,181.9,43.1,181.9,43.1,181.9z"/>
	<path fill="#231F20" d="M35.4,202.2c-2.8,2.2-7,5.9-5.1,5.9c0,0,2.2,0.8,8.3-3C37.8,203.3,36.6,202.5,35.4,202.2z M33.7,204
		c0.2,0,0.4,0.2,0.4,0.5c0,0.2-0.2,0.5-0.4,0.5c-0.2,0-0.5-0.2-0.5-0.5C33.3,204.2,33.5,204,33.7,204z M33.8,206.8
		c-0.3,0-0.5-0.2-0.5-0.5c0-0.2,0.2-0.5,0.5-0.5c0.2,0,0.4,0.2,0.4,0.5C34.2,206.6,34,206.8,33.8,206.8z M35.4,203.8
		c-0.2,0-0.5-0.2-0.5-0.5c0-0.2,0.2-0.5,0.5-0.5c0.2,0,0.5,0.2,0.5,0.5C35.9,203.6,35.6,203.8,35.4,203.8z M36.2,205.4
		c-0.3,0-0.5-0.2-0.5-0.4c0-0.2,0.2-0.5,0.5-0.5c0.2,0,0.4,0.2,0.4,0.5C36.7,205.2,36.5,205.4,36.2,205.4z"/>
	<path fill="#231F20" d="M38.9,202.9c0,0-0.2-1.7-2-1.5c0,0,0-0.2-0.1-0.4c-0.2,0.1-0.3,0.3-0.5,0.4c0.1,0.3,0.1,0.6,0.1,0.6
		c1.8-0.2,2,1.5,2,1.5c0.6,0.2,1,0.5,1.3,0.8c0.2-0.1,0.4-0.3,0.6-0.4C40.1,203.5,39.7,203.1,38.9,202.9z"/>
	<path fill="#231F20" d="M47.4,190.6l-1.4-0.8c-0.1-0.1-0.8-0.4-2.6-0.4c-1.8,0-3.7,0.3-4.3,0.4c0.1,3.8-0.1,8-1,9.8
		c1.2,0.7,2.3,1.8,3.2,3.5c0.5-0.4,1-0.7,1.5-1.1c0,0,1.1-1.2,1.6-0.2c0.5,0.9,2.1,0.7,2.8-1.1c0.3-0.8,0.1-2,0.1-3.4
		C47.4,195.5,47.4,193,47.4,190.6z"/>
	<circle fill="#231F20" cx="45.1" cy="185.1" r="0.5"/>
	<circle fill="#231F20" cx="41" cy="185.1" r="0.5"/>
	<circle fill="#231F20" cx="43" cy="185" r="0.5"/>
	<path fill="#231F20" d="M42,189.1c1.2-1.2,2.8,0,2.8,0c1-0.7,1.9-0.7,2.5-0.4v-1c-0.7-0.4-1.6-0.5-2.7,0.3c0,0-1.6-1.2-2.8,0
		c0,0-1.1-1.2-2.8-0.6c0,0.3,0,0.7,0,1.1C40.9,187.8,42,189.1,42,189.1z"/>
	<circle fill="#231F20" cx="39.2" cy="185.4" r="0.5"/>
	<path fill="#231F20" d="M41.8,167.1c0,0.7-0.1,1.4-0.1,2.2l6.2,0.2c-0.1-0.7-0.1-1.5-0.2-2.2L41.8,167.1z"/>
	<path fill="#231F20" d="M41.4,172.9l6.5,0.2c0-0.7,0-1.5,0-2.2l-6.3-0.2C41.5,171.3,41.5,172.1,41.4,172.9z"/>
	<path fill="#231F20" d="M40.9,179.8l6.5,0.2c0.1-0.7,0.2-1.4,0.3-2.2l-6.6-0.2C41,178.3,41,179.1,40.9,179.8z"/>
	<path fill="#231F20" d="M41.2,176.4l6.6,0.2c0.1-0.7,0.1-1.5,0.1-2.2l-6.6-0.2C41.3,174.8,41.2,175.6,41.2,176.4z"/>
	<circle fill="#231F20" cx="60.2" cy="185.5" r="0.5"/>
	<path fill="#231F20" d="M68.9,186.7l1-4.5c-4.1-3.1-11.4-0.3-11.4-0.3l1.1,5C62.4,185.4,68.9,186.7,68.9,186.7z M68.2,186
		c-0.3,0.2-0.7,0-0.8-0.3c-0.2-0.3,0-0.7,0.3-0.8c0.3-0.2,0.7,0,0.8,0.3C68.7,185.5,68.5,185.8,68.2,186z M66.3,183.3l0.4-0.5
		c0,0,0.1-0.1,0.1-0.2l-0.1-0.6c0-0.1,0-0.1,0.1-0.1l0.6,0.2c0.1,0,0.1,0,0.2,0l0.6-0.2c0.1,0,0.1,0,0.1,0.1l-0.1,0.6
		c0,0.1,0,0.1,0.1,0.2l0.4,0.5c0,0,0,0.1,0,0.1l-0.6,0.1c-0.1,0-0.1,0.1-0.2,0.1l-0.3,0.5c0,0-0.1,0-0.1,0l-0.3-0.5
		c0,0-0.1-0.1-0.2-0.1l-0.6-0.1C66.3,183.4,66.3,183.3,66.3,183.3z M65.5,185c0.1-0.3,0.4-0.5,0.8-0.4c0.3,0.1,0.5,0.4,0.4,0.8
		c-0.1,0.3-0.4,0.5-0.8,0.4C65.6,185.7,65.4,185.3,65.5,185z M60.8,185.8c-0.1,0.3-0.4,0.5-0.8,0.4c-0.3-0.1-0.5-0.4-0.4-0.8
		c0.1-0.3,0.4-0.5,0.8-0.4C60.7,185.1,60.9,185.4,60.8,185.8z M60.8,183.8l-0.3,0.5c0,0-0.1,0-0.1,0l-0.3-0.5c0,0-0.1-0.1-0.2-0.1
		l-0.6-0.1c-0.1,0-0.1-0.1,0-0.1l0.4-0.5c0,0,0.1-0.1,0.1-0.2l-0.1-0.6c0-0.1,0-0.1,0.1-0.1l0.6,0.2c0.1,0,0.1,0,0.2,0l0.6-0.2
		c0.1,0,0.1,0,0.1,0.1l-0.1,0.6c0,0.1,0,0.1,0.1,0.2l0.4,0.5c0,0,0,0.1,0,0.1l-0.6,0.1C60.9,183.7,60.8,183.8,60.8,183.8z
		 M62.7,185.3c-0.1,0.3-0.4,0.5-0.8,0.4c-0.3-0.1-0.5-0.4-0.4-0.8c0.1-0.3,0.4-0.5,0.8-0.4C62.6,184.6,62.8,185,62.7,185.3z
		 M62.9,182.9l0.4-0.5c0,0,0.1-0.1,0.1-0.2l-0.1-0.6c0-0.1,0-0.1,0.1-0.1l0.6,0.2c0.1,0,0.1,0,0.2,0l0.6-0.2c0.1,0,0.1,0,0.1,0.1
		l-0.1,0.6c0,0.1,0,0.1,0.1,0.2l0.4,0.5c0,0,0,0.1,0,0.1l-0.6,0.1c-0.1,0-0.1,0.1-0.2,0.1l-0.3,0.5c0,0-0.1,0-0.1,0l-0.3-0.5
		c0,0-0.1-0.1-0.2-0.1l-0.6-0.1C62.9,183,62.9,183,62.9,182.9z M63.5,184.9c0.1-0.3,0.4-0.5,0.8-0.4c0.3,0.1,0.5,0.4,0.4,0.8
		c-0.1,0.3-0.4,0.5-0.8,0.4C63.6,185.6,63.4,185.3,63.5,184.9z"/>
	<path fill="#231F20" d="M71.7,202.2c-1.2,0.3-2.4,1.1-3.1,3c6,3.7,8.3,3,8.3,3C78.7,208.1,74.4,204.4,71.7,202.2z M70.9,205.4
		c-0.2,0-0.4-0.2-0.4-0.4c0-0.2,0.2-0.5,0.4-0.5c0.3,0,0.5,0.2,0.5,0.5C71.3,205.2,71.1,205.4,70.9,205.4z M71.7,203.8
		c-0.2,0-0.5-0.2-0.5-0.5c0-0.2,0.2-0.5,0.5-0.5c0.2,0,0.5,0.2,0.5,0.5C72.2,203.6,72,203.8,71.7,203.8z M73.3,206.8
		c-0.2,0-0.5-0.2-0.5-0.5c0-0.2,0.2-0.5,0.5-0.5c0.2,0,0.4,0.2,0.4,0.5C73.8,206.6,73.6,206.8,73.3,206.8z M73.4,204.9
		c-0.2,0-0.4-0.2-0.4-0.5c0-0.2,0.2-0.5,0.4-0.5c0.2,0,0.5,0.2,0.5,0.5C73.8,204.7,73.6,204.9,73.4,204.9z"/>
	<path fill="#231F20" d="M70.6,202c0,0,0-0.3,0.1-0.6c-0.2-0.2-0.4-0.3-0.5-0.4c0,0.2,0,0.4,0,0.4c-1.8-0.2-2,1.5-2,1.5
		c-0.7,0.2-1.2,0.6-1.4,1c0.2,0.1,0.4,0.3,0.6,0.4c0.3-0.3,0.7-0.6,1.3-0.8C68.6,203.6,68.9,201.8,70.6,202z"/>
	<path fill="#231F20" d="M69,199.7c-0.9-1.8-1.1-6.1-1-9.8c-0.6-0.1-2.5-0.4-4.3-0.4c-1.8,0-2.5,0.3-2.6,0.4l-1.4,0.8
		c0,2.4,0,4.9,0,6.9c0,1.4-0.2,2.6,0.1,3.4c0.7,1.9,2.4,2,2.8,1.1c0.5-1,1.6,0.2,1.6,0.2c0.5,0.4,1,0.8,1.5,1.1
		C66.6,201.5,67.8,200.4,69,199.7z"/>
	<circle fill="#231F20" cx="62" cy="185.1" r="0.5"/>
	<circle fill="#231F20" cx="66.1" cy="185.1" r="0.5"/>
	<path fill="#231F20" d="M64.5,185.1c0.1-0.2-0.1-0.5-0.3-0.6c-0.2-0.1-0.5,0.1-0.6,0.3c-0.1,0.2,0.1,0.5,0.3,0.6
		C64.2,185.5,64.4,185.4,64.5,185.1z"/>
	<path fill="#231F20" d="M65.2,188c-1.2-1.2-2.8,0-2.8,0c-1.1-0.7-2-0.7-2.7-0.3v1c0.7-0.3,1.5-0.3,2.5,0.4c0,0,1.6-1.2,2.8,0
		c0,0,1.1-1.2,2.9-0.5c0-0.4,0-0.7,0-1.1C66.3,186.8,65.2,188,65.2,188z"/>
	<circle fill="#231F20" cx="67.9" cy="185.4" r="0.5"/>
	<path fill="#231F20" d="M59.5,167.4c-0.1,0.8-0.2,1.5-0.2,2.2l6.2-0.2c0-0.8-0.1-1.6-0.1-2.2L59.5,167.4z"/>
	<path fill="#231F20" d="M59.2,173.1l6.5-0.2c-0.1-0.8-0.1-1.5-0.1-2.2l-6.3,0.2C59.2,171.6,59.2,172.4,59.2,173.1z"/>
	<path fill="#231F20" d="M66.2,179.8c-0.1-0.8-0.1-1.5-0.2-2.2l-6.6,0.2c0.1,0.8,0.2,1.5,0.3,2.2L66.2,179.8z"/>
	<path fill="#231F20" d="M59.2,174.4c0,0.8,0.1,1.5,0.1,2.2l6.6-0.2c-0.1-0.8-0.1-1.5-0.2-2.2L59.2,174.4z"/>
	<path fill="#231F20" d="M65.4,73.2c0,0-4.5-1.6-7.8-1.4c-0.3,0-0.6,0-0.8,0c0,0.3,0.1,0.5,0.1,0.8c0,0.5-0.1,1-0.3,1.5
		c3.4-0.4,8.1,0.2,10.6,2.9c2,2.1,2.5,4,0.9,9.1c-1.2,4-3.9,7-6.7,10c-2.8,3-4.3,4.7-6.1,9.2c-1.7,4.5-2.5,1.7-3.9-0.9
		c-1.4-2.8-4.4-6.7-10.5-17.4c-6.1-10.7,2.5-12.4,2.5-12.4c2-0.6,3.7-1.3,4.6-1.3c-0.1-0.3-0.1-0.5-0.1-0.8c0-0.3,0-0.6,0.1-0.8
		c-3.2,0-7.2,1.4-7.2,1.4c-1.5,0.8-2.7,1.4-3.5,2.2c-2.6,2.6-4.9,7,5.9,19.5c3.1,3.6,7.8,16.6,10.1,16c4.5-1.1,3.7-7.8,11.6-15
		c3.8-3.5,8-12.3,5.4-17.6C69.8,76.8,68.6,74.9,65.4,73.2z"/>
	<path fill="#231F20" d="M45.8,77.4c0,0,6.7,19.1,14.8-0.6C60.6,76.9,53.2,88.4,45.8,77.4z"/>
</g>
</svg>
