<?xml version="1.0" encoding="utf-8"?>
<!-- Generator: Adobe Illustrator 18.1.0, SVG Export Plug-In . SVG Version: 6.00 Build 0)  -->
<!DOCTYPE svg PUBLIC "-//W3C//DTD SVG 1.1//EN" "http://www.w3.org/Graphics/SVG/1.1/DTD/svg11.dtd">
<svg version="1.1" id="Layer_1" xmlns="http://www.w3.org/2000/svg" xmlns:xlink="http://www.w3.org/1999/xlink" x="0px" y="0px"
	 width="110px" height="77.4px" viewBox="0 0 110 77.4" enable-background="new 0 0 110 77.4" xml:space="preserve">
<g>
	<path fill="#231F20" d="M82.9,57.7c-1.2,0.4-2.4,0.7-3.6,1c-0.2,0.5-0.3,1.1-0.5,1.6c0.1,0,0.3-0.1,0.4-0.1
		c1.4-0.3,2.8-0.8,4.1-1.3c2.7-1,5.2-2.3,7.7-3.7c2.4-1.5,4.7-3.1,6.8-5.1c-2.2,1.7-4.7,3.1-7.2,4.4C88.1,55.7,85.6,56.8,82.9,57.7z
		"/>
	<path fill="#231F20" d="M49.7,62.1c-5.6,0.2-11.2,0-16.8-1c5.4,1.7,11.1,2.2,16.8,2.3c4.3,0.1,8.5-0.2,12.8-0.6
		c-0.1-0.5-0.2-1.1-0.3-1.6C58.1,61.6,53.9,61.9,49.7,62.1z"/>
	<path fill="#231F20" d="M39.3,41.7C39.3,41.7,39.2,41.7,39.3,41.7c-0.1,0.1,0,0.1,0,0.1c0.1,0,0.1,0,0.1-0.1
		C39.4,41.7,39.4,41.7,39.3,41.7z"/>
	<path fill="#231F20" d="M37.9,40.1C37.8,40.1,37.8,40.2,37.9,40.1c-0.1,0.1,0,0.2,0.1,0.2c0.1-0.1,0.1-0.1,0.1-0.1
		C38,40.2,38,40.2,37.9,40.1z"/>
	<path fill="#231F20" d="M37.7,26C37.7,26,37.6,26.1,37.7,26c0,0.1,0,0.1,0.1,0.1C37.8,26.1,37.8,26.1,37.7,26
		C37.8,26,37.7,26,37.7,26z"/>
	<path fill="#231F20" d="M38.9,38.8C38.9,38.9,38.9,38.9,38.9,38.8c0,0.1,0,0.1,0,0.1C39,38.9,39,38.9,38.9,38.8
		C38.9,38.8,38.9,38.8,38.9,38.8z"/>
	<polygon fill="#231F20" points="38.7,41.6 38.8,41.6 38.7,41.5 	"/>
	<path fill="#231F20" d="M37.7,38.4C37.6,38.4,37.6,38.4,37.7,38.4c-0.1,0.1,0,0.1,0,0.1c0,0,0.1,0,0.1,0
		C37.7,38.5,37.7,38.5,37.7,38.4C37.8,38.4,37.7,38.4,37.7,38.4z"/>
	<path fill="#231F20" d="M37.4,24.9c-0.1,0.1-0.1,0.1-0.2,0.2c0.1,0,0.1,0,0.2,0c0.1,0,0.1-0.1,0.1-0.2
		C37.6,24.8,37.5,24.9,37.4,24.9z"/>
	<path fill="#231F20" d="M40.6,23.9C40.6,23.9,40.6,23.9,40.6,23.9c0.1-0.2,0.1-0.2,0-0.2c-0.1,0-0.1,0.1-0.1,0.2
		C40.5,24,40.6,24,40.6,23.9z"/>
	<path fill="#231F20" d="M38.9,23.4c0.1,0,0.1,0,0-0.1c0-0.1,0-0.1-0.1-0.1c0,0,0,0,0,0.1c0,0,0,0,0,0.1
		C38.8,23.4,38.9,23.4,38.9,23.4z"/>
	<path fill="#231F20" d="M38.6,24.7C38.6,24.7,38.5,24.7,38.6,24.7L38.6,24.7C38.6,24.8,38.6,24.7,38.6,24.7z"/>
	<path fill="#231F20" d="M41.8,42C41.7,42,41.7,42.1,41.8,42c0,0.1,0,0.2,0.1,0.2C41.9,42.1,41.9,42.1,41.8,42
		C41.8,42,41.8,42,41.8,42z"/>
	<path fill="#231F20" d="M42.3,41.6c-0.1,0-0.1,0-0.1,0.1c0,0,0,0,0.1,0.1c0,0,0,0,0.1,0c0,0,0.1-0.1,0.1-0.1
		C42.4,41.7,42.4,41.6,42.3,41.6z"/>
	<path fill="#231F20" d="M39.9,41.1l0,0.1L39.9,41.1L39.9,41.1C39.9,41.1,39.9,41.1,39.9,41.1z"/>
	<path fill="#231F20" d="M42.6,40.9c-0.1,0-0.1,0-0.1,0.1c0.1,0.1,0.1,0.2,0.2,0.1c0,0,0-0.1,0.1-0.1c0,0,0,0,0-0.1
		C42.7,40.9,42.7,40.9,42.6,40.9z"/>
	<path fill="#231F20" d="M43.3,41c-0.1,0-0.1,0,0,0.1c0,0.1,0,0.1,0.1,0.1c0,0,0,0,0-0.1C43.4,41.1,43.3,41,43.3,41z"/>
	<path fill="#231F20" d="M42.9,39.8c-0.1,0.1-0.2,0.1-0.2,0.3c0,0,0,0.1,0,0.1c0,0,0,0,0.1,0C43,40.1,43,40,43,39.9
		C43,39.8,43,39.8,42.9,39.8z"/>
	<path fill="#231F20" d="M42,40.7l0,0.1c0,0,0.1,0.1,0.1,0.1c0,0,0,0,0.1,0c0,0,0-0.1,0-0.1C42.1,40.7,42,40.7,42,40.7z"/>
	<path fill="#231F20" d="M40.8,41.3c-0.1,0.1-0.1,0.1-0.1,0.1c0,0,0,0.1,0.1,0.1c0.1,0,0.1-0.1,0.1-0.2
		C40.9,41.4,40.9,41.4,40.8,41.3z"/>
	<path fill="#231F20" d="M40.4,40.8c-0.1-0.1-0.1-0.1-0.2,0.1c0,0,0.1,0.1,0.1,0.1c0,0,0.1,0.1,0.1,0.1c0,0,0,0,0-0.1
		C40.6,40.9,40.5,40.8,40.4,40.8z"/>
	<path fill="#231F20" d="M41.4,40.8c0,0,0.1-0.1,0.1-0.1c0,0-0.1,0-0.2,0c-0.1,0-0.1,0,0,0.1C41.2,40.7,41.3,40.8,41.4,40.8z"/>
	<path fill="#231F20" d="M41.5,41.3c-0.1-0.1-0.2-0.1-0.2-0.2l0,0.1c0,0,0.1,0.1,0.1,0.2c0,0.1,0.1,0.1,0.2,0
		C41.6,41.5,41.6,41.4,41.5,41.3z"/>
	<polygon fill="#231F20" points="41.9,22.2 41.9,22.2 41.9,22.2 	"/>
	<path fill="#231F20" d="M45,38.2L45,38.2C45,38.1,45,38.1,45,38.2C45,38.1,45,38.1,45,38.2l0-0.1L45,38.2z"/>
	<polygon fill="#231F20" points="36.3,35.4 36.3,35.4 36.3,35.4 	"/>
	<path fill="#231F20" d="M36.2,32.1c0,0.1-0.1,0.2-0.1,0.3c0,0.1-0.1,0.2-0.1,0.2l0,0c0.1-0.1,0.1-0.2,0.2-0.2
		C36.3,32.3,36.3,32.2,36.2,32.1L36.2,32.1z"/>
	<path fill="#231F20" d="M36.7,37.7L36.7,37.7C36.8,37.6,36.8,37.6,36.7,37.7l0-0.1L36.7,37.7z"/>
	<rect x="36.3" y="36.2" fill="#231F20" width="0" height="0"/>
	<rect x="36.1" y="34.5" fill="#231F20" width="0" height="0"/>
	<path fill="#231F20" d="M36.4,27.4C36.4,27.4,36.4,27.4,36.4,27.4c-0.1,0.1-0.1,0.1-0.1,0.1l0.1,0c0,0,0.1-0.1,0.1-0.1
		C36.5,27.4,36.4,27.4,36.4,27.4z"/>
	<path fill="#231F20" d="M35.7,33.2c0,0.1,0,0.1,0.1,0.2l0,0C35.8,33.4,35.7,33.3,35.7,33.2C35.7,33.3,35.7,33.2,35.7,33.2z"/>
	<path fill="#231F20" d="M35.7,34.5L35.7,34.5C35.7,34.4,35.7,34.4,35.7,34.5L35.7,34.5z"/>
	<path fill="#231F20" d="M36,29.4c0,0,0,0.1,0,0.1c0,0.1,0,0.1,0.1,0.1c0.1-0.1,0.1-0.2,0.1-0.4c0-0.1-0.1-0.2-0.2-0.2
		c-0.1,0-0.2,0-0.3-0.1c0,0.1,0,0.2,0.1,0.2c0.1,0,0.2,0.1,0.2,0.1C36,29.3,36,29.3,36,29.4z"/>
	<path fill="#231F20" d="M36,36.6c-0.1,0-0.1,0.1-0.1,0.1c0,0,0.1,0.1,0.2,0.1c0,0,0,0,0-0.1c0,0,0,0,0-0.1
		C36.1,36.5,36.1,36.5,36,36.6z"/>
	<path fill="#231F20" d="M36,31.3C36,31.3,36,31.3,36,31.3c0.1,0,0.1,0,0.1,0C36,31.1,36,31.2,36,31.3z"/>
	<path fill="#231F20" d="M43.5,40.2C43.5,40.2,43.5,40.2,43.5,40.2L43.5,40.2L43.5,40.2z"/>
	<polygon fill="#231F20" points="45.2,26.6 45.1,26.6 45.1,26.5 45.1,26.6 	"/>
	<path fill="#231F20" d="M43.8,25.4c0,0,0,0,0-0.1c0,0-0.1,0-0.1,0C43.7,25.3,43.7,25.3,43.8,25.4C43.7,25.4,43.7,25.4,43.8,25.4z"
		/>
	<path fill="#231F20" d="M42.8,24C42.8,24,42.8,24,42.8,24c0.1,0,0.2,0,0.2-0.1C42.9,23.8,42.8,23.8,42.8,24
		C42.8,23.9,42.8,24,42.8,24z"/>
	<path fill="#231F20" d="M36.7,36.9c-0.1,0-0.1,0-0.1,0.1c0,0,0,0.1,0.1,0.1c0,0,0.1,0,0.1,0c0.1,0,0.1-0.1,0.1-0.1
		C36.9,36.9,36.8,36.9,36.7,36.9z"/>
	<path fill="#231F20" d="M42,23.9C42,23.9,42.1,23.9,42,23.9c0-0.1,0-0.1,0-0.1c0,0-0.1,0-0.1,0.1C41.9,23.9,42,23.9,42,23.9z"/>
	<rect x="42.6" y="24.3" fill="#231F20" width="0" height="0.1"/>
	<path fill="#231F20" d="M37.1,38.2C37,38.2,37,38.3,37.1,38.2c0,0.1,0,0.1,0,0.1C37.1,38.3,37.2,38.2,37.1,38.2
		C37.1,38.2,37.1,38.2,37.1,38.2z"/>
	<path fill="#231F20" d="M37,32.4C36.9,32.4,36.9,32.4,37,32.4l0,0.1C37,32.5,37,32.5,37,32.4C37,32.4,37,32.4,37,32.4z"/>
	<path fill="#231F20" d="M45.1,37.5c0.1,0,0.1,0,0.1-0.1c0,0-0.1,0-0.1,0C45,37.4,45,37.5,45.1,37.5z"/>
	<path fill="#231F20" d="M45,27.2c0,0,0,0.1,0,0.2c0,0.1,0,0.1,0.1,0.2l0.1,0l0-0.4C45.1,27.1,45,27.1,45,27.2z"/>
	<path fill="#231F20" d="M46.3,31.5c0,0,0-0.1,0-0.2c0-0.1,0-0.2-0.1-0.2c0,0-0.1,0.1-0.1,0.1c0,0,0,0.1,0,0.1c0,0,0,0.1,0.1,0.1
		L46.3,31.5z"/>
	<path fill="#231F20" d="M46.7,36.7L46.7,36.7L46.7,36.7C46.8,36.7,46.7,36.7,46.7,36.7z"/>
	<path fill="#231F20" d="M43.8,39.5C43.8,39.5,43.8,39.5,43.8,39.5C43.8,39.5,43.8,39.5,43.8,39.5C43.9,39.5,43.9,39.5,43.8,39.5
		C43.8,39.3,43.8,39.3,43.8,39.5z"/>
	<path fill="#231F20" d="M46.8,33.1c0,0.1,0,0.1,0,0.2l0,0c0,0,0,0,0,0c0.1,0,0.1-0.1,0.1-0.2C46.8,33.1,46.8,33.1,46.8,33.1z"/>
	<path fill="#231F20" d="M63,27.6L63,27.6L63,27.6C63,27.6,63,27.6,63,27.6z"/>
	<path fill="#231F20" d="M62.7,26.2C62.7,26.2,62.6,26.1,62.7,26.2c-0.1,0-0.1,0-0.1,0.1C62.6,26.3,62.6,26.3,62.7,26.2
		C62.7,26.3,62.7,26.2,62.7,26.2z"/>
	<path fill="#231F20" d="M46.7,32.4c0-0.1-0.1-0.1-0.2-0.1c-0.1,0-0.1,0.1-0.1,0.1c0.1,0.1,0.1,0.2,0.2,0.1
		C46.7,32.5,46.7,32.4,46.7,32.4z"/>
	<path fill="#231F20" d="M35.5,30.6c-0.1,0-0.1,0-0.2,0c0,0-0.1,0-0.1,0c0,0,0,0.1,0,0.2c0.1,0.1,0.1,0.1,0.2,0.1
		c0,0,0.1-0.1,0.2-0.2c0.1-0.1,0.1-0.1,0.1-0.2C35.6,30.6,35.5,30.6,35.5,30.6z"/>
	<path fill="#231F20" d="M46.2,35.1l0,0.1c0,0,0.1,0.1,0.2,0.1c0,0,0.1-0.1,0-0.1C46.3,35.1,46.2,35.1,46.2,35.1z"/>
	<path fill="#231F20" d="M62.5,28.8C62.5,28.8,62.6,28.7,62.5,28.8c0.1-0.1,0.1-0.2,0-0.2C62.4,28.6,62.4,28.7,62.5,28.8
		C62.5,28.8,62.5,28.8,62.5,28.8z"/>
	<path fill="#231F20" d="M46.7,38C46.6,38,46.6,38.1,46.7,38c0,0.1,0,0.1,0,0.1C46.7,38.1,46.7,38.1,46.7,38
		C46.7,38,46.7,38,46.7,38z"/>
	<path fill="#231F20" d="M46.2,28.3c0,0.1-0.1,0.1-0.1,0.2c0,0,0.1,0.1,0.1,0c0.1,0,0.1-0.1,0.1-0.2C46.3,28.2,46.3,28.3,46.2,28.3z
		"/>
	<path fill="#231F20" d="M61.9,26.4l0.1-0.1c0,0,0-0.1-0.1-0.1c0,0,0,0-0.1,0c-0.1,0-0.1,0.1-0.1,0.1c0,0,0,0,0,0.1
		C61.8,26.4,61.9,26.4,61.9,26.4z"/>
	<path fill="#231F20" d="M61.3,25.5c0,0,0.1-0.1,0.2-0.2c-0.1-0.1-0.1-0.1-0.1-0.1C61.3,25.3,61.2,25.3,61.3,25.5
		C61.3,25.4,61.3,25.5,61.3,25.5z"/>
	<path fill="#231F20" d="M61.3,31.6L61.3,31.6C61.4,31.6,61.4,31.6,61.3,31.6l0-0.1L61.3,31.6z"/>
	<path fill="#231F20" d="M60.8,32C60.9,32,60.9,32,60.8,32c0.1-0.1,0-0.1,0-0.1C60.7,31.9,60.7,31.9,60.8,32
		C60.7,32,60.7,32,60.8,32z"/>
	<path fill="#231F20" d="M59.9,23.7C59.9,23.7,59.9,23.7,59.9,23.7l0-0.2C59.8,23.6,59.7,23.7,59.9,23.7
		C59.8,23.7,59.8,23.8,59.9,23.7z"/>
	<path fill="#231F20" d="M60.4,35.3C60.4,35.3,60.4,35.3,60.4,35.3c0-0.1,0-0.1-0.1-0.1C60.3,35.2,60.2,35.2,60.4,35.3
		C60.3,35.3,60.3,35.3,60.4,35.3z"/>
	<path fill="#231F20" d="M46.2,30.3C46.2,30.3,46.2,30.3,46.2,30.3c-0.1,0-0.1,0-0.1,0C46.1,30.4,46.1,30.4,46.2,30.3
		C46.2,30.4,46.2,30.3,46.2,30.3z"/>
	<path fill="#231F20" d="M62.2,30.2c0.1,0,0.1-0.1,0.2-0.1c0.1-0.1,0.1-0.1,0-0.2c-0.1-0.1-0.2-0.1-0.2,0
		C62.1,29.9,62.1,30,62.2,30.2C62.1,30.1,62.1,30.2,62.2,30.2z"/>
	<path fill="#231F20" d="M62,27.7c0,0.1,0.1,0.1,0,0.2c0,0.1,0,0.1,0.1,0.1c0.1,0,0.1-0.1,0-0.1c0,0,0-0.1,0-0.1
		c-0.1-0.1-0.1-0.1-0.1-0.1C62,27.6,62,27.7,62,27.7z"/>
	<path fill="#231F20" d="M61.8,30.9C61.8,30.9,61.8,30.9,61.8,30.9L61.8,30.9L61.8,30.9C61.8,30.9,61.8,30.9,61.8,30.9z"/>
	<path fill="#231F20" d="M61.4,24.6C61.4,24.6,61.5,24.6,61.4,24.6c0.1,0,0.1-0.1,0.1-0.1c0-0.1,0-0.1-0.1-0.1c-0.1,0-0.1,0-0.1,0.1
		C61.3,24.6,61.3,24.6,61.4,24.6z"/>
	<path fill="#231F20" d="M61.8,25.2C61.7,25.2,61.7,25.1,61.8,25.2C61.7,25.1,61.7,25.1,61.8,25.2L61.8,25.2L61.8,25.2L61.8,25.2z"
		/>
	<path fill="#231F20" d="M47.2,31.3c-0.2,0.1-0.2,0.2-0.1,0.3c0,0,0.1-0.1,0.2,0c0.1,0,0.1,0,0.1-0.1C47.4,31.3,47.3,31.3,47.2,31.3
		z"/>
	<path fill="#231F20" d="M44.6,28.6C44.6,28.5,44.6,28.5,44.6,28.6c-0.1,0-0.1,0-0.1,0C44.6,28.6,44.6,28.6,44.6,28.6
		C44.6,28.6,44.6,28.6,44.6,28.6z"/>
	<path fill="#231F20" d="M45.2,38.9c0-0.1,0-0.2-0.1-0.2c-0.1-0.1-0.1-0.1-0.2-0.2c0,0,0,0.1,0,0.2c0.1,0.1,0.1,0.1,0,0.2
		C45,38.9,45.1,39,45.2,38.9z"/>
	<path fill="#231F20" d="M46.2,27.3c0,0,0-0.1,0-0.1c0-0.1,0-0.1-0.1-0.1c0,0-0.1,0.1-0.1,0.1c0,0.1,0,0.1,0,0.1
		C45.9,27.4,46,27.4,46.2,27.3C46.1,27.4,46.2,27.3,46.2,27.3z"/>
	
		<rect x="44.7" y="41" transform="matrix(-7.246293e-02 -0.9974 0.9974 -7.246293e-02 7.0456 88.5726)" fill="#231F20" width="0.1" height="0.1"/>
	<path fill="#231F20" d="M45,25.9C45,25.9,45,25.9,45,25.9c0-0.1,0-0.2,0-0.2c0,0-0.1,0-0.1,0c0,0,0,0,0,0.1c0,0,0,0,0,0
		C44.9,25.9,44.9,26,45,25.9z"/>
	<path fill="#231F20" d="M44.7,39.5c0,0-0.1-0.1-0.1,0c0,0-0.1,0,0,0.1c0,0.1,0,0.1,0.1,0.1C44.6,39.6,44.7,39.6,44.7,39.5z"/>
	<path fill="#231F20" d="M44.3,25.5C44.3,25.5,44.3,25.5,44.3,25.5c0,0.1,0,0.1,0,0.1C44.4,25.6,44.4,25.5,44.3,25.5
		C44.4,25.5,44.3,25.5,44.3,25.5z"/>
	<path fill="#231F20" d="M43.9,32c0-0.2,0-0.5-0.1-0.7c-0.1-0.3-0.1-0.6-0.2-0.9c-0.1-0.3-0.1-0.6-0.1-1c-0.1-0.1-0.1-0.3-0.1-0.4
		c0-0.1-0.1-0.3-0.1-0.4c-0.2-0.3-0.3-0.5-0.4-0.8c-0.1-0.3-0.2-0.6-0.3-0.9c-0.1-0.2-0.2-0.3-0.4-0.4c-0.2-0.1-0.3-0.2-0.4-0.3
		c-0.2-0.2-0.5-0.2-0.7-0.2c-0.2,0.1-0.5,0.1-0.8,0.1c-0.3,0.2-0.6,0.5-0.9,0.8C39.2,27.2,39,27.6,39,28c0,0.2-0.1,0.4-0.2,0.6
		c-0.1,0.2-0.1,0.4-0.1,0.6c0,0.2,0,0.5-0.1,0.7c-0.1,0.2-0.1,0.4,0,0.7c-0.1,0.3-0.2,0.7-0.1,1.1c0.1,0.4,0.1,0.8,0.1,1.2
		c0,0.3,0.1,0.6,0.1,0.9c0.1,0.3,0.1,0.6,0.1,1C39,35,39,35.3,39,35.7c0,0.3,0.1,0.7,0.2,0.9c0.2,0.2,0.3,0.3,0.3,0.5
		c0.1,0.2,0.1,0.4,0.2,0.6c0.2,0.2,0.4,0.4,0.5,0.6c0.2,0.2,0.4,0.4,0.7,0.4c0.1,0,0.2,0,0.3,0c0.1,0,0.2,0,0.3,0.1
		c0.2-0.1,0.4-0.1,0.6-0.2c0.2-0.1,0.4-0.3,0.6-0.5c0-0.3,0.1-0.6,0.3-0.8c0.2-0.2,0.3-0.5,0.3-0.8c0.1-0.2,0.1-0.3,0.2-0.5
		c0-0.2,0.1-0.3,0.2-0.5c-0.1-0.4-0.1-0.7,0-1c0.1-0.3,0.1-0.6,0-1c0.1-0.1,0.1-0.2,0.1-0.4c0-0.1,0-0.3,0-0.4
		C43.9,32.5,43.9,32.2,43.9,32z"/>
	<path fill="#231F20" d="M44,24.8C44,24.7,44,24.7,44,24.8c-0.1-0.1-0.1,0-0.1,0C43.9,24.9,43.9,24.9,44,24.8
		C43.9,24.8,44,24.8,44,24.8C44,24.8,44,24.8,44,24.8z"/>
	<path fill="#231F20" d="M44,41L44,41L44,41C44,41,44,41,44,41C44,41,44,41,44,41z"/>
	<path fill="#231F20" d="M44,40.2c0,0-0.1,0.1,0,0.1c0,0,0,0,0.1,0C44.1,40.3,44.1,40.2,44,40.2C44.1,40.2,44,40.1,44,40.2z"/>
	<path fill="#231F20" d="M44.6,26.6c-0.1,0-0.2,0-0.2,0l0.1,0.1C44.5,26.7,44.5,26.7,44.6,26.6C44.6,26.7,44.6,26.7,44.6,26.6z"/>
	<path fill="#231F20" d="M45.8,33.7L45.8,33.7c-0.1,0-0.1,0-0.1,0c0,0,0.1,0.1,0.1,0.1L45.8,33.7z"/>
	<path fill="#231F20" d="M45.7,37.9c0,0,0,0.1-0.1,0.2c0,0.1,0,0.1,0.1,0.2c0,0,0.1,0,0.1,0c0,0,0,0,0.1,0c0-0.1,0-0.2-0.1-0.4
		C45.7,37.9,45.7,37.9,45.7,37.9z"/>
	<path fill="#231F20" d="M45.6,36.7C45.6,36.7,45.7,36.6,45.6,36.7L45.6,36.7L45.6,36.7L45.6,36.7C45.6,36.7,45.6,36.7,45.6,36.7z"
		/>
	<path fill="#231F20" d="M45.2,39.9c-0.1,0-0.1,0.1-0.1,0.1c0,0,0,0.1,0.1,0.1c0.1-0.1,0.1-0.1,0.1-0.2
		C45.3,39.9,45.3,39.9,45.2,39.9z"/>
	<path fill="#231F20" d="M57.4,24.2c0.1,0,0.1,0,0.2,0c0.1,0,0.1-0.1,0.2-0.1c0.1,0,0.1-0.1,0.2,0c0,0-0.1-0.1-0.3-0.1
		c-0.1,0.1-0.2,0.1-0.3,0.1c-0.1,0-0.2,0-0.2,0C57.3,24.2,57.3,24.2,57.4,24.2z"/>
	<path fill="#231F20" d="M45.8,29.4c0,0-0.1,0.1-0.1,0.1c0,0,0,0.1,0,0.1c0,0,0.1,0.1,0.1,0.1c0.1-0.1,0.2-0.1,0.2-0.2
		C45.9,29.4,45.9,29.4,45.8,29.4z"/>
	<rect x="46.6" y="31.6" fill="#231F20" width="0.1" height="0.1"/>
	<path fill="#231F20" d="M45.3,39.2c-0.1,0.1-0.2,0.1-0.1,0.2c0,0,0.1,0,0.1,0c0.1-0.1,0.1-0.1,0.1-0.2
		C45.4,39.3,45.3,39.2,45.3,39.2z"/>
	<path fill="#231F20" d="M46.7,27.8c0,0,0.1,0,0.1-0.1c0,0-0.1,0-0.1,0C46.6,27.7,46.6,27.7,46.7,27.8
		C46.7,27.8,46.7,27.8,46.7,27.8z"/>
	<path fill="#231F20" d="M46.8,30.4c-0.1,0-0.1,0-0.2,0c0,0,0,0.1,0,0.1C46.8,30.5,46.8,30.4,46.8,30.4z"/>
	<path fill="#231F20" d="M45.9,29c-0.1,0-0.1,0.1-0.1,0.1c0,0,0.1,0.1,0.1,0.1C46,29.1,46,29.1,45.9,29C46,29,46,29,45.9,29z"/>
	<path fill="#231F20" d="M21.2,36.5C21.2,36.6,21.2,36.6,21.2,36.5c-0.1,0-0.1,0-0.2,0.1c0,0,0,0.1,0,0.1c0.1,0,0.1,0,0.2,0
		C21.3,36.7,21.4,36.7,21.2,36.5C21.3,36.5,21.2,36.5,21.2,36.5z"/>
	<path fill="#231F20" d="M21.8,41.1C21.9,41.1,21.9,41.1,21.8,41.1C21.9,41.1,21.9,41.1,21.8,41.1L21.8,41.1
		C21.9,41,21.9,41,21.8,41.1C21.8,41,21.8,41,21.8,41.1z"/>
	<path fill="#231F20" d="M21.7,39.7C21.7,39.7,21.7,39.7,21.7,39.7C21.8,39.7,21.8,39.7,21.7,39.7l0-0.1L21.7,39.7z"/>
	<rect x="21.1" y="27.5" transform="matrix(0.2446 0.9696 -0.9696 0.2446 42.6153 0.2595)" fill="#231F20" width="0" height="0"/>
	<path fill="#231F20" d="M21.1,35.2C21.2,35.2,21.2,35.2,21.1,35.2c0.1,0,0.1,0,0.1-0.1c-0.1-0.1-0.1-0.1-0.1-0.2
		c0-0.1,0-0.2-0.2-0.2c-0.1,0.1-0.1,0.2,0,0.3C21.1,35.1,21.1,35.1,21.1,35.2z"/>
	<path fill="#231F20" d="M21.6,36.1c0.1,0,0.1,0.1,0.1,0.1c0,0.1,0,0.1,0,0.2c0,0,0.1,0.1,0.1,0c-0.1-0.1-0.1-0.2,0-0.3
		c0-0.1,0.1-0.2,0.1-0.3c-0.1-0.1-0.1-0.1-0.2-0.1c-0.1,0-0.1,0.1-0.1,0.1C21.5,36.1,21.6,36.1,21.6,36.1z"/>
	<path fill="#231F20" d="M22.2,26.2C22.2,26.2,22.2,26.1,22.2,26.2L22.2,26.2L22.2,26.2L22.2,26.2z"/>
	<path fill="#231F20" d="M21.9,26.8C21.9,26.8,21.9,26.8,21.9,26.8C21.9,26.8,21.9,26.8,21.9,26.8c0-0.1,0-0.1-0.1-0.1L21.9,26.8
		L21.9,26.8z"/>
	<path fill="#231F20" d="M21.6,35.2C21.7,35.2,21.7,35.2,21.6,35.2c0-0.1-0.1-0.1-0.1-0.1c0,0,0,0.1,0,0.1
		C21.6,35.2,21.6,35.2,21.6,35.2z"/>
	<path fill="#231F20" d="M21.8,38.7C21.7,38.7,21.7,38.7,21.8,38.7c0,0.1,0.1,0.1,0.1,0.1c0,0,0,0,0-0.1
		C21.9,38.7,21.8,38.7,21.8,38.7z"/>
	<path fill="#231F20" d="M20.5,26.6c0,0,0,0,0-0.1c0,0,0,0-0.1,0C20.4,26.5,20.4,26.5,20.5,26.6C20.4,26.6,20.4,26.6,20.5,26.6z"/>
	<path fill="#231F20" d="M20.7,36.4C20.7,36.4,20.6,36.4,20.7,36.4c-0.1,0-0.2,0.1-0.1,0.2c0,0.1,0.1,0.1,0.2,0.1
		C20.8,36.6,20.8,36.5,20.7,36.4C20.7,36.4,20.7,36.4,20.7,36.4z"/>
	<polygon fill="#231F20" points="20.2,37.6 20.2,37.6 20.2,37.6 	"/>
	<path fill="#231F20" d="M20.4,33.8C20.4,33.9,20.4,33.8,20.4,33.8c0-0.2,0-0.2,0.1-0.3c0.1-0.1,0.1-0.2,0.1-0.2c0,0,0-0.1-0.1-0.1
		c0,0,0,0-0.1,0c-0.2,0.1-0.2,0.2-0.1,0.3C20.4,33.6,20.4,33.7,20.4,33.8z"/>
	<path fill="#231F20" d="M20.4,36.8c-0.1,0-0.1,0-0.1,0c0,0,0,0.1,0,0.1c0,0,0,0,0.1,0.1c0,0,0,0,0.1,0
		C20.4,36.9,20.4,36.9,20.4,36.8z"/>
	<path fill="#231F20" d="M20.5,38.2C20.5,38.2,20.5,38.2,20.5,38.2C20.5,38.2,20.5,38.2,20.5,38.2c-0.1,0.1-0.1,0.1-0.1,0.1
		c0,0.1,0,0.1,0.1,0c0,0,0.1-0.1,0-0.1C20.5,38.3,20.5,38.2,20.5,38.2z"/>
	<path fill="#231F20" d="M23.1,26.3c0,0,0.1,0,0.1,0c0-0.1,0-0.1,0-0.1c-0.1,0-0.1,0-0.2,0c-0.1,0-0.1,0.1-0.1,0.1
		C23,26.3,23.1,26.3,23.1,26.3z"/>
	<path fill="#231F20" d="M20.2,31C20.2,30.9,20.2,30.9,20.2,31C20.1,31,20.1,31,20.2,31c-0.1,0.1-0.1,0.1,0,0.1
		C20.3,31.1,20.3,31.1,20.2,31z"/>
	<path fill="#231F20" d="M21,36c0,0,0,0-0.1,0c0,0,0,0.1-0.1,0.1c0,0,0,0.1,0,0.1c0,0,0.1,0,0.1,0C21,36.1,21,36,21,36z"/>
	<path fill="#231F20" d="M20,34c0-0.1-0.1-0.1-0.1-0.2c0,0-0.1-0.1-0.1-0.2c0,0-0.1,0-0.1,0.1c0,0.1,0.1,0.3,0.2,0.4
		C19.9,34.1,20,34.1,20,34z"/>
	<path fill="#231F20" d="M20,34.9C20,34.9,20,35,20,35c0.1,0,0.1,0,0.1-0.1C20.1,34.9,20.1,34.9,20,34.9z"/>
	<path fill="#231F20" d="M20.6,28.2L20.6,28.2c-0.1-0.1-0.1-0.1-0.2-0.1c0,0-0.1,0.1,0,0.1C20.4,28.3,20.5,28.3,20.6,28.2z"/>
	<path fill="#231F20" d="M20.1,34.4c-0.1-0.1-0.1-0.1-0.1,0l0,0.1c0,0,0,0.1,0.1,0.1c0,0,0,0,0.1,0C20.1,34.5,20.1,34.5,20.1,34.4z"
		/>
	<path fill="#231F20" d="M20.4,34.8c-0.1,0-0.1,0.1-0.1,0.1c0,0,0.1,0.1,0.1,0C20.5,35,20.5,34.9,20.4,34.8
		C20.5,34.8,20.5,34.8,20.4,34.8z"/>
	<path fill="#231F20" d="M18.7,32.1C18.7,32.1,18.8,32.1,18.7,32.1C18.8,32.1,18.8,32.1,18.7,32.1C18.8,32.1,18.8,32.1,18.7,32.1
		C18.7,32.1,18.7,32.1,18.7,32.1z"/>
	<path fill="#231F20" d="M18.5,30.7c-0.1,0.1-0.1,0.1,0,0.1c0.1,0,0.2-0.1,0.2-0.1C18.7,30.6,18.6,30.6,18.5,30.7z"/>
	<path fill="#231F20" d="M19.2,32.6c0,0,0-0.1,0-0.1c0,0-0.1,0-0.2,0c0,0.1-0.1,0.1-0.1,0.1c0,0,0,0.1,0,0.1c0.1,0.1,0.1,0.1,0.2,0
		C19.1,32.7,19.2,32.6,19.2,32.6z"/>
	<path fill="#231F20" d="M23.7,26.4c0.1,0,0.2,0,0.2,0c0,0,0.1-0.1,0.1-0.2c0-0.1,0.1-0.1,0.1-0.1c0,0,0.1,0,0.1-0.1
		c0-0.1-0.1-0.1-0.2,0c-0.1,0-0.1,0.1-0.2,0c0,0.1-0.1,0.2-0.2,0.2c-0.1,0-0.2,0-0.2,0.2C23.7,26.4,23.7,26.4,23.7,26.4z"/>
	<path fill="#231F20" d="M18.9,29.8c-0.1,0-0.1,0-0.2,0c-0.1,0-0.1,0.1-0.1,0.1c0,0.1,0.1,0.1,0.2,0.1C19,29.9,19,29.8,18.9,29.8z"
		/>
	<path fill="#231F20" d="M19.3,28.4C19.4,28.3,19.4,28.3,19.3,28.4c0-0.2-0.1-0.2-0.2-0.2c0,0-0.1,0.1,0,0.1
		C19.2,28.4,19.3,28.4,19.3,28.4z"/>
	<path fill="#231F20" d="M18.7,28.5c0.1,0,0.1-0.1,0-0.1c-0.1-0.1-0.2-0.1-0.2-0.1c0,0,0,0.1,0,0.2c0.1,0,0.1,0.1,0.1,0.1
		C18.6,28.5,18.6,28.5,18.7,28.5z"/>
	<path fill="#231F20" d="M19.1,33C19.1,33,19,33.1,19.1,33C19,33.2,19,33.2,19,33.2c0,0,0,0.1,0.1,0.1c0,0,0,0,0.1,0c0,0,0,0,0.1,0
		c0.1-0.1,0.1-0.1,0-0.2C19.2,33.1,19.2,33,19.1,33z"/>
	<path fill="#231F20" d="M17.7,27.7c0,0,0,0.1,0,0.1c0.1,0.1,0.1,0.1,0.1,0c0,0,0.1-0.1,0-0.2C17.8,27.7,17.8,27.7,17.7,27.7z"/>
	<path fill="#231F20" d="M18.6,27L18.6,27c-0.1-0.1-0.1-0.2-0.2-0.2c0,0-0.1,0-0.1,0c0,0,0,0,0,0.1c0,0,0.1,0.1,0.1,0.1
		C18.5,27.1,18.5,27.1,18.6,27z"/>
	<path fill="#231F20" d="M19.1,29.3c0-0.1,0-0.1,0-0.2c-0.1,0-0.1,0-0.2,0c0,0-0.1,0,0,0.1C19,29.3,19,29.3,19.1,29.3z"/>
	<path fill="#231F20" d="M18.5,31.3C18.5,31.3,18.5,31.3,18.5,31.3c0,0.1,0,0.1,0.1,0.1C18.6,31.4,18.6,31.4,18.5,31.3
		C18.6,31.4,18.6,31.4,18.5,31.3C18.6,31.3,18.5,31.3,18.5,31.3z"/>
	<path fill="#231F20" d="M26.7,27.7c0,0,0.1-0.1,0-0.1c-0.1-0.1-0.1,0-0.2,0.1l0.1,0.1C26.6,27.7,26.7,27.7,26.7,27.7z"/>
	<path fill="#231F20" d="M25.9,26.6c0-0.1,0-0.1,0-0.1c0,0-0.1,0-0.1,0c-0.1,0-0.1,0.1,0,0.1C25.8,26.6,25.8,26.7,25.9,26.6z"/>
	<path fill="#231F20" d="M26.4,28.9C26.4,28.9,26.5,28.9,26.4,28.9c0.1,0,0.1-0.1,0.1-0.1c0,0,0,0-0.1-0.1c0,0,0,0,0,0
		C26.4,28.8,26.4,28.8,26.4,28.9C26.4,28.9,26.4,28.9,26.4,28.9z"/>
	<path fill="#231F20" d="M19.4,31.3c-0.1-0.1-0.1-0.2-0.1-0.3c0-0.1,0.1-0.2,0.1-0.3l-0.2-0.3c-0.1,0.1-0.1,0.1,0,0.2
		c0.1,0,0.1,0.1,0.1,0.2c0,0,0,0.1,0,0.1c0,0-0.1,0.1-0.1,0.1c0,0.1,0,0.2,0,0.2c0,0.1,0,0.1,0.1,0.2c0.1,0,0.1,0,0.1,0
		C19.4,31.5,19.5,31.4,19.4,31.3C19.5,31.3,19.5,31.3,19.4,31.3z"/>
	<path fill="#231F20" d="M24.9,26.9L24.9,26.9C24.8,26.8,24.8,26.8,24.9,26.9L24.9,26.9z"/>
	<path fill="#231F20" d="M25.7,33.9C25.6,33.9,25.6,33.9,25.7,33.9C25.7,33.9,25.7,33.9,25.7,33.9C25.6,33.8,25.6,33.8,25.7,33.9
		L25.7,33.9L25.7,33.9z"/>
	<path fill="#231F20" d="M27.3,28.5C27.3,28.4,27.3,28.4,27.3,28.5C27.4,28.4,27.3,28.4,27.3,28.5c0-0.1,0-0.1,0-0.1
		C27.3,28.4,27.3,28.4,27.3,28.5C27.3,28.5,27.3,28.5,27.3,28.5z"/>
	<path fill="#231F20" d="M28.2,29.7l0.1-0.1c-0.1-0.1-0.1-0.1-0.2-0.1c-0.1,0-0.1,0.1-0.1,0.1C28,29.7,28.1,29.7,28.2,29.7z"/>
	<path fill="#231F20" d="M27.1,27.2c0,0,0-0.1,0-0.1c0,0,0-0.1-0.1,0C26.9,27.2,26.9,27.2,27.1,27.2L27.1,27.2z"/>
	<path fill="#231F20" d="M27.3,30.1c0-0.1,0-0.1,0-0.2c0-0.1-0.1-0.1-0.1,0c0,0,0,0.1,0,0.2C27.2,30.1,27.2,30.1,27.3,30.1z"/>
	<polygon fill="#231F20" points="26.4,34.2 26.4,34.2 26.4,34.2 	"/>
	<path fill="#231F20" d="M27.1,32.5C27.1,32.6,27.1,32.6,27.1,32.5C27,32.6,27,32.6,27,32.7c0,0,0.1,0,0.1,0c0.1,0,0.1,0,0.2,0.1
		c0,0.1,0.1,0.1,0.1,0.1c0,0,0,0,0.1,0c0,0,0,0,0.1,0c-0.1-0.1-0.1-0.1-0.2-0.2C27.3,32.5,27.2,32.5,27.1,32.5z"/>
	<path fill="#231F20" d="M25.8,34.3c-0.1,0-0.2,0-0.2,0.1c-0.1,0.1-0.1,0.1-0.2,0.2c0,0.1,0.1,0.2,0.2,0.1c0.1-0.1,0.2-0.1,0.2-0.1
		C25.9,34.5,25.9,34.4,25.8,34.3L25.8,34.3z"/>
	<path fill="#231F20" d="M21.3,37.5c0-0.1-0.1-0.1-0.1-0.1c0,0-0.1-0.1-0.1-0.1c-0.1,0-0.1,0-0.1,0.1c0,0.1,0,0.2,0.2,0.3
		C21.2,37.6,21.2,37.5,21.3,37.5z"/>
	<path fill="#231F20" d="M27.7,33.8L27.7,33.8c0.1,0,0.1-0.1,0.1-0.1l-0.1,0C27.7,33.8,27.7,33.8,27.7,33.8z"/>
	<path fill="#231F20" d="M27.5,31.9c0.1,0,0.1,0,0.1,0L27.5,31.9C27.5,31.8,27.5,31.9,27.5,31.9z"/>
	<path fill="#231F20" d="M26.4,27.7L26.4,27.7C26.3,27.6,26.3,27.6,26.4,27.7c-0.1-0.1-0.1-0.1-0.1-0.1c0,0-0.1,0,0,0.1
		C26.3,27.7,26.3,27.7,26.4,27.7z"/>
	<path fill="#231F20" d="M25.9,26.9c-0.1-0.1-0.1,0-0.1,0.1c0.1,0,0.1,0.1,0.2,0.1c0,0.1,0.1,0.1,0.1,0l0-0.1
		C26.1,27,26,27,25.9,26.9z"/>
	<path fill="#231F20" d="M26.6,32.5c0,0-0.1,0-0.1,0c-0.1,0-0.1,0.1,0,0.1c0,0,0.1,0,0.1,0C26.6,32.6,26.6,32.6,26.6,32.5z"/>
	<path fill="#231F20" d="M28,30.1c0,0-0.1,0-0.1,0c0,0.1-0.1,0.2-0.2,0.2c-0.1,0-0.1,0.1-0.1,0.2c0.1,0,0.1,0.1,0.1,0.1
		c0,0,0,0.1,0.1,0.1c0,0,0-0.1,0-0.1c0,0,0,0,0-0.1c0-0.1,0-0.2,0.1-0.2C27.9,30.2,27.9,30.2,28,30.1z"/>
	<rect x="35.5" y="31.3" fill="#231F20" width="0" height="0.1"/>
	<path fill="#231F20" d="M26.4,33.6c0,0-0.1,0-0.1,0c-0.1,0-0.1,0-0.1,0.1c0,0.1,0.1,0.1,0.2,0.1C26.4,33.7,26.5,33.6,26.4,33.6z"/>
	<path fill="#231F20" d="M26.6,33.4c0.1,0,0.1,0,0.2,0l0-0.1c-0.1-0.1-0.1-0.1-0.2-0.1C26.6,33.3,26.6,33.4,26.6,33.4z"/>
	<path fill="#231F20" d="M36.2,26.2c0,0,0-0.1-0.1-0.1c0,0,0,0.1-0.1,0.1c0,0,0,0,0,0.1c0,0,0.1,0,0.2,0
		C36.3,26.3,36.3,26.2,36.2,26.2z"/>
	<path fill="#231F20" d="M35.8,28.3L35.8,28.3C35.8,28.2,35.8,28.2,35.8,28.3C35.7,28.2,35.7,28.2,35.8,28.3L35.8,28.3z"/>
	<path fill="#231F20" d="M35.5,31.8C35.5,31.8,35.5,31.8,35.5,31.8L35.5,31.8L35.5,31.8C35.5,31.8,35.5,31.8,35.5,31.8z"/>
	<path fill="#231F20" d="M36.7,27C36.7,27,36.7,27,36.7,27C36.7,26.9,36.6,26.9,36.7,27C36.7,27,36.7,27,36.7,27z"/>
	<path fill="#231F20" d="M35.3,29.8c0.1,0,0.1,0,0-0.1c0,0-0.1-0.1-0.1,0C35.2,29.7,35.2,29.8,35.3,29.8
		C35.2,29.9,35.2,29.9,35.3,29.8z"/>
	<path fill="#231F20" d="M36.9,26.5C37,26.5,37,26.5,36.9,26.5c0,0,0-0.1,0-0.1L36.9,26.5L36.9,26.5z"/>
	<path fill="#231F20" d="M28.5,32C28.4,32,28.4,32,28.5,32C28.5,32.1,28.6,32.1,28.5,32L28.5,32C28.6,32,28.5,32,28.5,32z"/>
	<path fill="#231F20" d="M27.9,31.4l0,0.1c0,0,0.1,0.1,0.1,0.1c0.1,0,0.1,0,0.2,0c0,0,0.1-0.1,0-0.1c-0.1,0-0.1-0.1-0.2-0.1
		C28,31.4,27.9,31.4,27.9,31.4z"/>
	<path fill="#231F20" d="M28.4,30.6C28.3,30.6,28.3,30.6,28.4,30.6c-0.1,0-0.1,0.1-0.1,0.1c0,0,0,0,0,0.1c0,0,0,0,0.1,0
		C28.3,30.7,28.4,30.7,28.4,30.6C28.4,30.6,28.4,30.6,28.4,30.6C28.4,30.6,28.4,30.6,28.4,30.6z"/>
	<path fill="#231F20" d="M37.1,26.3C37.1,26.3,37.1,26.2,37.1,26.3l0-0.1L37.1,26.3L37.1,26.3z"/>
	<path fill="#231F20" d="M26.9,34.2l0.1,0c0,0,0,0,0-0.1c0,0,0,0,0-0.1c-0.1,0-0.1,0-0.1,0C26.9,34.1,26.9,34.2,26.9,34.2z"/>
	<path fill="#231F20" d="M22.1,41.2C22.1,41.2,22,41.2,22.1,41.2c0,0-0.1,0-0.1,0c0,0.1,0,0.2,0,0.2c-0.1,0.1-0.1,0.1-0.2,0.2
		c0,0.1,0,0.1,0,0.2c0,0.1,0,0.1,0.1,0.2c0.1,0,0.1,0,0.2-0.1C22,41.8,22,41.7,22,41.6S22.1,41.3,22.1,41.2z"/>
	<path fill="#231F20" d="M21.7,43.6c0,0.1,0,0.2,0,0.2l0.1,0c0-0.1,0.1-0.1,0.1-0.2C21.9,43.5,21.8,43.5,21.7,43.6z"/>
	<path fill="#231F20" d="M22.1,36.6c0,0,0,0.1,0,0.2c0,0,0,0,0,0c0,0,0,0,0,0c0.1,0,0.1-0.1,0.1-0.2C22.2,36.6,22.1,36.6,22.1,36.6z
		"/>
	<path fill="#231F20" d="M22.2,35.8C22.2,35.8,22.2,35.8,22.2,35.8c-0.1,0.1-0.1,0.1,0,0.1C22.3,35.8,22.3,35.8,22.2,35.8
		C22.2,35.8,22.2,35.8,22.2,35.8z"/>
	<path fill="#231F20" d="M21.9,43.1c0,0,0-0.1,0-0.1c-0.1,0-0.2,0-0.3,0.1c0,0.1,0.1,0.2,0.2,0.2C21.8,43.1,21.8,43.1,21.9,43.1z"/>
	<path fill="#231F20" d="M21.6,40.3c0-0.1,0-0.1-0.1-0.1c-0.1,0-0.1,0.1-0.2,0.1c0,0.1,0,0.1,0.1,0.1C21.5,40.5,21.6,40.4,21.6,40.3
		z"/>
	<rect x="21.2" y="41.8" transform="matrix(-0.2658 -0.964 0.964 -0.2658 -13.4589 73.4206)" fill="#231F20" width="0" height="0"/>
	<path fill="#231F20" d="M21.3,39c0,0,0.1-0.1,0-0.1c0,0-0.1-0.1-0.1-0.1c-0.1,0-0.1,0-0.1,0.1C21.2,39,21.2,39,21.3,39z"/>
	<path fill="#231F20" d="M21.2,41.1C21.2,41.2,21.2,41.2,21.2,41.1c0,0.1,0,0.1,0.1,0.1c0,0,0,0,0.1-0.1c0,0,0,0,0-0.1
		C21.3,41.1,21.3,41.1,21.2,41.1z"/>
	
		<rect x="21.4" y="42.6" transform="matrix(-0.228 -0.9737 0.9737 -0.228 -15.1084 73.1731)" fill="#231F20" width="0.1" height="0"/>
	<path fill="#231F20" d="M25.4,26.6c0,0,0,0-0.1,0L25.4,26.6L25.4,26.6C25.5,26.7,25.5,26.7,25.4,26.6z"/>
	<path fill="#231F20" d="M22.1,35.1c0.1-0.1,0.1-0.1,0.2-0.1c0,0,0.1,0,0.2,0c0.1,0,0.1,0,0.1,0c0,0,0,0,0,0c0,0,0,0,0,0
		c-0.1,0-0.2,0-0.2-0.1c0-0.1-0.1-0.1-0.2-0.1C22,34.9,21.9,35,22,35.1C22,35.2,22.1,35.2,22.1,35.1z"/>
	<path fill="#231F20" d="M23.7,35.6c0,0-0.1,0-0.1-0.1v0.1c0.1,0,0.1,0.1,0.1,0.1c0,0.1,0.1,0.1,0.1,0c0,0,0.1-0.1,0-0.2
		C23.7,35.6,23.7,35.6,23.7,35.6z"/>
	<polygon fill="#231F20" points="23.1,35 23,34.9 23,35 	"/>
	<path fill="#231F20" d="M22.4,44.1c-0.1,0.1-0.1,0.1,0,0.2c0,0,0.1,0.1,0.1,0.1c0.1,0.1,0.1,0.1,0.2,0c-0.1-0.1-0.1-0.1-0.1-0.2
		C22.5,44.1,22.5,44.1,22.4,44.1z"/>
	<path fill="#231F20" d="M24.8,29.4c-0.1-0.3-0.3-0.5-0.6-0.6c-0.3,0-0.5,0-0.7-0.1c-0.2-0.1-0.5-0.1-0.7-0.1
		c-0.1,0.2-0.3,0.2-0.4,0.2c-0.2,0-0.3,0-0.4,0.1c-0.2,0.2-0.3,0.5-0.2,0.7c0.1,0.3,0.1,0.5,0.1,0.8c0,0.2,0.1,0.3,0.2,0.4
		c0.1,0.1,0.1,0.3,0.1,0.5c0.1,0.1,0.1,0.3,0.2,0.5c0,0.2,0.1,0.3,0.2,0.5c0.1,0.2,0.2,0.3,0.3,0.4c0.1,0.1,0.3,0.2,0.5,0.2
		c0.2,0,0.3-0.1,0.5-0.2c0.1-0.1,0.3-0.2,0.5-0.2c0.1-0.2,0.2-0.3,0.3-0.4c0.1-0.1,0.2-0.2,0.4-0.4c0.2-0.2,0.3-0.5,0.3-0.7
		c0-0.3,0-0.5,0-0.8C25,30,24.9,29.7,24.8,29.4z"/>
	<path fill="#231F20" d="M24.9,34.4c0,0.1,0,0.1-0.1,0.2c-0.1,0.1-0.1,0.1,0,0.2c0.1-0.1,0.1-0.2,0.1-0.3c0-0.1,0-0.2-0.1-0.2
		C24.9,34.3,24.9,34.3,24.9,34.4z"/>
	<path fill="#231F20" d="M24.1,34.8L24.1,34.8L24.1,34.8C24.2,34.9,24.2,34.9,24.1,34.8C24.2,34.8,24.2,34.8,24.1,34.8z"/>
	<path fill="#231F20" d="M23,43.7c0,0-0.1,0.1-0.1,0.1c0,0,0,0.1,0,0.1c0,0,0.1,0,0.1,0c0.1,0,0.1-0.1,0.1-0.2
		C23.1,43.7,23.1,43.7,23,43.7z"/>
	<path fill="#231F20" d="M22.7,35.5c0,0.1-0.1,0.1-0.1,0.2c0,0,0,0.1,0,0.1c0,0,0.1,0,0.1,0c0.1-0.1,0.1-0.1,0.1-0.2
		C22.8,35.5,22.8,35.5,22.7,35.5z"/>
	<path fill="#231F20" d="M22.8,36.2C22.8,36.3,22.8,36.3,22.8,36.2c0,0.1,0,0.1,0.1,0.1c0-0.1,0-0.1,0-0.1
		C22.9,36.2,22.8,36.2,22.8,36.2z"/>
	<path fill="#231F20" d="M23,34.3L23,34.3C22.9,34.2,22.9,34.2,23,34.3L23,34.3L23,34.3L23,34.3z"/>
	<rect x="37.3" y="29.4" fill="#231F20" width="0" height="0"/>
	<path fill="#231F20" d="M71.5,26.9L71.5,26.9c0-0.1-0.1-0.2-0.1-0.2c-0.1,0.1-0.1,0.1-0.1,0.1C71.4,26.9,71.4,27,71.5,26.9z"/>
	<path fill="#231F20" d="M71.3,33.7C71.3,33.7,71.3,33.7,71.3,33.7c0.1-0.1,0-0.2,0-0.1C71.2,33.5,71.2,33.5,71.3,33.7
		C71.2,33.6,71.2,33.6,71.3,33.7z"/>
	<path fill="#231F20" d="M71.4,33.3c0.1,0,0.1,0,0.2,0c0.1,0,0.1,0,0.1-0.1c0-0.1-0.1-0.1-0.1-0.1c-0.1,0-0.1,0-0.2,0
		c-0.1,0-0.1,0-0.1,0.1C71.3,33.2,71.3,33.2,71.4,33.3z"/>
	<path fill="#231F20" d="M71,26L71,26c0.1,0,0.1-0.1,0.1-0.1c0-0.1-0.1-0.1-0.1,0C71,26,71,26,71,26L71,26z"/>
	<path fill="#231F20" d="M71,28.3c0.1,0,0.2-0.1,0.1-0.2c-0.1-0.1-0.2-0.1-0.3,0C70.9,28.3,70.9,28.3,71,28.3z"/>
	<path fill="#231F20" d="M72,25.6C72.1,25.6,72.1,25.5,72,25.6c0-0.1,0-0.2,0-0.2C71.9,25.5,71.9,25.5,72,25.6z"/>
	<path fill="#231F20" d="M71.5,27.8L71.5,27.8C71.6,27.8,71.6,27.8,71.5,27.8c0.1,0,0.1-0.1,0.1-0.1l-0.1,0L71.5,27.8z"/>
	<path fill="#231F20" d="M71.7,30c0.1,0,0.1-0.1,0.1-0.2c0,0,0-0.1,0-0.1c0,0,0-0.1-0.1-0.1c-0.2,0.1-0.2,0.2-0.2,0.3L71.7,30z"/>
	<path fill="#231F20" d="M70.6,29.8c0,0.1,0.1,0.1,0.1,0.1c0.1,0,0.1,0,0.2,0c0,0,0-0.1,0-0.1c0,0-0.1-0.1-0.1-0.1
		c0-0.1,0-0.2,0.1-0.2c0.1-0.1,0.1-0.1,0.2-0.2l-0.1-0.4c-0.1,0-0.2,0.1-0.1,0.1c0.1,0.1,0.1,0.1,0,0.2c0,0,0,0.1-0.1,0.1
		c-0.1,0-0.1,0-0.2,0.1c0,0.1-0.1,0.1-0.1,0.2C70.5,29.7,70.6,29.8,70.6,29.8z"/>
	<path fill="#231F20" d="M71.7,31c0-0.1-0.1-0.1-0.1-0.1c-0.1,0-0.1,0.1-0.1,0.2c0.1,0.1,0.1,0.1,0.1,0.1
		C71.7,31.1,71.7,31.1,71.7,31z"/>
	<path fill="#231F20" d="M71.5,32.3C71.5,32.3,71.5,32.3,71.5,32.3c0.1,0.1,0.1,0,0.2,0C71.7,32.2,71.6,32.2,71.5,32.3
		C71.5,32.2,71.5,32.2,71.5,32.3z"/>
	<path fill="#231F20" d="M69.9,32.7L69.9,32.7c-0.1,0.1-0.1,0.2,0,0.2c0,0,0,0,0.1,0c0,0,0.1-0.1,0.1-0.1C70,32.8,70,32.7,69.9,32.7
		z"/>
	<path fill="#231F20" d="M69.7,35C69.7,34.9,69.7,34.9,69.7,35c0-0.1-0.1-0.1-0.1-0.1c-0.1,0-0.1,0.1-0.1,0.1c0,0.1,0,0.1,0.1,0.1
		C69.6,35.1,69.7,35,69.7,35z"/>
	<path fill="#231F20" d="M69.7,31.4C69.7,31.4,69.8,31.4,69.7,31.4c0.2,0,0.2-0.1,0.2-0.2c-0.1-0.1-0.1-0.1-0.2,0c0,0,0,0.1-0.1,0.1
		C69.6,31.3,69.6,31.4,69.7,31.4C69.7,31.4,69.7,31.4,69.7,31.4z"/>
	<path fill="#231F20" d="M69.6,35.8c-0.1,0-0.1,0-0.1,0c-0.1,0.1,0,0.2,0,0.4c0,0,0.1,0,0.2,0c0-0.1,0-0.1,0-0.2
		C69.7,35.9,69.7,35.8,69.6,35.8z"/>
	<path fill="#231F20" d="M69.6,37.4L69.6,37.4c0.1,0.2,0.1,0.2,0.2,0.2l0,0C69.7,37.5,69.7,37.4,69.6,37.4z"/>
	<path fill="#231F20" d="M69.9,30.9c0.1,0,0.1,0,0.2-0.1c0.1,0,0.1-0.1,0-0.1c0-0.1-0.1-0.1-0.1-0.1c-0.1,0-0.1,0.1-0.1,0.1
		c0,0-0.1,0-0.1,0.1C69.8,30.9,69.9,30.9,69.9,30.9z"/>
	<path fill="#231F20" d="M70.1,29.5C70.1,29.5,70.1,29.5,70.1,29.5C70.1,29.5,70.1,29.5,70.1,29.5c0-0.1,0-0.1,0-0.1
		C70,29.4,70,29.4,70.1,29.5C70,29.5,70,29.5,70.1,29.5z"/>
	<path fill="#231F20" d="M69.9,32.3c0,0.1,0.1,0.2,0.1,0.2c0.1,0,0.2,0,0.1-0.1c-0.1-0.1-0.1-0.1,0-0.2c0-0.1,0-0.2-0.1-0.2
		C70,32,69.9,32.1,69.9,32.3z"/>
	<path fill="#231F20" d="M72.2,30.4c-0.1,0-0.1,0-0.2,0.1c-0.1,0.1-0.1,0.1,0,0.1c0.1,0,0.1,0,0.2,0.1c0.1,0,0.1-0.1,0.1-0.1
		C72.3,30.4,72.3,30.4,72.2,30.4z"/>
	<polygon fill="#231F20" points="70.6,30.8 70.6,30.7 70.6,30.8 	"/>
	<path fill="#231F20" d="M69.9,30.2C70,30.2,70,30.2,69.9,30.2C69.9,30.1,69.9,30.1,69.9,30.2C69.9,30.2,69.9,30.2,69.9,30.2
		C69.9,30.2,69.9,30.2,69.9,30.2z"/>
	<path fill="#231F20" d="M69.9,34.7c0,0.1,0.1,0.1,0.1,0.1c0.1-0.1,0.1-0.1,0.1-0.2c0,0,0,0-0.1-0.1C70,34.6,70,34.6,69.9,34.7
		C69.9,34.6,69.9,34.6,69.9,34.7z"/>
	<path fill="#231F20" d="M74.8,31.8c0.2,0.1,0.2,0.2,0.2,0.3c-0.1,0.1-0.1,0.2,0,0.3c0,0,0.1,0,0.1,0c0,0,0,0,0.1,0
		c0.1-0.1,0.1-0.2,0.1-0.3c0-0.1-0.1-0.2-0.1-0.3c-0.1,0-0.1,0-0.2-0.1c0-0.1-0.1-0.1-0.2-0.1C74.8,31.7,74.7,31.8,74.8,31.8z"/>
	<path fill="#231F20" d="M75.2,37L75.2,37L75.2,37c0.1-0.1,0-0.1,0-0.1L75.2,37z"/>
	<path fill="#231F20" d="M75.2,32.9C75.2,32.9,75.2,32.9,75.2,32.9C75.2,32.8,75.2,32.8,75.2,32.9c-0.1-0.1-0.2,0-0.2,0
		c0,0,0,0.1,0,0.1c0,0,0,0,0,0c0,0,0,0,0,0C75.2,33,75.2,33,75.2,32.9z"/>
	<path fill="#231F20" d="M74.6,34C74.6,33.9,74.6,33.9,74.6,34c-0.1-0.1-0.1-0.1-0.1-0.1c-0.1,0.1-0.1,0.2,0,0.2
		C74.6,34.1,74.6,34.1,74.6,34z"/>
	<path fill="#231F20" d="M75.2,31c0-0.1-0.1-0.1-0.1,0c0,0-0.1,0.1-0.1,0.1l0,0C75,31.1,75.1,31.1,75.2,31z"/>
	<path fill="#231F20" d="M69.8,33.2C69.8,33.2,69.7,33.3,69.8,33.2c-0.1,0.1,0,0.1,0,0.1l0,0L69.8,33.2
		C69.9,33.3,69.8,33.3,69.8,33.2z"/>
	<path fill="#231F20" d="M75.2,35.4L75.2,35.4c-0.1-0.1-0.2-0.1-0.3-0.1c-0.1,0-0.2,0-0.3,0c0,0.2,0,0.3,0.1,0.2
		c0.1-0.1,0.2,0,0.3,0.1c0,0,0.1-0.1,0.1-0.1C75.2,35.5,75.2,35.5,75.2,35.4z"/>
	<path fill="#231F20" d="M74.1,33.9C74.1,33.9,74.1,33.9,74.1,33.9c-0.1-0.1-0.1,0-0.1,0C74,34,74,34,74.1,33.9
		C74.1,34,74.1,34,74.1,33.9z"/>
	<path fill="#231F20" d="M75.1,35.9C75.1,35.8,75.1,35.8,75.1,35.9c-0.2,0-0.2,0-0.2,0.1C75.1,36,75.1,36,75.1,35.9
		C75.1,35.9,75.2,35.9,75.1,35.9z"/>
	<path fill="#231F20" d="M74.7,37.2C74.7,37.2,74.7,37.2,74.7,37.2c0.1,0.1,0.1,0.1,0.2,0.1c0,0,0-0.1,0-0.1
		C74.8,37.2,74.7,37.2,74.7,37.2z"/>
	<path fill="#231F20" d="M72.1,30.2c0.1-0.1,0.1-0.1,0.2-0.2c0-0.1,0-0.1-0.1-0.2c0,0.1,0,0.1-0.1,0.2C72,30,72,30.1,72.1,30.2z"/>
	<path fill="#231F20" d="M74.7,33.6L74.7,33.6C74.8,33.7,74.8,33.7,74.7,33.6c0.1,0,0.1-0.1,0.1-0.1c0,0-0.1,0-0.1-0.1
		C74.7,33.5,74.7,33.5,74.7,33.6C74.7,33.6,74.7,33.6,74.7,33.6z"/>
	<path fill="#231F20" d="M74.4,35.3c0.1-0.1,0.2-0.1,0.2-0.3c0.1-0.1,0.2-0.1,0.3-0.1c0.1,0,0.2,0.1,0.3,0.1l0-0.1l-0.1-0.1
		c-0.1-0.1-0.1-0.2-0.2-0.1c-0.1,0-0.1,0-0.2,0.1c-0.1,0-0.1,0.1-0.2,0.1c-0.1,0-0.1,0-0.2,0c0,0.1-0.1,0.2-0.1,0.2
		c-0.1,0.1-0.1,0.1-0.2,0.2c0,0.1,0,0.2,0.1,0.2C74.2,35.4,74.3,35.3,74.4,35.3z"/>
	<path fill="#231F20" d="M73.2,32.1c0,0.1,0.1,0.1,0.1,0.1c0.1,0.1,0.2,0,0.2-0.1c0-0.1,0-0.2,0.1-0.2c-0.1,0-0.2,0.1-0.2,0.1
		C73.3,32,73.2,32,73.2,32.1z"/>
	<path fill="#231F20" d="M75.1,36.6C75.1,36.6,75.1,36.6,75.1,36.6c0-0.1,0-0.1-0.1-0.1c0,0-0.1,0-0.1,0.1
		C74.9,36.6,74.9,36.6,75.1,36.6C75,36.6,75.1,36.6,75.1,36.6z"/>
	<path fill="#231F20" d="M72.6,31.5c0.1,0,0.1-0.1,0.1-0.2c0-0.1-0.1-0.1-0.1-0.1c-0.1,0-0.1,0.1-0.1,0.2
		C72.5,31.5,72.5,31.6,72.6,31.5z"/>
	<path fill="#231F20" d="M72.6,34.2c0.1,0,0.2-0.1,0.2-0.2c0-0.1-0.1-0.1-0.2-0.1c-0.1,0.1-0.1,0.1-0.1,0.1
		C72.5,34.1,72.5,34.1,72.6,34.2z"/>
	<path fill="#231F20" d="M73.5,32.6c0,0.1-0.1,0.2-0.1,0.3c0.1,0.1,0.1,0.1,0.1,0.1c0.1,0,0.1-0.1,0.1-0.2c0-0.1,0-0.1,0.1-0.2
		C73.6,32.5,73.5,32.5,73.5,32.6z"/>
	<path fill="#231F20" d="M74.5,32.6c0,0.2,0,0.3,0,0.3c0,0,0.1,0,0.1-0.1c0,0,0,0,0-0.1c0.1,0,0.1-0.1,0-0.2
		C74.6,32.6,74.6,32.5,74.5,32.6z"/>
	<path fill="#231F20" d="M74.5,30.5C74.6,30.5,74.6,30.5,74.5,30.5c0.1-0.2,0-0.2-0.1-0.2c0,0,0,0,0,0.1
		C74.4,30.4,74.4,30.5,74.5,30.5C74.5,30.5,74.5,30.5,74.5,30.5z"/>
	<path fill="#231F20" d="M74.1,33.5c0-0.1,0.1-0.1,0.2-0.1c0.1,0,0.1-0.1,0.1-0.1c-0.1-0.1-0.2-0.1-0.2-0.1c-0.1,0-0.2,0-0.2-0.1
		c-0.1,0-0.1,0.1-0.1,0.1c0,0.1,0,0.1,0,0.2C73.8,33.5,73.9,33.6,74.1,33.5z"/>
	<path fill="#231F20" d="M74.1,32.5c0.1,0,0.2-0.1,0.1-0.2c0-0.1,0-0.2,0-0.3c0-0.1,0-0.1-0.1-0.1c0,0.1-0.1,0.2-0.1,0.3
		C74,32.4,74,32.5,74.1,32.5z"/>
	<path fill="#231F20" d="M74,30.7C74,30.7,73.9,30.7,74,30.7c-0.1,0-0.1,0-0.1,0C73.9,30.8,73.9,30.8,74,30.7
		C74,30.8,74,30.8,74,30.7z"/>
	<path fill="#231F20" d="M73.2,31.2c0.1,0,0.1-0.1,0.2-0.2c-0.1-0.1-0.1-0.1-0.1-0.1c-0.1,0-0.1,0.1-0.1,0.2
		C73.1,31.2,73.1,31.2,73.2,31.2z"/>
	<path fill="#231F20" d="M75.1,37.9C75.1,37.9,75.1,37.9,75.1,37.9C75.2,37.8,75.2,37.8,75.1,37.9c0-0.1-0.1-0.1-0.1-0.2
		c-0.1,0.1-0.2,0.1-0.3,0c-0.1,0-0.2,0-0.3,0c-0.1,0.1-0.1,0.1,0,0.1c0.1,0.1,0.3,0.1,0.5,0C75,37.9,75.1,37.9,75.1,37.9z"/>
	<path fill="#231F20" d="M73.9,37.5C73.9,37.6,74,37.6,73.9,37.5c0.1,0.1,0.1,0.1,0.2,0.1c0.1,0,0.1-0.1,0.1-0.1
		c0-0.1-0.1-0.1-0.1-0.1C74,37.4,74,37.5,73.9,37.5z"/>
	<path fill="#231F20" d="M74.2,36.3C74.2,36.4,74.2,36.4,74.2,36.3L74.2,36.3L74.2,36.3C74.2,36.3,74.2,36.3,74.2,36.3z"/>
	<path fill="#231F20" d="M73.3,34.7C73.3,34.7,73.3,34.7,73.3,34.7c0.1-0.1,0-0.2,0-0.2c-0.1,0-0.1,0-0.1,0c0,0,0,0.1,0,0.1
		C73.1,34.8,73.2,34.8,73.3,34.7C73.2,34.8,73.3,34.8,73.3,34.7z"/>
	<path fill="#231F20" d="M74.6,37.2c0-0.1,0.1-0.1,0.1-0.1c0,0,0,0,0-0.1c0-0.1-0.1-0.2-0.2-0.2c0,0,0,0,0,0.1
		c0,0.1,0.1,0.1,0.1,0.2C74.4,37.2,74.5,37.2,74.6,37.2z"/>
	<path fill="#231F20" d="M74.1,36.7c0.1,0,0.1,0,0.1,0c0-0.1,0-0.1,0-0.2C74.1,36.6,74.1,36.7,74.1,36.7z"/>
	<path fill="#231F20" d="M73.2,36.9L73.2,36.9c0,0.2,0,0.2,0.1,0.2l0,0C73.3,36.9,73.3,36.9,73.2,36.9z"/>
	<path fill="#231F20" d="M73.3,35.6c-0.1,0-0.1,0.1-0.1,0.1c0.1,0.1,0.2,0.1,0.2,0C73.4,35.6,73.4,35.6,73.3,35.6z"/>
	
		<rect x="73.6" y="37.2" transform="matrix(-0.9716 -0.2367 0.2367 -0.9716 136.4291 90.7458)" fill="#231F20" width="0" height="0"/>
	<path fill="#231F20" d="M73.6,35.1c0-0.1-0.1-0.1-0.1-0.1c-0.1,0-0.1,0.1,0,0.1c0,0,0,0,0.1,0C73.5,35.2,73.5,35.2,73.6,35.1z"/>
	<path fill="#231F20" d="M73.5,35.8c0,0.1,0.1,0.1,0,0.2c0,0.1,0,0.1,0.1,0.1c0.1,0,0.1,0,0.1-0.1c0,0,0-0.1,0-0.1
		c0-0.1,0-0.1-0.1-0.1C73.6,35.7,73.5,35.7,73.5,35.8z"/>
	<path fill="#231F20" d="M74,34.4c0-0.1-0.1-0.1-0.1-0.1c-0.1,0-0.1,0-0.1,0.1c0,0,0,0.1,0.2,0.1C73.9,34.5,74,34.5,74,34.4z"/>
	<rect x="74.8" y="41.2" transform="matrix(0.9797 0.2007 -0.2007 0.9797 9.802 -14.1789)" fill="#231F20" width="0" height="0"/>
	
		<rect x="76.2" y="45.1" transform="matrix(-0.9733 -0.2297 0.2297 -0.9733 140.0591 106.6659)" fill="#231F20" width="0" height="0.1"/>
	<path fill="#231F20" d="M76.2,32.5C76.1,32.5,76.1,32.6,76.2,32.5c-0.1,0.1,0,0.1,0,0.2C76.2,32.7,76.3,32.7,76.2,32.5
		C76.3,32.6,76.2,32.5,76.2,32.5z"/>
	<path fill="#231F20" d="M76,42.9C76.1,42.8,76.1,42.8,76,42.9c0-0.1,0-0.1,0.1-0.2c0-0.1-0.1-0.1-0.1,0c-0.1,0-0.1,0.1-0.1,0.1
		C75.9,42.8,75.9,42.9,76,42.9z"/>
	<path fill="#231F20" d="M107.7,33.7c-0.7-0.5-1.7,0.1-2.9-0.4c-2.2-0.8-5.4-2.6-7.7-7.6c-0.6-1.3-1.7-2.7-2.3-4.8
		c1.4-5.9-3-8.1-1.6-11.8c0,0-3.5,0.7-6.7,2.6c-0.4,0.2-0.8,0.5-1.1,0.8c-1.6,1.3-3.5,3.5-3.6,6.2c0,0-0.7-2.2,0.7-4.9
		c-3.3-2.1-15-9.4-30.5-10.3C37.7,2.8,14.9,7.8,8.2,22.8c-1.4,0.6-3.2-0.5-3.7-1.7C4.2,20.5,4,19.9,4,19.3c-0.7-0.7-1-1.4-1-1.4
		c0.6,0.8,1.8,1.3,1.8,1.3l0,0c1.2,0.5,2.7,0.6,4-0.3c2.5-1.5,1.6-4.3-0.9-5c-1.5-0.4-3,0.1-4,1.1c0.1,0.7,0.3,1.3,0.5,1.7
		c0.5-0.9,1.3-1.3,2.5-1.2c2.2,0.3,1,3.1-0.9,2.5c-0.7-0.2-1.2-0.6-1.6-0.9c-0.6-0.6-0.9-1.2-1.1-1.9c-0.2-0.4-0.5-1.2-1.2-0.9
		c-1,0.4-0.3,1.7-0.2,2.2c0.1,0.3,0.3,0.6,0.5,0.9c0,0.1-0.1,0.2-0.1,0.4c-1.1,4.6,1.6,7.5,4.4,8.9c-4.3,17.5,4.4,30,6.4,36.3
		c2,6.4,4.6,11,4.5,11.5c0,0,2.7-1,3.6-1c1,0,3.9,0.9,3.9,0.9s0.2-6.9,1.9-12.6c0.4-1.6,1.7-4.7,5.4-7.8c0,0-1.1,1.8-2,3.8
		c2.5,0.5,9.6,2.2,16.8,1.8c7-0.3,10.1-0.4,14.6-1.6c-0.1-1.9,0.5-4.8,1.3-7.3c0,0,0.4,6.6,2.2,14c0.3,1.1,0.6,2.2,0.9,3.2
		c0.8,2.7,1,3,2.8,6.5c0,0,2.3-1.2,3.1-1.2c0.9,0,3.6,1.2,3.6,1.2s-0.6-3.5-0.7-6.6c-0.1-3.1,1.7-11.3,1.7-11.3s5-0.9,7.7-1.9
		c5.1-1.9,8.1-4.1,12.5-6.2c5-2.4,9.1-3.8,9.7-5.1c0.7-1.7,1.4-7.3,1.4-7.3S108.6,34.4,107.7,33.7z M30.5,30.9
		c0,0.3-0.1,0.6-0.1,0.8c0,0.3,0,0.5,0,0.7c0,0.2-0.1,0.5-0.3,0.7c0,0.1,0,0.2-0.1,0.3c-0.1,0.1-0.1,0.2-0.2,0.3
		c-0.1,0.1-0.1,0.2-0.2,0.3c0,0.1-0.1,0.2-0.1,0.3c-0.2,0.3-0.5,0.7-0.8,0.9c-0.3,0.3-0.6,0.5-0.9,0.7c-0.3,0.3-0.6,0.5-0.9,0.6
		c-0.3,0.1-0.7,0.3-1,0.5c-0.4,0.1-0.7,0.2-1,0.3c-0.3,0.1-0.6,0.2-1,0.3c-0.1,0.1-0.2,0.1-0.2,0.2c-0.1,0-0.1,0.1-0.1,0.2
		c0.1,0.4,0.2,0.7,0.3,1c0.1,0.3,0.2,0.6,0.2,1c0.1,0.2,0.2,0.5,0.1,0.7c0,0.2,0.1,0.4,0.2,0.6c0,0.2,0.1,0.4,0.2,0.5
		c0.1,0.2,0.1,0.4,0,0.6c0,0.3,0,0.5,0.2,0.8c0.2,0.2,0.2,0.5,0.2,0.8c0.2,0.2,0.2,0.4,0.2,0.7c0,0.2,0,0.4,0.1,0.7
		c0,0.2,0,0.3-0.1,0.5c0,0.2-0.1,0.3-0.3,0.4c-0.4,0.1-0.7,0.2-1.1,0.3c-0.3,0-0.6,0.1-0.9,0.3C23,47,22.8,47,22.6,47
		c-0.2,0-0.4,0.1-0.6,0.3c-0.3,0-0.5,0.1-0.8,0.1c-0.3,0-0.5-0.1-0.7-0.3c-0.1-0.3-0.2-0.6-0.3-1c-0.1-0.3-0.1-0.7-0.1-1
		c-0.2-0.2-0.3-0.4-0.3-0.7c0-0.3-0.1-0.5-0.3-0.7c-0.1-0.2-0.1-0.4,0-0.6c0-0.2,0-0.4-0.2-0.6c0-0.4-0.1-0.7-0.2-1
		c-0.2-0.3-0.3-0.6-0.3-1c-0.1-0.3-0.1-0.6-0.2-1c-0.1-0.3-0.1-0.7-0.1-1c-0.1-0.2-0.2-0.4-0.2-0.6c-0.1-0.2-0.1-0.4-0.2-0.6
		c-0.1-0.1-0.2-0.3-0.2-0.5c0-0.2,0-0.3-0.1-0.5c-0.1-0.2-0.1-0.4-0.2-0.7c0-0.3-0.1-0.5-0.2-0.7c-0.1-0.2-0.1-0.3,0-0.5
		c0-0.2,0-0.3-0.1-0.5c0-0.1,0-0.2,0-0.3c0-0.1-0.1-0.2-0.1-0.3c-0.1-0.3-0.1-0.6-0.2-0.9c-0.1-0.3-0.1-0.6-0.1-0.8
		c-0.2-0.3-0.4-0.6-0.4-1c0-0.4-0.1-0.7-0.3-1c-0.1-0.5-0.2-1-0.3-1.5c-0.1-0.5-0.2-1-0.4-1.4c0-0.2-0.1-0.4-0.1-0.5
		c0-0.2,0-0.3,0.1-0.5c0.1-0.2,0.2-0.4,0.4-0.5c0.2-0.1,0.4-0.2,0.6-0.2c0.2-0.1,0.4-0.1,0.6-0.1c0.2,0,0.5-0.1,0.7-0.2h0.1
		c0.2,0,0.4-0.1,0.6-0.2c0.2-0.1,0.4-0.2,0.6-0.2c0.1-0.1,0.3-0.1,0.4,0c0.2,0,0.3,0,0.4-0.1c0.4-0.1,0.7-0.2,1-0.2
		c0.3-0.1,0.7-0.2,1-0.2c0.3-0.2,0.6-0.3,1-0.4c0.4-0.1,0.7-0.1,1-0.1c0.2,0,0.4,0,0.5,0c0.2,0,0.4,0,0.6,0c0.3,0,0.7,0.1,1,0.2
		c0.3,0.1,0.6,0.2,1,0.2c0.3,0.2,0.6,0.4,0.9,0.7c0.3,0.3,0.6,0.5,0.8,0.7c0.3,0.4,0.6,0.8,0.8,1.3c0.2,0.5,0.4,1,0.6,1.4
		c0,0.1,0,0.3,0,0.4c0,0.1,0,0.3,0,0.4c0.1,0.2,0.2,0.3,0.3,0.5c0.1,0.2,0.1,0.4,0,0.6C30.6,30.3,30.6,30.6,30.5,30.9z M29.7,11.4
		c-2.2,0.7-4.4,1.6-6.5,2.7c-1,0.5-2.1,1.1-3,1.8c-1,0.6-1.9,1.4-2.8,2.1c-1.8,1.5-3.4,3.2-4.8,5.1c-1.4,1.9-2.6,3.9-3.3,6.2
		c0.4-2.3,1.5-4.6,2.8-6.5c1.3-2,2.9-3.8,4.7-5.4c0.9-0.8,1.8-1.6,2.8-2.3c1-0.7,2-1.3,3.1-1.9c2.1-1.1,4.3-2.1,6.6-2.9
		C34,8.9,38.7,8.1,43.5,8c4.8-0.1,9.6,0.3,14.2,1.2C53,8.7,48.3,8.5,43.6,8.9C38.9,9.2,34.2,9.9,29.7,11.4z M49.2,35.3
		c-0.2,1-0.4,2.1-0.7,3.1c-0.3,1-0.8,2-1.5,2.8c-0.3,0.4-0.6,0.7-0.9,1c-0.3,0.3-0.6,0.6-1,0.8c-0.2,0.1-0.5,0.2-0.7,0.4
		c-0.2,0.1-0.5,0.2-0.8,0.3c-0.1,0.1-0.2,0.1-0.4,0.1c-0.1,0-0.2,0-0.3,0.1c-0.4,0.1-0.8,0.1-1.1,0.1c-0.4,0-0.8,0-1.2,0
		c-0.3,0.1-0.5,0.1-0.7,0c-0.2-0.1-0.4-0.1-0.7-0.2c-0.3-0.1-0.5-0.2-0.8-0.3c-0.2-0.1-0.5-0.2-0.7-0.4c-0.2-0.2-0.4-0.3-0.6-0.4
		c-0.2-0.1-0.4-0.3-0.5-0.5c-0.3-0.3-0.5-0.6-0.7-0.9c-0.2-0.3-0.4-0.6-0.5-1c-0.3-0.2-0.5-0.4-0.6-0.7c-0.1-0.3-0.2-0.5-0.5-0.8
		c-0.1-0.2-0.1-0.4-0.2-0.6c-0.1-0.2-0.1-0.4-0.2-0.6c-0.1-0.3-0.3-0.6-0.3-0.9c-0.1-0.3-0.1-0.6-0.1-1c-0.1-0.2-0.2-0.4-0.2-0.6
		c-0.1-0.2-0.1-0.4,0-0.6c0-0.4,0-0.9-0.1-1.3c-0.1-0.4-0.1-0.8-0.1-1.2c-0.1-0.1-0.1-0.3-0.1-0.4c0-0.1,0-0.2,0.1-0.3
		c0-0.1,0-0.2,0-0.3c0-0.1,0-0.2-0.1-0.4c0.1-0.5,0.1-0.9,0.1-1.4c0-0.5,0.1-0.9,0.4-1.3c0-0.3,0.1-0.5,0.2-0.8
		c0.1-0.2,0.1-0.5,0.1-0.8c0.1-0.3,0.2-0.5,0.3-0.8c0.1-0.3,0.2-0.5,0.4-0.7c0.2-0.1,0.3-0.3,0.3-0.5c0.1-0.2,0.2-0.4,0.3-0.5
		c0.2-0.3,0.4-0.6,0.7-0.9c0.3-0.3,0.5-0.6,0.8-0.8c0.2-0.1,0.3-0.3,0.5-0.4c0.2-0.1,0.3-0.2,0.6-0.3c0.3-0.2,0.6-0.4,1-0.5
		c0.1,0,0.3,0,0.3-0.1c0.1-0.1,0.2-0.1,0.3-0.2c0.4,0,0.8,0,1.2-0.1c0.4-0.1,0.8,0,1.1,0.1c0.4,0,0.8,0,1.1,0.2
		c0.3,0.2,0.7,0.3,1.1,0.3c0.3,0.2,0.5,0.4,0.8,0.5c0.3,0.2,0.6,0.4,0.8,0.6c0.1,0.2,0.3,0.4,0.6,0.6c0.2,0.2,0.4,0.4,0.5,0.6
		c0.3,0.2,0.6,0.5,0.7,0.9c0.1,0.3,0.3,0.7,0.5,1c0.1,0.2,0.2,0.5,0.3,0.7c0.1,0.2,0.2,0.5,0.3,0.7c0.2,0.4,0.3,0.8,0.4,1.3
		c0.1,0.5,0.2,0.9,0.3,1.3c0,0.2,0,0.4,0.1,0.6c0.1,0.2,0.1,0.4,0,0.6c0.1,0.3,0.1,0.6,0.1,1c0,0.3,0,0.6,0.1,0.9
		c-0.1,0.4-0.1,0.9-0.1,1.3C49.2,34.4,49.2,34.9,49.2,35.3z M63.8,44.5c-0.2,0.1-0.3,0.1-0.5,0.2c-0.3,0-0.5,0-0.7-0.1
		c-0.2-0.1-0.5-0.1-0.7,0c-0.2-0.1-0.5-0.2-0.8-0.1c-0.3,0-0.6,0-0.8-0.1c-0.2,0.1-0.4,0.1-0.5,0c-0.2-0.1-0.3-0.1-0.5-0.1
		c-0.1,0-0.2-0.1-0.3-0.2c-0.1-0.1-0.2-0.2-0.3-0.2c-0.2-0.2-0.2-0.4-0.1-0.7c0.1-0.3,0.1-0.5,0.1-0.8c-0.1-0.2-0.1-0.4-0.1-0.7
		c0-0.2,0-0.5-0.1-0.7c0.1-0.3,0.2-0.6,0.1-0.9c-0.1-0.3-0.1-0.6,0-0.9c-0.1-0.3-0.1-0.6,0-0.9c0.1-0.3,0.1-0.6-0.1-0.9
		c0-0.2,0-0.5-0.1-0.6c-0.1-0.2-0.2-0.4-0.2-0.6c0-0.2-0.1-0.4-0.3-0.5c-0.2-0.2-0.3-0.3-0.5-0.4c-0.1,0-0.2-0.1-0.3-0.1
		c-0.1,0-0.2,0-0.3,0.1l-0.1,0.1c-0.1,0.2-0.1,0.4-0.1,0.6c0,0.2-0.1,0.4-0.1,0.6c0.1,0.2,0.1,0.5,0,0.7c-0.1,0.3-0.1,0.5,0,0.7
		c-0.1,0.2-0.2,0.4-0.1,0.6c0.1,0.2,0,0.4-0.1,0.6c0,0.3,0,0.5-0.1,0.6c-0.1,0.2-0.1,0.4-0.1,0.6c-0.1,0.2-0.1,0.5-0.1,0.7
		c0,0.2,0,0.5-0.1,0.7c0.1,0.2,0.1,0.4,0,0.6c0,0.2-0.1,0.4-0.1,0.6c-0.1,0.1-0.2,0.2-0.3,0.4c-0.1,0.1-0.2,0.2-0.4,0.2
		c-0.5,0.1-1.1,0-1.6,0c-0.6-0.1-1.1-0.1-1.6-0.1c-0.2-0.1-0.5-0.1-0.8-0.2c-0.3,0-0.5-0.2-0.6-0.5c0-0.2,0-0.4,0-0.6
		c0-0.2,0-0.4,0-0.6l0.1-0.3c0-0.4,0.1-0.7,0.1-1.1c0-0.4,0.1-0.7,0-1.1c0.1-0.2,0.2-0.4,0.1-0.6c-0.1-0.2,0-0.4,0.1-0.6
		c0-0.1,0-0.3,0-0.5c0-0.2,0.1-0.3,0.2-0.4c0-0.1-0.1-0.3-0.1-0.4c0-0.2,0-0.3,0.1-0.4c0-0.2,0.1-0.5,0.1-0.8c0-0.3,0-0.5,0-0.8
		c0-0.4,0.1-0.8,0.1-1.2c0-0.4,0.1-0.8,0.1-1.2c0-0.2,0-0.4,0.1-0.5c0.1-0.2,0.1-0.3,0-0.5c0.1-0.1,0.1-0.2,0.1-0.3
		c0-0.1,0-0.2,0-0.3c0-0.1,0-0.2,0-0.3c0-0.1,0.1-0.2,0.2-0.3c-0.1-0.1-0.1-0.3-0.1-0.4c0-0.2,0.1-0.3,0.1-0.5c0-0.3,0.1-0.7,0.1-1
		c0-0.3,0.1-0.7,0.2-1c0-0.2,0.1-0.5,0-0.7c0-0.2,0-0.4,0.1-0.7c0.1-0.1,0.1-0.2,0.1-0.3c0-0.1,0-0.2,0.1-0.3
		c0.1-0.4,0.1-0.8,0.1-1.2c0-0.4,0-0.8,0.1-1.1c0-0.2,0.1-0.3,0.1-0.5c0-0.2,0-0.4,0.1-0.5c0-0.2,0.1-0.3,0.1-0.5
		c0.1-0.1,0.2-0.2,0.4-0.3c0.1-0.1,0.2-0.1,0.3-0.1c0.1,0,0.3,0,0.4,0c0.1,0,0.3,0.1,0.4,0.1c0.1,0,0.3,0,0.4,0
		c0.3,0,0.5,0.1,0.7,0.1c0.2,0.1,0.5,0.1,0.8,0c0.3,0.1,0.5,0.1,0.8,0c0.2-0.1,0.5,0,0.7,0.1c0.2,0,0.4,0,0.5,0c0.2,0,0.4,0,0.5,0
		c0.2,0.1,0.3,0.1,0.5,0.1c0.2,0,0.4,0,0.5,0.1c0.4-0.1,0.8-0.1,1.1,0c0.4,0.1,0.7,0.2,1.1,0.3c0.2,0.1,0.4,0.1,0.5,0.2
		c0.2,0,0.3,0.1,0.5,0.3c0.3,0.1,0.6,0.2,0.8,0.5c0.2,0.3,0.5,0.4,0.8,0.6c0.1,0.2,0.2,0.4,0.4,0.5c0.2,0.1,0.3,0.3,0.4,0.5
		c0.1,0.3,0.2,0.5,0.3,0.7c0.1,0.2,0.1,0.5,0.1,0.8c0.1,0.2,0.1,0.5,0.1,0.8c0,0.3,0,0.5-0.1,0.8c0,0.5,0,1-0.2,1.5
		c-0.2,0.5-0.3,0.9-0.6,1.3c-0.2,0.3-0.4,0.5-0.6,0.8c-0.2,0.3-0.5,0.5-0.7,0.7c-0.2,0.1-0.5,0.3-0.7,0.5c-0.2,0.2-0.4,0.3-0.7,0.3
		c-0.2,0.1-0.3,0.3-0.4,0.6c0,0.3,0.1,0.5,0.2,0.6c0.3,0.1,0.5,0.2,0.7,0.5c0.2,0.3,0.4,0.5,0.4,0.8c0,0.2,0.1,0.4,0.2,0.5
		c0.1,0.2,0.1,0.3,0.2,0.5c0.1,0.3,0.2,0.7,0.2,1c0,0.3,0,0.7,0.1,1.1c0.1,0.4,0.1,0.8,0.3,1.2c0.1,0.4,0.1,0.8,0,1.3
		c0.1,0.3,0.1,0.5,0.1,0.8c0,0.3,0,0.5,0.1,0.8c0,0.3,0,0.6,0.1,0.9c0,0.3,0.1,0.6,0.1,0.9C64.1,44.3,64,44.5,63.8,44.5z M82.3,26.9
		c-0.1,0.2-0.3,0.4-0.5,0.6c-0.2,0.2-0.4,0.4-0.6,0.6c-0.2,0.2-0.4,0.4-0.5,0.6c-0.1,0.2-0.3,0.3-0.4,0.4c-0.1,0.1-0.2,0.2-0.3,0.4
		c-0.2,0.2-0.4,0.4-0.6,0.6c-0.1,0.2-0.3,0.4-0.6,0.6c-0.1,0.2-0.2,0.4-0.4,0.5c-0.2,0.2-0.3,0.3-0.5,0.5c-0.2,0.2-0.3,0.3-0.4,0.5
		c-0.1,0.2-0.2,0.4-0.2,0.7c0.2,0.4,0.2,0.7,0.2,1.1c0,0.4,0,0.7,0.2,1.1c-0.1,0.3-0.1,0.5-0.1,0.7c0.1,0.2,0.1,0.5,0.1,0.7
		c0.1,0.3,0.2,0.5,0.2,0.8c0,0.3,0,0.6,0,0.8c0.1,0.1,0.1,0.2,0.1,0.3c0,0.1,0,0.2,0,0.3c0,0.1,0,0.2,0,0.3c0,0.1,0.1,0.2,0.2,0.3
		c0,0.4,0,0.7,0,1.1c0,0.3,0,0.7,0,1.1c0.1,0.2,0.1,0.4,0.1,0.7c0,0.2,0,0.5,0,0.7c0,0.3,0,0.6,0.1,0.9c0.1,0.3,0.1,0.6,0.2,0.8
		c0.1,0.4,0.1,0.8,0.1,1.3c0,0.4,0,0.9,0,1.3c0,0.1,0,0.2,0,0.3c0,0.1-0.1,0.2-0.1,0.3c-0.2,0.2-0.3,0.2-0.5,0.1
		c-0.2-0.1-0.4-0.1-0.5,0c-0.3-0.1-0.6-0.2-0.9-0.3c-0.3-0.1-0.6-0.1-0.9-0.1c-0.2-0.1-0.4-0.2-0.6-0.3c-0.2-0.1-0.4-0.1-0.7-0.1
		c-0.5-0.2-1-0.4-1.2-0.8c-0.1-0.3-0.2-0.6-0.2-0.8c0-0.3,0.1-0.6,0.1-0.9c0-0.3-0.1-0.7-0.1-1c0-0.4,0-0.7-0.1-1
		c0.1-0.2,0.1-0.3,0-0.5c-0.1-0.2-0.1-0.3,0-0.5c0-0.2,0-0.4-0.1-0.6c-0.1-0.2-0.1-0.4,0-0.5c-0.1-0.3-0.1-0.6,0-0.8
		c0-0.3-0.1-0.5-0.3-0.8c-0.4,0.1-0.6,0.3-0.8,0.6c-0.1,0.3-0.3,0.6-0.5,0.9c-0.1,0.1-0.1,0.2-0.1,0.3c0,0.1,0,0.3,0,0.4
		c0.1,0.2,0,0.4-0.1,0.5c-0.1,0.1-0.2,0.3-0.1,0.5c-0.2,0.3-0.3,0.6-0.2,0.9c0,0.3-0.1,0.6-0.2,0.9c0.1,0.2,0,0.4-0.1,0.6
		C70,44.5,70,44.7,70,44.9c-0.2,0.2-0.3,0.3-0.3,0.5c0,0.2-0.2,0.3-0.4,0.4c-0.3,0-0.7,0-1-0.1c-0.3-0.1-0.6-0.2-1-0.2
		c-0.3,0-0.5-0.1-0.8-0.2c-0.3-0.1-0.5-0.2-0.8-0.1c-0.2-0.1-0.4-0.1-0.6-0.3c-0.2-0.1-0.3-0.3-0.4-0.5c0-0.3,0.1-0.7,0.1-1.1
		c0-0.4,0.1-0.7,0.3-1c0-0.3,0-0.5,0.1-0.8c0.1-0.3,0.1-0.5,0.1-0.8c0.1-0.3,0.3-0.6,0.4-1c0.1-0.3,0.2-0.7,0.2-1
		c0.1-0.2,0.1-0.4,0.1-0.6c0-0.2,0-0.4,0.2-0.5c0-0.7,0.2-1.4,0.5-2.1c0-0.7,0.2-1.3,0.4-1.9c0-0.2,0-0.5,0.1-0.7
		c0.1-0.2,0.1-0.5,0-0.7c0.1-0.2,0.1-0.3,0.2-0.4c0.1-0.1,0.1-0.3,0.1-0.5c0.1-0.3,0.2-0.6,0.2-0.9c0-0.3,0.1-0.6,0.2-0.9
		c0-0.2,0.1-0.4,0.2-0.6c0.1-0.2,0.1-0.4,0.1-0.6c0.1-0.3,0.2-0.7,0.2-1c0-0.3,0.1-0.7,0.3-0.9c0-0.2,0-0.4,0.1-0.5
		c0.1-0.2,0.1-0.3,0.2-0.5c0.1-0.1,0.1-0.3,0.2-0.4c0.1-0.1,0.1-0.3,0-0.5c0-0.2,0.1-0.4,0.1-0.6c0.1-0.2,0.1-0.4,0.2-0.5
		c0.2-0.1,0.5-0.3,0.7-0.3c0.3-0.1,0.5-0.1,0.7,0.1l0.5,0.1c0.1,0,0.3,0,0.4,0.1c0.1,0,0.2,0.1,0.3,0.2c0.1,0.1,0.2,0.1,0.3,0.1
		c0.1,0,0.2,0,0.4,0c0.3,0.1,0.7,0.1,1,0.3c0.3,0.1,0.6,0.4,0.7,0.7c0,0.2,0,0.5,0,0.7c0,0.2-0.1,0.4-0.2,0.7
		c-0.1,0.2-0.1,0.3-0.2,0.5c0,0.2-0.1,0.4-0.1,0.6C74,27,74,27.2,74,27.4c0,0.2,0,0.4-0.1,0.6c0,0.2,0,0.5-0.1,0.7
		c-0.1,0.2-0.1,0.4-0.1,0.7c-0.1,0.1-0.1,0.3,0,0.4c0.1,0.1,0.2,0.2,0.4,0.2c0.1-0.1,0.2-0.2,0.3-0.3c0.1-0.1,0.2-0.3,0.2-0.4
		c0.2-0.1,0.4-0.3,0.5-0.6c0.1-0.2,0.3-0.4,0.5-0.6c0.1-0.2,0.3-0.4,0.4-0.6c0.2-0.2,0.3-0.4,0.5-0.6c0.1-0.3,0.3-0.5,0.5-0.7
		c0.2-0.2,0.4-0.4,0.6-0.7c0.1-0.1,0.3-0.2,0.4-0.3c0.1-0.1,0.3-0.2,0.5-0.2c0.4,0.1,0.8,0.1,1.1,0.1c0.4,0,0.7,0.1,1.1,0.3
		c0.1,0.1,0.3,0.1,0.5,0.1c0.2,0,0.4,0,0.6,0.1c0.2,0,0.4,0.1,0.5,0.2c0.1,0.1,0.2,0.3,0.2,0.5C82.6,26.5,82.5,26.7,82.3,26.9z
		 M86,20.9l-1.7-0.8c-1.6-4.8,2.6-7.5,2.6-7.5C82.8,16,86,20.9,86,20.9z"/>
	<path fill="#231F20" d="M75.9,44.3c0,0,0,0.1,0,0.2c0,0,0.1,0,0.1,0.1c0,0,0.1,0,0.1,0C76.1,44.4,76.1,44.3,75.9,44.3z"/>
	<path fill="#231F20" d="M75.8,41.2c-0.1,0-0.1,0-0.1,0l0,0.1c0.1,0.1,0.2,0.1,0.3,0C75.9,41.3,75.8,41.2,75.8,41.2z"/>
	<path fill="#231F20" d="M75.1,42c-0.1,0-0.1,0.1-0.1,0.2c0,0.1-0.1,0.1-0.1,0.2c0.1,0,0.1,0,0.2,0c0.1-0.1,0.2-0.1,0.2-0.1
		C75.3,42.1,75.2,42,75.1,42z"/>
	<path fill="#231F20" d="M75.2,41L75.2,41L75.2,41C75.3,41,75.3,41,75.2,41L75.2,41z"/>
	<path fill="#231F20" d="M75.1,40C75.1,40,75,40,75.1,40c0,0.2,0,0.3,0.1,0.3c0.1,0,0.1-0.1,0.2-0.1c0.1,0,0.1,0,0.2-0.1l-0.1,0
		C75.4,40.1,75.3,40.1,75.1,40z"/>
	<path fill="#231F20" d="M70.8,35.7c-0.1,0-0.1,0.1-0.2,0.2c0,0,0,0.1,0.1,0.1c0,0,0.1-0.1,0.1-0.1c0,0,0-0.1,0.1-0.1
		C70.9,35.8,70.9,35.7,70.8,35.7C70.9,35.7,70.8,35.7,70.8,35.7z"/>
	<path fill="#231F20" d="M71,34.2c-0.1,0-0.1,0.1-0.1,0.1c0,0,0,0,0.1,0c0.1,0,0.1,0,0.1-0.1C71.1,34.2,71.1,34.2,71,34.2
		C71.1,34.2,71,34.2,71,34.2z"/>
	<path fill="#231F20" d="M70.7,38c0,0,0.1,0,0.1,0c0,0,0.1,0,0.1-0.1C70.9,38,70.8,38,70.7,38C70.7,38,70.7,38,70.7,38z"/>
	<path fill="#231F20" d="M70.1,35.3C70,35.3,70,35.3,70.1,35.3c-0.2,0-0.2,0-0.2,0.1c0,0.1,0.1,0.1,0.2,0.1
		C70.1,35.5,70.1,35.4,70.1,35.3C70.1,35.3,70.1,35.3,70.1,35.3z"/>
	<path fill="#231F20" d="M71.3,35c0,0-0.1,0-0.1,0c0,0,0,0.1,0,0.1C71.3,35.1,71.4,35.1,71.3,35C71.4,35,71.4,35,71.3,35z"/>
	<path fill="#231F20" d="M71.1,31.5c-0.1,0-0.1,0-0.1,0.1c0,0.1,0,0.1,0,0.2c-0.2,0.1-0.2,0.2-0.3,0.3c0,0.1-0.1,0.3-0.2,0.4
		c0,0,0,0,0.1,0.1c0.1,0,0.1,0,0.1-0.1c0-0.1,0-0.1,0-0.2c0.2,0,0.2-0.1,0.2-0.2c0-0.1,0-0.2,0.2-0.3C71.2,31.7,71.2,31.6,71.1,31.5
		C71.2,31.5,71.2,31.5,71.1,31.5z"/>
	<path fill="#231F20" d="M70.2,33.4c-0.1,0-0.1,0-0.1,0.1c0,0.1,0,0.1,0.1,0.1C70.2,33.5,70.2,33.5,70.2,33.4
		C70.2,33.4,70.2,33.4,70.2,33.4z"/>
	<path fill="#231F20" d="M70.4,28.8c-0.1,0-0.1,0.1-0.1,0.1c0.1,0,0.2,0,0.2,0C70.5,28.8,70.5,28.8,70.4,28.8z"/>
	<path fill="#231F20" d="M71.5,36.4c0,0-0.1,0.1-0.1,0.1c0,0.1,0,0.1,0.1,0.1c0,0,0.1,0,0.1-0.2C71.6,36.4,71.6,36.4,71.5,36.4z"/>
	<path fill="#231F20" d="M70.9,35c0-0.1,0-0.1-0.1-0.2c-0.1,0-0.1,0-0.2,0.1c0,0.1,0,0.1,0,0.1c0.1,0.1,0,0.2-0.1,0.3
		c-0.1,0.1-0.1,0.1,0,0.1c0.1-0.1,0.1-0.1,0.2-0.2C70.8,35.2,70.8,35.1,70.9,35z"/>
	<path fill="#231F20" d="M70.7,33.6c-0.1,0.1-0.1,0.2,0,0.2c0,0.1,0,0.1,0,0.2c0.1,0,0.1,0,0.2,0c0,0,0-0.1,0-0.1c0,0,0-0.1,0-0.2
		c0-0.1,0-0.1,0.1-0.1c0-0.1,0-0.1-0.1-0.1C70.7,33.6,70.7,33.6,70.7,33.6z"/>
	<path fill="#231F20" d="M71,33c0.1,0,0.1-0.1,0-0.1c0,0-0.1-0.1-0.1-0.1c0,0-0.1,0-0.1,0.1c0,0,0,0.1,0,0.1C70.9,33,71,33,71,33z"
		/>
	<path fill="#231F20" d="M72.7,34.9c0,0.1,0,0.1,0,0.1l0,0c0,0,0,0,0,0c0.1,0,0.1-0.1,0-0.1C72.8,34.9,72.7,34.9,72.7,34.9z"/>
	<path fill="#231F20" d="M71.5,35.8C71.6,35.8,71.6,35.8,71.5,35.8c0,0.1,0,0.1,0,0.1c0.1,0,0.2,0,0.3,0c0.1,0,0.1,0,0.2,0l0,0
		c-0.1,0-0.2-0.1-0.2-0.1C71.7,35.7,71.6,35.7,71.5,35.8z"/>
	<path fill="#231F20" d="M72.1,32.4c0,0.1-0.1,0.1-0.2,0.1c-0.1,0-0.1,0-0.1,0.1c0.1,0,0.1,0,0.2,0c0.1,0,0.1,0,0.2-0.1
		C72.2,32.4,72.2,32.4,72.1,32.4z"/>
	<path fill="#231F20" d="M72.4,31.1C72.4,31,72.4,31,72.4,31.1C72.4,31,72.4,31,72.4,31.1l-0.1,0L72.4,31.1
		C72.4,31.2,72.4,31.1,72.4,31.1z"/>
	<path fill="#231F20" d="M72.6,35.4c-0.1,0.1-0.1,0.1,0,0.2c0,0.1,0,0.1,0,0.2c0,0.1,0.1,0.1,0.2,0.1c0.1,0,0.1-0.1,0.1-0.1
		c-0.1-0.1-0.1-0.1-0.1-0.2C72.7,35.4,72.7,35.4,72.6,35.4z"/>
	<path fill="#231F20" d="M72.8,32.6c-0.1,0.1-0.2,0.2-0.1,0.3c0,0.1,0.1,0.2,0.3,0.2c0,0,0.1,0,0.1-0.1c0-0.1-0.1-0.1-0.1-0.2
		C72.9,32.7,72.9,32.6,72.8,32.6z"/>
	<path fill="#231F20" d="M72.4,34.6c-0.1,0-0.1,0-0.1,0.1c0,0.1,0.1,0.1,0.1,0.1c0.1,0,0.1-0.1,0.1-0.1
		C72.6,34.7,72.5,34.6,72.4,34.6z"/>
	<path fill="#231F20" d="M72.1,36.4L72.1,36.4c0.1,0,0.1,0,0.1,0L72.1,36.4L72.1,36.4z"/>
	<path fill="#231F20" d="M71.8,35.4c0,0,0.1-0.1,0.1-0.1c0.1,0,0.1-0.1,0.1-0.1c0-0.1-0.1-0.1-0.1-0.1c-0.1,0-0.2,0.1-0.2,0.2
		C71.7,35.3,71.7,35.3,71.8,35.4z"/>
	<path fill="#231F20" d="M72.1,34.5c-0.1,0-0.1-0.1-0.2-0.2c0-0.2,0-0.3,0.2-0.4c0,0,0-0.1-0.1-0.1c0,0-0.1,0.1-0.1,0.2
		c-0.1,0-0.1,0-0.1,0c0,0-0.1,0-0.1,0c0,0.1-0.1,0.1-0.2,0.1c-0.1,0-0.1,0.1-0.1,0.2c0.1,0,0.3,0,0.4,0.1c0.1,0.1,0.2,0.1,0.3,0.1
		C72.1,34.5,72.1,34.5,72.1,34.5z"/>
	<path fill="#231F20" d="M72.1,33.3C72.1,33.3,72,33.3,72.1,33.3L72.1,33.3L72.1,33.3L72.1,33.3z"/>
	<path fill="#231F20" d="M54.6,29.8c0,0.1,0,0.1-0.1,0.2c-0.1,0.1,0,0.1,0.1,0.2c0.1-0.1,0.1-0.1,0.1-0.2
		C54.7,30,54.7,29.9,54.6,29.8C54.7,29.8,54.7,29.8,54.6,29.8z"/>
	<path fill="#231F20" d="M54.1,41.1C54.1,41,54,41.1,54.1,41.1c-0.1,0.2,0,0.2,0,0.2c0,0,0.1,0,0.1-0.1
		C54.2,41.1,54.2,41.1,54.1,41.1z"/>
	<path fill="#231F20" d="M53.9,35.7C53.8,35.7,53.8,35.7,53.9,35.7c0,0.1,0,0.1,0,0.1C53.9,35.8,53.9,35.8,53.9,35.7
		C53.9,35.7,53.9,35.7,53.9,35.7z"/>
	<path fill="#231F20" d="M54.2,36.8c0,0,0.1-0.1,0-0.2c0,0,0-0.1-0.1-0.1c0,0-0.1,0-0.1,0c0,0,0,0.1,0,0.1c0,0,0,0.1,0,0.1
		C54.1,36.8,54.1,36.8,54.2,36.8z"/>
	<path fill="#231F20" d="M54.4,34.6L54.4,34.6c0,0.1,0,0.1,0,0.1c0,0,0,0,0,0C54.5,34.7,54.5,34.7,54.4,34.6
		C54.5,34.6,54.4,34.6,54.4,34.6z"/>
	<path fill="#231F20" d="M54.2,38.2C54.2,38.2,54.1,38.2,54.2,38.2c-0.1,0.2,0,0.2,0.1,0.2c0,0,0-0.1,0-0.1
		C54.3,38.2,54.3,38.2,54.2,38.2z"/>
	<path fill="#231F20" d="M53.7,38.6c-0.1,0-0.1,0-0.1,0.1c0,0,0.1,0.1,0.1,0.1c0,0,0,0,0-0.1c0,0,0,0,0,0
		C53.8,38.6,53.7,38.6,53.7,38.6z"/>
	<path fill="#231F20" d="M53.3,40c-0.1,0-0.1,0.1,0,0.1c0,0,0.1,0,0.1,0c0.1,0,0.1-0.1,0.1-0.2C53.4,39.9,53.4,39.9,53.3,40z"/>
	<path fill="#231F20" d="M53,38.9C53,38.9,52.9,39,53,38.9C53,39,53,39.1,52.9,39.1c0,0.1,0.1,0.1,0.2,0.1c0.1,0,0.1,0,0.1-0.2
		c0,0,0-0.1-0.1-0.1C53.1,38.9,53.1,38.9,53,38.9z"/>
	<path fill="#231F20" d="M53.6,37.3l0,0.1c0.1,0,0.2,0,0.3-0.1C53.8,37.2,53.7,37.2,53.6,37.3z"/>
	<path fill="#231F20" d="M53.4,35l0,0.2l0.1,0C53.5,35.2,53.5,35.2,53.4,35C53.5,35,53.5,35,53.4,35z"/>
	<path fill="#231F20" d="M54.6,31.8c-0.1,0-0.1,0-0.1,0c0,0,0,0.1,0,0.1c0,0,0,0.1,0.1,0c0,0,0.1,0,0.1,0c0,0,0,0,0-0.1
		C54.7,31.8,54.7,31.8,54.6,31.8z"/>
	<path fill="#231F20" d="M55,33c0,0,0.1,0.1,0.1,0.1c0,0.1,0,0.1,0.1,0.1c0,0,0,0,0-0.1c0-0.1,0-0.1,0-0.2
		C55.1,32.9,55.1,32.9,55,33z"/>
	<path fill="#231F20" d="M55.8,32c0,0.1-0.1,0.2-0.1,0.2c0,0.1-0.1,0.1-0.2,0.1c-0.1,0-0.1,0.1-0.1,0.2c0.1-0.1,0.2-0.1,0.3-0.2
		C55.9,32.3,55.9,32.2,55.8,32C55.9,31.9,55.8,31.9,55.8,32z"/>
	<path fill="#231F20" d="M54.9,32.9c0,0-0.1-0.1-0.2-0.1c0,0,0,0.1,0,0.1c0,0,0,0,0.1,0C54.8,32.9,54.9,32.9,54.9,32.9
		C54.9,32.9,54.9,32.9,54.9,32.9z"/>
	<path fill="#231F20" d="M55.6,24C55.6,23.9,55.6,23.9,55.6,24c0-0.1-0.1-0.2-0.1-0.2c0,0-0.1,0-0.1,0.1C55.4,23.9,55.5,24,55.6,24
		C55.5,24,55.5,24,55.6,24z"/>
	<path fill="#231F20" d="M56,25.6C55.9,25.6,55.9,25.6,56,25.6c-0.1,0.1-0.1,0.2,0,0.2c0,0,0.1,0,0.1,0c0,0,0,0,0-0.1
		C56.1,25.6,56.1,25.6,56,25.6z"/>
	<path fill="#231F20" d="M56.5,32.8c0,0,0,0.1,0,0.1c0,0,0,0.1,0.1,0c0,0,0,0,0-0.1C56.6,32.8,56.6,32.8,56.5,32.8z"/>
	<path fill="#231F20" d="M55.3,27.4C55.2,27.4,55.2,27.4,55.3,27.4c-0.1,0.2-0.1,0.2,0.1,0.2c0,0,0,0,0-0.1
		C55.4,27.4,55.4,27.4,55.3,27.4z"/>
	<path fill="#231F20" d="M55,30.4c0,0,0,0.1,0,0.2c0,0.1,0.1,0.1,0.1,0.1c0.1-0.1,0.2-0.1,0.2-0.3c-0.1-0.1-0.2-0.1-0.3-0.2
		C55.1,30.2,55,30.3,55,30.4z"/>
	<path fill="#231F20" d="M54.9,34.2C54.9,34.2,54.9,34.2,54.9,34.2L54.9,34.2C54.9,34.1,54.9,34.1,54.9,34.2z"/>
	<path fill="#231F20" d="M52.9,40.7C52.9,40.8,52.9,40.8,52.9,40.7c-0.1,0.1-0.1,0.1-0.1,0.1c0,0.1,0.1,0.1,0.2,0.2
		c0,0,0.1,0,0.1-0.1c0,0,0-0.1,0-0.1C53.1,40.8,53,40.8,52.9,40.7z"/>
	<path fill="#231F20" d="M55.1,31.5C55.1,31.5,55,31.5,55.1,31.5c-0.1,0.1,0,0.1,0.1,0.1C55.2,31.6,55.3,31.6,55.1,31.5
		C55.2,31.5,55.2,31.5,55.1,31.5z"/>
	<path fill="#231F20" d="M55.3,31l0,0.1l0,0L55.3,31C55.3,31.1,55.3,31,55.3,31C55.3,31,55.3,31,55.3,31z"/>
	<path fill="#231F20" d="M53.2,32.6C53.2,32.6,53.3,32.6,53.2,32.6c0.1,0,0.1,0,0.1-0.1c0,0,0-0.1-0.1,0
		C53.2,32.5,53.2,32.5,53.2,32.6C53.2,32.6,53.2,32.6,53.2,32.6z"/>
	<path fill="#231F20" d="M54.6,26.7c0,0,0.1-0.1,0.2-0.1c0.1,0,0.1,0,0.1-0.1c0-0.1-0.1-0.1-0.1-0.1c-0.1,0-0.1,0-0.2,0.1
		C54.6,26.6,54.6,26.7,54.6,26.7z"/>
	<path fill="#231F20" d="M54.9,27.9c0-0.1-0.1-0.1-0.1-0.1c-0.1,0.1-0.1,0.1-0.1,0.1C54.6,28,54.7,28,54.9,27.9
		C54.8,28,54.8,28,54.9,27.9z"/>
	<path fill="#231F20" d="M53.1,31.7c0-0.1,0-0.1-0.1-0.1c-0.1,0-0.1,0.1-0.1,0.2C52.9,31.7,52.9,31.8,53.1,31.7
		C53.1,31.8,53.2,31.7,53.1,31.7z"/>
	<path fill="#231F20" d="M54.6,24.5C54.6,24.4,54.6,24.4,54.6,24.5c0.1-0.1,0.1-0.1,0-0.1c0,0-0.1-0.1-0.1-0.1c-0.1,0-0.1,0-0.1,0.1
		C54.5,24.4,54.5,24.5,54.6,24.5z"/>
	<path fill="#231F20" d="M56.6,31.9C56.6,31.9,56.6,31.9,56.6,31.9C56.6,31.9,56.6,31.8,56.6,31.9L56.6,31.9L56.6,31.9
		C56.6,31.9,56.6,31.9,56.6,31.9z"/>
	<path fill="#231F20" d="M55,25C55,25,55,25,55,25c0-0.1-0.1-0.2-0.1-0.2c0,0-0.1,0.1-0.1,0.1C54.9,25.1,54.9,25.1,55,25
		C55,25.1,55,25,55,25z"/>
	<path fill="#231F20" d="M75,39c0.1,0,0.2,0,0.2,0c0.1,0,0.1,0,0.2-0.1l0,0c-0.1,0-0.2,0-0.2,0C75.1,38.9,75.1,39,75,39z"/>
	<path fill="#231F20" d="M55.2,29.3c-0.1,0.1-0.1,0.1-0.1,0.2c0,0,0,0,0.1,0c0,0,0.1,0,0.1-0.1c0,0,0,0,0-0.1
		C55.3,29.3,55.2,29.3,55.2,29.3z"/>
	<path fill="#231F20" d="M56.2,31.9L56.2,31.9C56.3,31.9,56.3,31.9,56.2,31.9l0-0.1L56.2,31.9z"/>
	<path fill="#231F20" d="M56,23.4L56,23.4L56,23.4C56,23.4,56,23.4,56,23.4z"/>
	<path fill="#231F20" d="M55,25.9c0,0.1,0,0.2,0.2,0.1c0.1,0,0.1-0.1,0.1-0.2c0-0.1,0-0.1-0.1-0.1C55,25.8,55,25.8,55,25.9z"/>
	<path fill="#231F20" d="M54.9,32.4c0.1,0,0.1,0,0.1-0.1c0,0-0.1-0.1-0.1,0C54.8,32.2,54.8,32.3,54.9,32.4
		C54.8,32.4,54.8,32.4,54.9,32.4z"/>
	<path fill="#231F20" d="M54,31.4c0.1,0,0.1,0,0.1-0.2c0-0.1-0.1-0.1-0.2,0c-0.1,0-0.1,0.1,0,0.1C53.8,31.4,53.9,31.4,54,31.4z"/>
	<path fill="#231F20" d="M53.8,32C53.8,32.1,53.9,32,53.8,32c0-0.1,0-0.1,0-0.1c0,0,0,0,0,0C53.8,31.9,53.8,32,53.8,32
		C53.8,32.1,53.8,32.1,53.8,32z"/>
	<path fill="#231F20" d="M54.1,30.3c0,0,0.1-0.1,0.1-0.2c0,0-0.1-0.1-0.1-0.1c0,0-0.1-0.1-0.2-0.1c0,0-0.1,0.1-0.1,0.2
		C53.9,30.3,53.9,30.3,54.1,30.3z"/>
	<path fill="#231F20" d="M54.4,29.4c0.1,0,0.2,0,0.2-0.1c0-0.1,0-0.1,0-0.2c-0.1,0-0.1,0.1-0.2,0.1c-0.1,0-0.1,0.1-0.2,0.1
		C54.3,29.4,54.3,29.4,54.4,29.4z"/>
	<path fill="#231F20" d="M56.5,32.3c-0.1,0-0.1,0.1-0.2,0.1c-0.1,0-0.1,0-0.2,0c0,0.2,0,0.2,0.2,0.2c0.1-0.1,0.2-0.1,0.3,0
		c0,0,0.1-0.1,0.1-0.1c0,0,0-0.1,0-0.1C56.7,32.3,56.6,32.3,56.5,32.3z"/>
	<path fill="#231F20" d="M53.1,38.2c-0.1,0-0.1,0,0,0.1c0,0,0.1,0,0.1,0c0,0,0,0,0,0c0,0,0,0,0,0C53.2,38.3,53.2,38.2,53.1,38.2z"/>
	<path fill="#231F20" d="M54.2,33.1c0.1-0.1,0.1-0.1,0.1-0.2c-0.1-0.1-0.1-0.1-0.1-0.2c0-0.1-0.1-0.1-0.2-0.1
		c-0.1,0.1-0.1,0.1,0,0.2c0,0.1,0,0.1,0,0.2C54.1,33.1,54.1,33.1,54.2,33.1z"/>
	<path fill="#231F20" d="M54.2,28.5c0,0,0.1-0.1,0.1-0.1c0,0,0-0.1,0-0.1c-0.1-0.1-0.1-0.1-0.2-0.1c-0.1,0-0.2,0.1-0.1,0.2
		C54,28.5,54,28.5,54.2,28.5z"/>
	<path fill="#231F20" d="M54.2,32.2c0,0-0.1,0-0.1,0c0,0.1,0,0.1,0,0.1c0,0,0.1,0,0.1,0C54.3,32.3,54.3,32.2,54.2,32.2z"/>
	<path fill="#231F20" d="M54.2,27.6c0.1,0,0.1,0,0.1-0.1c0,0-0.1-0.1-0.1,0C54.1,27.5,54.1,27.5,54.2,27.6
		C54.1,27.6,54.1,27.6,54.2,27.6z"/>
	<path fill="#231F20" d="M56.3,24.6C56.3,24.6,56.3,24.6,56.3,24.6L56.3,24.6L56.3,24.6L56.3,24.6z"/>
	<path fill="#231F20" d="M67.9,39.5c0,0,0.1,0,0.1,0c0,0,0,0,0,0c0,0-0.1,0-0.1-0.1C67.9,39.4,67.9,39.5,67.9,39.5z"/>
	<path fill="#231F20" d="M67.7,42.5c-0.1,0-0.2,0.1-0.2,0.2c0,0.2,0.1,0.2,0.2,0.2c0-0.1,0-0.1,0-0.2C67.7,42.6,67.7,42.6,67.7,42.5
		z"/>
	<path fill="#231F20" d="M68.7,35.7L68.7,35.7L68.7,35.7C68.7,35.8,68.7,35.8,68.7,35.7z"/>
	<path fill="#231F20" d="M68.7,36.5C68.7,36.5,68.7,36.5,68.7,36.5c0-0.1,0-0.1,0-0.1c0,0,0,0,0,0c-0.1,0.1-0.1,0.1-0.1,0.1
		C68.5,36.5,68.5,36.6,68.7,36.5C68.6,36.6,68.7,36.5,68.7,36.5z"/>
	<path fill="#231F20" d="M67.7,41.2c-0.1-0.1-0.2-0.1-0.3,0c-0.1,0.1,0,0.2,0.1,0.2C67.6,41.4,67.7,41.3,67.7,41.2z"/>
	<path fill="#231F20" d="M61.7,41C61.6,41,61.6,41,61.7,41c0,0.1,0,0.1,0,0.1c0,0,0,0,0.1,0C61.8,41.1,61.8,41,61.7,41
		C61.7,41,61.7,41,61.7,41z"/>
	<path fill="#231F20" d="M68.4,42.5c0,0-0.1,0-0.1,0.1c0,0-0.1,0-0.1,0.1c0,0,0,0.1,0.1,0.1c0.1,0,0.1,0,0.2-0.1
		C68.5,42.5,68.5,42.5,68.4,42.5z"/>
	<rect x="67.6" y="40" transform="matrix(0.9732 0.2299 -0.2299 0.9732 10.9991 -14.4829)" fill="#231F20" width="0" height="0"/>
	
		<rect x="67.5" y="40.7" transform="matrix(0.9733 0.2297 -0.2297 0.9733 11.1595 -14.4189)" fill="#231F20" width="0" height="0.1"/>
	<path fill="#231F20" d="M67.3,41.8c-0.1,0-0.1,0-0.1,0.1c0,0,0,0,0.1,0.1c0,0,0.1,0,0.1-0.1C67.4,41.8,67.4,41.8,67.3,41.8z"/>
	<path fill="#231F20" d="M69.1,38.2c-0.1,0-0.1,0.1-0.1,0.1c0,0,0,0.1,0.1,0.1c0,0,0,0,0.1-0.1C69.2,38.3,69.2,38.2,69.1,38.2
		C69.2,38.2,69.1,38.2,69.1,38.2z"/>
	<path fill="#231F20" d="M57,23.8C57,23.8,57,23.8,57,23.8c-0.1-0.1-0.1-0.1-0.2-0.1c0,0-0.1,0-0.1,0c0,0-0.1,0,0,0.1l0.2,0.1
		C57,23.9,57,23.9,57,23.8z"/>
	<path fill="#231F20" d="M69.3,40.5L69.3,40.5C69.3,40.5,69.3,40.5,69.3,40.5L69.3,40.5L69.3,40.5z"/>
	<path fill="#231F20" d="M75.4,36.1C75.5,36.1,75.5,36.1,75.4,36.1c0.1-0.1,0-0.1,0-0.1L75.4,36.1C75.4,36.1,75.4,36.1,75.4,36.1z"
		/>
	<path fill="#231F20" d="M61.5,39.4C61.4,39.4,61.4,39.4,61.5,39.4l0,0.1C61.5,39.5,61.5,39.5,61.5,39.4L61.5,39.4z"/>
	<path fill="#231F20" d="M75.5,33.5C75.6,33.5,75.6,33.5,75.5,33.5c0.1,0,0.1,0,0.1-0.1c0-0.1,0-0.1-0.1-0.1c0,0-0.1,0-0.1,0
		C75.5,33.4,75.5,33.4,75.5,33.5C75.5,33.5,75.5,33.5,75.5,33.5C75.5,33.5,75.5,33.5,75.5,33.5z"/>
	<path fill="#231F20" d="M69.1,37.4c0,0-0.1-0.1-0.1-0.1c-0.1,0-0.1,0-0.1,0.1c0,0.1,0,0.1,0.1,0.1C69.1,37.5,69.1,37.5,69.1,37.4z"
		/>
	<path fill="#231F20" d="M68.7,38.7c-0.1,0-0.1,0-0.2,0c0,0.1,0,0.1,0,0.1c0,0.1,0.1,0.1,0.2,0C68.8,38.7,68.8,38.7,68.7,38.7z"/>
	<path fill="#231F20" d="M68.7,39.6C68.7,39.5,68.6,39.5,68.7,39.6c-0.1-0.1-0.1-0.1-0.1,0C68.6,39.6,68.6,39.6,68.7,39.6
		C68.6,39.6,68.6,39.6,68.7,39.6L68.7,39.6z"/>
	<path fill="#231F20" d="M68.6,39.7c0,0.1,0,0.2-0.1,0.2c-0.1,0-0.2,0.1-0.2,0.1c-0.1,0.1-0.1,0.3,0,0.4c0,0.1,0.1,0.1,0.1,0.1
		c0,0,0.1,0,0.1,0c0-0.1,0-0.2,0-0.3C68.6,40,68.6,39.9,68.6,39.7C68.7,39.8,68.7,39.8,68.6,39.7C68.7,39.8,68.7,39.8,68.6,39.7z"/>
	<path fill="#231F20" d="M69.1,35.3C69.1,35.3,69.1,35.3,69.1,35.3c0.1,0,0.1-0.1,0.1-0.2c0,0-0.1,0-0.1,0
		C69.1,35.1,69.1,35.1,69.1,35.3C69.1,35.2,69.1,35.3,69.1,35.3z"/>
	<rect x="76" y="30.5" transform="matrix(0.965 0.2624 -0.2624 0.965 10.6576 -18.865)" fill="#231F20" width="0" height="0"/>
	<path fill="#231F20" d="M59,33.2C59,33.2,58.9,33.2,59,33.2c0,0.1,0,0.2,0.1,0.2c0,0,0,0,0,0C59.1,33.3,59.1,33.3,59,33.2
		C59.1,33.2,59,33.2,59,33.2z"/>
	<path fill="#231F20" d="M61.4,41.8C61.4,41.8,61.3,41.8,61.4,41.8c0,0.1,0,0.1,0,0.2c0,0,0,0.1,0.1,0.1c0,0,0,0,0,0c0,0,0,0,0-0.1
		C61.4,41.9,61.4,41.8,61.4,41.8z"/>
	<path fill="#231F20" d="M59.1,32.7C59.1,32.7,59,32.7,59.1,32.7c0,0.1,0,0.1,0,0.1C59.2,32.8,59.2,32.7,59.1,32.7
		C59.2,32.7,59.1,32.6,59.1,32.7z"/>
	<path fill="#231F20" d="M58.8,32.3c-0.1,0-0.1,0-0.2,0c-0.1,0.1-0.2,0.2-0.2,0.3c0,0.1,0,0.1,0.1,0c0.1-0.1,0.1-0.1,0.2,0
		c0.1,0.1,0.2,0,0.2-0.1C58.9,32.4,58.9,32.4,58.8,32.3z"/>
	<path fill="#231F20" d="M59.3,33.7L59.3,33.7l0.2,0.1l0,0C59.3,33.7,59.3,33.7,59.3,33.7z"/>
	<path fill="#231F20" d="M57.8,32.4c-0.1,0-0.2,0.1-0.2,0.1c0,0.1,0,0.1,0,0.2c0,0.1,0,0.1,0,0.2c0.1,0,0.1-0.1,0.1-0.2
		c0-0.1,0-0.2,0.1-0.2C57.9,32.4,57.9,32.4,57.8,32.4z"/>
	<path fill="#231F20" d="M60,27.4c0-0.2-0.1-0.3-0.2-0.5c-0.1-0.1-0.2-0.3-0.3-0.4c-0.2-0.2-0.4-0.2-0.6-0.3c-0.2,0-0.4-0.1-0.6-0.1
		c-0.1,0-0.2,0-0.3,0.1c-0.1,0-0.2,0-0.3,0c-0.1,0-0.1,0.1-0.2,0.1c0,0.1-0.1,0.1-0.1,0.2c-0.1,0.4-0.2,0.9-0.2,1.4
		c0,0.5-0.1,0.9-0.2,1.4c0.1,0.2,0.1,0.4,0.1,0.5c0,0.2,0.1,0.3,0.3,0.4c0.7,0.2,1.4,0.1,1.9-0.4c0-0.2,0.1-0.3,0.2-0.4
		c0.1-0.1,0.2-0.2,0.2-0.3C59.9,28.5,60,28,60,27.4z"/>
	<path fill="#231F20" d="M57.3,33.3c0,0.1,0,0.1,0,0.2c0.1-0.1,0.2-0.2,0.1-0.3C57.4,33.1,57.3,33.2,57.3,33.3z"/>
	<path fill="#231F20" d="M57.2,32.4C57.2,32.4,57.2,32.4,57.2,32.4L57.2,32.4L57.2,32.4C57.2,32.4,57.2,32.4,57.2,32.4z"/>
	<path fill="#231F20" d="M58.4,33c-0.2,0-0.2,0.1-0.1,0.1c0.1,0.1,0.1,0.2,0.1,0.2c0.1,0.1,0.1,0.1,0.1,0.1c0-0.1,0-0.2-0.1-0.2
		C58.3,33.2,58.3,33.1,58.4,33z"/>
	<polygon fill="#231F20" points="58.8,34.4 58.8,34.4 58.8,34.4 	"/>
	<path fill="#231F20" d="M57.9,31.7C57.8,31.6,57.8,31.6,57.9,31.7c-0.2,0-0.2,0-0.2,0C57.7,31.7,57.7,31.8,57.9,31.7
		C57.8,31.7,57.9,31.7,57.9,31.7z"/>
	<path fill="#231F20" d="M60.8,41.6c-0.1,0-0.1,0-0.1,0.1c0,0,0.1,0.1,0.2,0.1c0,0,0-0.1,0-0.1C60.9,41.7,60.8,41.6,60.8,41.6z"/>
	<path fill="#231F20" d="M60.8,32.7C60.8,32.7,60.8,32.6,60.8,32.7c-0.1-0.1-0.1-0.1-0.1,0C60.7,32.7,60.7,32.7,60.8,32.7
		C60.8,32.7,60.8,32.7,60.8,32.7z"/>
	<path fill="#231F20" d="M60.9,37c-0.1,0-0.1,0-0.1,0l0,0.1l0.1,0C61,37.1,61,37.1,60.9,37z"/>
	<path fill="#231F20" d="M61.1,38.6c0-0.1,0-0.1,0-0.2c0-0.1,0-0.1-0.1-0.1c-0.1,0-0.1,0.1-0.1,0.2C60.9,38.6,61,38.7,61.1,38.6
		C61.1,38.7,61.1,38.7,61.1,38.6z"/>
	<path fill="#231F20" d="M61.3,40.6c-0.1,0.1-0.2,0.2-0.3,0.4c0,0.1,0.1,0.1,0.2,0.1c0.1,0,0.1-0.1,0.1-0.1c0-0.1,0-0.1,0.1-0.2
		C61.3,40.6,61.3,40.6,61.3,40.6z"/>
	<path fill="#231F20" d="M57,32.9C56.9,32.9,56.9,33,57,32.9c0,0.1,0,0.1,0,0.1c0,0,0,0,0.1,0C57,33,57,33,57,32.9
		C57,33,57.1,33,57,32.9C57,32.9,57,32.9,57,32.9z"/>
	<path fill="#231F20" d="M60.4,36.1C60.4,36.1,60.3,36.1,60.4,36.1c-0.1,0-0.1,0-0.1,0.1L60.4,36.1C60.3,36.2,60.3,36.1,60.4,36.1
		C60.4,36.1,60.4,36.1,60.4,36.1z"/>
	<path fill="#231F20" d="M59.8,32.2l0,0.1c0.1,0,0.2,0,0.2,0c0,0,0.1,0,0.1,0c0,0,0-0.1,0-0.1C60.1,32.2,60,32.2,59.8,32.2z"/>
	<path fill="#231F20" d="M60.3,39.7c0,0.1,0,0.1,0.1,0.1c0,0,0-0.1-0.1-0.2L60.3,39.7z"/>
</g>
</svg>
