<?xml version="1.0" encoding="utf-8"?>
<!-- Generator: Adobe Illustrator 18.1.0, SVG Export Plug-In . SVG Version: 6.00 Build 0)  -->
<!DOCTYPE svg PUBLIC "-//W3C//DTD SVG 1.1//EN" "http://www.w3.org/Graphics/SVG/1.1/DTD/svg11.dtd">
<svg version="1.1" id="Layer_1" xmlns="http://www.w3.org/2000/svg" xmlns:xlink="http://www.w3.org/1999/xlink" x="0px" y="0px"
	 width="110px" height="95.1px" viewBox="0 0 110 95.1" enable-background="new 0 0 110 95.1" xml:space="preserve">
<g>
	<path fill="#231F20" d="M60.5,82.6c8.2,16,31.4,12.1,31.4,12.1c-8.2-2.7-8.1-12.6-8-14.6c-0.9,0.2-1.7,0.4-2.7,0.6
		C75.5,81.8,68.1,82.4,60.5,82.6z"/>
	<path fill="#231F20" d="M51.1,46C51.1,46,51.1,46,51.1,46C51,46,51,46.1,51.1,46c-0.1,0.1,0,0.1,0,0.1c0,0,0.1,0,0.1,0
		C51.2,46.1,51.2,46.1,51.1,46C51.2,46,51.2,46,51.1,46z"/>
	<path fill="#231F20" d="M46,51.8C46,51.9,45.9,51.9,46,51.8c0,0.1,0,0.1,0.1,0.1C46.1,52,46.2,52,46,51.8
		C46.1,51.9,46,51.8,46,51.8z"/>
	<rect x="39.1" y="37.1" fill="#231F20" width="0.1" height="0.1"/>
	<rect x="38" y="38.4" fill="#231F20" width="0" height="0"/>
	<path fill="#231F20" d="M42.5,39.8C42.5,39.8,42.5,39.8,42.5,39.8c0.1,0,0.1,0,0.1,0L42.5,39.8C42.5,39.7,42.5,39.8,42.5,39.8z"/>
	<path fill="#231F20" d="M42.1,38.8C42.1,38.8,42.1,38.9,42.1,38.8L42.1,38.8L42.1,38.8C42.1,38.8,42.1,38.8,42.1,38.8z"/>
	<rect x="59.6" y="53.4" fill="#231F20" width="0" height="0"/>
	<path fill="#231F20" d="M61.6,62.2C61.5,62.2,61.5,62.2,61.6,62.2c0,0.1,0,0.1,0,0.1l0.1-0.1C61.7,62.2,61.7,62.2,61.6,62.2z"/>
	<path fill="#231F20" d="M61.3,62.8C61.3,62.8,61.2,62.8,61.3,62.8C61.3,62.9,61.3,62.9,61.3,62.8L61.3,62.8
		C61.3,62.8,61.3,62.7,61.3,62.8z"/>
	<path fill="#231F20" d="M57.2,54L57.2,54L57.2,54L57.2,54C57.2,54.1,57.2,54.1,57.2,54z"/>
	<path fill="#231F20" d="M57.1,54.5C57.1,54.5,57.1,54.5,57.1,54.5L57.1,54.5c0.1,0.1,0.1,0.1,0.1,0.1
		C57.3,54.6,57.3,54.5,57.1,54.5C57.2,54.5,57.2,54.5,57.1,54.5z"/>
	<path fill="#231F20" d="M58.2,53.7C58.1,53.7,58.1,53.8,58.2,53.7c0,0.1,0,0.1,0,0.1c0,0,0,0,0.1,0c0,0,0,0,0-0.1
		C58.3,53.7,58.2,53.7,58.2,53.7z"/>
	<path fill="#231F20" d="M54.1,54c-0.1,0.1-0.1,0.1-0.1,0.2c0,0,0.1,0,0.1,0c0,0,0.1,0,0.1,0c0,0,0,0,0-0.1
		C54.2,54.1,54.1,54,54.1,54z"/>
	<path fill="#231F20" d="M25.8,52.8C25.7,52.9,25.7,52.9,25.8,52.8c0,0.1,0,0.1,0,0.1c0,0,0,0,0,0c0,0,0.1,0,0.1-0.1
		C25.8,52.8,25.8,52.8,25.8,52.8z"/>
	<path fill="#231F20" d="M26.6,49.1L26.6,49.1C26.7,49.1,26.7,49.1,26.6,49.1C26.7,49.1,26.7,49.1,26.6,49.1L26.6,49.1L26.6,49.1z"
		/>
	<path fill="#231F20" d="M28.8,50C28.8,50,28.8,50,28.8,50c0.1,0,0.1,0,0.2,0c0,0,0,0,0-0.1c0,0-0.1-0.1-0.1,0
		C28.8,49.9,28.8,49.9,28.8,50z"/>
	<path fill="#231F20" d="M31.9,45.9L31.9,45.9L31.9,45.9C31.9,45.9,31.9,45.8,31.9,45.9L31.9,45.9z"/>
	<path fill="#231F20" d="M30.7,50.5C30.7,50.5,30.7,50.5,30.7,50.5L30.7,50.5L30.7,50.5z"/>
	<path fill="#231F20" d="M89.4,26.7L89.4,26.7L89.4,26.7C89.4,26.7,89.4,26.7,89.4,26.7z"/>
	<path fill="#231F20" d="M85.4,25.2C85.5,25.2,85.5,25.2,85.4,25.2L85.4,25.2L85.4,25.2L85.4,25.2C85.4,25.3,85.4,25.2,85.4,25.2z"
		/>
	<rect x="38" y="62.2" fill="#231F20" width="0" height="0"/>
	<rect x="39.1" y="60.9" fill="#231F20" width="0.1" height="0.1"/>
	<path fill="#231F20" d="M38.4,61.2c0,0-0.1,0-0.1,0c-0.1,0.1-0.1,0.2-0.1,0.3c0,0,0,0,0.1,0C38.4,61.5,38.5,61.4,38.4,61.2
		C38.5,61.2,38.4,61.2,38.4,61.2z"/>
	<path fill="#231F20" d="M38.4,60.2C38.4,60.2,38.4,60.2,38.4,60.2L38.4,60.2L38.4,60.2C38.5,60.2,38.5,60.2,38.4,60.2
		C38.5,60.2,38.5,60.2,38.4,60.2C38.5,60.2,38.4,60.2,38.4,60.2z"/>
	<path fill="#231F20" d="M41.3,61.8C41.3,61.9,41.3,61.9,41.3,61.8c0,0.1,0,0.1,0,0.1c0.1,0,0.1,0,0.1-0.1
		C41.4,61.8,41.3,61.8,41.3,61.8z"/>
	<path fill="#231F20" d="M42.1,62.7C42.1,62.7,42.1,62.7,42.1,62.7L42.1,62.7L42.1,62.7C42.1,62.7,42.1,62.7,42.1,62.7z"/>
	<path fill="#231F20" d="M42.5,63.6C42.5,63.6,42.5,63.7,42.5,63.6c0.1,0,0.1,0,0.1,0L42.5,63.6C42.5,63.6,42.5,63.6,42.5,63.6z"/>
	<path fill="#231F20" d="M26.6,25.3L26.6,25.3C26.7,25.3,26.7,25.2,26.6,25.3C26.7,25.2,26.7,25.2,26.6,25.3L26.6,25.3L26.6,25.3z"
		/>
	<path fill="#231F20" d="M31.9,22.1L31.9,22.1L31.9,22.1C31.9,22,31.9,22,31.9,22.1L31.9,22.1z"/>
	<path fill="#231F20" d="M30.7,26.7C30.7,26.7,30.7,26.7,30.7,26.7L30.7,26.7L30.7,26.7z"/>
	<path fill="#231F20" d="M68,37.1C68,37.1,68,37.2,68,37.1L68,37.1C68.1,37.2,68.1,37.1,68,37.1C68.1,37.1,68,37.1,68,37.1z"/>
	<path fill="#231F20" d="M77.4,62.8C77.4,62.8,77.4,62.8,77.4,62.8C77.4,62.9,77.4,62.9,77.4,62.8L77.4,62.8
		C77.5,62.8,77.4,62.7,77.4,62.8z"/>
	<path fill="#231F20" d="M76.2,54.2l-0.1-0.1C76.1,54.1,76.2,54.2,76.2,54.2z"/>
	<path fill="#231F20" d="M67.2,22.2C67.2,22.2,67.2,22.2,67.2,22.2C67.2,22.2,67.2,22.2,67.2,22.2c-0.1,0.1,0,0.1,0,0.1
		c0,0,0.1,0,0.1,0C67.4,22.3,67.4,22.2,67.2,22.2C67.3,22.2,67.3,22.2,67.2,22.2z"/>
	<path fill="#231F20" d="M87,62.5C86.9,62.4,86.9,62.4,87,62.5c-0.1,0-0.2,0-0.2,0.1C86.8,62.6,86.8,62.6,87,62.5
		C87,62.6,87,62.6,87,62.5z"/>
	<polygon fill="#231F20" points="88.1,52 88,52 88.1,52 	"/>
	<path fill="#231F20" d="M86.5,62.4C86.5,62.4,86.5,62.4,86.5,62.4C86.5,62.4,86.5,62.3,86.5,62.4c0-0.2,0-0.2-0.1-0.2
		C86.3,62.3,86.3,62.4,86.5,62.4z"/>
	<rect x="87.3" y="62.7" fill="#231F20" width="0" height="0.1"/>
	<path fill="#231F20" d="M90,48.7c0-0.1-0.1-0.1-0.1,0c0,0,0,0.1,0.1,0.1C90,48.8,90.1,48.8,90,48.7z"/>
	<path fill="#231F20" d="M85.9,62.2L85.9,62.2c0-0.1,0-0.1,0-0.1C85.9,62,85.8,62.1,85.9,62.2C85.8,62.2,85.9,62.2,85.9,62.2z"/>
	<path fill="#231F20" d="M88.8,51.9L88.8,51.9L88.8,51.9C88.8,51.9,88.8,51.9,88.8,51.9z"/>
	<path fill="#231F20" d="M85.4,52.5C85.4,52.5,85.4,52.5,85.4,52.5c0.1,0,0.1-0.1,0.1-0.2c0,0,0,0-0.1,0
		C85.4,52.4,85.3,52.4,85.4,52.5L85.4,52.5z"/>
	<path fill="#231F20" d="M85.4,49.1C85.5,49.1,85.5,49.1,85.4,49.1L85.4,49.1L85.4,49.1L85.4,49.1C85.4,49.1,85.4,49.1,85.4,49.1z"
		/>
	<path fill="#231F20" d="M81.2,5.7c-13.8-2.4-35.5-2.2-49,0c-12.8,2.1-21,10.8-23.6,23.6c-1.4,6.8-1.4,18.7,0,27.9
		c1.9,12.9,10.9,20.7,23.6,23.6c7.1,1.6,17.8,2.1,28.3,1.9c0,0,0,0,0-0.1l23.4-2.7c0,0,0,0.1,0,0.3c11.3-2.9,18.8-11.1,20.9-23
		c1.4-7.6,1.4-20.6,0-27.9C102.4,16.5,94,8,81.2,5.7z M80.6,21.2c0.3-0.2,0.6-0.3,1-0.3c0.4,0,0.7,0,1,0c0.1-0.1,0.2-0.1,0.3,0
		c0.1,0,0.2,0.1,0.3,0c0.2,0,0.4,0.1,0.6,0c0.2,0,0.4,0,0.6,0c0.2,0,0.4,0,0.5,0c0.2,0,0.3,0.1,0.5,0.3c0.2,0.2,0.3,0.3,0.3,0.6
		c0,0.2,0.1,0.4,0.2,0.6c0,0.2,0.1,0.4,0.2,0.6c0.1,0.2,0.1,0.4,0.1,0.7c0.1,0.2,0.2,0.3,0.1,0.5c0,0.2,0,0.4,0.1,0.5
		c0,0.2,0.1,0.3,0.1,0.5c0,0.2,0.2,0.3,0.3,0.4c0.1,0,0.2,0,0.3-0.1c0-0.1,0.1-0.2,0.2-0.3c-0.1-0.2-0.1-0.4,0-0.6
		c0.1-0.2,0.1-0.4,0.1-0.6c0-0.3,0-0.5,0.2-0.7c0.1-0.2,0.2-0.4,0.1-0.7c0-0.2,0-0.3,0.1-0.4c0.1-0.1,0.1-0.3,0.2-0.4
		c0-0.2,0.1-0.3,0.2-0.4c0.1-0.1,0.2-0.2,0.3-0.3c0.1-0.1,0.3-0.1,0.4-0.1c0.2,0,0.3,0,0.4-0.1c0.2,0,0.3,0,0.5,0.1
		c0.2,0.1,0.3,0.1,0.5,0c0.3,0,0.5,0,0.7,0c0.2,0.1,0.5,0.1,0.7,0c0.1,0,0.2,0,0.3,0c0.1,0,0.2,0,0.3,0.1c0.3-0.1,0.5,0,0.6,0.1
		c0.1,0.1,0.2,0.2,0.2,0.4c0,0.1,0,0.3,0.1,0.4c-0.2,0.4-0.3,0.7-0.4,1.1c-0.1,0.4-0.3,0.7-0.5,1c0,0.2-0.1,0.4-0.2,0.6
		c-0.1,0.2-0.2,0.4-0.2,0.6c-0.1,0.1-0.1,0.2-0.2,0.3c0,0.1-0.1,0.2-0.2,0.3c0,0.2-0.1,0.5-0.2,0.7c-0.1,0.2-0.2,0.4-0.3,0.6
		c-0.1,0.2-0.2,0.3-0.2,0.5c0,0.2-0.1,0.3-0.3,0.5c-0.1,0.3-0.2,0.6-0.3,0.8c-0.1,0.3-0.2,0.5-0.3,0.8c-0.1,0.3-0.2,0.7-0.4,1
		c-0.2,0.3-0.3,0.6-0.3,1c-0.1,0.4-0.1,0.9-0.1,1.3c0,0.4,0,0.9,0.1,1.3c0,0.1,0,0.3,0,0.4c0,0.1,0,0.3-0.1,0.4
		c0.1,0.3,0.1,0.6,0.1,0.9c0,0.3-0.1,0.6,0,0.9c0.1,0.2,0.1,0.4,0,0.6c-0.1,0.2-0.1,0.4-0.1,0.6v2c0,0.2-0.1,0.3-0.3,0.4
		c-0.2,0.1-0.3,0.2-0.5,0.3H86c-0.2,0-0.4,0.1-0.6,0.1c-0.2,0-0.4,0-0.6-0.1c-0.3-0.2-0.5-0.5-0.6-0.8c-0.1-0.3-0.1-0.7-0.1-1.1
		c0-0.1,0-0.2,0-0.3c0-0.1,0.1-0.2,0.1-0.3c0-0.2,0-0.5,0-0.7c-0.1-0.2,0-0.4,0-0.7c0-0.2,0-0.4,0-0.6c0.1-0.2,0.1-0.4,0-0.6l0-2.1
		c0.1-0.3,0.1-0.6,0.1-0.9c-0.1-0.3-0.1-0.6,0-0.9c0-0.1-0.1-0.3-0.1-0.4c0-0.1-0.1-0.3-0.2-0.4c-0.1-0.3-0.2-0.6-0.4-0.9
		c-0.1-0.3-0.2-0.6-0.3-0.9c-0.1-0.2-0.2-0.4-0.3-0.6c-0.1-0.2-0.2-0.4-0.3-0.6c-0.1-0.3-0.2-0.7-0.3-0.9c-0.1-0.3-0.2-0.6-0.3-0.9
		c-0.2-0.3-0.3-0.6-0.4-0.9c-0.1-0.3-0.2-0.6-0.3-1c0-0.1-0.1-0.2-0.2-0.3c-0.1-0.1-0.2-0.2-0.2-0.3c-0.1-0.2-0.2-0.4-0.3-0.7
		c0-0.2-0.2-0.5-0.3-0.7c-0.1-0.2-0.1-0.3-0.1-0.5C80.3,21.5,80.4,21.3,80.6,21.2z M19,18c-1.6,1.8-2.9,3.8-3.9,5.9
		c-2,4.4-2.9,9.2-3.2,14.1c-0.3-4.9,0.2-9.9,2.1-14.6c1-2.3,2.3-4.5,4-6.4c1.7-1.9,3.6-3.5,5.8-4.8c2.2-1.3,4.4-2.3,6.8-3.1
		c2.4-0.7,4.9-1.1,7.3-1.4c4.9-0.6,9.8-0.7,14.7-0.7c-4.9,0.6-9.7,1-14.5,1.8c-2.4,0.4-4.8,0.9-7.1,1.6c-2.2,0.7-4.5,1.8-6.5,3
		C22.4,14.7,20.6,16.2,19,18z M34,46.7c-0.1,0.4-0.3,0.7-0.5,1c0,0.2-0.1,0.4-0.2,0.6c-0.1,0.2-0.2,0.4-0.2,0.6
		C33,49.1,33,49.2,33,49.3c0,0.1-0.1,0.2-0.2,0.3c0,0.2-0.1,0.5-0.2,0.7c-0.1,0.2-0.2,0.4-0.3,0.6c-0.1,0.2-0.2,0.3-0.2,0.5
		c0,0.2-0.1,0.3-0.3,0.5c-0.1,0.3-0.2,0.6-0.3,0.8c-0.1,0.3-0.2,0.5-0.3,0.8c-0.1,0.3-0.2,0.7-0.4,1c-0.2,0.3-0.3,0.6-0.3,1
		c-0.1,0.4-0.1,0.9-0.1,1.3c0,0.4,0,0.9,0.1,1.3c0,0.1,0,0.3,0,0.4c0,0.1,0,0.3-0.1,0.4c0.1,0.3,0.1,0.6,0.1,0.9
		c-0.1,0.3-0.1,0.6,0,0.9c0.1,0.2,0.1,0.4,0,0.6c0,0.2-0.1,0.4-0.1,0.6v2c0,0.2-0.1,0.3-0.3,0.4c-0.1,0.1-0.3,0.2-0.5,0.3h-2.4
		c-0.2,0-0.4,0.1-0.6,0.1c-0.2,0-0.4,0-0.6-0.1c-0.3-0.2-0.5-0.5-0.6-0.8c-0.1-0.3-0.1-0.7-0.1-1.1c0-0.1,0-0.2,0-0.3
		c0-0.1,0.1-0.2,0.1-0.3c0-0.2,0-0.5,0-0.7c-0.1-0.2,0-0.4,0-0.7c0-0.2,0-0.4,0-0.6c0.1-0.2,0.1-0.4,0-0.6l0-2.1
		c0.1-0.3,0.1-0.6,0.1-0.9c-0.1-0.3-0.1-0.6,0-0.9c0-0.1-0.1-0.3-0.1-0.4c0-0.1-0.1-0.3-0.2-0.4c-0.1-0.3-0.2-0.6-0.4-0.9
		c-0.1-0.3-0.2-0.6-0.3-0.9c-0.1-0.2-0.2-0.4-0.3-0.6c-0.1-0.2-0.2-0.4-0.3-0.6c-0.1-0.3-0.2-0.7-0.3-0.9c-0.1-0.3-0.2-0.6-0.3-0.9
		c-0.2-0.3-0.3-0.6-0.4-0.9c-0.1-0.3-0.2-0.6-0.3-1c0-0.1-0.1-0.2-0.2-0.3c-0.1-0.1-0.2-0.2-0.2-0.3c-0.1-0.2-0.2-0.4-0.3-0.7
		c-0.1-0.2-0.2-0.5-0.3-0.7c-0.1-0.2-0.1-0.3-0.1-0.5c0-0.2,0.1-0.4,0.2-0.5c0.3-0.2,0.6-0.3,1-0.3c0.4,0,0.7,0,1,0
		c0.1-0.1,0.2-0.1,0.3,0c0.1,0,0.2,0.1,0.3,0c0.2,0,0.4,0,0.6,0c0.2,0,0.4,0,0.6,0c0.2,0,0.4,0,0.5,0c0.2,0,0.3,0.1,0.5,0.3
		c0.2,0.2,0.3,0.3,0.3,0.6c0,0.2,0.1,0.4,0.2,0.6c0,0.2,0.1,0.4,0.2,0.6c0.1,0.2,0.1,0.4,0.1,0.7c0.1,0.2,0.2,0.3,0.2,0.5
		c0,0.2,0,0.4,0.1,0.5c0,0.2,0.1,0.3,0.1,0.5c0.1,0.2,0.2,0.3,0.3,0.4c0.1,0,0.2,0,0.3-0.1c0.1-0.1,0.1-0.2,0.2-0.3
		c-0.1-0.2-0.1-0.4,0-0.6c0.1-0.2,0.1-0.4,0.1-0.6c0-0.3,0-0.5,0.1-0.7c0.1-0.2,0.2-0.4,0.2-0.7c0-0.2,0-0.3,0.1-0.4
		c0.1-0.1,0.1-0.3,0.2-0.4c0-0.2,0.1-0.3,0.2-0.4c0.1-0.1,0.2-0.2,0.3-0.3c0.1-0.1,0.3-0.1,0.4-0.1c0.2,0,0.3,0,0.4-0.1
		c0.2,0,0.3,0,0.5,0.1c0.2,0.1,0.3,0.1,0.5,0c0.3,0,0.5,0,0.7,0c0.2,0.1,0.5,0.1,0.7,0c0.1,0,0.2,0,0.3,0c0.1,0,0.2,0,0.3,0.1
		c0.3-0.1,0.5,0,0.6,0.1c0.1,0.1,0.2,0.2,0.2,0.4c0,0.2,0,0.3,0.1,0.4C34.3,46,34.2,46.3,34,46.7z M34,22.9c-0.1,0.4-0.3,0.7-0.5,1
		c0,0.2-0.1,0.4-0.2,0.6c-0.1,0.2-0.2,0.4-0.2,0.6C33,25.2,33,25.3,33,25.5c0,0.1-0.1,0.2-0.2,0.3c0,0.2-0.1,0.5-0.2,0.7
		c-0.1,0.2-0.2,0.4-0.3,0.6c-0.1,0.2-0.2,0.3-0.2,0.5c0,0.2-0.1,0.3-0.3,0.5c-0.1,0.3-0.2,0.6-0.3,0.8c-0.1,0.3-0.2,0.5-0.3,0.8
		c-0.1,0.3-0.2,0.7-0.4,1c-0.2,0.3-0.3,0.6-0.3,1c-0.1,0.4-0.1,0.9-0.1,1.3c0,0.4,0,0.9,0.1,1.3c0,0.1,0,0.3,0,0.4
		c0,0.1,0,0.3-0.1,0.4c0.1,0.3,0.1,0.6,0.1,0.9c-0.1,0.3-0.1,0.6,0,0.9c0.1,0.2,0.1,0.4,0,0.6c0,0.2-0.1,0.4-0.1,0.6v2
		c0,0.2-0.1,0.3-0.3,0.4c-0.1,0.1-0.3,0.2-0.5,0.3h-2.4c-0.2,0-0.4,0.1-0.6,0.1c-0.2,0-0.4,0-0.6-0.1c-0.3-0.2-0.5-0.5-0.6-0.8
		c-0.1-0.3-0.1-0.7-0.1-1.1c0-0.1,0-0.2,0-0.3c0-0.1,0.1-0.2,0.1-0.3c0-0.2,0-0.5,0-0.7c-0.1-0.2,0-0.4,0-0.7c0-0.2,0-0.4,0-0.6
		c0.1-0.2,0.1-0.4,0-0.6l0-2.1c0.1-0.3,0.1-0.6,0.1-0.9c-0.1-0.3-0.1-0.6,0-0.9c0-0.1-0.1-0.3-0.1-0.4c0-0.1-0.1-0.3-0.2-0.4
		c-0.1-0.3-0.2-0.6-0.4-0.9c-0.1-0.3-0.2-0.6-0.3-0.9c-0.1-0.2-0.2-0.4-0.3-0.6c-0.1-0.2-0.2-0.4-0.3-0.6c-0.1-0.3-0.2-0.7-0.3-0.9
		c-0.1-0.3-0.2-0.6-0.3-0.9c-0.2-0.3-0.3-0.6-0.4-0.9c-0.1-0.3-0.2-0.6-0.3-1c0-0.1-0.1-0.2-0.2-0.3c-0.1-0.1-0.2-0.2-0.2-0.3
		c-0.1-0.2-0.2-0.4-0.3-0.7c-0.1-0.2-0.2-0.5-0.3-0.7c-0.1-0.2-0.1-0.3-0.1-0.5c0-0.2,0.1-0.4,0.2-0.5c0.3-0.2,0.6-0.3,1-0.3
		c0.4,0,0.7,0,1,0c0.1-0.1,0.2-0.1,0.3,0c0.1,0,0.2,0.1,0.3,0c0.2,0,0.4,0.1,0.6,0c0.2,0,0.4,0,0.6,0c0.2,0,0.4,0,0.5,0
		c0.2,0,0.3,0.1,0.5,0.3c0.2,0.2,0.3,0.3,0.3,0.6c0,0.2,0.1,0.4,0.2,0.6c0,0.2,0.1,0.4,0.2,0.6c0.1,0.2,0.1,0.4,0.1,0.7
		c0.1,0.2,0.2,0.3,0.2,0.5c0,0.2,0,0.4,0.1,0.5c0,0.2,0.1,0.3,0.1,0.5c0.1,0.2,0.2,0.3,0.3,0.4c0.1,0,0.2,0,0.3-0.1
		c0.1-0.1,0.1-0.2,0.2-0.3c-0.1-0.2-0.1-0.4,0-0.6c0.1-0.2,0.1-0.4,0.1-0.6c0-0.3,0-0.5,0.1-0.7c0.1-0.2,0.2-0.4,0.2-0.7
		c0-0.2,0-0.3,0.1-0.4c0.1-0.1,0.1-0.3,0.2-0.4c0-0.2,0.1-0.3,0.2-0.4c0.1-0.1,0.2-0.2,0.3-0.3c0.1-0.1,0.3-0.1,0.4-0.1
		c0.2,0,0.3,0,0.4-0.1c0.2,0,0.3,0,0.5,0.1c0.2,0.1,0.3,0.1,0.5,0c0.3,0,0.5,0,0.7,0c0.2,0.1,0.5,0.1,0.7,0c0.1,0,0.2,0,0.3,0
		c0.1,0,0.2,0,0.3,0.1c0.3-0.1,0.5,0,0.6,0.1c0.1,0.1,0.2,0.2,0.2,0.4c0,0.1,0,0.3,0.1,0.4C34.3,22.2,34.2,22.5,34,22.9z M47.4,51.4
		c0,0.2,0,0.4-0.1,0.5c0.1,0.3,0.2,0.6,0.2,1c0,0.4,0,0.7,0,1.1c0,0.2-0.1,0.4-0.1,0.5c0,0.2,0,0.4,0.1,0.5c0,0.2,0,0.4,0,0.6
		c0.1,0.2,0.1,0.4,0,0.6c0,0.2,0,0.4,0,0.6c0.1,0.2,0.1,0.4,0,0.6c0,0.2-0.1,0.4,0,0.7c0,0.2,0,0.5-0.1,0.6v1.3
		c-0.1,0.2-0.2,0.4-0.2,0.6c-0.1,0.2-0.1,0.4-0.2,0.6c-0.1,0.2-0.1,0.4-0.2,0.6c-0.1,0.2-0.2,0.4-0.4,0.5c-0.1,0.1-0.2,0.2-0.3,0.4
		c-0.1,0.1-0.2,0.3-0.3,0.4c-0.3,0.3-0.7,0.5-1,0.8c-0.3,0.3-0.6,0.4-1,0.5c-0.3,0.2-0.5,0.3-0.8,0.2c-0.2,0-0.4,0.1-0.5,0.1
		c-0.2,0.1-0.4,0.1-0.5,0c-0.2,0-0.4-0.1-0.7,0c-0.2,0-0.4,0-0.7,0.1c-0.2,0-0.4-0.1-0.6-0.2c-0.2-0.1-0.4-0.2-0.6-0.1
		c-0.1,0-0.3,0-0.4-0.1c-0.1-0.1-0.2-0.1-0.4-0.1c-0.3-0.1-0.5-0.2-0.8-0.4c-0.3-0.2-0.5-0.4-0.8-0.6c-0.2-0.1-0.3-0.2-0.4-0.3
		c-0.1-0.1-0.2-0.3-0.3-0.4c-0.1-0.2-0.1-0.3-0.2-0.5c-0.1-0.2-0.1-0.3-0.2-0.4c-0.1-0.2-0.2-0.4-0.3-0.6c-0.1-0.2-0.1-0.4-0.1-0.6
		c0-0.3-0.1-0.5-0.1-0.8c0-0.3,0-0.5,0-0.8c-0.1-0.2-0.1-0.3,0-0.5c0.1-0.2,0-0.3-0.1-0.5c0-0.1,0-0.3,0-0.4c0-0.2,0-0.3-0.1-0.5
		c0-0.1,0-0.3,0-0.4c0-0.2,0-0.3,0.1-0.4c-0.1-0.2-0.1-0.5,0-0.7c0-0.2,0.1-0.5,0.1-0.7c0.1-0.2,0.1-0.3,0-0.5
		c-0.1-0.2-0.1-0.3,0-0.5c-0.1-0.4-0.1-0.8,0-1.3c0-0.2,0-0.3,0-0.5c0-0.2,0-0.4,0-0.5c0-0.2,0-0.3,0-0.4c0-0.1,0-0.3,0-0.4
		c0-0.2,0.1-0.3,0-0.5c0-0.2,0-0.3-0.1-0.5c0.1-0.2,0.1-0.4,0-0.6c0-0.2,0-0.4,0-0.6c0-0.1,0-0.2,0-0.3c0-0.1,0-0.2,0-0.3
		c0-0.2,0-0.4,0-0.6c0-0.2,0-0.3,0-0.5c0-0.2,0-0.5,0-0.7c0-0.2,0.1-0.5,0.2-0.7c0.2-0.2,0.4-0.3,0.6-0.3c0.2,0,0.5,0,0.7-0.1
		c0.1,0,0.3,0,0.4,0c0.2,0,0.3,0,0.4,0c0.2,0,0.4,0.1,0.7,0c0.2,0,0.5,0,0.7,0.1c0.1,0,0.3,0,0.4,0c0.1,0,0.2,0.1,0.3,0.3
		c0,0.2,0.1,0.3,0.2,0.5c0.1,0.2,0.1,0.3,0.1,0.5c0,0.2,0,0.4,0,0.7c0,0.2,0,0.5,0.1,0.7c0,0.3,0,0.6,0,0.9c-0.1,0.3-0.1,0.6,0,0.9
		c-0.1,0.2-0.1,0.4,0,0.6c0.1,0.2,0.1,0.4,0.1,0.6c0,0.3,0,0.5-0.1,0.8c0,0.2,0,0.5,0,0.7c0,0.2-0.1,0.5,0,0.7c0,0.3,0,0.5-0.1,0.7
		c0,0.2,0,0.5,0,0.7c0,0.2,0,0.5,0,0.7c0,0.2,0,0.5,0,0.7c0,0.3,0,0.5,0.1,0.7c0,0.1,0,0.3,0,0.4c0,0.1,0,0.3,0,0.4
		c0,0.3,0,0.5,0,0.8c0,0.3,0,0.5,0.1,0.8c0,0.5,0.1,0.9,0.2,1.3c0.1,0.2,0.3,0.3,0.4,0.4c0.2,0.1,0.3,0.2,0.5,0.2
		c0.1,0.1,0.2,0.1,0.4,0c0.1-0.1,0.2-0.1,0.4-0.1c0.3-0.3,0.5-0.5,0.6-0.8c0.2-0.3,0.2-0.6,0.3-1c0-0.2,0-0.4,0-0.6
		c0-0.2,0-0.4,0-0.7c-0.1-0.2-0.1-0.4-0.1-0.6c0.1-0.2,0.1-0.4,0-0.6c0.1-0.2,0.1-0.5,0.1-0.7c0-0.2,0-0.5,0-0.8
		c0.1-0.2,0.1-0.3,0.1-0.5c-0.1-0.1-0.1-0.3-0.1-0.5c-0.1-0.3-0.1-0.7-0.1-1.1c0-0.4,0-0.8,0.1-1.1c-0.1-0.3-0.1-0.7,0-1.1
		c0-0.4,0-0.7-0.1-1.1c0-0.2,0.1-0.4,0.1-0.6c0-0.2,0-0.4,0-0.6c-0.1-0.2-0.1-0.5,0-0.7c0-0.2,0-0.5,0-0.8c0-0.2,0-0.4,0-0.6
		c0-0.2,0-0.4,0.1-0.6c0-0.2,0.1-0.4,0.2-0.5c0.1-0.1,0.3-0.2,0.5-0.3c0.2,0,0.3,0,0.5,0c0.2,0,0.3,0,0.5,0.1c0.2,0,0.3,0,0.5,0.1
		c0.2,0,0.3,0,0.5,0c0.1,0,0.3,0,0.5,0c0.2,0,0.4,0,0.5,0c0.2,0,0.3,0,0.5,0.1c0.1,0,0.3,0.1,0.4,0.3l0.2,0.5c0,0.5,0,1,0,1.5
		c0,0.5,0,1-0.1,1.5c0,0.4,0,0.8,0,1.1c0.1,0.3,0.1,0.7,0,1.1C47.3,51,47.3,51.2,47.4,51.4z M47.4,27.6c0,0.2,0,0.4-0.1,0.5
		c0.1,0.3,0.2,0.6,0.2,1c0,0.4,0,0.7,0,1.1c0,0.2-0.1,0.4-0.1,0.5c0,0.2,0,0.4,0.1,0.5c0,0.2,0,0.4,0,0.6c0.1,0.2,0.1,0.4,0,0.6
		c0,0.2,0,0.4,0,0.6c0.1,0.2,0.1,0.4,0,0.6c0,0.2-0.1,0.4,0,0.7c0,0.2,0,0.4-0.1,0.6v1.3c-0.1,0.2-0.2,0.4-0.2,0.6
		c-0.1,0.2-0.1,0.4-0.2,0.6c-0.1,0.2-0.1,0.4-0.2,0.6c-0.1,0.2-0.2,0.4-0.4,0.5c-0.1,0.1-0.2,0.2-0.3,0.4c-0.1,0.1-0.2,0.3-0.3,0.4
		c-0.3,0.3-0.7,0.5-1,0.8c-0.3,0.3-0.6,0.4-1,0.5c-0.3,0.2-0.5,0.3-0.8,0.2c-0.2,0-0.4,0.1-0.5,0.1c-0.2,0.1-0.4,0.1-0.5,0
		c-0.2,0-0.4,0-0.7,0c-0.2,0-0.4,0-0.7,0.1c-0.2,0-0.4-0.1-0.6-0.2c-0.2-0.1-0.4-0.2-0.6-0.1c-0.1,0-0.3,0-0.4-0.1
		c-0.1-0.1-0.2-0.1-0.4-0.1c-0.3-0.1-0.5-0.2-0.8-0.4c-0.3-0.2-0.5-0.4-0.8-0.6c-0.2-0.1-0.3-0.2-0.4-0.3c-0.1-0.1-0.2-0.3-0.3-0.5
		c-0.1-0.2-0.1-0.3-0.2-0.5c-0.1-0.2-0.1-0.3-0.2-0.4c-0.1-0.2-0.2-0.4-0.3-0.6c-0.1-0.2-0.1-0.4-0.1-0.6c0-0.3-0.1-0.5-0.1-0.8
		c0-0.2,0-0.5,0-0.8c-0.1-0.2-0.1-0.3,0-0.5c0.1-0.2,0-0.3-0.1-0.5c0-0.1,0-0.3,0-0.4c0-0.2,0-0.3-0.1-0.5c0-0.1,0-0.3,0-0.4
		c0-0.1,0-0.3,0.1-0.4c-0.1-0.2-0.1-0.5,0-0.7c0-0.3,0.1-0.5,0.1-0.7c0.1-0.2,0.1-0.3,0-0.5c-0.1-0.2-0.1-0.3,0-0.5
		c-0.1-0.4-0.1-0.8,0-1.3c0-0.2,0-0.3,0-0.5c0-0.2,0-0.4,0-0.5c0-0.2,0-0.3,0-0.4c0-0.1,0-0.3,0-0.4c0-0.2,0.1-0.3,0-0.5
		c0-0.2,0-0.3-0.1-0.5c0.1-0.2,0.1-0.4,0-0.6c0-0.2,0-0.4,0-0.6c0-0.1,0-0.2,0-0.3c0-0.1,0-0.2,0-0.3c0-0.2,0-0.4,0-0.6
		c0-0.2,0-0.3,0-0.5c0-0.2,0-0.5,0-0.7c0-0.3,0.1-0.5,0.2-0.7c0.2-0.2,0.4-0.3,0.6-0.3c0.2,0,0.5,0,0.7-0.1c0.1,0,0.3,0,0.4,0
		c0.2,0,0.3,0,0.4,0c0.2,0,0.4,0.1,0.7,0c0.2,0,0.5,0,0.7,0.1c0.1,0,0.3,0,0.4,0c0.1,0,0.2,0.1,0.3,0.3c0,0.2,0.1,0.3,0.2,0.5
		c0.1,0.2,0.1,0.3,0.1,0.5c0,0.2,0,0.4,0,0.7c0,0.2,0,0.5,0.1,0.7c0,0.3,0,0.6,0,0.9c-0.1,0.3-0.1,0.6,0,0.9c-0.1,0.2-0.1,0.4,0,0.6
		c0.1,0.2,0.1,0.4,0.1,0.6c0,0.3,0,0.5-0.1,0.8c0,0.2,0,0.5,0,0.7c0,0.2-0.1,0.5,0,0.7c0,0.2,0,0.5-0.1,0.7c0,0.2,0,0.5,0,0.7
		c0,0.3,0,0.5,0,0.7c0,0.2,0,0.5,0,0.7c0,0.3,0,0.5,0.1,0.7c0,0.1,0,0.3,0,0.4c0,0.1,0,0.3,0,0.4c0,0.3,0,0.5,0,0.8
		c0,0.2,0,0.5,0.1,0.8c0,0.5,0.1,0.9,0.2,1.3c0.1,0.2,0.3,0.3,0.4,0.5c0.2,0.1,0.3,0.2,0.5,0.2c0.1,0.1,0.2,0.1,0.4,0
		c0.1-0.1,0.2-0.1,0.4-0.1c0.3-0.3,0.5-0.5,0.6-0.8c0.2-0.3,0.2-0.6,0.3-1c0-0.2,0-0.4,0-0.6c0-0.2,0-0.4,0-0.7
		c-0.1-0.2-0.1-0.4-0.1-0.6c0.1-0.2,0.1-0.4,0-0.6c0.1-0.2,0.1-0.5,0.1-0.7c0-0.3,0-0.5,0-0.8c0.1-0.2,0.1-0.3,0.1-0.5
		c-0.1-0.1-0.1-0.3-0.1-0.5c-0.1-0.3-0.1-0.7-0.1-1.1c0-0.4,0-0.8,0.1-1.1c-0.1-0.3-0.1-0.7,0-1.1c0-0.4,0-0.7-0.1-1.1
		c0-0.2,0.1-0.4,0.1-0.6c0-0.2,0-0.4,0-0.6c-0.1-0.2-0.1-0.5,0-0.7c0-0.2,0-0.5,0-0.8c0-0.2,0-0.4,0-0.6c0-0.2,0-0.4,0.1-0.6
		c0-0.2,0.1-0.4,0.2-0.5c0.1-0.1,0.3-0.2,0.5-0.3c0.2,0,0.3-0.1,0.5,0c0.2,0,0.3,0,0.5,0.1c0.2,0,0.3,0.1,0.5,0.1c0.2,0,0.3,0,0.5,0
		c0.1,0,0.3,0,0.5,0c0.2,0,0.4,0,0.5,0c0.2,0,0.3,0,0.5,0.1c0.1,0,0.3,0.1,0.4,0.3l0.2,0.4c0,0.5,0,1,0,1.5c0,0.5,0,1-0.1,1.5
		c0,0.4,0,0.8,0,1.1c0.1,0.3,0.1,0.7,0,1.1C47.3,27.2,47.3,27.4,47.4,27.6z M63.5,62.7c0.1,0.3,0,0.6,0,0.9c0,0.2-0.1,0.3-0.1,0.5
		c-0.1,0.1-0.2,0.3-0.3,0.4c-0.1,0.1-0.2,0.1-0.3,0.1c-0.1,0-0.2,0-0.3,0c-0.2,0-0.3,0-0.5,0c-0.2,0-0.3,0-0.4-0.1
		c-0.3,0.1-0.5,0.1-0.7,0c-0.2-0.1-0.5-0.1-0.7,0c-0.2,0-0.3,0-0.4,0c-0.1,0-0.3,0-0.4-0.1c-0.2-0.2-0.3-0.4-0.3-0.7
		c0-0.3,0-0.5-0.1-0.8c0.1-0.2,0.1-0.5,0-0.7c-0.1-0.2-0.1-0.5,0-0.7c0-0.4,0-0.7,0-1.1c0-0.4,0-0.7,0-1.1c0-0.2,0-0.4,0-0.6
		c0.1-0.2,0.1-0.4,0-0.6c0-0.2,0-0.4,0-0.6c0-0.2,0-0.3,0-0.5c0-0.2,0.1-0.3,0.1-0.5c0-0.2,0-0.4-0.1-0.5c0-0.1,0.1-0.3,0-0.4
		c0-0.1,0-0.3,0-0.4c-0.1-0.1-0.1-0.2,0-0.3c0.1-0.1,0.1-0.2,0-0.3c0-0.1,0.1-0.1,0.1-0.2c0-0.1,0.1-0.1,0.1-0.1c0,0,0,0-0.1,0
		c-0.1,0.1-0.2,0.2-0.3,0.1c-0.1-0.1-0.2,0-0.3,0.1c0,0.1-0.1,0.2-0.1,0.3c-0.1,0.1-0.1,0.2,0,0.3c-0.1,0.3-0.3,0.7-0.5,1
		c-0.2,0.3-0.3,0.7-0.3,1c-0.1,0.3-0.2,0.7-0.3,1c-0.1,0.3-0.2,0.6-0.4,1c0,0.2-0.1,0.3-0.2,0.4c-0.1,0.1-0.1,0.3-0.1,0.4
		c-0.1,0.1-0.2,0.2-0.2,0.4c0,0.1-0.1,0.2-0.3,0.3c-0.1,0.1-0.3,0-0.4-0.1c-0.2-0.2-0.3-0.5-0.3-0.8c-0.1-0.3-0.2-0.6-0.3-0.8
		c0-0.1,0-0.3-0.1-0.4c-0.1-0.1-0.1-0.2-0.2-0.3c-0.1-0.2-0.2-0.5-0.2-0.8c0-0.3-0.1-0.5-0.3-0.7c-0.1-0.2-0.1-0.4-0.2-0.5
		C54,56.1,54,55.9,54,55.7c-0.1-0.2-0.2-0.4-0.3-0.6c-0.1-0.2-0.2-0.4-0.2-0.6c0,0-0.1,0-0.1-0.1c-0.1,0-0.1,0-0.1,0
		c-0.2,0.1-0.2,0.2-0.2,0.4c0.1,0.2,0.1,0.4,0.1,0.5c0,0.2,0,0.4,0,0.7c0,0.2,0,0.4-0.1,0.6c0.1,0.2,0.1,0.4,0,0.6
		c-0.1,0.2,0,0.4,0.1,0.6c-0.1,0.3-0.1,0.6,0,0.9c0.1,0.3,0.1,0.6,0,0.9c0,0.1,0,0.2,0,0.2c0,0.1,0,0.1,0,0.2
		c-0.1,0.4-0.2,0.8-0.1,1.2c0.1,0.4,0.1,0.8,0,1.2c0.1,0.2,0.1,0.3,0,0.5c0,0.2,0,0.4,0.1,0.5c0,0.2-0.1,0.4-0.2,0.5
		c-0.1,0.2-0.2,0.3-0.3,0.4c-0.3,0.1-0.6,0.1-0.9,0.1c-0.3,0-0.6,0-0.9,0c-0.2-0.1-0.5-0.1-0.7,0c-0.3,0.1-0.5,0-0.7,0
		c-0.1,0-0.3,0-0.4,0c-0.1,0-0.2-0.1-0.3-0.1c-0.2-0.1-0.2-0.3-0.3-0.5c0-0.2,0-0.4,0-0.6c0-0.3,0-0.6,0-0.9c0-0.3,0-0.6,0.1-0.9
		c-0.1-0.5-0.1-1.1-0.1-1.6c0-0.6,0.1-1.1,0-1.6c0.1-0.1,0.1-0.2,0-0.3c-0.1-0.1-0.1-0.2,0-0.3c0-0.5,0-1,0-1.6c0-0.5,0-1,0-1.5
		c-0.1-0.6-0.1-1.1,0-1.7c0-0.5,0.1-1.1,0-1.7c0-0.3-0.1-0.6-0.1-0.9c0-0.3,0-0.6,0.1-0.9c-0.1-0.2-0.1-0.3,0-0.5c0-0.2,0-0.3,0-0.4
		c0-0.2,0-0.4,0-0.6c0-0.2,0-0.4,0.1-0.5c0.1-0.1,0.1-0.2,0-0.3c-0.1-0.1-0.1-0.2-0.1-0.4c0-0.3,0-0.5,0-0.8c0-0.2,0-0.5,0.1-0.7
		c0.1-0.2,0.2-0.3,0.3-0.3c0.2-0.1,0.3-0.1,0.5-0.1c0.3,0,0.5,0.1,0.7,0.1c0.2,0,0.5,0,0.7,0c0.4,0.1,0.7,0.1,1.1,0
		c0.3,0,0.7,0,1,0.1c0.3,0,0.6,0.2,0.8,0.5c0.3,0.5,0.5,1,0.6,1.5c0.1,0.5,0.3,1.1,0.5,1.6C55,48.7,55,48.8,55,49
		c0,0.2,0.1,0.4,0.2,0.6c0.1,0.1,0.1,0.2,0.2,0.3c0,0.1,0.1,0.2,0.1,0.3c0,0.1,0.1,0.2,0.2,0.3c0.1,0.1,0.1,0.2,0.2,0.3
		c0.2,0,0.4-0.2,0.4-0.3c0-0.2,0.2-0.4,0.3-0.5c0-0.2,0-0.3,0-0.4c0.1-0.1,0.1-0.2,0.1-0.4c0.2-0.3,0.3-0.5,0.3-0.8
		c0.1-0.3,0.2-0.6,0.3-0.9c0.1-0.1,0.2-0.2,0.2-0.4c0-0.1,0-0.3,0.1-0.4c0-0.2,0.1-0.4,0.2-0.6c0.1-0.2,0.2-0.4,0.2-0.6
		c0.1-0.2,0.2-0.4,0.4-0.5c0.2-0.1,0.4-0.2,0.7-0.3c0.3,0,0.5,0,0.8,0c0.2,0.1,0.5,0,0.7-0.1c0.2,0,0.4,0,0.6,0c0.2,0,0.4,0,0.5,0.1
		c0.2,0,0.4,0,0.6,0c0.2,0,0.4,0,0.6,0c0.3,0.1,0.5,0.3,0.5,0.6c0,0.3,0,0.6,0,0.9c0,0.2,0,0.5,0,0.7c0,0.3,0,0.5-0.1,0.7
		c0,0.1,0.1,0.3,0,0.4c0,0.1,0,0.3,0,0.4c0,0.4,0,0.7-0.1,1.1c0,0.4,0,0.7,0.1,1.1c0,0.2,0,0.4,0,0.6c-0.1,0.2,0,0.4,0,0.6
		c0,0.3-0.1,0.5-0.1,0.8c0,0.3-0.1,0.5-0.1,0.7c0.1,0.5,0.1,1.1,0.1,1.6c-0.1,0.1-0.1,0.2-0.1,0.3c0,0.1,0,0.2,0,0.3
		c0,0.1,0.1,0.2,0.1,0.3c0,0.1,0,0.2,0,0.3c0.1,0.3,0.1,0.5,0,0.8c-0.1,0.3-0.1,0.5,0,0.7c0,0.3,0,0.6,0,1c0,0.3,0,0.6,0,1
		c0,0.4,0,0.7,0,1.1c0,0.3,0,0.7,0.1,1C63.4,62.1,63.4,62.4,63.5,62.7z M63.5,38.9c0.1,0.3,0,0.6,0,0.9c0,0.2-0.1,0.3-0.1,0.5
		c-0.1,0.1-0.2,0.3-0.3,0.4c-0.1,0.1-0.2,0.1-0.3,0.1c-0.1,0-0.2,0-0.3,0c-0.2,0-0.3,0-0.5,0c-0.2,0-0.3,0-0.4-0.1
		c-0.3,0.1-0.5,0.1-0.7,0c-0.2-0.1-0.5-0.1-0.7,0c-0.2,0-0.3,0-0.4,0c-0.1,0-0.3,0-0.4-0.1c-0.2-0.2-0.3-0.4-0.3-0.7
		c0-0.3,0-0.5-0.1-0.8c0.1-0.2,0.1-0.5,0-0.7c-0.1-0.2-0.1-0.5,0-0.7c0-0.4,0-0.7,0-1.1c0-0.4,0-0.7,0-1.1c0-0.2,0-0.4,0-0.6
		c0.1-0.2,0.1-0.4,0-0.6c0-0.2,0-0.4,0-0.6c0-0.2,0-0.3,0-0.5c0-0.2,0.1-0.3,0.1-0.5c0-0.2,0-0.4-0.1-0.5c0-0.1,0.1-0.2,0-0.4
		c0-0.1,0-0.3,0-0.4c-0.1-0.1-0.1-0.2,0-0.3c0.1-0.1,0.1-0.2,0-0.3c0-0.1,0.1-0.1,0.1-0.2c0-0.1,0.1-0.1,0.1-0.2c0,0,0,0-0.1,0
		c-0.1,0.1-0.2,0.1-0.3,0.1c-0.1-0.1-0.2,0-0.3,0.1c0,0.1-0.1,0.2-0.1,0.3c-0.1,0.1-0.1,0.2,0,0.3c-0.1,0.3-0.3,0.7-0.5,1
		c-0.2,0.3-0.3,0.7-0.3,1c-0.1,0.3-0.2,0.7-0.3,1c-0.1,0.3-0.2,0.6-0.4,1c0,0.2-0.1,0.3-0.2,0.4c-0.1,0.1-0.1,0.3-0.1,0.4
		c-0.1,0.1-0.2,0.2-0.2,0.4c0,0.1-0.1,0.2-0.3,0.3c-0.1,0.1-0.3,0-0.4-0.1c-0.2-0.2-0.3-0.5-0.3-0.8c-0.1-0.3-0.2-0.6-0.3-0.8
		c0-0.1,0-0.3-0.1-0.4c-0.1-0.1-0.1-0.2-0.2-0.3c-0.1-0.2-0.2-0.5-0.2-0.8c0-0.3-0.1-0.5-0.3-0.7c-0.1-0.2-0.1-0.4-0.2-0.5
		C54,32.2,54,32,54,31.8c-0.1-0.2-0.2-0.4-0.3-0.6c-0.1-0.2-0.2-0.4-0.2-0.6c0,0-0.1,0-0.1-0.1c-0.1,0-0.1,0-0.1,0
		c-0.2,0.1-0.2,0.2-0.2,0.4c0.1,0.2,0.1,0.3,0.1,0.5c0,0.2,0,0.4,0,0.7c0,0.2,0,0.4-0.1,0.6c0.1,0.2,0.1,0.4,0,0.6
		c-0.1,0.2,0,0.4,0.1,0.6c-0.1,0.3-0.1,0.6,0,0.9c0.1,0.3,0.1,0.6,0,0.9c0,0.1,0,0.2,0,0.2c0,0.1,0,0.1,0,0.2
		c-0.1,0.4-0.2,0.8-0.1,1.2c0.1,0.4,0.1,0.8,0,1.2c0.1,0.2,0.1,0.3,0,0.5c0,0.2,0,0.3,0.1,0.5c0,0.2-0.1,0.4-0.2,0.5
		c-0.1,0.2-0.2,0.3-0.3,0.4c-0.3,0.1-0.6,0.1-0.9,0.1c-0.3,0-0.6,0-0.9,0c-0.2-0.1-0.5-0.1-0.7,0c-0.3,0.1-0.5,0-0.7,0
		c-0.1,0-0.3,0-0.4,0c-0.1,0-0.2-0.1-0.3-0.1c-0.2-0.1-0.2-0.3-0.3-0.5c0-0.2,0-0.4,0-0.6c0-0.3,0-0.6,0-0.9c0-0.3,0-0.6,0.1-0.9
		c-0.1-0.5-0.1-1.1-0.1-1.6c0-0.6,0.1-1.1,0-1.6c0.1-0.1,0.1-0.2,0-0.3c-0.1-0.1-0.1-0.2,0-0.3c0-0.5,0-1,0-1.6c0-0.5,0-1,0-1.5
		c-0.1-0.6-0.1-1.1,0-1.7c0-0.5,0.1-1.1,0-1.7c0-0.3-0.1-0.6-0.1-0.9c0-0.3,0-0.6,0.1-0.9c-0.1-0.2-0.1-0.3,0-0.5c0-0.2,0-0.3,0-0.4
		c0-0.2,0-0.4,0-0.6c0-0.2,0-0.4,0.1-0.5c0.1-0.1,0.1-0.2,0-0.3c-0.1-0.1-0.1-0.2-0.1-0.4c0-0.3,0-0.5,0-0.8c0-0.2,0-0.5,0.1-0.8
		c0.1-0.2,0.2-0.3,0.3-0.3c0.2-0.1,0.3-0.1,0.5-0.1c0.3,0,0.5,0.1,0.7,0.1c0.2,0.1,0.5,0,0.7,0c0.4,0.1,0.7,0.1,1.1,0
		c0.3,0,0.7,0,1,0.1c0.3,0,0.6,0.2,0.8,0.5c0.3,0.5,0.5,1,0.6,1.5c0.1,0.6,0.3,1.1,0.5,1.6C55,24.8,55,25,55,25.2
		c0,0.2,0.1,0.4,0.2,0.6c0.1,0.1,0.1,0.2,0.2,0.3c0,0.1,0.1,0.2,0.1,0.3c0,0.1,0.1,0.2,0.2,0.3c0.1,0.1,0.1,0.2,0.2,0.3
		c0.2,0,0.4-0.2,0.4-0.3c0-0.2,0.2-0.4,0.3-0.5c0-0.2,0-0.3,0-0.4c0.1-0.1,0.1-0.2,0.1-0.4c0.2-0.3,0.3-0.5,0.3-0.8
		c0.1-0.3,0.2-0.6,0.3-0.9c0.1-0.1,0.2-0.2,0.2-0.4c0-0.2,0-0.3,0.1-0.4c0-0.2,0.1-0.4,0.2-0.6c0.1-0.2,0.2-0.4,0.2-0.6
		c0.1-0.2,0.2-0.4,0.4-0.5c0.2-0.1,0.4-0.2,0.7-0.3c0.3,0,0.5,0,0.8,0c0.2,0.1,0.5,0,0.7-0.1c0.2,0,0.4,0,0.6,0c0.2,0,0.4,0,0.5,0.1
		c0.2,0,0.4,0,0.6,0c0.2,0,0.4,0,0.6,0c0.3,0.1,0.5,0.3,0.5,0.6c0,0.3,0,0.6,0,0.9c0,0.2,0,0.5,0,0.7c0,0.3,0,0.5-0.1,0.7
		c0,0.1,0.1,0.3,0,0.4c0,0.1,0,0.3,0,0.4c0,0.4,0,0.7-0.1,1.1c0,0.4,0,0.7,0.1,1.1c0,0.2,0,0.4,0,0.6c-0.1,0.2,0,0.4,0,0.6
		c0,0.3-0.1,0.5-0.1,0.8c0,0.3-0.1,0.5-0.1,0.8c0.1,0.5,0.1,1.1,0.1,1.6c-0.1,0.1-0.1,0.2-0.1,0.3c0,0.1,0,0.2,0,0.3
		c0,0.1,0.1,0.2,0.1,0.3c0,0.1,0,0.2,0,0.3c0.1,0.3,0.1,0.5,0,0.8c-0.1,0.2-0.1,0.5,0,0.7c0,0.3,0,0.6,0,1c0,0.3,0,0.6,0,1
		c0,0.4,0,0.7,0,1.1c0,0.3,0,0.7,0.1,1C63.4,38.3,63.4,38.6,63.5,38.9z M79.6,62.7c0.1,0.3,0,0.6,0,0.9c0,0.2-0.1,0.3-0.1,0.5
		c0,0.1-0.2,0.3-0.3,0.4c-0.1,0.1-0.2,0.1-0.3,0.1c-0.1,0-0.2,0-0.3,0c-0.2,0-0.3,0-0.5,0c-0.2,0-0.3,0-0.4-0.1
		c-0.3,0.1-0.5,0.1-0.7,0c-0.2-0.1-0.5-0.1-0.7,0c-0.2,0-0.3,0-0.5,0c-0.1,0-0.3,0-0.4-0.1C75,64.2,75,64,75,63.7
		c0-0.3,0-0.5-0.1-0.8c0.1-0.2,0.1-0.5,0-0.7c-0.1-0.2-0.1-0.5,0-0.7c0-0.4,0-0.7,0-1.1c0-0.4,0-0.7,0-1.1c0-0.2,0-0.4,0-0.6
		c0.1-0.2,0-0.4,0-0.6c0-0.2,0-0.4,0-0.6c0-0.2,0-0.3,0-0.5c0-0.2,0.1-0.3,0.1-0.5c0-0.2,0-0.4-0.1-0.5c0-0.1,0.1-0.3,0-0.4
		c0-0.1,0-0.3,0-0.4c-0.1-0.1-0.1-0.2,0-0.3c0.1-0.1,0.1-0.2,0-0.3c0-0.1,0.1-0.1,0.1-0.2c0-0.1,0.1-0.1,0.1-0.1c0,0-0.1,0-0.1,0
		c-0.1,0.1-0.2,0.2-0.3,0.1c-0.1-0.1-0.2,0-0.3,0.1c0,0.1-0.1,0.2-0.1,0.3c-0.1,0.1-0.1,0.2,0,0.3c-0.1,0.3-0.3,0.7-0.5,1
		c-0.2,0.3-0.3,0.7-0.3,1c-0.1,0.3-0.2,0.7-0.3,1c-0.1,0.3-0.2,0.6-0.4,1c0,0.2-0.1,0.3-0.2,0.4c-0.1,0.1-0.1,0.3-0.1,0.4
		c-0.1,0.1-0.2,0.2-0.2,0.4c0,0.1-0.1,0.2-0.3,0.3c-0.1,0.1-0.3,0-0.4-0.1c-0.2-0.2-0.3-0.5-0.3-0.8c0-0.3-0.2-0.6-0.3-0.8
		c0-0.1,0-0.3-0.1-0.4c-0.1-0.1-0.1-0.2-0.2-0.3c-0.1-0.2-0.2-0.5-0.2-0.8c0-0.3-0.1-0.5-0.3-0.7c-0.1-0.2-0.1-0.4-0.2-0.5
		c-0.1-0.2-0.1-0.4-0.1-0.6c-0.1-0.2-0.2-0.4-0.3-0.6c-0.1-0.2-0.2-0.4-0.2-0.6c0,0-0.1,0-0.1-0.1c-0.1,0-0.1,0-0.1,0
		c-0.2,0.1-0.2,0.2-0.1,0.4c0.1,0.2,0.1,0.4,0.1,0.5c0,0.2,0,0.4,0,0.7c0,0.2,0,0.4-0.1,0.6c0.1,0.2,0.1,0.4,0,0.6
		c-0.1,0.2,0,0.4,0.1,0.6c-0.1,0.3-0.1,0.6,0,0.9c0.1,0.3,0.1,0.6,0,0.9c0,0.1,0,0.2,0,0.2c0,0.1,0,0.1,0,0.2
		c-0.1,0.4-0.2,0.8-0.1,1.2c0.1,0.4,0.1,0.8,0,1.2c0.1,0.2,0.1,0.3,0,0.5c0,0.2,0,0.4,0.1,0.5c0,0.2-0.1,0.4-0.2,0.5
		c-0.1,0.2-0.2,0.3-0.3,0.4c-0.3,0.1-0.6,0.1-0.9,0.1c-0.3,0-0.6,0-0.9,0c-0.2-0.1-0.5-0.1-0.7,0c-0.2,0.1-0.5,0-0.7,0
		c-0.1,0-0.3,0-0.4,0c-0.1,0-0.2-0.1-0.3-0.1c-0.2-0.1-0.2-0.3-0.3-0.5s0-0.4,0-0.6c0-0.3,0-0.6,0-0.9c0-0.3,0-0.6,0.1-0.9
		c-0.1-0.5-0.1-1.1-0.1-1.6c0-0.6,0.1-1.1,0-1.6c0.1-0.1,0.1-0.2,0-0.3c-0.1-0.1-0.1-0.2,0-0.3c0-0.5,0-1,0-1.6c0-0.5,0-1,0-1.5
		c-0.1-0.6-0.1-1.1,0-1.7c0-0.5,0.1-1.1,0-1.7c0-0.3-0.1-0.6-0.1-0.9c0-0.3,0-0.6,0.1-0.9c-0.1-0.2-0.1-0.3,0-0.5c0-0.2,0-0.3,0-0.4
		c0-0.2,0-0.4,0-0.6c0-0.2,0-0.4,0.1-0.5c0.1-0.1,0.1-0.2,0-0.3c-0.1-0.1-0.1-0.2-0.1-0.4c0-0.3,0-0.5,0-0.8c0-0.2,0-0.5,0.1-0.7
		c0.1-0.2,0.2-0.3,0.3-0.3c0.1-0.1,0.3-0.1,0.5-0.1c0.3,0,0.5,0.1,0.7,0.1c0.2,0,0.5,0,0.7,0c0.4,0.1,0.7,0.1,1.1,0
		c0.3,0,0.7,0,1,0.1c0.3,0,0.6,0.2,0.8,0.5c0.3,0.5,0.5,1,0.6,1.5c0.1,0.5,0.3,1.1,0.5,1.6c0.1,0.2,0.2,0.4,0.2,0.6
		c0,0.2,0.1,0.4,0.2,0.6c0.1,0.1,0.1,0.2,0.2,0.3c0,0.1,0.1,0.2,0.1,0.3c0,0.1,0.1,0.2,0.1,0.3c0.1,0.1,0.1,0.2,0.2,0.3
		c0.2,0,0.4-0.2,0.4-0.3c0.1-0.2,0.2-0.4,0.3-0.5c0-0.2,0-0.3,0-0.4c0.1-0.1,0.1-0.2,0.1-0.4c0.2-0.3,0.3-0.5,0.3-0.8
		c0-0.3,0.2-0.6,0.3-0.9c0.1-0.1,0.2-0.2,0.2-0.4c0-0.1,0-0.3,0.1-0.4c0-0.2,0.1-0.4,0.2-0.6c0.1-0.2,0.2-0.4,0.2-0.6
		c0.1-0.2,0.2-0.4,0.4-0.5c0.2-0.1,0.4-0.2,0.7-0.3c0.3,0,0.5,0,0.8,0c0.2,0.1,0.5,0,0.7-0.1c0.2,0,0.4,0,0.6,0c0.2,0,0.4,0,0.5,0.1
		c0.2,0,0.4,0,0.6,0c0.2,0,0.4,0,0.6,0c0.3,0.1,0.5,0.3,0.5,0.6c0,0.3,0,0.6,0,0.9c0,0.2,0,0.5,0,0.7c0,0.3,0,0.5-0.1,0.7
		c0,0.1,0,0.3,0,0.4c0,0.1,0,0.3,0,0.4c0,0.4,0,0.7-0.1,1.1c0,0.4,0,0.7,0.1,1.1c0,0.2,0,0.4,0,0.6c-0.1,0.2,0,0.4,0,0.6
		c0,0.3-0.1,0.5-0.1,0.8c0,0.3-0.1,0.5-0.1,0.7c0.1,0.5,0.1,1.1,0.1,1.6c-0.1,0.1-0.1,0.2-0.1,0.3c0,0.1,0,0.2,0,0.3
		c0,0.1,0.1,0.2,0.1,0.3c0,0.1,0,0.2,0,0.3c0.1,0.3,0.1,0.5,0,0.8c-0.1,0.3-0.1,0.5,0,0.7c0,0.3,0,0.6,0,1c0,0.3,0,0.6,0,1
		c0,0.4,0,0.7,0,1.1c0,0.3,0,0.7,0.1,1C79.5,62.1,79.5,62.4,79.6,62.7z M79.6,38.9c0.1,0.3,0,0.6,0,0.9c0,0.2-0.1,0.3-0.1,0.5
		c0,0.1-0.2,0.3-0.3,0.4c-0.1,0.1-0.2,0.1-0.3,0.1c-0.1,0-0.2,0-0.3,0c-0.2,0-0.3,0-0.5,0c-0.2,0-0.3,0-0.4-0.1
		c-0.3,0.1-0.5,0.1-0.7,0c-0.2-0.1-0.5-0.1-0.7,0c-0.2,0-0.3,0-0.5,0c-0.1,0-0.3,0-0.4-0.1C75,40.4,75,40.2,75,39.9
		c0-0.3,0-0.5-0.1-0.8c0.1-0.2,0.1-0.5,0-0.7c-0.1-0.2-0.1-0.5,0-0.7c0-0.4,0-0.7,0-1.1c0-0.4,0-0.7,0-1.1c0-0.2,0-0.4,0-0.6
		c0.1-0.2,0-0.4,0-0.6c0-0.2,0-0.4,0-0.6c0-0.2,0-0.3,0-0.5c0-0.2,0.1-0.3,0.1-0.5c0-0.2,0-0.4-0.1-0.5c0-0.1,0.1-0.2,0-0.4
		c0-0.1,0-0.3,0-0.4c-0.1-0.1-0.1-0.2,0-0.3c0.1-0.1,0.1-0.2,0-0.3c0-0.1,0.1-0.1,0.1-0.2c0-0.1,0.1-0.1,0.1-0.2c0,0-0.1,0-0.1,0
		c-0.1,0.1-0.2,0.1-0.3,0.1c-0.1-0.1-0.2,0-0.3,0.1c0,0.1-0.1,0.2-0.1,0.3c-0.1,0.1-0.1,0.2,0,0.3c-0.1,0.3-0.3,0.7-0.5,1
		c-0.2,0.3-0.3,0.7-0.3,1c-0.1,0.3-0.2,0.7-0.3,1c-0.1,0.3-0.2,0.6-0.4,1c0,0.2-0.1,0.3-0.2,0.4c-0.1,0.1-0.1,0.3-0.1,0.4
		c-0.1,0.1-0.2,0.2-0.2,0.4c0,0.1-0.1,0.2-0.3,0.3c-0.1,0.1-0.3,0-0.4-0.1c-0.2-0.2-0.3-0.5-0.3-0.8c0-0.3-0.2-0.6-0.3-0.8
		c0-0.1,0-0.3-0.1-0.4c-0.1-0.1-0.1-0.2-0.2-0.3c-0.1-0.2-0.2-0.5-0.2-0.8c0-0.3-0.1-0.5-0.3-0.7c-0.1-0.2-0.1-0.4-0.2-0.5
		c-0.1-0.2-0.1-0.4-0.1-0.6c-0.1-0.2-0.2-0.4-0.3-0.6c-0.1-0.2-0.2-0.4-0.2-0.6c0,0-0.1,0-0.1-0.1c-0.1,0-0.1,0-0.1,0
		c-0.2,0.1-0.2,0.2-0.1,0.4c0.1,0.2,0.1,0.3,0.1,0.5c0,0.2,0,0.4,0,0.7c0,0.2,0,0.4-0.1,0.6c0.1,0.2,0.1,0.4,0,0.6
		c-0.1,0.2,0,0.4,0.1,0.6c-0.1,0.3-0.1,0.6,0,0.9c0.1,0.3,0.1,0.6,0,0.9c0,0.1,0,0.2,0,0.2c0,0.1,0,0.1,0,0.2
		c-0.1,0.4-0.2,0.8-0.1,1.2c0.1,0.4,0.1,0.8,0,1.2c0.1,0.2,0.1,0.3,0,0.5c0,0.2,0,0.3,0.1,0.5c0,0.2-0.1,0.4-0.2,0.5
		c-0.1,0.2-0.2,0.3-0.3,0.4c-0.3,0.1-0.6,0.1-0.9,0.1c-0.3,0-0.6,0-0.9,0c-0.2-0.1-0.5-0.1-0.7,0c-0.2,0.1-0.5,0-0.7,0
		c-0.1,0-0.3,0-0.4,0c-0.1,0-0.2-0.1-0.3-0.1c-0.2-0.1-0.2-0.3-0.3-0.5c0-0.2,0-0.4,0-0.6c0-0.3,0-0.6,0-0.9c0-0.3,0-0.6,0.1-0.9
		c-0.1-0.5-0.1-1.1-0.1-1.6c0-0.6,0.1-1.1,0-1.6c0.1-0.1,0.1-0.2,0-0.3c-0.1-0.1-0.1-0.2,0-0.3c0-0.5,0-1,0-1.6c0-0.5,0-1,0-1.5
		c-0.1-0.6-0.1-1.1,0-1.7c0-0.5,0.1-1.1,0-1.7c0-0.3-0.1-0.6-0.1-0.9c0-0.3,0-0.6,0.1-0.9c-0.1-0.2-0.1-0.3,0-0.5c0-0.2,0-0.3,0-0.4
		c0-0.2,0-0.4,0-0.6c0-0.2,0-0.4,0.1-0.5c0.1-0.1,0.1-0.2,0-0.3c-0.1-0.1-0.1-0.2-0.1-0.4c0-0.3,0-0.5,0-0.8c0-0.2,0-0.5,0.1-0.8
		c0.1-0.2,0.2-0.3,0.3-0.3c0.1-0.1,0.3-0.1,0.5-0.1c0.3,0,0.5,0.1,0.7,0.1c0.2,0.1,0.5,0,0.7,0c0.4,0.1,0.7,0.1,1.1,0
		c0.3,0,0.7,0,1,0.1c0.3,0,0.6,0.2,0.8,0.5c0.3,0.5,0.5,1,0.6,1.5c0.1,0.6,0.3,1.1,0.5,1.6c0.1,0.2,0.2,0.4,0.2,0.6
		c0,0.2,0.1,0.4,0.2,0.6c0.1,0.1,0.1,0.2,0.2,0.3c0,0.1,0.1,0.2,0.1,0.3c0,0.1,0.1,0.2,0.1,0.3c0.1,0.1,0.1,0.2,0.2,0.3
		c0.2,0,0.4-0.2,0.4-0.3c0.1-0.2,0.2-0.4,0.3-0.5c0-0.2,0-0.3,0-0.4c0.1-0.1,0.1-0.2,0.1-0.4c0.2-0.3,0.3-0.5,0.3-0.8
		c0-0.3,0.2-0.6,0.3-0.9c0.1-0.1,0.2-0.2,0.2-0.4c0-0.2,0-0.3,0.1-0.4c0-0.2,0.1-0.4,0.2-0.6c0.1-0.2,0.2-0.4,0.2-0.6
		c0.1-0.2,0.2-0.4,0.4-0.5c0.2-0.1,0.4-0.2,0.7-0.3c0.3,0,0.5,0,0.8,0c0.2,0.1,0.5,0,0.7-0.1c0.2,0,0.4,0,0.6,0c0.2,0,0.4,0,0.5,0.1
		c0.2,0,0.4,0,0.6,0c0.2,0,0.4,0,0.6,0c0.3,0.1,0.5,0.3,0.5,0.6c0,0.3,0,0.6,0,0.9c0,0.2,0,0.5,0,0.7c0,0.3,0,0.5-0.1,0.7
		c0,0.1,0,0.3,0,0.4c0,0.1,0,0.3,0,0.4c0,0.4,0,0.7-0.1,1.1c0,0.4,0,0.7,0.1,1.1c0,0.2,0,0.4,0,0.6c-0.1,0.2,0,0.4,0,0.6
		c0,0.3-0.1,0.5-0.1,0.8c0,0.3-0.1,0.5-0.1,0.8c0.1,0.5,0.1,1.1,0.1,1.6c-0.1,0.1-0.1,0.2-0.1,0.3c0,0.1,0,0.2,0,0.3
		c0,0.1,0.1,0.2,0.1,0.3c0,0.1,0,0.2,0,0.3c0.1,0.3,0.1,0.5,0,0.8c-0.1,0.2-0.1,0.5,0,0.7c0,0.3,0,0.6,0,1c0,0.3,0,0.6,0,1
		c0,0.4,0,0.7,0,1.1c0,0.3,0,0.7,0.1,1C79.5,38.3,79.5,38.6,79.6,38.9z M81.7,49c-0.1-0.3-0.2-0.6-0.3-1c0-0.1-0.1-0.2-0.2-0.3
		c-0.1-0.1-0.2-0.2-0.2-0.3c-0.1-0.2-0.2-0.4-0.3-0.7c0-0.2-0.2-0.5-0.3-0.7c-0.1-0.2-0.1-0.3-0.1-0.5c0-0.2,0.1-0.4,0.2-0.5
		c0.3-0.2,0.6-0.3,1-0.3c0.4,0,0.7,0,1,0c0.1-0.1,0.2-0.1,0.3,0c0.1,0,0.2,0.1,0.3,0c0.2,0,0.4,0,0.6,0c0.2,0,0.4,0,0.6,0
		c0.2,0,0.4,0,0.5,0c0.2,0,0.3,0.1,0.5,0.3c0.2,0.2,0.3,0.3,0.3,0.6c0,0.2,0.1,0.4,0.2,0.6c0,0.2,0.1,0.4,0.2,0.6
		c0.1,0.2,0.1,0.4,0.1,0.7c0.1,0.2,0.2,0.3,0.1,0.5c0,0.2,0,0.4,0.1,0.5c0,0.2,0.1,0.3,0.1,0.5c0,0.2,0.2,0.3,0.3,0.4
		c0.1,0,0.2,0,0.3-0.1c0-0.1,0.1-0.2,0.2-0.3c-0.1-0.2-0.1-0.4,0-0.6c0.1-0.2,0.1-0.4,0.1-0.6c0-0.3,0-0.5,0.2-0.7l0.1-0.7
		c0-0.2,0-0.3,0.1-0.4c0.1-0.1,0.1-0.3,0.2-0.4c0-0.2,0.1-0.3,0.2-0.4c0.1-0.1,0.2-0.2,0.3-0.3c0.1-0.1,0.3-0.1,0.4-0.1
		c0.2,0,0.3,0,0.4-0.1c0.2,0,0.3,0,0.5,0.1c0.2,0.1,0.3,0.1,0.5,0c0.3,0,0.5,0,0.7,0c0.2,0.1,0.5,0.1,0.7,0c0.1,0,0.2,0,0.3,0
		c0.1,0,0.2,0,0.3,0.1c0.3-0.1,0.5,0,0.6,0.1c0.1,0.1,0.2,0.2,0.2,0.4c0,0.2,0,0.3,0.1,0.4c-0.2,0.4-0.3,0.7-0.4,1.1
		c-0.1,0.4-0.3,0.7-0.5,1c0,0.2-0.1,0.4-0.2,0.6c-0.1,0.2-0.2,0.4-0.2,0.6c-0.1,0.1-0.1,0.2-0.2,0.3c0,0.1-0.1,0.2-0.2,0.3
		c0,0.2-0.1,0.5-0.2,0.7c-0.1,0.2-0.2,0.4-0.3,0.6c-0.1,0.2-0.2,0.3-0.2,0.5c0,0.2-0.1,0.3-0.3,0.5c-0.1,0.3-0.2,0.6-0.3,0.8
		c-0.1,0.3-0.2,0.5-0.3,0.8c-0.1,0.3-0.2,0.7-0.4,1c-0.2,0.3-0.3,0.6-0.3,1c-0.1,0.4-0.1,0.9-0.1,1.3c0,0.4,0,0.9,0.1,1.3
		c0,0.1,0,0.3,0,0.4c0,0.1,0,0.3-0.1,0.4c0.1,0.3,0.1,0.6,0.1,0.9c0,0.3-0.1,0.6,0,0.9c0.1,0.2,0.1,0.4,0,0.6
		c-0.1,0.2-0.1,0.4-0.1,0.6v2c0,0.2-0.1,0.3-0.3,0.4c-0.2,0.1-0.3,0.2-0.5,0.3H86c-0.2,0-0.4,0.1-0.6,0.1c-0.2,0-0.4,0-0.6-0.1
		c-0.3-0.2-0.5-0.5-0.6-0.8c-0.1-0.3-0.1-0.7-0.1-1.1c0-0.1,0-0.2,0-0.3c0-0.1,0.1-0.2,0.1-0.3c0-0.2,0-0.5,0-0.7
		c-0.1-0.2,0-0.4,0-0.7c0-0.2,0-0.4,0-0.6c0.1-0.2,0.1-0.4,0-0.6l0-2.1c0.1-0.3,0.1-0.6,0.1-0.9c-0.1-0.3-0.1-0.6,0-0.9
		c0-0.1-0.1-0.3-0.1-0.4c0-0.1-0.1-0.3-0.2-0.4c-0.1-0.3-0.2-0.6-0.4-0.9c-0.1-0.3-0.2-0.6-0.3-0.9c-0.1-0.2-0.2-0.4-0.3-0.6
		c-0.1-0.2-0.2-0.4-0.3-0.6c-0.1-0.3-0.2-0.7-0.3-0.9c-0.1-0.3-0.2-0.6-0.3-0.9C82,49.6,81.8,49.3,81.7,49z M101.6,54.9
		c-0.5,3.5-1.5,6.9-3.1,10.1c-1.6,3.1-3.9,6-6.7,8.2c-2.8,2.2-6.1,3.7-9.5,4.4c3.2-1.3,6.2-3,8.8-5.3c2.5-2.2,4.6-5,6.1-8
		c1.6-3,2.6-6.3,3.3-9.6c0.7-3.4,1.1-6.8,1.3-10.3C102.1,47.9,102.1,51.4,101.6,54.9z"/>
	<path fill="#231F20" d="M83.8,48.3C83.8,48.3,83.8,48.3,83.8,48.3C83.9,48.3,83.9,48.2,83.8,48.3C83.9,48.2,83.8,48.2,83.8,48.3
		C83.8,48.2,83.8,48.2,83.8,48.3C83.8,48.2,83.8,48.2,83.8,48.3z"/>
	<path fill="#231F20" d="M83.5,47.8C83.5,47.8,83.5,47.8,83.5,47.8c0-0.1,0-0.1,0-0.1C83.4,47.6,83.4,47.7,83.5,47.8
		C83.4,47.8,83.4,47.8,83.5,47.8z"/>
	<path fill="#231F20" d="M84.2,48.9c0,0-0.1-0.1-0.1-0.1C84,48.9,84,49,84,49c0,0,0.1,0.1,0.1,0.1C84.2,49,84.2,49,84.2,48.9z"/>
	<path fill="#231F20" d="M83.9,49.6L83.9,49.6L83.9,49.6C83.9,49.5,83.9,49.5,83.9,49.6L83.9,49.6z"/>
	<path fill="#231F20" d="M88.5,52.6c0-0.1-0.1-0.1-0.2-0.2c0,0,0,0.1,0,0.2C88.4,52.7,88.5,52.7,88.5,52.6z"/>
	<path fill="#231F20" d="M87.9,52.8L87.9,52.8C87.9,52.8,87.9,52.8,87.9,52.8C87.9,52.8,87.9,52.8,87.9,52.8z"/>
	<path fill="#231F20" d="M90.7,45.9C90.6,45.9,90.6,45.8,90.7,45.9L90.7,45.9L90.7,45.9L90.7,45.9z"/>
	<path fill="#231F20" d="M58.2,29.9C58.1,29.9,58.1,29.9,58.2,29.9c0,0.1,0,0.1,0,0.1c0,0,0,0,0.1,0c0,0,0,0,0-0.1
		C58.3,29.9,58.2,29.9,58.2,29.9z"/>
	<path fill="#231F20" d="M57.8,28.8L57.8,28.8C57.8,28.8,57.8,28.8,57.8,28.8C57.9,28.8,57.9,28.7,57.8,28.8
		C57.8,28.7,57.8,28.7,57.8,28.8z"/>
	<path fill="#231F20" d="M51.9,37.1C51.9,37.1,51.9,37.2,51.9,37.1L51.9,37.1C52,37.2,52,37.1,51.9,37.1
		C51.9,37.1,51.9,37.1,51.9,37.1z"/>
	<path fill="#231F20" d="M70.1,54.3c0,0,0.1,0,0.1,0V54C70.1,54.1,70,54.2,70.1,54.3z"/>
	<path fill="#231F20" d="M68.4,53.2L68.4,53.2c0,0.1,0,0.2,0.1,0.1C68.5,53.4,68.5,53.3,68.4,53.2C68.5,53.2,68.4,53.2,68.4,53.2z"
		/>
	<path fill="#231F20" d="M69.8,53.2c0,0-0.1,0.1-0.1,0.1l0,0.1C69.8,53.3,69.8,53.3,69.8,53.2c0.1,0.1,0.1,0.1,0.1,0
		C69.9,53.2,69.9,53.2,69.8,53.2z"/>
	<path fill="#231F20" d="M61.6,38.3C61.5,38.3,61.5,38.4,61.6,38.3c0,0.1,0,0.1,0,0.1l0.1-0.1C61.7,38.4,61.7,38.3,61.6,38.3z"/>
	<path fill="#231F20" d="M61.3,38.9C61.3,39,61.2,39,61.3,38.9C61.3,39,61.3,39.1,61.3,38.9L61.3,38.9
		C61.3,38.9,61.3,38.9,61.3,38.9z"/>
	<path fill="#231F20" d="M106.4,16.7c-1.7-4.3-4.7-8.1-8.4-10.9c-3.7-2.8-8.2-4.5-12.8-5c-2.2-0.3-4.5-0.5-6.8-0.5
		c-2.3-0.1-4.5-0.1-6.8,0.2c2.2,0.1,4.5,0.4,6.7,0.7c2.2,0.3,4.4,0.7,6.6,1.1c4.3,0.8,8.4,2.5,11.8,5.1c3.5,2.6,6.3,6,8.2,10
		c1.9,3.9,2.9,8.3,3.1,12.8C108.8,25.7,108.2,21,106.4,16.7z"/>
	<path fill="#231F20" d="M10.9,75.8c-2.3-2.9-4.2-6.1-5.4-9.5c-1.3-3.4-2-7.1-2.4-10.8c-0.4-3.7-0.4-7.4-0.4-11.2
		C1.9,48,1.5,51.8,1.6,55.7c0.1,3.8,0.7,7.7,2.1,11.3c1.4,3.6,3.4,7,6.1,9.8c2.6,2.8,5.8,5.1,9.2,6.7C16,81.2,13.2,78.7,10.9,75.8z"
		/>
</g>
</svg>
