<?xml version="1.0" encoding="UTF-8" standalone="no"?>
<svg width="151px" height="263px" viewBox="0 0 151 263" version="1.1" xmlns="http://www.w3.org/2000/svg" xmlns:xlink="http://www.w3.org/1999/xlink" xmlns:sketch="http://www.bohemiancoding.com/sketch/ns">
    <!-- Generator: Sketch 3.1.1 (8761) - http://www.bohemiancoding.com/sketch -->
    <title>food_lemon</title>
    <desc>Created with Sketch.</desc>
    <defs></defs>
    <g id="Page-1" stroke="none" stroke-width="1" fill="none" fill-rule="evenodd" sketch:type="MSPage">
        <g id="food_lemon" sketch:type="MSLayerGroup" transform="translate(1.000000, 1.000000)" fill="#231F20">
            <g id="Group" sketch:type="MSShapeGroup">
                <g transform="translate(20.400000, 0.000000)" id="Shape">
                    <path d="M-0.6,130.759633 C-0.6,202.989908 57.6,261.519266 129.6,262 L129.6,246.977064 C65.88,246.616514 14.28,194.697248 14.28,130.759633 C14.28,66.8220183 65.88,15.0229358 129.6,14.5422018 L129.6,-0.360550459 C57.6,0.120183486 -0.6,58.6495413 -0.6,130.759633 L-0.6,130.759633 Z"></path>
                    <g transform="translate(33.600000, 33.651376)">
                        <path d="M-0.6,92.5412844 L89.88,89.7770642 L26.4,29.5651376 C10.56,46.0302752 0.48,68.1440367 -0.6,92.5412844 L-0.6,92.5412844 Z"></path>
                        <path d="M91.8,100.233028 L-0.6,103.117431 C0.84,126.433028 10.32,147.465138 25.2,163.449541 L91.8,100.233028 L91.8,100.233028 Z"></path>
                        <path d="M34.08,22.3541284 L96,81.0036697 L96,-0.480733945 C72.48,-0.360550459 50.88,8.17247706 34.08,22.3541284 L34.08,22.3541284 Z"></path>
                        <path d="M32.76,170.900917 C49.68,185.683486 71.76,194.697248 96,194.817431 L96,110.929358 L32.76,170.900917 L32.76,170.900917 Z"></path>
                    </g>
                </g>
                <path d="M4.56,100.473394 C5.76,116.577982 7.08,132.322018 9.72,147.585321 C12.48,162.848624 16.32,177.87156 22.68,191.692661 C28.68,205.633945 36.96,218.493578 47.16,230.031193 C57.36,241.568807 69.36,251.66422 82.32,261.278899 C66.96,256.231193 52.56,248.058716 40.32,236.881651 C27.96,225.944954 18.12,211.883486 11.28,196.740367 C4.68,181.477064 1.08,165.011927 0.12,148.666972 C-0.96,132.442202 0.6,116.097248 4.56,100.473394 L4.56,100.473394 Z" id="Shape"></path>
            </g>
        </g>
    </g>
</svg>