<?xml version="1.0" encoding="utf-8"?>
<!-- Generator: Adobe Illustrator 18.1.0, SVG Export Plug-In . SVG Version: 6.00 Build 0)  -->
<!DOCTYPE svg PUBLIC "-//W3C//DTD SVG 1.1//EN" "http://www.w3.org/Graphics/SVG/1.1/DTD/svg11.dtd">
<svg version="1.1" id="Layer_1" xmlns="http://www.w3.org/2000/svg" xmlns:xlink="http://www.w3.org/1999/xlink" x="0px" y="0px"
	 width="110px" height="164.6px" viewBox="0 0 110 164.6" enable-background="new 0 0 110 164.6" xml:space="preserve">
<g>
	<path fill="#231F20" d="M96.1,109.7C90,101.5,86.1,91.5,84.7,80c-2.5-19.6-9.9-30.4-20.9-30.4c-1.3,0-2.7,0.2-4.2,0.5
		c-1,0.2-2.1,0.4-3.2,0.5c0,0,0,0,0,0C55.8,51,53.7,51,52.2,51c2.3,0,4.8-0.1,7.4-0.7C74.2,47,82,61.1,84.3,80
		c1.3,10.3,4.6,20.7,11.6,29.9c11.8,15.8,16,28.1,5,43.8c-9.6,13.6-29.9,11.1-39.1,8.4c-12.6-3.6-25.1,6-43.3-0.8
		c-14.2-5.3-18.2-24.2-14.2-35.1C9,113.3,17,103.7,19.5,98.9c7.1-13.9,5.8-21.6,10.5-36c4.9-14.8,11.6-12.4,20.8-12
		c0-0.1,0.1-0.2,0.1-0.3c-1,0-2.1-0.1-3.1-0.2c-1.5-0.1-2.9-0.2-4.3-0.2c-6,0-10.4,2.1-13.9,12.6c-1.9,5.7-2.8,10.3-3.7,14.8
		c-1.3,6.6-2.5,12.8-6.8,21.2c-0.7,1.4-1.9,3.3-3.5,5.6c-3.6,5.4-8.4,12.8-11.7,21.8c-4,10.9-0.3,30.1,14.4,35.6
		c4.5,1.7,9.1,2.5,14,2.5c4.6,0,8.7-0.7,12.7-1.4c3.6-0.6,7-1.2,10.3-1.2c2.3,0,4.4,0.3,6.3,0.8c2.2,0.6,8.1,2.1,15.1,2.1
		c7.7,0,18.2-1.9,24.4-10.7C112.5,137.8,107.6,125,96.1,109.7z"/>
	<path fill="#231F20" d="M56.4,50.5c0.8-1.4,0.2-27.3-13-35.1c0,0-3.8,2.5-3.8,5.2c0,0,4.5,0.3,6.7,3.8c4.3,6.8,7.9,16.9,4.5,26.2
		c0.7,0,1.4,0.1,2.1,0.1C54.2,50.7,55.3,50.6,56.4,50.5z"/>
	<path fill="#231F20" d="M56.6,31.8c7,0.2,14.8,0.1,24.7-5.4c12-6.6,14.8-22.7,14.8-22.7S84.8-2.6,70.4,4.3
		C58.8,9.8,56,24.4,55.3,29.8c11-9.1,30.6-20.2,30.6-20.2C79.8,13.1,61,28.3,56.6,31.8z"/>
	<path fill="#231F20" d="M43.5,50.9c-5.7,0-9.9,2-13.2,12.1c-1.9,5.7-2.8,10.3-3.7,14.7c-1.3,6.6-2.6,12.9-6.9,21.3
		c-0.7,1.5-2,3.3-3.5,5.7c-3.5,5.4-8.4,12.7-11.7,21.7c-3.8,10.4-0.1,29.5,14,34.7c4.5,1.7,9,2.5,13.8,2.5c4.5,0,8.6-0.7,12.6-1.4
		c3.6-0.6,7-1.2,10.4-1.2c2.4,0,4.5,0.3,6.5,0.9c2.2,0.6,8,2.1,14.9,2.1c7.6,0,17.8-1.8,23.8-10.4c11.1-15.8,6.3-28.4-5-43.4
		C89.3,101.8,85.4,91.7,84,80c-1.4-11.2-5.9-29.9-20.2-29.9c-1.3,0-2.6,0.2-4,0.5c-2.1,0.5-4.3,0.7-6.7,0.7c-1.8,0-3.6-0.1-5.2-0.2
		C46.2,51,44.8,50.9,43.5,50.9z M21.1,154c-5.2-2.6-9-7.8-10.5-13.3c-1.5-5.6-1.1-11.6,0.9-16.8c2-5.3,5.5-9.9,10.1-12.9
		c-3.4,4.2-5.8,8.9-7.1,13.8c-1.2,4.9-1.4,10.1,0,14.8c1.3,4.8,4.1,9,8.2,11.7c4.1,2.7,9.4,3.8,14.8,4
		C32.2,156.7,26.3,156.6,21.1,154z M88.4,101.8l-1.4,2.9l-16.1-8l1.4-2.9L88.4,101.8z M93.6,116.1l-1.4,2.9l-22.2-11l1.4-2.9
		L93.6,116.1z M81.9,90.4l-10.1-5l1.4-2.9l10.1,5L81.9,90.4z M80.4,77.8l-10.2-5l1.4-2.9l10.2,5L80.4,77.8z M69.6,57l9.2,4.5
		l-1.5,2.9L68.1,60L69.6,57z M68.3,115.5L99.7,131l-1.5,2.9l-31.4-15.5L68.3,115.5z M64.3,125.3l35.4,17.5l-1.5,2.9l-35.4-17.5
		L64.3,125.3z M59.2,134.6l34.4,16.9l-1.4,2.9l-34.4-16.9L59.2,134.6z M53,143.4l19,9.3l-1.4,2.9l-19-9.3L53,143.4z"/>
	<path fill="#231F20" d="M50.7,51c0,0,0.6,0,1.5,0C51.7,51,51.2,51,50.7,51C50.7,51,50.7,51,50.7,51z"/>
	<path fill="#231F20" d="M82.6,49c-2.6-2.7-6.4-4.5-10-4.2c3.3,1.4,5.8,3.6,7.7,6.2c1.8,2.6,3.2,5.7,4.2,8.8
		c1.1,3.2,1.9,6.5,2.6,9.8c0.7,3.4,1.4,6.8,2.2,10.3c0.8-3.5,1-7.1,0.9-10.7c-0.2-3.6-0.8-7.2-1.9-10.7C87,55.2,85.3,51.7,82.6,49z"
		/>
</g>
</svg>
