<?xml version="1.0" encoding="utf-8"?>
<!-- Generator: Adobe Illustrator 18.1.0, SVG Export Plug-In . SVG Version: 6.00 Build 0)  -->
<!DOCTYPE svg PUBLIC "-//W3C//DTD SVG 1.1//EN" "http://www.w3.org/Graphics/SVG/1.1/DTD/svg11.dtd">
<svg version="1.1" id="Layer_1" xmlns="http://www.w3.org/2000/svg" xmlns:xlink="http://www.w3.org/1999/xlink" x="0px" y="0px"
	 width="110px" height="381.3px" viewBox="0 0 110 381.3" enable-background="new 0 0 110 381.3" xml:space="preserve">
<g>
	<path fill="#231F20" d="M23.2,47.3C40,47.3,53,57.4,53.9,61.8c0,0-9.2-42.3-31.8-40.9C-1.9,22.3,6.8,47.3,23.2,47.3z"/>
	<path fill="#231F20" d="M68.4,22.8C77,18,86.7,10.3,81.9,4.5C77-1.3,44.3,2.6,60.2,42C60.2,42,59.7,27.6,68.4,22.8z"/>
	<path fill="#231F20" d="M82.2,173.6c-4.3-2.3-7.5-6.5-7.7-11.4l-3.2-82.6h0.3c2.9,0,5.3-2.4,5.3-5.3c0-2.9-2.4-5.3-5.3-5.3H39.8
		c-2.9,0-5.3,2.4-5.3,5.3c0,2.3,1.5,4.2,3.5,5c0.1-0.1,0.1-0.2,0.1-0.2s10.3,0.5,17.4,0c0,0-9.2,3.8-15.7,6.4l-3,76.7
		c-0.2,4.9-3.4,9.1-7.7,11.4c-15.3,8.3-25.7,24.5-25.7,43.2V365c0,9,7.3,16.4,16.4,16.4h71.7c9,0,16.4-7.3,16.4-16.4V216.8
		C107.9,198.1,97.5,181.9,82.2,173.6z M38.1,378.9L13.9,367l1.7-3.4l24.2,11.9L38.1,378.9z M64,378.2l-48.7-24l1.7-3.4l48.7,24
		L64,378.2z M83.6,374.3l-65.8-32.5l1.7-3.4l65.8,32.5L83.6,374.3z M100.5,369.1l-80.7-39.8l1.7-3.4l80.7,39.8L100.5,369.1z
		 M102.1,271l-1.7,3.4l-5-2.5v9.3l6.6,3.3l-1.7,3.4l-5-2.5v9.3l6.6,3.3l-1.7,3.4l-5-2.5v9.3l6.6,3.3l-1.7,3.4l-5-2.5v7.6H92l10.1,5
		l-1.7,3.4l-17-8.4H64.6l37.6,18.5l-1.7,3.4l-44.4-21.9h-19l65,32l-1.7,3.4l-71.7-35.3l0-0.1H12.4V247h59.8l-7.6-3.8l1.7-3.4
		l14.5,7.1h14.8v7.3l6.6,3.3l-1.7,3.4l-5-2.5v9.3L102.1,271z M100.5,247.3l-31.5-15.5l1.7-3.4l31.5,15.5L100.5,247.3z M100.5,233.8
		l-28.8-14.2l1.7-3.4l28.8,14.2L100.5,233.8z M100.5,220.3l-26.5-13.1l1.7-3.4l26.5,13.1L100.5,220.3z M100.5,206.8l-21.1-10.4
		L81,193l21.1,10.4L100.5,206.8z"/>
</g>
</svg>
