<?xml version="1.0" encoding="utf-8"?>
<!-- Generator: Adobe Illustrator 18.1.0, SVG Export Plug-In . SVG Version: 6.00 Build 0)  -->
<!DOCTYPE svg PUBLIC "-//W3C//DTD SVG 1.1//EN" "http://www.w3.org/Graphics/SVG/1.1/DTD/svg11.dtd">
<svg version="1.1" id="Layer_1" xmlns="http://www.w3.org/2000/svg" xmlns:xlink="http://www.w3.org/1999/xlink" x="0px" y="0px"
	 width="110px" height="191.7px" viewBox="0 0 110 191.7" enable-background="new 0 0 110 191.7" xml:space="preserve">
<g>
	<g>
		<g>
			<path fill="#231F20" d="M14.5,93c0,52.4,42.4,95,94.7,95.3v-10.9c-46.4-0.3-83.9-37.9-83.9-84.4c0-46.4,37.5-84.1,83.9-84.4V-2.3
				C56.8-1.9,14.5,40.6,14.5,93z"/>
		</g>
		<g>
			<g>
				<path fill="#231F20" d="M38.9,89.7l65.8-2L58.5,43.9C47,55.9,39.7,71.9,38.9,89.7z"/>
			</g>
			<g>
				<path fill="#231F20" d="M106.2,95.3l-67.2,2.1c1,16.9,7.9,32.2,18.7,43.8L106.2,95.3z"/>
			</g>
			<g>
				<path fill="#231F20" d="M64.2,38.6l45.1,42.7V22.1C92.1,22.2,76.4,28.4,64.2,38.6z"/>
			</g>
			<g>
				<path fill="#231F20" d="M63.2,146.6c12.3,10.7,28.4,17.3,46,17.4v-60.9L63.2,146.6z"/>
			</g>
		</g>
	</g>
	<g>
		<g>
			<path fill="#231F20" d="M3.4,71c0.9,11.7,1.8,23.1,3.8,34.3c2,11.1,4.8,22,9.4,32c4.4,10.1,10.4,19.5,17.8,27.8
				c7.4,8.4,16.2,15.7,25.5,22.7c-11.1-3.6-21.6-9.6-30.6-17.7c-9-8-16.2-18.1-21.1-29.2c-4.8-11.1-7.5-23-8.1-34.9
				C-0.6,94.2,0.5,82.4,3.4,71z"/>
		</g>
	</g>
</g>
</svg>
