<?xml version="1.0" encoding="utf-8"?>
<!-- Generator: Adobe Illustrator 18.1.0, SVG Export Plug-In . SVG Version: 6.00 Build 0)  -->
<!DOCTYPE svg PUBLIC "-//W3C//DTD SVG 1.1//EN" "http://www.w3.org/Graphics/SVG/1.1/DTD/svg11.dtd">
<svg version="1.1" id="Layer_1" xmlns="http://www.w3.org/2000/svg" xmlns:xlink="http://www.w3.org/1999/xlink" x="0px" y="0px"
	 width="110px" height="57.4px" viewBox="0 0 110 57.4" enable-background="new 0 0 110 57.4" xml:space="preserve">
<g>
	<path fill="#231F20" d="M108.1,18.3c0-6.3-10.2-12.2-19,6.5c0,0-7.5-15.4-35.7-17.6C27.2,5.1,5.9,17.6,1.9,30.7
		c3.9,13,25.3,25.6,51.5,23.5c28.2-2.3,35.7-17.6,35.7-17.6c8.8,18.7,19,12.9,19,6.5c0-4.7-4.6-10-7-12.4
		C103.5,28.2,108.1,22.9,108.1,18.3z M9.6,32.9c-1.1,0-2-0.9-2-2c0-1.1,0.9-2,2-2c1.1,0,2,0.9,2,2C11.6,32.1,10.7,32.9,9.6,32.9z
		 M15,36.7c-0.7,1.3-1.7,2.4-2.9,3.2c0.6-1.3,1.2-2.5,1.7-3.7c0.4-1.2,0.7-2.5,0.7-3.8c0-1.3-0.1-2.6-0.4-3.9
		c-0.2-1.3-0.6-2.7-0.7-4.1c0.9,1.1,1.5,2.4,2,3.7c0.5,1.3,0.8,2.8,0.8,4.3C16.1,33.9,15.7,35.4,15,36.7z M35.3,32.2
		c-0.1,0.2-0.3,0.3-0.6,0.3c-0.3,0-0.5,0.1-0.7,0.2c-0.3,0.2-0.5,0.3-0.8,0.3c-0.3,0-0.6,0.1-0.9,0.2c-0.4,0.2-0.8,0.3-1.2,0.3
		c-0.4,0-0.8,0.2-1.1,0.4c-0.2,0.2-0.2,0.5-0.1,0.7c0.1,0.3,0.2,0.5,0.3,0.7c0.1,0.2,0.2,0.5,0.2,0.7c0,0.2,0.1,0.5,0.2,0.7
		c0.1,0.3,0.2,0.6,0.3,0.8c0.1,0.3,0.1,0.6,0.1,0.9c0.1,0.3,0.2,0.5,0.2,0.8c0,0.3,0.1,0.5,0.2,0.8c0,0.2,0.1,0.4,0.1,0.5
		c0.1,0.1,0.1,0.3,0.1,0.5c0,0.3,0.1,0.5,0.1,0.8c0.1,0.3,0,0.5-0.3,0.7c-0.2,0.3-0.6,0.4-1,0.5c-0.4,0-0.7,0.1-1,0.3
		c-0.3,0.1-0.5,0.1-0.8,0.2c-0.3,0.1-0.5,0.2-0.7,0.3c-0.4,0.1-0.8,0.1-1.2,0c-0.2-0.1-0.4-0.2-0.4-0.4c0-0.2-0.1-0.4-0.3-0.6
		c-0.1-0.2-0.1-0.4-0.2-0.6c-0.1-0.2-0.1-0.4,0-0.6c-0.2-0.3-0.3-0.6-0.4-1c-0.1-0.4-0.2-0.7-0.2-1c0-0.1,0-0.2,0-0.3
		c0-0.1,0-0.2-0.1-0.3c0-0.7-0.2-1.3-0.5-1.8c0-0.2-0.1-0.5-0.2-0.7c-0.2-0.7-0.3-1.4-0.5-2c-0.2-0.7-0.3-1.3-0.5-2
		c-0.1-0.2-0.2-0.5-0.2-0.7c-0.1-0.2-0.1-0.5-0.2-0.7c0-0.2-0.1-0.5-0.2-0.7c-0.1-0.2-0.2-0.4-0.2-0.7c-0.1-0.3-0.2-0.5-0.3-0.9
		C22,28.4,22,28.1,22,27.9c-0.2-0.4-0.4-0.9-0.4-1.5c-0.1-0.2-0.2-0.5-0.1-0.7c0-0.2-0.1-0.4-0.2-0.6c-0.2-0.4-0.3-0.7-0.3-1.1
		c0-0.4-0.1-0.8-0.3-1.1c0-0.2,0-0.3-0.1-0.5c-0.1-0.1-0.1-0.3,0-0.4c0.3-0.6,0.8-0.9,1.5-0.9c0.4-0.1,0.9-0.2,1.4-0.3l0.2-0.1
		c0.3-0.1,0.6-0.2,0.8-0.2c0.3,0,0.5,0,0.8-0.2c0.3-0.1,0.6-0.2,0.9-0.2c0.3-0.1,0.5-0.2,0.7-0.3c0.3,0,0.5,0,0.8-0.2
		c0.2-0.1,0.5-0.2,0.7-0.3c0.3-0.1,0.6-0.2,0.9-0.2c0.3,0,0.6-0.1,0.9-0.2c0.3-0.2,0.6-0.3,1-0.4c0.4,0,0.7-0.1,1,0
		c0.4,0.2,0.7,0.5,0.8,0.9c0.1,0.4,0.2,0.8,0.3,1.3c0.1,0.4,0.2,0.7,0.2,1.1c0,0.4,0.1,0.7,0.2,1.1c0,0.1,0,0.2-0.1,0.4
		c-0.1,0.1-0.1,0.2-0.2,0.3c-0.1,0.1-0.3,0.2-0.4,0.2c-0.2,0.1-0.3,0.1-0.4,0.2c-0.4,0-0.7,0.1-1,0.2c-0.3,0.1-0.7,0.2-1,0.4
		c-0.1,0-0.3,0-0.4,0c-0.1,0-0.2,0.1-0.3,0.1c-0.1,0.1-0.2,0.1-0.3,0.2c-0.1,0.1-0.2,0.1-0.4,0c-0.3,0-0.6,0.1-1,0.2
		c-0.3,0.1-0.6,0.3-0.7,0.6c-0.1,0.3,0,0.6,0.1,1c0.1,0.3,0.2,0.7,0.2,1c0,0.2,0.1,0.3,0.2,0.4c0.1,0.1,0.1,0.3,0.1,0.5
		c0,0.2,0.1,0.3,0.3,0.4c0.2,0.1,0.3,0.1,0.5,0.1c0.3-0.1,0.5-0.2,0.8-0.2c0.3-0.1,0.5-0.1,0.8-0.2c0.1,0,0.2,0.1,0.3,0
		c0.1,0,0.2-0.1,0.2-0.1c0.1-0.1,0.2-0.1,0.2-0.2c0.1,0,0.2-0.1,0.3-0.1c0.1-0.1,0.3-0.1,0.4-0.1c0.1,0,0.3,0,0.4-0.1
		c0.3-0.1,0.6-0.2,0.9-0.2c0.3-0.1,0.6-0.1,0.9-0.1c0.2,0,0.3,0.1,0.4,0.2c0.1,0.1,0.2,0.2,0.2,0.3c0,0.1,0.1,0.3,0.1,0.4
		c0,0.2,0.1,0.3,0.1,0.4c0.1,0.3,0.2,0.6,0.3,1c0.1,0.3,0.2,0.7,0.3,1c-0.1,0.2-0.1,0.4,0,0.7C35.6,31.8,35.5,32,35.3,32.2z
		 M43.8,40.2c-0.2,0.1-0.4,0.2-0.7,0.2c-0.2,0-0.4,0-0.6,0.1c-0.4,0-0.9,0.1-1.3,0.2c-0.4,0.1-0.9,0.2-1.4,0.2
		c-0.2,0-0.4-0.1-0.5-0.1c-0.2,0-0.3-0.2-0.5-0.3c-0.1-0.1-0.2-0.3-0.2-0.4c0-0.2-0.1-0.3-0.1-0.5c0-0.2,0-0.3,0-0.5
		c0-0.2,0-0.3-0.1-0.5c-0.1-0.1-0.1-0.3-0.1-0.4c0-0.1,0-0.3,0-0.4c0-0.1,0-0.3,0-0.4c0-0.1-0.1-0.3-0.1-0.4
		c-0.1-0.3-0.1-0.6-0.1-0.9c0-0.3-0.1-0.5-0.2-0.8c0-0.3,0-0.6,0-0.9c0-0.3-0.1-0.6-0.2-0.8c0-0.2,0-0.3-0.1-0.5c0-0.2,0-0.3,0-0.5
		c0-0.3-0.1-0.5-0.1-0.8c-0.1-0.3-0.1-0.6-0.1-0.8c0-0.3,0-0.5-0.1-0.8c-0.1-0.3-0.2-0.5-0.2-0.8c0-0.4,0-0.8-0.1-1.2
		c-0.1-0.4-0.1-0.8-0.1-1.2c0.1-0.2,0.1-0.5-0.1-0.7c-0.1-0.2-0.2-0.5,0-0.7c0-0.2-0.1-0.3-0.2-0.5c-0.1-0.1-0.1-0.3,0-0.5
		c0-0.3-0.1-0.7-0.2-1c-0.1-0.3-0.1-0.7-0.1-1c-0.1-0.1-0.1-0.3-0.1-0.4c0-0.1,0-0.3,0.1-0.4c-0.1-0.5-0.2-1-0.3-1.5
		c-0.2-0.5-0.2-1-0.1-1.5c-0.1-0.2-0.1-0.3,0-0.5c0.1-0.2,0.2-0.3,0.3-0.4c0.3-0.2,0.6-0.2,0.9-0.2c0.3,0,0.6,0,0.9-0.2
		c0.2-0.1,0.4-0.1,0.5-0.1c0.2,0,0.3,0,0.4-0.1c0.3-0.1,0.6-0.1,0.9-0.1c0.3,0,0.6,0,0.9-0.1c0.3,0.1,0.5,0.2,0.7,0.5
		c0.2,0.2,0.3,0.5,0.3,0.8c0.1,0.4,0.2,0.8,0.2,1.2c0.1,0.7,0.2,1.4,0.3,2.1c0.1,0.7,0.1,1.4,0.2,2.1c0,0.2,0,0.3,0,0.5
		c0.1,0.1,0.1,0.3,0.1,0.4c0.1,0.2,0.1,0.4,0.1,0.5c0,0.2,0,0.3,0.2,0.4c-0.1,0.3-0.1,0.6,0.1,0.9c0.1,0.3,0.2,0.6,0.2,0.9
		c0,0.4,0,0.7,0,1.1c0,0.4,0.1,0.8,0.2,1.1c0,0.1,0,0.3,0,0.4c0,0.1,0.1,0.3,0.1,0.4c0.1,0.7,0.2,1.5,0.3,2.2c0,0.8,0.2,1.5,0.4,2.2
		c0.1,0.1,0.1,0.2,0.1,0.3c0,0.1,0,0.2,0,0.3c0,0.1,0,0.2,0,0.3c0,0.1,0,0.2,0.1,0.3c0.1,0.4,0.1,0.7,0.1,1c-0.1,0.3,0,0.7,0.1,1
		c0.1,0.4,0.2,0.8,0.2,1.2C44.4,39.6,44.2,39.9,43.8,40.2z M57.9,34.3c-0.1,0.4-0.2,0.8-0.4,1.2c-0.2,0.4-0.3,0.7-0.6,1
		c-0.2,0.3-0.5,0.6-0.8,0.9c-0.1,0.1-0.2,0.3-0.3,0.4c-0.1,0.1-0.2,0.3-0.3,0.4c-0.3,0.3-0.6,0.5-1,0.8c-0.3,0.3-0.7,0.4-1.1,0.5
		c-0.2,0-0.3,0-0.4,0.1c-0.1,0.1-0.2,0.1-0.4,0.2c-0.3,0.2-0.5,0.3-0.9,0.3c-0.3,0-0.6,0-1,0.1c-0.3,0.1-0.6,0.1-0.9,0
		c-0.3-0.1-0.6-0.1-0.9-0.1c-0.3,0-0.5-0.1-0.7-0.1c-0.2-0.1-0.5-0.2-0.7-0.3c-0.3,0-0.5-0.1-0.7-0.2c-0.2-0.1-0.4-0.2-0.7-0.2
		c-0.2-0.1-0.4-0.3-0.7-0.4c-0.2-0.2-0.4-0.4-0.5-0.6c0-0.3,0-0.5-0.1-0.8c-0.1-0.3,0-0.6,0.1-0.8c0.1-0.1,0.1-0.2,0.1-0.3
		c0-0.1-0.1-0.2-0.1-0.3c0-0.1-0.1-0.2-0.1-0.3c0-0.1,0-0.2,0-0.4c-0.1-0.3-0.1-0.6-0.1-0.9c0.1-0.3,0.1-0.6,0.1-0.9
		c0.1-0.2,0.3-0.3,0.5-0.4c0.3,0.1,0.5,0.1,0.7,0.2c0.2,0.1,0.4,0.3,0.6,0.5c0.3,0.2,0.5,0.4,0.8,0.5c0.3,0.1,0.6,0.2,0.9,0.3
		c0.2,0.1,0.5,0.2,0.8,0.1c0.3,0,0.6,0,0.8,0c0.2-0.1,0.4-0.1,0.6-0.1c0.2,0,0.4-0.1,0.5-0.3c0.4-0.3,0.7-0.6,0.9-1
		c0.2-0.4,0.3-0.8,0.2-1.3c-0.1-0.4-0.3-0.7-0.6-0.9c-0.3-0.3-0.6-0.6-0.8-0.8c-0.4-0.2-0.7-0.3-1.1-0.6c-0.3-0.2-0.7-0.4-1-0.6
		c-0.1-0.1-0.2-0.2-0.3-0.2c-0.1-0.1-0.2-0.1-0.3-0.2c-0.2-0.2-0.5-0.4-0.7-0.6c-0.2-0.2-0.5-0.4-0.7-0.5c-0.3-0.1-0.5-0.3-0.6-0.6
		c-0.1-0.3-0.3-0.5-0.5-0.7c-0.1-0.3-0.3-0.5-0.3-0.8c-0.1-0.3-0.2-0.5-0.3-0.8c-0.1-0.3-0.1-0.5-0.2-0.8c-0.1-0.3-0.1-0.6,0-0.8
		c-0.1-0.3-0.2-0.7-0.1-1c0.1-0.4,0.2-0.7,0.4-0.9c-0.1-0.4,0-0.8,0.2-1.1c0.2-0.3,0.4-0.6,0.5-1c0.2-0.3,0.4-0.5,0.6-0.8
		c0.2-0.3,0.4-0.5,0.7-0.7c0.2-0.2,0.5-0.3,0.7-0.5c0.3-0.1,0.5-0.3,0.7-0.5c0.3-0.2,0.7-0.3,1.1-0.4c0.4,0,0.7-0.1,1.1-0.3
		c0.3,0,0.6,0,0.9,0c0.3-0.1,0.6-0.1,1-0.1c0.2-0.1,0.3-0.1,0.4,0c0.1,0.1,0.3,0.1,0.5,0.1l0.8,0.2c0.1,0.1,0.3,0.2,0.5,0.2
		c0.2,0,0.4,0,0.5,0.1c0.2,0,0.3,0.1,0.5,0.2c0.1,0.1,0.3,0.2,0.4,0.3c0.2,0.2,0.3,0.4,0.3,0.6c0.1,0.2,0.1,0.5,0.1,0.7
		c0,0.2,0,0.5,0,0.7c0,0.2,0,0.5,0.1,0.7c0.1,0.2,0.1,0.4,0,0.6c0,0.2-0.1,0.4-0.1,0.6c0,0.2,0,0.4,0,0.5c0,0.2,0.1,0.3,0.2,0.5
		c0,0.2-0.1,0.3-0.2,0.4c-0.1,0.1-0.2,0.2-0.4,0.2c-0.2,0-0.4-0.1-0.6-0.2c-0.2-0.1-0.4-0.3-0.5-0.4c-0.2-0.1-0.4-0.3-0.5-0.4
		c-0.2-0.1-0.4-0.2-0.6-0.2c-0.3-0.1-0.5-0.2-0.8-0.3c-0.3-0.1-0.5-0.1-0.8,0.1c-0.2,0-0.3,0-0.5,0c-0.2,0.1-0.3,0.1-0.5,0.2
		c-0.5,0.5-0.8,1.1-0.8,1.7c0.1,0.4,0.3,0.7,0.6,0.9c0.3,0.2,0.6,0.5,0.8,0.7c0.2,0.1,0.4,0.2,0.6,0.3c0.2,0.1,0.4,0.2,0.5,0.3
		c0.3,0,0.5,0.1,0.7,0.3c0.2,0.2,0.5,0.3,0.7,0.3c0.2,0.1,0.4,0.3,0.5,0.4c0.2,0.2,0.3,0.3,0.5,0.4c0.3,0.1,0.5,0.3,0.6,0.5
		c0.1,0.2,0.3,0.4,0.5,0.6c0.5,0.3,0.8,0.7,0.9,1.2c0.1,0.5,0.3,1,0.4,1.4c0.1,0.4,0.1,0.8,0.1,1.2c0,0.4,0,0.8,0,1.2
		C58.1,33.5,58,33.9,57.9,34.3z M75.8,20.1c-0.1,0.5-0.2,1.1-0.3,1.5c-0.1,0.1-0.1,0.2-0.1,0.4c0,0.2,0,0.3,0,0.4
		c-0.1,0.9-0.1,1.7-0.3,2.6c-0.1,0.9-0.2,1.7-0.3,2.6l-0.1,0.2c-0.1,0.7-0.2,1.3-0.2,2c-0.1,0.7-0.2,1.3-0.3,1.9c0,0.3,0,0.6,0,0.9
		c0,0.3,0,0.6-0.2,0.8C74,33.6,74,33.7,74,33.9c0,0.2,0,0.3,0,0.5c0,0.2,0,0.3,0,0.5c0,0.2,0,0.3-0.1,0.5c-0.1,0.2-0.1,0.4-0.1,0.6
		c0,0.2,0,0.4-0.1,0.6c0.1,0.3,0.1,0.7,0,1c0,0.4-0.1,0.7-0.2,1c0.1,0.3,0,0.5-0.1,0.7c-0.1,0.2-0.2,0.5-0.1,0.7
		c0,0.3,0,0.5-0.1,0.7c-0.1,0.2-0.2,0.4-0.4,0.4c0,0-0.1,0.1-0.2,0.1c-0.1,0.1-0.1,0.1-0.2,0.1c-0.3,0-0.5,0-0.8-0.1
		c-0.3,0-0.5-0.1-0.7-0.2c-0.2,0-0.4,0-0.5,0c-0.2,0-0.3,0-0.5-0.1c-0.3,0-0.6,0-0.9-0.1c-0.3-0.1-0.6-0.2-0.9-0.3
		c-0.1-0.1-0.1-0.1-0.2-0.2c-0.1-0.1-0.1-0.2-0.2-0.3c0-0.3,0-0.6,0-0.9c0-0.3,0-0.6,0-0.9c0.1-0.2,0.1-0.4,0.1-0.7
		c0-0.2,0-0.4,0.1-0.7l0.1-0.1c0.1-0.4,0.1-0.8,0.1-1.2c0-0.4,0-0.8,0.1-1.2c0.1-0.2,0.1-0.4,0.1-0.6c0-0.2,0-0.4,0-0.6
		c0.1-0.3,0.1-0.7,0.2-1c0.1-0.3,0-0.7-0.2-0.9c-0.1,0-0.3-0.1-0.3-0.2c-0.1-0.1-0.2-0.1-0.4-0.1c-0.2,0.1-0.4,0.2-0.6,0.1
		c-0.2-0.1-0.4-0.1-0.6,0c-0.1-0.1-0.3-0.1-0.4,0c-0.1,0.1-0.3,0.1-0.4,0.1c-0.3,0.2-0.4,0.5-0.4,0.9c0,0.4,0,0.7-0.1,1.1
		c-0.1,0.3-0.2,0.5-0.1,0.8c0,0.3,0.1,0.6,0,0.8c-0.2,0.4-0.3,0.8-0.2,1.3c0,0.5,0,0.9-0.2,1.3c0,0.1,0,0.1,0,0.2
		c0,0.1,0.1,0.1,0.1,0.1c-0.1,0.3-0.1,0.7-0.2,1c0,0.4-0.1,0.7-0.2,1c-0.1,0.2-0.3,0.3-0.5,0.4c-0.2,0.1-0.4,0.1-0.6,0
		c-0.2-0.1-0.3-0.1-0.5-0.1c-0.2,0-0.3,0-0.5,0c-0.4,0-0.9-0.1-1.4-0.1c-0.5-0.1-0.9-0.1-1.3-0.2c-0.2,0-0.3-0.1-0.4-0.3
		c-0.1-0.2-0.2-0.3-0.3-0.4c-0.1-0.3-0.2-0.6-0.1-0.9c0.1-0.3,0.1-0.6,0.1-0.9C59,37.2,59,37,59,36.8c0-0.2,0-0.3,0-0.5
		c0-0.3,0.1-0.5,0.2-0.8c0.1-0.2,0.1-0.5,0-0.8c0.1-0.2,0.1-0.4,0.1-0.7c0-0.2,0-0.4,0.2-0.7c0-0.3,0-0.6,0.1-0.9
		c0.1-0.3,0.1-0.5,0.1-0.8c0.1-0.7,0.2-1.3,0.2-2c0.1-0.6,0.2-1.3,0.3-2c-0.1-0.3,0-0.6,0-0.8c0.1-0.3,0.1-0.6,0-0.8
		c0.1-0.4,0.2-0.8,0.2-1.2c0-0.4,0.1-0.8,0.1-1.2c0-0.2,0-0.4,0.1-0.6c0.1-0.2,0.1-0.4,0-0.6c0.1-0.2,0.2-0.5,0.1-0.8
		c-0.1-0.3,0-0.5,0.1-0.8c0.1-0.3,0.1-0.5,0-0.8c-0.1-0.3,0-0.5,0.1-0.7c0-0.4,0.1-0.8,0.1-1.1c0-0.4,0.1-0.7,0.3-1.1
		c0.1-0.2,0.2-0.4,0.4-0.4c0.2,0,0.4-0.1,0.5-0.2c0.4,0,0.9,0.1,1.3,0.1c0.4,0,0.9,0.1,1.3,0.1c0.1,0.1,0.2,0.1,0.3,0.1
		c0.1,0,0.2-0.1,0.3,0c0.2,0.1,0.4,0.2,0.7,0.3c0.3,0,0.4,0.2,0.5,0.5c0,0.2,0,0.3,0,0.5c0,0.2,0,0.4-0.1,0.6c0,0.3,0,0.5,0,0.8
		c0,0.3-0.1,0.5-0.1,0.8c0,0.2,0,0.4,0,0.5c0,0.2,0,0.3-0.1,0.5c-0.1,0.2-0.1,0.3-0.1,0.5c0.1,0.1,0.1,0.3,0,0.5
		c0,0.2-0.1,0.4-0.1,0.6c-0.1,0.2-0.1,0.4,0,0.6c-0.1,0.1-0.1,0.2-0.1,0.3c0,0.1,0,0.2,0,0.3c0,0.1,0,0.2,0,0.3c0,0.1,0,0.2-0.1,0.3
		c0.1,0.2,0.1,0.4,0.1,0.7c0,0.2,0.1,0.4,0.3,0.5c0.3,0.1,0.6,0.2,0.9,0.1c0.3,0,0.6,0,0.9,0c0.2,0,0.4,0,0.6-0.1
		c0.2-0.1,0.3-0.2,0.4-0.4c0.1-0.3,0.1-0.6,0.2-0.9c0-0.3,0.1-0.6,0.1-0.9c0-0.6,0.1-1.2,0.2-1.8c0.1-0.6,0.2-1.2,0.2-1.9
		c0-0.2,0-0.5,0.1-0.7c0.1-0.2,0.2-0.5,0.2-0.7c0-0.2,0-0.4,0-0.6c0.1-0.2,0.3-0.4,0.6-0.4c0.2,0,0.5-0.1,0.7-0.1
		c0.1,0.1,0.2,0.1,0.3,0.1c0.1,0,0.2,0,0.3,0c0.1,0,0.2,0,0.3,0c0.1,0,0.2,0,0.3,0.1c0.2,0,0.4,0.1,0.6,0.1c0.2,0,0.4,0,0.6-0.1
		c0.3,0,0.6,0.1,0.9,0.1c0.3,0,0.5,0.2,0.7,0.6C75.8,19.1,75.9,19.5,75.8,20.1z"/>
	<path fill="#231F20" d="M51.5,2.5c4.3,0.1,8.6,0.6,12.8,1.5c4.2,0.9,8.3,2.3,12.1,4.2c3.8,1.9,7.4,4.4,10.3,7.6
		c-2.4-3.6-5.9-6.5-9.7-8.7c-3.8-2.2-8.1-3.7-12.3-4.6c-4.3-0.9-8.7-1.3-13.1-1.2c-4.4,0.1-8.8,0.7-12.9,2
		C42.9,2.7,47.2,2.4,51.5,2.5z"/>
</g>
</svg>
