<?xml version="1.0" encoding="UTF-8" standalone="no"?>
<svg width="151px" height="174px" viewBox="0 0 151 174" version="1.1" xmlns="http://www.w3.org/2000/svg" xmlns:xlink="http://www.w3.org/1999/xlink" xmlns:sketch="http://www.bohemiancoding.com/sketch/ns">
    <!-- Generator: Sketch 3.1.1 (8761) - http://www.bohemiancoding.com/sketch -->
    <title>food_sausage</title>
    <desc>Created with Sketch.</desc>
    <defs></defs>
    <g id="Page-1" stroke="none" stroke-width="1" fill="none" fill-rule="evenodd" sketch:type="MSPage">
        <g id="food_sausage" sketch:type="MSLayerGroup" transform="translate(1.000000, 0.000000)" fill="#231F20">
            <g id="Group" sketch:type="MSShapeGroup">
                <g transform="translate(4.166667, 0.000000)" id="Shape">
                    <path d="M125.763889,51.3419355 C110.416667,48.7608871 98.2638889,58.1782258 88.9583333,60.8290323 C81.5972222,62.9217742 75.9722222,63.8983871 69.0277778,63.828629 C62.0833333,63.8983871 56.4583333,62.9217742 49.0972222,60.8290323 C39.7916667,58.1782258 27.6388889,48.7608871 12.2916667,51.3419355 C-1.31944444,53.6439516 -13.6805556,85.5233871 32.2916667,98.0798387 C50.8333333,103.102419 59.4444444,103.520968 69.0277778,103.590726 C78.6111111,103.520968 87.2222222,103.102419 105.763889,98.0798387 C151.736111,85.5233871 139.375,53.6439516 125.763889,51.3419355 L125.763889,51.3419355 Z M20.4166667,82.9423387 C29.7916667,76.3850806 20.8333333,53.9229839 20.8333333,53.9229839 C23.6805556,56.0854839 27.7777778,60.0616935 28.1944444,68.083871 C28.8194444,79.2451613 20.4166667,82.9423387 20.4166667,82.9423387 L20.4166667,82.9423387 Z M36.0416667,89.4298387 C45.4166667,82.8725806 36.4583333,60.4104839 36.4583333,60.4104839 C39.3055556,62.5729839 43.4027778,66.5491935 43.8194444,74.571371 C44.5138889,85.8024194 36.0416667,89.4298387 36.0416667,89.4298387 L36.0416667,89.4298387 Z M53.8888889,94.6616935 C63.4027778,85.383871 54.3055556,65.6423387 54.3055556,65.6423387 C57.6388889,67.3862903 61.9444444,71.2927419 62.4305556,79.3149194 C62.9861111,90.5459677 53.8888889,94.6616935 53.8888889,94.6616935 L53.8888889,94.6616935 Z M77.4305556,97.4520161 C83.75,83.6399194 72.7777778,68.7814516 72.7777778,68.7814516 C77.9861111,70.8741935 81.8055556,72.6181452 82.9166667,81.3379032 C84.375,92.4294355 77.4305556,97.4520161 77.4305556,97.4520161 L77.4305556,97.4520161 Z M99.8611111,92.0806452 C104.444444,76.8733871 91.3194444,64.3169355 91.3194444,64.3169355 C94.6527778,65.5028226 100.555556,67.7350806 102.708333,75.4782258 C105.277778,84.6165323 99.8611111,92.0806452 99.8611111,92.0806452 L99.8611111,92.0806452 Z M122.847222,82.7330645 C125.625,67.8745968 108.472222,57.8991935 108.472222,57.8991935 C111.388889,57.7596774 118.333333,58.9455645 122.152778,66.0608871 C126.388889,73.9435484 122.847222,82.7330645 122.847222,82.7330645 L122.847222,82.7330645 Z"></path>
                    <path d="M71.6666667,55.3879032 C73.0555556,52.946371 73.9583333,50.3653226 73.6805556,48.1330645 C73.4027778,45.8310484 72.2222222,43.8778226 70.625,42.0641129 C69.8611111,41.1572581 68.9583333,40.2504032 67.9861111,39.4133065 C67.5,38.9947581 67.0138889,38.5762097 66.5277778,38.1576613 L65.7638889,37.4600806 C65.4861111,37.1810484 65.2083333,36.9717742 64.9305556,36.6927419 C62.7777778,34.6 60.8333333,32.0189516 59.7222222,28.9495968 C59.1666667,27.4149194 58.8888889,25.7407258 58.75,24.1362903 C58.6805556,22.5318548 58.8194444,20.9274194 59.0277778,19.4625 C59.5138889,16.4629032 60.4861111,13.6028226 61.875,11.0217742 C63.2638889,8.44072581 65,5.99919355 67.1527778,4.04596774 C69.3055556,2.09274194 71.875,0.558064516 74.6527778,3.55271368e-15 C72.5,1.74395161 70.8333333,3.83669355 69.5138889,5.99919355 C68.1944444,8.23145161 67.1527778,10.5334677 66.3194444,12.9052419 C65.5555556,15.2770161 65,17.7883065 64.7916667,20.1600806 C64.7222222,21.4157258 64.6527778,22.5318548 64.7916667,23.6479839 C64.9305556,24.7641129 65.1388889,25.8104839 65.4861111,26.7870968 C66.1805556,28.8100806 67.4305556,30.7633065 69.0972222,32.5770161 L69.7222222,33.2745968 L70.4166667,33.9721774 C70.9027778,34.4604839 71.3888889,35.0185484 71.875,35.5766129 C72.8472222,36.6927419 73.6805556,37.878629 74.5138889,39.2040323 C75.2777778,40.5294355 75.9722222,41.9245968 76.3888889,43.4592742 C76.8055556,44.9939516 76.9444444,46.6681452 76.6666667,48.2725806 C76.3888889,49.8770161 75.6944444,51.2721774 74.7916667,52.4580645 C73.9583333,53.7137097 72.8472222,54.6205645 71.6666667,55.3879032 L71.6666667,55.3879032 Z"></path>
                    <path d="M85.1388889,50.1560484 C86.4583333,46.528629 86.8055556,43.0407258 85.7638889,40.3899194 C85.2777778,39.0645161 84.5138889,37.878629 83.5416667,36.7625 C82.5694444,35.646371 81.3194444,34.6 79.8611111,33.2745968 C78.4722222,31.9491935 76.875,30.0657258 76.0416667,27.8334677 C75.2083333,25.7407258 74.8611111,23.5084677 75.1388889,21.2762097 C75.3472222,19.0439516 76.1805556,16.8814516 77.5694444,15.2072581 C78.9583333,13.5330645 80.8333333,12.4866935 82.7777778,12.1379032 C80.2083333,15.0677419 79.5138889,18.346371 80,21.2762097 C80.2777778,22.741129 80.7638889,24.2060484 81.3888889,25.4616935 C82.0138889,26.6475806 82.9166667,27.6241935 84.1666667,28.8100806 C85.3472222,29.9959677 86.875,31.391129 88.1944444,33.2048387 C89.4444444,35.0185484 90.3472222,37.1810484 90.5555556,39.4830645 C90.7638889,41.7850806 90.2777778,44.0173387 89.3055556,45.8310484 C88.2638889,47.7145161 86.8055556,49.1794355 85.1388889,50.1560484 L85.1388889,50.1560484 Z"></path>
                    <path d="M55.2083333,52.1790323 C55.7638889,50.2955645 56.0416667,48.4818548 55.9027778,46.8774194 C55.8333333,45.2729839 55.4166667,43.8080645 54.7916667,42.3431452 C53.4722222,39.5528226 51.3888889,36.9020161 49.0972222,34.1116935 L47.4305556,31.9491935 L46.5277778,30.8330645 L46.1111111,30.275 L45.9027778,29.9959677 C45.7638889,29.8564516 45.6944444,29.7169355 45.625,29.5076613 C44.8611111,28.2520161 44.5833333,27.1358871 44.375,26.0895161 C44.1666667,24.9733871 44.0972222,23.9270161 44.0972222,22.9504032 C44.0972222,20.8576613 44.375,18.8346774 45.1388889,16.8814516 C45.4861111,15.9048387 45.9722222,14.9979839 46.5972222,14.1608871 C47.2222222,13.3237903 48.0555556,12.5564516 48.9583333,12.2774194 C48.4027778,13.1145161 48.2638889,13.9516129 48.125,14.8584677 C48.0555556,15.6955645 48.0555556,16.6024194 48.125,17.4395161 C48.2638889,19.1137097 48.4722222,20.8576613 48.8888889,22.4620968 C49.0972222,23.2294355 49.375,23.9967742 49.6527778,24.6943548 C49.9305556,25.3919355 50.2777778,26.0197581 50.5555556,26.3685484 L52.1527778,28.2520161 L53.9583333,30.4145161 C55.1388889,31.8794355 56.25,33.483871 57.2222222,35.2278226 C58.1944444,36.9717742 59.0277778,38.925 59.4444444,41.0875 C59.8611111,43.1802419 59.7222222,45.5520161 58.9583333,47.5052419 C58.125,49.3887097 56.7361111,50.9931452 55.2083333,52.1790323 L55.2083333,52.1790323 Z"></path>
                    <path d="M86.9444444,103.8 C84.1666667,104.218548 81.6666667,104.497581 79.375,104.706855 L79.375,125.215726 C79.375,126.680645 78.1944444,127.866532 76.7361111,127.866532 C75.2777778,127.866532 74.0972222,126.680645 74.0972222,125.215726 L74.0972222,104.985887 C72.3611111,105.055645 70.6944444,105.055645 68.9583333,105.055645 L66.0416667,105.055645 L66.0416667,125.215726 C66.0416667,126.680645 64.8611111,127.866532 63.4027778,127.866532 C61.9444444,127.866532 60.7638889,126.680645 60.7638889,125.215726 L60.7638889,104.846371 C58.4027778,104.706855 55.9027778,104.497581 53.1944444,104.079032 C53.4027778,109.729435 53.6111111,119.635081 53.4722222,124.797177 C53.2638889,132.191532 54.6527778,136.028226 60.2083333,139.655645 C65.2083333,142.934274 65.2083333,147.747581 65.2083333,147.747581 L65.625,172.860484 C65.625,172.860484 68.4722222,173.069758 70,173 C71.4583333,173.069758 74.375,172.860484 74.375,172.860484 L74.7916667,147.747581 C74.7916667,147.747581 74.7916667,142.934274 79.7916667,139.655645 C85.3472222,136.028226 86.7361111,132.26129 86.5277778,124.797177 C86.4583333,119.565323 86.7361111,109.380645 86.9444444,103.8 L86.9444444,103.8 Z"></path>
                </g>
                <path d="M131.875,93.8245968 C135.347222,92.2899194 138.472222,90.3366935 140.972222,87.7556452 C143.402778,85.1745968 145.208333,82.1052419 146.111111,78.7568548 C147.083333,75.4084677 147.222222,71.7810484 146.736111,68.2233871 C146.25,64.6657258 145.138889,61.1080645 143.611111,57.6201613 C146.180556,60.4104839 148.125,63.9681452 149.097222,67.7350806 C150.138889,71.5717742 150.138889,75.6875 149.097222,79.5939516 C147.986111,83.5004032 145.763889,87.0580645 142.638889,89.5693548 C139.513889,92.0806452 135.694444,93.4758065 131.875,93.8245968 L131.875,93.8245968 Z" id="Shape"></path>
                <path d="M0.277777778,60.6895161 C-0.208333333,59.2245968 -0.138888889,57.5504032 0.347222222,56.0157258 C0.763888889,54.4810484 1.52777778,53.016129 2.43055556,51.6907258 C4.30555556,49.0399194 6.875,47.0169355 9.72222222,45.6217742 C12.5694444,44.2266129 15.8333333,43.4592742 18.9583333,43.5987903 C22.1527778,43.7383065 25.2777778,44.7846774 27.6388889,46.6681452 C24.6527778,45.9705645 21.8055556,45.6915323 19.0277778,45.9705645 C16.25,46.3193548 13.5416667,47.0866935 11.0416667,48.3423387 C8.54166667,49.5282258 6.25,51.2024194 4.30555556,53.2254032 C3.33333333,54.2020161 2.43055556,55.3181452 1.73611111,56.5737903 C0.972222222,57.7596774 0.486111111,59.1548387 0.277777778,60.6895161 L0.277777778,60.6895161 Z" id="Shape"></path>
            </g>
        </g>
    </g>
</svg>