<?xml version="1.0" encoding="UTF-8" standalone="no"?>
<svg width="151px" height="170px" viewBox="0 0 151 170" version="1.1" xmlns="http://www.w3.org/2000/svg" xmlns:xlink="http://www.w3.org/1999/xlink" xmlns:sketch="http://www.bohemiancoding.com/sketch/ns">
    <!-- Generator: Sketch 3.1.1 (8761) - http://www.bohemiancoding.com/sketch -->
    <title>food_noodles</title>
    <desc>Created with Sketch.</desc>
    <defs></defs>
    <g id="Page-1" stroke="none" stroke-width="1" fill="none" fill-rule="evenodd" sketch:type="MSPage">
        <g id="food_noodles" sketch:type="MSLayerGroup" fill="#231F20">
            <g id="Group" sketch:type="MSShapeGroup">
                <path d="M150.052448,100.052632 L0.157342657,100.052632 C1.04895105,130.421053 22.0804196,155.684211 50.2972028,162.894737 C50.0874126,163.473684 49.9300699,164.105263 49.9300699,164.789474 C49.9300699,167.684211 52.2377622,170 55.1223776,170 L95.034965,170 C97.9195804,170 100.227273,167.684211 100.227273,164.789474 C100.227273,164.105263 100.06993,163.473684 99.8601399,162.894737 C128.076923,155.684211 149.108392,130.421053 150.052448,100.052632 L150.052448,100.052632 Z" id="Shape"></path>
                <path d="M41.8006993,98.1578947 L39.3356643,98.1052632 C39.493007,93.4210526 42.4300699,89.8947368 46.8881119,89.0526316 C51.2412587,88.2631579 57.1678322,90.3684211 59.8426573,96.8421053 L57.5874126,97.7894737 C55.4370629,92.5789474 50.8216783,90.8421053 47.3601399,91.4736842 C44.7377622,91.9473684 41.958042,93.9473684 41.8006993,98.1578947 L41.8006993,98.1578947 Z" id="Shape"></path>
                <path d="M35.6118881,98.3684211 L33.1468531,98.2631579 C33.513986,88.8947368 39.5979021,84.3157895 45.2097902,83.1578947 C52.3426573,81.6842105 59.3706294,85 62.3076923,91.1578947 L60.1048951,92.2105263 C57.3776224,86.4736842 50.8216783,84.5263158 45.7342657,85.5789474 C39.5979021,86.7894737 35.8741259,91.5789474 35.6118881,98.3684211 L35.6118881,98.3684211 Z" id="Shape"></path>
                <path d="M24.5979021,98.2631579 C24.0734266,90.8421053 27.5874126,82.6842105 32.6748252,79.2105263 C38.3391608,75.3684211 44.4755245,74 50.4020979,75.2631579 C56.958042,76.6842105 63.041958,81.1578947 67.0804196,87.6315789 L64.9825175,88.9473684 C61.3636364,83.1578947 55.6993007,78.9473684 49.8776224,77.6842105 C44.527972,76.5263158 39.1783217,77.7368421 34.0384615,81.2631579 C29.6853147,84.2105263 26.5909091,91.6315789 27.0104895,98.1052632 L24.5979021,98.2631579 L24.5979021,98.2631579 Z" id="Shape"></path>
                <path d="M82.6573427,97.6842105 C82.027972,92.8421053 78.0944056,91.1052632 74.527972,91.4736842 C71.3286713,91.8421053 68.2342657,93.9473684 68.548951,97.3157895 L66.0839161,97.5263158 C65.6643357,92.5789474 69.8601399,89.5263158 74.2657343,89.0526316 C78.8811189,88.5263158 84.2832168,90.9473684 85.1223776,97.3684211 L82.6573427,97.6842105 L82.6573427,97.6842105 Z" id="Shape"></path>
                <path d="M59.9475524,97.8947368 L57.4825175,97.7368421 C58.006993,88.6842105 67.1328671,83.3157895 75.4195804,82.8421053 C82.8671329,82.4736842 92.1503497,85.8947368 93.986014,96.8947368 L91.5734266,97.3157895 C90,87.9473684 82.2902098,84.9473684 75.5769231,85.3157895 C68.3391608,85.6842105 60.3671329,90.2631579 59.9475524,97.8947368 L59.9475524,97.8947368 Z" id="Shape"></path>
                <path d="M100.751748,95.4210526 C99.4405594,85.2631579 92.8846154,79.4736842 80.7167832,77.6842105 C75.7867133,76.9473684 65.8741259,79.6842105 63.4615385,84.2105263 L61.3111888,83.0526316 C64.3006993,77.3684211 75.3671329,74.3684211 81.0839161,75.2105263 C94.3006993,77.1052632 101.748252,83.7894737 103.216783,95.0526316 L100.751748,95.4210526 L100.751748,95.4210526 Z" id="Shape"></path>
                <path d="M120.839161,97.8421053 C120.629371,90.7368421 109.772727,90.3157895 109.667832,90.3157895 C108.881119,90.3157895 106.835664,90.3684211 105.20979,91.9473684 C103.846154,93.2105263 103.164336,95.1578947 103.059441,97.6842105 L100.594406,97.6315789 C100.699301,94.4210526 101.643357,91.8947368 103.479021,90.2105263 C105.786713,88.0526316 108.618881,87.8947368 109.72028,87.9473684 C114.335664,88.1052632 123.094406,90.3684211 123.304196,97.8947368 L120.839161,97.8421053 L120.839161,97.8421053 Z" id="Shape"></path>
                <path d="M131.433566,97.6315789 L129.020979,97.6315789 C129.020979,90.7368421 122.832168,83.6315789 115.227273,81.8947368 C112.342657,81.2105263 102.43007,81.5789474 100.48951,87.3684211 L98.1818182,86.5789474 C100.594406,79.3157895 111.765734,78.5789474 115.804196,79.5263158 C124.405594,81.4736842 131.433566,89.6315789 131.433566,97.6315789 L131.433566,97.6315789 Z" id="Shape"></path>
                <path d="M140.34965,97.3157895 L137.884615,97.2631579 C138.041958,89.5789474 134.318182,84.2105263 131.171329,81.0526316 C126.346154,76.2105263 119.527972,73.3157895 113.496503,73.4210526 C105.891608,73.6315789 99.4405594,77.4210526 97.7622378,82.7368421 L95.4020979,82 C97.3951049,75.7368421 104.79021,71.1578947 113.444056,71 C120.20979,70.8421053 127.604895,74.0526316 132.954545,79.3157895 C136.416084,82.8421053 140.506993,88.7894737 140.34965,97.3157895 L140.34965,97.3157895 Z" id="Shape"></path>
                <path d="M53.6013986,77.9473684 C53.0769231,73.7894737 58.6888112,69.6842105 61.048951,68.7894737 C64.7202797,67.3684211 69.8076923,67.6842105 73.7937063,69.5789474 C76.5734266,70.8947368 78.4090909,72.8421053 79.0909091,75.1052632 L76.7307692,75.8421053 C76.2062937,74.2631579 74.7902098,72.7894737 72.6923077,71.7894737 C69.3881119,70.2105263 64.9300699,69.8947368 61.9405594,71.0526316 C59.7377622,71.8947368 55.7517483,75.2631579 56.0664336,77.5789474 L53.6013986,77.9473684 L53.6013986,77.9473684 Z" id="Shape"></path>
                <path d="M88.006993,78.3684211 C87.7972028,77.4736842 87.7972028,76.8947368 87.7972028,76.3157895 C87.7972028,75.8947368 87.7972028,75.5263158 87.7447552,75.0526316 C87.2727273,72.1052632 84.8076923,68.1578947 81.7132867,65.4736842 C76.4160839,60.8947368 66.9230769,59.9473684 59.1608392,63.2105263 C53.1293706,65.7368421 49.458042,70.3157895 49.0384615,75.7368421 L46.5734266,75.5789474 C47.0454545,69.2105263 51.2412587,63.8421053 58.1643357,60.9473684 C66.8706294,57.3157895 77.2027972,58.4210526 83.2867133,63.6315789 C86.8531469,66.6842105 89.6328671,71.1578947 90.1573427,74.6842105 C90.2622378,75.3684211 90.2622378,75.8947368 90.2622378,76.3684211 C90.2622378,76.8421053 90.2622378,77.2631579 90.4195804,77.8421053 L88.006993,78.3684211 L88.006993,78.3684211 Z" id="Shape"></path>
                <path d="M21.6083916,78.4210526 C19.1433566,75.8947368 17.0979021,72.8421053 15.8391608,69.4210526 C14.5804196,66 14.2657343,62.2105263 14.7902098,58.5789474 C15.2622378,54.9473684 16.4685315,51.4210526 17.9370629,48.1578947 C19.4055944,44.8421053 21.1363636,41.7368421 22.8146853,38.6842105 C24.493007,35.6315789 26.1713287,32.5789474 27.3251748,29.4210526 C27.5874126,28.6315789 27.8496503,27.8421053 28.006993,27.0526316 C28.2167832,26.2631579 28.3216783,25.4736842 28.3741259,24.6315789 C28.479021,23 28.3741259,21.3157895 28.1643357,19.6315789 C27.6923077,16.2631579 26.7482517,12.8947368 25.541958,9.63157895 C24.3356643,6.36842105 22.8671329,3.15789474 20.8741259,0.210526316 C23.3391608,2.78947368 25.2272727,5.84210526 26.8531469,9.05263158 C28.4265734,12.2631579 29.6853147,15.6842105 30.4195804,19.2631579 C30.7867133,21.0526316 30.9965035,22.8947368 30.9440559,24.7894737 C30.9440559,25.7368421 30.8391608,26.6842105 30.6293706,27.6315789 C30.472028,28.5263158 30.2097902,29.4736842 29.9475524,30.3157895 C28.7937063,33.8421053 27.0629371,37 25.3846154,40.1052632 C21.9755245,46.2631579 18.4090909,52.3157895 17.0454545,59 C16.3636364,62.3157895 16.4160839,65.7368421 17.2552448,69.1052632 C18.041958,72.3157895 19.6153846,75.4736842 21.6083916,78.4210526 L21.6083916,78.4210526 Z" id="Shape"></path>
                <path d="M32.9895105,69.5789474 C31.5734266,67.7368421 30.4195804,65.6842105 29.7377622,63.4210526 C29.0034965,61.1578947 28.7937063,58.6842105 29.0559441,56.2631579 C29.5804196,51.3684211 31.9405594,47.0526316 34.3006993,43.1052632 C36.7132867,39.2105263 39.3356643,35.4736842 40.9090909,31.4210526 C41.6958042,29.3684211 42.1153846,27.2631579 42.0629371,25.0526316 C42.0104895,22.8421053 41.5384615,20.6315789 40.6993007,18.4736842 C42.0629371,20.3157895 43.0594406,22.5263158 43.479021,24.8947368 C43.8986014,27.2631579 43.6888112,29.7894737 43.0594406,32.1052632 C41.7482517,36.7894737 39.0734266,40.7368421 36.7657343,44.6315789 C34.3531469,48.4736842 32.1503497,52.3157895 31.2587413,56.5789474 C30.3146853,60.7894737 31.1538462,65.3157895 32.9895105,69.5789474 L32.9895105,69.5789474 Z" id="Shape"></path>
                <path d="M47.9895105,63.6842105 C46.2587413,61 45.1573427,57.7894737 45.2097902,54.3684211 C45.2622378,50.9473684 46.5734266,47.6842105 48.1993007,44.8947368 C49.8251748,42.1052632 51.7132867,39.6315789 53.1818182,37 C54.6503497,34.4210526 55.5944056,31.5263158 55.6468531,28.3157895 C56.2237762,29.7894737 56.4335664,31.4736842 56.3286713,33.1052632 C56.2237762,34.7894737 55.8041958,36.4210526 55.1748252,37.9473684 C53.9685315,41.0526316 52.1328671,43.6842105 50.6118881,46.3157895 C49.0384615,48.9473684 47.8321678,51.5789474 47.3601399,54.4736842 C46.993007,57.5263158 47.3601399,60.5789474 47.9895105,63.6842105 L47.9895105,63.6842105 Z" id="Shape"></path>
            </g>
        </g>
    </g>
</svg>