<?xml version="1.0" encoding="UTF-8" standalone="no"?>
<svg width="150px" height="543px" viewBox="0 0 150 543" version="1.1" xmlns="http://www.w3.org/2000/svg" xmlns:xlink="http://www.w3.org/1999/xlink" xmlns:sketch="http://www.bohemiancoding.com/sketch/ns">
    <!-- Generator: Sketch 3.1.1 (8761) - http://www.bohemiancoding.com/sketch -->
    <title>food-10</title>
    <desc>Created with Sketch.</desc>
    <defs></defs>
    <g id="Page-1" stroke="none" stroke-width="1" fill="none" fill-rule="evenodd" sketch:type="MSPage">
        <g id="food-10" sketch:type="MSLayerGroup" fill="#231F20">
            <g id="Group" sketch:type="MSShapeGroup">
                <path d="M28.08,64.3911504 C52.2,64.3911504 70.8,78.9272124 72.12,85.0539823 C72.12,85.0539823 59.04,24.5070796 26.64,26.4292035 C-7.68,28.5915929 4.68,64.3911504 28.08,64.3911504 L28.08,64.3911504 Z" id="Shape"></path>
                <path d="M92.88,29.3123894 C105.24,22.3446903 119.04,11.2924779 112.2,3.12345133 C105.36,-5.16570796 58.44,0.36039823 81.24,56.9429204 C81.12,56.8227876 80.52,36.1599558 92.88,29.3123894 L92.88,29.3123894 Z" id="Shape"></path>
                <path d="M112.68,245.431195 C106.56,242.067478 102,236.060841 101.64,229.093142 L97.08,110.762389 L97.44,110.762389 C101.64,110.762389 105,107.398673 105,103.194027 C105,98.9893805 101.64,95.6256637 97.44,95.6256637 L51.96,95.6256637 C47.76,95.6256637 44.4,98.9893805 44.4,103.194027 C44.4,106.437611 46.56,109.320796 49.44,110.281858 C49.56,110.041593 49.68,109.92146 49.68,109.92146 C49.68,109.92146 64.44,110.642257 74.52,109.92146 C74.52,109.92146 61.44,115.327434 52.08,119.171681 L47.76,229.093142 C47.52,236.060841 42.96,242.067478 36.72,245.431195 C14.88,257.324336 0,280.509956 0,307.179425 L0,519.453982 C0,532.428319 10.44,543 23.4,543 L126,543 C138.96,543 149.4,532.548451 149.4,519.574115 L149.4,307.179425 C149.4,280.509956 134.52,257.324336 112.68,245.431195 L112.68,245.431195 Z M49.56,539.51615 L14.88,522.457301 L17.28,517.651991 L51.96,534.710841 L49.56,539.51615 L49.56,539.51615 Z M86.64,538.434956 L17.04,504.076991 L19.44,499.271681 L89.04,533.629646 L86.64,538.434956 L86.64,538.434956 Z M114.72,532.90885 L20.4,486.417478 L22.8,481.612168 L117,528.10354 L114.72,532.90885 L114.72,532.90885 Z M138.72,525.340487 L23.28,468.397566 L25.68,463.592257 L141.12,520.535177 L138.72,525.340487 L138.72,525.340487 Z M141.12,384.90531 L138.72,389.710619 L131.64,386.22677 L131.64,399.561504 L141.12,404.246681 L138.72,409.051991 L131.64,405.568142 L131.64,418.902876 L141.12,423.588053 L138.72,428.393363 L131.64,424.909513 L131.64,438.244248 L141.12,442.929425 L138.72,447.734735 L131.64,444.250885 L131.64,455.182965 L126.6,455.182965 L141.12,462.390929 L138.72,467.196239 L114.48,455.182965 L87.36,455.182965 L141.12,481.732301 L138.72,486.537611 L75.24,455.303097 L48.12,455.303097 L141.12,501.193805 L138.72,505.999115 L36.12,455.42323 L36.12,455.303097 L12.84,455.303097 L12.84,350.427212 L98.4,350.427212 L87.48,345.021239 L89.88,340.215929 L110.64,350.427212 L131.76,350.427212 L131.76,360.878761 L141.24,365.563938 L138.84,370.369248 L131.76,366.885398 L131.76,380.220133 L141.12,384.90531 L141.12,384.90531 Z M138.72,351.027876 L93.6,328.683186 L96,323.877876 L141.12,346.102434 L138.72,351.027876 L138.72,351.027876 Z M138.72,331.566372 L97.44,311.263938 L99.84,306.458628 L141.12,326.881195 L138.72,331.566372 L138.72,331.566372 Z M138.72,312.225 L100.8,293.484292 L103.2,288.678982 L141.12,307.41969 L138.72,312.225 L138.72,312.225 Z M138.72,292.883628 L108.48,277.987168 L110.88,273.181858 L141.12,288.078319 L138.72,292.883628 L138.72,292.883628 Z" id="Shape"></path>
            </g>
        </g>
    </g>
</svg>