<?xml version="1.0" encoding="utf-8"?>
<!-- Generator: Adobe Illustrator 18.1.0, SVG Export Plug-In . SVG Version: 6.00 Build 0)  -->
<!DOCTYPE svg PUBLIC "-//W3C//DTD SVG 1.1//EN" "http://www.w3.org/Graphics/SVG/1.1/DTD/svg11.dtd">
<svg version="1.1" id="Layer_1" xmlns="http://www.w3.org/2000/svg" xmlns:xlink="http://www.w3.org/1999/xlink" x="0px" y="0px"
	 width="110px" height="122px" viewBox="0 0 110 122" enable-background="new 0 0 110 122" xml:space="preserve">
<g>
	<g>
		<path fill="#231F20" d="M109.1,72.3H2.1c0.7,21.6,15.7,39.5,35.8,44.7c-0.2,0.4-0.3,0.9-0.3,1.4c0,2,1.7,3.7,3.7,3.7h28.5
			c2,0,3.7-1.7,3.7-3.7c0-0.5-0.1-0.9-0.3-1.4C93.4,111.9,108.4,93.9,109.1,72.3z"/>
	</g>
	<g>
		<path fill="#231F20" d="M31.9,70.9l-1.8-0.1c0.1-3.3,2.2-5.9,5.4-6.4c3.1-0.6,7.3,0.9,9.2,5.6l-1.6,0.7c-1.5-3.7-4.8-4.9-7.3-4.5
			C34,66.5,32,68,31.9,70.9z"/>
	</g>
	<g>
		<path fill="#231F20" d="M27.5,71.1L25.7,71c0.2-6.7,4.6-9.9,8.6-10.8c5.1-1,10.1,1.3,12.2,5.7l-1.6,0.8c-1.9-4.1-6.6-5.5-10.3-4.7
			C30.3,62.9,27.6,66.3,27.5,71.1z"/>
	</g>
	<g>
		<path fill="#231F20" d="M19.6,71c-0.4-5.3,2.1-11.1,5.8-13.6c4-2.7,8.4-3.7,12.7-2.8c4.7,1,9,4.2,11.9,8.8l-1.5,0.9
			c-2.6-4.1-6.6-7.1-10.8-8c-3.8-0.8-7.6,0-11.3,2.5c-3.1,2.1-5.3,7.4-5,12L19.6,71z"/>
	</g>
	<g>
		<path fill="#231F20" d="M61,70.6c-0.5-3.4-3.2-4.7-5.8-4.4c-2.3,0.2-4.5,1.7-4.3,4.1l-1.7,0.1c-0.3-3.5,2.7-5.7,5.8-6
			c3.3-0.4,7.1,1.3,7.7,5.9L61,70.6z"/>
	</g>
	<g>
		<path fill="#231F20" d="M44.8,70.8l-1.7-0.1c0.4-6.4,6.9-10.3,12.8-10.6c5.3-0.3,11.9,2.2,13.2,10l-1.7,0.3
			c-1.1-6.7-6.6-8.8-11.4-8.5C50.8,62.1,45.1,65.3,44.8,70.8z"/>
	</g>
	<g>
		<path fill="#231F20" d="M74,69c-1-7.2-5.6-11.4-14.3-12.6c-3.5-0.5-10.6,1.4-12.3,4.7l-1.5-0.8c2.1-4,10-6.2,14.1-5.6
			c9.4,1.4,14.7,6.1,15.8,14.1L74,69z"/>
	</g>
	<g>
		<path fill="#231F20" d="M88.3,70.7c-0.1-5-7.9-5.4-8-5.4c-0.6,0-2,0.1-3.2,1.1c-1,0.9-1.5,2.3-1.5,4.1l-1.8-0.1
			c0.1-2.3,0.8-4.1,2.1-5.3c1.6-1.5,3.7-1.6,4.5-1.6c3.3,0.1,9.5,1.7,9.7,7.1L88.3,70.7z"/>
	</g>
	<g>
		<path fill="#231F20" d="M95.9,70.6h-1.8c0-4.9-4.4-9.9-9.8-11.2c-2.1-0.5-9.1-0.2-10.5,3.9l-1.7-0.6c1.7-5.2,9.7-5.7,12.6-5
			C90.8,59.1,95.9,64.9,95.9,70.6z"/>
	</g>
	<g>
		<path fill="#231F20" d="M102.2,70.4l-1.8,0c0.1-5.4-2.6-9.3-4.8-11.5c-3.5-3.4-8.3-5.5-12.6-5.4c-5.4,0.1-10,2.9-11.2,6.6
			l-1.7-0.5c1.4-4.5,6.7-7.7,12.9-7.8c4.8-0.1,10.1,2.2,13.9,5.9C99.4,60.1,102.3,64.3,102.2,70.4z"/>
	</g>
	<g>
		<path fill="#231F20" d="M40.3,56.6c-0.4-3,3.6-5.9,5.3-6.5c2.6-1,6.3-0.8,9.1,0.6c2,0.9,3.3,2.3,3.8,3.9l-1.7,0.5
			c-0.4-1.1-1.4-2.2-2.9-2.9c-2.4-1.1-5.5-1.4-7.7-0.5c-1.6,0.6-4.4,3-4.2,4.7L40.3,56.6z"/>
	</g>
	<g>
		<path fill="#231F20" d="M64.8,56.9c-0.1-0.6-0.1-1.1-0.1-1.4c0-0.3,0-0.6-0.1-0.9c-0.3-2.1-2.1-4.9-4.3-6.8
			c-3.8-3.3-10.6-3.9-16.1-1.6c-4.3,1.8-6.9,5-7.2,8.9l-1.7-0.1c0.3-4.5,3.3-8.3,8.3-10.4c6.2-2.6,13.6-1.8,17.9,1.9
			c2.5,2.2,4.5,5.3,4.9,7.9c0.1,0.5,0.1,0.9,0.1,1.2c0,0.4,0,0.6,0.1,1.1L64.8,56.9z"/>
	</g>
	<g>
		<g>
			<path fill="#231F20" d="M17.5,56.9c-1.7-1.8-3.2-3.9-4.1-6.4c-0.9-2.4-1.1-5.1-0.8-7.7c0.3-2.6,1.2-5.1,2.3-7.4
				c1-2.3,2.3-4.6,3.5-6.7c1.2-2.2,2.4-4.4,3.2-6.6c0.2-0.6,0.4-1.1,0.5-1.7c0.1-0.6,0.2-1.1,0.3-1.7c0.1-1.2,0-2.4-0.2-3.6
				c-0.3-2.4-1-4.8-1.9-7.1c-0.9-2.3-1.9-4.6-3.3-6.7c1.7,1.8,3.1,4,4.3,6.3c1.1,2.3,2,4.7,2.5,7.2c0.3,1.3,0.4,2.6,0.4,3.9
				c0,0.7-0.1,1.4-0.2,2c-0.1,0.6-0.3,1.3-0.5,1.9c-0.8,2.5-2.1,4.8-3.3,7c-2.4,4.4-5,8.7-6,13.4c-0.5,2.4-0.5,4.8,0.1,7.2
				C14.9,52.6,16.1,54.8,17.5,56.9z"/>
		</g>
	</g>
	<g>
		<g>
			<path fill="#231F20" d="M25.6,50.6c-1-1.3-1.8-2.8-2.3-4.4c-0.5-1.6-0.7-3.4-0.5-5.1c0.4-3.5,2.1-6.6,3.7-9.3
				c1.7-2.8,3.6-5.4,4.7-8.3c0.5-1.4,0.9-3,0.8-4.5c0-1.6-0.4-3.1-1-4.7c1,1.3,1.7,2.9,2,4.6c0.3,1.7,0.2,3.5-0.3,5.1
				c-0.9,3.3-2.8,6.1-4.5,8.9c-1.7,2.7-3.3,5.5-3.9,8.5C23.7,44.4,24.3,47.6,25.6,50.6z"/>
		</g>
	</g>
	<g>
		<g>
			<path fill="#231F20" d="M36.3,46.5c-1.2-1.9-2-4.2-2-6.6c0-2.4,1-4.7,2.1-6.7c1.2-2,2.5-3.7,3.6-5.6c1.1-1.8,1.7-3.9,1.8-6.2
				c0.4,1.1,0.6,2.2,0.5,3.4c-0.1,1.2-0.4,2.3-0.8,3.4c-0.9,2.2-2.2,4.1-3.2,5.9c-1.1,1.9-2,3.8-2.3,5.8
				C35.6,42,35.8,44.2,36.3,46.5z"/>
		</g>
	</g>
</g>
</svg>
