<?xml version="1.0" encoding="UTF-8" standalone="no"?>
<svg width="151px" height="228px" viewBox="0 0 151 228" version="1.1" xmlns="http://www.w3.org/2000/svg" xmlns:xlink="http://www.w3.org/1999/xlink" xmlns:sketch="http://www.bohemiancoding.com/sketch/ns">
    <!-- Generator: Sketch 3.1.1 (8761) - http://www.bohemiancoding.com/sketch -->
    <title>food_ham</title>
    <desc>Created with Sketch.</desc>
    <defs></defs>
    <g id="Page-1" stroke="none" stroke-width="1" fill="none" fill-rule="evenodd" sketch:type="MSPage">
        <g id="food_ham" sketch:type="MSLayerGroup" fill="#231F20">
            <g id="Group" sketch:type="MSShapeGroup">
                <path d="M150.144231,50.6506329 C150.144231,73.7392405 116.538462,92.4987342 75.2163462,92.4987342 C33.8942308,92.4987342 0.288461538,73.7392405 0.288461538,50.6506329 C0.288461538,27.5620253 33.8942308,8.80253165 75.2163462,8.80253165 C116.538462,8.80253165 150.144231,27.5620253 150.144231,50.6506329 L150.144231,50.6506329 Z M4.83173077,50.6506329 C4.83173077,71.2139241 36.4182692,87.9531646 75.2163462,87.9531646 C114.014423,87.9531646 145.600962,71.2139241 145.600962,50.6506329 C145.600962,30.0873418 114.014423,13.3481013 75.2163462,13.3481013 C36.4182692,13.3481013 4.83173077,30.0873418 4.83173077,50.6506329 L4.83173077,50.6506329 Z" id="Shape"></path>
                <path d="M1.00961538,56.3506329 C1.00961538,56.3506329 4.11057692,119.555696 50.3365385,149.35443 C57.9086538,154.260759 68.0769231,159.094937 74.7115385,160.75443 C77.2355769,161.403797 79.1105769,160.826582 80.8413462,160.032911 C82.7163462,159.167089 84.4471154,158.08481 86.8990385,157.940506 C94.0384615,157.579747 98.9423077,160.537975 104.783654,158.229114 C118.990385,152.529114 128.942308,135.789873 132.548077,129.296203 C141.706731,112.989873 154.110577,64.5759494 148.990385,49.135443 C148.990385,49.135443 142.283654,80.9544304 100.168269,88.6746835 C57.9807692,96.3949367 17.4519231,84.5620253 1.00961538,56.3506329 L1.00961538,56.3506329 Z" id="Shape"></path>
                <path d="M13.8461538,41.9202532 C13.8461538,41.9202532 4.61538462,56.8556962 26.6826923,68.6164557 C48.75,80.4493671 84.7355769,82.4696203 102.1875,77.8518987 C119.639423,73.2341772 134.567308,62.9164557 136.586538,52.6708861 C138.677885,42.4253165 116.538462,42.9303797 109.903846,36.2202532 C103.197115,29.5101266 105.288462,21.8620253 85.7451923,20.2746835 C66.2019231,18.8316456 28.7019231,18.8316456 13.8461538,41.9202532 L13.8461538,41.9202532 Z M91.875,48.6303797 C91.875,53.1759494 83.3653846,56.8556962 72.8365385,56.8556962 C62.3798077,56.8556962 53.8701923,53.1759494 53.8701923,48.6303797 C53.8701923,44.0848101 62.3798077,40.4050633 72.8365385,40.4050633 C83.3653846,40.4050633 91.875,44.0848101 91.875,48.6303797 L91.875,48.6303797 Z" id="Shape"></path>
                <path d="M72.6201923,44.0126582 C78.4615385,44.0126582 83.1490385,45.8886076 83.1490385,48.1253165 C83.1490385,50.4341772 78.4615385,52.2379747 72.6201923,52.2379747 C66.7788462,52.2379747 62.0913462,50.4341772 62.0913462,48.1253165 C62.0913462,45.8164557 66.8509615,44.0126582 72.6201923,44.0126582 L72.6201923,44.0126582 Z" id="Shape"></path>
                <path d="M84.5192308,3.89620253 C76.5144231,2.38101266 68.5096154,1.87594937 60.5048077,2.23670886 C52.5,2.66962025 44.5673077,3.96835443 36.9230769,6.20506329 C29.2067308,8.44177215 21.7788462,11.6164557 15.1442308,16.0177215 C8.65384615,20.4911392 2.66826923,26.335443 0.216346154,34.1278481 C0.865384615,30.0873418 2.66826923,26.2632911 5.12019231,22.9443038 C7.57211538,19.6253165 10.6009615,16.7392405 13.9182692,14.2860759 C20.5528846,9.37974684 28.1971154,5.98860759 36.1298077,3.67974684 C43.9903846,1.37088608 52.2115385,0.216455696 60.4326923,0.216455696 C68.5817308,0.144303797 76.8028846,1.29873418 84.5192308,3.89620253 L84.5192308,3.89620253 Z" id="Shape"></path>
                <path d="M113.221154,210.755696 C114.230769,213.353165 113.653846,216.383544 112.427885,218.908861 C111.201923,221.506329 109.254808,223.670886 106.947115,225.33038 C104.639423,226.989873 101.754808,228.072152 98.7980769,228 C95.8413462,228 93.0288462,226.701266 91.2259615,224.681013 C93.75,225.763291 96.2740385,226.268354 98.6538462,225.907595 C101.033654,225.546835 103.341346,224.536709 105.360577,223.165823 C107.379808,221.722785 109.110577,219.918987 110.552885,217.898734 C111.995192,215.806329 113.076923,213.425316 113.221154,210.755696 L113.221154,210.755696 Z" id="Shape"></path>
            </g>
            <path d="M92.5961538,159.022785 C92.8846154,159.167089 93.1730769,159.383544 93.3894231,159.527848 L93.9663462,197.696203 L95.4086538,198.273418 C100.024038,200.077215 103.774038,206.859494 103.774038,210.539241 C103.774038,212.992405 102.331731,215.012658 100.673077,215.662025 C95.1923077,217.826582 92.0192308,213.064557 90.4326923,211.982278 L88.6298077,210.394937 C88.6298077,210.394937 87.1153846,212.41519 86.6105769,212.920253 C83.7980769,216.022785 80.1201923,217.321519 77.3798077,216.311392 C74.7115385,215.373418 73.1971154,212.992405 73.3413462,210.178481 C73.2692308,202.602532 83.0048077,197.551899 83.0769231,197.479747 L84.1586538,196.686076 L80.6971154,160.537975 C81.0576923,160.105063 81.4182692,159.816456 81.7788462,159.455696 C81.4903846,159.6 81.2019231,159.744304 80.8413462,159.888608 C79.3269231,160.682278 77.7403846,160.970886 76.2259615,160.970886 L79.3990385,194.449367 C76.875,196.46962 69.9519231,202.16962 70.7451923,210.972152 C70.8894231,212.775949 70.8173077,217.682278 76.875,219.774684 C79.5432692,220.712658 85.0961538,219.053165 88.8461538,215.156962 C91.2980769,218.187342 97.3557692,221.073418 102.331731,218.475949 C107.8125,215.662025 106.947115,209.024051 106.947115,209.024051 C106.947115,204.262025 104.0625,197.551899 98.4375,194.593671 L97.9326923,159.167089 C95.9855769,159.311392 94.0384615,159.239241 92.5961538,159.022785 L92.5961538,159.022785 Z" id="Shape" sketch:type="MSShapeGroup"></path>
        </g>
    </g>
</svg>