<?xml version="1.0" encoding="UTF-8" standalone="no"?>
<svg width="151px" height="76px" viewBox="0 0 151 76" version="1.1" xmlns="http://www.w3.org/2000/svg" xmlns:xlink="http://www.w3.org/1999/xlink" xmlns:sketch="http://www.bohemiancoding.com/sketch/ns">
    <!-- Generator: Sketch 3.1.1 (8761) - http://www.bohemiancoding.com/sketch -->
    <title>food_fish</title>
    <desc>Created with Sketch.</desc>
    <defs></defs>
    <g id="Page-1" stroke="none" stroke-width="1" fill="none" fill-rule="evenodd" sketch:type="MSPage">
        <g id="food_fish" sketch:type="MSLayerGroup" fill="#231F20">
            <g id="Group" sketch:type="MSShapeGroup">
                <path d="M150.05137,24.1438356 C150.05137,15.2054795 135.719178,6.93493151 123.287671,33.390411 C123.287671,33.390411 112.756849,11.7123288 72.8938356,8.52739726 C35.8561644,5.54794521 5.70205479,23.2705479 0.102739726,41.6609589 C5.65068493,60.0513699 35.8561644,77.7739726 72.8938356,74.8458904 C112.756849,71.6609589 123.287671,49.9828767 123.287671,49.9828767 C135.719178,76.4383562 150.05137,68.1678082 150.05137,59.2294521 C150.05137,52.6027397 143.578767,45.1027397 140.239726,41.7123288 C143.578767,38.2191781 150.05137,30.7705479 150.05137,24.1438356 L150.05137,24.1438356 Z M10.9417808,44.8972603 C9.40068493,44.8972603 8.16780822,43.6643836 8.16780822,42.0719178 C8.16780822,40.5308219 9.40068493,39.2465753 10.9417808,39.2465753 C12.4828767,39.2465753 13.7671233,40.4794521 13.7671233,42.0719178 C13.7671233,43.6130137 12.4828767,44.8972603 10.9417808,44.8972603 L10.9417808,44.8972603 Z M18.5445205,50.1369863 C17.5171233,51.9349315 16.130137,53.4760274 14.4863014,54.6575342 C15.4109589,52.859589 16.2328767,51.1130137 16.8493151,49.3664384 C17.4143836,47.619863 17.7739726,45.8732877 17.7739726,44.0239726 C17.8253425,42.2260274 17.5684932,40.3767123 17.260274,38.5273973 C16.9006849,36.6267123 16.489726,34.7260274 16.2328767,32.7226027 C17.4657534,34.3664384 18.390411,36.1130137 19.109589,38.0136986 C19.8287671,39.9143836 20.239726,41.9691781 20.239726,44.0753425 C20.1369863,46.2328767 19.6232877,48.3390411 18.5445205,50.1369863 L18.5445205,50.1369863 Z M47.2089041,43.8184932 C47.0034247,44.0753425 46.6952055,44.2294521 46.3356164,44.2808219 C45.9760274,44.3321918 45.6678082,44.3835616 45.359589,44.5376712 C45,44.7945205 44.5890411,44.9486301 44.1780822,44.9486301 C43.7671233,44.9486301 43.3561644,45.0513699 42.9452055,45.2568493 C42.380137,45.5650685 41.8150685,45.7191781 41.25,45.7191781 C40.6335616,45.7191781 40.119863,45.9246575 39.6061644,46.2842466 C39.4006849,46.5924658 39.2979452,46.9520548 39.4006849,47.3630137 C39.5034247,47.7739726 39.6575342,48.1335616 39.8116438,48.4417808 C39.9657534,48.8013699 40.0684932,49.109589 40.0171233,49.4691781 C40.0171233,49.8287671 40.119863,50.1369863 40.3253425,50.3938356 C40.4794521,50.8047945 40.6335616,51.2157534 40.6849315,51.5753425 C40.7363014,51.9863014 40.8390411,52.3972603 40.8390411,52.8082192 C40.9931507,53.1678082 41.0958904,53.5787671 41.0958904,53.9383562 C41.0958904,54.3493151 41.1986301,54.7089041 41.3527397,55.0171233 C41.4041096,55.2739726 41.4554795,55.5308219 41.5582192,55.7363014 C41.6609589,55.9417808 41.7123288,56.1472603 41.7636986,56.4554795 C41.8150685,56.8150685 41.8664384,57.1746575 41.9691781,57.5856164 C42.0719178,57.9452055 41.9178082,58.2534247 41.5582192,58.5616438 C41.1986301,58.9212329 40.7363014,59.1267123 40.2226027,59.2294521 C39.6575342,59.2808219 39.1952055,59.4349315 38.7328767,59.5890411 C38.3732877,59.6917808 38.0136986,59.7945205 37.6541096,59.9486301 C37.2945205,60.1027397 36.9349315,60.2054795 36.6267123,60.359589 C36.010274,60.4623288 35.4452055,60.4623288 34.9315068,60.3082192 C34.6232877,60.2054795 34.4178082,60 34.3664384,59.6917808 C34.3150685,59.3835616 34.2123288,59.0753425 33.9554795,58.869863 C33.8527397,58.5616438 33.8013699,58.3047945 33.6472603,57.9965753 C33.5445205,57.6883562 33.5445205,57.380137 33.5958904,57.1232877 C33.3390411,56.7123288 33.1335616,56.25 33.0308219,55.7363014 C32.9280822,55.2226027 32.8253425,54.7089041 32.6712329,54.2979452 C32.619863,54.1438356 32.619863,53.989726 32.6712329,53.8356164 C32.7226027,53.6815068 32.6712329,53.5273973 32.5171233,53.4246575 C32.5171233,52.4486301 32.260274,51.5753425 31.7979452,50.8047945 C31.7979452,50.4452055 31.6952055,50.1369863 31.5410959,49.7773973 C31.3356164,48.8013699 31.0787671,47.8767123 30.8732877,46.9006849 C30.6678082,45.9760274 30.4623288,45.0513699 30.2054795,44.0753425 C30.0513699,43.7157534 29.9486301,43.4075342 29.8458904,43.0479452 C29.7945205,42.6883562 29.640411,42.380137 29.4863014,42.0719178 C29.4863014,41.7123288 29.3835616,41.4041096 29.2294521,41.1472603 C29.0753425,40.8390411 28.9726027,40.5308219 28.9212329,40.2226027 C28.7671233,39.8630137 28.6130137,39.4520548 28.510274,39.0410959 C28.4075342,38.630137 28.3561644,38.1678082 28.3047945,37.7568493 C27.9452055,37.140411 27.7910959,36.4212329 27.739726,35.6506849 C27.5856164,35.2910959 27.5342466,34.9828767 27.5342466,34.6746575 C27.5342466,34.3664384 27.4315068,34.0582192 27.2260274,33.75 C26.9691781,33.2363014 26.8150685,32.7226027 26.8150685,32.1575342 C26.8150685,31.5924658 26.6609589,31.0787671 26.3527397,30.5650685 C26.3527397,30.3082192 26.3013699,30.1027397 26.1472603,29.8972603 C26.0445205,29.6917808 26.0445205,29.4863014 26.1986301,29.2808219 C26.609589,28.3561644 27.2773973,27.9452055 28.2534247,27.9965753 C28.869863,27.8424658 29.4863014,27.6883562 30.1541096,27.6369863 L30.4109589,27.4828767 C30.8219178,27.3287671 31.1815068,27.2260274 31.5924658,27.2260274 C31.9520548,27.2260274 32.3116438,27.1746575 32.6712329,26.9691781 C33.1335616,26.8664384 33.5445205,26.7636986 33.9041096,26.6609589 C34.2636986,26.5582192 34.6232877,26.4554795 34.9828767,26.25 C35.3938356,26.3013699 35.7534247,26.1986301 36.0616438,26.0445205 C36.4212329,25.890411 36.7808219,25.7363014 37.0890411,25.6335616 C37.5513699,25.4280822 38.0136986,25.3253425 38.3732877,25.3253425 C38.7842466,25.3253425 39.1952055,25.2226027 39.6061644,25.0171233 C40.0171233,24.760274 40.4794521,24.5547945 40.9417808,24.5034247 C41.4554795,24.4520548 41.9178082,24.4520548 42.380137,24.5034247 C42.9452055,24.760274 43.3561644,25.1712329 43.5616438,25.7876712 C43.7671233,26.4041096 43.9212329,26.9691781 43.9726027,27.5856164 C44.1780822,28.0993151 44.2808219,28.5616438 44.2808219,29.0753425 C44.2808219,29.5890411 44.3835616,30.1027397 44.640411,30.6164384 C44.640411,30.7705479 44.5890411,30.9760274 44.5376712,31.130137 C44.4349315,31.2842466 44.3321918,31.4383562 44.1780822,31.5924658 C44.0239726,31.6952055 43.8184932,31.7979452 43.5616438,31.9006849 C43.3561644,31.9520548 43.1506849,32.0547945 42.9452055,32.1575342 C42.4315068,32.2089041 41.9691781,32.3116438 41.5068493,32.4143836 C41.0445205,32.5171233 40.5821918,32.6712329 40.119863,32.9280822 C39.9143836,32.8767123 39.760274,32.8767123 39.6061644,32.9280822 C39.4520548,32.9794521 39.2979452,33.0308219 39.1438356,33.1335616 C38.989726,33.1849315 38.8356164,33.2876712 38.6815068,33.3390411 C38.5273973,33.390411 38.3219178,33.4417808 38.1164384,33.390411 C37.6541096,33.390411 37.2431507,33.4931507 36.7808219,33.6472603 C36.3184932,33.8013699 35.9589041,34.0582192 35.7534247,34.4691781 C35.6506849,34.9315068 35.7020548,35.3424658 35.9075342,35.8047945 C36.1130137,36.2671233 36.2157534,36.7294521 36.2157534,37.1917808 C36.2671233,37.3972603 36.369863,37.6027397 36.4726027,37.8082192 C36.5753425,38.0136986 36.6267123,38.2191781 36.6267123,38.4760274 C36.6780822,38.7328767 36.8321918,38.9383562 37.0376712,39.0410959 C37.2945205,39.1438356 37.5513699,39.2465753 37.7568493,39.2465753 C38.1164384,39.0924658 38.5273973,38.989726 38.8869863,38.8869863 C39.2465753,38.7842466 39.6061644,38.6815068 40.0171233,38.5787671 C40.1712329,38.630137 40.3253425,38.630137 40.4280822,38.630137 C40.5308219,38.5787671 40.6335616,38.5273973 40.7876712,38.4760274 C40.890411,38.3732877 40.9931507,38.3219178 41.0958904,38.2705479 C41.1986301,38.2191781 41.3013699,38.1678082 41.4554795,38.1678082 C41.609589,38.0650685 41.8150685,38.0136986 42.0205479,38.0136986 C42.2260274,38.0136986 42.380137,38.0136986 42.5856164,37.9623288 C42.9965753,37.859589 43.4075342,37.7568493 43.869863,37.6027397 C44.3321918,37.5 44.7431507,37.4486301 45.1541096,37.5 C45.4109589,37.5513699 45.6164384,37.6027397 45.7191781,37.7568493 C45.8732877,37.9109589 45.9760274,38.0650685 46.0273973,38.2705479 C46.0787671,38.4760274 46.130137,38.6815068 46.1815068,38.8869863 C46.2328767,39.0924658 46.2842466,39.2979452 46.3869863,39.5034247 C46.5924658,39.9143836 46.7465753,40.3767123 46.8493151,40.890411 C47.0034247,41.3527397 47.1061644,41.8664384 47.260274,42.3287671 C47.1575342,42.6369863 47.1575342,42.9452055 47.260274,43.2534247 C47.619863,43.3047945 47.5171233,43.5616438 47.2089041,43.8184932 L47.2089041,43.8184932 Z M59.3321918,55.0684932 C59.0753425,55.2739726 58.7671233,55.3767123 58.4075342,55.3253425 C58.0479452,55.2739726 57.7910959,55.3767123 57.5342466,55.5308219 C56.9178082,55.5308219 56.3013699,55.6335616 55.6849315,55.7876712 C55.0684932,55.9417808 54.4006849,56.0445205 53.7328767,56.0958904 C53.4760274,56.0445205 53.2191781,55.9417808 52.9623288,55.890411 C52.7568493,55.8390411 52.5,55.6849315 52.3458904,55.4280822 C52.1917808,55.2226027 52.0890411,55.0684932 52.0376712,54.8116438 C51.9863014,54.6061644 51.9349315,54.3493151 51.9349315,54.1438356 C51.9349315,53.9383562 51.8835616,53.6815068 51.8835616,53.4246575 C51.8835616,53.1678082 51.8321918,52.9623288 51.7808219,52.7568493 C51.6780822,52.5513699 51.5753425,52.3972603 51.6267123,52.1917808 C51.6267123,51.9863014 51.6267123,51.7808219 51.6780822,51.5753425 C51.7294521,51.369863 51.7294521,51.1643836 51.6780822,51.010274 C51.6780822,50.8047945 51.6267123,50.6506849 51.4726027,50.4452055 C51.369863,50.0342466 51.2671233,49.6232877 51.2671233,49.2636986 C51.2671233,48.9041096 51.1643836,48.4931507 51.010274,48.1335616 L51.010274,46.9006849 C51.010274,46.489726 50.9075342,46.0787671 50.7020548,45.7191781 C50.6506849,45.5136986 50.6506849,45.2568493 50.5993151,45.0513699 C50.5479452,44.8458904 50.5993151,44.5890411 50.5993151,44.3835616 C50.5993151,44.0239726 50.5479452,43.6130137 50.4452055,43.2020548 C50.3424658,42.7910959 50.2910959,42.4315068 50.2910959,42.0205479 C50.2910959,41.6609589 50.239726,41.25 50.1369863,40.890411 C50.0342466,40.4794521 49.9315068,40.119863 49.8287671,39.760274 C49.8287671,39.1952055 49.8287671,38.630137 49.6746575,38.0650685 C49.5719178,37.5 49.5205479,36.9349315 49.4691781,36.369863 C49.5719178,36.010274 49.5719178,35.7020548 49.3664384,35.3938356 C49.1609589,35.0856164 49.1609589,34.7773973 49.3150685,34.4178082 C49.2636986,34.2123288 49.2123288,33.9554795 49.0582192,33.75 C48.9554795,33.5445205 48.9041096,33.3390411 49.0068493,33.0821918 C48.9554795,32.619863 48.8527397,32.1575342 48.75,31.6952055 C48.6472603,31.2328767 48.5958904,30.7705479 48.5958904,30.3082192 C48.4931507,30.1027397 48.4417808,29.9486301 48.4417808,29.7431507 C48.4417808,29.5376712 48.4931507,29.3321918 48.4931507,29.1780822 C48.390411,28.4589041 48.2363014,27.739726 47.9794521,27.0205479 C47.7739726,26.3013699 47.7226027,25.5821918 47.8767123,24.8630137 C47.7739726,24.6061644 47.7739726,24.3493151 47.9280822,24.1438356 C48.0308219,23.9383562 48.1849315,23.7328767 48.390411,23.5273973 C48.8013699,23.3219178 49.2123288,23.2191781 49.6232877,23.2191781 C50.0342466,23.2191781 50.4452055,23.1678082 50.8561644,23.0136986 C51.1130137,22.9109589 51.369863,22.859589 51.5753425,22.9109589 C51.8321918,22.9623288 51.9863014,22.9109589 52.140411,22.7568493 C52.6027397,22.6541096 53.0136986,22.6027397 53.4246575,22.6027397 C53.8356164,22.6541096 54.1952055,22.6027397 54.6575342,22.5 C55.0171233,22.6027397 55.3767123,22.8082192 55.6335616,23.1678082 C55.890411,23.4760274 56.0445205,23.8356164 56.0445205,24.2465753 C56.1986301,24.8116438 56.3013699,25.3767123 56.3013699,25.9931507 C56.4554795,26.9691781 56.5582192,27.9452055 56.6609589,28.9212329 C56.7636986,29.8972603 56.8664384,30.8732877 56.9178082,31.8493151 C56.8664384,32.1061644 56.9178082,32.3116438 56.9691781,32.5171233 C57.0205479,32.7226027 57.0719178,32.9280822 57.0719178,33.0821918 C57.1746575,33.3390411 57.2260274,33.5958904 57.1746575,33.8013699 C57.1232877,34.0582192 57.2260274,34.2636986 57.4315068,34.4178082 C57.3287671,34.8287671 57.3287671,35.239726 57.5342466,35.6506849 C57.6883562,36.0616438 57.8424658,36.4726027 57.8938356,36.8835616 C57.8938356,37.3972603 57.8938356,37.9109589 57.9452055,38.4760274 C57.9965753,39.0410959 58.0479452,39.5547945 58.2020548,40.0171233 C58.1506849,40.1712329 58.1506849,40.3767123 58.2020548,40.5821918 C58.2534247,40.7876712 58.3047945,40.9417808 58.3561644,41.0958904 C58.5616438,42.1232877 58.7157534,43.1506849 58.7671233,44.2294521 C58.8184932,45.3082192 59.0239726,46.3356164 59.3321918,47.3116438 C59.4349315,47.4657534 59.4349315,47.619863 59.4349315,47.7739726 C59.4349315,47.9280822 59.3835616,48.0821918 59.3835616,48.2363014 C59.3321918,48.390411 59.3321918,48.5445205 59.3321918,48.6986301 C59.3321918,48.8527397 59.3835616,49.0068493 59.4863014,49.1609589 C59.640411,49.6746575 59.6917808,50.1369863 59.5890411,50.5993151 C59.4863014,51.0616438 59.5376712,51.5239726 59.7431507,52.0376712 C59.8972603,52.6027397 59.9486301,53.1678082 60,53.7842466 C60.0513699,54.4006849 59.8458904,54.7089041 59.3321918,55.0684932 L59.3321918,55.0684932 Z M79.2123288,46.8493151 C79.109589,47.4143836 78.9554795,48.0308219 78.6986301,48.5958904 C78.4931507,49.109589 78.2363014,49.5719178 77.9280822,49.9828767 C77.619863,50.3938356 77.260274,50.8561644 76.8493151,51.2671233 C76.7465753,51.4726027 76.6438356,51.6780822 76.4383562,51.8321918 C76.2842466,52.0376712 76.130137,52.1917808 75.9760274,52.3458904 C75.5136986,52.7054795 75.0513699,53.1164384 74.5890411,53.4760274 C74.1267123,53.8356164 73.6130137,54.0924658 73.0479452,54.1952055 C72.7910959,54.1952055 72.6369863,54.2465753 72.4828767,54.4006849 C72.3287671,54.5034247 72.1746575,54.6061644 71.9691781,54.6575342 C71.609589,54.9143836 71.1986301,55.0684932 70.7363014,55.0171233 C70.2739726,55.0171233 69.8116438,55.0171233 69.3493151,55.119863 C68.8869863,55.2739726 68.4246575,55.2739726 68.0136986,55.119863 C67.6027397,54.9657534 67.140411,54.9657534 66.6780822,55.0171233 C66.3184932,55.0171233 65.9589041,54.9143836 65.6506849,54.8116438 C65.3424658,54.7089041 64.9828767,54.5547945 64.6746575,54.4006849 C64.3150685,54.4006849 64.0068493,54.3493151 63.75,54.1438356 C63.4931507,53.989726 63.1849315,53.8869863 62.8253425,53.8356164 C62.5171233,53.6815068 62.2089041,53.4760274 61.9006849,53.2191781 C61.5924658,52.9623288 61.3869863,52.6541096 61.2842466,52.3458904 C61.2842466,51.9863014 61.2842466,51.5753425 61.2328767,51.2157534 C61.1815068,50.8047945 61.2328767,50.4452055 61.3869863,50.0856164 C61.5410959,49.9315068 61.5410959,49.7773973 61.489726,49.6232877 C61.4383562,49.4691781 61.3869863,49.3150685 61.2842466,49.1609589 C61.2328767,49.0068493 61.130137,48.8527397 61.0787671,48.6986301 C61.0273973,48.5445205 61.0273973,48.390411 61.130137,48.1849315 C60.9760274,47.7226027 60.9760274,47.3116438 61.0787671,46.9006849 C61.1815068,46.489726 61.2328767,46.0787671 61.1815068,45.6164384 C61.3869863,45.359589 61.5924658,45.2054795 61.8493151,45.1027397 C62.2089041,45.2054795 62.5684932,45.3082192 62.9280822,45.4623288 C63.2876712,45.6164384 63.5445205,45.8732877 63.75,46.2328767 C64.109589,46.5410959 64.5205479,46.7979452 64.9315068,46.9520548 C65.3424658,47.1061644 65.7534247,47.260274 66.1130137,47.4143836 C66.4726027,47.5684932 66.8321918,47.619863 67.1917808,47.619863 C67.6027397,47.619863 67.9623288,47.619863 68.3219178,47.6712329 C68.5787671,47.619863 68.8869863,47.5684932 69.1438356,47.5171233 C69.4520548,47.4657534 69.6575342,47.3116438 69.8116438,47.0547945 C70.3767123,46.6952055 70.7876712,46.1815068 71.0958904,45.6164384 C71.4041096,45.0513699 71.4554795,44.4349315 71.3527397,43.7671233 C71.1986301,43.2534247 70.9417808,42.8424658 70.4794521,42.4315068 C70.0684932,42.0205479 69.6575342,41.6609589 69.2979452,41.25 C68.7842466,41.0445205 68.2705479,40.7876712 67.8082192,40.4794521 C67.3458904,40.1712329 66.8321918,39.9143836 66.369863,39.6575342 C66.2157534,39.5547945 66.0616438,39.4006849 65.9589041,39.3493151 C65.8561644,39.2465753 65.7020548,39.1952055 65.5479452,39.1438356 C65.1883562,38.8869863 64.880137,38.630137 64.5719178,38.3732877 C64.2636986,38.1164384 63.9041096,37.859589 63.5958904,37.6541096 C63.1849315,37.4486301 62.9280822,37.1917808 62.7739726,36.8321918 C62.619863,36.4726027 62.3630137,36.1643836 62.0547945,35.9075342 C61.8493151,35.5479452 61.6952055,35.1883562 61.5924658,34.8287671 C61.489726,34.4691781 61.3356164,34.109589 61.130137,33.75 C61.0787671,33.390411 60.9760274,33.0308219 60.8732877,32.619863 C60.7705479,32.2089041 60.7705479,31.8493151 60.8732877,31.489726 C60.7191781,31.0273973 60.6678082,30.5650685 60.7191781,30.0513699 C60.7705479,29.5376712 60.9760274,29.1267123 61.2328767,28.7671233 C61.130137,28.1506849 61.2328767,27.6369863 61.5410959,27.2260274 C61.8493151,26.7636986 62.1061644,26.3013699 62.260274,25.8390411 C62.5171233,25.4794521 62.7739726,25.119863 63.0821918,24.7089041 C63.3390411,24.3493151 63.6986301,24.0410959 64.0582192,23.7328767 C64.3664384,23.4760274 64.7260274,23.2705479 65.0856164,23.0650685 C65.4452055,22.9109589 65.7534247,22.7054795 66.0616438,22.3972603 C66.5239726,22.0890411 67.0376712,21.9349315 67.5513699,21.8835616 C68.0650685,21.8321918 68.5787671,21.6780822 69.0410959,21.4212329 C69.4520548,21.4726027 69.9143836,21.4726027 70.3253425,21.369863 C70.7363014,21.3184932 71.1986301,21.2671233 71.6609589,21.2671233 C71.8664384,21.1643836 72.1232877,21.1643836 72.2773973,21.2671233 C72.4828767,21.369863 72.6883562,21.4212329 72.9452055,21.369863 L74.1267123,21.6267123 C74.3321918,21.8321918 74.5890411,21.8835616 74.8458904,21.8835616 C75.1027397,21.8321918 75.359589,21.8835616 75.5136986,22.0890411 C75.7705479,22.140411 75.9760274,22.2431507 76.1815068,22.3972603 C76.3356164,22.5513699 76.5410959,22.7054795 76.7465753,22.8082192 C77.0034247,23.0136986 77.1575342,23.3219178 77.2089041,23.630137 C77.260274,23.9383562 77.3116438,24.2979452 77.3116438,24.6061644 C77.3116438,24.9657534 77.3116438,25.3253425 77.260274,25.6335616 C77.260274,25.9931507 77.3116438,26.3013699 77.4143836,26.609589 C77.4657534,26.9178082 77.5171233,27.2260274 77.4657534,27.4828767 C77.4143836,27.739726 77.3630137,28.0479452 77.3630137,28.4075342 L77.3630137,29.1780822 C77.3630137,29.4349315 77.4143836,29.640411 77.5684932,29.8458904 C77.5171233,30.1027397 77.4657534,30.2568493 77.260274,30.4109589 C77.1061644,30.5650685 76.9006849,30.6678082 76.6952055,30.7191781 C76.3356164,30.7191781 76.0787671,30.6164384 75.8219178,30.4109589 C75.5650685,30.2568493 75.3082192,30.0513699 75.0513699,29.8458904 C74.7945205,29.640411 74.5376712,29.4349315 74.2808219,29.2808219 C74.0239726,29.1267123 73.7157534,29.0239726 73.4075342,28.9726027 C73.0479452,28.869863 72.6883562,28.7157534 72.3287671,28.6130137 C71.9691781,28.510274 71.5582192,28.510274 71.1986301,28.6643836 C70.9417808,28.6130137 70.7363014,28.6130137 70.4794521,28.7157534 C70.2226027,28.8184932 70.0171233,28.869863 69.8116438,28.9726027 C69.0410959,29.640411 68.6815068,30.4623288 68.7328767,31.3869863 C68.8356164,31.9006849 69.0924658,32.3630137 69.5547945,32.6712329 C69.9657534,32.9794521 70.3767123,33.3390411 70.7363014,33.6472603 C70.9931507,33.8013699 71.25,33.9554795 71.5068493,34.0582192 C71.7636986,34.1609589 72.0205479,34.3150685 72.2260274,34.5205479 C72.5856164,34.5719178 72.9452055,34.7260274 73.2534247,34.9315068 C73.5616438,35.1369863 73.869863,35.2910959 74.2808219,35.3424658 C74.5376712,35.4965753 74.7945205,35.7020548 75.0513699,35.9075342 C75.3082192,36.1130137 75.5650685,36.369863 75.8219178,36.5239726 C76.2328767,36.6780822 76.5410959,36.9349315 76.7465753,37.2431507 C76.9520548,37.5513699 77.2089041,37.859589 77.4657534,38.1678082 C78.1849315,38.630137 78.5958904,39.1952055 78.75,39.8630137 C78.9041096,40.5821918 79.109589,41.25 79.3664384,41.8664384 C79.5205479,42.4828767 79.5719178,43.0479452 79.5719178,43.5616438 C79.5719178,44.1267123 79.5719178,44.6917808 79.6232877,45.2568493 C79.4178082,45.6678082 79.3150685,46.2842466 79.2123288,46.8493151 L79.2123288,46.8493151 Z M104.434932,26.7123288 C104.332192,27.4828767 104.178082,28.2020548 104.075342,28.9212329 C103.972603,29.0753425 103.921233,29.2808219 103.921233,29.4863014 C103.921233,29.7431507 103.921233,29.9486301 103.972603,30.1027397 C103.869863,31.3356164 103.767123,32.5684932 103.613014,33.8013699 C103.458904,35.0342466 103.304795,36.2671233 103.202055,37.3972603 L103.047945,37.7054795 C102.945205,38.630137 102.842466,39.5547945 102.739726,40.4794521 C102.636986,41.4041096 102.482877,42.2773973 102.328767,43.1506849 C102.328767,43.5616438 102.328767,43.9726027 102.380137,44.3321918 C102.431507,44.7431507 102.328767,45.1541096 102.174658,45.5136986 C102.071918,45.7191781 101.969178,45.9760274 101.969178,46.2328767 L101.969178,46.9520548 L101.969178,47.6712329 C101.969178,47.9280822 101.917808,48.1849315 101.815068,48.390411 C101.660959,48.6472603 101.609589,48.9041096 101.660959,49.1609589 C101.660959,49.4178082 101.660959,49.6746575 101.558219,49.9315068 C101.609589,50.3938356 101.660959,50.9075342 101.609589,51.369863 C101.558219,51.8835616 101.455479,52.3458904 101.35274,52.8082192 C101.455479,53.1678082 101.40411,53.5273973 101.19863,53.8356164 C100.993151,54.1438356 100.993151,54.4520548 101.09589,54.8116438 C101.09589,55.1712329 101.044521,55.5308219 100.941781,55.7876712 C100.839041,56.0958904 100.633562,56.3013699 100.325342,56.4041096 C100.273973,56.4041096 100.171233,56.4554795 100.068493,56.5582192 C99.9657534,56.609589 99.8630137,56.7123288 99.760274,56.7636986 C99.4006849,56.7123288 99.0410959,56.7123288 98.6815068,56.6609589 C98.3219178,56.6609589 97.9623288,56.5582192 97.6541096,56.3527397 L96.8835616,56.3527397 C96.6267123,56.3527397 96.4212329,56.3013699 96.1643836,56.25 C95.7020548,56.3013699 95.2910959,56.25 94.880137,56.0958904 C94.4691781,55.9417808 94.0582192,55.8390411 93.5958904,55.7363014 C93.4931507,55.6335616 93.390411,55.5821918 93.2876712,55.4280822 C93.1849315,55.3253425 93.0821918,55.1712329 93.0308219,55.0684932 C93.0308219,54.6575342 93.0821918,54.1952055 93.0821918,53.8356164 L93.0821918,52.6027397 C93.1849315,52.2945205 93.2363014,51.9863014 93.2363014,51.6780822 C93.2363014,51.369863 93.2876712,51.0616438 93.390411,50.7020548 L93.4931507,50.4965753 C93.5958904,49.9315068 93.6472603,49.3150685 93.6472603,48.75 C93.6472603,48.1849315 93.6986301,47.619863 93.8013699,47.0547945 C93.9041096,46.7979452 93.9554795,46.5410959 94.0068493,46.2328767 C94.0582192,45.9246575 94.0582192,45.6678082 94.0068493,45.359589 C94.109589,44.8972603 94.1609589,44.4349315 94.2636986,43.9212329 C94.3150685,43.4075342 94.2123288,42.9965753 93.9554795,42.6369863 C93.75,42.5856164 93.5958904,42.4828767 93.4931507,42.3287671 C93.3390411,42.1746575 93.1849315,42.1232877 92.9280822,42.2260274 C92.619863,42.4315068 92.3630137,42.4828767 92.1061644,42.3287671 C91.8493151,42.1746575 91.5410959,42.1746575 91.2842466,42.2773973 C91.0787671,42.1746575 90.9246575,42.1746575 90.7191781,42.2773973 C90.5136986,42.3287671 90.359589,42.4315068 90.1541096,42.4828767 C89.7431507,42.7910959 89.5376712,43.2534247 89.5890411,43.7671233 C89.5890411,44.3321918 89.5376712,44.8458904 89.4349315,45.2568493 C89.2808219,45.6164384 89.1780822,46.0273973 89.2294521,46.4383562 C89.2808219,46.8493151 89.2808219,47.2089041 89.2808219,47.619863 C89.0239726,48.1849315 88.9212329,48.8013699 88.9212329,49.4691781 C88.9726027,50.1369863 88.869863,50.7020548 88.6643836,51.2671233 C88.6130137,51.369863 88.6130137,51.4212329 88.6643836,51.5239726 C88.7157534,51.5753425 88.7671233,51.6780822 88.7157534,51.7294521 C88.6130137,52.1917808 88.510274,52.6541096 88.4589041,53.1678082 C88.4075342,53.6815068 88.3561644,54.1438356 88.2020548,54.6061644 C88.0479452,54.8630137 87.7910959,55.0684932 87.5342466,55.1712329 C87.2260274,55.3253425 86.9691781,55.3253425 86.609589,55.2226027 C86.4041096,55.119863 86.1472603,55.119863 85.9417808,55.119863 L85.2739726,55.119863 C84.6575342,55.0684932 83.989726,55.0171233 83.3732877,54.9143836 C82.7054795,54.8116438 82.140411,54.760274 81.5753425,54.6575342 C81.3184932,54.6061644 81.1130137,54.5034247 80.9589041,54.2465753 C80.8047945,53.989726 80.6506849,53.7842466 80.4965753,53.630137 C80.2910959,53.2191781 80.2910959,52.859589 80.3938356,52.3972603 C80.5479452,51.9863014 80.5993151,51.5239726 80.5993151,51.0616438 C80.7020548,50.8561644 80.7020548,50.5993151 80.7020548,50.3938356 C80.6506849,50.1369863 80.6506849,49.880137 80.7020548,49.6232877 C80.7534247,49.2636986 80.8047945,48.9041096 80.9589041,48.5445205 C81.0616438,48.1849315 81.0616438,47.8253425 80.9589041,47.4657534 C81.0616438,47.1575342 81.1130137,46.8493151 81.0616438,46.5410959 C81.010274,46.2328767 81.1130137,45.9246575 81.3184932,45.6164384 C81.3184932,45.2054795 81.369863,44.7945205 81.4726027,44.3835616 C81.5753425,44.0239726 81.6267123,43.6130137 81.6267123,43.2020548 C81.7294521,42.2260274 81.8321918,41.3013699 81.9349315,40.4280822 C82.0376712,39.5034247 82.140411,38.5787671 82.3458904,37.6541096 C82.2431507,37.2431507 82.2945205,36.8321918 82.3972603,36.4726027 C82.5513699,36.0616438 82.5513699,35.7020548 82.4486301,35.2910959 C82.6027397,34.7260274 82.7054795,34.1609589 82.7568493,33.6472603 C82.8082192,33.1335616 82.859589,32.5684932 82.859589,32.0034247 C82.8082192,31.6952055 82.859589,31.3869863 83.0136986,31.130137 C83.1678082,30.8219178 83.1678082,30.5650685 83.0650685,30.2568493 C83.2191781,29.8972603 83.2705479,29.5376712 83.2191781,29.1267123 C83.1678082,28.7157534 83.2191781,28.3561644 83.4246575,28.0479452 C83.5273973,27.6883562 83.5273973,27.3287671 83.4760274,26.9691781 C83.4246575,26.609589 83.4760274,26.25 83.6815068,25.890411 C83.7328767,25.3767123 83.7842466,24.8116438 83.8356164,24.2979452 C83.8869863,23.7328767 83.989726,23.2705479 84.1952055,22.8082192 C84.2465753,22.5 84.4520548,22.2945205 84.7089041,22.1917808 C84.9657534,22.140411 85.2226027,22.0376712 85.4280822,21.8835616 C86.0445205,21.9349315 86.6609589,21.9863014 87.2773973,22.0376712 C87.8938356,22.0890411 88.510274,22.140411 89.1780822,22.2431507 C89.3321918,22.3972603 89.4863014,22.4486301 89.640411,22.3458904 C89.7945205,22.2945205 89.9486301,22.2945205 90.1027397,22.3458904 C90.359589,22.5513699 90.7191781,22.6541096 91.0787671,22.7568493 C91.4383562,22.8082192 91.6952055,23.0650685 91.7979452,23.4760274 C91.8493151,23.7328767 91.8493151,23.989726 91.8493151,24.2465753 C91.8493151,24.5034247 91.7979452,24.760274 91.6952055,25.0171233 C91.6952055,25.3767123 91.6952055,25.7876712 91.6438356,26.1472603 C91.5924658,26.5068493 91.5410959,26.9178082 91.4383562,27.2773973 C91.489726,27.5342466 91.489726,27.7910959 91.489726,28.0479452 C91.489726,28.3047945 91.4383562,28.510274 91.3356164,28.7671233 C91.1815068,29.0239726 91.130137,29.2294521 91.2328767,29.4349315 C91.3356164,29.640411 91.3356164,29.8972603 91.2328767,30.1541096 C91.1815068,30.4109589 91.130137,30.7191781 91.0273973,31.0273973 C90.9246575,31.3356164 90.9246575,31.6438356 91.0787671,31.9006849 C90.9760274,32.0034247 90.9760274,32.1575342 90.9760274,32.3116438 C90.9760274,32.4657534 90.9760274,32.5684932 91.0273973,32.7226027 C91.0273973,32.8767123 91.0273973,32.9794521 91.0787671,33.1335616 C91.0787671,33.2876712 91.0273973,33.390411 90.9246575,33.4931507 C91.0273973,33.75 91.0787671,34.109589 91.0273973,34.4178082 C90.9760274,34.7773973 91.130137,34.9828767 91.489726,35.1369863 C91.9520548,35.2910959 92.3630137,35.3424658 92.7739726,35.3424658 C93.1849315,35.3424658 93.5958904,35.3424658 94.0068493,35.3938356 C94.2636986,35.3938356 94.5719178,35.3424658 94.8287671,35.239726 C95.1369863,35.1369863 95.3424658,34.9315068 95.4452055,34.6746575 C95.5479452,34.2636986 95.6506849,33.8527397 95.7020548,33.4417808 C95.7534247,32.9794521 95.8047945,32.5684932 95.9075342,32.1575342 C95.9589041,31.2842466 96.0616438,30.4623288 96.1643836,29.5890411 C96.2671233,28.7671233 96.369863,27.8938356 96.4726027,26.9178082 C96.4212329,26.5582192 96.4726027,26.25 96.5753425,25.9417808 C96.7294521,25.6335616 96.7808219,25.2739726 96.8321918,24.9657534 C96.7808219,24.6575342 96.7808219,24.3493151 96.8321918,24.0924658 C97.0376712,23.7842466 97.2945205,23.5787671 97.6027397,23.5273973 C97.9109589,23.4760274 98.2705479,23.4246575 98.5787671,23.3732877 C98.6815068,23.4760274 98.8356164,23.5787671 98.989726,23.5787671 L99.4520548,23.5787671 C99.6061644,23.5787671 99.760274,23.5273973 99.9143836,23.5273973 C100.068493,23.5273973 100.222603,23.5273973 100.428082,23.630137 C100.684932,23.6815068 100.941781,23.7842466 101.25,23.8356164 C101.506849,23.8869863 101.815068,23.8869863 102.020548,23.7328767 C102.482877,23.7842466 102.893836,23.8356164 103.304795,23.9383562 C103.715753,23.989726 104.023973,24.2465753 104.280822,24.7089041 C104.537671,25.2739726 104.589041,25.9417808 104.434932,26.7123288 L104.434932,26.7123288 Z" id="Shape"></path>
                <path d="M70.2226027,1.95205479 C76.2842466,2.15753425 82.3458904,2.82534247 88.2534247,4.10958904 C94.1609589,5.39383562 99.9143836,7.29452055 105.359589,9.96575342 C110.753425,12.6883562 115.736301,16.1815068 119.94863,20.7020548 C116.506849,15.5650685 111.626712,11.4554795 106.181507,8.37328767 C100.787671,5.29109589 94.8287671,3.18493151 88.7671233,1.84931507 C82.7054795,0.565068493 76.4383562,-0.051369863 70.2739726,0.154109589 C64.109589,0.308219178 57.8938356,1.18150685 51.9863014,2.97945205 C58.0479452,2.10616438 64.1609589,1.74657534 70.2226027,1.95205479 L70.2226027,1.95205479 Z" id="Shape"></path>
            </g>
        </g>
    </g>
</svg>