<?xml version="1.0" encoding="UTF-8" standalone="no"?>
<svg width="152px" height="547px" viewBox="0 0 152 547" version="1.1" xmlns="http://www.w3.org/2000/svg" xmlns:xlink="http://www.w3.org/1999/xlink" xmlns:sketch="http://www.bohemiancoding.com/sketch/ns">
    <!-- Generator: Sketch 3.1.1 (8761) - http://www.bohemiancoding.com/sketch -->
    <title>food_wine</title>
    <desc>Created with Sketch.</desc>
    <defs></defs>
    <g id="Page-1" stroke="none" stroke-width="1" fill="none" fill-rule="evenodd" sketch:type="MSPage">
        <g id="food_wine" sketch:type="MSLayerGroup" transform="translate(1.000000, 0.000000)" fill="#231F20">
            <g id="Group" sketch:type="MSShapeGroup">
                <path d="M28.0645161,64.8654867 C52.3790323,64.8654867 71.1290323,79.5086283 72.4596774,85.680531 C72.4596774,85.680531 59.2741935,24.6876106 26.6129032,26.6238938 C-7.98387097,28.8022124 4.47580645,64.8654867 28.0645161,64.8654867 L28.0645161,64.8654867 Z" id="Shape"></path>
                <path d="M93.266129,29.5283186 C105.725806,22.6303097 119.637097,11.4966814 112.741935,3.14646018 C105.846774,-5.20376106 58.5483871,0.363053097 81.5322581,57.3623894 C81.5322581,57.2413717 80.8064516,36.4263274 93.266129,29.5283186 L93.266129,29.5283186 Z" id="Shape"></path>
                <path d="M113.225806,247.239159 C107.056452,243.850664 102.459677,237.799779 102.096774,230.780752 L97.5,111.578319 L97.983871,111.578319 C102.217742,111.578319 105.604839,108.189823 105.604839,103.954204 C105.604839,99.7185841 102.217742,96.3300885 97.983871,96.3300885 L52.1370968,96.3300885 C47.9032258,96.3300885 44.516129,99.7185841 44.516129,103.954204 C44.516129,107.221681 46.6935484,110.126106 49.5967742,111.094248 C49.7177419,110.852212 49.8387097,110.731195 49.8387097,110.731195 C49.8387097,110.731195 64.7177419,111.457301 74.8790323,110.731195 C74.8790323,110.731195 61.6935484,116.176991 52.2580645,120.049558 L47.9032258,230.780752 C47.6612903,237.799779 43.0645161,243.850664 36.7741935,247.239159 C14.7580645,259.219912 -0.241935484,282.576327 -0.241935484,309.563274 L-0.241935484,523.401549 C-0.241935484,536.47146 10.2822581,547 23.3467742,547 L126.774194,547 C139.83871,547 150.362903,536.47146 150.362903,523.401549 L150.362903,309.442257 C150.362903,282.576327 135.362903,259.219912 113.225806,247.239159 L113.225806,247.239159 Z M49.7177419,543.490487 L14.7580645,526.305973 L17.1774194,521.465265 L52.1370968,538.649779 L49.7177419,543.490487 L49.7177419,543.490487 Z M86.9758065,542.401327 L16.8145161,507.790265 L19.233871,502.949558 L89.3951613,537.560619 L86.9758065,542.401327 L86.9758065,542.401327 Z M115.282258,536.834513 L20.3225806,490.000664 L22.7419355,485.159956 L117.701613,531.993805 L115.282258,536.834513 L115.282258,536.834513 Z M139.596774,529.210398 L23.2258065,471.848009 L25.6451613,467.007301 L142.016129,524.36969 L139.596774,529.210398 L139.596774,529.210398 Z M142.016129,387.740708 L139.596774,392.581416 L132.459677,389.071903 L132.459677,402.504867 L142.016129,407.224558 L139.596774,412.065265 L132.459677,408.555752 L132.459677,421.988717 L142.016129,426.708407 L139.596774,431.549115 L132.459677,428.039602 L132.459677,441.472566 L142.016129,446.192257 L139.596774,451.032965 L132.459677,447.523451 L132.459677,458.536062 L127.379032,458.536062 L142.016129,465.797124 L139.596774,470.637832 L115.16129,458.536062 L87.8225806,458.536062 L142.016129,485.280973 L139.596774,490.121681 L75.483871,458.65708 L48.1451613,458.65708 L141.895161,504.885841 L139.475806,509.726549 L36.0483871,458.778097 L36.0483871,458.65708 L12.5806452,458.65708 L12.5806452,353.008628 L98.8306452,353.008628 L87.8225806,347.562832 L90.2419355,342.722124 L111.169355,353.008628 L132.459677,353.008628 L132.459677,363.537168 L142.016129,368.256858 L139.596774,373.097566 L132.459677,369.588053 L132.459677,383.021018 L142.016129,387.740708 L142.016129,387.740708 Z M139.596774,353.613717 L94.1129032,331.225442 L96.5322581,326.384735 L142.016129,348.773009 L139.596774,353.613717 L139.596774,353.613717 Z M139.596774,334.00885 L97.983871,313.556858 L100.403226,308.71615 L142.016129,329.289159 L139.596774,334.00885 L139.596774,334.00885 Z M139.596774,314.525 L101.370968,295.646239 L103.790323,290.805531 L142.016129,309.684292 L139.596774,314.525 L139.596774,314.525 Z M139.596774,295.04115 L109.112903,280.034956 L111.532258,275.194248 L142.016129,290.200442 L139.596774,295.04115 L139.596774,295.04115 Z" id="Shape"></path>
            </g>
        </g>
    </g>
</svg>