<?xml version="1.0" encoding="UTF-8" standalone="no"?>
<svg width="151px" height="234px" viewBox="0 0 151 234" version="1.1" xmlns="http://www.w3.org/2000/svg" xmlns:xlink="http://www.w3.org/1999/xlink" xmlns:sketch="http://www.bohemiancoding.com/sketch/ns">
    <!-- Generator: Sketch 3.1.1 (8761) - http://www.bohemiancoding.com/sketch -->
    <title>food_pear</title>
    <desc>Created with Sketch.</desc>
    <defs></defs>
    <g id="Page-1" stroke="none" stroke-width="1" fill="none" fill-rule="evenodd" sketch:type="MSPage">
        <g id="food_pear" sketch:type="MSLayerGroup" transform="translate(1.000000, 0.000000)" fill="#231F20">
            <g id="Group" sketch:type="MSShapeGroup">
                <path d="M133.429319,155.369697 C124.633508,143.551515 119.057592,129.212121 117.015707,112.745455 C113.481675,84.6969697 102.958115,69.1757576 87.2513089,69.1757576 C85.3664921,69.1757576 83.3246073,69.4121212 81.2827225,69.8848485 C79.7905759,70.2 78.2984293,70.4363636 76.8062827,70.5939394 C76.8062827,70.5939394 76.8062827,70.6727273 76.7277487,70.6727273 C75.9424084,71.2242424 72.9581152,71.3030303 70.8376963,71.3030303 C74.1361257,71.3818182 77.6701571,71.1454545 81.4397906,70.2787879 C102.251309,65.5515152 113.246073,85.6424242 116.623037,112.745455 C118.429319,127.478788 123.219895,142.369697 133.115183,155.527273 C149.921466,178.060606 155.968586,195.709091 140.183246,218.242424 C126.518325,237.781818 97.539267,234.078788 84.4240838,230.29697 C66.4397906,225.09697 48.6910995,238.884848 22.617801,229.193939 C2.35602094,221.709091 -3.37696335,194.684848 2.35602094,179.006061 C9.10994764,160.490909 20.5759162,146.70303 24.0314136,139.848485 C34.1623037,119.915152 32.2774869,108.963636 39.0314136,88.4 C45.9424084,67.2848485 55.5235602,70.6727273 68.6387435,71.3030303 C68.7172775,71.1454545 68.7172775,70.9878788 68.7958115,70.830303 C67.3036649,70.7515152 65.8900524,70.6727273 64.4764398,70.5939394 C62.3560209,70.4363636 60.3141361,70.2787879 58.3507853,70.2787879 C49.7905759,70.2787879 43.5078534,73.2727273 38.5602094,88.3212121 C35.8900524,96.5151515 34.5549738,103.054545 33.2984293,109.436364 C31.4136126,118.812121 29.6858639,127.715152 23.5602094,139.690909 C22.539267,141.739394 20.8115183,144.339394 18.5340314,147.727273 C13.4293194,155.448485 6.51832461,165.927273 1.80628272,178.927273 C-3.84816754,194.448485 1.33507853,221.945455 22.3036649,229.745455 C28.8219895,232.187879 35.3403141,233.290909 42.2513089,233.290909 C48.7696335,233.290909 54.6596859,232.266667 60.3926702,231.321212 C65.4973822,230.454545 70.3664921,229.666667 75.078534,229.666667 C78.3769634,229.666667 81.2827225,230.060606 84.1099476,230.848485 C87.2513089,231.793939 95.6544503,233.921212 105.628272,233.921212 C116.623037,233.921212 131.544503,231.242424 140.418848,218.636364 C156.675393,195.472727 149.764398,177.272727 133.429319,155.369697 L133.429319,155.369697 Z" id="Shape"></path>
                <path d="M76.7277487,70.6727273 C77.8272251,68.6242424 76.9633508,31.6727273 58.1937173,20.4848485 C58.1937173,20.4848485 52.8534031,24.1090909 52.8534031,27.969697 C52.8534031,27.969697 59.2146597,28.3636364 62.3560209,33.3272727 C68.5602094,43.0969697 73.5863874,57.5151515 68.7958115,70.830303 C69.8167539,70.9090909 70.7591623,70.9090909 71.8586387,70.9090909 C73.5863874,70.9090909 75.1570681,70.830303 76.7277487,70.6727273 L76.7277487,70.6727273 Z" id="Shape"></path>
                <path d="M77.1204188,43.9636364 C87.0157068,44.2 98.1675393,44.1212121 112.303665,36.2424242 C129.424084,26.7090909 133.350785,3.78181818 133.350785,3.78181818 C133.350785,3.78181818 117.329843,-5.2 96.7539267,4.56969697 C80.1832461,12.4484848 76.0994764,33.3272727 75.1570681,40.969697 C90.7853403,27.969697 118.743455,12.0545455 118.743455,12.0545455 C110.026178,17.0969697 83.2460733,38.9212121 77.1204188,43.9636364 L77.1204188,43.9636364 Z" id="Shape"></path>
                <path d="M58.3507853,71.2242424 C50.1832461,71.2242424 44.2146597,74.1393939 39.5026178,88.5575758 C36.8324607,96.6727273 35.5759162,103.212121 34.3193717,109.593939 C32.434555,119.048485 30.6282723,128.030303 24.5026178,140.084848 C23.4816754,142.133333 21.6753927,144.812121 19.4764398,148.2 C14.4502618,155.842424 7.53926702,166.321212 2.82722513,179.163636 C-2.59162304,193.975758 2.59162304,221.315152 22.7748691,228.8 C29.1361257,231.163636 35.5759162,232.345455 42.408377,232.345455 C48.8481675,232.345455 54.6596859,231.321212 60.3926702,230.375758 C65.5759162,229.509091 70.4450262,228.642424 75.2356021,228.642424 C78.6125654,228.642424 81.5968586,229.036364 84.5026178,229.90303 C87.6439791,230.769697 95.9685864,232.89697 105.78534,232.89697 C116.544503,232.89697 131.151832,230.29697 139.790576,218.006061 C155.65445,195.393939 148.82199,177.430303 132.722513,155.921212 C123.769634,144.024242 118.193717,129.527273 116.151832,112.90303 C114.188482,96.9878788 107.748691,70.2 87.3298429,70.2 C85.5235602,70.2 83.5602094,70.4363636 81.5968586,70.9090909 C78.6125654,71.6181818 75.4712042,71.9333333 72.0157068,71.9333333 C69.4240838,71.9333333 66.9109948,71.7757576 64.5549738,71.6181818 C62.2774869,71.3818182 60.3141361,71.2242424 58.3507853,71.2242424 L58.3507853,71.2242424 Z M26.3874346,218.636364 C18.9267016,214.933333 13.5078534,207.527273 11.3874346,199.569697 C9.26701571,191.533333 9.81675393,183.024242 12.6439791,175.539394 C15.4712042,167.975758 20.4973822,161.357576 27.0157068,157.10303 C22.1465969,163.090909 18.6910995,169.787879 16.8848168,176.878788 C15.1570681,183.890909 14.921466,191.29697 16.8848168,198.072727 C18.6910995,204.848485 22.6963351,210.915152 28.6649215,214.854545 C34.5549738,218.793939 42.0942408,220.290909 49.7120419,220.527273 C42.3298429,222.575758 33.7696335,222.418182 26.3874346,218.636364 L26.3874346,218.636364 Z M122.434555,143.945455 L120.39267,148.121212 L97.382199,136.775758 L99.4240838,132.6 L122.434555,143.945455 L122.434555,143.945455 Z M129.73822,164.509091 L127.696335,168.684848 L95.9685864,153.006061 L98.0104712,148.830303 L129.73822,164.509091 L129.73822,164.509091 Z M113.089005,127.636364 L98.7172775,120.545455 L100.759162,116.369697 L115.13089,123.460606 L113.089005,127.636364 L113.089005,127.636364 Z M110.890052,109.672727 L96.3612565,102.50303 L98.4031414,98.3272727 L112.931937,105.49697 L110.890052,109.672727 L110.890052,109.672727 Z M95.5759162,79.969697 L108.691099,86.430303 L106.649215,90.6060606 L93.5340314,84.1454545 L95.5759162,79.969697 L95.5759162,79.969697 Z M93.7696335,163.563636 L138.534031,185.70303 L136.492147,189.878788 L91.7277487,167.739394 L93.7696335,163.563636 L93.7696335,163.563636 Z M87.9581152,177.666667 L138.455497,202.642424 L136.413613,206.818182 L85.9162304,181.842424 L87.9581152,177.666667 L87.9581152,177.666667 Z M80.7329843,190.981818 L129.73822,215.248485 L127.696335,219.424242 L78.6910995,195.157576 L80.7329843,190.981818 L80.7329843,190.981818 Z M71.9371728,203.509091 L98.9528796,216.90303 L96.9109948,221.078788 L69.895288,207.684848 L71.9371728,203.509091 L71.9371728,203.509091 Z" id="Shape"></path>
                <path id="Shape" d="M68.6387435,71.3030303 C68.6387435,71.3030303 69.5811518,71.3818182 70.7591623,71.3818182 C70.052356,71.3818182 69.3455497,71.3030303 68.6387435,71.3030303 L68.6387435,71.3030303 L68.6387435,71.3030303 Z"></path>
                <path d="M114.109948,68.5454545 C110.340314,64.6848485 104.921466,62.1636364 99.8167539,62.5575758 C104.528796,64.6060606 108.141361,67.6787879 110.811518,71.4606061 C113.403141,75.2424242 115.366492,79.5757576 116.858639,84.0666667 C118.429319,88.5575758 119.528796,93.2848485 120.549738,98.0909091 C121.570681,102.89697 122.513089,107.781818 123.691099,112.824242 C124.86911,107.781818 125.183246,102.660606 124.947644,97.5393939 C124.712042,92.4181818 123.848168,87.2969697 122.198953,82.2545455 C120.39267,77.369697 117.958115,72.4060606 114.109948,68.5454545 L114.109948,68.5454545 Z" id="Shape"></path>
            </g>
        </g>
    </g>
</svg>