<?xml version="1.0" encoding="UTF-8" standalone="no"?>
<svg width="205px" height="42px" viewBox="0 0 205 42" version="1.1" xmlns="http://www.w3.org/2000/svg" xmlns:xlink="http://www.w3.org/1999/xlink" xmlns:sketch="http://www.bohemiancoding.com/sketch/ns">
    <!-- Generator: Sketch 3.0.2 (7799) - http://www.bohemiancoding.com/sketch -->
    <title>Imported Layers</title>
    <description>Created with Sketch.</description>
    <defs></defs>
    <g id="Page-1" stroke="none" stroke-width="1" fill="none" fill-rule="evenodd" sketch:type="MSPage">
        <g id="Imported-Layers" sketch:type="MSLayerGroup" fill="#FFFFFF">
            <path d="M35.451,17.837 L35.451,32.234 L33.173,32.234 L33.173,17.837 C33.173,14.602 31.807,12.005 26.658,12.005 C23.97,12.005 21.51,12.688 19.642,13.418 L19.642,32.234 L17.409,32.234 L17.409,12.096 C18.959,11.276 22.603,9.727 26.886,9.727 C32.308,9.727 35.451,12.461 35.451,17.837" id="Fill-1" sketch:type="MSShapeGroup"></path>
            <path d="M53.774,26.129 C53.774,29.683 51.04,32.234 45.755,32.234 C42.84,32.234 40.561,31.505 38.83,30.639 L38.83,28.27 C40.834,29.318 43.158,30.002 45.664,30.002 C49.035,30.002 51.495,28.726 51.495,26.129 C51.495,19.523 38.967,23.304 38.967,15.513 C38.967,12.37 41.108,9.363 46.484,9.363 C48.853,9.363 50.858,10.001 52.452,10.684 L52.452,12.917 C51.04,12.233 49.08,11.55 46.711,11.55 C43.796,11.55 41.244,12.643 41.244,15.513 C41.244,20.89 53.774,17.564 53.774,26.129" id="Fill-2" sketch:type="MSShapeGroup"></path>
            <path d="M67.947,29.683 L67.947,31.824 C67.081,32.052 66.079,32.234 64.985,32.234 C63.3,32.234 59.199,32.052 59.199,26.539 L59.199,13.035 L55.645,13.035 L55.645,10.772 L59.199,10.772 L59.199,3.577 L61.477,3.577 L61.477,10.772 L67.855,10.772 L67.855,13.035 L61.477,13.035 L61.477,26.448 C61.477,29.455 63.209,30.138 65.259,30.138 C66.307,30.138 67.172,29.956 67.947,29.683" id="Fill-3" sketch:type="MSShapeGroup"></path>
            <path d="M87.199,18.703 L87.199,25.445 C87.199,31.459 81.048,32.234 78.27,32.234 C75.399,32.234 69.066,31.323 69.066,25.354 C69.066,18.475 77.586,18.201 79.636,18.201 C82.598,18.201 84.192,18.52 84.922,18.657 C84.922,14.01 82.643,11.686 77.632,11.686 C74.761,11.686 72.392,12.671 71.344,12.99 L71.344,10.803 C72.984,10.256 75.263,9.454 77.768,9.454 C84.329,9.454 87.199,12.688 87.199,18.703 L87.199,18.703 Z M84.967,20.707 C84.375,20.616 82.37,20.297 79.363,20.297 C76.583,20.297 71.299,20.935 71.299,25.354 C71.299,29.409 75.536,30.184 78.27,30.184 C80.957,30.184 84.967,29.455 84.967,25.445 L84.967,20.707 L84.967,20.707 Z" id="Fill-4" sketch:type="MSShapeGroup"></path>
            <path d="M12.336,24.598 L10.126,24.598 L9.375,0.069 L13.088,0.069 L12.336,24.598" id="Fill-5" sketch:type="MSShapeGroup"></path>
            <path d="M12.9,30.543 C12.9,31.464 12.153,32.211 11.231,32.211 C10.31,32.211 9.563,31.464 9.563,30.543 C9.563,29.622 10.31,28.875 11.231,28.875 C12.153,28.875 12.9,29.622 12.9,30.543" id="Fill-6" sketch:type="MSShapeGroup"></path>
            <path d="M5.465,30.007 L5.465,30.559 L0.01,30.746 L0.01,29.82 L5.465,30.007" id="Fill-7" sketch:type="MSShapeGroup"></path>
            <path d="M15.233,34.604 L15.622,34.215 L19.613,37.94 L18.958,38.595 L15.233,34.604" id="Fill-8" sketch:type="MSShapeGroup"></path>
            <path d="M7.37,25.961 L6.98,26.351 L2.989,22.626 L3.645,21.971 L7.37,25.961" id="Fill-9" sketch:type="MSShapeGroup"></path>
            <path d="M6.98,34.215 L7.37,34.604 L3.645,38.595 L2.989,37.94 L6.98,34.215" id="Fill-10" sketch:type="MSShapeGroup"></path>
            <path d="M11.026,36.119 L11.577,36.119 L11.765,41.575 L10.838,41.575 L11.026,36.119" id="Fill-11" sketch:type="MSShapeGroup"></path>
            <path d="M102.067,28.203 C101.279,28.481 100.513,28.611 99.657,28.611 C97.504,28.611 96.666,27.798 96.666,25.711 L96.666,13.571 L102.979,13.571 L102.979,10.083 L96.666,10.083 L96.666,3.502 L92.908,3.502 L92.908,10.083 L89.391,10.083 L89.391,13.571 L92.908,13.571 L92.908,25.801 C92.908,31.081 96.431,32.189 99.386,32.189 C100.386,32.189 101.407,32.048 102.508,31.758 L103.069,31.611 L103.069,27.85 L102.067,28.203" id="Fill-12" sketch:type="MSShapeGroup"></path>
            <path d="M117.132,8.095 C115.005,8.095 112.778,8.551 110.355,9.486 L110.355,0.069 L106.596,0.069 L106.596,31.873 L110.355,31.873 L110.355,13.267 C112.014,12.583 114.368,11.854 116.862,11.854 C120.708,11.854 122.423,13.666 122.423,17.73 L122.423,31.873 L126.136,31.873 L126.136,17.73 C126.136,11.607 122.854,8.095 117.132,8.095" id="Fill-13" sketch:type="MSShapeGroup"></path>
            <path d="M140.63,8.14 C135.332,8.188 131.201,9.787 130.06,10.275 L129.605,10.471 L129.605,31.873 L133.317,31.873 L133.317,12.978 C135.128,12.476 137.7,11.886 140.657,11.808 L141.389,11.789 L141.389,8.133 L140.63,8.14" id="Fill-14" sketch:type="MSShapeGroup"></path>
            <path d="M161.589,13.749 C159.955,10.08 156.878,8.14 152.69,8.14 C148.703,8.14 145.668,9.853 143.912,13.094 C142.421,15.847 142.199,18.988 142.199,20.615 C142.199,30.686 149.168,32.189 153.321,32.189 C156.124,32.189 158.973,31.64 160.943,30.72 L161.378,30.518 L161.378,26.468 L160.263,27.081 C158.624,27.983 156.096,28.521 153.502,28.521 C149.246,28.521 146.923,26.813 146.4,23.3 L146.386,23.208 L146.349,23.122 C146.237,22.852 146.152,22.555 146.092,22.224 L162.82,22.224 L162.82,21.513 C162.836,21.392 162.866,21.117 162.866,20.3 C162.866,17.925 162.412,15.599 161.589,13.749 L161.589,13.749 Z M146.052,18.737 C146.454,14.108 148.639,11.763 152.555,11.763 C157.932,11.763 158.877,16.614 159.033,18.737 L146.052,18.737 L146.052,18.737 Z" id="Fill-15" sketch:type="MSShapeGroup"></path>
            <path d="M181.718,0.069 L181.718,8.896 C179.994,8.394 178.159,8.14 176.248,8.14 C171.338,8.14 165.486,10.195 165.486,19.984 C165.486,30.643 172.031,32.234 175.932,32.234 C184.973,32.234 185.431,25.936 185.431,24.673 L185.431,0.069 L181.718,0.069 L181.718,0.069 Z M175.932,28.656 C173.061,28.656 169.244,27.757 169.244,19.984 C169.244,12.658 172.987,11.718 176.248,11.718 C178.128,11.718 180.008,12.055 181.718,12.695 L181.718,24.764 C181.718,27.237 179.61,28.656 175.932,28.656 L175.932,28.656 Z" id="Fill-16" sketch:type="MSShapeGroup"></path>
            <path d="M196.86,17.977 C194.024,17.194 192.285,16.628 192.285,14.934 C192.285,12.175 195.204,11.763 196.944,11.763 C198.744,11.763 200.546,12.193 202.298,13.041 L203.377,13.563 L203.377,9.659 L202.921,9.464 C200.773,8.543 198.744,8.095 196.719,8.095 C194.041,8.095 191.944,8.796 190.486,10.178 C189.223,11.376 188.527,13.065 188.527,14.934 C188.527,19.524 192.485,20.595 195.665,21.456 C198.927,22.34 200.927,23.005 200.927,25.44 C200.927,26.414 200.508,27.147 199.648,27.681 C198.763,28.231 197.47,28.521 195.907,28.521 C193.717,28.521 191.558,27.973 189.492,26.893 L188.392,26.318 L188.392,30.369 L188.807,30.576 C191.007,31.676 193.426,32.234 195.997,32.234 C201.356,32.234 204.684,29.631 204.684,25.44 C204.684,20.138 200.346,18.94 196.86,17.977" id="Fill-17" sketch:type="MSShapeGroup"></path>
        </g>
    </g>
</svg>