<?xml version="1.0" encoding="utf-8"?>
<!-- Generator: Adobe Illustrator 18.1.0, SVG Export Plug-In . SVG Version: 6.00 Build 0)  -->
<svg version="1.1" id="Layer_1" xmlns="http://www.w3.org/2000/svg" xmlns:xlink="http://www.w3.org/1999/xlink" x="0px" y="0px"
	 viewBox="0 0 381.7 525.8" enable-background="new 0 0 381.7 525.8" xml:space="preserve">
<g>
	<path fill-rule="evenodd" clip-rule="evenodd" d="M381.7,200.8c0-16.7-13.5-30.2-30.2-30.2h-4.9V33.8c0-18.7-15.1-33.8-33.8-33.8
		H68.9C50.2,0,35.1,15.1,35.1,33.8v136.7h-4.9C13.5,170.5,0,184.1,0,200.8v143.6c0,7.1,2.6,13.6,6.7,18.7l-0.2,0.1
		c0,0,0.9,0.8,2.3,2.4c0,0,0,0.1,0.1,0.1c6.4,7.2,23.2,29.8,23.2,67.4v62.4c0,16.7,13.5,30.2,30.2,30.2h257
		c16.7,0,30.2-13.5,30.2-30.2v-62.4c0-37.2,16.4-59.7,22.9-67.1c0.5-0.5,0.9-1,1.4-1.5c0.8-0.8,1.2-1.3,1.2-1.3l-0.1-0.1
		c4.1-5.2,6.7-11.7,6.7-18.8V200.8z M303.4,170.5H78.2V56.4c0-13.5,2.5-16,16-16h193.2c13.5,0,16,2.5,16,16V170.5z M156.8,90.1
		h-31.9c-7.6,0-13.7,6.1-13.7,13.7v6c0,7.6,6.1,13.7,13.7,13.7h31.9c7.6,0,13.7-6.1,13.7-13.7v-6C170.5,96.2,164.4,90.1,156.8,90.1z
		 M256.3,90.1h-31.9c-7.6,0-13.7,6.1-13.7,13.7v6c0,7.6,6.1,13.7,13.7,13.7h31.9c7.6,0,13.7-6.1,13.7-13.7v-6
		C270,96.2,263.9,90.1,256.3,90.1z"/>
</g>
</svg>
