<?xml version="1.0" encoding="utf-8"?>
<!-- Generator: Adobe Illustrator 18.1.0, SVG Export Plug-In . SVG Version: 6.00 Build 0)  -->
<!DOCTYPE svg PUBLIC "-//W3C//DTD SVG 1.1//EN" "http://www.w3.org/Graphics/SVG/1.1/DTD/svg11.dtd">
<svg version="1.1" id="Layer_1" xmlns="http://www.w3.org/2000/svg" xmlns:xlink="http://www.w3.org/1999/xlink" x="0px" y="0px"
	 width="110px" height="114.8px" viewBox="0 0 110 114.8" enable-background="new 0 0 110 114.8" xml:space="preserve">
<g>
	<g>
		<path d="M17,93.8c-3.5,3.9-6.7,7.6-9.6,11c0.1,0.1,0.1,0.2,0.2,0.3c4.3,4.3,14.5,6.1,26.8,4.6c-5.5-4.6-11.1-9.6-16.5-15
			C17.6,94.4,17.4,94.1,17,93.8z M3,78.2C1.7,88.9,2.9,97.9,6,103c3-3.5,6.2-7.2,9.5-10.8C11,87.6,6.9,82.9,3,78.2z M28.3,78.3
			l1.3-1.4l0,0c2-2.1,3.9-4.1,5.8-6.1l-3.9-3.9c-0.7-0.7-0.7-1.7,0-2.4c0.7-0.7,1.7-0.7,2.4,0l3.9,3.9c1.4-1.4,2.7-2.7,3.9-4
			l-4.7-4.7c-0.7-0.7-0.7-1.7,0-2.4c0.7-0.7,1.7-0.7,2.4,0l4.7,4.7c1.3-1.3,2.6-2.6,4-4l-5.5-5.5c-0.7-0.7-0.7-1.7,0-2.4
			c0.7-0.7,1.7-0.7,2.4,0l5.5,5.5c1.3-1.3,2.7-2.6,4-3.9l-5.3-5.3c-0.7-0.7-0.7-1.7,0-2.4c0.7-0.7,1.7-0.7,2.4,0l5.3,5.3
			c1.3-1.3,2.7-2.6,4.1-3.9l-4.9-4.9c-0.7-0.7-0.7-1.7,0-2.4c0.7-0.7,1.7-0.7,2.4,0l5,5c1.4-1.3,2.7-2.5,4.1-3.8l-4.3-4.3
			c-0.7-0.7-0.7-1.7,0-2.4c0.7-0.7,1.7-0.7,2.4,0l4.4,4.4c0.9-0.9,9-8.1,10.7-9.5c-7-6.8-14.2-12.9-21.4-18.2
			c-11.3,3.8-22.9,10.3-32.7,20.1C16.5,39.7,9.8,52.1,6.2,63.9c5,6.7,10.7,13.4,17,19.9C24.9,82,26.6,80.1,28.3,78.3z M102.4,10.2
			c-4.5-4.5-15.7-6.3-28.9-4.3c5.4,4.4,10.7,9.1,16,14.3C94.1,16.4,98.5,12.9,102.4,10.2z M103.8,12c-3.5,2.5-7.8,5.8-12.7,9.8
			c5.7,5.7,10.9,11.5,15.6,17.3C108.5,27.3,107.3,17.2,103.8,12z M89.4,23.3l-1.6-1.6C82.1,16.1,76.3,11,70.5,6.4
			C67.8,7,65,7.7,62.1,8.6c6.9,5.2,13.8,11,20.5,17.5l1.6,1.6c0.1,0.1,0.3,0.3,0.4,0.4c7.3,7.3,13.8,14.9,19.5,22.5
			c0.9-2.9,1.6-5.7,2.1-8.4C101.2,35.8,95.6,29.5,89.4,23.3C89.4,23.3,89.4,23.3,89.4,23.3z M82.5,29.1c-1.3,1.1-9.7,8.6-10.7,9.5
			l4.5,4.5c0.7,0.7,0.7,1.7,0,2.4c-0.7,0.7-1.7,0.7-2.4,0L69.3,41c-1.4,1.2-2.7,2.5-4.1,3.8l4.8,4.8c0.7,0.7,0.7,1.7,0,2.4
			c-0.7,0.7-1.7,0.7-2.4,0l-4.9-4.9c-1.3,1.3-2.7,2.6-4.1,3.9l5,5c0.7,0.7,0.7,1.7,0,2.4c-0.7,0.7-1.7,0.7-2.4,0l-5-5
			c-1.3,1.3-2.7,2.6-4,3.9l5.1,5c0.7,0.7,0.7,1.7,0,2.4c-0.7,0.7-1.7,0.7-2.4,0l-5.1-5.1c-1.3,1.3-2.6,2.6-4,4l5.1,5.1
			c0.7,0.7,0.7,1.7,0,2.4c-0.7,0.7-1.7,0.7-2.4,0L43.4,66c-1.3,1.3-2.7,2.7-4,4l5,5.1c0.7,0.7,0.7,1.7,0,2.4c-0.7,0.7-1.7,0.7-2.4,0
			l-5-5C35.4,74.2,26,84,24.7,85.5c0.4,0.4,0.8,0.9,1.3,1.3c7.4,7.4,15.1,14,22.8,19.8c11.8-3.7,24.2-10.3,34.5-20.6
			c9.8-9.8,16.3-21.5,20.1-32.7C97.4,45.2,90.6,37.3,83,29.6C82.8,29.5,82.7,29.3,82.5,29.1z M23.1,87.1l-1.6-1.6
			c-6-6.2-11.3-12.6-16.2-19c-0.8,3-1.5,5.9-1.9,8.7c4.2,5.1,8.7,10.3,13.5,15.3l1.6,1.6c0.3,0.3,0.7,0.7,1,1
			c5.9,5.9,11.9,11.2,17.9,16.1c2.8-0.5,5.7-1.1,8.6-1.9c-7.4-5.6-14.7-11.9-21.7-19C23.9,87.9,23.5,87.5,23.1,87.1z"/>
	</g>
</g>
</svg>
