<?xml version="1.0" encoding="UTF-8" standalone="no"?>
<svg width="151px" height="140px" viewBox="0 0 151 140" version="1.1" xmlns="http://www.w3.org/2000/svg" xmlns:xlink="http://www.w3.org/1999/xlink" xmlns:sketch="http://www.bohemiancoding.com/sketch/ns">
    <!-- Generator: Sketch 3.1.1 (8761) - http://www.bohemiancoding.com/sketch -->
    <title>sport_Bowling</title>
    <desc>Created with Sketch.</desc>
    <defs></defs>
    <g id="Page-1" stroke="none" stroke-width="1" fill="none" fill-rule="evenodd" sketch:type="MSPage">
        <g id="sport_Bowling" sketch:type="MSLayerGroup" transform="translate(1.000000, 0.000000)" fill="#000000">
            <path d="M134.912536,34.43125 C136.005831,29.35625 140.379009,23.58125 140.379009,17.85 C140.379009,6.65 137.142857,0.0875 129.402332,0.0875 C121.705539,0.0875 118.425656,6.65 118.425656,17.85 C118.425656,23.625 123.236152,28.21875 123.93586,34.43125 L134.912536,34.43125 L134.912536,34.43125 Z M120.48105,48.125 L138.148688,48.125 C137.011662,45.01875 135.874636,41.9125 135.262391,39.33125 L123.104956,39.33125 C122.44898,41.825 121.48688,44.975 120.48105,48.125 L120.48105,48.125 Z M149.825073,86.1 C149.344023,74.9875 143.177843,61.55625 140.947522,55.5625 C140.685131,54.81875 140.335277,53.94375 139.985423,53.06875 L118.819242,53.06875 C118.425656,54.1625 118.075802,55.2125 117.725948,56.13125 C117.026239,58.05625 115.845481,60.8125 114.620991,64.00625 C117.157434,70.6125 120.043732,79.1 120.349854,86.58125 C120.962099,101.2375 117.725948,115.4125 114.664723,125.16875 C117.069971,132.7375 119.25656,137.50625 119.25656,137.50625 L139.373178,137.50625 C139.460641,137.50625 150.962099,112.525 149.825073,86.1 L149.825073,86.1 Z M87.244898,48.60625 L104.912536,48.60625 C103.77551,45.5 102.638484,42.35 102.026239,39.8125 L89.8688047,39.8125 C89.1690962,42.2625 88.2507289,45.45625 87.244898,48.60625 L87.244898,48.60625 Z M101.632653,34.86875 C102.725948,29.79375 107.099125,24.01875 107.099125,18.2875 C107.099125,7.0875 103.862974,0.525 96.122449,0.525 C88.425656,0.525 85.1457726,7.0875 85.1457726,18.2875 C85.1457726,24.0625 89.9562682,28.65625 90.6559767,34.86875 L101.632653,34.86875 L101.632653,34.86875 Z M116.588921,86.58125 C116.107872,75.46875 109.941691,62.0375 107.71137,56.04375 C107.44898,55.3 107.099125,54.425 106.749271,53.55 L85.5830904,53.55 C85.2332362,54.64375 84.8396501,55.69375 84.4897959,56.6125 C83.7026239,58.66875 82.4344023,61.73125 81.0787172,65.275 C88.2944606,73.19375 92.755102,83.69375 92.755102,95.2875 C92.755102,106.75 88.3819242,117.1625 81.2973761,125.0375 C83.7463557,132.9125 86.0641399,137.94375 86.0641399,137.94375 L106.180758,137.94375 C106.180758,137.9875 117.725948,113.00625 116.588921,86.58125 L116.588921,86.58125 Z M44.3440233,50.70625 C19.7230321,50.70625 -0.218658892,70.7 -0.218658892,95.33125 C-0.218658892,119.9625 19.7230321,139.9125 44.3440233,139.9125 C68.9650146,139.9125 88.9067055,119.9625 88.9067055,95.33125 C88.9067055,70.65625 68.9650146,50.70625 44.3440233,50.70625 L44.3440233,50.70625 Z M14.5626822,87.0625 C11.5451895,87.0625 9.09620991,84.6125 9.09620991,81.59375 C9.09620991,78.575 11.5451895,76.125 14.5626822,76.125 C17.5801749,76.125 20.0291545,78.575 20.0291545,81.59375 C20.0291545,84.6125 17.5801749,87.0625 14.5626822,87.0625 L14.5626822,87.0625 Z M27.7696793,68.03125 C27.7696793,65.0125 30.2186589,62.5625 33.2361516,62.5625 C36.2536443,62.5625 38.7026239,65.0125 38.7026239,68.03125 C38.7026239,71.05 36.2536443,73.5 33.2361516,73.5 C30.2186589,73.5 27.7696793,71.05 27.7696793,68.03125 L27.7696793,68.03125 Z M36.4723032,95.2875 C33.4548105,95.2875 31.0058309,92.8375 31.0058309,89.81875 C31.0058309,86.8 33.4548105,84.35 36.4723032,84.35 C39.4897959,84.35 41.9387755,86.8 41.9387755,89.81875 C41.9387755,92.8375 39.4897959,95.2875 36.4723032,95.2875 L36.4723032,95.2875 Z" id="Shape" sketch:type="MSShapeGroup"></path>
        </g>
    </g>
</svg>