<?xml version="1.0" encoding="utf-8"?>
<!-- Generator: Adobe Illustrator 18.1.0, SVG Export Plug-In . SVG Version: 6.00 Build 0)  -->
<!DOCTYPE svg PUBLIC "-//W3C//DTD SVG 1.1//EN" "http://www.w3.org/Graphics/SVG/1.1/DTD/svg11.dtd">
<svg version="1.1" id="Layer_1" xmlns="http://www.w3.org/2000/svg" xmlns:xlink="http://www.w3.org/1999/xlink" x="0px" y="0px"
	 width="110px" height="48.1px" viewBox="0 0 110 48.1" enable-background="new 0 0 110 48.1" xml:space="preserve">
<g>
	<g>
		<path d="M96.1,12.5c-2.1,0-3.8,2-3.8,4.5v19.9c0,2.5,1.7,4.5,3.8,4.5c2.1,0,3.8-2,3.8-4.5V17C99.9,14.5,98.2,12.5,96.1,12.5z
			 M104.6,18c-1.4,0-2.5,1.3-2.5,3v11.8c0,1.7,1.1,3,2.5,3c1.4,0,2.5-1.3,2.5-3V21C107.2,19.4,106,18,104.6,18z M84.7,5
			c-2.8,0-5.1,2.7-5.1,6v10.7H31.3V11c0-3.3-2.3-6-5.1-6c-2.8,0-5.1,2.7-5.1,6v28.1c0,3.3,2.3,6,5.1,6c2.8,0,5.1-2.7,5.1-6V28.4
			h48.4v10.7c0,3.3,2.3,6,5.1,6c2.8,0,5.1-2.7,5.1-6V11C89.8,7.7,87.5,5,84.7,5z M6.3,14.4c-1.4,0-2.5,1.3-2.5,3v11.8
			c0,1.7,1.1,3,2.5,3c1.4,0,2.5-1.3,2.5-3V17.4C8.8,15.7,7.7,14.4,6.3,14.4z M14.8,8.8c-2.1,0-3.8,2-3.8,4.5v19.9
			c0,2.5,1.7,4.5,3.8,4.5c2.1,0,3.8-2,3.8-4.5V13.3C18.6,10.8,16.9,8.8,14.8,8.8z"/>
	</g>
</g>
</svg>
