<?xml version="1.0" encoding="UTF-8" standalone="no"?>
<svg width="150px" height="60px" viewBox="0 0 150 60" version="1.1" xmlns="http://www.w3.org/2000/svg" xmlns:xlink="http://www.w3.org/1999/xlink" xmlns:sketch="http://www.bohemiancoding.com/sketch/ns">
    <!-- Generator: Sketch 3.1.1 (8761) - http://www.bohemiancoding.com/sketch -->
    <title>sport_weights</title>
    <desc>Created with Sketch.</desc>
    <defs></defs>
    <g id="Page-1" stroke="none" stroke-width="1" fill="none" fill-rule="evenodd" sketch:type="MSPage">
        <g id="sport_weights" sketch:type="MSLayerGroup" fill="#000000">
            <path d="M133.966535,10.9614213 C130.925197,10.9614213 128.474409,13.9263959 128.474409,17.580203 L128.474409,46.8406091 C128.474409,50.4944162 130.954724,53.4593909 133.966535,53.4593909 C137.007874,53.4593909 139.458661,50.4944162 139.458661,46.8406091 L139.458661,17.6101523 C139.458661,13.9263959 136.978346,10.9614213 133.966535,10.9614213 L133.966535,10.9614213 Z M146.338583,19.1375635 C144.330709,19.1375635 142.677165,21.1142132 142.677165,23.5401015 L142.677165,40.8507614 C142.677165,43.306599 144.301181,45.2532995 146.338583,45.2532995 C148.375984,45.2532995 150,43.2766497 150,40.8507614 L150,23.5700508 C150,21.1142132 148.346457,19.1375635 146.338583,19.1375635 L146.338583,19.1375635 Z M117.46063,0 C113.415354,0 110.137795,3.95329949 110.137795,8.83502538 L110.137795,24.5883249 L39.9507874,24.5883249 L39.9507874,8.83502538 C39.9507874,3.95329949 36.6732283,0 32.6279528,0 C28.5826772,0 25.3051181,3.95329949 25.3051181,8.83502538 L25.3051181,50.2248731 C25.3051181,55.106599 28.5826772,59.0598985 32.6279528,59.0598985 C36.6732283,59.0598985 39.9507874,55.106599 39.9507874,50.2248731 L39.9507874,34.4715736 L110.108268,34.4715736 L110.108268,50.2248731 C110.108268,55.106599 113.385827,59.0598985 117.431102,59.0598985 C121.476378,59.0598985 124.753937,55.106599 124.753937,50.2248731 L124.753937,8.83502538 C124.783465,3.95329949 121.505906,0 117.46063,0 L117.46063,0 Z M3.75,13.7766497 C1.71259843,13.7766497 0.0885826772,15.7532995 0.0885826772,18.1791878 L0.0885826772,35.4898477 C0.0885826772,37.915736 1.74212598,39.8923858 3.75,39.8923858 C5.78740157,39.8923858 7.41141732,37.915736 7.41141732,35.4898477 L7.41141732,18.1791878 C7.41141732,15.7532995 5.78740157,13.7766497 3.75,13.7766497 L3.75,13.7766497 Z M16.1220472,5.60050761 C13.0807087,5.60050761 10.6299213,8.56548223 10.6299213,12.2192893 L10.6299213,41.4796954 C10.6299213,45.1335025 13.0807087,48.0984772 16.1220472,48.0984772 C19.1633858,48.0984772 21.6141732,45.1335025 21.6141732,41.4796954 L21.6141732,12.2192893 C21.6141732,8.56548223 19.1633858,5.60050761 16.1220472,5.60050761 L16.1220472,5.60050761 Z" id="Shape" sketch:type="MSShapeGroup"></path>
        </g>
    </g>
</svg>