<?xml version="1.0" encoding="UTF-8" standalone="no"?>
<svg width="152px" height="107px" viewBox="0 0 152 107" version="1.1" xmlns="http://www.w3.org/2000/svg" xmlns:xlink="http://www.w3.org/1999/xlink" xmlns:sketch="http://www.bohemiancoding.com/sketch/ns">
    <!-- Generator: Sketch 3.1.1 (8761) - http://www.bohemiancoding.com/sketch -->
    <title>sport_Bike</title>
    <desc>Created with Sketch.</desc>
    <defs></defs>
    <g id="Page-1" stroke="none" stroke-width="1" fill="none" fill-rule="evenodd" sketch:type="MSPage">
        <g id="sport_Bike" sketch:type="MSLayerGroup" transform="translate(1.000000, 0.000000)" fill="#000000">
            <path d="M46.9506726,51.4072555 L44.293722,57.685489 C50.0112108,62.0059937 53.7107623,68.8580442 53.7107623,76.5876972 C53.7107623,89.6504732 43.1165919,100.282965 30.1008969,100.282965 C17.0852018,100.282965 6.49103139,89.6504732 6.49103139,76.5876972 C6.49103139,63.5249211 17.0852018,52.892429 30.1008969,52.892429 C31.4125561,52.892429 32.6569507,53.0274448 33.9013453,53.2299685 L36.558296,46.985489 C34.4730942,46.5129338 32.3206278,46.2766562 30.1008969,46.2766562 C13.4192825,46.2766562 -0.100896861,59.8794953 -0.100896861,76.5876972 C-0.100896861,93.329653 13.4529148,106.898738 30.1008969,106.898738 C46.7488789,106.898738 60.3026906,93.2958991 60.3026906,76.5876972 C60.3363229,66.1239748 55.0224215,56.8753943 46.9506726,51.4072555 L46.9506726,51.4072555 Z M119.831839,44.2514196 C116.737668,44.2514196 113.710762,44.7239748 110.919283,45.6015773 L113.946188,51.6772871 C115.863229,51.1709779 117.813901,50.9009464 119.865471,50.9009464 C132.881166,50.9009464 143.475336,61.5334385 143.475336,74.5962145 C143.475336,87.6589905 132.881166,98.2914826 119.865471,98.2914826 C108.867713,98.2914826 99.6188341,90.6968454 97.029148,80.4694006 L90.1681614,80.0643533 C92.7242152,94.1735016 105.067265,104.941009 119.865471,104.941009 C136.547085,104.941009 150.067265,91.3381703 150.067265,74.6299685 C150.067265,57.8880126 136.513453,44.2514196 119.831839,44.2514196 L119.831839,44.2514196 Z M96.8946188,69.1280757 C98.0381166,64.4025237 100.526906,60.2507886 104.024664,57.077918 L100.964126,50.9684543 C95.5156951,55.3564669 91.6479821,61.6009464 90.235426,68.7230284 L96.8946188,69.1280757 L96.8946188,69.1280757 Z M119.831839,79.4905363 C120.941704,79.4905363 121.984305,78.9167192 122.589686,78.0053628 C123.2287,77.0264984 123.295964,75.7438486 122.79148,74.6974763 L98.5762332,26.1255521 C98.4753363,25.8892744 98.3071749,25.6867508 98.1390135,25.5179811 L105.672646,9.28233438 L113.071749,9.28233438 C115.59417,9.28233438 117.64574,7.22334385 117.64574,4.69179811 C117.64574,2.16025237 115.59417,0.10126183 113.071749,0.10126183 L97.5,0.10126183 C94.9775785,0.10126183 92.926009,2.16025237 92.926009,4.69179811 C92.926009,7.22334385 94.9775785,9.28233438 97.5,9.28233438 L98.3744395,9.28233438 L91.4125561,24.2690852 L55.9641256,24.2690852 L60.8408072,12.8264984 C61.7152466,11.5438486 63.7331839,7.86466877 61.9843049,4.4555205 C60.6053812,1.78895899 57.5784753,0.472555205 52.8699552,0.573817035 C51.8273543,0.607570978 50.7511211,0.573817035 49.6748879,0.573817035 C45.8071749,0.540063091 41.7713004,0.540063091 38.6098655,1.51892744 C34.0358744,2.970347 32.7242152,5.56940063 32.455157,7.52712934 C31.5470852,13.1977918 38.67713,18.7334385 40.8632287,20.2523659 C42.3766816,21.2987382 44.4282511,20.9274448 45.470852,19.4422713 C46.5134529,17.9233438 46.1434978,15.8643533 44.6636771,14.8179811 C41.8049327,12.7927445 38.9125561,9.61987382 38.8789238,8.64100946 C38.8789238,8.64100946 39.2152466,8.23596215 40.5605381,7.79716088 C42.7466368,7.12208202 46.2443946,7.12208202 49.6412556,7.15583596 L53.0044843,7.15583596 C54.8878924,7.08832808 55.7286996,7.35835962 56.0650224,7.52712934 C55.9641256,7.9659306 55.6278027,8.74227129 55.2914798,9.2148265 C55.1569507,9.41735016 55.0224215,9.61987382 54.9215247,9.85615142 L27.073991,75.3050473 C26.367713,76.9927445 27.1412556,78.9167192 28.82287,79.6255521 C29.2600897,79.8280757 29.6973094,79.8955836 30.1345291,79.8955836 C31.4125561,79.8955836 32.6233184,79.1192429 33.161435,77.870347 L49.0358744,40.6397476 L70.5269058,75.1025237 C70.5941704,75.2375394 70.6950673,75.3050473 70.7623318,75.4063091 C70.8295964,75.473817 70.8632287,75.5750789 70.9304933,75.6088328 C71.1995516,75.8788644 71.4686099,76.115142 71.8049327,76.2839117 C71.8721973,76.3176656 71.9058296,76.3176656 71.9730942,76.3514196 C72.309417,76.4864353 72.6457399,76.5876972 72.9820628,76.6214511 C73.0156951,76.6214511 73.0493274,76.655205 73.1165919,76.655205 L119.663677,79.4905363 L119.831839,79.4905363 L119.831839,79.4905363 Z M72.2757848,65.4826498 L52.1636771,33.2138801 L53.1390135,30.884858 L88.3183857,30.884858 L72.2757848,65.4826498 L72.2757848,65.4826498 Z M77.3542601,70.2757098 L94.6412556,33.0113565 L114.316143,72.50347 L77.3542601,70.2757098 L77.3542601,70.2757098 Z" id="Shape" sketch:type="MSShapeGroup"></path>
        </g>
    </g>
</svg>