<?xml version="1.0" encoding="utf-8"?>
<!-- Generator: Adobe Illustrator 18.1.0, SVG Export Plug-In . SVG Version: 6.00 Build 0)  -->
<!DOCTYPE svg PUBLIC "-//W3C//DTD SVG 1.1//EN" "http://www.w3.org/Graphics/SVG/1.1/DTD/svg11.dtd">
<svg version="1.1" id="Layer_1" xmlns="http://www.w3.org/2000/svg" xmlns:xlink="http://www.w3.org/1999/xlink" x="0px" y="0px"
	 width="110px" height="103.4px" viewBox="0 0 110 103.4" enable-background="new 0 0 110 103.4" xml:space="preserve">
<g>
	<g>
		<path d="M95.4,26.9c0.8-3.5,3.8-7.5,3.8-11.5c0-7.7-2.3-12.3-7.6-12.3S84,7.7,84,15.4c0,4,3.3,7.2,3.8,11.5H95.4z M85.4,36.4h12.2
			c-0.8-2.1-1.6-4.3-2-6.1h-8.4C86.8,32,86.1,34.2,85.4,36.4z M105.7,62.6c-0.3-7.7-4.6-17-6.1-21.1c-0.2-0.5-0.4-1.1-0.7-1.7H84.3
			c-0.3,0.7-0.5,1.5-0.7,2.1c-0.5,1.3-1.3,3.2-2.2,5.4c1.8,4.6,3.8,10.4,4,15.6c0.4,10.1-1.8,19.9-3.9,26.7c1.7,5.2,3.2,8.5,3.2,8.5
			h13.9C98.5,98.1,106.5,80.9,105.7,62.6z M62.5,36.7h12.2c-0.8-2.1-1.6-4.3-2-6.1h-8.4C63.8,32.3,63.1,34.5,62.5,36.7z M72.4,27.2
			c0.8-3.5,3.8-7.5,3.8-11.5c0-7.7-2.3-12.3-7.6-12.3C63.3,3.5,61,8,61,15.7c0,4,3.3,7.2,3.8,11.5H72.4z M82.7,62.9
			c-0.3-7.7-4.6-17-6.1-21.1c-0.2-0.5-0.4-1.1-0.7-1.7H61.3c-0.3,0.7-0.5,1.5-0.7,2.1c-0.5,1.4-1.4,3.6-2.4,6
			c5,5.5,8.1,12.7,8.1,20.7c0,7.9-3,15.1-7.9,20.6c1.7,5.4,3.3,8.9,3.3,8.9h13.9C75.6,98.4,83.5,81.2,82.7,62.9z M32.8,38.1
			C15.8,38.1,2,51.9,2,69c0,17,13.8,30.8,30.8,30.8c17,0,30.8-13.8,30.8-30.8C63.6,51.9,49.8,38.1,32.8,38.1z M12.2,63.2
			c-2.1,0-3.8-1.7-3.8-3.8c0-2.1,1.7-3.8,3.8-3.8c2.1,0,3.8,1.7,3.8,3.8C16,61.6,14.3,63.2,12.2,63.2z M21.3,50.1
			c0-2.1,1.7-3.8,3.8-3.8c2.1,0,3.8,1.7,3.8,3.8c0,2.1-1.7,3.8-3.8,3.8C23,53.9,21.3,52.2,21.3,50.1z M27.3,69
			c-2.1,0-3.8-1.7-3.8-3.8c0-2.1,1.7-3.8,3.8-3.8c2.1,0,3.8,1.7,3.8,3.8C31.1,67.3,29.4,69,27.3,69z"/>
	</g>
</g>
</svg>
