<?xml version="1.0" encoding="utf-8"?>
<!-- Generator: Adobe Illustrator 18.1.0, SVG Export Plug-In . SVG Version: 6.00 Build 0)  -->
<!DOCTYPE svg PUBLIC "-//W3C//DTD SVG 1.1//EN" "http://www.w3.org/Graphics/SVG/1.1/DTD/svg11.dtd">
<svg version="1.1" id="Layer_1" xmlns="http://www.w3.org/2000/svg" xmlns:xlink="http://www.w3.org/1999/xlink" x="0px" y="0px"
	 width="110px" height="83.3px" viewBox="0 0 110 83.3" enable-background="new 0 0 110 83.3" xml:space="preserve">
<g>
	<g>
		<path d="M35.8,39.3L34,43.6c3.9,3,6.5,7.6,6.5,12.9c0,8.9-7.3,16.2-16.2,16.2c-8.9,0-16.2-7.3-16.2-16.2c0-8.9,7.3-16.2,16.2-16.2
			c0.9,0,1.8,0.1,2.6,0.2l1.8-4.3c-1.4-0.3-2.9-0.5-4.4-0.5c-11.4,0-20.7,9.3-20.7,20.7c0,11.4,9.3,20.7,20.7,20.7
			c11.4,0,20.7-9.3,20.7-20.7C45,49.4,41.3,43.1,35.8,39.3z M85.7,34.5c-2.1,0-4.2,0.3-6.1,0.9l2.1,4.1c1.3-0.3,2.7-0.5,4-0.5
			c8.9,0,16.2,7.3,16.2,16.2c0,8.9-7.3,16.2-16.2,16.2c-7.5,0-13.9-5.2-15.6-12.2l-4.7-0.3c1.8,9.6,10.2,17,20.3,17
			c11.4,0,20.7-9.3,20.7-20.7C106.4,43.7,97.2,34.5,85.7,34.5z M70,51.4c0.8-3.2,2.5-6.1,4.9-8.2L72.8,39c-3.7,3-6.4,7.2-7.4,12.1
			L70,51.4z M85.7,58.5c0.8,0,1.5-0.4,1.9-1c0.4-0.7,0.5-1.5,0.1-2.3L71.2,22.1c-0.1-0.2-0.2-0.3-0.3-0.4L76,10.6h5.1
			c1.7,0,3.1-1.4,3.1-3.1c0-1.7-1.4-3.1-3.1-3.1H70.4c-1.7,0-3.1,1.4-3.1,3.1c0,1.7,1.4,3.1,3.1,3.1H71l-4.8,10.2H42l3.3-7.8
			c0.6-0.9,2-3.4,0.8-5.7c-0.9-1.8-3-2.7-6.2-2.6c-0.7,0-1.4,0-2.2,0c-2.7,0-5.4,0-7.6,0.6c-3.1,1-4,2.8-4.2,4.1
			c-0.6,3.9,4.3,7.6,5.8,8.7c1,0.7,2.4,0.5,3.2-0.6c0.7-1,0.5-2.4-0.6-3.2c-2-1.4-3.9-3.5-4-4.2c0,0,0.2-0.3,1.1-0.6
			c1.5-0.5,3.9-0.5,6.2-0.4c0.8,0,1.6,0,2.3,0c1.3-0.1,1.9,0.1,2.1,0.2c-0.1,0.3-0.3,0.8-0.5,1.2c-0.1,0.1-0.2,0.3-0.3,0.4
			L22.2,55.6c-0.5,1.1,0,2.5,1.2,3c0.3,0.1,0.6,0.2,0.9,0.2c0.9,0,1.7-0.5,2.1-1.4L37.2,32l14.7,23.5c0,0.1,0.1,0.1,0.2,0.2
			c0,0.1,0.1,0.1,0.1,0.1c0.2,0.2,0.4,0.3,0.6,0.5c0,0,0.1,0,0.1,0c0.2,0.1,0.5,0.2,0.7,0.2c0,0,0.1,0,0.1,0l31.9,1.9
			C85.7,58.5,85.7,58.5,85.7,58.5z M53.2,48.9l-13.8-22l0.7-1.6h24.1L53.2,48.9z M56.6,52.2l11.9-25.4l13.5,27L56.6,52.2z"/>
	</g>
</g>
</svg>
