<?xml version="1.0" encoding="utf-8"?>
<!-- Generator: Adobe Illustrator 18.1.0, SVG Export Plug-In . SVG Version: 6.00 Build 0)  -->
<!DOCTYPE svg PUBLIC "-//W3C//DTD SVG 1.1//EN" "http://www.w3.org/Graphics/SVG/1.1/DTD/svg11.dtd">
<svg version="1.1" id="Layer_1" xmlns="http://www.w3.org/2000/svg" xmlns:xlink="http://www.w3.org/1999/xlink" x="0px" y="0px"
	 width="110px" height="329.3px" viewBox="0 0 110 329.3" enable-background="new 0 0 110 329.3" xml:space="preserve">
<g>
	<g>
		<path d="M55,52.4v-6.6l-2-1.2l-5.5,3.2L55,52.4z M52,44.1L52,44.1l0.1,0L52,44.1z M28.6,48.6h18.6l0.1-0.1L46,47.7l5.5-3.2
			L42.1,7.2l-16.3,5.5l2.9,32.9V48.6z M55.4,30.4L48.8,4.8l-6.1,2.5L52,43.8L55.4,30.4z M53.1,43.6l1.7,1.1v-2.4l4.2,2.4l9.5-37.4
			l-6.2-2.1l-9.5,38.7L53.1,43.6z M64.5,47.8v0.8h16.9v-3.3l2.9-32.5L69,7.6L59.6,45L64.5,47.8z M55.7,62.7l7.9-4.6v-9.8l-7.9-4.6
			V62.7z M76.3,57.8l5.6,3.4l-0.5-2.7v-0.7H76.3z M82.9,49.5H64.3v1.2L74.5,57h8.4V49.5z M46.2,49.5H27.3V57h6.7L46.2,49.5z
			 M64.3,58.1l20.9,13l3.1-5l-24-14.7V58.1z M52.5,62.5l-4.2-2.4l-5.3,21h6.7l5-19.6L52.5,62.5z M63.9,58.9l-9.1,5.3v-0.5l-4.4,17.4
			h35.3l-1.9-9.7L63.9,58.9z M85.3,13.7l-2.9,29.2l10.8,22l15-7.7L85.3,13.7z M24.5,13.7l-23,43.5l15,7.7l10.8-22L24.5,13.7z
			 M48.3,48.9L20.5,66.2l3.1,5L54,52.4L48.3,48.9z M28.3,60.3l4-2.5h-3.7v1L28.3,60.3z M52.6,61.6l2.5-1.2v-7.5l-8.4,5.2L52.6,61.6z
			 M45.7,58.6l-19.4,12l-2.1,10.5h18.2l5.4-21.3L45.7,58.6z"/>
	</g>
</g>
</svg>
