<?xml version="1.0" encoding="UTF-8" standalone="no"?>
<svg width="151px" height="132px" viewBox="0 0 151 132" version="1.1" xmlns="http://www.w3.org/2000/svg" xmlns:xlink="http://www.w3.org/1999/xlink" xmlns:sketch="http://www.bohemiancoding.com/sketch/ns">
    <!-- Generator: Sketch 3.1.1 (8761) - http://www.bohemiancoding.com/sketch -->
    <title>sport_Swimming</title>
    <desc>Created with Sketch.</desc>
    <defs></defs>
    <g id="Page-1" stroke="none" stroke-width="1" fill="none" fill-rule="evenodd" sketch:type="MSPage">
        <g id="sport_Swimming" sketch:type="MSLayerGroup" transform="translate(0.000000, 1.000000)" fill="#000000">
            <path d="M108.971722,98.0761062 C97.7892031,98.0761062 88.7275064,103.717994 88.7275064,110.635103 C88.7275064,117.590855 97.7892031,123.1941 108.971722,123.1941 C120.154242,123.1941 129.215938,117.552212 129.215938,110.635103 C129.254499,103.717994 120.192802,98.0761062 108.971722,98.0761062 L108.971722,98.0761062 Z M147.030848,103.833923 L137.390746,103.833923 C135.732648,103.833923 134.344473,105.186431 134.344473,106.886726 L134.344473,114.49941 C134.344473,116.161062 135.694087,117.552212 137.390746,117.552212 L147.030848,117.552212 C148.688946,117.552212 150.077121,116.199705 150.077121,114.49941 L150.077121,106.886726 C150.077121,105.186431 148.727506,103.833923 147.030848,103.833923 L147.030848,103.833923 Z M147.030848,113.803835 C147.030848,114.344838 146.568123,114.808555 146.028278,114.808555 L143.598972,114.808555 C143.059126,114.808555 142.596401,114.344838 142.596401,113.803835 L142.596401,107.505015 C142.596401,106.925369 143.059126,106.500295 143.598972,106.500295 L146.028278,106.500295 C146.568123,106.500295 147.030848,106.964012 147.030848,107.505015 L147.030848,113.803835 L147.030848,113.803835 Z M132.840617,114.460767 L132.840617,106.848083 C132.840617,104.336283 134.884319,102.288201 137.390746,102.288201 L137.77635,102.288201 C134.344473,92.3569322 124.087404,91.0044248 111.670951,91.0044248 C99.6786632,91.0044248 89.7686375,96.2985251 85.9897172,103.872566 C84.4473008,104.490855 77.4678663,107.19587 74.9228792,107.19587 C72.3393316,107.19587 65.2056555,104.413569 63.8174807,103.833923 C59.8457584,96.5303835 50.1285347,91.5067847 38.4061697,91.5067847 C25.9511568,91.5067847 15.7326478,92.8979351 12.3007712,102.79056 L12.6863753,102.79056 C15.1928021,102.79056 17.2365039,104.838643 17.2365039,107.350442 L17.2365039,114.963127 C17.2365039,117.474926 15.1928021,119.523009 12.6863753,119.523009 L12.3007712,119.523009 C15.7326478,129.454277 25.9511568,130.806785 38.4061697,130.806785 C50.7455013,130.806785 60.9254499,125.20354 64.4344473,117.243068 C66.6709512,116.39292 72.6092545,114.112979 74.9228792,114.112979 C77.4293059,114.112979 84.4087404,116.817994 85.9897172,117.436283 C89.7686375,125.010324 99.6786632,130.304425 111.670951,130.304425 C124.087404,130.304425 134.344473,128.913274 137.77635,119.020649 L137.390746,119.020649 C134.884319,119.020649 132.840617,116.972566 132.840617,114.460767 L132.840617,114.460767 Z M41.1053985,125.744543 C28.6118252,125.744543 18.8560411,119.329794 18.8560411,111.137463 C18.8560411,102.945133 28.6503856,96.5303835 41.1053985,96.5303835 C53.5989717,96.5303835 63.3933162,102.945133 63.3933162,111.137463 C63.3547558,119.329794 53.5989717,125.744543 41.1053985,125.744543 L41.1053985,125.744543 Z M108.971722,125.242183 C96.4781491,125.242183 86.6838046,118.827434 86.6838046,110.635103 C86.6838046,102.442773 96.4781491,96.0280236 108.971722,96.0280236 C121.465296,96.0280236 131.25964,102.442773 131.25964,110.635103 C131.25964,118.827434 121.465296,125.242183 108.971722,125.242183 L108.971722,125.242183 Z M41.1053985,98.5784661 C29.9228792,98.5784661 20.8611825,104.220354 20.8611825,111.137463 C20.8611825,118.093215 29.9228792,123.69646 41.1053985,123.69646 C52.2879177,123.69646 61.3496144,118.054572 61.3496144,111.137463 C61.3496144,104.220354 52.2879177,98.5784661 41.1053985,98.5784661 L41.1053985,98.5784661 Z M15.7326478,114.963127 L15.7326478,107.350442 C15.7326478,105.688791 14.3830334,104.336283 12.7249357,104.336283 L3.0848329,104.336283 C1.42673522,104.336283 0.0771208226,105.688791 0.0771208226,107.350442 L0.0771208226,114.963127 C0.0771208226,116.624779 1.42673522,118.015929 3.0848329,118.015929 L12.7249357,118.015929 C14.3830334,118.015929 15.7326478,116.624779 15.7326478,114.963127 L15.7326478,114.963127 Z M7.48071979,114.306195 C7.48071979,114.847198 7.01799486,115.310914 6.4781491,115.310914 L4.04884319,115.310914 C3.50899743,115.310914 3.04627249,114.847198 3.04627249,114.306195 L3.04627249,108.007375 C3.04627249,107.466372 3.50899743,107.002655 4.04884319,107.002655 L6.4781491,107.002655 C7.01799486,107.002655 7.48071979,107.466372 7.48071979,108.007375 L7.48071979,114.306195 L7.48071979,114.306195 Z M149.498715,81.2663717 C149.652956,79.179646 149.807198,77.0542773 149.807198,74.8902655 C149.807198,33.5035398 128.560411,-0.0386430678 75.0385604,-0.0386430678 C21.5167095,-0.0386430678 0.269922879,33.5421829 0.269922879,74.9289086 C0.269922879,77.0929204 0.424164524,79.179646 0.57840617,81.3050147 L149.498715,81.3050147 L149.498715,81.2663717 Z" id="Shape" sketch:type="MSShapeGroup"></path>
        </g>
    </g>
</svg>