<?xml version="1.0" encoding="UTF-8" standalone="no"?>
<svg width="150px" height="152px" viewBox="0 0 150 152" version="1.1" xmlns="http://www.w3.org/2000/svg" xmlns:xlink="http://www.w3.org/1999/xlink" xmlns:sketch="http://www.bohemiancoding.com/sketch/ns">
    <!-- Generator: Sketch 3.1.1 (8761) - http://www.bohemiancoding.com/sketch -->
    <title>sport_Football</title>
    <desc>Created with Sketch.</desc>
    <defs></defs>
    <g id="Page-1" stroke="none" stroke-width="1" fill="none" fill-rule="evenodd" sketch:type="MSPage">
        <g id="sport_Football" sketch:type="MSLayerGroup" transform="translate(0.000000, 1.000000)" fill="#000000">
            <path d="M20.9665428,126.660448 C15.9479554,132.257463 11.3754647,137.518657 7.24907063,142.38806 C7.3605948,142.5 7.47211896,142.66791 7.52788104,142.779851 C13.605948,148.880597 28.1598513,151.567164 45.7249071,149.384328 C37.8066914,142.835821 29.9442379,135.727612 22.2490706,128.003731 C21.8587361,127.5 21.4126394,127.052239 20.9665428,126.660448 L20.9665428,126.660448 Z M0.94795539,104.384328 C-0.94795539,119.608209 0.780669145,132.593284 5.18587361,139.813433 C9.4795539,134.776119 14.0520446,129.570896 18.7360595,124.421642 C12.3791822,117.761194 6.46840149,111.100746 0.94795539,104.384328 L0.94795539,104.384328 Z M37.0817844,104.496269 L38.9776952,102.481343 C41.7657993,99.5149254 44.5539033,96.6044776 47.2862454,93.8059701 L41.7100372,88.2089552 C40.7620818,87.2574627 40.7620818,85.7462687 41.7100372,84.7947761 C42.6579926,83.8432836 44.1635688,83.8432836 45.1115242,84.7947761 L50.6319703,90.3358209 C52.5836431,88.3768657 54.4237918,86.4179104 56.2639405,84.6268657 L49.6282528,77.9664179 C48.6802974,77.0149254 48.6802974,75.5037313 49.6282528,74.5522388 C50.5762082,73.6007463 52.0817844,73.6007463 53.0297398,74.5522388 L59.6654275,81.2126866 C61.4498141,79.4216418 63.3457249,77.5186567 65.3531599,75.5597015 L57.5464684,67.7238806 C56.598513,66.7723881 56.598513,65.261194 57.5464684,64.3097015 C58.4944238,63.358209 60,63.358209 60.9479554,64.3097015 L68.7546468,72.1455224 C70.5947955,70.2985075 72.5464684,68.4514925 74.4981413,66.5485075 L66.9702602,58.9925373 C66.0223048,58.0410448 66.0223048,56.5298507 66.9702602,55.5783582 C67.9182156,54.6268657 69.4237918,54.6268657 70.3717472,55.5783582 L77.9553903,63.1902985 C79.8513011,61.3432836 81.802974,59.4962687 83.7546468,57.6492537 L76.7286245,50.5970149 C75.7806691,49.6455224 75.7806691,48.1343284 76.7286245,47.1828358 C77.6765799,46.2313433 79.1821561,46.2313433 80.1301115,47.1828358 L87.2118959,54.2910448 C89.1635688,52.5 91.1152416,50.6529851 93.0669145,48.8059701 L86.9330855,42.6492537 C85.9851301,41.6977612 85.9851301,40.1865672 86.9330855,39.2350746 C87.8810409,38.2835821 89.3866171,38.2835821 90.3345725,39.2350746 L96.6356877,45.5597015 C97.9739777,44.3283582 109.516729,33.9738806 111.802974,31.9029851 C101.877323,22.2201493 91.6171004,13.488806 81.3568773,5.82089552 C65.2973978,11.25 48.7360595,20.5410448 34.795539,34.5335821 C20.0743494,49.3097015 10.6505576,66.9962687 5.40892193,83.8992537 C12.5464684,93.4701493 20.6319703,103.097015 29.5539033,112.38806 C32.1189591,109.813433 34.6282528,107.126866 37.0817844,104.496269 L37.0817844,104.496269 Z M142.527881,7.1641791 C136.05948,0.72761194 120.223048,-1.79104478 101.431227,1.06343284 C109.070632,7.33208955 116.710037,14.1044776 124.182156,21.4925373 C130.762082,15.9514925 137.007435,11.0820896 142.527881,7.1641791 L142.527881,7.1641791 Z M144.479554,9.68283582 C139.405204,13.3208955 133.438662,17.9664179 126.468401,23.7873134 C134.553903,31.9029851 141.97026,40.1865672 148.717472,48.5261194 C151.282528,31.6231343 149.498141,17.1828358 144.479554,9.68283582 L144.479554,9.68283582 Z M123.959108,25.8022388 L121.672862,23.5634328 C113.587361,15.6156716 105.390335,8.33955224 97.1375465,1.73507463 C93.2342007,2.51865672 89.2193309,3.5261194 85.1486989,4.75746269 C95.0185874,12.2014925 104.832714,20.5410448 114.312268,29.8320896 L116.598513,32.0708955 C116.765799,32.238806 116.988848,32.4626866 117.211896,32.630597 C127.583643,43.0410448 136.895911,53.8432836 144.981413,64.7574627 C146.208178,60.6716418 147.267658,56.641791 147.992565,52.7238806 C140.799257,43.7126866 132.825279,34.7014925 123.959108,25.8022388 L123.959108,25.8022388 L123.959108,25.8022388 Z M114.200743,34.1977612 C112.360595,35.8208955 100.427509,46.4552239 98.9776952,47.8544776 L105.446097,54.3470149 C106.394052,55.2985075 106.394052,56.8097015 105.446097,57.761194 C104.498141,58.7126866 102.992565,58.7126866 102.04461,57.761194 L95.464684,51.1007463 C93.5130112,52.891791 91.6171004,54.6828358 89.6096654,56.5858209 L96.4126394,63.4141791 C97.3605948,64.3656716 97.3605948,65.8768657 96.4126394,66.8283582 C95.464684,67.7798507 93.9591078,67.7798507 93.0111524,66.8283582 L86.0966543,59.8880597 C84.2007435,61.6791045 82.2490706,63.5261194 80.2973978,65.4291045 L87.3791822,72.4813433 C88.3271375,73.4328358 88.3271375,74.9440299 87.3791822,75.8955224 C86.4312268,76.8470149 84.9256506,76.8470149 83.9776952,75.8955224 L76.7843866,68.8432836 C74.8884758,70.6902985 72.9925651,72.5373134 71.0408922,74.4402985 L78.2342007,81.6604478 C79.1821561,82.6119403 79.1821561,84.1231343 78.2342007,85.0746269 C77.2862454,86.0261194 75.7806691,86.0261194 74.8327138,85.0746269 L67.6394052,77.8544776 C65.7434944,79.7014925 63.9033457,81.5485075 61.9516729,83.5074627 L69.2007435,90.7835821 C70.1486989,91.7350746 70.1486989,93.2462687 69.2007435,94.1977612 C68.2527881,95.1492537 66.7472119,95.1492537 65.7992565,94.1977612 L58.5501859,86.9216418 C56.6542751,88.8246269 54.7583643,90.7835821 52.9182156,92.630597 L60.1115242,99.8507463 C61.0594796,100.802239 61.0594796,102.313433 60.1115242,103.264925 C59.1635688,104.216418 57.6579926,104.216418 56.7100372,103.264925 L49.5724907,96.1007463 C47.1189591,98.619403 33.7360595,112.723881 31.8959108,114.738806 C32.5092937,115.354478 33.0669145,115.970149 33.6802974,116.585821 C44.2193309,127.164179 55.1486989,136.623134 66.133829,144.850746 C82.9739777,139.589552 100.650558,130.130597 115.315985,115.354478 C129.256506,101.36194 138.513011,84.6828358 143.921933,68.5634328 C135.557621,57.2014925 125.855019,45.8395522 114.981413,34.9813433 C114.702602,34.7014925 114.423792,34.4776119 114.200743,34.1977612 L114.200743,34.1977612 Z M29.6654275,117.089552 L27.4349442,114.850746 C18.9591078,106.007463 11.2639405,96.8843284 4.34944238,87.7052239 C3.17843866,91.9589552 2.28624535,96.0447761 1.61710037,100.130597 C7.52788104,107.462687 13.9962825,114.794776 20.9107807,121.958955 L23.1412639,124.253731 C23.5873606,124.757463 24.0892193,125.205224 24.535316,125.708955 C32.8996283,134.104478 41.4312268,141.772388 50.0185874,148.712687 C53.9776952,148.041045 58.1040892,147.145522 62.2862454,145.970149 C51.802974,138.022388 41.3754647,128.899254 31.33829,118.880597 C30.7806691,118.264925 30.2230483,117.705224 29.6654275,117.089552 L29.6654275,117.089552 Z" id="Shape" sketch:type="MSShapeGroup"></path>
        </g>
    </g>
</svg>