<?xml version="1.0" encoding="UTF-8" standalone="no"?>
<svg width="150px" height="138px" viewBox="0 0 150 138" version="1.1" xmlns="http://www.w3.org/2000/svg" xmlns:xlink="http://www.w3.org/1999/xlink" xmlns:sketch="http://www.bohemiancoding.com/sketch/ns">
    <!-- Generator: Sketch 3.1.1 (8761) - http://www.bohemiancoding.com/sketch -->
    <title>sport_Baseball</title>
    <desc>Created with Sketch.</desc>
    <defs></defs>
    <g id="Page-1" stroke="none" stroke-width="1" fill="none" fill-rule="evenodd" sketch:type="MSPage">
        <g id="sport_Baseball" sketch:type="MSLayerGroup" fill="#000000">
            <path d="M145.157767,5.01485411 C137.694175,-2.48912467 125.279126,-1.13474801 117.56068,8.0530504 L21.9902913,119.514589 C19.5145631,117.501326 16.2014563,117.208488 14.3446602,119.111936 C12.3058252,121.161804 12.7063107,124.932095 15.2184466,127.49443 L23.3737864,135.693899 C25.8859223,138.219629 29.6359223,138.622281 31.711165,136.572414 C33.6043689,134.668966 33.3131068,131.374536 31.3106796,128.885411 L142.17233,32.7612732 C151.31068,25.0376658 152.657767,12.5554377 145.157767,5.01485411 L145.157767,5.01485411 Z M2.91262136,49.5994695 L2.58495146,45.1702918 C2.54854369,44.4748011 3.05825243,43.8525199 3.78640777,43.7793103 C4.11407767,43.7427056 4.44174757,43.8525199 4.66019417,44.0355438 C4.95145631,44.2551724 5.13349515,44.5846154 5.16990291,44.9506631 L5.49757282,49.3066313 C6.66262136,49.1236074 7.8276699,48.867374 8.95631068,48.537931 L7.3907767,44.8408488 C7.09951456,44.1819629 7.3907767,43.4132626 8.08252427,43.1204244 C8.37378641,43.0106101 8.70145631,42.9740053 8.99271845,43.0838196 C9.32038835,43.193634 9.61165049,43.4498674 9.75728155,43.8159151 L11.3592233,47.6594164 C12.6334951,47.1469496 13.8713592,46.4880637 15.0728155,45.7559682 L12.4514563,42.5713528 C12.0145631,42.0222812 12.0873786,41.2169761 12.6334951,40.7411141 C12.8883495,40.5214854 13.2160194,40.4482759 13.5072816,40.4482759 C13.8713592,40.4482759 14.1990291,40.6312997 14.4538835,40.9241379 L17.2208738,44.2551724 C18.5315534,43.2302387 19.7330097,42.0222812 20.8252427,40.6679045 L17.657767,37.7029178 C17.1480583,37.2270557 17.1116505,36.3851459 17.5849515,35.872679 C17.8033981,35.6164456 18.0946602,35.5066313 18.4223301,35.4700265 C18.7864078,35.4334218 19.1504854,35.5432361 19.4053398,35.7994695 L22.3543689,38.5448276 C23.0097087,37.5564987 23.5558252,36.531565 24.065534,35.4700265 L21.0800971,34.0790451 C20.7524272,34.0424403 20.4975728,33.7496021 20.3883495,33.3835544 C20.315534,33.0907162 20.315534,32.7612732 20.461165,32.468435 C20.7524272,31.8095491 21.5169903,31.5533156 22.1723301,31.8461538 L25.0121359,33.1639257 C25.4490291,31.9193634 25.776699,30.6381963 25.9587379,29.3570292 L22.6456311,28.8811671 C22.2815534,28.8079576 21.9538835,28.6249337 21.7718447,28.3320955 C21.5898058,28.0758621 21.5169903,27.7464191 21.5533981,27.4169761 C21.6626214,26.7214854 22.3179612,26.2090186 23.0097087,26.3188329 L26.2135922,26.794695 C26.2864078,25.6965517 26.25,24.5984085 26.1771845,23.4636605 L22.5364078,24.1225464 C22.1723301,24.195756 21.8082524,24.0859416 21.5169903,23.866313 C21.2621359,23.6832891 21.1165049,23.4270557 21.0436893,23.061008 C20.934466,22.3655172 21.3713592,21.6700265 22.0995146,21.5602122 L25.8495146,20.9013263 C25.776699,20.462069 25.7038835,20.0228117 25.5946602,19.5835544 C17.8033981,20.7549072 10.4490291,24.9644562 5.57038835,31.9559682 C1.82038835,37.33687 0.072815534,43.4864721 0.109223301,49.5628647 C1.05582524,49.6360743 2.00242718,49.6360743 2.91262136,49.5994695 L2.91262136,49.5994695 Z M33.131068,78.0047745 L29.3082524,78.0413793 C29.3082524,78.4806366 29.2718447,78.9198939 29.3082524,79.3591512 C37.1723301,79.5421751 45.1092233,76.6137931 51.1529126,70.5740053 C55.7402913,65.9618037 58.5072816,60.1782493 59.4902913,54.1750663 C58.5800971,53.9554377 57.6699029,53.8090186 56.723301,53.6625995 L56.2864078,58.0917772 C56.2135922,58.7872679 55.5946602,59.3363395 54.9029126,59.26313 C54.5752427,59.2265252 54.2839806,59.0801061 54.065534,58.8604775 C53.8470874,58.604244 53.7014563,58.2381963 53.7378641,57.8721485 L54.1747573,53.5161804 C52.973301,53.4795756 51.8082524,53.5527851 50.6432039,53.6992042 L51.5533981,57.5793103 C51.6990291,58.2748011 51.2985437,58.9702918 50.6067961,59.1533156 C50.2791262,59.2265252 49.9514563,59.1899204 49.6966019,59.0435013 C49.368932,58.8604775 49.1504854,58.5676393 49.0776699,58.2015915 L48.131068,54.1384615 C46.7839806,54.4312997 45.4368932,54.8339523 44.1626214,55.3830239 L46.2014563,58.9702918 C46.565534,59.5925729 46.3470874,60.3612732 45.7281553,60.727321 C45.4368932,60.9103448 45.1092233,60.9469496 44.8179612,60.8737401 C44.4538835,60.8005305 44.1626214,60.5809019 43.9805825,60.2514589 L41.8325243,56.4811671 C40.3762136,57.2864721 38.9927184,58.2381963 37.6820388,59.3729443 L40.3033981,62.8137931 C40.7402913,63.3994695 40.631068,64.2047745 40.0485437,64.6440318 C39.7936893,64.8636605 39.4660194,64.93687 39.1747573,64.9002653 C38.8470874,64.8636605 38.4830097,64.7172414 38.2645631,64.3877984 L35.8252427,61.1665782 C35.0242718,62.0450928 34.2961165,62.9602122 33.6407767,63.9119363 L36.3349515,65.7787798 C36.6626214,65.9984085 36.8446602,66.3278515 36.881068,66.6938992 C36.9174757,66.9867374 36.8446602,67.3161804 36.6626214,67.6090186 C36.2621359,68.194695 35.461165,68.3411141 34.8786408,67.9384615 L32.2936893,66.1448276 C31.6747573,67.3161804 31.1286408,68.4875332 30.7281553,69.7320955 L33.8956311,70.7570292 C34.2597087,70.8668435 34.5145631,71.1230769 34.6601942,71.4525199 C34.7694175,71.7453581 34.8058252,72.0748011 34.6966019,72.3676393 C34.4781553,73.06313 33.75,73.4291777 33.0582524,73.2095491 L29.9635922,72.2212202 C29.7087379,73.3193634 29.5631068,74.3809019 29.4538835,75.4790451 L33.131068,75.4058355 C33.4951456,75.4058355 33.8592233,75.5522546 34.0776699,75.8084881 C34.2961165,76.0281167 34.4053398,76.3575597 34.4417476,76.6870027 C34.4417476,77.4190981 33.8592233,78.0047745 33.131068,78.0047745 L33.131068,78.0047745 Z M26.723301,78.0779841 L22.0631068,78.1511936 C21.3713592,78.1511936 20.788835,77.602122 20.7524272,76.8700265 C20.7524272,76.1745358 21.3349515,75.5888594 22.026699,75.5522546 L26.7961165,75.4790451 C26.9417476,74.0880637 27.1601942,72.733687 27.4878641,71.3793103 L22.4635922,69.7320955 C21.8082524,69.5124668 21.4441748,68.7803714 21.6262136,68.0848806 C21.8446602,67.4259947 22.5728155,67.0233422 23.2645631,67.2429708 L28.2524272,68.8535809 C28.7621359,67.3893899 29.3446602,65.9618037 30.1092233,64.5708223 L25.7038835,61.4960212 C25.1213592,61.0933687 24.9757282,60.2880637 25.3762136,59.7023873 C25.776699,59.1167109 26.5776699,58.9702918 27.1601942,59.3729443 L31.4563107,62.3745358 C32.2572816,61.203183 33.1674757,60.068435 34.1868932,59.0068966 L31.4927184,55.4562334 C31.0558252,54.870557 31.1650485,54.065252 31.7475728,53.6259947 C32.3300971,53.1867374 33.131068,53.2965517 33.5315534,53.8822281 L36.0800971,57.2498674 C37.5,56.0419098 38.9927184,55.0535809 40.5582524,54.2116711 L38.4101942,50.4779841 C38.0461165,49.8557029 38.2645631,49.0503979 38.8834951,48.7209549 C39.5024272,48.3549072 40.2669903,48.5745358 40.631068,49.196817 L42.8519417,53.0769231 C44.3446602,52.4180371 45.9101942,51.8689655 47.4757282,51.5395225 L46.4927184,47.2567639 C46.3470874,46.5612732 46.7475728,45.8657825 47.4393204,45.6827586 C48.131068,45.5363395 48.8228155,45.938992 49.0048544,46.6344828 L50.0242718,51.0636605 C51.4805825,50.8806366 52.9004854,50.7708223 54.3932039,50.8440318 L54.7936893,46.6710875 C54.8665049,45.9755968 55.4854369,45.4265252 56.1771845,45.4997347 C56.9053398,45.5729443 57.4150485,46.1952255 57.342233,46.927321 L56.9417476,51.0270557 C57.8883495,51.13687 58.8349515,51.2832891 59.7451456,51.5029178 C60.3276699,43.4132626 57.7063107,35.1771883 51.8446602,28.8079576 L51.8446602,28.7713528 C51.7718447,28.6615385 51.6626214,28.5883289 51.5898058,28.4785146 C51.407767,28.2954907 49.1868932,26.2090186 49.1868932,26.2090186 C48.5315534,25.6599469 47.9126214,25.1108753 47.2208738,24.6350133 C41.4320388,20.5352785 34.6966019,18.7782493 28.1432039,19.1809019 C28.2160194,19.5469496 28.288835,19.9129973 28.3252427,20.2790451 L32.9126214,19.4371353 C33.6043689,19.2907162 34.2961165,19.7665782 34.4417476,20.462069 C34.5509709,21.1575597 34.1140777,21.8530504 33.3859223,21.9628647 L28.6893204,22.8413793 C28.7985437,24.2323607 28.7985437,25.6233422 28.7257282,26.9777188 L33.9684466,27.7464191 C34.6966019,27.8562334 35.1699029,28.5151194 35.0606796,29.2106101 C34.9514563,29.9061008 34.2961165,30.4185676 33.6043689,30.3087533 L28.434466,29.5400531 C28.1796117,31.0774536 27.8519417,32.5782493 27.342233,34.0790451 L32.2208738,36.3485411 C32.8762136,36.6413793 33.131068,37.4100796 32.8398058,38.0689655 C32.5485437,38.7278515 31.7839806,38.9840849 31.1286408,38.6912467 L26.3956311,36.4949602 C25.8131068,37.7761273 25.0849515,39.0572944 24.2839806,40.265252 L27.5242718,43.3034483 C28.0339806,43.7793103 28.0703883,44.6212202 27.5970874,45.133687 C27.1237864,45.6461538 26.3228155,45.6827586 25.776699,45.2068966 L22.6820388,42.3151194 C21.4805825,43.7427056 20.1699029,44.9506631 18.7864078,46.0854111 L21.5169903,49.3798408 C21.9538835,49.9289125 21.881068,50.7342175 21.3349515,51.2100796 C20.788835,51.6493369 19.9878641,51.5761273 19.5145631,51.0270557 L16.6747573,47.5862069 C15.2912621,48.5013263 13.8713592,49.3066313 12.342233,49.8923077 L14.0533981,53.9188329 C14.3446602,54.5777188 14.0169903,55.3464191 13.3616505,55.6026525 C12.7063107,55.8954907 11.9781553,55.5660477 11.6868932,54.9071618 L9.90291262,50.7342175 C8.51941748,51.1734748 7.09951456,51.5029178 5.64320388,51.6859416 L5.93446602,55.8588859 C6.00728155,56.5543767 5.46116505,57.1766578 4.73300971,57.2498674 C4.00485437,57.2864721 3.4223301,56.7740053 3.34951456,56.0419098 L3.02184466,51.9421751 C2.07524272,51.9787798 1.12864078,52.0153846 0.182038835,51.9421751 C0.800970874,58.4944297 3.38592233,64.5342175 8.0461165,69.5124668 C8.0461165,69.5124668 8.55582524,70.1713528 8.77427184,70.3543767 C13.7621359,75.4058355 20.1334951,78.261008 26.6504854,78.9564987 C26.723301,78.8466844 26.723301,78.4440318 26.723301,78.0779841 L26.723301,78.0779841 Z" id="Shape" sketch:type="MSShapeGroup"></path>
        </g>
    </g>
</svg>