<?xml version="1.0" encoding="utf-8"?>
<!-- Generator: Adobe Illustrator 18.1.0, SVG Export Plug-In . SVG Version: 6.00 Build 0)  -->
<!DOCTYPE svg PUBLIC "-//W3C//DTD SVG 1.1//EN" "http://www.w3.org/Graphics/SVG/1.1/DTD/svg11.dtd">
<svg version="1.1" id="Layer_1" xmlns="http://www.w3.org/2000/svg" xmlns:xlink="http://www.w3.org/1999/xlink" x="0px" y="0px"
	 width="110px" height="103.6px" viewBox="0 0 110 103.6" enable-background="new 0 0 110 103.6" xml:space="preserve">
<g>
	<g>
		<path d="M103.6,8.8c-5.2-5.2-13.9-4.3-19.2,2.1L17.9,88.1c-1.7-1.4-4-1.6-5.3-0.3c-1.4,1.4-1.1,4,0.6,5.8l5.7,5.7
			c1.8,1.8,4.4,2,5.8,0.6c1.3-1.3,1.1-3.6-0.3-5.3L101.5,28C107.9,22.7,108.8,14,103.6,8.8z M4.6,39.7l-0.2-3.1c0-0.5,0.3-0.9,0.8-1
			c0.2,0,0.4,0.1,0.6,0.2C6,36,6.1,36.2,6.2,36.5l0.2,3C7.2,39.4,8,39.2,8.8,39l-1.1-2.5c-0.2-0.5,0-1,0.5-1.2
			c0.2-0.1,0.4-0.1,0.6,0c0.2,0.1,0.4,0.3,0.5,0.5l1.1,2.7c0.9-0.4,1.8-0.8,2.6-1.3l-1.8-2.2c-0.3-0.4-0.3-0.9,0.1-1.3
			c0.2-0.1,0.4-0.2,0.6-0.2c0.2,0,0.5,0.1,0.6,0.3l1.9,2.3c0.9-0.7,1.7-1.5,2.5-2.5l-2.2-2.1c-0.4-0.3-0.4-0.9,0-1.3
			c0.2-0.2,0.4-0.3,0.6-0.3c0.2,0,0.5,0.1,0.7,0.2l2.1,1.9c0.5-0.7,0.8-1.4,1.2-2.1l-2.1-1c-0.2-0.1-0.4-0.3-0.5-0.5
			c-0.1-0.2-0.1-0.4,0-0.6c0.2-0.4,0.7-0.6,1.2-0.4l2,0.9c0.3-0.9,0.5-1.7,0.7-2.6l-2.3-0.3c-0.3,0-0.5-0.2-0.6-0.4
			c-0.1-0.2-0.2-0.4-0.1-0.6c0.1-0.5,0.5-0.8,1-0.8l2.2,0.3c0-0.8,0-1.5,0-2.3l-2.5,0.5c-0.3,0.1-0.5,0-0.7-0.2
			c-0.2-0.1-0.3-0.3-0.3-0.5c-0.1-0.5,0.2-1,0.7-1l2.6-0.5c-0.1-0.3-0.1-0.6-0.2-0.9C15,19.7,9.9,22.6,6.5,27.5
			c-2.6,3.7-3.8,8-3.8,12.2C3.3,39.7,4,39.7,4.6,39.7z M25.6,59.3l-2.7,0c0,0.3,0,0.6,0,0.9c5.5,0.1,11-1.9,15.2-6.1
			C41.4,51,43.3,47,44,42.9c-0.6-0.2-1.3-0.3-1.9-0.3l-0.3,3.1c0,0.5-0.5,0.9-1,0.8c-0.2,0-0.4-0.1-0.6-0.3
			c-0.2-0.2-0.3-0.4-0.2-0.7l0.3-3c-0.8,0-1.6,0-2.5,0.1l0.6,2.7c0.1,0.5-0.2,1-0.7,1.1c-0.2,0.1-0.4,0-0.6-0.1
			c-0.2-0.1-0.4-0.3-0.4-0.6l-0.7-2.8c-0.9,0.2-1.9,0.5-2.8,0.9l1.4,2.5c0.3,0.4,0.1,1-0.3,1.2c-0.2,0.1-0.4,0.1-0.6,0.1
			c-0.2,0-0.5-0.2-0.6-0.4l-1.5-2.6c-1,0.6-2,1.2-2.9,2l1.8,2.4c0.3,0.4,0.2,1-0.2,1.3c-0.2,0.1-0.4,0.2-0.6,0.2
			c-0.2,0-0.5-0.1-0.6-0.3l-1.7-2.2c-0.6,0.6-1.1,1.2-1.5,1.9l1.9,1.3c0.2,0.1,0.4,0.4,0.4,0.6c0,0.2,0,0.4-0.1,0.6
			c-0.3,0.4-0.8,0.5-1.2,0.2L25,51.1c-0.4,0.8-0.8,1.6-1.1,2.5l2.2,0.7c0.2,0.1,0.4,0.3,0.5,0.5c0.1,0.2,0.1,0.4,0,0.6
			c-0.2,0.5-0.7,0.7-1.1,0.6l-2.1-0.7c-0.2,0.7-0.3,1.5-0.4,2.3l2.6,0c0.3,0,0.5,0.1,0.7,0.3c0.1,0.2,0.2,0.4,0.2,0.6
			C26.5,58.9,26.1,59.3,25.6,59.3z M21.2,59.4l-3.2,0c-0.5,0-0.9-0.4-0.9-0.9c0-0.5,0.4-0.9,0.9-0.9l3.3,0c0.1-1,0.2-1.9,0.5-2.8
			l-3.5-1.1c-0.5-0.2-0.7-0.7-0.6-1.1c0.2-0.5,0.7-0.7,1.1-0.6l3.5,1.1c0.3-1,0.8-2,1.3-3L20.5,48c-0.4-0.3-0.5-0.8-0.2-1.2
			c0.3-0.4,0.8-0.5,1.3-0.2l3,2.1c0.6-0.8,1.2-1.6,1.9-2.3l-1.9-2.5c-0.3-0.4-0.2-1,0.2-1.3c0.4-0.3,1-0.2,1.3,0.2l1.8,2.3
			c1-0.8,2-1.5,3.1-2.1l-1.5-2.6c-0.2-0.4-0.1-1,0.3-1.2c0.4-0.2,1-0.1,1.2,0.3l1.5,2.7c1-0.5,2.1-0.8,3.2-1.1l-0.7-3
			c-0.1-0.5,0.2-1,0.7-1.1c0.5-0.1,1,0.2,1.1,0.7l0.7,3.1c1-0.1,2-0.2,3-0.2l0.3-2.9c0.1-0.5,0.5-0.9,1-0.8c0.5,0,0.9,0.5,0.8,1
			l-0.3,2.8c0.7,0.1,1.3,0.2,2,0.3c0.4-5.6-1.4-11.3-5.5-15.7l0,0c-0.1-0.1-0.1-0.1-0.2-0.2c-0.1-0.1-1.7-1.6-1.7-1.6
			c-0.4-0.4-0.9-0.8-1.4-1.1c-4-2.8-8.7-4.1-13.3-3.8c0.1,0.3,0.1,0.5,0.1,0.8l3.2-0.6c0.5-0.1,1,0.2,1.1,0.7c0.1,0.5-0.2,1-0.7,1
			l-3.3,0.6c0.1,1,0.1,1.9,0,2.9l3.6,0.5c0.5,0.1,0.8,0.5,0.8,1c-0.1,0.5-0.5,0.8-1,0.8l-3.6-0.5C22.2,27,22,28,21.6,29.1l3.4,1.6
			c0.4,0.2,0.6,0.7,0.4,1.2c-0.2,0.4-0.7,0.6-1.2,0.4l-3.3-1.5c-0.4,0.9-0.9,1.8-1.5,2.6l2.3,2.1c0.4,0.3,0.4,0.9,0,1.3
			c-0.3,0.4-0.9,0.4-1.3,0l-2.1-2c-0.8,1-1.7,1.8-2.7,2.6l1.9,2.3c0.3,0.4,0.3,0.9-0.1,1.3c-0.4,0.3-0.9,0.3-1.3-0.1l-2-2.4
			c-1,0.6-2,1.2-3,1.6l1.2,2.8c0.2,0.5,0,1-0.5,1.2c-0.5,0.2-1,0-1.2-0.5l-1.2-2.9c-1,0.3-2,0.5-3,0.7l0.2,2.9c0,0.5-0.3,0.9-0.8,1
			c-0.5,0-0.9-0.3-1-0.8l-0.2-2.8c-0.7,0-1.3,0-2,0C3.2,46,5,50.2,8.2,53.6c0,0,0.4,0.5,0.5,0.6c3.5,3.5,7.9,5.5,12.5,6
			C21.2,59.9,21.2,59.7,21.2,59.4z"/>
	</g>
</g>
</svg>
