<?xml version="1.0" encoding="UTF-8" standalone="no"?>
<svg width="150px" height="152px" viewBox="0 0 150 152" version="1.1" xmlns="http://www.w3.org/2000/svg" xmlns:xlink="http://www.w3.org/1999/xlink" xmlns:sketch="http://www.bohemiancoding.com/sketch/ns">
    <!-- Generator: Sketch 3.1.1 (8761) - http://www.bohemiancoding.com/sketch -->
    <title>sport_Basketball</title>
    <desc>Created with Sketch.</desc>
    <defs></defs>
    <g id="Page-1" stroke="none" stroke-width="1" fill="none" fill-rule="evenodd" sketch:type="MSPage">
        <g id="sport_Basketball" sketch:type="MSLayerGroup" transform="translate(0.000000, 1.000000)" fill="#000000">
            <path d="M131.868687,26.3006757 C117.020202,37.652027 97.8787879,54.375 76.0606061,76.2668919 L76.0606061,76.2668919 C76.2121212,76.4189189 76.3636364,76.6216216 76.5656566,76.7736486 C80.3030303,80.5236486 84.2424242,84.5777027 88.2323232,88.7837838 C100.606061,78.597973 123.484848,82.2466216 146.818182,96.5371622 C153.787879,72.6689189 148.787879,46.1148649 131.868687,26.3006757 L131.868687,26.3006757 Z M90.4040404,91.0641892 C102.525253,103.935811 115,118.125 124.949495,130.945946 C125.909091,130.084459 126.919192,129.222973 127.878788,128.310811 C136.212121,119.949324 142.121212,110.067568 145.707071,99.5777027 C123.535354,85.6925676 101.919192,81.7905405 90.4040404,91.0641892 L90.4040404,91.0641892 Z M64.5454545,64.9662162 C67.7272727,68.0067568 70.8080808,71.0472973 73.7373737,73.9358108 L73.7373737,73.9358108 C90.1010101,57.5168919 111.464646,37.8547297 129.646465,23.8175676 C129.040404,23.1587838 128.535354,22.5 127.878788,21.8918919 C108.080808,1.97635135 79.8484848,-4.35810811 54.5959596,2.73648649 C70.6060606,27.2635135 75.2020202,51.9425676 64.5454545,64.9662162 L64.5454545,64.9662162 Z M94.7474747,147.567568 C104.69697,144.831081 114.242424,140.016892 122.575758,133.125 C113.939394,121.925676 102.373737,108.39527 88.0808081,93.2939189 C78.3333333,104.290541 81.5656566,125.523649 94.7474747,147.567568 L94.7474747,147.567568 Z M62.3232323,67.347973 C49.9494949,78.6486486 25.9090909,74.7466216 1.61616162,59.4932432 C-3.43434343,83.5641892 3.28282828,109.611486 21.9191919,128.260135 C22.5252525,128.868243 23.2323232,129.425676 23.8383838,130.033784 C37.1212121,112.652027 55.6060606,92.3817568 71.4646465,76.2668919 C68.3838384,73.1756757 65.3535354,70.1858108 62.3232323,67.347973 L62.3232323,67.347973 Z M85.8585859,90.9628378 C82.1212121,87.0608108 78.3333333,83.1081081 74.2424242,79.0033784 C74.0909091,78.8513514 73.9393939,78.6993243 73.7878788,78.5472973 C53.1313131,99.4763514 37.2222222,117.871622 26.2626263,132.212838 C44.7474747,148.074324 69.0909091,153.445946 91.5656566,148.327703 C78.1313131,125.219595 75.1515152,102.77027 85.8585859,90.9628378 L85.8585859,90.9628378 Z M51.4646465,3.69932432 C40.6565657,7.24662162 30.5050505,13.277027 21.8686869,21.8918919 C20.8080808,22.9560811 19.8484848,24.1216216 18.8383838,25.2871622 C32.4747475,35.6756757 48.1313131,49.4087838 62.1717172,62.7871622 C71.969697,50.625 67.1212121,27.2128378 51.4646465,3.69932432 L51.4646465,3.69932432 Z M60,65.1182432 C43.2323232,49.1554054 28.4848485,36.6385135 16.6666667,27.7195946 C9.74747475,36.2837838 5,46.0641892 2.42424242,56.25 C25.6060606,71.25 48.4343434,75.4054054 60,65.1182432 L60,65.1182432 Z" id="Shape" sketch:type="MSShapeGroup"></path>
        </g>
    </g>
</svg>