<?xml version="1.0" encoding="utf-8"?>
<!-- Generator: Adobe Illustrator 18.1.0, SVG Export Plug-In . SVG Version: 6.00 Build 0)  -->
<!DOCTYPE svg PUBLIC "-//W3C//DTD SVG 1.1//EN" "http://www.w3.org/Graphics/SVG/1.1/DTD/svg11.dtd">
<svg version="1.1" id="Layer_1" xmlns="http://www.w3.org/2000/svg" xmlns:xlink="http://www.w3.org/1999/xlink" x="0px" y="0px"
	 width="110px" height="107.1px" viewBox="0 0 110 107.1" enable-background="new 0 0 110 107.1" xml:space="preserve">
<g>
	<g>
		<path d="M92.9,21.6C83,29.2,70.3,40.2,55.8,54.8h0c0.1,0.1,0.2,0.2,0.3,0.3c2.5,2.5,5.1,5.2,7.8,8c8.3-6.8,23.5-4.3,39,5.1
			C107.5,52.4,104.2,34.8,92.9,21.6z M65.3,64.6c8.1,8.6,16.4,18,23,26.5c0.7-0.6,1.3-1.1,1.9-1.8c5.6-5.6,9.5-12.1,11.9-19.1
			C87.4,61,73,58.4,65.3,64.6z M48.1,47.3c2.1,2,4.2,4,6.1,6c0,0,0,0,0,0c10.9-10.9,25.1-24,37.2-33.3c-0.4-0.4-0.7-0.9-1.2-1.3
			C77.1,5.5,58.3,1.3,41.5,6C52.1,22.3,55.2,38.6,48.1,47.3z M68.2,102.1c6.6-1.8,13-5,18.5-9.6c-5.8-7.4-13.4-16.4-23-26.4
			C57.3,73.4,59.4,87.5,68.2,102.1z M46.6,48.9c-8.3,7.5-24.3,4.9-40.4-5.2c-3.4,16,1.1,33.3,13.5,45.7c0.4,0.4,0.9,0.8,1.3,1.2
			c8.9-11.5,21.1-25,31.7-35.7C50.6,52.7,48.6,50.8,46.6,48.9z M62.3,64.5c-2.5-2.6-5-5.2-7.7-7.9c-0.1-0.1-0.2-0.2-0.3-0.3
			C40.5,70.2,29.9,82.4,22.6,91.9c12.3,10.5,28.5,14.1,43.5,10.7C57.1,87.3,55.2,72.4,62.3,64.5z M39.4,6.6
			C32.2,9,25.4,13,19.7,18.7c-0.7,0.7-1.4,1.5-2,2.2c9.1,6.9,19.5,16,28.9,24.9C53,37.8,49.8,22.2,39.4,6.6z M45.1,47.4
			c-11.2-10.6-21-18.9-28.9-24.8c-4.6,5.7-7.8,12.2-9.5,18.9C22.2,51.4,37.4,54.2,45.1,47.4z"/>
	</g>
</g>
</svg>
