<?xml version="1.0" encoding="utf-8"?>
<!-- Generator: Adobe Illustrator 18.1.0, SVG Export Plug-In . SVG Version: 6.00 Build 0)  -->
<!DOCTYPE svg PUBLIC "-//W3C//DTD SVG 1.1//EN" "http://www.w3.org/Graphics/SVG/1.1/DTD/svg11.dtd">
<svg version="1.1" id="Layer_1" xmlns="http://www.w3.org/2000/svg" xmlns:xlink="http://www.w3.org/1999/xlink" x="0px" y="0px"
	 viewBox="0 0 448.3 329.3" enable-background="new 0 0 448.3 329.3" xml:space="preserve">
<g>
	<g>
		<path d="M227.1,200.8v-26.9l-8-4.9l-22.3,12.9L227.1,200.8z M214.8,167.1l0.1,0.3l0.4-0.2L214.8,167.1z M119.2,185.5h75.9l0.5-0.3
			l-5.5-3.5l22.5-13L174.1,16.5L107.4,39l11.7,134.3V185.5z M228.6,111.3L201.7,6.5l-24.9,10.1l37.7,149.2L228.6,111.3z M219.2,165
			l7,4.3v-9.8l17,9.8l38.7-152.8L256.5,8l-39,157.9L219.2,165z M265.6,182.2v3.2h68.9v-13.7L346.2,39l-62.1-21l-38.6,152.6
			L265.6,182.2z M229.7,243l32.4-18.7v-40.1l-32.4-18.7V243z M314,223.1l22.7,13.9l-2.2-11v-2.9H314z M340.8,189h-76.1v4.9l42,25.7
			h34.1V189z M191.1,189H114v30.7h27.5L191.1,189z M264.7,224.3l85.2,53.3l12.8-20.5l-98-60.1V224.3z M216.8,242.3l-17.1-9.8
			l-21.6,85.5h27.5l20.2-80.1L216.8,242.3z M263.4,227.6l-37.1,21.5v-2l-17.9,70.9h144.2l-7.7-39.4L263.4,227.6z M350.5,43.1
			l-11.7,119.1L383,252l61.3-31.4L350.5,43.1z M102.3,43.1L8.5,220.6L69.8,252l44.3-89.8L102.3,43.1z M199.7,186.7L86,257.1
			l12.9,20.5l123.8-76.5L199.7,186.7z M118,233.2l16.3-10.1h-15.1v3.9L118,233.2z M217,238.3l10.1-4.9v-30.5l-34.4,21.4L217,238.3z
			 M188.9,226.1L109.7,275l-8.5,42.9h74.3l22-86.9L188.9,226.1z"/>
	</g>
</g>
</svg>
