<?xml version="1.0" encoding="utf-8"?>
<!-- Generator: Adobe Illustrator 18.1.0, SVG Export Plug-In . SVG Version: 6.00 Build 0)  -->
<!DOCTYPE svg PUBLIC "-//W3C//DTD SVG 1.1//EN" "http://www.w3.org/Graphics/SVG/1.1/DTD/svg11.dtd">
<svg version="1.1" id="Layer_1" xmlns="http://www.w3.org/2000/svg" xmlns:xlink="http://www.w3.org/1999/xlink" x="0px" y="0px"
	 width="110px" height="100.8px" viewBox="0 0 110 100.8" enable-background="new 0 0 110 100.8" xml:space="preserve">
<g>
	<g>
		<path d="M79.5,73.4c-7.9,0-14.4,4-14.4,8.9c0,4.9,6.4,8.9,14.4,8.9c7.9,0,14.4-4,14.4-8.9C93.9,77.3,87.4,73.4,79.5,73.4z
			 M106.5,77.4h-6.8c-1.2,0-2.1,1-2.1,2.1v5.4c0,1.2,1,2.1,2.1,2.1h6.8c1.2,0,2.1-1,2.1-2.1v-5.4C108.6,78.4,107.7,77.4,106.5,77.4z
			 M106.5,84.5c0,0.4-0.3,0.7-0.7,0.7h-1.7c-0.4,0-0.7-0.3-0.7-0.7V80c0-0.4,0.3-0.7,0.7-0.7h1.7c0.4,0,0.7,0.3,0.7,0.7V84.5z
			 M96.4,84.9v-5.4c0-1.8,1.4-3.2,3.2-3.2h0.3c-2.4-7-9.7-8-18.5-8c-8.5,0-15.5,3.7-18.2,9.1c-1.1,0.4-6,2.4-7.8,2.4
			c-1.8,0-6.9-2-7.9-2.4c-2.8-5.2-9.7-8.7-18-8.7c-8.8,0-16.1,1-18.5,8h0.3c1.8,0,3.2,1.4,3.2,3.2v5.4c0,1.8-1.4,3.2-3.2,3.2H11
			c2.4,7,9.7,8,18.5,8c8.8,0,16-4,18.5-9.6c1.6-0.6,5.8-2.2,7.4-2.2c1.8,0,6.7,1.9,7.8,2.4c2.7,5.4,9.7,9.1,18.2,9.1
			c8.8,0,16.1-1,18.5-8h-0.3C97.9,88.2,96.4,86.7,96.4,84.9z M31.4,92.9c-8.8,0-15.8-4.5-15.8-10.3c0-5.8,6.9-10.3,15.8-10.3
			c8.9,0,15.8,4.5,15.8,10.3C47.2,88.4,40.2,92.9,31.4,92.9z M79.5,92.6c-8.9,0-15.8-4.5-15.8-10.3c0-5.8,6.9-10.3,15.8-10.3
			c8.9,0,15.8,4.5,15.8,10.3C95.3,88,88.4,92.6,79.5,92.6z M31.4,73.7c-7.9,0-14.3,4-14.3,8.9c0,4.9,6.4,8.9,14.3,8.9
			c7.9,0,14.4-4,14.4-8.9C45.7,77.7,39.3,73.7,31.4,73.7z M13.4,85.3v-5.4c0-1.2-1-2.1-2.1-2.1H4.4c-1.2,0-2.1,1-2.1,2.1v5.4
			c0,1.2,1,2.1,2.1,2.1h6.8C12.4,87.4,13.4,86.5,13.4,85.3z M7.5,84.8c0,0.4-0.3,0.7-0.7,0.7H5.1c-0.4,0-0.7-0.3-0.7-0.7v-4.5
			c0-0.4,0.3-0.7,0.7-0.7h1.7c0.4,0,0.7,0.3,0.7,0.7V84.8z M108.2,61.5c0.1-1.5,0.2-3,0.2-4.5c0-29.3-15.1-53-53-53
			c-38,0-53,23.7-53,53c0,1.5,0.1,3,0.2,4.5H108.2z"/>
	</g>
</g>
</svg>
