<?xml version="1.0" encoding="utf-8"?>
<!-- Generator: Adobe Illustrator 18.1.0, SVG Export Plug-In . SVG Version: 6.00 Build 0)  -->
<!DOCTYPE svg PUBLIC "-//W3C//DTD SVG 1.1//EN" "http://www.w3.org/Graphics/SVG/1.1/DTD/svg11.dtd">
<svg version="1.1" id="Layer_1" xmlns="http://www.w3.org/2000/svg" xmlns:xlink="http://www.w3.org/1999/xlink" x="0px" y="0px"
	 viewBox="0 0 159.2 204.3" enable-background="new 0 0 159.2 204.3" xml:space="preserve">
<path fill="#231F20" d="M51.1,2.8c3.5-0.1,9.4,3,14.7,8.1c5.3,5.2,8.6,10.9,8.6,14.4c-3.5,0.1-9.4-3-14.7-8.1
	C54.4,12.1,51.1,6.4,51.1,2.8L51.1,2.8z M159.2,108.1c-3.2,3.4-11.5,6-21.3,6.1c-9.8,0.2-18.2-2.1-21.5-5.4c3.2-3.4,11.5-6,21.3-6.1
	C147.5,102.6,155.9,104.8,159.2,108.1L159.2,108.1z M138.8,82c0.1,3.5-3,9.4-8.1,14.7c-5.2,5.3-10.9,8.6-14.4,8.6
	c-0.1-3.5,3-9.4,8.1-14.7C129.6,85.3,135.3,82,138.8,82L138.8,82z M139.7,135c-3.5,0.1-9.4-3-14.7-8.1c-5.3-5.2-8.6-10.9-8.6-14.4
	c3.5-0.1,9.4,3,14.7,8.1C136.4,125.8,139.7,131.5,139.7,135L139.7,135z M48.2,79.1l0.4,0H63l0.4,0c-1.1,8.6-1.7,18.6-1.7,29.3
	c0,10.7,0.6,20.7,1.7,29.3l-0.4,0H48.6l-0.4,0c1.1-8.6,1.7-18.6,1.7-29.3C50,97.8,49.3,87.8,48.2,79.1L48.2,79.1z M48.2,140.7l0.4,0
	H63l0.4,0c-1.1,8.6-1.7,18.6-1.7,29.3c0,10.7,0.6,20.7,1.7,29.3l-0.4,0H48.6l-0.4,0c1.1-8.6,1.7-18.6,1.7-29.3
	C50,159.3,49.3,149.3,48.2,140.7L48.2,140.7z M74.6,61.5l0.4,0h14.4l0.4,0c-1.1,8.6-1.7,18.6-1.7,29.3s0.6,20.7,1.7,29.3l-0.4,0H75
	l-0.4,0c1.1-8.6,1.7-18.6,1.7-29.3S75.7,70.2,74.6,61.5L74.6,61.5z M74.6,123.1l0.4,0h14.4l0.4,0c-1.1,8.6-1.7,18.6-1.7,29.3
	c0,10.7,0.6,20.7,1.7,29.3l-0.4,0H75l-0.4,0c1.1-8.6,1.7-18.6,1.7-29.3C76.4,141.7,75.7,131.7,74.6,123.1L74.6,123.1z M101.1,79.1
	l0.4,0h14.4l0.4,0c-1.1,8.6-1.7,18.6-1.7,29.3c0,10.7,0.6,20.7,1.7,29.3l-0.4,0h-14.4l-0.4,0c1.1-8.6,1.7-18.6,1.7-29.3
	C102.8,97.8,102.2,87.8,101.1,79.1L101.1,79.1z M101.1,140.7l0.4,0h14.4l0.4,0c-1.1,8.6-1.7,18.6-1.7,29.3c0,10.7,0.6,20.7,1.7,29.3
	l-0.4,0h-14.4l-0.4,0c1.1-8.6,1.7-18.6,1.7-29.3C102.8,159.3,102.2,149.3,101.1,140.7L101.1,140.7z M5.2,170.4
	c3.2-3.4,11.5-6,21.3-6.1c9.8-0.2,18.2,2.1,21.5,5.4c-3.2,3.4-11.5,6-21.3,6.1C16.9,175.9,8.5,173.7,5.2,170.4L5.2,170.4z
	 M25.6,196.5c-0.1-3.5,3-9.4,8.1-14.7c5.2-5.3,10.9-8.6,14.4-8.6c0.1,3.5-3,9.4-8.1,14.7C34.9,193.2,29.2,196.5,25.6,196.5
	L25.6,196.5z M24.7,143.5c3.5-0.1,9.4,3,14.7,8.1c5.3,5.2,8.6,10.9,8.6,14.4c-3.5,0.1-9.4-3-14.7-8.1C28,152.7,24.7,147,24.7,143.5
	L24.7,143.5z M74.6,0L75,0h14.4l0.4,0c-1.1,8.6-1.7,18.6-1.7,29.3c0,10.7,0.6,20.7,1.7,29.3l-0.4,0H75l-0.4,0
	c1.1-8.6,1.7-18.6,1.7-29.3C76.4,18.7,75.7,8.6,74.6,0L74.6,0z M31.6,29.7c3.2-3.4,11.5-6,21.3-6.1c9.8-0.2,18.2,2.1,21.5,5.4
	c-3.2,3.4-11.5,6-21.3,6.1C43.4,35.3,34.9,33,31.6,29.7L31.6,29.7z M52,55.9c-0.1-3.5,3-9.4,8.1-14.7c5.2-5.3,10.9-8.6,14.4-8.6
	c0.1,3.5-3,9.4-8.1,14.7C61.3,52.6,55.6,55.9,52,55.9L52,55.9z"/>
</svg>
