<?xml version="1.0" encoding="UTF-8" standalone="no"?>
<svg width="151px" height="141px" viewBox="0 0 151 141" version="1.1" xmlns="http://www.w3.org/2000/svg" xmlns:xlink="http://www.w3.org/1999/xlink" xmlns:sketch="http://www.bohemiancoding.com/sketch/ns">
    <!-- Generator: Sketch 3.1.1 (8761) - http://www.bohemiancoding.com/sketch -->
    <title>nature_cactus</title>
    <desc>Created with Sketch.</desc>
    <defs></defs>
    <g id="Page-1" stroke="none" stroke-width="1" fill="none" fill-rule="evenodd" sketch:type="MSPage">
        <g id="nature_cactus" sketch:type="MSLayerGroup" transform="translate(1.000000, 0.000000)" fill="#231F20">
            <path d="M12.1428571,58.9491525 L3.73015873,58.9491525 C1.66666667,58.9491525 -0.0793650794,57.1966102 -0.0793650794,55.1254237 L-0.0793650794,41.8220339 C-0.0793650794,36.8830508 7.61904762,36.8830508 7.61904762,41.8220339 L7.61904762,51.2220339 L12.2222222,51.2220339 L12.2222222,33.8559322 C12.2222222,28.9169492 19.9206349,28.9169492 19.9206349,33.8559322 L19.9206349,66.7559322 L24.5238095,66.7559322 L24.5238095,57.4355932 C24.5238095,52.4966102 32.2222222,52.4966102 32.2222222,57.4355932 L32.2222222,70.7389831 C32.2222222,72.8101695 30.4761905,74.5627119 28.4126984,74.5627119 L19.8412698,74.5627119 L19.8412698,111.047458 L12.4603175,111.047458 L12.1428571,111.047458 L12.1428571,88.9016949 L3.73015873,88.9016949 C1.66666667,88.9016949 -0.0793650794,87.1491525 -0.0793650794,85.0779661 L-0.0793650794,71.7745763 C-0.0793650794,66.8355932 7.61904762,66.8355932 7.61904762,71.7745763 L7.61904762,81.1745763 L12.2222222,81.1745763 L12.2222222,58.9491525 L12.1428571,58.9491525 L12.1428571,58.9491525 Z M67.6984127,52.9745763 L52.3015873,52.9745763 C48.4920635,52.9745763 45.2380952,49.7881356 45.2380952,45.8847458 L45.2380952,21.5881356 C45.2380952,12.5067797 59.2857143,12.5067797 59.2857143,21.5881356 L59.2857143,38.7949153 L67.6984127,38.7949153 L67.6984127,7.01016949 C67.6984127,-2.07118644 81.7460317,-2.07118644 81.7460317,7.01016949 L81.7460317,67.2338983 L90.1587302,67.2338983 L90.1587302,50.1067797 C90.1587302,41.0254237 104.206349,41.0254237 104.206349,50.1067797 L104.206349,74.4033898 C104.206349,78.2271186 101.031746,81.4932203 97.1428571,81.4932203 L81.7460317,81.4932203 L81.7460317,141 L68.2539683,141 L67.6984127,141 L67.6984127,107.781356 L52.3015873,107.781356 C48.4920635,107.781356 45.2380952,104.594915 45.2380952,100.691525 L45.2380952,76.3949153 C45.2380952,67.3135593 59.2857143,67.3135593 59.2857143,76.3949153 L59.2857143,93.6016949 L67.6984127,93.6016949 L67.6984127,52.9745763 L67.6984127,52.9745763 Z M129.68254,58.9491525 L121.269841,58.9491525 C119.206349,58.9491525 117.460317,57.1966102 117.460317,55.1254237 L117.460317,41.8220339 C117.460317,36.8830508 125.15873,36.8830508 125.15873,41.8220339 L125.15873,51.2220339 L129.761905,51.2220339 L129.761905,33.8559322 C129.761905,28.9169492 137.460317,28.9169492 137.460317,33.8559322 L137.460317,66.7559322 L142.063492,66.7559322 L142.063492,57.4355932 C142.063492,52.4966102 149.761905,52.4966102 149.761905,57.4355932 L149.761905,70.7389831 C149.761905,72.8101695 148.015873,74.5627119 145.952381,74.5627119 L137.539683,74.5627119 L137.539683,111.047458 L130.15873,111.047458 L129.84127,111.047458 L129.84127,88.9016949 L121.428571,88.9016949 C119.365079,88.9016949 117.619048,87.1491525 117.619048,85.0779661 L117.619048,71.7745763 C117.619048,66.8355932 125.31746,66.8355932 125.31746,71.7745763 L125.31746,81.1745763 L129.920635,81.1745763 L129.68254,58.9491525 L129.68254,58.9491525 Z" id="Shape" sketch:type="MSShapeGroup"></path>
        </g>
    </g>
</svg>