<?xml version="1.0" encoding="UTF-8" standalone="no"?>
<svg width="151px" height="139px" viewBox="0 0 151 139" version="1.1" xmlns="http://www.w3.org/2000/svg" xmlns:xlink="http://www.w3.org/1999/xlink" xmlns:sketch="http://www.bohemiancoding.com/sketch/ns">
    <!-- Generator: Sketch 3.1.1 (8761) - http://www.bohemiancoding.com/sketch -->
    <title>nature_tree</title>
    <desc>Created with Sketch.</desc>
    <defs></defs>
    <g id="Page-1" stroke="none" stroke-width="1" fill="none" fill-rule="evenodd" sketch:type="MSPage">
        <g id="nature_tree" sketch:type="MSLayerGroup" fill="#231F20">
            <path d="M149.363208,67.4433673 C150.495283,68.0816327 151.061321,69.2163265 147.877358,70.7765306 C145.04717,72.194898 139.245283,73.2586735 131.745283,71.1311224 L131.745283,85.6693878 L126.29717,85.6693878 L126.29717,71.1311224 C118.938679,73.1877551 112.995283,72.194898 110.306604,70.7765306 C107.122642,69.2872449 107.688679,68.152551 108.820755,67.4433673 C109.882075,66.6632653 115.188679,63.8265306 117.735849,60.5642857 C115.966981,61.1316327 114.127358,61.0607143 112.287736,60.5642857 C110.377358,59.9969388 111.084906,58.7913265 112.004717,58.0821429 C115.613208,55.5290816 119.504717,51.7704082 121.34434,48.0117347 C119.716981,48.5790816 117.877358,48.2954082 116.533019,47.7989796 C115.188679,47.2316327 115.896226,46.1678571 116.603774,45.5295918 C117.382075,44.8913265 121.415094,40.7780612 123.113208,37.5867347 C121.981132,37.9413265 120.353774,37.8704082 119.221698,37.3739796 C118.160377,36.877551 118.65566,35.6010204 119.504717,34.8209184 C123.820755,30.9204082 127.712264,24.8214286 128.066038,19.3607143 C128.066038,18.2260204 128.632075,17.8714286 128.985849,17.8714286 C129.339623,17.8714286 129.90566,18.2260204 130.04717,19.3607143 C130.330189,24.8214286 134.292453,30.9913265 138.608491,34.8209184 C139.457547,35.6010204 139.95283,36.877551 138.820755,37.3739796 C137.759434,37.8704082 136.20283,37.9413265 135.070755,37.5867347 C136.698113,40.7780612 140.801887,44.8204082 141.580189,45.5295918 C142.358491,46.1678571 142.924528,47.2316327 141.580189,47.7989796 C140.377358,48.2954082 138.396226,48.5790816 136.839623,48.0117347 C138.608491,51.7704082 142.570755,55.5290816 146.179245,58.0821429 C147.099057,58.7204082 147.665094,59.9969388 145.896226,60.5642857 C143.985849,61.0607143 142.216981,61.1316327 140.448113,60.5642857 C142.853774,63.897449 148.231132,66.7341837 149.363208,67.4433673 L149.363208,67.4433673 L149.363208,67.4433673 Z M116.745283,101.484184 C119.080189,102.831633 120.212264,105.171939 113.632075,108.221429 C107.830189,111.129082 95.8726415,113.256633 80.6603774,109.001531 L80.6603774,138.787245 L69.4811321,138.787245 L69.4811321,109.001531 C54.4103774,113.256633 42.240566,111.129082 36.6509434,108.221429 C30.0707547,105.10102 31.2735849,102.831633 33.5377358,101.484184 C35.6603774,99.9239796 46.6273585,94.1086735 51.8632075,87.3714286 C48.1839623,88.5061224 44.504717,88.3642857 40.6839623,87.3714286 C36.7924528,86.2367347 38.2075472,83.6836735 40.1179245,82.3362245 C47.4764151,77.0882653 55.5424528,69.3581633 59.2216981,61.6280612 C55.9669811,62.7627551 52.0754717,62.1954082 49.3867925,61.2734694 C46.6981132,60.1387755 48.0424528,58.0112245 49.5990566,56.6637755 C51.1556604,55.3163265 59.4339623,47.0188776 62.9009434,40.4234694 C60.5660377,41.2035714 57.3113208,40.9908163 54.9764151,40.0688776 C52.8537736,39.0760204 53.8443396,36.3811224 55.5424528,34.8209184 C64.3867925,26.8780612 72.3113208,14.3255102 73.0896226,3.12040816 C73.0896226,0.780102041 74.2216981,-6.29881634e-15 75,-6.29881634e-15 C75.7783019,-6.29881634e-15 76.9103774,0.780102041 77.1226415,3.12040816 C77.6886792,14.3255102 85.8254717,26.8780612 94.6698113,34.8209184 C96.4386792,36.3811224 97.3584906,39.0760204 95.0235849,40.0688776 C92.9009434,41.0617347 89.6462264,41.2035714 87.3113208,40.4234694 C90.5660377,47.0188776 99.0566038,55.3163265 100.613208,56.6637755 C102.169811,58.0112245 103.301887,60.1387755 100.613208,61.2734694 C98.1367925,62.2663265 94.0330189,62.8336735 90.990566,61.6280612 C94.6698113,69.3581633 102.735849,77.0882653 110.09434,82.3362245 C112.004717,83.6836735 113.207547,86.2367347 109.528302,87.3714286 C105.636792,88.3642857 102.028302,88.5061224 98.3490566,87.3714286 C103.443396,94.1795918 114.410377,99.9239796 116.745283,101.484184 L116.745283,101.484184 L116.745283,101.484184 Z M41.5330189,67.4433673 C42.6650943,68.0816327 43.2311321,69.2163265 40.0471698,70.7765306 C37.2169811,72.194898 31.4150943,73.2586735 23.9150943,71.1311224 L23.9150943,85.6693878 L18.4669811,85.6693878 L18.4669811,71.1311224 C11.1084906,73.1877551 5.16509434,72.194898 2.47641509,70.7765306 C-0.70754717,69.2872449 -0.141509434,68.152551 0.990566038,67.4433673 C2.05188679,66.6632653 7.35849057,63.8265306 9.90566038,60.5642857 C8.13679245,61.1316327 6.29716981,61.0607143 4.45754717,60.5642857 C2.54716981,59.9969388 3.25471698,58.7913265 4.1745283,58.0821429 C7.71226415,55.6 11.6745283,51.7704082 13.4433962,48.0117347 C11.8160377,48.5790816 9.97641509,48.2954082 8.63207547,47.7989796 C7.28773585,47.2316327 7.99528302,46.1678571 8.70283019,45.5295918 C9.48113208,44.8913265 13.5141509,40.7780612 15.2122642,37.5867347 C14.0801887,37.9413265 12.4528302,37.8704082 11.3207547,37.3739796 C10.259434,36.877551 10.754717,35.6010204 11.6037736,34.8209184 C15.9198113,30.9204082 19.8113208,24.8214286 20.1650943,19.3607143 C20.1650943,18.2260204 20.7311321,17.8714286 21.0849057,17.8714286 C21.4386792,17.8714286 22.004717,18.2260204 22.1462264,19.3607143 C22.4292453,24.8214286 26.3915094,30.9913265 30.7075472,34.8209184 C31.5566038,35.6010204 32.0518868,36.877551 30.9198113,37.3739796 C29.8584906,37.8704082 28.3018868,37.9413265 27.1698113,37.5867347 C28.7971698,40.7780612 32.9009434,44.8204082 33.6792453,45.5295918 C34.4575472,46.1678571 35.0235849,47.2316327 33.6792453,47.7989796 C32.4764151,48.2954082 30.495283,48.5790816 28.9386792,48.0117347 C30.7783019,51.7704082 34.740566,55.6 38.3490566,58.1530612 C39.2688679,58.7913265 39.8349057,60.0678571 38.0660377,60.6352041 C36.1556604,61.1316327 34.3867925,61.202551 32.6179245,60.6352041 C35.0235849,63.897449 40.4009434,66.7341837 41.5330189,67.4433673 L41.5330189,67.4433673 L41.5330189,67.4433673 Z" id="Shape" sketch:type="MSShapeGroup"></path>
        </g>
    </g>
</svg>