<?xml version="1.0" encoding="utf-8"?>
<!-- Generator: Adobe Illustrator 18.1.0, SVG Export Plug-In . SVG Version: 6.00 Build 0)  -->
<!DOCTYPE svg PUBLIC "-//W3C//DTD SVG 1.1//EN" "http://www.w3.org/Graphics/SVG/1.1/DTD/svg11.dtd">
<svg version="1.1" id="Layer_1" xmlns="http://www.w3.org/2000/svg" xmlns:xlink="http://www.w3.org/1999/xlink" x="0px" y="0px"
	 width="110px" height="98.5px" viewBox="0 0 110 98.5" enable-background="new 0 0 110 98.5" xml:space="preserve">
<path fill="#231F20" d="M107.8,47.9c0.8,0.5,1.2,1.3-1.1,2.3c-2,1-6.2,1.7-11.4,0.3v10.3h-3.9V50.5c-5.2,1.5-9.4,0.7-11.4-0.3
	c-2.3-1.1-1.9-1.9-1.1-2.3c0.7-0.5,4.6-2.5,6.4-4.9c-1.3,0.4-2.5,0.3-3.9,0c-1.3-0.4-0.9-1.3-0.2-1.7c2.5-1.8,5.4-4.5,6.6-7.2
	c-1.1,0.4-2.5,0.2-3.4-0.1c-0.9-0.4-0.5-1.1,0.1-1.6c0.5-0.5,3.4-3.3,4.6-5.6c-0.8,0.3-1.9,0.2-2.7-0.1c-0.7-0.3-0.4-1.3,0.2-1.8
	c3.1-2.7,5.8-7.1,6.1-11c0-0.8,0.4-1.1,0.7-1.1c0.3,0,0.7,0.3,0.7,1.1c0.2,3.9,3,8.2,6.1,11c0.6,0.5,0.9,1.5,0.1,1.8
	c-0.7,0.3-1.9,0.4-2.7,0.1c1.1,2.3,4.1,5.2,4.6,5.6c0.5,0.5,0.9,1.2,0,1.6c-0.9,0.3-2.3,0.5-3.3,0.1c1.3,2.7,4.1,5.4,6.6,7.2
	c0.7,0.5,1.1,1.3-0.2,1.7c-1.3,0.3-2.6,0.4-3.9,0C103.2,45.3,107,47.4,107.8,47.9L107.8,47.9z M84.6,72c1.6,1,2.5,2.6-2.2,4.8
	c-4.1,2.1-12.6,3.6-23.5,0.5v21.1h-8V77.4c-10.7,3-19.3,1.5-23.3-0.5C23,74.6,23.8,73,25.4,72c1.5-1.1,9.3-5.2,13-10
	c-2.6,0.8-5.2,0.7-8,0c-2.7-0.8-1.8-2.6-0.4-3.6c5.2-3.7,11-9.2,13.6-14.7c-2.3,0.8-5.1,0.4-7-0.3c-1.9-0.8-1-2.3,0.1-3.3
	c1.1-1,7-6.9,9.5-11.5c-1.6,0.5-4,0.4-5.6-0.3c-1.5-0.7-0.8-2.6,0.4-3.7C47.4,19.1,53,10.2,53.6,2.2c0-1.6,0.8-2.2,1.4-2.2
	c0.5,0,1.4,0.5,1.5,2.2c0.4,8,6.2,16.9,12.5,22.5c1.2,1.1,1.9,3,0.3,3.7c-1.5,0.7-3.8,0.8-5.5,0.3c2.3,4.7,8.4,10.6,9.5,11.5
	c1.1,1,1.9,2.5,0,3.3c-1.8,0.7-4.7,1.1-6.9,0.3c2.6,5.5,8.4,11,13.6,14.7c1.4,1,2.2,2.7-0.4,3.6c-2.7,0.7-5.3,0.8-8,0
	C75.1,66.8,82.9,70.9,84.6,72L84.6,72z M31.1,47.9c0.8,0.5,1.2,1.3-1.1,2.3c-2,1-6.2,1.7-11.4,0.3v10.3h-3.9V50.5
	C9.5,52,5.2,51.2,3.3,50.2c-2.3-1.1-1.9-1.9-1.1-2.3C3,47.4,6.8,45.3,8.6,43c-1.3,0.4-2.5,0.3-3.9,0c-1.3-0.4-0.9-1.3-0.2-1.7
	c2.5-1.8,5.4-4.5,6.6-7.2C10,34.5,8.7,34.3,7.7,34c-0.9-0.4-0.5-1.1,0.1-1.6c0.5-0.5,3.4-3.3,4.6-5.6c-0.8,0.3-1.9,0.2-2.7-0.1
	c-0.7-0.3-0.4-1.3,0.2-1.8c3.1-2.7,5.8-7.1,6.1-11c0-0.8,0.4-1.1,0.7-1.1c0.3,0,0.7,0.3,0.7,1.1c0.2,3.9,3,8.2,6.1,11
	c0.6,0.5,0.9,1.5,0.1,1.8c-0.7,0.3-1.9,0.4-2.7,0.1c1.1,2.3,4.1,5.2,4.6,5.6c0.5,0.5,0.9,1.2,0,1.6c-0.9,0.3-2.3,0.5-3.3,0.1
	c1.3,2.7,4.1,5.4,6.6,7.2c0.7,0.5,1.1,1.3-0.2,1.7c-1.3,0.3-2.6,0.4-3.9,0C26.5,45.3,30.3,47.4,31.1,47.9L31.1,47.9z"/>
</svg>
