<?xml version="1.0" encoding="utf-8"?>
<!-- Generator: Adobe Illustrator 18.1.0, SVG Export Plug-In . SVG Version: 6.00 Build 0)  -->
<!DOCTYPE svg PUBLIC "-//W3C//DTD SVG 1.1//EN" "http://www.w3.org/Graphics/SVG/1.1/DTD/svg11.dtd">
<svg version="1.1" id="Layer_1" xmlns="http://www.w3.org/2000/svg" xmlns:xlink="http://www.w3.org/1999/xlink" x="0px" y="0px"
	 width="110px" height="103.9px" viewBox="0 0 110 103.9" enable-background="new 0 0 110 103.9" xml:space="preserve">
<path fill="#231F20" d="M103.2,68.6c0.9,2.6,0.3,5.7-1.8,7.8c-2.1,2.1-5.2,2.7-7.8,1.8c-0.9-2.6-0.3-5.7,1.8-7.8
	C97.5,68.2,100.6,67.6,103.2,68.6L103.2,68.6z M27.8,29.1c1.7,1.5,2.1,3.8,1.3,5.8c0.5-0.2,1.1-0.3,1.7-0.4c2.9-0.1,5.3,2.1,5.5,5
	c0.1,2.2-1.2,4.2-3.1,5c0.5,0.2,1,0.5,1.5,0.9c2.1,1.9,2.3,5.2,0.3,7.4c-1.5,1.7-3.8,2.1-5.8,1.3c0.2,0.5,0.3,1.1,0.4,1.7
	c0.1,2.9-2.1,5.3-5,5.5c-2.2,0.1-4.2-1.2-5-3.1c-0.2,0.5-0.5,1-0.9,1.5c-1.9,2.1-5.2,2.3-7.4,0.3c-1.7-1.5-2.1-3.8-1.3-5.8
	c-0.5,0.2-1.1,0.3-1.7,0.4c-2.9,0.1-5.3-2.1-5.5-5c-0.1-2.2,1.2-4.2,3.1-5c-0.5-0.2-1-0.5-1.5-0.9c-2.1-1.9-2.3-5.2-0.3-7.4
	c1.5-1.7,3.8-2.1,5.8-1.3c-0.2-0.5-0.3-1.1-0.4-1.7c-0.1-2.9,2.1-5.3,5-5.5c2.2-0.1,4.2,1.2,5,3.1c0.2-0.5,0.5-1,0.9-1.5
	C22.3,27.3,25.6,27.1,27.8,29.1L27.8,29.1z M11.2,44.5c0,4.6,3.7,8.2,8.2,8.2c4.6,0,8.2-3.7,8.2-8.2s-3.7-8.2-8.2-8.2
	C14.9,36.2,11.2,39.9,11.2,44.5L11.2,44.5z M13.6,44.5c0-3.3,2.6-5.9,5.9-5.9c3.3,0,5.9,2.6,5.9,5.9c0,3.3-2.6,5.9-5.9,5.9
	C16.2,50.4,13.6,47.7,13.6,44.5L13.6,44.5z M56.1,41.3v62.6h-2.2V41.4c0.4-0.2,0.8-0.5,1.1-0.8C55.4,40.8,55.7,41.1,56.1,41.3
	L56.1,41.3z M20.6,62.1v41.8h-2.2V62.1c0.4-0.2,0.8-0.5,1.1-0.8C19.9,61.6,20.2,61.9,20.6,62.1L20.6,62.1z M35.1,5
	c0-2,1.6-3.6,3.6-3.6c2,0,3.6,1.6,3.6,3.6c0,2-1.6,3.6-3.6,3.6C36.8,8.7,35.1,7,35.1,5L35.1,5z M93.8,21.6c0-2,1.6-3.6,3.6-3.6
	c2,0,3.6,1.6,3.6,3.6s-1.6,3.6-3.6,3.6C95.4,25.2,93.8,23.6,93.8,21.6L93.8,21.6z M8.9,21.6c0-2,1.6-3.6,3.6-3.6
	c2,0,3.6,1.6,3.6,3.6s-1.6,3.6-3.6,3.6C10.6,25.2,8.9,23.6,8.9,21.6L8.9,21.6z M23,16.3c0,2.1,1.7,3.8,3.8,3.8
	c2.1,0,3.8-1.7,3.8-3.8c0-2.1-1.7-3.8-3.8-3.8C24.7,12.5,23,14.2,23,16.3L23,16.3z M30.6,9.2c0.8,0.7,1,1.8,0.6,2.7
	c0.2-0.1,0.5-0.2,0.8-0.2c1.3-0.1,2.5,1,2.5,2.3c0,1-0.6,1.9-1.5,2.3c0.2,0.1,0.5,0.2,0.7,0.4c1,0.9,1.1,2.4,0.2,3.4
	c-0.7,0.8-1.8,1-2.7,0.6c0.1,0.2,0.2,0.5,0.2,0.8c0.1,1.3-1,2.5-2.3,2.5c-1,0-1.9-0.6-2.3-1.5c-0.1,0.2-0.2,0.5-0.4,0.7
	c-0.9,1-2.4,1.1-3.4,0.2c-0.8-0.7-1-1.8-0.6-2.7c-0.2,0.1-0.5,0.2-0.8,0.2c-1.3,0.1-2.5-1-2.5-2.3c0-1,0.6-1.9,1.5-2.3
	c-0.2-0.1-0.5-0.2-0.7-0.4c-1-0.9-1.1-2.4-0.2-3.4c0.7-0.8,1.8-1,2.7-0.6c-0.1-0.2-0.2-0.5-0.2-0.8c-0.1-1.3,1-2.5,2.3-2.5
	c1,0,1.9,0.6,2.3,1.5c0.1-0.2,0.2-0.5,0.4-0.7C28.1,8.3,29.6,8.3,30.6,9.2L30.6,9.2z M24.1,16.3c0-1.5,1.2-2.7,2.7-2.7
	c1.5,0,2.7,1.2,2.7,2.7c0,1.5-1.2,2.7-2.7,2.7C25.3,19,24.1,17.8,24.1,16.3L24.1,16.3z M79.4,16.3c0,2.1,1.7,3.8,3.8,3.8
	c2.1,0,3.8-1.7,3.8-3.8c0-2.1-1.7-3.8-3.8-3.8C81.1,12.5,79.4,14.2,79.4,16.3L79.4,16.3z M87,9.2c0.8,0.7,1,1.8,0.6,2.7
	c0.2-0.1,0.5-0.2,0.8-0.2c1.3-0.1,2.5,1,2.5,2.3c0,1-0.6,1.9-1.5,2.3c0.2,0.1,0.5,0.2,0.7,0.4c1,0.9,1.1,2.4,0.2,3.4
	c-0.7,0.8-1.8,1-2.7,0.6c0.1,0.2,0.2,0.5,0.2,0.8c0.1,1.3-1,2.5-2.3,2.5c-1,0-1.9-0.6-2.3-1.5c-0.1,0.2-0.2,0.5-0.4,0.7
	c-0.9,1-2.4,1.1-3.4,0.2c-0.8-0.7-1-1.8-0.6-2.7c-0.2,0.1-0.5,0.2-0.8,0.2c-1.3,0.1-2.5-1-2.5-2.3c0-1,0.6-1.9,1.5-2.3
	c-0.2-0.1-0.5-0.2-0.7-0.4c-1-0.9-1.1-2.4-0.2-3.4c0.7-0.8,1.8-1,2.7-0.6c-0.1-0.2-0.2-0.5-0.2-0.8c-0.1-1.3,1-2.5,2.3-2.5
	c1,0,1.9,0.6,2.3,1.5c0.1-0.2,0.2-0.5,0.4-0.7C84.5,8.3,86.1,8.3,87,9.2L87,9.2z M80.5,16.3c0-1.5,1.2-2.7,2.7-2.7
	c1.5,0,2.7,1.2,2.7,2.7c0,1.5-1.2,2.7-2.7,2.7C81.7,19,80.5,17.8,80.5,16.3L80.5,16.3z M82.3,44.5c0,4.6,3.7,8.2,8.2,8.2
	c4.6,0,8.2-3.7,8.2-8.2s-3.7-8.2-8.2-8.2C86,36.2,82.3,39.9,82.3,44.5L82.3,44.5z M98.8,29.1c1.7,1.5,2.1,3.8,1.3,5.8
	c0.5-0.2,1.1-0.3,1.7-0.4c2.9-0.1,5.3,2.1,5.5,5c0.1,2.2-1.2,4.2-3.1,5c0.5,0.2,1,0.5,1.5,0.9c2.1,1.9,2.3,5.2,0.3,7.4
	c-1.5,1.7-3.8,2.1-5.8,1.3c0.2,0.5,0.3,1.1,0.4,1.7c0.1,2.9-2.1,5.3-5,5.5c-2.2,0.1-4.2-1.2-5-3.1c-0.2,0.5-0.5,1-0.9,1.5
	c-1.9,2.1-5.2,2.3-7.4,0.3c-1.7-1.5-2.1-3.8-1.3-5.8c-0.5,0.2-1.1,0.3-1.7,0.4c-2.9,0.1-5.3-2.1-5.5-5c-0.1-2.2,1.2-4.2,3.1-5
	c-0.5-0.2-1-0.5-1.5-0.9c-2.1-1.9-2.3-5.2-0.3-7.4c1.5-1.7,3.8-2.1,5.8-1.3c-0.2-0.5-0.3-1.1-0.4-1.7c-0.1-2.9,2.1-5.3,5-5.5
	c2.2-0.1,4.2,1.2,5,3.1c0.2-0.5,0.5-1,0.9-1.5C93.4,27.3,96.7,27.1,98.8,29.1L98.8,29.1z M84.6,44.5c0-3.3,2.6-5.9,5.9-5.9
	c3.3,0,5.9,2.6,5.9,5.9c0,3.3-2.6,5.9-5.9,5.9C87.2,50.4,84.6,47.7,84.6,44.5L84.6,44.5z M46.8,23.7c0,4.6,3.7,8.2,8.2,8.2
	c4.6,0,8.2-3.7,8.2-8.2s-3.7-8.2-8.2-8.2C50.4,15.5,46.8,19.2,46.8,23.7L46.8,23.7z M63.3,8.3c1.7,1.5,2.1,3.8,1.3,5.8
	c0.5-0.2,1.1-0.3,1.7-0.4c2.9-0.1,5.3,2.1,5.5,5c0.1,2.2-1.2,4.2-3.1,5c0.5,0.2,1,0.5,1.5,0.9c2.1,1.9,2.3,5.2,0.3,7.4
	c-1.5,1.7-3.8,2.1-5.8,1.3c0.2,0.5,0.3,1.1,0.4,1.7c0.1,2.9-2.1,5.3-5,5.5c-2.2,0.1-4.2-1.2-5-3.1c-0.2,0.5-0.5,1-0.9,1.5
	c-1.9,2.1-5.2,2.3-7.4,0.3c-1.7-1.5-2.1-3.8-1.3-5.8c-0.5,0.2-1.1,0.3-1.7,0.4c-2.9,0.1-5.3-2.1-5.5-5c-0.1-2.2,1.2-4.2,3.1-5
	c-0.5-0.2-1-0.5-1.5-0.9c-2.1-1.9-2.3-5.2-0.3-7.4c1.5-1.7,3.8-2.1,5.8-1.3C45.2,13.6,45,13,45,12.4c-0.1-2.9,2.1-5.3,5-5.5
	c2.2-0.1,4.2,1.2,5,3.1c0.2-0.5,0.5-1,0.9-1.5C57.9,6.5,61.1,6.4,63.3,8.3L63.3,8.3z M49.1,23.7c0-3.3,2.6-5.9,5.9-5.9
	c3.3,0,5.9,2.6,5.9,5.9c0,3.3-2.6,5.9-5.9,5.9C51.7,29.6,49.1,27,49.1,23.7L49.1,23.7z M67.6,5c0-2,1.6-3.6,3.6-3.6
	c2,0,3.6,1.6,3.6,3.6c0,2-1.6,3.6-3.6,3.6C69.2,8.7,67.6,7,67.6,5L67.6,5z M91.6,62.1v41.8h-2.2V62.1c0.4-0.2,0.8-0.5,1.1-0.8
	C90.9,61.6,91.2,61.9,91.6,62.1L91.6,62.1z M67.7,47.8c0.9,2.6,0.3,5.7-1.8,7.8c-2.1,2.1-5.2,2.7-7.8,1.8c-0.9-2.6-0.3-5.7,1.8-7.8
	C62,47.5,65,46.9,67.7,47.8L67.7,47.8z M42.3,47.8c2.6-0.9,5.7-0.3,7.8,1.8c2.1,2.1,2.7,5.2,1.8,7.8c-2.6,0.9-5.7,0.3-7.8-1.8
	C42,53.5,41.4,50.4,42.3,47.8L42.3,47.8z M6.8,68.6c2.6-0.9,5.7-0.3,7.8,1.8c2.1,2.1,2.7,5.2,1.8,7.8c-2.6,0.9-5.7,0.3-7.8-1.8
	C6.5,74.3,5.9,71.2,6.8,68.6L6.8,68.6z M32.2,68.6c0.9,2.6,0.3,5.7-1.8,7.8c-2.1,2.1-5.2,2.7-7.8,1.8c-0.9-2.6-0.3-5.7,1.8-7.8
	C26.5,68.2,29.5,67.6,32.2,68.6L32.2,68.6z M77.8,68.6c2.6-0.9,5.7-0.3,7.8,1.8c2.1,2.1,2.7,5.2,1.8,7.8c-2.6,0.9-5.7,0.3-7.8-1.8
	C77.5,74.3,76.9,71.2,77.8,68.6L77.8,68.6z"/>
</svg>
