<?xml version="1.0" encoding="utf-8"?>
<!-- Generator: Adobe Illustrator 18.1.0, SVG Export Plug-In . SVG Version: 6.00 Build 0)  -->
<!DOCTYPE svg PUBLIC "-//W3C//DTD SVG 1.1//EN" "http://www.w3.org/Graphics/SVG/1.1/DTD/svg11.dtd">
<svg version="1.1" id="Layer_1" xmlns="http://www.w3.org/2000/svg" xmlns:xlink="http://www.w3.org/1999/xlink" x="0px" y="0px"
	 width="110px" height="142.5px" viewBox="0 0 110 142.5" enable-background="new 0 0 110 142.5" xml:space="preserve">
<path fill="#231F20" d="M33,5.8c2.5-0.1,6.5,2.1,10.2,5.7c3.7,3.6,6,7.5,6,10c-2.5,0.1-6.5-2.1-10.2-5.7C35.3,12.3,33,8.3,33,5.8
	L33,5.8z M108.2,79.1c-2.2,2.4-8,4.2-14.8,4.3c-6.8,0.1-12.7-1.4-15-3.7c2.2-2.4,8-4.2,14.8-4.3C100,75.2,105.9,76.8,108.2,79.1
	L108.2,79.1z M94,60.9c0.1,2.5-2.1,6.5-5.7,10.2c-3.6,3.7-7.5,6-10,6c-0.1-2.5,2.1-6.5,5.7-10.2C87.5,63.2,91.5,60.9,94,60.9
	L94,60.9z M94.6,97.7c-2.5,0.1-6.5-2.1-10.2-5.7c-3.7-3.6-6-7.5-6-10c2.5-0.1,6.5,2.1,10.2,5.7C92.3,91.3,94.6,95.3,94.6,97.7
	L94.6,97.7z M31,58.9l0.3,0h10l0.3,0c-0.8,6-1.2,13-1.2,20.4c0,7.4,0.4,14.4,1.2,20.4l-0.3,0h-10l-0.3,0c0.8-6,1.2-13,1.2-20.4
	C32.2,71.9,31.8,64.9,31,58.9L31,58.9z M31,101.7l0.3,0h10l0.3,0c-0.8,6-1.2,13-1.2,20.4c0,7.4,0.4,14.4,1.2,20.4l-0.3,0h-10l-0.3,0
	c0.8-6,1.2-13,1.2-20.4C32.2,114.6,31.8,107.7,31,101.7L31,101.7z M49.3,46.7l0.3,0h10l0.3,0c-0.8,6-1.2,13-1.2,20.4
	s0.4,14.4,1.2,20.4l-0.3,0h-10l-0.3,0c0.8-6,1.2-13,1.2-20.4S50.1,52.7,49.3,46.7L49.3,46.7z M49.3,89.4l0.3,0h10l0.3,0
	c-0.8,6-1.2,13-1.2,20.4c0,7.4,0.4,14.4,1.2,20.4l-0.3,0h-10l-0.3,0c0.8-6,1.2-13,1.2-20.4C50.6,102.4,50.1,95.4,49.3,89.4
	L49.3,89.4z M67.7,58.9l0.3,0h10l0.3,0c-0.8,6-1.2,13-1.2,20.4c0,7.4,0.4,14.4,1.2,20.4l-0.3,0H68l-0.3,0c0.8-6,1.2-13,1.2-20.4
	C68.9,71.9,68.5,64.9,67.7,58.9L67.7,58.9z M67.7,101.7l0.3,0h10l0.3,0c-0.8,6-1.2,13-1.2,20.4c0,7.4,0.4,14.4,1.2,20.4l-0.3,0H68
	l-0.3,0c0.8-6,1.2-13,1.2-20.4C68.9,114.6,68.5,107.7,67.7,101.7L67.7,101.7z M1.1,122.3c2.2-2.4,8-4.2,14.8-4.3
	c6.8-0.1,12.7,1.4,15,3.7c-2.2,2.4-8,4.2-14.8,4.3C9.2,126.2,3.4,124.6,1.1,122.3L1.1,122.3z M15.3,140.5c-0.1-2.5,2.1-6.5,5.7-10.2
	c3.6-3.7,7.5-6,10-6c0.1,2.5-2.1,6.5-5.7,10.2C21.7,138.2,17.7,140.5,15.3,140.5L15.3,140.5z M14.6,103.6c2.5-0.1,6.5,2.1,10.2,5.7
	c3.7,3.6,6,7.5,6,10c-2.5,0.1-6.5-2.1-10.2-5.7C16.9,110.1,14.6,106.1,14.6,103.6L14.6,103.6z M49.3,3.9l0.3,0h10l0.3,0
	c-0.8,6-1.2,13-1.2,20.4c0,7.4,0.4,14.4,1.2,20.4l-0.3,0h-10l-0.3,0c0.8-6,1.2-13,1.2-20.4C50.6,16.8,50.1,9.9,49.3,3.9L49.3,3.9z
	 M19.4,24.5c2.2-2.4,8-4.2,14.8-4.3c6.8-0.1,12.7,1.4,15,3.8c-2.2,2.4-8,4.2-14.8,4.3C27.6,28.4,21.7,26.8,19.4,24.5L19.4,24.5z
	 M33.6,42.7c-0.1-2.5,2.1-6.5,5.7-10.2c3.6-3.7,7.5-6,10-6c0.1,2.5-2.1,6.5-5.7,10.2C40.1,40.4,36.1,42.7,33.6,42.7L33.6,42.7z"/>
</svg>
