<?xml version="1.0" encoding="UTF-8" standalone="no"?>
<svg width="150px" height="148px" viewBox="0 0 150 148" version="1.1" xmlns="http://www.w3.org/2000/svg" xmlns:xlink="http://www.w3.org/1999/xlink" xmlns:sketch="http://www.bohemiancoding.com/sketch/ns">
    <!-- Generator: Sketch 3.1.1 (8761) - http://www.bohemiancoding.com/sketch -->
    <title>nature_flower</title>
    <desc>Created with Sketch.</desc>
    <defs></defs>
    <g id="Page-1" stroke="none" stroke-width="1" fill="none" fill-rule="evenodd" sketch:type="MSPage">
        <g id="nature_flower" sketch:type="MSLayerGroup" fill="#231F20">
            <path d="M144,96.5120419 C145.307692,100.283246 144.461538,104.670157 141.461538,107.671728 C138.461538,110.673298 134.076923,111.519895 130.307692,110.211518 C129,106.440314 129.846154,102.053403 132.846154,99.0518325 C135.846154,96.0502618 140.230769,95.2036649 144,96.5120419 L144,96.5120419 L144,96.5120419 Z M36,39.9439791 C38.3846154,42.0989529 39,45.408377 37.9230769,48.1790576 C38.6923077,47.8712042 39.4615385,47.7172775 40.3076923,47.6403141 C44.4615385,47.4094241 47.9230769,50.6418848 48.0769231,54.7209424 C48.2307692,57.8764398 46.3076923,60.7240838 43.5384615,61.878534 C44.3076923,62.1863874 45,62.6481675 45.6153846,63.186911 C48.6923077,65.9575916 48.8461538,70.652356 46.0769231,73.7308901 C43.9230769,76.1167539 40.6153846,76.7324607 37.8461538,75.6549738 C38.1538462,76.4246073 38.3076923,77.1942408 38.3846154,78.0408377 C38.6153846,82.1968586 35.3846154,85.6602094 31.3076923,85.8141361 C28.1538462,85.9680628 25.3076923,84.0439791 24.1538462,81.2732984 C23.8461538,82.0429319 23.3846154,82.7356021 22.8461538,83.3513089 C20.0769231,86.4298429 15.3846154,86.5837696 12.3076923,83.813089 C9.92307692,81.6581152 9.30769231,78.3486911 10.3846154,75.5780105 C9.61538462,75.8858639 8.84615385,76.0397906 8,76.1167539 C3.84615385,76.347644 0.384615385,73.1151832 0.230769231,69.0361257 C0.0769230769,65.8806283 2,63.0329843 4.76923077,61.878534 C4,61.5706806 3.30769231,61.1089005 2.69230769,60.5701571 C-0.384615385,57.7994764 -0.538461538,53.104712 2.23076923,50.026178 C4.38461538,47.6403141 7.69230769,47.0246073 10.4615385,48.1020942 C10.1538462,47.3324607 10,46.5628272 9.92307692,45.7162304 C9.69230769,41.5602094 12.9230769,38.0968586 17,37.9429319 C20.1538462,37.7890052 23,39.713089 24.1538462,42.4837696 C24.4615385,41.7141361 24.9230769,41.021466 25.4615385,40.4057592 C28.2307692,37.4041885 33,37.1732984 36,39.9439791 L36,39.9439791 L36,39.9439791 Z M12.3846154,62.0324607 C12.3846154,68.5743455 17.6923077,73.8078534 24.1538462,73.8078534 C30.6923077,73.8078534 35.9230769,68.4973822 35.9230769,62.0324607 C35.9230769,55.5675393 30.6153846,50.2570681 24.1538462,50.2570681 C17.6153846,50.1801047 12.3846154,55.4905759 12.3846154,62.0324607 L12.3846154,62.0324607 L12.3846154,62.0324607 Z M15.6923077,62.0324607 C15.6923077,57.3376963 19.4615385,53.5664921 24.1538462,53.5664921 C28.8461538,53.5664921 32.6153846,57.3376963 32.6153846,62.0324607 C32.6153846,66.7272251 28.8461538,70.4984293 24.1538462,70.4984293 C19.4615385,70.4984293 15.6923077,66.6502618 15.6923077,62.0324607 L15.6923077,62.0324607 L15.6923077,62.0324607 Z M76.5384615,57.5685864 L76.5384615,147.23089 L73.3846154,147.23089 L73.3846154,57.5685864 C73.9230769,57.260733 74.4615385,56.7989529 75,56.3371728 C75.5384615,56.7989529 76,57.1837696 76.5384615,57.5685864 L76.5384615,57.5685864 L76.5384615,57.5685864 Z M25.7692308,87.2764398 L25.7692308,147.153927 L22.6153846,147.153927 L22.6153846,87.2764398 C23.1538462,86.9685864 23.6923077,86.5068063 24.2307692,86.0450262 C24.6923077,86.5837696 25.2307692,86.9685864 25.7692308,87.2764398 L25.7692308,87.2764398 L25.7692308,87.2764398 Z M46.5384615,5.54136126 C46.5384615,2.69371728 48.8461538,0.307853403 51.7692308,0.307853403 C54.6153846,0.307853403 57,2.61675393 57,5.54136126 C57,8.38900524 54.6923077,10.7748691 51.7692308,10.7748691 C48.9230769,10.6979058 46.5384615,8.38900524 46.5384615,5.54136126 L46.5384615,5.54136126 L46.5384615,5.54136126 Z M130.461538,29.2460733 C130.461538,26.3984293 132.769231,24.0125654 135.692308,24.0125654 C138.538462,24.0125654 140.923077,26.321466 140.923077,29.2460733 C140.923077,32.1706806 138.615385,34.4795812 135.692308,34.4795812 C132.846154,34.4795812 130.461538,32.0937173 130.461538,29.2460733 L130.461538,29.2460733 L130.461538,29.2460733 Z M9.07692308,29.2460733 C9.07692308,26.3984293 11.3846154,24.0125654 14.3076923,24.0125654 C17.1538462,24.0125654 19.5384615,26.321466 19.5384615,29.2460733 C19.5384615,32.1706806 17.2307692,34.4795812 14.3076923,34.4795812 C11.3846154,34.4795812 9.07692308,32.0937173 9.07692308,29.2460733 L9.07692308,29.2460733 L9.07692308,29.2460733 Z M29.1538462,21.6267016 C29.1538462,24.6282723 31.6153846,27.0910995 34.6153846,27.0910995 C37.6153846,27.0910995 40.0769231,24.6282723 40.0769231,21.6267016 C40.0769231,18.6251309 37.6153846,16.1623037 34.6153846,16.1623037 C31.6153846,16.1623037 29.1538462,18.6251309 29.1538462,21.6267016 L29.1538462,21.6267016 L29.1538462,21.6267016 Z M40.0769231,11.4675393 C41.1538462,12.4680628 41.4615385,14.0073298 40.9230769,15.3157068 C41.3076923,15.1617801 41.6153846,15.0848168 42.0769231,15.0848168 C44,15.0078534 45.6153846,16.4701571 45.6923077,18.3942408 C45.7692308,19.8565445 44.9230769,21.1649215 43.6153846,21.7036649 C44,21.8575916 44.3076923,22.0115183 44.6153846,22.3193717 C46,23.6277487 46.1538462,25.7827225 44.8461538,27.1680628 C43.8461538,28.2455497 42.3076923,28.5534031 41,28.0146597 C41.1538462,28.3994764 41.2307692,28.7073298 41.2307692,29.1691099 C41.3076923,31.0931937 39.8461538,32.7094241 37.9230769,32.7863874 C36.4615385,32.8633508 35.1538462,32.0167539 34.6153846,30.708377 C34.4615385,31.0931937 34.3076923,31.4010471 34,31.7089005 C32.6923077,33.0942408 30.5384615,33.2481675 29.1538462,31.9397906 C28.0769231,30.939267 27.7692308,29.4 28.3076923,28.091623 C27.9230769,28.2455497 27.6153846,28.3225131 27.1538462,28.3225131 C25.2307692,28.3994764 23.6153846,26.9371728 23.5384615,25.013089 C23.4615385,23.5507853 24.3076923,22.2424084 25.6153846,21.7036649 C25.2307692,21.5497382 24.9230769,21.3958115 24.6153846,21.0879581 C23.2307692,19.7795812 23.0769231,17.6246073 24.3846154,16.239267 C25.3846154,15.1617801 26.9230769,14.8539267 28.2307692,15.3926702 C28.0769231,15.0078534 28,14.7 28,14.2382199 C27.9230769,12.3141361 29.3846154,10.6979058 31.3076923,10.6209424 C32.7692308,10.5439791 34.0769231,11.3905759 34.6153846,12.6989529 C34.7692308,12.3141361 34.9230769,12.0062827 35.2307692,11.6984293 C36.5384615,10.2361257 38.6923077,10.1591623 40.0769231,11.4675393 L40.0769231,11.4675393 L40.0769231,11.4675393 Z M30.6923077,21.6267016 C30.6923077,19.4717277 32.4615385,17.7015707 34.6153846,17.7015707 C36.7692308,17.7015707 38.5384615,19.4717277 38.5384615,21.6267016 C38.5384615,23.7816754 36.7692308,25.5518325 34.6153846,25.5518325 C32.4615385,25.5518325 30.6923077,23.7816754 30.6923077,21.6267016 L30.6923077,21.6267016 L30.6923077,21.6267016 Z M109.923077,21.6267016 C109.923077,24.6282723 112.384615,27.0910995 115.384615,27.0910995 C118.384615,27.0910995 120.846154,24.6282723 120.846154,21.6267016 C120.846154,18.6251309 118.384615,16.1623037 115.384615,16.1623037 C112.384615,16.1623037 109.923077,18.6251309 109.923077,21.6267016 L109.923077,21.6267016 L109.923077,21.6267016 Z M120.846154,11.4675393 C121.923077,12.4680628 122.230769,14.0073298 121.692308,15.3157068 C122.076923,15.1617801 122.384615,15.0848168 122.846154,15.0848168 C124.769231,15.0078534 126.384615,16.4701571 126.461538,18.3942408 C126.538462,19.8565445 125.692308,21.1649215 124.384615,21.7036649 C124.769231,21.8575916 125.076923,22.0115183 125.384615,22.3193717 C126.769231,23.6277487 126.923077,25.7827225 125.615385,27.1680628 C124.615385,28.2455497 123.076923,28.5534031 121.769231,28.0146597 C121.923077,28.3994764 122,28.7073298 122,29.1691099 C122.076923,31.0931937 120.615385,32.7094241 118.692308,32.7863874 C117.230769,32.8633508 115.923077,32.0167539 115.384615,30.708377 C115.230769,31.0931937 115.076923,31.4010471 114.769231,31.7089005 C113.461538,33.0942408 111.307692,33.2481675 109.923077,31.9397906 C108.846154,30.939267 108.538462,29.4 109.076923,28.091623 C108.692308,28.2455497 108.384615,28.3225131 107.923077,28.3225131 C106,28.3994764 104.384615,26.9371728 104.307692,25.013089 C104.230769,23.5507853 105.076923,22.2424084 106.384615,21.7036649 C106,21.5497382 105.692308,21.3958115 105.384615,21.0879581 C104,19.7795812 103.846154,17.6246073 105.153846,16.239267 C106.153846,15.1617801 107.692308,14.8539267 109,15.3926702 C108.846154,15.0078534 108.769231,14.7 108.769231,14.2382199 C108.692308,12.3141361 110.153846,10.6979058 112.076923,10.6209424 C113.538462,10.5439791 114.846154,11.3905759 115.384615,12.6989529 C115.538462,12.3141361 115.692308,12.0062827 116,11.6984293 C117.230769,10.2361257 119.461538,10.1591623 120.846154,11.4675393 L120.846154,11.4675393 L120.846154,11.4675393 Z M111.461538,21.6267016 C111.461538,19.4717277 113.230769,17.7015707 115.384615,17.7015707 C117.538462,17.7015707 119.307692,19.4717277 119.307692,21.6267016 C119.307692,23.7816754 117.538462,25.5518325 115.384615,25.5518325 C113.230769,25.5518325 111.461538,23.7816754 111.461538,21.6267016 L111.461538,21.6267016 L111.461538,21.6267016 Z M114,62.0324607 C114,68.5743455 119.307692,73.8078534 125.769231,73.8078534 C132.307692,73.8078534 137.538462,68.4973822 137.538462,62.0324607 C137.538462,55.5675393 132.230769,50.2570681 125.769231,50.2570681 C119.307692,50.1801047 114,55.4905759 114,62.0324607 L114,62.0324607 L114,62.0324607 Z M137.692308,39.9439791 C140.076923,42.0989529 140.692308,45.408377 139.615385,48.1790576 C140.384615,47.8712042 141.153846,47.7172775 142,47.6403141 C146.153846,47.4094241 149.615385,50.6418848 149.769231,54.7209424 C149.923077,57.8764398 148,60.7240838 145.230769,61.878534 C146,62.1863874 146.692308,62.6481675 147.307692,63.186911 C150.384615,65.9575916 150.538462,70.652356 147.769231,73.7308901 C145.615385,76.1167539 142.307692,76.7324607 139.538462,75.6549738 C139.846154,76.4246073 140,77.1942408 140.076923,78.0408377 C140.307692,82.1968586 137.076923,85.6602094 133,85.8141361 C129.846154,85.9680628 127,84.0439791 125.846154,81.2732984 C125.538462,82.0429319 125.076923,82.7356021 124.538462,83.3513089 C121.769231,86.4298429 117.076923,86.5837696 114,83.813089 C111.615385,81.6581152 111,78.3486911 112.076923,75.5780105 C111.307692,75.8858639 110.538462,76.0397906 109.692308,76.1167539 C105.538462,76.347644 102.076923,73.1151832 101.923077,69.0361257 C101.769231,65.8806283 103.692308,63.0329843 106.461538,61.878534 C105.692308,61.5706806 105,61.1089005 104.384615,60.5701571 C101.307692,57.7994764 101.153846,53.104712 103.923077,50.026178 C106.076923,47.6403141 109.384615,47.0246073 112.153846,48.1020942 C111.846154,47.3324607 111.692308,46.5628272 111.615385,45.7162304 C111.384615,41.5602094 114.615385,38.0968586 118.692308,37.9429319 C121.846154,37.7890052 124.692308,39.713089 125.846154,42.4837696 C126.153846,41.7141361 126.615385,41.021466 127.153846,40.4057592 C129.923077,37.4041885 134.615385,37.1732984 137.692308,39.9439791 L137.692308,39.9439791 L137.692308,39.9439791 Z M117.384615,62.0324607 C117.384615,57.3376963 121.153846,53.5664921 125.846154,53.5664921 C130.538462,53.5664921 134.307692,57.3376963 134.307692,62.0324607 C134.307692,66.7272251 130.538462,70.4984293 125.846154,70.4984293 C121.153846,70.4984293 117.384615,66.6502618 117.384615,62.0324607 L117.384615,62.0324607 L117.384615,62.0324607 Z M63.2307692,32.3246073 C63.2307692,38.8664921 68.5384615,44.1 75,44.1 C81.5384615,44.1 86.7692308,38.7895288 86.7692308,32.3246073 C86.7692308,25.8596859 81.4615385,20.5492147 75,20.5492147 C68.4615385,20.4722513 63.2307692,25.7827225 63.2307692,32.3246073 L63.2307692,32.3246073 L63.2307692,32.3246073 Z M86.8461538,10.2361257 C89.2307692,12.3910995 89.8461538,15.7005236 88.7692308,18.4712042 C89.5384615,18.1633508 90.3076923,18.0094241 91.1538462,17.9324607 C95.3076923,17.7015707 98.7692308,20.9340314 98.9230769,25.013089 C99.0769231,28.1685864 97.1538462,31.0162304 94.3846154,32.1706806 C95.1538462,32.478534 95.8461538,32.9403141 96.4615385,33.4790576 C99.5384615,36.2497382 99.6923077,40.9445026 96.9230769,44.0230366 C94.7692308,46.4089005 91.4615385,47.0246073 88.6923077,45.9471204 C89,46.7167539 89.1538462,47.4863874 89.2307692,48.3329843 C89.4615385,52.4890052 86.2307692,55.952356 82.1538462,56.1062827 C79,56.2602094 76.1538462,54.3361257 75,51.565445 C74.6923077,52.3350785 74.2307692,53.0277487 73.6923077,53.6434555 C70.9230769,56.7219895 66.2307692,56.8759162 63.1538462,54.1052356 C60.7692308,51.9502618 60.1538462,48.6408377 61.2307692,45.8701571 C60.4615385,46.1780105 59.6923077,46.3319372 58.8461538,46.4089005 C54.6923077,46.6397906 51.2307692,43.4073298 51.0769231,39.3282723 C50.9230769,36.1727749 52.8461538,33.3251309 55.6153846,32.1706806 C54.8461538,31.8628272 54.1538462,31.4010471 53.5384615,30.8623037 C50.4615385,28.091623 50.3076923,23.3968586 53.0769231,20.3183246 C55.2307692,17.9324607 58.5384615,17.3167539 61.3076923,18.3942408 C61,17.6246073 60.8461538,16.8549738 60.7692308,16.008377 C60.5384615,11.852356 63.7692308,8.38900524 67.8461538,8.23507853 C71,8.08115183 73.8461538,10.0052356 75,12.7759162 C75.3076923,12.0062827 75.7692308,11.3136126 76.3076923,10.6979058 C79.0769231,7.69633508 83.7692308,7.46544503 86.8461538,10.2361257 L86.8461538,10.2361257 L86.8461538,10.2361257 Z M66.5384615,32.3246073 C66.5384615,27.6298429 70.3076923,23.8586387 75,23.8586387 C79.6923077,23.8586387 83.4615385,27.6298429 83.4615385,32.3246073 C83.4615385,37.0193717 79.6923077,40.7905759 75,40.7905759 C70.3076923,40.7136126 66.5384615,36.9424084 66.5384615,32.3246073 L66.5384615,32.3246073 L66.5384615,32.3246073 Z M93,5.54136126 C93,2.69371728 95.3076923,0.307853403 98.2307692,0.307853403 C101.076923,0.307853403 103.461538,2.61675393 103.461538,5.54136126 C103.461538,8.38900524 101.153846,10.7748691 98.2307692,10.7748691 C95.3076923,10.6979058 93,8.38900524 93,5.54136126 L93,5.54136126 L93,5.54136126 Z M127.384615,87.2764398 L127.384615,147.153927 L124.230769,147.153927 L124.230769,87.2764398 C124.769231,86.9685864 125.307692,86.5068063 125.846154,86.0450262 C126.384615,86.5837696 126.846154,86.9685864 127.384615,87.2764398 L127.384615,87.2764398 L127.384615,87.2764398 Z M93.1538462,66.8041885 C94.4615385,70.5753927 93.6153846,74.9623037 90.6153846,77.9638743 C87.6153846,80.965445 83.2307692,81.8120419 79.4615385,80.5036649 C78.1538462,76.7324607 79,72.3455497 82,69.3439791 C85,66.3424084 89.3846154,65.4958115 93.1538462,66.8041885 L93.1538462,66.8041885 L93.1538462,66.8041885 Z M56.8461538,66.8041885 C60.6153846,65.4958115 65,66.3424084 68,69.3439791 C71,72.3455497 71.8461538,76.7324607 70.5384615,80.5036649 C66.7692308,81.8120419 62.3846154,80.965445 59.3846154,77.9638743 C56.3846154,74.9623037 55.5384615,70.5753927 56.8461538,66.8041885 L56.8461538,66.8041885 L56.8461538,66.8041885 Z M6,96.5120419 C9.76923077,95.2036649 14.1538462,96.0502618 17.1538462,99.0518325 C20.1538462,102.053403 21,106.440314 19.6923077,110.211518 C15.9230769,111.519895 11.5384615,110.673298 8.53846154,107.671728 C5.53846154,104.670157 4.69230769,100.283246 6,96.5120419 L6,96.5120419 L6,96.5120419 Z M42.3076923,96.5120419 C43.6153846,100.283246 42.7692308,104.670157 39.7692308,107.671728 C36.7692308,110.673298 32.3846154,111.519895 28.6153846,110.211518 C27.3076923,106.440314 28.1538462,102.053403 31.1538462,99.0518325 C34.1538462,96.0502618 38.5384615,95.2036649 42.3076923,96.5120419 L42.3076923,96.5120419 L42.3076923,96.5120419 Z M107.692308,96.5120419 C111.461538,95.2036649 115.846154,96.0502618 118.846154,99.0518325 C121.846154,102.053403 122.692308,106.440314 121.384615,110.211518 C117.615385,111.519895 113.230769,110.673298 110.230769,107.671728 C107.230769,104.670157 106.307692,100.283246 107.692308,96.5120419 L107.692308,96.5120419 L107.692308,96.5120419 Z" id="Shape" sketch:type="MSShapeGroup"></path>
        </g>
    </g>
</svg>