<?xml version="1.0" encoding="utf-8"?>
<!-- Generator: Adobe Illustrator 18.1.0, SVG Export Plug-In . SVG Version: 6.00 Build 0)  -->
<!DOCTYPE svg PUBLIC "-//W3C//DTD SVG 1.1//EN" "http://www.w3.org/Graphics/SVG/1.1/DTD/svg11.dtd">
<svg version="1.1" id="Layer_1" xmlns="http://www.w3.org/2000/svg" xmlns:xlink="http://www.w3.org/1999/xlink" x="0px" y="0px"
	 width="110px" height="119.8px" viewBox="0 0 110 119.8" enable-background="new 0 0 110 119.8" xml:space="preserve">
<path fill="#231F20" d="M30.6,89.7c3.3,3.3,4.5,7.6,2.9,10.2c-0.2-0.3-0.4-0.6-0.6-0.9c-0.1-0.4-0.4-0.7-0.6-1
	c-0.3-0.3-0.7-0.5-1-0.7c-0.4-0.1-0.7-0.4-1-0.6c-0.3-0.3-0.5-0.6-0.6-1c-0.1-0.4-0.4-0.7-0.7-1c-0.3-0.3-0.7-0.5-1-0.7
	c-0.4-0.1-0.7-0.4-1-0.6c-0.3-0.3-0.5-0.6-0.6-1c-0.1-0.4-0.4-0.7-0.7-1c-0.3-0.3-0.7-0.5-1-0.7c-0.4-0.1-0.7-0.4-1-0.6
	c-0.3-0.3-0.5-0.6-0.6-1c-0.1-0.4-0.4-0.7-0.7-1c-0.3-0.3-0.7-0.5-1-0.7l1.3,32.5h-4.9l1.4-32.5c-0.5,0.2-0.8,0.4-1.1,0.7
	c-0.3,0.3-0.5,0.7-0.7,1c-0.1,0.4-0.4,0.7-0.6,1c-0.3,0.3-0.6,0.5-1,0.6c-0.4,0.1-0.7,0.4-1,0.7c-0.3,0.3-0.5,0.7-0.7,1
	c-0.1,0.4-0.3,0.7-0.6,1c-0.3,0.3-0.6,0.5-1,0.6c-0.4,0.1-0.7,0.4-1,0.7c-0.3,0.3-0.5,0.7-0.7,1c-0.1,0.4-0.3,0.7-0.6,1
	c-0.3,0.3-0.6,0.5-1,0.6c-0.4,0.1-0.7,0.4-1,0.7c-0.3,0.3-0.5,0.7-0.6,1c-0.1,0.3-0.3,0.6-0.6,0.9C5.3,97.3,6.5,93,9.8,89.7
	c1.4-1.4,2.9-2.4,4.4-3c-0.4-0.2-0.8-0.3-1.2-0.3c-0.4,0-0.8,0.1-1.2,0.3c-0.3,0.2-0.7,0.2-1.1,0.2c-0.4,0-0.8-0.1-1.2-0.2
	c-0.4-0.2-0.8-0.3-1.2-0.3c-0.4,0-0.8,0.1-1.2,0.3C6.9,86.9,6.5,87,6.1,87c-0.4,0-0.8-0.1-1.1-0.2c-0.4-0.2-0.8-0.3-1.2-0.3
	c-0.4,0-0.8,0.1-1.2,0.3c-0.3,0.1-0.7,0.2-1,0.2c0.7-2.9,4.6-5.1,9.2-5.1c1.9,0,3.8,0.4,5.2,1.1c-0.1-0.2-0.3-0.4-0.4-0.6
	c-0.3-0.3-0.7-0.5-1-0.7c-0.4-0.1-0.7-0.4-1-0.6c-0.3-0.3-0.5-0.6-0.6-1c-0.1-0.4-0.4-0.7-0.7-1c-0.3-0.3-0.7-0.5-1-0.7
	c-0.4-0.1-0.7-0.4-1-0.6c-0.3-0.3-0.5-0.6-0.6-1c-0.1-0.4-0.4-0.7-0.7-1c-0.3-0.3-0.7-0.5-1-0.7c-0.3-0.1-0.6-0.3-0.9-0.6
	c2.6-1.6,6.9-0.4,10.2,2.9c1.4,1.4,2.5,3,3,4.6c0.6-1.6,1.6-3.2,3-4.6c3.3-3.3,7.6-4.5,10.2-2.9c-0.3,0.2-0.6,0.4-0.9,0.6
	c-0.4,0.1-0.7,0.4-1,0.7c-0.3,0.3-0.5,0.7-0.7,1c-0.1,0.4-0.4,0.7-0.6,1c-0.3,0.3-0.6,0.5-1,0.6c-0.4,0.1-0.7,0.4-1,0.7
	c-0.3,0.3-0.5,0.7-0.7,1c-0.1,0.4-0.3,0.7-0.6,1c-0.3,0.3-0.6,0.5-1,0.6c-0.4,0.1-0.7,0.4-1,0.7c-0.2,0.2-0.3,0.4-0.4,0.6
	c1.5-0.7,3.3-1.1,5.2-1.1c4.7,0,8.5,2.2,9.2,5.1c-0.4,0-0.7-0.1-1-0.2c-0.4-0.2-0.8-0.3-1.2-0.3c-0.4,0-0.8,0.1-1.2,0.3
	c-0.3,0.2-0.7,0.2-1.1,0.2c-0.4,0-0.8-0.1-1.2-0.2c-0.4-0.2-0.8-0.3-1.2-0.3c-0.4,0-0.8,0.1-1.2,0.3c-0.3,0.2-0.7,0.2-1.1,0.2
	c-0.4,0-0.8-0.1-1.2-0.2c-0.4-0.2-0.8-0.3-1.2-0.3c-0.4,0-0.8,0.1-1.2,0.3C27.7,87.3,29.2,88.3,30.6,89.7L30.6,89.7z M81.7,42.4
	c8.5,8.5,11.4,19.5,7.4,26.1c-0.6-0.7-1.1-1.5-1.4-2.3c-0.3-1-0.9-1.9-1.7-2.6c-0.8-0.8-1.7-1.3-2.6-1.7c-0.9-0.3-1.8-0.9-2.5-1.6
	c-0.7-0.7-1.3-1.6-1.6-2.5c-0.3-1-0.9-1.9-1.7-2.6c-0.8-0.8-1.7-1.3-2.6-1.7c-0.9-0.3-1.8-0.9-2.5-1.6c-0.7-0.7-1.3-1.6-1.6-2.5
	c-0.3-1-0.9-1.9-1.7-2.6c-0.8-0.8-1.7-1.3-2.6-1.7c-0.9-0.3-1.8-0.9-2.5-1.6c-0.7-0.7-1.3-1.6-1.6-2.5c-0.3-1-0.9-1.9-1.7-2.6
	c-0.8-0.8-1.7-1.3-2.6-1.7l-0.3-0.1l3.7,83.5H48.7l3.7-83.5l-0.3,0.1c-1,0.3-1.9,0.9-2.6,1.7c-0.8,0.8-1.3,1.7-1.7,2.6
	c-0.3,0.9-0.9,1.8-1.6,2.5c-0.7,0.7-1.6,1.3-2.5,1.6c-1,0.3-1.9,0.9-2.6,1.7c-0.8,0.8-1.3,1.7-1.7,2.6c-0.3,0.9-0.9,1.8-1.6,2.5
	c-0.7,0.7-1.6,1.3-2.5,1.6c-1,0.3-1.9,0.9-2.6,1.7c-0.8,0.8-1.3,1.7-1.7,2.6c-0.3,0.9-0.9,1.8-1.6,2.5c-0.7,0.7-1.6,1.3-2.5,1.6
	c-1,0.3-1.9,0.9-2.6,1.7c-0.8,0.8-1.3,1.7-1.7,2.6c-0.3,0.8-0.8,1.6-1.4,2.3c-4-6.6-1-17.6,7.4-26.1c3.5-3.5,7.5-6.1,11.4-7.6
	c-0.9-0.4-2-0.7-3-0.7c-1.1,0-2.1,0.3-3,0.7c-0.9,0.4-1.9,0.6-3,0.6c-1.1,0-2.1-0.2-3-0.6c-0.9-0.4-2-0.7-3-0.7
	c-1.1,0-2.1,0.3-3,0.7c-0.9,0.4-1.9,0.6-3,0.6c-1,0-2.1-0.2-3-0.6c-0.9-0.4-2-0.7-3-0.7c-1.1,0-2.1,0.3-3,0.7
	c-0.8,0.4-1.7,0.6-2.7,0.6c1.8-7.5,11.7-13.2,23.7-13.2c5,0,9.6,1,13.5,2.7c-0.3-0.5-0.7-1-1.1-1.5c-0.8-0.8-1.7-1.3-2.6-1.7
	c-0.9-0.3-1.8-0.9-2.5-1.6c-0.7-0.7-1.3-1.6-1.6-2.5c-0.3-1-0.9-1.9-1.7-2.6c-0.8-0.8-1.7-1.3-2.6-1.7c-0.9-0.3-1.8-0.9-2.5-1.6
	c-0.7-0.7-1.3-1.6-1.6-2.5c-0.3-1-0.9-1.9-1.7-2.6c-0.8-0.8-1.7-1.3-2.6-1.7c-0.8-0.3-1.6-0.8-2.3-1.4c6.6-4,17.6-1,26.1,7.4
	c3.7,3.7,6.3,7.8,7.8,11.9c1.5-4.1,4.1-8.2,7.8-11.9c8.5-8.5,19.5-11.4,26.1-7.4c-0.7,0.6-1.5,1.1-2.3,1.4c-1,0.3-1.9,0.9-2.6,1.7
	c-0.8,0.8-1.3,1.7-1.7,2.6c-0.3,0.9-0.9,1.8-1.6,2.5c-0.7,0.7-1.6,1.3-2.5,1.6c-1,0.3-1.9,0.9-2.6,1.7c-0.8,0.8-1.3,1.7-1.7,2.6
	c-0.3,0.9-0.9,1.8-1.6,2.5c-0.7,0.7-1.6,1.3-2.5,1.6c-1,0.3-1.9,0.9-2.6,1.7c-0.5,0.5-0.8,1-1.1,1.5c3.8-1.7,8.5-2.7,13.5-2.7
	c12,0,21.9,5.7,23.7,13.2c-0.9,0-1.9-0.3-2.7-0.6c-0.9-0.4-2-0.7-3-0.7c-1.1,0-2.1,0.3-3,0.7c-0.9,0.4-1.9,0.6-3,0.6
	c-1.1,0-2.1-0.2-3-0.6c-0.9-0.4-2-0.7-3-0.7c-1.1,0-2.1,0.3-3,0.7c-0.9,0.4-1.9,0.6-3,0.6c-1.1,0-2.1-0.2-3-0.6
	c-0.9-0.4-2-0.7-3-0.7c-1.1,0-2.1,0.2-3,0.7C74.2,36.3,78.2,38.9,81.7,42.4L81.7,42.4z M100.2,89.7c3.3,3.3,4.5,7.6,2.9,10.2
	c-0.2-0.3-0.4-0.6-0.6-0.9c-0.1-0.4-0.4-0.7-0.6-1c-0.3-0.3-0.7-0.5-1-0.7c-0.4-0.1-0.7-0.4-1-0.6c-0.3-0.3-0.5-0.6-0.6-1
	c-0.1-0.4-0.4-0.7-0.7-1c-0.3-0.3-0.7-0.5-1-0.7c-0.4-0.1-0.7-0.4-1-0.6c-0.3-0.3-0.5-0.6-0.6-1c-0.1-0.4-0.4-0.7-0.7-1
	c-0.3-0.3-0.7-0.5-1-0.7c-0.4-0.1-0.7-0.4-1-0.6c-0.3-0.3-0.5-0.6-0.6-1c-0.1-0.4-0.4-0.7-0.7-1c-0.3-0.3-0.7-0.5-1-0.7l1.3,32.5
	h-4.9l1.4-32.5c-0.5,0.2-0.8,0.4-1.1,0.7c-0.3,0.3-0.5,0.7-0.7,1c-0.1,0.4-0.4,0.7-0.6,1c-0.3,0.3-0.6,0.5-1,0.6
	c-0.4,0.1-0.7,0.4-1,0.7c-0.3,0.3-0.5,0.7-0.7,1c-0.1,0.4-0.3,0.7-0.6,1c-0.3,0.3-0.6,0.5-1,0.6c-0.4,0.1-0.7,0.4-1,0.7
	c-0.3,0.3-0.5,0.7-0.7,1c-0.1,0.4-0.3,0.7-0.6,1c-0.3,0.3-0.6,0.5-1,0.6c-0.4,0.1-0.7,0.4-1,0.7c-0.3,0.3-0.5,0.7-0.6,1
	c-0.1,0.3-0.3,0.6-0.6,0.9c-1.6-2.6-0.4-6.9,2.9-10.2c1.4-1.4,2.9-2.4,4.4-3c-0.4-0.2-0.8-0.3-1.2-0.3c-0.4,0-0.8,0.1-1.2,0.3
	c-0.3,0.2-0.7,0.2-1.1,0.2c-0.4,0-0.8-0.1-1.2-0.2c-0.4-0.2-0.8-0.3-1.2-0.3c-0.4,0-0.8,0.1-1.2,0.3c-0.3,0.2-0.7,0.2-1.1,0.2
	c-0.4,0-0.8-0.1-1.1-0.2c-0.4-0.2-0.8-0.3-1.2-0.3c-0.4,0-0.8,0.1-1.2,0.3c-0.3,0.1-0.7,0.2-1,0.2c0.7-2.9,4.6-5.1,9.2-5.1
	c1.9,0,3.8,0.4,5.2,1.1c-0.1-0.2-0.3-0.4-0.4-0.6c-0.3-0.3-0.7-0.5-1-0.7c-0.4-0.1-0.7-0.4-1-0.6c-0.3-0.3-0.5-0.6-0.6-1
	c-0.1-0.4-0.4-0.7-0.7-1c-0.3-0.3-0.7-0.5-1-0.7c-0.4-0.1-0.7-0.4-1-0.6c-0.3-0.3-0.5-0.6-0.6-1c-0.1-0.4-0.4-0.7-0.7-1
	c-0.3-0.3-0.7-0.5-1-0.7c-0.3-0.1-0.6-0.3-0.9-0.6c2.6-1.6,6.9-0.4,10.2,2.9c1.4,1.4,2.5,3,3,4.6c0.6-1.6,1.6-3.2,3-4.6
	c3.3-3.3,7.6-4.5,10.2-2.9c-0.3,0.2-0.6,0.4-0.9,0.6c-0.4,0.1-0.7,0.4-1,0.7c-0.3,0.3-0.5,0.7-0.7,1c-0.1,0.4-0.4,0.7-0.6,1
	c-0.3,0.3-0.6,0.5-1,0.6c-0.4,0.1-0.7,0.4-1,0.7c-0.3,0.3-0.5,0.7-0.7,1c-0.1,0.4-0.3,0.7-0.6,1c-0.3,0.3-0.6,0.5-1,0.6
	c-0.4,0.1-0.7,0.4-1,0.7c-0.2,0.2-0.3,0.4-0.4,0.6c1.5-0.7,3.3-1.1,5.2-1.1c4.7,0,8.5,2.2,9.2,5.1c-0.4,0-0.7-0.1-1-0.2
	c-0.4-0.2-0.8-0.3-1.2-0.3c-0.4,0-0.8,0.1-1.2,0.3c-0.3,0.2-0.7,0.2-1.1,0.2c-0.4,0-0.8-0.1-1.2-0.2c-0.4-0.2-0.8-0.3-1.2-0.3
	c-0.4,0-0.8,0.1-1.2,0.3c-0.3,0.2-0.7,0.2-1.1,0.2c-0.4,0-0.8-0.1-1.2-0.2c-0.4-0.2-0.8-0.3-1.2-0.3c-0.4,0-0.8,0.1-1.2,0.3
	C97.3,87.3,98.8,88.3,100.2,89.7L100.2,89.7z"/>
</svg>
