<?xml version="1.0" encoding="UTF-8" standalone="no"?>
<svg width="151px" height="167px" viewBox="0 0 151 167" version="1.1" xmlns="http://www.w3.org/2000/svg" xmlns:xlink="http://www.w3.org/1999/xlink" xmlns:sketch="http://www.bohemiancoding.com/sketch/ns">
    <!-- Generator: Sketch 3.1.1 (8761) - http://www.bohemiancoding.com/sketch -->
    <title>nature_palm</title>
    <desc>Created with Sketch.</desc>
    <defs></defs>
    <g id="Page-1" stroke="none" stroke-width="1" fill="none" fill-rule="evenodd" sketch:type="MSPage">
        <g id="nature_palm" sketch:type="MSLayerGroup" fill="#231F20">
            <path d="M40.4304636,124.052695 C45,128.62515 46.6887417,134.688623 44.5033113,138.267066 C44.1059603,137.869461 43.9072848,137.471856 43.7086093,136.97485 C43.5099338,136.477844 43.2119205,135.980838 42.8145695,135.583234 C42.4172185,135.185629 41.9205298,134.887425 41.4238411,134.688623 C40.9271523,134.48982 40.4304636,134.191617 40.0331126,133.794012 C39.6357616,133.396407 39.3377483,132.899401 39.1390728,132.402395 C38.9403974,131.905389 38.6423841,131.408383 38.2450331,131.010778 C37.8476821,130.613174 37.3509934,130.31497 36.8543046,130.116168 C36.3576159,129.917365 35.8609272,129.619162 35.4635762,129.221557 C35.0662252,128.823952 34.7682119,128.326946 34.5695364,127.82994 C34.3708609,127.332934 34.0728477,126.835928 33.6754967,126.438323 C33.2781457,126.040719 32.781457,125.742515 32.2847682,125.543713 C31.7880795,125.34491 31.2913907,125.046707 30.8940397,124.649102 C30.4966887,124.251497 30.1986755,123.754491 30,123.257485 C29.8013245,122.760479 29.5033113,122.263473 29.1059603,121.865868 C28.7086093,121.468263 28.2119205,121.17006 27.7152318,120.971257 L29.602649,166.497006 L22.7483444,166.497006 L24.7350993,120.971257 C24.0397351,121.269461 23.5430464,121.567665 23.1456954,121.965269 C22.7483444,122.362874 22.4503311,122.85988 22.2516556,123.356886 C22.0529801,123.853892 21.7549669,124.350898 21.3576159,124.748503 C20.9602649,125.146108 20.4635762,125.444311 19.9668874,125.643114 C19.4701987,125.841916 18.9735099,126.14012 18.5761589,126.537725 C18.1788079,126.935329 17.8807947,127.432335 17.6821192,127.929341 C17.4834437,128.426347 17.1854305,128.923353 16.7880795,129.320958 C16.3907285,129.718563 15.8940397,130.016766 15.397351,130.215569 C14.9006623,130.414371 14.4039735,130.712575 14.0066225,131.11018 C13.6092715,131.507784 13.3112583,132.00479 13.1125828,132.501796 C12.9139073,132.998802 12.615894,133.495808 12.218543,133.893413 C11.8211921,134.291018 11.3245033,134.589222 10.8278146,134.788024 C10.3311258,134.986826 9.83443709,135.28503 9.43708609,135.682635 C9.0397351,136.08024 8.74172185,136.577246 8.54304636,137.074251 C8.34437086,137.571257 8.14569536,137.968862 7.74834437,138.366467 C5.56291391,134.788024 7.15231788,128.724551 11.8211921,124.152096 C13.7086093,122.263473 15.8940397,120.871856 18.0794702,119.977246 C17.5827815,119.778443 16.986755,119.579641 16.3907285,119.579641 C15.794702,119.579641 15.1986755,119.679042 14.7019868,119.977246 C14.205298,120.176048 13.7086093,120.275449 13.1125828,120.275449 C12.5165563,120.275449 12.0198675,120.176048 11.5231788,119.977246 C11.0264901,119.778443 10.4304636,119.579641 9.83443709,119.579641 C9.2384106,119.579641 8.64238411,119.679042 8.14569536,119.977246 C7.64900662,120.176048 7.15231788,120.275449 6.55629139,120.275449 C5.9602649,120.275449 5.46357616,120.176048 4.96688742,119.977246 C4.47019868,119.778443 3.87417219,119.579641 3.2781457,119.579641 C2.68211921,119.579641 2.08609272,119.679042 1.58940397,119.977246 C1.09271523,120.176048 0.695364238,120.275449 0.0993377483,120.275449 C1.09271523,116.2 6.45695364,113.118563 13.013245,113.118563 C15.6953642,113.118563 18.2781457,113.615569 20.3642384,114.609581 C20.1655629,114.311377 19.9668874,114.013174 19.7682119,113.814371 C19.3708609,113.416766 18.8741722,113.118563 18.3774834,112.91976 C17.8807947,112.720958 17.384106,112.422754 16.986755,112.02515 C16.589404,111.627545 16.2913907,111.130539 16.0927152,110.633533 C15.8940397,110.136527 15.5960265,109.639521 15.1986755,109.241916 C14.8013245,108.844311 14.3046358,108.546108 13.807947,108.347305 C13.3112583,108.148503 12.8145695,107.850299 12.4172185,107.452695 C12.0198675,107.05509 11.7218543,106.558084 11.5231788,106.061078 C11.3245033,105.564072 11.0264901,105.067066 10.6291391,104.669461 C10.2317881,104.271856 9.73509934,103.973653 9.2384106,103.77485 C8.74172185,103.576048 8.34437086,103.377246 7.94701987,102.979641 C11.5231788,100.792814 17.5827815,102.383234 22.1523179,107.05509 C24.1390728,109.043114 25.6291391,111.329341 26.4238411,113.516168 C27.218543,111.329341 28.7086093,109.043114 30.6953642,107.05509 C35.2649007,102.482635 41.3245033,100.792814 44.9006623,102.979641 C44.5033113,103.377246 44.1059603,103.576048 43.6092715,103.77485 C43.1125828,103.973653 42.615894,104.271856 42.218543,104.669461 C41.8211921,105.067066 41.5231788,105.564072 41.3245033,106.061078 C41.1258278,106.558084 40.8278146,107.05509 40.4304636,107.452695 C40.0331126,107.850299 39.5364238,108.148503 39.0397351,108.347305 C38.5430464,108.546108 38.0463576,108.844311 37.6490066,109.241916 C37.2516556,109.639521 36.9536424,110.136527 36.7549669,110.633533 C36.5562914,111.130539 36.2582781,111.627545 35.8609272,112.02515 C35.4635762,112.422754 34.9668874,112.720958 34.4701987,112.91976 C33.9735099,113.118563 33.4768212,113.416766 33.0794702,113.814371 C32.8807947,114.013174 32.5827815,114.311377 32.4834437,114.609581 C34.5695364,113.71497 37.1523179,113.118563 39.8344371,113.118563 C46.3907285,113.118563 51.7549669,116.2 52.7483444,120.275449 C52.2516556,120.275449 51.7549669,120.176048 51.2582781,119.977246 C50.7615894,119.778443 50.1655629,119.579641 49.5695364,119.579641 C48.9735099,119.579641 48.3774834,119.679042 47.8807947,119.977246 C47.384106,120.176048 46.8874172,120.275449 46.2913907,120.275449 C45.6953642,120.275449 45.1986755,120.176048 44.7019868,119.977246 C44.205298,119.778443 43.6092715,119.579641 43.013245,119.579641 C42.4172185,119.579641 41.8211921,119.679042 41.3245033,119.977246 C40.8278146,120.176048 40.3311258,120.275449 39.7350993,120.275449 C39.1390728,120.275449 38.6423841,120.176048 38.1456954,119.977246 C37.6490066,119.778443 37.0529801,119.579641 36.4569536,119.579641 C35.8609272,119.579641 35.2649007,119.679042 34.7682119,119.977246 C36.2582781,120.673054 38.4437086,122.064671 40.4304636,124.052695 L40.4304636,124.052695 L40.4304636,124.052695 Z M111.953642,57.7520958 C123.774834,69.5808383 127.94702,85.1868263 122.384106,94.3317365 C121.490066,93.3377246 120.794702,92.2443114 120.397351,91.051497 C119.900662,89.7592814 119.10596,88.4670659 118.112583,87.3736527 C117.019868,86.2802395 115.728477,85.4850299 114.437086,84.988024 C113.145695,84.491018 111.953642,83.6958084 110.860927,82.7017964 C109.86755,81.7077844 109.072848,80.4155689 108.576159,79.1233533 C108.07947,77.8311377 107.284768,76.5389222 106.192053,75.445509 C105.099338,74.3520958 103.807947,73.5568862 102.516556,73.0598802 C101.225166,72.5628743 100.033113,71.7676647 98.9403974,70.7736527 C97.9470199,69.7796407 97.1523179,68.4874251 96.6556291,67.1952096 C96.1589404,65.902994 95.3642384,64.6107784 94.2715232,63.5173653 C93.1788079,62.4239521 91.8874172,61.6287425 90.5960265,61.1317365 C89.3046358,60.6347305 88.1125828,59.839521 87.0198675,58.845509 C86.0264901,57.851497 85.2317881,56.5592814 84.7350993,55.2670659 C84.2384106,53.9748503 83.4437086,52.6826347 82.3509934,51.5892216 C81.2582781,50.4958084 79.9668874,49.7005988 78.6754967,49.2035928 L78.2781457,49.0047904 L83.4437086,166 L65.7615894,166 L70.9271523,49.0047904 L70.5298013,49.4023952 C69.2384106,49.8994012 67.9470199,50.6946108 66.8543046,51.788024 C65.7615894,52.8814371 64.9668874,54.1736527 64.4701987,55.4658683 C63.9735099,56.7580838 63.1788079,57.9508982 62.1854305,59.0443114 C61.192053,60.0383234 59.9006623,60.8335329 58.6092715,61.3305389 C57.3178808,61.8275449 56.0264901,62.6227545 54.9337748,63.7161677 C53.8410596,64.8095808 53.0463576,66.1017964 52.5496689,67.394012 C52.0529801,68.6862275 51.2582781,69.8790419 50.2649007,70.9724551 C49.2715232,71.9664671 47.9801325,72.7616766 46.6887417,73.2586826 C45.397351,73.7556886 44.1059603,74.5508982 43.013245,75.6443114 C41.9205298,76.7377246 41.1258278,78.0299401 40.6291391,79.3221557 C40.1324503,80.6143713 39.3377483,81.8071856 38.3443709,82.9005988 C37.3509934,83.8946108 36.0596026,84.6898204 34.7682119,85.1868263 C33.4768212,85.6838323 32.1854305,86.4790419 31.0927152,87.5724551 C30,88.6658683 29.205298,89.9580838 28.807947,91.2502994 C28.3112583,92.4431138 27.7152318,93.5365269 26.8211921,94.5305389 C21.1589404,85.2862275 25.3311258,69.7796407 37.2516556,57.9508982 C42.218543,52.9808383 47.781457,49.4023952 53.2450331,47.3149701 C51.9536424,46.7185629 50.4635762,46.3209581 48.9735099,46.3209581 C47.4834437,46.3209581 45.9933775,46.7185629 44.7019868,47.3149701 C43.410596,47.9113772 42.0198675,48.2095808 40.5298013,48.2095808 C39.0397351,48.2095808 37.6490066,47.9113772 36.3576159,47.3149701 C35.0662252,46.7185629 33.5761589,46.3209581 32.0860927,46.3209581 C30.5960265,46.3209581 29.1059603,46.7185629 27.8145695,47.3149701 C26.5231788,47.9113772 25.1324503,48.2095808 23.6423841,48.2095808 C22.1523179,48.2095808 20.7615894,47.9113772 19.4701987,47.3149701 C18.1788079,46.7185629 16.6887417,46.3209581 15.1986755,46.3209581 C13.7086093,46.3209581 12.218543,46.7185629 10.9271523,47.3149701 C9.73509934,47.811976 8.54304636,48.1101796 7.15231788,48.2095808 C9.73509934,37.6730539 23.6423841,29.7209581 40.3311258,29.7209581 C47.2847682,29.7209581 53.8410596,31.1125749 59.205298,33.4982036 C58.807947,32.702994 58.2119205,32.0071856 57.615894,31.4107784 C56.5231788,30.3173653 55.2317881,29.5221557 53.9403974,29.0251497 C52.6490066,28.5281437 51.4569536,27.7329341 50.3642384,26.7389222 C49.3708609,25.7449102 48.5761589,24.4526946 48.0794702,23.160479 C47.5827815,21.8682635 46.7880795,20.5760479 45.6953642,19.4826347 C44.602649,18.3892216 43.3112583,17.594012 42.0198675,17.097006 C40.7284768,16.6 39.5364238,15.8047904 38.4437086,14.8107784 C37.4503311,13.8167665 36.6556291,12.5245509 36.1589404,11.2323353 C35.6622517,9.94011976 34.8675497,8.64790419 33.7748344,7.55449102 C32.6821192,6.46107784 31.3907285,5.66586826 30.0993377,5.16886228 C28.9072848,4.77125749 27.8145695,4.0754491 26.8211921,3.18083832 C36.0596026,-2.48502994 51.5562914,1.68982036 63.3774834,13.6179641 C68.5430464,18.7868263 72.218543,24.5520958 74.3046358,30.3173653 C76.3907285,24.651497 80.0662252,18.7868263 85.2317881,13.6179641 C97.3509934,1.49101796 112.847682,-2.68383234 122.086093,2.98203593 C121.092715,3.87664671 120,4.57245509 118.807947,4.97005988 C117.516556,5.46706587 116.225166,6.26227545 115.13245,7.35568862 C114.039735,8.4491018 113.245033,9.74131737 112.748344,11.0335329 C112.251656,12.3257485 111.456954,13.5185629 110.463576,14.611976 C109.470199,15.605988 108.178808,16.4011976 106.887417,16.8982036 C105.596026,17.3952096 104.304636,18.1904192 103.211921,19.2838323 C102.119205,20.3772455 101.324503,21.6694611 100.827815,22.9616766 C100.331126,24.2538922 99.5364238,25.4467066 98.5430464,26.5401198 C97.5496689,27.5341317 96.2582781,28.3293413 94.9668874,28.8263473 C93.6754967,29.3233533 92.384106,30.1185629 91.2913907,31.211976 C90.6953642,31.8083832 90.0993377,32.6035928 89.7019868,33.2994012 C95.0662252,30.9137725 101.622517,29.5221557 108.576159,29.5221557 C125.364238,29.5221557 139.271523,37.5736527 141.754967,48.0107784 C140.463576,47.9113772 139.172185,47.6131737 137.980132,47.1161677 C136.688742,46.5197605 135.198675,46.1221557 133.708609,46.1221557 C132.218543,46.1221557 130.728477,46.5197605 129.437086,47.1161677 C128.145695,47.7125749 126.754967,48.0107784 125.264901,48.0107784 C123.774834,48.0107784 122.384106,47.7125749 121.092715,47.1161677 C119.801325,46.5197605 118.311258,46.1221557 116.821192,46.1221557 C115.331126,46.1221557 113.84106,46.5197605 112.549669,47.1161677 C111.258278,47.7125749 109.86755,48.0107784 108.377483,48.0107784 C106.887417,48.0107784 105.496689,47.7125749 104.205298,47.1161677 C102.913907,46.5197605 101.423841,46.1221557 99.9337748,46.1221557 C98.4437086,46.1221557 96.9536424,46.4203593 95.6622517,47.0167665 C101.423841,49.2035928 106.986755,52.7820359 111.953642,57.7520958 L111.953642,57.7520958 L111.953642,57.7520958 Z M137.880795,124.052695 C142.450331,128.62515 144.139073,134.688623 141.953642,138.267066 C141.556291,137.869461 141.357616,137.471856 141.15894,136.97485 C140.960265,136.477844 140.662252,135.980838 140.264901,135.583234 C139.86755,135.185629 139.370861,134.887425 138.874172,134.688623 C138.377483,134.48982 137.880795,134.191617 137.483444,133.794012 C137.086093,133.396407 136.788079,132.899401 136.589404,132.402395 C136.390728,131.905389 136.092715,131.408383 135.695364,131.010778 C135.298013,130.613174 134.801325,130.31497 134.304636,130.116168 C133.807947,129.917365 133.311258,129.619162 132.913907,129.221557 C132.516556,128.823952 132.218543,128.326946 132.019868,127.82994 C131.821192,127.332934 131.523179,126.835928 131.125828,126.438323 C130.728477,126.040719 130.231788,125.742515 129.735099,125.543713 C129.238411,125.34491 128.741722,125.046707 128.344371,124.649102 C127.94702,124.251497 127.649007,123.754491 127.450331,123.257485 C127.251656,122.760479 126.953642,122.263473 126.556291,121.865868 C126.15894,121.468263 125.662252,121.17006 125.165563,120.971257 L127.05298,166.497006 L120.198675,166.497006 L122.18543,120.971257 C121.490066,121.269461 120.993377,121.567665 120.596026,121.965269 C120.198675,122.362874 119.900662,122.85988 119.701987,123.356886 C119.503311,123.853892 119.205298,124.350898 118.807947,124.748503 C118.410596,125.146108 117.913907,125.444311 117.417219,125.643114 C116.92053,125.841916 116.423841,126.14012 116.02649,126.537725 C115.629139,126.935329 115.331126,127.432335 115.13245,127.929341 C114.933775,128.426347 114.635762,128.923353 114.238411,129.320958 C113.84106,129.718563 113.344371,130.016766 112.847682,130.215569 C112.350993,130.414371 111.854305,130.712575 111.456954,131.11018 C111.059603,131.507784 110.761589,132.00479 110.562914,132.501796 C110.364238,132.998802 110.066225,133.495808 109.668874,133.893413 C109.271523,134.291018 108.774834,134.589222 108.278146,134.788024 C107.781457,134.986826 107.284768,135.28503 106.887417,135.682635 C106.490066,136.08024 106.192053,136.577246 105.993377,137.074251 C105.794702,137.571257 105.596026,137.968862 105.198675,138.366467 C103.013245,134.788024 104.602649,128.724551 109.271523,124.152096 C111.15894,122.263473 113.344371,120.871856 115.529801,119.977246 C115.033113,119.778443 114.437086,119.579641 113.84106,119.579641 C113.245033,119.579641 112.649007,119.679042 112.152318,119.977246 C111.655629,120.176048 111.15894,120.275449 110.562914,120.275449 C109.966887,120.275449 109.470199,120.176048 108.97351,119.977246 C108.476821,119.778443 107.880795,119.579641 107.284768,119.579641 C106.688742,119.579641 106.092715,119.679042 105.596026,119.977246 C105.099338,120.176048 104.602649,120.275449 104.006623,120.275449 C103.410596,120.275449 102.913907,120.176048 102.417219,119.977246 C101.92053,119.778443 101.324503,119.579641 100.728477,119.579641 C100.13245,119.579641 99.5364238,119.679042 99.0397351,119.977246 C98.5430464,120.176048 98.1456954,120.275449 97.5496689,120.275449 C98.5430464,116.2 103.907285,113.118563 110.463576,113.118563 C113.145695,113.118563 115.728477,113.615569 117.81457,114.609581 C117.615894,114.311377 117.417219,114.013174 117.218543,113.814371 C116.821192,113.416766 116.324503,113.118563 115.827815,112.91976 C115.331126,112.720958 114.834437,112.422754 114.437086,112.02515 C114.039735,111.627545 113.741722,111.130539 113.543046,110.633533 C113.344371,110.136527 113.046358,109.639521 112.649007,109.241916 C112.251656,108.844311 111.754967,108.546108 111.258278,108.347305 C110.761589,108.148503 110.264901,107.850299 109.86755,107.452695 C109.470199,107.05509 109.172185,106.558084 108.97351,106.061078 C108.774834,105.564072 108.476821,105.067066 108.07947,104.669461 C107.682119,104.271856 107.18543,103.973653 106.688742,103.77485 C106.192053,103.576048 105.794702,103.377246 105.397351,102.979641 C108.97351,100.792814 115.033113,102.383234 119.602649,107.05509 C121.589404,109.043114 123.07947,111.329341 123.874172,113.516168 C124.668874,111.329341 126.15894,109.043114 128.145695,107.05509 C132.715232,102.482635 138.774834,100.792814 142.350993,102.979641 C141.953642,103.377246 141.556291,103.576048 141.059603,103.77485 C140.562914,103.973653 140.066225,104.271856 139.668874,104.669461 C139.271523,105.067066 138.97351,105.564072 138.774834,106.061078 C138.576159,106.558084 138.278146,107.05509 137.880795,107.452695 C137.483444,107.850299 136.986755,108.148503 136.490066,108.347305 C135.993377,108.546108 135.496689,108.844311 135.099338,109.241916 C134.701987,109.639521 134.403974,110.136527 134.205298,110.633533 C134.006623,111.130539 133.708609,111.627545 133.311258,112.02515 C132.913907,112.422754 132.417219,112.720958 131.92053,112.91976 C131.423841,113.118563 130.927152,113.416766 130.529801,113.814371 C130.331126,114.013174 130.033113,114.311377 129.933775,114.609581 C132.019868,113.71497 134.602649,113.118563 137.284768,113.118563 C143.84106,113.118563 149.205298,116.2 150.198675,120.275449 C149.701987,120.275449 149.205298,120.176048 148.708609,119.977246 C148.211921,119.778443 147.615894,119.579641 147.019868,119.579641 C146.423841,119.579641 145.827815,119.679042 145.331126,119.977246 C144.834437,120.176048 144.337748,120.275449 143.741722,120.275449 C143.145695,120.275449 142.649007,120.176048 142.152318,119.977246 C141.655629,119.778443 141.059603,119.579641 140.463576,119.579641 C139.86755,119.579641 139.271523,119.679042 138.774834,119.977246 C138.278146,120.176048 137.781457,120.275449 137.18543,120.275449 C136.589404,120.275449 136.092715,120.176048 135.596026,119.977246 C135.099338,119.778443 134.503311,119.579641 133.907285,119.579641 C133.311258,119.579641 132.715232,119.679042 132.218543,119.977246 C133.807947,120.673054 135.89404,122.064671 137.880795,124.052695 L137.880795,124.052695 L137.880795,124.052695 Z" id="Shape" sketch:type="MSShapeGroup"></path>
        </g>
    </g>
</svg>