<?xml version="1.0" encoding="UTF-8" standalone="no"?>
<svg width="150px" height="152px" viewBox="0 0 150 152" version="1.1" xmlns="http://www.w3.org/2000/svg" xmlns:xlink="http://www.w3.org/1999/xlink" xmlns:sketch="http://www.bohemiancoding.com/sketch/ns">
    <!-- Generator: Sketch 3.1.1 (8761) - http://www.bohemiancoding.com/sketch -->
    <title>nature_leaf</title>
    <desc>Created with Sketch.</desc>
    <defs></defs>
    <g id="Page-1" stroke="none" stroke-width="1" fill="none" fill-rule="evenodd" sketch:type="MSPage">
        <g id="nature_leaf" sketch:type="MSLayerGroup" transform="translate(0.000000, 1.000000)" fill="#231F20">
            <path d="M127.680723,52.6363636 C140.60241,59.1818182 149.457831,72.7272727 149.457831,88.2727273 C149.457831,103.636364 140.783133,117 128.13253,123.727273 L148.73494,144.454545 C150.090361,145.818182 150.180723,148 148.825301,149.272727 C147.560241,150.545455 145.391566,150.545455 144.036145,149.181818 L123.433735,128.454545 C116.837349,141.181818 103.554217,149.909091 88.1927711,149.909091 C72.7409639,149.909091 59.2771084,141 52.7710843,128 C59.2771084,115 72.7409639,106.090909 88.1927711,106.090909 C94.0662651,106.090909 99.6686747,107.363636 104.638554,109.636364 L85.4819277,90.3636364 C80.060241,100.181818 69.6686747,106.909091 57.6506024,106.909091 C45.2710843,106.909091 34.5180723,99.7272727 29.2771084,89.3636364 C34.5180723,78.9090909 45.2710843,71.8181818 57.6506024,71.8181818 C61.7168675,71.8181818 65.6024096,72.5454545 69.2168675,74 L55.2108434,59.7272727 C50.7831325,67.2727273 42.6506024,72.3636364 33.3433735,72.3636364 C23.4036145,72.3636364 14.8192771,66.6363636 10.6626506,58.3636364 C14.8192771,50 23.4036145,44.3636364 33.3433735,44.3636364 C36.0542169,44.3636364 38.6746988,44.8181818 41.1144578,45.5454545 L29.8192771,34.1818182 C21.9578313,35.4545455 13.7349398,33.0909091 7.68072289,27 C0.722891566,20 -1.35542169,9.81818182 1.53614458,0.909090909 C10.3915663,-2 20.4216867,0.0909090909 27.4698795,7.09090909 C33.5240964,13.1818182 35.873494,21.5454545 34.6084337,29.3636364 L45.813253,40.6363636 C45,38.1818182 44.6385542,35.5454545 44.6385542,32.8181818 C44.6385542,22.8181818 50.3313253,14.1818182 58.5542169,10 C66.8674699,14.1818182 72.4698795,22.8181818 72.4698795,32.8181818 C72.4698795,42.1818182 67.4096386,50.4545455 59.9096386,54.9090909 L74.0060241,69.0909091 C72.6506024,65.4545455 71.8373494,61.5454545 71.8373494,57.4545455 C71.8373494,45 78.9759036,34.1818182 89.2771084,28.9090909 C99.6686747,34.1818182 106.716867,45 106.716867,57.4545455 C106.716867,69.5454545 100.120482,80 90.2710843,85.4545455 L109.427711,104.727273 C107.168675,99.7272727 105.903614,94.0909091 105.903614,88.1818182 C105.903614,72.7272727 114.759036,59.1818182 127.680723,52.6363636 L127.680723,52.6363636 L127.680723,52.6363636 Z" id="Shape" sketch:type="MSShapeGroup"></path>
        </g>
    </g>
</svg>