<?xml version="1.0" encoding="utf-8"?>
<!-- Generator: Adobe Illustrator 18.1.0, SVG Export Plug-In . SVG Version: 6.00 Build 0)  -->
<!DOCTYPE svg PUBLIC "-//W3C//DTD SVG 1.1//EN" "http://www.w3.org/Graphics/SVG/1.1/DTD/svg11.dtd">
<svg version="1.1" id="Layer_1" xmlns="http://www.w3.org/2000/svg" xmlns:xlink="http://www.w3.org/1999/xlink" x="0px" y="0px"
	 width="110px" height="99.4px" viewBox="0 0 110 99.4" enable-background="new 0 0 110 99.4" xml:space="preserve">
<path fill="#231F20" d="M10.6,41.5h-6c-1.5,0-2.7-1.2-2.7-2.7v-9.4c0-3.5,5.5-3.5,5.5,0V36h3.2l0-12.3c0-3.5,5.4-3.5,5.4,0V47h3.2
	v-6.6c0-3.5,5.5-3.5,5.4,0v9.4c0,1.5-1.2,2.7-2.7,2.7h-6v25.8h-5.2l-0.2,0l0-15.6h-6c-1.5,0-2.7-1.2-2.7-2.7v-9.4
	c0-3.5,5.5-3.5,5.5,0v6.6h3.2V41.5L10.6,41.5z M50,37.2H39.1c-2.7,0-5-2.3-5-5V15.1c0-6.4,10-6.4,10,0v12.2H50l0-22.4
	c0-6.4,10-6.4,10,0v42.6h5.9V35.2c0-6.4,10-6.4,10,0v17.2c0,2.7-2.3,5-5,5H60v42.1h-9.6l-0.4,0L50,76H39.1c-2.7,0-5-2.3-5-5V53.8
	c0-6.4,10-6.4,10,0V66H50L50,37.2L50,37.2z M93.9,41.5h-6c-1.5,0-2.7-1.2-2.7-2.7v-9.4c0-3.5,5.4-3.5,5.4,0V36h3.2l0-12.3
	c0-3.5,5.5-3.5,5.5,0V47h3.2v-6.6c0-3.5,5.5-3.5,5.4,0v9.4c0,1.5-1.2,2.7-2.7,2.7h-6l0,25.8h-5.2l-0.2,0l0-15.6h-6
	c-1.5,0-2.7-1.2-2.7-2.7v-9.4c0-3.5,5.4-3.5,5.4,0v6.6h3.2L93.9,41.5L93.9,41.5z"/>
</svg>
