<?xml version="1.0" encoding="UTF-8" standalone="no"?>
<svg width="151px" height="90px" viewBox="0 0 151 90" version="1.1" xmlns="http://www.w3.org/2000/svg" xmlns:xlink="http://www.w3.org/1999/xlink" xmlns:sketch="http://www.bohemiancoding.com/sketch/ns">
    <!-- Generator: Sketch 3.1.1 (8761) - http://www.bohemiancoding.com/sketch -->
    <title>nature_mountain</title>
    <desc>Created with Sketch.</desc>
    <defs></defs>
    <g id="Page-1" stroke="none" stroke-width="1" fill="none" fill-rule="evenodd" sketch:type="MSPage">
        <g id="nature_mountain" sketch:type="MSLayerGroup" fill="#231F20">
            <path d="M23.0337079,55.245283 L31.1797753,50.6037736 L42.3033708,60.9056604 L52.5842697,50.6037736 L60.7303371,55.245283 L41.8539326,21 L23.0337079,55.245283 L23.0337079,55.245283 Z M89.3820225,55.245283 L97.5280899,50.6037736 L108.651685,60.9056604 L118.932584,50.6037736 L127.078652,55.245283 L108.258427,21 L89.3820225,55.245283 L89.3820225,55.245283 Z M61.4044944,30 L67.3033708,26.6603774 L75.3932584,34.0754717 L82.8089888,26.6037736 L88.7078652,29.9433962 L75.0561798,5.20754717 L61.4044944,30 L61.4044944,30 Z M95.4494382,37.0754717 L108.258427,13.754717 L150.11236,90 L0,90 L41.8539326,13.8113208 L54.6629213,37.1320755 L75.0561798,0 L95.4494382,37.0754717 L95.4494382,37.0754717 Z" id="Shape" sketch:type="MSShapeGroup"></path>
        </g>
    </g>
</svg>