<?xml version="1.0" encoding="utf-8"?>
<!-- Generator: Adobe Illustrator 18.1.0, SVG Export Plug-In . SVG Version: 6.00 Build 0)  -->
<!DOCTYPE svg PUBLIC "-//W3C//DTD SVG 1.1//EN" "http://www.w3.org/Graphics/SVG/1.1/DTD/svg11.dtd">
<svg version="1.1" id="Layer_1" xmlns="http://www.w3.org/2000/svg" xmlns:xlink="http://www.w3.org/1999/xlink" x="0px" y="0px"
	 width="110px" height="82.8px" viewBox="0 0 110 82.8" enable-background="new 0 0 110 82.8" xml:space="preserve">
<path fill="#231F20" d="M105.6,22.2l-0.1-0.4c-1-3.7-3.9-6.6-7.6-7.7c1-0.5,1.9-1.1,2.7-1.9c2.6-2.6,3.5-6.4,2.6-9.7L91.5,14.1
	c-3.1,0.9-5.6,3.2-6.9,6.1l-0.2,0.3c-2,2.9-5.3,4.5-9.1,4.5c-2,0-3.9-0.5-5.6-1.5l-0.1-0.1c-3.9-2.3-8.2-3.3-13.1-3.3
	c-14.8,0-26.7,12-26.7,26.7c0,0.7,0,1.5,0.1,2.2v15.6c0,7.9-6.4,14.4-14.4,14.4H0.4H0c0,1.8,2,3.8,5.3,3.8h5.9h4.4h5.9
	c7.9,0,13.6-6.1,16-14.4l1.3-7.2c5.1,4,11.7,5.2,17.7,3.5l0-1.8c0-2.6-2-4.7-4.5-4.9L52,57c3.1,0.3,5.6,2.9,5.6,6l0,1.4c0,0,0,0,0,0
	v15.7c0,1.4,1.2,2.6,2.6,2.6h26.1h0.6c-0.8-2.5-2.9-3.9-5.6-3.9h-5.6h-1.8h-6.2c-2.6,0-4.7-2.1-4.7-4.7V61.5c0.1,0,0.1-0.1,0.2-0.1
	l0-11.6c0-6.9-5.6-12.5-12.5-12.5c-6.9,0-12.5,5.6-12.5,12.5H37c0-7.5,6.1-13.6,13.6-13.6s13.6,6.1,13.6,13.6l0,1.1v9.5
	c0.3-0.3,0.6-0.5,0.8-0.8l6.4-6.4l2.3-2.4l4.9-4.9l10.9,10.7l-2.1,2.6c0.5,0.6,1.2,0.9,2,1c1.6,0.1,3-1.1,3.2-2.8
	c0.1-0.8-0.2-1.5-0.7-2.1l0,0L80.6,44.2l0,0l-0.5-0.5c-1.5-1.5-2.3-3.5-2.3-5.6c0-2.1,0.8-4.1,2.3-5.6l0.8,0.8c-1.3,1.3-2,3-2,4.8
	c0,1.8,0.7,3.5,2,4.8l0.4,0.4l4.8-4.8c2.7-2.7,4.8-7.3,5.7-11c-1.5-0.9-2.5-2.5-2.5-4.4c0-2,1.2-3.8,2.9-4.6l0.5,1
	c-1.4,0.7-2.3,2.1-2.3,3.6c0,2.2,1.8,4,4,4c0.7,0,1.3-0.2,1.9-0.5l0.5,1c-0.7,0.4-1.6,0.6-2.4,0.6l8.3,5.1c1.4,0.9,2.9,1.2,4.3,0.9
	c0.2-1.3,0.7-2.5,1.4-3.6L105.6,22.2z M102.3,22.4c-0.5,0-0.9-0.4-0.9-0.9c0-0.5,0.4-0.9,0.9-0.9c0.5,0,0.9,0.4,0.9,0.9
	C103.2,22.1,102.8,22.4,102.3,22.4z"/>
</svg>
