<?xml version="1.0" encoding="UTF-8" standalone="no"?>
<svg width="151px" height="107px" viewBox="0 0 151 107" version="1.1" xmlns="http://www.w3.org/2000/svg" xmlns:xlink="http://www.w3.org/1999/xlink" xmlns:sketch="http://www.bohemiancoding.com/sketch/ns">
    <!-- Generator: Sketch 3.1.1 (8761) - http://www.bohemiancoding.com/sketch -->
    <title>animals_elephant</title>
    <desc>Created with Sketch.</desc>
    <defs></defs>
    <g id="Page-1" stroke="none" stroke-width="1" fill="none" fill-rule="evenodd" sketch:type="MSPage">
        <g id="animals_elephant" sketch:type="MSLayerGroup" transform="translate(0.000000, 1.000000)" fill="#231F20">
            <g id="Group" sketch:type="MSShapeGroup">
                <path d="M15.5621302,74.9872521 C17.7514793,73.6487252 19.3195266,74.1246459 21.0650888,71.5070822 C22.0414201,70.0495751 21.6863905,68.0566572 20.2071006,67.0453258 C19.0532544,66.2422096 17.6035503,66.1529745 16.2130178,66.8668555 L16.2130178,66.8668555 C16.2130178,66.8668555 14.3195266,67.8186969 12.9585799,71.1798867 C12.3964497,72.6076487 12.2781065,76.98017 13.9053254,78.2889518 C13.7573964,76.6529745 14.6449704,75.5524079 15.5621302,74.9872521 L15.5621302,74.9872521 Z" id="Shape"></path>
                <path d="M6.06508876,75.9688385 C3.87573964,74.6303116 2.30769231,75.1062323 0.562130178,72.4886686 C-0.414201183,71.0311615 -0.0591715976,69.0382436 1.42011834,68.0566572 C2.5739645,67.2535411 4.02366864,67.1643059 5.41420118,67.878187 L5.41420118,67.878187 C5.41420118,67.878187 7.30769231,68.8300283 8.66863905,72.1912181 C9.23076923,73.6189802 9.34911243,77.9915014 7.72189349,79.3002833 C7.86982249,77.6345609 6.98224852,76.5339943 6.06508876,75.9688385 L6.06508876,75.9688385 Z" id="Shape"></path>
                <path d="M9.85207101,64.1898017 C8.66863905,61.8994334 7.07100592,61.5127479 6.89349112,58.3597734 C6.80473373,56.6048159 8.13609467,55.0878187 9.8816568,54.9688385 C11.3017751,54.8796034 12.5739645,55.5339943 13.4023669,56.9022663 L13.4023669,56.9022663 C13.4023669,56.9022663 14.556213,58.7167139 13.9940828,62.286119 C13.7573964,63.8031161 11.6272189,67.6104816 9.55621302,67.907932 C10.5621302,66.5694051 10.3254438,65.1416431 9.85207101,64.1898017 L9.85207101,64.1898017 Z" id="Shape"></path>
                <path d="M77.2781065,-0.11898017 C73.5207101,-0.11898017 70.0887574,1.24929178 67.3964497,3.50991501 L67.3964497,4.25354108 C74.9408284,5.05665722 83.5207101,8.86402266 92.5739645,14.3073654 C92.0414201,6.24645892 85.4142012,-0.11898017 77.2781065,-0.11898017 L77.2781065,-0.11898017 Z" id="Shape"></path>
                <path d="M147.218935,74.8087819 C146.863905,73.3215297 145.828402,71.6260623 142.840237,71.388102 C142.307692,69.3654391 141.982249,66.6288952 142.307692,62.9405099 C142.366864,62.4050992 142.39645,61.8399433 142.485207,61.2450425 C143.609467,52.2620397 139.556213,48.2464589 136.065089,46.4320113 C121.923077,35.2478754 106.686391,22.7549575 92.5739645,14.2776204 C92.6035503,14.6048159 92.6331361,14.9617564 92.6331361,15.3186969 L92.6331361,27.8116147 C92.6331361,36.3484419 85.7692308,43.2492918 77.2781065,43.2492918 C73.5207101,43.2492918 70.0887574,41.8810198 67.3964497,39.6203966 L67.3964497,4.22379603 C66.1538462,4.10481586 64.9112426,4.04532578 63.7278107,4.07507082 C31.5680473,6.60339943 27.5739645,36.6756374 27.0414201,62.9107649 C26.6272189,83.7322946 28.4023669,99.3186969 20.0591716,99.6756374 C15.3254438,99.7946176 12.9585799,96.0467422 13.4911243,83.7322946 C13.964497,83.4050992 14.3491124,82.8696884 14.4970414,82.0070822 C12.4556213,81.4419263 11.4497041,82.1855524 10.7100592,82.8696884 C10,82.2152975 8.99408284,81.4419263 6.92307692,82.0070822 C7.07100592,82.8994334 7.4852071,83.4348442 7.95857988,83.7620397 C7.81065089,85.9631728 6.80473373,105.029745 19.3195266,105.029745 C46.3905325,105.029745 26.3905325,61.4532578 45.3254438,58.7464589 L45.3254438,76.1473088 C45.2366864,76.3852691 45.2071006,76.6232295 45.2071006,76.8909348 L45.2071006,101.668555 C45.2071006,102.917847 46.2130178,103.929178 47.4852071,103.929178 L47.5443787,103.929178 C47.7514793,102.055241 48.4911243,100.657224 49.3786982,100.657224 C50.2662722,100.657224 51.035503,102.055241 51.2426036,103.929178 L52.6035503,103.929178 C52.8106509,102.055241 53.5502959,100.657224 54.4378698,100.657224 C55.3254438,100.657224 56.0650888,102.055241 56.2721893,103.929178 C57.4556213,103.839943 58.3727811,102.888102 58.3727811,101.668555 L58.3727811,81.7988669 L62.5147929,81.7988669 L62.5147929,101.668555 C62.5147929,102.917847 63.4911243,103.899433 64.7337278,103.929178 C64.9408284,102.055241 65.6804734,100.657224 66.5680473,100.657224 C67.4556213,100.657224 68.2248521,102.055241 68.4319527,103.929178 L69.7928994,103.929178 C70,102.055241 70.739645,100.657224 71.6272189,100.657224 C72.5147929,100.657224 73.2840237,102.055241 73.4615385,103.929178 C74.6745562,103.899433 75.6804734,102.888102 75.6804734,101.668555 L75.6804734,81.7988669 L104.792899,81.7988669 L104.792899,101.668555 C104.792899,102.917847 105.769231,103.899433 107.011834,103.929178 C107.218935,102.055241 107.95858,100.657224 108.846154,100.657224 C109.733728,100.657224 110.473373,102.055241 110.680473,103.929178 L112.04142,103.929178 C112.248521,102.055241 112.988166,100.657224 113.87574,100.657224 C114.763314,100.657224 115.532544,102.055241 115.710059,103.929178 C116.952663,103.899433 117.928994,102.888102 117.928994,101.668555 L117.928994,81.7988669 L122.071006,81.7988669 L122.071006,101.668555 C122.071006,102.917847 123.047337,103.899433 124.289941,103.929178 C124.497041,102.055241 125.236686,100.657224 126.12426,100.657224 C127.011834,100.657224 127.781065,102.055241 127.988166,103.929178 L129.349112,103.929178 C129.556213,102.055241 130.295858,100.657224 131.213018,100.657224 C132.100592,100.657224 132.840237,102.055241 133.047337,103.929178 C134.289941,103.899433 135.266272,102.888102 135.266272,101.668555 L135.266272,81.7988669 L135.295858,81.7988669 L135.295858,55.8611898 C135.650888,53.9575071 135.887574,52.1133144 136.005917,50.3583569 C138.136095,50.9830028 140.35503,52.6189802 140.710059,56.5750708 C140.887574,58.6274788 140.91716,60.7988669 140.976331,62.9405099 C141.065089,66.0934844 141.213018,69.1869688 142.218935,71.8045326 C141.065089,74.184136 141.508876,75.9093484 143.047337,77.5155807 C146.213018,80.490085 150.118343,79.5977337 150.118343,79.5977337 C147.071006,78.5269122 147.662722,76.5934844 147.218935,74.8087819 L147.218935,74.8087819 Z M51.8047337,32.7790368 C50.591716,32.7790368 49.6153846,31.7974504 49.6153846,30.6076487 C49.6153846,29.388102 50.591716,28.4065156 51.8047337,28.4065156 C53.0177515,28.4065156 53.964497,29.388102 53.964497,30.6076487 C53.964497,31.7974504 52.9881657,32.7790368 51.8047337,32.7790368 L51.8047337,32.7790368 Z" id="Shape"></path>
            </g>
        </g>
    </g>
</svg>