<?xml version="1.0" encoding="utf-8"?>
<!-- Generator: Adobe Illustrator 18.1.0, SVG Export Plug-In . SVG Version: 6.00 Build 0)  -->
<!DOCTYPE svg PUBLIC "-//W3C//DTD SVG 1.1//EN" "http://www.w3.org/Graphics/SVG/1.1/DTD/svg11.dtd">
<svg version="1.1" id="Layer_1" xmlns="http://www.w3.org/2000/svg" xmlns:xlink="http://www.w3.org/1999/xlink" x="0px" y="0px"
	 width="110px" height="139.9px" viewBox="0 0 110 139.9" enable-background="new 0 0 110 139.9" xml:space="preserve">
<g>
	<g>
		<g>
			<path fill="#231F20" d="M71.9,77.5v29.9c6.2-0.4,11.1-5.5,11.1-11.9v-18H71.9z"/>
		</g>
		<g>
			<g>
				<path fill="none" d="M32,31.5c-5.1,0-9.7,3-11.8,7.6l2.1,1c1.7-3.8,5.5-6.2,9.7-6.2c4.2,0,8,2.4,9.7,6.2l2.1-1
					C41.7,34.5,37.1,31.5,32,31.5z"/>
			</g>
			<g>
				<polygon fill="none" points="7.4,8.6 12.1,26.2 25,13.3 				"/>
			</g>
			<g>
				<path fill="none" d="M59.6,58.2c-2.3,0-4.2-1.9-4.2-4.2h-0.6h-0.6c0,2.3-1.9,4.2-4.2,4.2c-2.3,0-4.2-1.9-4.2-4.2h-1.2
					c0,3,2.4,5.4,5.4,5.4c2.1,0,3.9-1.2,4.8-3c0.9,1.7,2.7,3,4.8,3c3,0,5.4-2.4,5.4-5.4h-1.2C63.8,56.3,61.9,58.2,59.6,58.2z"/>
			</g>
			<g>
				<path fill="none" d="M60.4,48.6c1-1.2,0.2-2.2-1.8-2.2h-7.4c-2,0-2.8,1-1.8,2.2l3.7,4.5c0.5,0.6,1.2,0.9,1.8,0.9
					c0.7,0,1.3-0.3,1.8-0.9L60.4,48.6z"/>
			</g>
			<g>
				<rect x="10.1" y="48.6" fill="none" width="7.4" height="1.3"/>
			</g>
			<g>
				<rect x="10.1" y="56.4" fill="none" width="7.4" height="1.3"/>
			</g>
			<g>
				<rect x="10.1" y="52.5" fill="none" width="7.4" height="1.3"/>
			</g>
			<g>
				<rect x="92.5" y="56.4" fill="none" width="7.4" height="1.3"/>
			</g>
			<g>
				<rect x="92.5" y="48.6" fill="none" width="7.4" height="1.3"/>
			</g>
			<g>
				<polygon fill="none" points="97.6,26.2 102.3,8.6 84.7,13.3 				"/>
			</g>
			<g>
				<path fill="none" d="M77.7,31.5c-5.1,0-9.7,3-11.8,7.6l2.1,1c1.7-3.8,5.5-6.2,9.7-6.2c4.2,0,8,2.4,9.7,6.2l2.1-1
					C87.4,34.5,82.8,31.5,77.7,31.5z"/>
			</g>
			<g>
				<rect x="92.5" y="52.5" fill="none" width="7.4" height="1.3"/>
			</g>
			<g>
				<path fill="#F7E6CF" d="M40.4,83.8c0,0-1.6,2.8-3.4,6.9h0C38.8,86.5,40.4,83.8,40.4,83.8z"/>
			</g>
			<g>
				<path fill="#F7E6CF" d="M70.7,87.5c-1.1-2.3-1.9-3.7-1.9-3.7S69.6,85.2,70.7,87.5L70.7,87.5z"/>
			</g>
		</g>
		<g>
			<g>
				<path fill="#231F20" d="M77.5,71c-3.1,0-5.6,2.5-5.6,5.6h2.6v-2.8h0.7v2.8h1.9v-2.8h0.7v2.8h1.9v-2.8h0.7v2.8h2.5
					C83.1,73.5,80.6,71,77.5,71z"/>
			</g>
		</g>
		<g>
			<g>
				<g>
					<path fill="#231F20" d="M40.6,125.8c0-2.2,0.5-4.2,1.4-6.1l-6.8-6.8c-1-1-1.8-2.2-2.4-3.4c0,1.7,0.2,3.4,0.6,4.8
						c-7.4-6.3-18.4-1.8-0.8,19.7c0,0-8.5,1.8-4.4,5.9c4.1,0,10.8,0,17.4,0c0,0,3.8,0,9.1,0C46.9,139.9,40.6,133.6,40.6,125.8z"/>
				</g>
			</g>
			<g>
				<g>
					<path fill="#231F20" d="M50.9,111.2c-0.1-0.1-0.2-0.2-0.3-0.3L35.5,95.8c-4.1,4.7-4,11.8,0.5,16.3l6.9,6.9l0,0
						c0.1,0.1,0.1,0.1,0.2,0.2c2.2,2.2,5.7,2.2,7.9,0C53.1,117,53.1,113.4,50.9,111.2z M48,120.5l-2-2l0.5-0.5l2,2L48,120.5z
						 M49.9,118.6l-2-2l0.5-0.5l2,2L49.9,118.6z M49.8,114.8l0.5-0.5l2,2l-0.5,0.5L49.8,114.8z"/>
				</g>
			</g>
		</g>
		<g>
			<g>
				<path fill="#231F20" d="M76.7,134c17.6-21.5,6.7-25.9-0.7-19.7c0.7-2.1,0.8-4.5,0.7-7c-1.4,0.7-3,1.1-4.6,1.2l-1.3,0.1V96.3
					c-4.2,1.2-8.6,1.9-13.2,2.1c0.8,1.4,1.6,3.1,1.6,4c0,1.8-1.5,3.3-3.3,3.3c-1.8,0-3.3-1.5-3.3-3.3c0-0.9,0.8-2.5,1.6-3.9
					c-5.9,0-11.5-0.9-16.9-2.5l14.2,14.2c0.1,0.1,0.2,0.2,0.3,0.2c0.5,0.5,0.8,1,1.1,1.5c0.6-0.1,1.1-0.1,1.7-0.1
					c7.7,0,14,6.3,14,14c0,7.7-6.3,14-14,14c2.7,0,5.9,0,9.1,0c6.5,0,13.3,0,17.4,0C85.2,135.8,76.7,134,76.7,134z"/>
			</g>
		</g>
	</g>
	<g>
		<path fill="#231F20" d="M108.2,9.5c1.4-5.1-1.7-8.2-6.8-6.8l-18.8,5c-1.4,0.4-2.4,0.9-3.2,1.6c-7.2-3.7-15.6-5.7-24.5-5.7
			c-8.9,0-17.2,2.1-24.5,5.7c-0.8-0.7-1.8-1.3-3.2-1.6l-18.8-5C3.2,1.3,0.1,4.4,1.5,9.5l5,18.8c0.4,1.5,1,2.6,1.8,3.4
			C6,37,4.7,42.6,4.7,48.6c0,18.6,12.6,34.6,30.6,41.4l1.9,6l1.7,0.7l-1.9-6c0.1,0,0.2,0.1,0.2,0.1c5.5,1.8,11.4,2.8,17.5,2.8
			c5.6,0,10.9-0.8,15.9-2.3V77.8v-1.2v-0.7h0c0.3-3.4,3.2-6.1,6.7-6.1c3.5,0,6.4,2.7,6.7,6.1h0V85c12.5-8.2,20.7-21.4,20.7-36.4
			c0-5.9-1.3-11.6-3.6-16.8c0.8-0.8,1.4-1.9,1.8-3.4L108.2,9.5z M7.4,8.6L25,13.3L12.1,26.2L7.4,8.6z M17.5,57.6h-7.4v-1.3h7.4V57.6
			z M17.5,53.7h-7.4v-1.3h7.4V53.7z M17.5,49.8h-7.4v-1.3h7.4V49.8z M41.7,40.1c-1.7-3.8-5.5-6.2-9.7-6.2c-4.2,0-8,2.4-9.7,6.2
			l-2.1-1c2.1-4.6,6.7-7.6,11.8-7.6c5.1,0,9.7,3,11.8,7.6L41.7,40.1z M59.6,59.4c-2.1,0-3.9-1.2-4.8-3c-0.9,1.7-2.7,3-4.8,3
			c-3,0-5.4-2.4-5.4-5.4h1.2c0,2.3,1.9,4.2,4.2,4.2c2.3,0,4.2-1.9,4.2-4.2h0.6c-0.7,0-1.3-0.3-1.8-0.9l-3.7-4.5
			c-1-1.2-0.2-2.2,1.8-2.2h7.4c2,0,2.8,1,1.8,2.2l-3.7,4.5c-0.5,0.6-1.2,0.9-1.8,0.9h0.6c0,2.3,1.9,4.2,4.2,4.2
			c2.3,0,4.2-1.9,4.2-4.2H65C65,56.9,62.6,59.4,59.6,59.4z M87.4,40.1c-1.7-3.8-5.5-6.2-9.7-6.2c-4.2,0-8,2.4-9.7,6.2l-2.1-1
			c2.1-4.6,6.8-7.6,11.8-7.6c5.1,0,9.7,3,11.8,7.6L87.4,40.1z M100,57.7h-7.4v-1.3h7.4V57.7z M100,53.8h-7.4v-1.3h7.4V53.8z
			 M100,49.9h-7.4v-1.3h7.4V49.9z M97.6,26.2L84.7,13.3l17.6-4.7L97.6,26.2z"/>
	</g>
</g>
</svg>
