<?xml version="1.0" encoding="UTF-8" standalone="no"?>
<svg width="151px" height="71px" viewBox="0 0 151 71" version="1.1" xmlns="http://www.w3.org/2000/svg" xmlns:xlink="http://www.w3.org/1999/xlink" xmlns:sketch="http://www.bohemiancoding.com/sketch/ns">
    <!-- Generator: Sketch 3.1.1 (8761) - http://www.bohemiancoding.com/sketch -->
    <title>animals_beaver</title>
    <desc>Created with Sketch.</desc>
    <defs></defs>
    <g id="Page-1" stroke="none" stroke-width="1" fill="none" fill-rule="evenodd" sketch:type="MSPage">
        <g id="animals_beaver" sketch:type="MSLayerGroup" fill="#231F20">
            <g id="Group" sketch:type="MSShapeGroup">
                <path d="M150.087591,22.8925234 C150.087591,25.5024922 148.007299,27.6037383 145.423358,27.6037383 L144.722628,27.6037383 L144.722628,23.2906542 C147.131387,20.0613707 148.970803,16.3676012 150.087591,12.3862928 L150.087591,22.8925234 L150.087591,22.8925234 Z" id="Shape"></path>
                <path d="M105.678832,5.37476636 C105.678832,7.49813084 107.364964,9.20124611 109.467153,9.20124611 C111.569343,9.20124611 113.255474,7.49813084 113.255474,5.37476636 C113.255474,3.25140187 111.547445,1.5482866 109.467153,1.5482866 C107.364964,1.5482866 105.678832,3.27352025 105.678832,5.37476636 L105.678832,5.37476636 Z" id="Shape"></path>
                <g transform="translate(45.547445, 0.000000)" id="Shape">
                    <path d="M0.0875912409,70.8894081 L34.0072993,70.8894081 L34.0072993,70.4249221 C34.0072993,66.7090343 37.0072993,63.6788162 40.6861314,63.6788162 L56.8467153,63.6788162 C57.810219,63.6788162 58.7080292,63.8778816 59.540146,64.2538941 C64.5547445,60.8476636 69.2627737,56.976947 73.5547445,52.7080997 L81.1970803,52.7523364 L81.7007299,60.0514019 C83.3430657,60.1841121 85.0291971,59.6975078 86.3868613,58.547352 C89.1021898,56.2470405 89.4525547,52.1330218 87.1751825,49.3903427 C86.0583942,48.0411215 84.5036496,47.2669782 82.9051095,47.1121495 L82.8832117,47.1121495 L71.0145985,47.2448598 C62.7372263,47.0679128 56.1678832,40.1448598 56.3430657,31.7841121 L57.5255474,31.8062305 C57.3722628,39.5034268 63.4379562,45.8956386 71.0364964,46.0504673 L79.6861314,46.0283489 C80.2116788,45.4090343 80.7372263,44.811838 81.2189781,44.1925234 C81.2408759,43.7722741 81.2408759,43.3520249 81.2408759,42.9317757 C81.2408759,39.9900312 80.9343066,37.1146417 80.3430657,34.3277259 C92.9781022,31.3638629 102.678832,20.6806854 104.321168,7.47601246 C98.8686131,2.80903427 91.7956204,0 84.0656934,0 C78.3941606,0 73.0729927,1.52616822 68.4963504,4.18037383 C68.6058394,4.55638629 68.6715328,4.95451713 68.6715328,5.37476636 C68.6715328,8.02897196 66.5474453,10.1744548 63.919708,10.1744548 C61.7080292,10.1744548 59.8686131,8.6482866 59.3430657,6.56915888 C53.7372263,3.62741433 47.3868613,1.92429907 40.620438,1.92429907 C18.1970803,1.92429907 -1.95528913e-14,20.2825545 -1.95528913e-14,42.9538941 C0.0218978102,43.7722741 0.0437956204,59.188785 0.0875912409,70.8894081 L0.0875912409,70.8894081 Z M84.1532847,7.29906542 C84.1532847,5.994081 85.1824818,4.95451713 86.4744526,4.95451713 C87.7445255,4.95451713 88.7956204,5.994081 88.7956204,7.29906542 C88.7956204,8.58193146 87.7664234,9.64361371 86.4744526,9.64361371 C85.1824818,9.64361371 84.1532847,8.58193146 84.1532847,7.29906542 L84.1532847,7.29906542 Z"></path>
                    <path d="M35.189781,70.8894081 L35.189781,70.4249221 C35.189781,67.3504673 37.6423358,64.8732087 40.6861314,64.8732087 L56.8467153,64.8732087 C59.8905109,64.8732087 62.3430657,67.3504673 62.3430657,70.4249221 L62.3430657,70.8894081 L35.189781,70.8894081 L35.189781,70.8894081 Z"></path>
                </g>
                <path d="M0.0218978102,70.1152648 C0.0218978102,64.9174455 4.18248175,60.7149533 9.32846715,60.7149533 L44.5839416,60.7149533 L44.5839416,70.9115265 L0.0218978102,70.9115265 L0.0218978102,70.1152648 L0.0218978102,70.1152648 Z" id="Shape"></path>
            </g>
        </g>
    </g>
</svg>