<?xml version="1.0" encoding="UTF-8" standalone="no"?>
<svg width="151px" height="161px" viewBox="0 0 151 161" version="1.1" xmlns="http://www.w3.org/2000/svg" xmlns:xlink="http://www.w3.org/1999/xlink" xmlns:sketch="http://www.bohemiancoding.com/sketch/ns">
    <!-- Generator: Sketch 3.1.1 (8761) - http://www.bohemiancoding.com/sketch -->
    <title>animals_moose</title>
    <desc>Created with Sketch.</desc>
    <defs></defs>
    <g id="Page-1" stroke="none" stroke-width="1" fill="none" fill-rule="evenodd" sketch:type="MSPage">
        <g id="animals_moose" sketch:type="MSLayerGroup" fill="#231F20">
            <g id="Group" sketch:type="MSShapeGroup">
                <path d="M25.0763359,76.7185053 L11.5076336,76.7185053 L22.9580153,67.8377224 L25.0763359,76.7185053 Z" id="Shape"></path>
                <path d="M76.0877863,157.103915 C76.0305344,156.702847 75.9732824,157.504982 75.9732824,157.103915 C75.8587786,148.108541 76.3740458,136.019217 77.7480916,122.096441 C79.2366412,113.502135 80.7824427,108.345552 82.5572519,104.334875 L71.6221374,104.506762 L71.221374,157.103915 L76.0877863,157.103915 L76.0877863,157.103915 Z" id="Shape"></path>
                <path d="M88.4541985,160.598932 C88.3969466,160.197865 88.3396947,161 88.3396947,160.598932 C88.2251908,151.603559 88.740458,139.514235 90.1145038,125.591459 C94.4656489,99.9231317 99.6755725,105.423488 108.435115,77.6352313 L84.1030534,91.9590747 L83.5877863,160.598932 L88.4541985,160.598932 L88.4541985,160.598932 Z" id="Shape"></path>
                <path d="M0,156.530961 L4.1221374,156.530961 C6.41221374,132.065836 14.8854962,122.382918 25.1335878,111.95516 C24.5038168,107.25694 22.7290076,102.959786 20.0381679,99.3501779 L19.6374046,98.7772242 C17.8053435,96.3708185 16.4312977,93.6206406 15.629771,90.5839858 C16.2022901,96.3135231 15.4007634,102.272242 12.9389313,107.944484 C10.9923664,112.413523 8.1870229,116.252313 4.80916031,119.346263 L4.7519084,119.518149 C5.26717557,123.299644 5.20992366,127.19573 4.63740458,131.03452 L0,156.530961 L0,156.530961 Z" id="Shape"></path>
                <path d="M70.0763359,9.62562278 C70.0763359,16.1 75.3435115,21.313879 81.7557252,21.313879 L89.4847328,21.313879 L106.145038,21.313879 L109.179389,21.313879 C112.729008,21.313879 115.706107,24.2359431 115.706107,27.8455516 C116.793893,27.5017794 117.881679,27.3871886 118.969466,27.3871886 C120,27.3871886 120.973282,27.5017794 121.889313,27.7882562 L121.889313,22.5170819 C121.889313,20.7409253 122.633588,19.0793594 123.778626,17.933452 L123.835878,17.8761566 C125.896947,15.7562278 127.21374,12.8914591 127.21374,9.68291815 L127.21374,4.23985765 L127.156489,3.0366548 L127.156489,2.1772242 C127.156489,1.14590747 126.29771,0.229181495 125.267176,0.229181495 C124.236641,0.229181495 123.377863,1.0886121 123.377863,2.1772242 L123.377863,3.32313167 L123.320611,3.83879004 L123.320611,4.3544484 C123.320611,5.38576512 122.461832,6.24519573 121.374046,6.24519573 C120.343511,6.24519573 119.484733,5.38576512 119.484733,4.3544484 L119.484733,3.55231317 L119.484733,3.09395018 L119.484733,2.23451957 C119.484733,1.20320285 118.625954,0.286476868 117.59542,0.286476868 C116.564885,0.286476868 115.706107,1.14590747 115.706107,2.23451957 L115.706107,3.38042705 L115.706107,3.78149466 L115.706107,4.29715302 C115.706107,5.32846975 114.847328,6.18790036 113.759542,6.18790036 C112.729008,6.18790036 111.870229,5.32846975 111.870229,4.29715302 L111.870229,3.49501779 L111.870229,3.0366548 L111.870229,2.1772242 C111.870229,1.14590747 111.01145,0.229181495 109.923664,0.229181495 C108.89313,0.229181495 108.034351,1.0886121 108.034351,2.1772242 L108.034351,3.32313167 L108.034351,3.78149466 L108.034351,4.29715302 C108.034351,5.32846975 107.175573,6.18790036 106.145038,6.18790036 C105.114504,6.18790036 104.198473,5.32846975 104.198473,4.29715302 L104.198473,3.49501779 L104.198473,3.0366548 L104.198473,2.1772242 C104.198473,1.14590747 103.339695,0.286476868 102.30916,0.286476868 C101.278626,0.286476868 100.419847,1.14590747 100.419847,2.1772242 L100.419847,3.32313167 L100.419847,3.78149466 L100.419847,4.29715302 C100.419847,5.32846975 99.5610687,6.18790036 98.4732824,6.18790036 C97.4427481,6.18790036 96.5839695,5.32846975 96.5839695,4.29715302 L96.5839695,3.49501779 L96.5839695,3.0366548 L96.5839695,2.1772242 C96.5839695,1.14590747 95.7251908,0.229181495 94.6946565,0.229181495 C93.6641221,0.229181495 92.8053435,1.0886121 92.8053435,2.1772242 L92.8053435,3.32313167 L92.8625954,3.78149466 L92.8625954,4.29715302 C92.8625954,5.32846975 92.0038168,6.18790036 90.9732824,6.18790036 C89.9427481,6.18790036 89.0839695,5.32846975 89.0839695,4.29715302 L89.0839695,3.49501779 L89.0839695,3.0366548 L89.0839695,2.1772242 C89.0839695,1.14590747 88.2251908,0.229181495 87.1946565,0.229181495 C86.1641221,0.229181495 85.3053435,1.0886121 85.3053435,2.1772242 L85.3053435,3.32313167 L85.3625954,3.78149466 L85.3625954,4.29715302 C85.3625954,5.32846975 84.5038168,6.18790036 83.4160305,6.18790036 C82.3854962,6.18790036 81.5267176,5.32846975 81.5267176,4.29715302 L81.5267176,3.49501779 L81.5267176,3.0366548 L81.5267176,2.1772242 C81.5267176,1.14590747 80.6679389,0.286476868 79.6374046,0.286476868 C78.6068702,0.286476868 77.6908397,1.14590747 77.6908397,2.1772242 L77.6908397,3.32313167 L77.6908397,3.38042705 L77.6908397,4.3544484 C77.6908397,5.38576512 76.8320611,6.24519573 75.8015267,6.24519573 C74.7709924,6.24519573 73.8549618,5.38576512 73.8549618,4.3544484 L73.8549618,3.49501779 L73.8549618,3.0366548 L73.8549618,2.1772242 C73.8549618,1.14590747 72.9961832,0.286476868 71.9656489,0.286476868 C70.9351145,0.286476868 70.0763359,1.14590747 70.0763359,2.1772242 L70.0763359,3.32313167 L70.1335878,4.3544484 L70.1335878,9.62562278 L70.0763359,9.62562278 L70.0763359,9.62562278 Z" id="Shape"></path>
                <path d="M144.274809,40.4505338 L128.187023,33.9188612 C126.183206,30.9967972 122.805344,29.0487544 119.026718,29.0487544 C117.709924,29.0487544 116.507634,29.2779359 115.362595,29.6790036 C115.133588,29.6790036 114.847328,29.6217082 114.561069,29.6217082 C108.60687,29.6217082 103.225191,32.0281139 99.3320611,35.9814947 C80.8969466,52.8263345 75.8015267,64.4 40.4770992,64.4 L35.7251908,64.4 C35.0381679,64.3427046 34.351145,64.2854093 33.6068702,64.2854093 C28.3969466,64.2854093 23.759542,66.5199288 20.4389313,70.072242 L20.0954198,70.1868327 C17.2328244,73.6818505 15.5725191,78.0935943 15.5725191,82.9637011 C15.5725191,86.8597865 16.6603053,90.469395 18.5496183,93.5633452 C19.2366412,94.9384342 20.0381679,96.2562278 20.9541985,97.4594306 L21.3549618,98.0323843 C24.7328244,102.616014 26.7366412,108.288256 26.7366412,114.418861 C26.7366412,119.231673 25.4770992,123.815302 23.3015267,127.768683 L23.6450382,128.341637 L35.5534351,160.197865 L42.9961832,160.197865 C25.3625954,138.081851 31.4312977,119.518149 36.9847328,104.449466 L36.9274809,104.392171 L37.2709924,103.53274 C37.3854962,103.246263 37.4427481,103.017082 37.5572519,102.7879 L72.5381679,102.7879 C96.0687023,102.7879 106.259542,93.1622776 113.473282,60.5039146 L113.645038,59.7590747 C115.133588,55.4619217 119.255725,52.3106762 124.064885,52.3106762 L130.534351,52.3106762 C134.484733,52.3106762 137.977099,54.430605 139.923664,57.5818505 L140.038168,57.7537367 C140.267176,58.1548043 140.667939,58.3839858 141.240458,58.3839858 L145.19084,58.3839858 C145.992366,58.3839858 146.679389,57.8683274 146.965649,57.1807829 L147.080153,56.9516014 L149.828244,50.1907473 C150.858779,47.3259786 148.740458,42.2266904 144.274809,40.4505338 L144.274809,40.4505338 Z M122.633588,37.8149466 C121.603053,37.8149466 120.801527,37.0128114 120.801527,35.9814947 C120.801527,34.9501779 121.660305,34.1480427 122.633588,34.1480427 C123.664122,34.1480427 124.465649,35.0074733 124.465649,35.9814947 C124.465649,37.0128114 123.664122,37.8149466 122.633588,37.8149466 L122.633588,37.8149466 Z" id="Shape"></path>
            </g>
        </g>
    </g>
</svg>