<?xml version="1.0" encoding="utf-8"?>
<!-- Generator: Adobe Illustrator 18.1.0, SVG Export Plug-In . SVG Version: 6.00 Build 0)  -->
<!DOCTYPE svg PUBLIC "-//W3C//DTD SVG 1.1//EN" "http://www.w3.org/Graphics/SVG/1.1/DTD/svg11.dtd">
<svg version="1.1" id="Layer_1" xmlns="http://www.w3.org/2000/svg" xmlns:xlink="http://www.w3.org/1999/xlink" x="0px" y="0px"
	 width="110px" height="93px" viewBox="0 0 110 93" enable-background="new 0 0 110 93" xml:space="preserve">
<g>
	<path fill="#231F20" d="M103.1,33.4c-1,1.7-2.6,3.2-4.7,4.4c0.7,3.1,1,6.4,1,9.7c0,3.5-0.4,6.9-1.1,10.2c2.2,1.2,3.8,2.8,4.8,4.5
		c2.9-3.9,4.6-8.9,4.6-14.4C107.7,42.3,106,37.3,103.1,33.4z"/>
	<g>
		<path fill="#231F20" d="M23.9,24.1c-9.2,8-17.1,17.5-20.5,21.8c-0.3-0.4-0.7-0.6-1.2-0.6c-0.9,0-1.6,0.7-1.6,1.6
			c0,0.6,0.3,1.1,0.9,1.4c-0.5,0.3-0.9,0.8-0.9,1.4c0,0.9,0.7,1.6,1.6,1.6c0.5,0,0.9-0.2,1.2-0.6C6.8,55,14.6,64.5,23.9,72.5
			c3.4-6.7,5.4-15.1,5.4-24.2C29.2,39.2,27.2,30.8,23.9,24.1z M15.6,47.2c-1.3,0-2.4-1.1-2.4-2.4s1.1-2.4,2.4-2.4
			c1.3,0,2.4,1.1,2.4,2.4S16.9,47.2,15.6,47.2z"/>
	</g>
	<path fill="#231F20" d="M49.9,87.9c-1.8,0-3.7-0.3-5.6-0.8c8,6.4,24.3,12.7,49-12.4c-0.3-6.6-3.6-11.3-5.5-13.6
		C82.1,77,67.1,87.9,49.9,87.9z"/>
	<path fill="#231F20" d="M85.9,30.1c1.7-2.4,4.5-7.6,3.9-14.5C61.4-6.6,46,2.8,39.1,10.2c3.9-1.7,7.4-2.6,10.7-2.6
		C65.5,7.7,79.3,16.7,85.9,30.1z"/>
	<path fill="#231F20" d="M96.7,38.4c-2.6,1.3-5.8,2.2-9.3,2.6c-3.2-17.6-18.6-30.9-37.1-30.9c-7.8,0-16.5,5.2-24.4,11.8
		c3.4,7.3,5.4,16.2,5.4,25.8c0,9.7-2,18.6-5.4,25.9c7.9,6.6,16.6,11.8,24.4,11.8c18.5,0,33.9-13.3,37.1-30.9
		c3.5,0.4,6.6,1.3,9.2,2.6c0.5-3.2,0.7-6.4,0.7-9.7C97.3,44.4,97.1,41.4,96.7,38.4z M36.6,60.5c0.9-4,1.4-8.6,1.4-13.4
		c0-4.8-0.5-9.4-1.4-13.4c2.4,3.4,3.9,8.1,3.9,13.4C40.5,52.4,39,57.2,36.6,60.5z M46.3,63.8c1.1-5,1.7-10.6,1.7-16.6
		s-0.6-11.6-1.7-16.6c3,4.2,4.9,10.1,4.9,16.6C51.2,53.7,49.3,59.6,46.3,63.8z M57,63.7c1.2-5.3,1.8-11.3,1.8-17.7
		c0-6.4-0.7-12.4-1.8-17.7c3.2,4.4,5.2,10.7,5.2,17.7C62.2,53,60.2,59.3,57,63.7z M65.6,68.9c1.5-6.9,2.4-14.6,2.4-22.9
		s-0.9-16-2.4-22.9c4.1,5.7,6.7,13.9,6.7,22.9C72.3,55.1,69.7,63.2,65.6,68.9z"/>
</g>
</svg>
