<?xml version="1.0" encoding="utf-8"?>
<!-- Generator: Adobe Illustrator 18.1.0, SVG Export Plug-In . SVG Version: 6.00 Build 0)  -->
<!DOCTYPE svg PUBLIC "-//W3C//DTD SVG 1.1//EN" "http://www.w3.org/Graphics/SVG/1.1/DTD/svg11.dtd">
<svg version="1.1" id="Layer_1" xmlns="http://www.w3.org/2000/svg" xmlns:xlink="http://www.w3.org/1999/xlink" x="0px" y="0px"
	 width="110px" height="83px" viewBox="0 0 110 83" enable-background="new 0 0 110 83" xml:space="preserve">
<g>
	<g>
		<polygon fill="#231F20" points="75.5,79.3 74.4,79.3 74.9,81.1 75.5,83 76,81.1 76.6,79.3 		"/>
	</g>
	<g>
		<polygon fill="#231F20" points="72.5,79.3 71.4,79.3 72,81.1 72.5,83 73.1,81.1 73.6,79.3 		"/>
	</g>
	<g>
		<polygon fill="#231F20" points="69.5,79.3 68.5,79.3 69,81.1 69.5,83 70.1,81.1 70.6,79.3 		"/>
	</g>
	<g>
		<polygon fill="#231F20" points="66.6,79.3 65.5,79.3 66,81.1 66.6,83 67.1,81.1 67.7,79.3 		"/>
	</g>
</g>
<g>
	<g>
		<polygon fill="#231F20" points="50.7,79.3 49.6,79.3 50.2,81.1 50.7,83 51.3,81.1 51.8,79.3 		"/>
	</g>
	<g>
		<polygon fill="#231F20" points="47.8,79.3 46.7,79.3 47.2,81.1 47.8,83 48.3,81.1 48.9,79.3 		"/>
	</g>
	<g>
		<polygon fill="#231F20" points="44.8,79.3 43.7,79.3 44.2,81.1 44.8,83 45.3,81.1 45.9,79.3 		"/>
	</g>
	<g>
		<polygon fill="#231F20" points="41.8,79.3 40.7,79.3 41.3,81.1 41.8,83 42.4,81.1 42.9,79.3 		"/>
	</g>
</g>
<g>
	<g>
		<polygon fill="#231F20" points="25.1,79.3 24.3,79.3 24.7,80.6 25.1,82 25.5,80.6 25.9,79.3 		"/>
	</g>
	<g>
		<polygon fill="#231F20" points="23,79.3 22.2,79.3 22.6,80.6 23,82 23.4,80.6 23.7,79.3 		"/>
	</g>
	<g>
		<polygon fill="#231F20" points="20.8,79.3 20,79.3 20.4,80.6 20.8,82 21.2,80.6 21.6,79.3 		"/>
	</g>
	<g>
		<polygon fill="#231F20" points="18.7,79.3 17.9,79.3 18.3,80.6 18.7,82 19.1,80.6 19.4,79.3 		"/>
	</g>
</g>
<g>
	<circle fill="#231F20" cx="103.5" cy="21.3" r="5"/>
</g>
<g>
	<path fill="#231F20" d="M84.4,40.1h-9.2c0.3,2.1,2,3.8,4.2,4v3.3L76.8,50l0.6,0.6l2.4-2.4l2.5,2.5l0.6-0.6l-2.6-2.6V44
		C82.4,43.8,84.1,42.2,84.4,40.1z"/>
</g>
<g>
	<path fill="#231F20" d="M8.9,42.3c-0.8-0.5-1.8-0.9-2.8-0.9c-2.8,0-5,2.2-5,5c0,2.4,1.6,4.3,3.8,4.9C5.7,48.1,7,45,8.9,42.3z"/>
</g>
<g>
	<path fill="#231F20" d="M77.6,60.3c-29,0-32-20.4-32.1-20.6l-0.1-0.5l6.9-14.3c-0.5,0.2-1.1,0.3-1.7,0.3c-2.8,0-5-2.2-5-5
		c0-2.8,2.2-5,5-5c2.8,0,5,2.2,5,5c0,1.7-0.8,3.1-2,4h36.6c-6.6-12.9-18.5-23.1-32-23.1C53.2,1.1,48.4,2.6,44,5
		c-5.4,3-10.2,7.6-14,13L12.2,39.9l-0.1,0.3c-4.2,4.4-6.8,10.4-6.8,17c0,9,4.9,17,12.1,21.2h8.5c-0.7-0.9-1.1-2-1.1-3.2
		c0-2.6,1.9-4.7,4.5-5.1c2.8,3.3,6.1,6.1,9.8,8.3h13c-1.1-1.3-1.7-3.1-1.7-4.9c0-4.3,3.5-7.8,7.8-7.8c4.3,0,7.8,3.5,7.8,7.8
		c0,1.9-0.7,3.6-1.7,4.9h13c7.9-4.7,13.9-12.1,16.7-21C89.9,59.2,84.5,60.3,77.6,60.3z"/>
</g>
<g>
	<g>
		<path fill="#231F20" d="M102,25.1H53.3l-6.9,14.3l0,0.2c0,0.2,2.9,19.8,31.2,19.8c28,0,31.2-19.3,31.2-19.5l0-0.2L102,25.1z
			 M68.2,35.1c-0.7,0-1.3-0.6-1.3-1.3c0-0.7,0.6-1.3,1.3-1.3c0.7,0,1.3,0.6,1.3,1.3C69.5,34.5,68.9,35.1,68.2,35.1z M79.7,53.6
			c-4.2,0-7.6-3.4-7.6-7.6c0-3.3,5-9.6,7.6-12.5c2.5,2.9,7.6,9.2,7.6,12.5C87.3,50.2,83.9,53.6,79.7,53.6z M90.8,35.1
			c-0.7,0-1.3-0.6-1.3-1.3c0-0.7,0.6-1.3,1.3-1.3c0.7,0,1.3,0.6,1.3,1.3C92.2,34.5,91.6,35.1,90.8,35.1z"/>
	</g>
</g>
</svg>
