<?xml version="1.0" encoding="utf-8"?>
<!-- Generator: Adobe Illustrator 18.1.0, SVG Export Plug-In . SVG Version: 6.00 Build 0)  -->
<!DOCTYPE svg PUBLIC "-//W3C//DTD SVG 1.1//EN" "http://www.w3.org/Graphics/SVG/1.1/DTD/svg11.dtd">
<svg version="1.1" id="Layer_1" xmlns="http://www.w3.org/2000/svg" xmlns:xlink="http://www.w3.org/1999/xlink" x="0px" y="0px"
	 width="110px" height="99.2px" viewBox="0 0 110 99.2" enable-background="new 0 0 110 99.2" xml:space="preserve">
<g>
	<path fill="#231F20" d="M73.4,18.4c0.6,0.6,1.2,0.8,2,0.7c-0.8-1.7-1-3.6-1-5.6c0-0.8,0.1-1.5,0.2-2.2c-1,0.7-2,1.5-2.9,2.5
		c-0.6,0.6-1.2,1.3-1.7,2l-0.6,0.8c0,0,0,0-0.1,0h3C72.6,17.3,72.9,17.9,73.4,18.4z"/>
	<circle fill="#231F20" cx="85.1" cy="11.7" r="0.6"/>
	<path fill="#231F20" d="M95,3c-2-1.3-4.4-2-7-2c-7.3,0-13.1,5.9-13.1,13.1c0,4.3,2.1,8.1,5.3,10.5l-0.7,0.7c0.1,0,0.3,0.1,0.4,0.2
		l0,0c0.2,0.1,0.3,0.1,0.5,0.2c-0.2-0.1-0.3-0.1-0.5-0.2l-5.3,14.2l14-2.3c0,0.2,0,0.5,0,0.7c0,0.8-0.1,1.5-0.2,2.3l-18.3,3
		l5.2-13.7h0l0.6-1.6L74,29.7l-1.5,1.4L67,45.9l20.9-3.5l0,0l0,0l0,0c-0.2,1.1-0.5,2.1-0.9,3.1l-24.5,4.1l4.3-11.4l0,0l0.9-2.4
		l-1.5,1.4l-1.8,1.7L59.5,52l26.6-4.4c-0.6,1.2-1.3,2.3-2.1,3.3l-29,4.8l4.6-12.2L57,46l-0.6,0.6L52,58.2l30-5
		c0.2-0.2,0.3-0.4,0.5-0.5c-0.1,0.1-0.2,0.2-0.2,0.2c-0.1,0.1-0.2,0.2-0.3,0.3l0,0c-1.2,1.3-2.6,2.5-4.2,3.6l-30.3,5l3.9-10.4
		l-2.7,2.6l-0.6,0.6l-1.5,4h0l-2.1,5.7l29.3-4.9c-2.1,1.2-4.3,2.4-6.6,3.5v0.1c22.1-6.9,34.6-16.7,38.6-28l0.1,0c1.3-3,2-6.4,2-9.9
		C107.9,15.7,102.7,7.4,95,3z M85.1,9.2c1.3,0,2.4,1.1,2.4,2.4c0,1.3-1.1,2.4-2.4,2.4c-1.3,0-2.4-1.1-2.4-2.4
		C82.7,10.3,83.8,9.2,85.1,9.2z M86.7,31.1c-0.1-0.1-0.1-0.2-0.2-0.2l-1.5,0.2l0.6-1.5c0.3,0.4,0.6,0.8,0.9,1.2l0,0
		C86.6,30.9,86.6,31,86.7,31.1z M88.4,35.4l-10.8,1.8l4.1-10.9c0.9,0.5,1.7,1.1,2.5,1.7l0,0c0,0,0,0,0,0c0,0,0,0,0,0l-2.1,5.5
		l5.4-0.9c-0.2-0.5-0.5-1-0.8-1.5c0.3,0.5,0.6,1,0.8,1.5l0,0C87.9,33.5,88.2,34.5,88.4,35.4L88.4,35.4c0.1,0.3,0.1,0.6,0.1,0.9
		C88.5,36.1,88.4,35.7,88.4,35.4z M73.9,59.5C73.9,59.5,73.9,59.5,73.9,59.5L73.9,59.5C73.9,59.5,73.9,59.5,73.9,59.5z M83.8,51.2
		c-0.1,0.1-0.2,0.3-0.3,0.4c0.2-0.2,0.4-0.5,0.6-0.7C83.9,51,83.8,51.1,83.8,51.2z"/>
	<path fill="#231F20" d="M66.3,67.5c-1,0.1-2,0.6-2.7,1.4l0.7,0.7c0.6-0.7,1.6-1.1,2.5-1.1c1.9,0,3.4,1.5,3.4,3.4
		c0,1.9-1.5,3.4-3.4,3.4c-0.8,0-1.5-0.2-2.1-0.7c-0.4-0.3-0.7-0.7-1-1.2l-0.9,0.4c0.3,0.6,0.7,1.1,1.2,1.5c0.8,0.6,1.7,0.9,2.7,0.9
		c2.4,0,4.4-2,4.4-4.4c0-2.2-1.7-4.1-3.9-4.3v-4.4c-0.3,0.1-0.6,0.2-1,0.3V67.5z"/>
	<path fill="#231F20" d="M35,67.5l-2.3,2.3l-0.9,0.9l-1.1,3l-1,2.7c-1.9,0.7-3.8,1.4-5.7,2.2L1.5,94.9l1.1,1.6L30.8,76
		c2.8-1,5.6-1.9,8.5-2.9c0,0,0,0,0,0l-6.9,1.1L35,67.5z"/>
	<path fill="#231F20" d="M40,68.1l3.2-8.6l-3.3,3.2L37,70.5l19.7-3.3c2.9-1.1,5.8-2.2,8.5-3.4L40,68.1z"/>
</g>
</svg>
