<?xml version="1.0" encoding="UTF-8" standalone="no"?>
<svg width="150px" height="243px" viewBox="0 0 150 243" version="1.1" xmlns="http://www.w3.org/2000/svg" xmlns:xlink="http://www.w3.org/1999/xlink" xmlns:sketch="http://www.bohemiancoding.com/sketch/ns">
    <!-- Generator: Sketch 3.1.1 (8761) - http://www.bohemiancoding.com/sketch -->
    <title>animals_giraffe</title>
    <desc>Created with Sketch.</desc>
    <defs></defs>
    <g id="Page-1" stroke="none" stroke-width="1" fill="none" fill-rule="evenodd" sketch:type="MSPage">
        <g id="animals_giraffe" sketch:type="MSLayerGroup" fill="#231F20">
            <g id="Group" sketch:type="MSShapeGroup">
                <path d="M149.590909,177.713696 C147.409091,177.987242 145.045455,175.753283 144.363636,174.294371 C142.454545,170.1 143.227273,167.501313 143.227273,167.501313 L143.227273,167.501313 C143.409091,166.133583 144.409091,164.948218 145.863636,164.629081 C145.272727,162.851032 144.681818,161.164165 144.045455,159.56848 C140.954545,151.544465 137.090909,148.672233 131.772727,146.620638 C128.909091,145.526454 125.909091,144.43227 123.545455,143.657223 C124.727273,144.341088 125.772727,145.024953 126.681818,145.845591 L124.863636,148.99137 L118.181818,148.99137 L114.818182,143.110131 L116.318182,140.465854 C117.545455,140.921764 118.636364,141.332083 119.681818,141.742402 L119.863636,141.240901 C119.909091,141.240901 126.363636,143.292495 132.181818,145.572045 C137.590909,147.669231 141.863636,150.769418 145.045455,159.158161 C145.681818,160.890619 146.363636,162.714259 146.954545,164.58349 C148.363636,164.765854 149.545455,165.814447 149.818182,167.273358 C150.454545,170.55591 148.818182,173.975235 148.181818,176.619512 C147.954545,177.713696 148.227273,176.573921 149.590909,177.713696 L149.590909,177.713696 Z" id="Shape"></path>
                <path d="M36.8181818,2.37073171 C37.4545455,1.45891182 37.8636364,0.683864916 38,0.227954972 C38.0454545,0.0911819887 38.0909091,-2.70616862e-16 38.0909091,-0.0455909944 C38.9090909,0.182363977 39.6363636,0.592682927 40.3181818,1.18536585 C40.9545455,1.77804878 41.4545455,2.50750469 41.7272727,3.28255159 C41.3636364,3.32814259 40.5,3.92082552 39.4545455,4.78705441 L36.8181818,2.37073171 L36.8181818,2.37073171 Z" id="Shape"></path>
                <path d="M42,66.2893058 L48.7727273,66.2893058 L52.1363636,72.1705441 L48.7727273,78.0517824 L42,78.0517824 L38.6363636,72.1705441 L42,66.2893058 Z" id="Shape"></path>
                <path d="M52.4090909,101.166417 L49.0454545,107.002064 L42.2727273,107.002064 L38.9090909,101.166417 L42.2727273,95.2851782 L49.0454545,95.2851782 L52.4090909,101.166417 Z" id="Shape"></path>
                <path d="M104.863636,167.82045 C104.590909,167.911632 104.318182,168.002814 104.045455,168.048405 L102.090909,164.629081 L105.454545,158.747842 L112.227273,158.747842 L115.590909,164.629081 L112.227273,170.510319 L105.909091,170.510319 C105.5,169.689681 105.181818,168.823452 104.863636,167.82045 L104.863636,167.82045 Z" id="Shape"></path>
                <path d="M42,80.4225141 L48.7727273,80.4225141 L52.1363636,86.3037523 L48.7727273,92.1849906 L42,92.1849906 L38.6363636,86.3037523 L42,80.4225141 Z" id="Shape"></path>
                <path d="M92.6818182,163.717261 L89.3181818,157.836023 L92.6818182,152.000375 L99.4545455,152.000375 L102.818182,157.836023 L99.4545455,163.717261 L92.6818182,163.717261 Z" id="Shape"></path>
                <path d="M52.0454545,59.7697936 L49.1363636,64.830394 L42.4090909,64.830394 L39.0454545,58.9491557 L42.4090909,53.0679174 L49.1818182,53.0679174 L51.5,57.079925 C51.6818182,58.0373358 51.8636364,58.9035647 52.0454545,59.7697936 L52.0454545,59.7697936 Z" id="Shape"></path>
                <path d="M79.5454545,155.921201 L76.1818182,150.085553 L79.5454545,144.204315 L86.3181818,144.204315 L89.6818182,150.085553 L86.3181818,155.921201 L79.5454545,155.921201 Z" id="Shape"></path>
                <path d="M74.5454545,148.945779 L67.7727273,148.945779 L64.4090909,143.110131 L67.7727273,137.228893 L74.5454545,137.228893 L77.9090909,143.110131 L74.5454545,148.945779 Z" id="Shape"></path>
                <path d="M61.7727273,127.92833 L55.0454545,127.92833 L51.6363636,122.092683 L55.0454545,116.211445 L61.7727273,116.211445 L65.1818182,122.092683 L61.7727273,127.92833 Z" id="Shape"></path>
                <path d="M65.1818182,135.952345 L61.7727273,141.787992 L55.0454545,141.787992 L51.6363636,135.952345 L55.0454545,130.071107 L61.7727273,130.071107 L65.1818182,135.952345 Z" id="Shape"></path>
                <path d="M68.0909091,123.278049 C70.1818182,125.922326 73.1818182,128.38424 77.3181818,130.116698 L74.5,134.994934 L67.7272727,134.994934 L64.3636364,129.113696 L67.7272727,123.232458 L68.0909091,123.232458 L68.0909091,123.278049 Z" id="Shape"></path>
                <path d="M60.9545455,99.9354597 L55.0454545,99.9354597 L51.6818182,94.0542214 L55.0454545,88.1729831 L58.4090909,88.1729831 C59.3181818,92.5041276 60.1818182,96.4705441 60.9545455,99.9354597 L60.9545455,99.9354597 Z" id="Shape"></path>
                <path d="M55.2727273,74.1309568 C56.1818182,78.1429644 57.0454545,82.1093809 57.8636364,85.8478424 L55.1363636,85.8478424 L51.7727273,79.9666041 L55.1363636,74.0853659 L55.2727273,74.0853659 L55.2727273,74.1309568 Z" id="Shape"></path>
                <path d="M63.3636364,111.378799 L61.8181818,114.114259 L55.0454545,114.114259 L51.6818182,108.233021 L55.0454545,102.351782 L61.4545455,102.351782 C62.3181818,106.318199 62.9545455,109.463977 63.3636364,111.378799 L63.3636364,111.378799 Z" id="Shape"></path>
                <path d="M54.5,70.8484053 L51.7272727,66.0613508 L52.9545455,63.9641651 C53.5,66.2437148 54,68.5232645 54.5,70.8484053 L54.5,70.8484053 Z" id="Shape"></path>
                <path d="M42.4090909,50.9707317 L39,45.1350844 L42.3636364,39.2538462 L47.4090909,39.2538462 C48.1363636,42.4908068 48.9545455,46.0469043 49.7727273,49.7853659 L49.0909091,50.9707317 L42.4090909,50.9707317 L42.4090909,50.9707317 Z" id="Shape"></path>
                <path d="M68.8181818,179.400563 L74.0454545,179.400563 L77.4090909,185.281801 L74.6363636,190.068856 C73.1363636,186.375985 71.1818182,182.819887 68.8181818,179.400563 L68.8181818,179.400563 Z" id="Shape"></path>
                <path d="M78.3181818,174.932645 C79.2727273,177.212195 81.0454545,179.628518 84.3181818,181.634522 C84.3181818,182.272795 84.2727273,183.002251 84.2727273,183.731707 L80,183.731707 L76.6363636,177.850469 L78.3181818,174.932645 L78.3181818,174.932645 Z" id="Shape"></path>
                <path d="M63.8636364,170.783865 L67.2272727,164.902627 L74,164.902627 L77.3181818,170.692683 L77.3181818,170.829456 L74,176.619512 L67.2727273,176.619512 L63.8636364,170.783865 L63.8636364,170.783865 Z" id="Shape"></path>
                <path d="M107.136364,172.926642 L112.181818,172.926642 L115.545455,178.80788 L115.272727,179.309381 C112,177.941651 109.272727,176.254784 107.136364,172.926642 L107.136364,172.926642 Z" id="Shape"></path>
                <path d="M79.5454545,186.102439 L84.2272727,186.102439 C84.1818182,189.567355 84.1363636,193.579362 84.0909091,197.819325 L79.5454545,197.819325 L76.1818182,191.938086 L79.5454545,186.102439 L79.5454545,186.102439 Z" id="Shape"></path>
                <path d="M67.0454545,151.726829 L73.7727273,151.726829 L77.1818182,157.562477 L73.7727273,163.443715 L67.0454545,163.443715 L63.6818182,157.562477 L67.0454545,151.726829 Z" id="Shape"></path>
                <path d="M78.5,203.016698 L80,200.418011 L84.0909091,200.418011 C84.0909091,204.338837 84.0454545,208.305253 84.0454545,212.134897 L80,212.134897 L79.6818182,211.633396 C79.4545455,208.852345 79.0909091,205.980113 78.5,203.016698 L78.5,203.016698 Z" id="Shape"></path>
                <path d="M80,214.55122 L84.0454545,214.55122 C84.0454545,218.927955 84.0454545,222.985553 84.0909091,226.268105 L80,226.268105 L79.8181818,225.948968 L79.8181818,225.493058 C80.0454545,222.392871 80.0909091,218.7 79.9090909,214.642402 L80,214.55122 L80,214.55122 Z" id="Shape"></path>
                <path d="M118.181818,179.810882 L124.954545,179.810882 L127.318182,183.959662 C123.909091,182.272795 120.772727,181.269794 117.909091,180.266792 L118.181818,179.810882 L118.181818,179.810882 Z" id="Shape"></path>
                <path d="M140.045455,179.400563 L137.227273,184.278799 L130.454545,184.278799 L127.090909,178.397561 L130.454545,172.516323 L137.045455,172.516323 C138.090909,175.342964 139.090909,177.622514 140.045455,179.400563 L140.045455,179.400563 Z" id="Shape"></path>
                <path d="M114.363636,171.376548 L117.727273,165.49531 L124.5,165.49531 L127.863636,171.376548 L124.5,177.212195 L117.727273,177.212195 L114.363636,171.376548 Z" id="Shape"></path>
                <path d="M132.772727,156.285929 L130.5,156.285929 L127.136364,150.40469 L128.681818,147.760413 C130.363636,149.857598 131.636364,152.593058 132.772727,156.285929 L132.772727,156.285929 Z" id="Shape"></path>
                <path d="M134.409091,162.668668 C135,165.49531 135.681818,167.957223 136.318182,170.191182 L130.5,170.191182 L127.136364,164.309944 L130.5,158.428705 L133.409091,158.428705 C133.727273,159.705253 134.090909,161.118574 134.409091,162.668668 L134.409091,162.668668 Z" id="Shape"></path>
                <path d="M105.454545,156.012383 L102.045455,150.176735 L105.454545,144.295497 L112.181818,144.295497 L115.590909,150.176735 L112.181818,156.012383 L105.454545,156.012383 Z" id="Shape"></path>
                <path d="M124.954545,151.362101 L128.318182,157.24334 L124.954545,163.078987 L118.181818,163.078987 L114.818182,157.24334 L118.181818,151.362101 L124.954545,151.362101 Z" id="Shape"></path>
                <path d="M36.7272727,115.937899 L40.0909091,121.819137 L36.7272727,127.654784 L30.4090909,127.654784 L30.4545455,115.937899 L36.7272727,115.937899 Z" id="Shape"></path>
                <path d="M144.409091,229.094747 C144.363636,226.997561 144.272727,224.353283 144.136364,221.526642 L148.772727,221.526642 L149.045455,230.234522 L149.090909,231.511069 L149.090909,233.289118 L144.318182,233.289118 C144.5,231.739024 144.409091,230.006567 144.409091,230.006567 L144.409091,229.094747 L144.409091,229.094747 Z" id="Shape"></path>
                <path d="M99.4545455,165.860038 L101.181818,168.823452 C97.0454545,169.780863 93.4090909,170.1 90.3181818,170.054409 L92.7272727,165.860038 L99.4545455,165.860038 L99.4545455,165.860038 Z" id="Shape"></path>
                <path d="M149.136364,235.65985 C149.181818,237.118762 149.318182,238.668856 149.5,239.763039 C146.5,239.535084 146.409091,242.863227 146.409091,242.863227 L140.545455,242.863227 L139.909091,241.769043 C141,240.492495 142.772727,238.167355 143.727273,235.614259 L149.136364,235.614259 L149.136364,235.65985 Z" id="Shape"></path>
                <path d="M137.454545,186.467167 L140.818182,192.348405 L139.772727,194.126454 C139.363636,193.214634 138.863636,192.485178 138.363636,191.983677 C136.045455,189.704128 133.818182,187.926079 131.636364,186.467167 L137.454545,186.467167 L137.454545,186.467167 Z" id="Shape"></path>
                <path d="M141.818182,182.272795 C145,186.695122 147.590909,186.831895 147.590909,186.831895 L147.727273,191.163039 L143.454545,191.163039 L140.090909,185.281801 L141.818182,182.272795 L141.818182,182.272795 Z" id="Shape"></path>
                <path d="M143,208.214071 L143.454545,207.393433 L148.272727,207.393433 L148.681818,219.110319 L144,219.110319 C143.772727,215.599812 143.454545,211.81576 143,208.214071 L143,208.214071 Z" id="Shape"></path>
                <path d="M141.090909,197.682552 L143.5,193.533771 L147.818182,193.533771 L148.227273,205.250657 L143.5,205.250657 L142.318182,203.153471 C141.909091,201.193058 141.545455,199.323827 141.090909,197.682552 L141.090909,197.682552 Z" id="Shape"></path>
                <path d="M76.6363636,163.717261 L80,157.836023 L86.7727273,157.836023 L90.1363636,163.717261 L86.7727273,169.598499 L85.0909091,169.598499 C82.3181818,169.142589 80.3181818,168.458724 79.0909091,167.957223 L76.6363636,163.717261 L76.6363636,163.717261 Z" id="Shape"></path>
                <path d="M40.0909091,150.40469 L39.1818182,151.954784 C37.4545455,149.44728 36.0454545,146.939775 34.9090909,144.523452 L36.6818182,144.523452 L40.0909091,150.40469 L40.0909091,150.40469 Z" id="Shape"></path>
                <path d="M40.0909091,136.317073 L36.7272727,142.198311 L33.9090909,142.198311 C31.9545455,137.320075 31.0909091,133.080113 30.6818182,130.481426 L36.6818182,130.481426 L40.0909091,136.317073 L40.0909091,136.317073 Z" id="Shape"></path>
                <path d="M49.5,151.681238 L52.8636364,157.562477 L49.8181818,162.851032 C46.3181818,160.297936 43.4545455,157.471295 41.0909091,154.553471 L42.7272727,151.726829 L49.5,151.726829 L49.5,151.681238 Z" id="Shape"></path>
                <path d="M61.2727273,158.474296 L64.6363636,164.355535 L61.2727273,170.236773 L60.4545455,170.236773 C58.3181818,168.413133 56,166.726266 53.3636364,165.176173 C52.6818182,164.765854 52.0454545,164.355535 51.4090909,163.945216 L54.5454545,158.519887 L61.2727273,158.519887 L61.2727273,158.474296 Z" id="Shape"></path>
                <path d="M77.6363636,242.224953 L77.2727273,242.863227 L74,242.863227 C74,242.863227 75.0909091,241.677861 76.3181818,239.899812 L77.6363636,242.224953 L77.6363636,242.224953 Z" id="Shape"></path>
                <path d="M79.8636364,229.368293 L80.2727273,228.684428 L84.0909091,228.684428 L84.0909091,230.052158 L84.0909091,231.511069 C84.0909091,231.511069 84.0909091,233.3803 84.1818182,235.477486 C84.2272727,236.981989 84.3636364,238.623265 84.5454545,239.763039 C83.5909091,239.717448 82.9545455,239.990994 82.4545455,240.401313 L80.2727273,240.401313 L78.1818182,236.799625 C78.5454545,236.11576 78.8181818,235.431895 79.0909091,234.74803 C79.7272727,232.969981 79.8636364,231.055159 79.8636364,229.368293 L79.8636364,229.368293 Z" id="Shape"></path>
                <path d="M105.454545,141.787992 L102.636364,136.909756 C106.772727,137.821576 110.5,138.687805 113.5,139.554034 L112.227273,141.787992 L105.454545,141.787992 L105.454545,141.787992 Z" id="Shape"></path>
                <path d="M36.4545455,87.6714822 L39.8181818,93.5527205 L36.4545455,99.4339587 L30.5454545,99.4339587 L30.5909091,87.6714822 L36.4545455,87.6714822 Z" id="Shape"></path>
                <path d="M36,73.3559099 L39.4090909,79.2371482 L36,85.1183865 L30.5909091,85.1183865 L30.6363636,73.3559099 L36,73.3559099 Z" id="Shape"></path>
                <path d="M55.0454545,155.738837 L51.6363636,149.903189 L55.0454545,144.021951 L61.7727273,144.021951 L65.1818182,149.903189 L61.7727273,155.738837 L55.0454545,155.738837 Z" id="Shape"></path>
                <path d="M36.4545455,59.2227017 L39.8181818,65.10394 L36.4545455,70.9851782 L30.6363636,70.9851782 L30.6818182,59.2227017 L36.4545455,59.2227017 Z" id="Shape"></path>
                <path d="M42.2727273,148.854597 L38.9090909,143.018949 L42.2727273,137.137711 L49.0454545,137.137711 L52.4090909,143.018949 L49.0454545,148.854597 L42.2727273,148.854597 Z" id="Shape"></path>
                <path d="M42.7272727,108.871295 L49.5,108.871295 L52.8636364,114.752533 L49.5,120.58818 L42.7272727,120.58818 L39.3636364,114.752533 L42.7272727,108.871295 Z" id="Shape"></path>
                <path d="M42.7272727,123.004503 L49.5,123.004503 L52.8636364,128.885741 L49.5,134.721388 L42.7272727,134.721388 L39.3636364,128.885741 L42.7272727,123.004503 Z" id="Shape"></path>
                <path d="M30.4545455,113.521576 L30.5,101.80469 L36.4545455,101.80469 L39.8181818,107.685929 L36.4545455,113.521576 L30.4545455,113.521576 Z" id="Shape"></path>
                <path d="M80.5454545,141.879174 L77.1818182,135.997936 L80,131.074109 C82.9545455,132.077111 86.1818182,132.988931 89.4090909,133.809568 L90.6818182,135.997936 L87.3181818,141.879174 L80.5454545,141.879174 L80.5454545,141.879174 Z" id="Shape"></path>
                <path d="M36.4545455,45.1350844 L39.8181818,50.9707317 L36.4545455,56.85197 L30.6818182,56.85197 L30.7272727,45.1350844 L36.4545455,45.1350844 Z" id="Shape"></path>
                <path d="M44.2727273,25.1206379 C44.8181818,27.5825516 45.7727273,31.6857411 46.9090909,36.8375235 L42.3636364,36.8375235 L39,31.0018762 L42.3636364,25.1206379 L44.2727273,25.1206379 L44.2727273,25.1206379 Z" id="Shape"></path>
                <path d="M99.4545455,149.584053 L92.6818182,149.584053 L89.3181818,143.702814 L92.6818182,137.867167 L99.4545455,137.867167 L102.818182,143.702814 L99.4545455,149.584053 Z" id="Shape"></path>
                <path d="M36,31.4577861 L39.4090909,37.3390244 L36,43.2202627 L30.7727273,43.2202627 L30.8181818,31.4577861 L36,31.4577861 Z" id="Shape"></path>
                <path d="M71.6363636,186.14803 C71.4545455,199.415009 71.4545455,220.113321 71.5454545,229.140338 L71.5454545,230.59925 C71.5454545,230.59925 71.5454545,232.46848 71.6363636,234.565666 C71.6818182,236.070169 71.8181818,237.711445 72,238.85122 C69,238.623265 68.9090909,241.951407 68.9090909,241.951407 L61.4545455,241.951407 C61.4545455,241.951407 65.0909091,237.984991 66.5454545,233.790619 C67.7727273,230.325704 67.1818182,226.359287 67.2727273,224.581238 C68,213.548218 65.6363636,186.786304 54.5909091,167.090994 C62.5,172.333959 67.9545455,179.035835 71.6363636,186.14803 L71.6363636,186.14803 Z" id="Shape"></path>
                <path d="M118.818182,181.680113 C123.681818,183.366979 129.090909,185.23621 135.136364,190.433583 L136.454545,229.368293 L136.5,230.644841 C136.5,230.644841 136.5,232.514071 136.590909,234.611257 C136.636364,236.11576 136.772727,237.757036 136.954545,238.896811 C133.954545,238.668856 133.863636,241.996998 133.863636,241.996998 L126.363636,241.996998 C126.363636,241.996998 130.227273,238.076173 131.454545,233.83621 C131.909091,232.240525 131.818182,229.094747 131.818182,229.094747 L131.818182,228.182927 C131.590909,217.742589 130.363636,195.585366 125.818182,191.071857 C111.5,176.847467 99.8636364,181.953659 93.9545455,170.966229 C97.2727273,170.738274 100.681818,170.1 104.181818,169.096998 C107.227273,177.668105 112.363636,179.446154 118.818182,181.680113 L118.818182,181.680113 Z" id="Shape"></path>
                <path d="M0.0909090909,22.2484053 C0.136363636,22.7043152 0.181818182,26.0324578 2.5,27.6281426 C5.45454545,29.7253283 8.18181818,24.9382739 10.5454545,25.5309568 C15.6363636,26.8530957 23,40.302439 32.4090909,28.5855535 L37.6363636,28.5399625 L41.0909091,22.6587242 L43.7272727,22.6587242 C43.5,21.6101313 43.1363636,20.6071295 42.6818182,19.6497186 C41.4090909,20.0600375 40.1363636,20.2424015 38.8181818,20.2424015 L38.3181818,20.2424015 C36.6363636,20.1968105 34.9545455,19.7864916 33.4090909,19.1026266 L32.5,18.6923077 L32.8636364,17.7348968 C33.5,15.956848 34.5454545,14.3611632 35.8636364,13.0390244 C34.5909091,12.4463415 33.2272727,12.0816135 31.8181818,11.8992495 C34.6818182,9.11819887 38.8181818,5.33414634 38.8181818,5.33414634 L36.1818182,2.91782364 C36.1818182,2.91782364 31,9.66529081 29.2727273,11.8080675 C28.6363636,11.8536585 27.9545455,11.9448405 27.2727273,12.0816135 L19.5454545,15.0450281 L0.0909090909,22.2484053 L0.0909090909,22.2484053 Z M20.6363636,20.0144465 C21.3181818,19.2393996 22.5454545,18.3731707 25.0454545,19.0570356 C27.5454545,19.7409006 28.2272727,19.7409006 29.1818182,19.7864916 C25.2727273,24.8470919 23.0454545,21.0174484 20.6363636,20.0144465 L20.6363636,20.0144465 Z M3.09090909,24.117636 C3.09090909,23.5249531 3.59090909,23.0234522 4.18181818,23.0234522 C4.77272727,23.0234522 5.27272727,23.5249531 5.27272727,24.117636 C5.27272727,24.7103189 4.77272727,25.2118199 4.18181818,25.2118199 C3.59090909,25.2118199 3.09090909,24.7559099 3.09090909,24.117636 L3.09090909,24.117636 Z" id="Shape"></path>
                <path d="M64.7272727,113.065666 C64,107.822702 45.5454545,25.8956848 44.7272727,22.4307692 C44.5,21.3365854 44.1363636,20.2879925 43.6363636,19.3305816 C43.6818182,19.3305816 43.7272727,19.2849906 43.7272727,19.2849906 C44.9545455,18.7834897 46.0909091,18.0540338 47.1363636,17.1878049 C47.6818182,18.3731707 48.1363636,19.6041276 48.4090909,20.9262664 C49.1818182,24.391182 67.6818182,106.409381 68.4090909,111.743527 C68.6363636,113.339212 70.0909091,120.998499 78.3636364,125.238462 L76.4545455,128.657786 C66.7272727,123.916323 65,114.934897 64.7272727,113.065666 L64.7272727,113.065666 Z" id="Shape"></path>
                <path d="M43.3636364,18.2363977 C43.3181818,18.2819887 43.2272727,18.2819887 43.1818182,18.3275797 C41.5909091,18.9658537 40,19.2393996 38.3636364,19.1482176 C36.8181818,19.1026266 35.2727273,18.7378987 33.8636364,18.0996248 C34.6363636,16.04803 35.9545455,14.1787992 37.7272727,12.8110694 C38.5454545,12.1727955 39.4090909,11.6257036 40.4090909,11.2153846 C43.5909091,9.89324578 47,10.0756098 49.9090909,11.3521576 C49.2272727,13.1757974 48.1363636,14.8170732 46.6818182,16.139212 C45.7272727,17.0054409 44.6363636,17.7348968 43.3636364,18.2363977 L43.3636364,18.2363977 Z" id="Shape"></path>
            </g>
        </g>
    </g>
</svg>