<?xml version="1.0" encoding="utf-8"?>
<!-- Generator: Adobe Illustrator 18.1.0, SVG Export Plug-In . SVG Version: 6.00 Build 0)  -->
<!DOCTYPE svg PUBLIC "-//W3C//DTD SVG 1.1//EN" "http://www.w3.org/Graphics/SVG/1.1/DTD/svg11.dtd">
<svg version="1.1" id="Layer_1" xmlns="http://www.w3.org/2000/svg" xmlns:xlink="http://www.w3.org/1999/xlink" x="0px" y="0px"
	 width="110px" height="167.1px" viewBox="0 0 110 167.1" enable-background="new 0 0 110 167.1" xml:space="preserve">
<path fill="#231F20" d="M22.4,41.1c0.2-0.4,0.4-0.8,0.6-1.3L22.4,41.1z"/>
<path fill="#231F20" d="M44,24c-14.9,0-27,12.1-27,27c0,14.9,12.1,27,27,27c14.9,0,27-12.1,27-27C71.1,36.2,59,24,44,24z M29.7,55
	c-1.8,0-3.3-1.5-3.3-3.3c0-1.8,1.5-3.3,3.3-3.3c1.8,0,3.3,1.5,3.3,3.3C33.1,53.5,31.6,55,29.7,55z M49.3,62.3c0,2.7-2.2,4.9-4.9,4.9
	c-2.7,0-4.9-2.2-4.9-4.9v-7.4c0-2.7,2.2-4.9,4.9-4.9c2.7,0,4.9,2.2,4.9,4.9V62.3z M58.5,55.1c-1.8,0-3.3-1.5-3.3-3.3
	c0-1.8,1.5-3.3,3.3-3.3c1.8,0,3.3,1.5,3.3,3.3C61.8,53.6,60.4,55.1,58.5,55.1z"/>
<circle fill="#231F20" cx="29.7" cy="51.7" r="2.3"/>
<g>
	<circle fill="#231F20" cx="29" cy="51.5" r="0.8"/>
	<circle fill="#231F20" cx="30.1" cy="50.4" r="0.4"/>
</g>
<path fill="#231F20" d="M82.8,83.9C82.8,83.9,82.8,84,82.8,83.9l0.5,0L82.8,83.9z"/>
<g>
	<path fill="#231F20" d="M107.9,5.6l-17,17c4.3,0.1,8.7-1.5,12.1-4.9C106.4,14.3,108,9.8,107.9,5.6z"/>
	<path fill="#231F20" d="M107.2,4.9c-4.3-0.2-8.8,1.4-12.2,4.8c-3.4,3.4-5,7.9-4.8,12.2C90.3,21.9,107.2,5,107.2,4.9z"/>
</g>
<g>
	<path fill="#231F20" d="M107.9,54.2l-17,17c4.3,0.1,8.7-1.5,12.1-4.9C106.4,63,108,58.5,107.9,54.2z"/>
	<path fill="#231F20" d="M107.2,53.6c-4.3-0.2-8.8,1.4-12.2,4.8c-3.4,3.4-5,7.9-4.8,12.2C90.3,70.5,107.2,53.7,107.2,53.6z"/>
</g>
<g>
	<path fill="#231F20" d="M107.9,102.9l-17,17c4.3,0.1,8.7-1.5,12.1-4.9C106.4,111.7,108,107.2,107.9,102.9z"/>
	<path fill="#231F20" d="M107.2,102.3c-4.3-0.2-8.8,1.4-12.2,4.8c-3.4,3.4-5,7.9-4.8,12.2C90.3,119.2,107.2,102.4,107.2,102.3z"/>
</g>
<path fill="#231F20" d="M84.8,90.9c0-1.2-0.8-2.1-1.9-2.3v-0.1c1.1-0.2,1.9-1.1,1.9-2.3c0-1.2-0.9-2.1-2-2.3H71.7v-0.1h-10v-1.7h10
	V58.3C68.5,70.7,57.3,79.7,44,79.7c-12.3,0-22.7-7.7-26.8-18.6v31.6l0,1.3c0,27,20.1,49.3,46.2,52.7c-1.8-1.7-3-4-3-6.7l0-7.3h1.7
	l0,7.3c0,3.5,2.4,6.4,5.7,7.1c0.8,0,1.7,0.1,2.6,0.1c0.7,0,1.3,0,2-0.1l8.9,0h1c1.1-0.1,2-1.1,2-2.3c0-1.2-0.9-2.2-2-2.3v-0.1
	c1.1-0.1,2-1.1,2-2.3c0-1.2-0.8-2.1-1.9-2.3v-0.1c1.1-0.2,1.9-1.1,1.9-2.3c0-1.2-0.9-2.2-2-2.3l-2.9,0h-4.9v-0.4v-14.3
	c0-3.3-1-6.4-2.7-8.9v0c-2.8-3.9-7.3-6.2-12.3-6.2c-8.4,0-15.3,6.8-15.3,15.3h-1.7c0-9.4,7.6-17,17-17c4.7,0,9.1,2,12.3,5.3v-7.2
	H55.4c-11.7,0-20.5-8.2-20.5-19.2h1.7c0,10,8.1,17.5,18.8,17.5h16.4v-0.1h10.4l0.7,0.1c1.1-0.1,2-1.1,2-2.3c0-1.2-0.9-2.1-2-2.3
	v-0.1C83.9,93.1,84.8,92.1,84.8,90.9z"/>
<circle fill="#231F20" cx="58.5" cy="51.8" r="2.3"/>
<g>
	<circle fill="#231F20" cx="57.8" cy="51.6" r="0.8"/>
	<circle fill="#231F20" cx="58.9" cy="50.5" r="0.4"/>
</g>
<path fill="#231F20" d="M16.2,44.6c-3.9,0-7.1-3.2-7.1-7.1c0-3.9,3.2-7.1,7.1-7.1c2.3,0,4.4,1.1,5.7,2.8c0.7-0.9,1.4-1.7,2.2-2.4
	c-0.8-2.3-2.6-4.3-5-5.5l-2.7-1.2C11.7,21.9,6,24,3.8,28.8l-2.2,4.8C-0.6,38.4,1.5,44,6.3,46.2L9,47.4c2.2,1,4.6,1.1,6.8,0.4
	C15.9,46.8,16.1,45.7,16.2,44.6C16.3,44.6,16.3,44.6,16.2,44.6z"/>
<g>
	<path fill="#231F20" d="M85.1,28.5l1.4,3.1V0h-4.9v24.3C83.1,25.4,84.3,26.8,85.1,28.5z"/>
	<path fill="#231F20" d="M82.2,47.1l-0.6,0.3v35.7h1.4l0.1,0c1.6,0.2,2.7,1.6,2.7,3.1c0,0.9-0.4,1.8-1,2.3c0.6,0.6,1,1.4,1,2.4
		c0,0.9-0.4,1.8-1.1,2.4c0.6,0.6,1.1,1.4,1.1,2.4c0,1.6-1.2,2.9-2.8,3.1l-0.1,0l-0.7-0.1h-0.5v33.7l0.8,0l0.1,0
		c1.6,0.2,2.8,1.6,2.8,3.1c0,0.9-0.4,1.8-1,2.3c0.6,0.6,1,1.4,1,2.4c0,0.9-0.4,1.8-1.1,2.4c0.6,0.6,1.1,1.4,1.1,2.4
		c0,1.6-1.2,2.9-2.8,3.1l-0.1,0l-0.8,0v19h4.9V43.5C85.4,45.1,84,46.3,82.2,47.1z"/>
</g>
<path fill="#231F20" d="M71.9,44.7c3.9,0,7.1-3.2,7.1-7.1c0-3.9-3.2-7.1-7.1-7.1c-2.3,0-4.4,1.1-5.7,2.8c-0.7-0.9-1.4-1.7-2.2-2.4
	c0.8-2.3,2.6-4.3,5-5.5l2.7-1.2c4.8-2.2,10.5-0.1,12.7,4.7l2.2,4.8c2.2,4.8,0.1,10.5-4.7,12.7l-2.7,1.2c-2.2,1-4.6,1.1-6.8,0.4
	C72.3,46.9,72.1,45.8,71.9,44.7C71.9,44.7,71.9,44.7,71.9,44.7z"/>
<path fill="#231F20" d="M47.8,62.2c0,2-1.6,3.5-3.5,3.5l0,0c-2,0-3.5-1.6-3.5-3.5V55c0-2,1.6-3.5,3.5-3.5l0,0c2,0,3.5,1.6,3.5,3.5
	V62.2z"/>
</svg>
