<?xml version="1.0" encoding="UTF-8" standalone="no"?>
<svg width="151px" height="293px" viewBox="0 0 151 293" version="1.1" xmlns="http://www.w3.org/2000/svg" xmlns:xlink="http://www.w3.org/1999/xlink" xmlns:sketch="http://www.bohemiancoding.com/sketch/ns">
    <!-- Generator: Sketch 3.1.1 (8761) - http://www.bohemiancoding.com/sketch -->
    <title>animals_dog</title>
    <desc>Created with Sketch.</desc>
    <defs></defs>
    <g id="Page-1" stroke="none" stroke-width="1" fill="none" fill-rule="evenodd" sketch:type="MSPage">
        <g id="animals_dog" sketch:type="MSLayerGroup" fill="#231F20">
            <path d="M124.194915,292.936304 C124.194915,292.936304 161.504237,286.503043 146.694915,241.151739 C151.970339,269.305217 140.974576,285.547609 121.588983,286.248261 L124.194915,292.936304 L124.194915,292.936304 Z" id="Shape" sketch:type="MSShapeGroup"></path>
            <path d="M76.7161017,106.945 C76.7161017,106.945 48.3050847,109.875 35.6567797,83.5686957 C38.1991525,94.6517391 43.6652542,104.078696 31.779661,104.843043 C30.3177966,100.511739 32.0974576,78.7278261 32.0974576,78.7278261 C32.0974576,78.7278261 60.190678,101.976739 78.1144068,88.9191304 L76.7161017,106.945 L76.7161017,106.945 Z" id="Shape" sketch:type="MSShapeGroup"></path>
            <g id="Group" transform="translate(57.838983, 218.476087)" sketch:type="MSShapeGroup">
                <path d="M51.9915254,21.0195652 C50.5932203,14.2678261 48.940678,7.325 46.970339,0.191086957 C33.8135593,4.07652174 24.5338983,13.5034783 24.5338983,24.5228261 C24.5338983,28.5993478 25.8050847,32.421087 28.029661,35.8606522 C32.6694915,28.6630435 41.1864407,23.1852174 51.9915254,21.0195652 L51.9915254,21.0195652 Z" id="Shape"></path>
                <path d="M24.279661,48.153913 C24.279661,46.1156522 24.5974576,44.2047826 25.1059322,42.293913 C19.8305085,41.211087 15.8262712,40.3830435 15.3177966,40.3830435 C7.24576271,40.3830435 0.699152542,44.9691304 0.127118644,50.7654348 L24.470339,50.7017391 C24.3432203,49.8736957 24.279661,49.0456522 24.279661,48.153913 L24.279661,48.153913 Z" id="Shape"></path>
            </g>
            <path d="M55.9957627,64.0141304 C59.5550847,71.4028261 64.3220339,76.4984783 69.4067797,80.0017391 C70.8050847,76.9443478 72.3940678,74.0780435 74.2372881,71.3391304 C62.4152542,67.39 52.4364407,59.1732609 52.4364407,59.1732609 C52.4364407,59.1732609 50.6567797,81.0208696 52.1186441,85.2884783 C64.0042373,84.5241304 58.5381356,75.0334783 55.9957627,64.0141304 L55.9957627,64.0141304 Z" id="Shape" sketch:type="MSShapeGroup"></path>
            <path d="M120,115.28913 C108.75,115.28913 99.5974576,106.116957 99.5974576,94.9065217 C99.5974576,89.8745652 101.440678,68.4728261 104.555085,47.1347826 C81.6101695,59.8102174 50.3389831,87.7726087 75.8262712,139.62087 C96.9279661,182.424348 107.161017,216.183043 111.991525,241.024348 C95.9745763,243.63587 83.9618644,254.145652 83.9618644,266.693696 C83.9618644,275.037826 89.3008475,282.426522 97.5,287.267391 C86.8855932,284.974348 75.6355932,282.617609 74.7457627,282.617609 C66.6737288,282.617609 60.1271186,287.203696 59.5550847,293 L124.70339,293 L124.70339,114.71587 C123.177966,115.098043 121.652542,115.28913 120,115.28913 L120,115.28913 Z" id="Shape" sketch:type="MSShapeGroup"></path>
            <path d="M138.495763,94.8428261 C138.495763,105.03413 130.233051,113.378261 120,113.378261 C109.766949,113.378261 101.504237,105.097826 101.504237,94.8428261 C101.504237,84.5878261 109.766949,0.955434783 120,0.955434783 C130.233051,0.955434783 138.495763,84.6515217 138.495763,94.8428261 L138.495763,94.8428261 Z" id="Shape" sketch:type="MSShapeGroup"></path>
            <path d="M114.788136,0.127391304 L105.95339,0.127391304 C105.95339,2.35673913 104.110169,4.14021739 101.885593,4.14021739 C99.6610169,4.14021739 97.8177966,2.35673913 97.8177966,0.127391304 L25.4237288,0.127391304 L25.1059322,0.89173913 C22.309322,7.70717391 16.8432203,13.2486957 9.72457627,16.6245652 C22.7542373,32.2936957 50.9745763,48.9182609 105.95339,15.6691304 L105.95339,37.7715217 C110.338983,11.0830435 114.216102,2.73891304 116.949153,0.191086957 C116.631356,0.191086957 115.932203,0.127391304 114.788136,0.127391304 L114.788136,0.127391304 Z" id="Shape" sketch:type="MSShapeGroup"></path>
            <path d="M23.3262712,0.191086957 L0.063559322,0.191086957 C0.063559322,0.191086957 2.35169492,7.325 8.45338983,15.1595652 C15.3177966,12.0384783 20.6567797,6.68804348 23.3262712,0.191086957 L23.3262712,0.191086957 Z" id="Shape" sketch:type="MSShapeGroup"></path>
        </g>
    </g>
</svg>