<?xml version="1.0" encoding="utf-8"?>
<!-- Generator: Adobe Illustrator 18.1.0, SVG Export Plug-In . SVG Version: 6.00 Build 0)  -->
<!DOCTYPE svg PUBLIC "-//W3C//DTD SVG 1.1//EN" "http://www.w3.org/Graphics/SVG/1.1/DTD/svg11.dtd">
<svg version="1.1" id="Layer_1" xmlns="http://www.w3.org/2000/svg" xmlns:xlink="http://www.w3.org/1999/xlink" x="0px" y="0px"
	 width="110px" height="40px" viewBox="0 0 110 40" enable-background="new 0 0 110 40" xml:space="preserve">
<g>
	<rect x="73" y="3.1" transform="matrix(0.9628 -0.2701 0.2701 0.9628 1.7524 19.9069)" fill="#231F20" width="0.4" height="0.9"/>
	<g>
		<polygon fill="#231F20" points="77.3,26.2 76.5,27.8 75.7,26.2 		"/>
		<polygon fill="#231F20" points="75.4,26.2 74.5,27.8 73.7,26.2 		"/>
		<polygon fill="#231F20" points="73.4,26.2 72.6,27.8 71.8,26.2 		"/>
	</g>
	<g>
		<polygon fill="#231F20" points="39.6,25.8 38.8,27.5 38,25.8 		"/>
		<polygon fill="#231F20" points="37.5,25.8 36.7,27.5 35.9,25.8 		"/>
		<polygon fill="#231F20" points="35.4,25.8 34.6,27.5 33.8,25.8 		"/>
	</g>
	<g>
		<polygon fill="#231F20" points="100.4,14.9 99.1,17.2 97.8,14.9 		"/>
		<polygon fill="#231F20" points="97.3,14.9 95.9,17.2 94.6,14.9 		"/>
		<polygon fill="#231F20" points="94.1,14.9 92.8,17.2 91.5,14.9 		"/>
		<polygon fill="#231F20" points="90.9,14.9 89.6,17.2 88.3,14.9 		"/>
		<polygon fill="#231F20" points="87.8,14.9 86.4,17.2 85.1,14.9 		"/>
		<polygon fill="#231F20" points="84.6,14.9 83.3,17.2 82,14.9 		"/>
	</g>
	<path fill="#231F20" d="M52,22.4h0.4V18H52V22.4z M50.5,22.4H51V18h-0.4V22.4z M53.5,22.4h0.4V18h-0.4V22.4z M56.4,22.4h0.4V18
		h-0.4V22.4z M49.1,22.4h0.4V18h-0.4V22.4z M41.7,22.4h0.4v-3.6c-0.1,0.1-0.3,0.2-0.4,0.3V22.4z M43.2,22.4h0.4v-4.2
		c-0.1,0-0.3,0.1-0.4,0.1V22.4z M46.1,22.4h0.4V18h-0.4V22.4z M44.6,18v4.4h0.4V18h-0.2C44.8,18,44.7,18,44.6,18z M47.6,22.4H48V18
		h-0.4V22.4z M55,22.4h0.4V18H55V22.4z M65.3,22.4h0.4V18h-0.4V22.4z M66.8,22.4h0.4v-4.3c-0.1,0-0.3,0-0.4,0V22.4z M68.2,22.4h0.4
		v-3.9c-0.1-0.1-0.3-0.1-0.4-0.2V22.4z M40.2,22.4h0.4v-2.3c-0.2,0.2-0.3,0.4-0.4,0.7V22.4z M69.7,18.8v3.5h0.4v-3.1
		C70,19.1,69.9,19,69.7,18.8z M59.4,22.4h0.4V18h-0.4V22.4z M57.9,22.4h0.4V18h-0.4V22.4z M60.9,22.4h0.4V18h-0.4V22.4z M62.3,22.4
		h0.4V18h-0.4V22.4z M63.8,22.4h0.4V18h-0.4V22.4z"/>
	<path fill="#231F20" d="M10.5,21.2l2.2,3.1c0.1-0.1,0.2-0.1,0.3-0.1L10.9,21C10.7,21,10.6,21.1,10.5,21.2z M9.2,22.2l2.4,2.7
		c0.1-0.1,0.2-0.1,0.3-0.2l-2.3-2.8C9.5,22,9.4,22.1,9.2,22.2z M8.1,23.3l2.4,2.3c0.1-0.1,0.2-0.1,0.3-0.2L8.4,23
		C8.3,23.1,8.2,23.2,8.1,23.3z M7.1,24.5l2.4,1.9c0.1-0.1,0.2-0.2,0.3-0.2l-2.4-2C7.2,24.3,7.2,24.4,7.1,24.5z M11.8,20.4l2.1,3.5
		c0.1,0,0.2-0.1,0.3-0.1l-2-3.6C12.1,20.2,12,20.3,11.8,20.4z M6.1,25.8l2.2,1.5c0.1-0.1,0.2-0.2,0.3-0.3l-2.3-1.6
		C6.3,25.5,6.2,25.6,6.1,25.8z M14.7,19l1.6,4.1c0.1,0,0.2-0.1,0.3-0.1l-1.5-4.1C15,18.9,14.8,19,14.7,19z M17.8,18.1l0.9,4.6
		c0.1,0,0.2,0,0.4,0L18.2,18C18.1,18,17.9,18,17.8,18.1z M13.2,19.6l1.8,3.8c0.1,0,0.2-0.1,0.3-0.1l-1.7-3.9
		C13.5,19.5,13.4,19.6,13.2,19.6z M16.2,18.6l1.3,4.3c0.1,0,0.2,0,0.4-0.1l-1.2-4.3C16.5,18.5,16.3,18.5,16.2,18.6z M5.3,27.1l2,1.1
		c0.1-0.1,0.2-0.2,0.3-0.3l-2.1-1.2C5.5,26.9,5.4,27,5.3,27.1z M2.6,37.5l0.2,0c0-0.1,0-0.3,0.1-0.4l-0.3,0
		C2.6,37.2,2.6,37.4,2.6,37.5z M3.2,33l0.9,0.2c0.1-0.1,0.1-0.3,0.2-0.4l-1-0.3C3.3,32.7,3.3,32.8,3.2,33z M2.7,36L3.1,36
		c0-0.1,0.1-0.3,0.1-0.4l-0.5-0.1C2.8,35.7,2.8,35.8,2.7,36z M2.9,34.5l0.6,0.1c0-0.1,0.1-0.3,0.1-0.4L3,34C3,34.2,3,34.3,2.9,34.5z
		 M4.7,28.5l1.8,0.8c0.1-0.1,0.2-0.2,0.3-0.3l-1.8-0.9C4.8,28.3,4.7,28.4,4.7,28.5z M3.6,31.5l1.2,0.4c0.1-0.1,0.1-0.2,0.2-0.4
		L3.7,31C3.7,31.2,3.7,31.3,3.6,31.5z M4.1,30l1.5,0.6c0.1-0.1,0.2-0.2,0.2-0.3l-1.6-0.6C4.2,29.7,4.1,29.8,4.1,30z M26.8,22.6h0.4
		v0L26.8,22.6L26.8,22.6z M29.8,22.6h0.4v0L29.8,22.6L29.8,22.6z M25.3,22.6h0.4v0L25.3,22.6L25.3,22.6z M29.8,22.6h0.4l0-4.2
		c-0.1,0-0.3-0.1-0.4-0.1L29.8,22.6z M23.8,22.6h0.4v0L23.8,22.6L23.8,22.6z M19.6,22.6c0.1,0,0.3,0,0.4,0l-0.3-4.5l-0.4,0
		L19.6,22.6z M32.8,20.3l0,2.3h0.4l0-1.6C33.1,20.7,32.9,20.5,32.8,20.3z M22.3,22.6h0.4v0L22.3,22.6L22.3,22.6z M32.8,22.6h0.4v0
		L32.8,22.6L32.8,22.6z M31.3,22.6h0.4v0L31.3,22.6L31.3,22.6z M28.3,22.6h0.4v0L28.3,22.6L28.3,22.6z M28.3,18.1l0,4.5h0.4l0-4.5
		c-0.1,0-0.2,0-0.2,0L28.3,18.1z M20.8,22.6h0.4v0L20.8,22.6L20.8,22.6z M31.3,22.6h0.4l0-3.4c-0.1-0.1-0.3-0.2-0.4-0.3L31.3,22.6z
		 M25.3,22.6h0.4l0-4.5l-0.4,0L25.3,22.6z M26.8,22.6h0.4l0-4.5l-0.4,0L26.8,22.6z M20.8,22.6h0.4l0-4.5l-0.4,0L20.8,22.6z
		 M22.3,22.6h0.4l0-4.5l-0.4,0L22.3,22.6z M23.8,22.6h0.4l0-4.5l-0.4,0L23.8,22.6z"/>
	<g>
		<polygon fill="#231F20" points="25.7,7.7 28.1,5.7 30.4,7.7 		"/>
		<polygon fill="#231F20" points="31.4,7.7 33.8,5.7 36.1,7.7 		"/>
		<polygon fill="#231F20" points="37.1,7.7 39.4,5.7 41.8,7.7 		"/>
		<polygon fill="#231F20" points="42.7,7.7 45.1,5.7 47.4,7.7 		"/>
		<polygon fill="#231F20" points="48.4,7.7 50.7,5.7 53.1,7.7 		"/>
		<polygon fill="#231F20" points="54.1,7.7 56.4,5.7 58.8,7.7 		"/>
		<polygon fill="#231F20" points="59.7,7.7 62.1,5.7 64.4,7.7 		"/>
		<polygon fill="#231F20" points="65.4,7.7 67.7,5.7 70.1,7.7 		"/>
	</g>
	<polygon fill="#231F20" points="20.3,8.7 22.2,6.2 24.9,7.8 	"/>
	<polygon fill="#231F20" points="15.3,10.8 16.6,7.9 19.6,8.9 	"/>
	<path fill="#231F20" d="M103.9,7.8c0-0.6-0.5-1-1-1c-0.6,0-1,0.5-1,1c0,0,0,0,0,0L103.9,7.8C103.9,7.8,103.9,7.8,103.9,7.8z"/>
	<rect x="70" y="5.3" transform="matrix(0.5797 -0.8149 0.8149 0.5797 24.8765 59.6378)" fill="#231F20" width="0.4" height="0.9"/>
	<rect x="71.2" y="4" transform="matrix(0.7673 -0.6413 0.6413 0.7673 13.8073 46.842)" fill="#231F20" width="0.4" height="0.9"/>
	<polygon fill="#231F20" points="10.9,13.8 11.7,10.8 14.8,11.2 	"/>
	
		<rect x="74.9" y="3" transform="matrix(0.9966 8.264937e-02 -8.264937e-02 0.9966 0.54 -6.1981)" fill="#231F20" width="0.4" height="0.9"/>
	<rect x="76.7" y="3.4" transform="matrix(0.917 0.3988 -0.3988 0.917 7.9004 -30.3447)" fill="#231F20" width="0.4" height="0.9"/>
	<path fill="#231F20" d="M93.8,14.3l1.5,0h6.3c3.6,0,6.5-2.9,6.5-6.5h0h-4.1c0,0.5-0.5,1-1,1c-0.5,0-1-0.4-1-1H78.8l-0.1,0
		c-0.4-1.8-2-3.2-4-3.2c-1.8,0-3.4,1.2-3.9,2.9l-0.5,0h0H27.8h0C13.6,7.5,2.2,19,2.2,33.2v3.4c0-0.5,0-1,0-1.4V38l0.2,2
		c0-0.8,0.1-1.6,0.2-2.4C2.9,32.2,5,20.5,18.2,18.1l10.3,0c2.6,0,4.8,1.9,5.3,4.4h0v0.1v2.5h5.8v-2.8h0c0.4-2.5,2.6-4.4,5.2-4.4H66
		c2.6,0,5.7,2.5,5.7,4.4v3.1h3h2.5v-2.3v-0.4h26.3c0-2.6-2.1-4.7-4.7-4.7h-7.9l-1.1,0h-5.8c-2.7,0-5-1.6-5.9-3.9l0.4,0.1H93.8z
		 M10.5,17.4l0.7-3.1l3.1,0.4L10.5,17.4z M15.2,14.2l1.3-2.9l3,1L15.2,14.2z M20.6,11.9l2-2.5l2.7,1.7L20.6,11.9z M25.8,11l2.4-2.1
		l2.4,2.1H25.8z M31.5,11l2.4-2.1l2.4,2.1H31.5z M37.2,11l2.4-2.1l2.4,2.1H37.2z M42.8,11l2.4-2.1l2.4,2.1H42.8z M48.5,11l2.4-2.1
		l2.4,2.1H48.5z M54.2,11l2.4-2.1l2.4,2.1H54.2z M59.8,11l2.4-2.1l2.4,2.1H59.8z M65.5,11l2.4-2.1l2.4,2.1H65.5z M74.8,9.3
		c-0.6,0-1-0.5-1-1c0-0.6,0.5-1,1-1c0.6,0,1,0.5,1,1C75.8,8.8,75.3,9.3,74.8,9.3z"/>
	<path fill="#231F20" d="M20.5,22.6l13.3,0v-0.1h0c0,0,0,0,0,0.1H20.5z"/>
	
		<rect x="78.3" y="4.5" transform="matrix(0.7017 0.7125 -0.7125 0.7017 26.9271 -54.469)" fill="#231F20" width="0.4" height="0.9"/>
	
		<rect x="79.3" y="6" transform="matrix(0.3951 0.9186 -0.9186 0.3951 54.0371 -69.1121)" fill="#231F20" width="0.4" height="0.9"/>
</g>
</svg>
