<?xml version="1.0" encoding="UTF-8" standalone="no"?>
<svg width="545px" height="191px" viewBox="0 0 545 191" version="1.1" xmlns="http://www.w3.org/2000/svg" xmlns:xlink="http://www.w3.org/1999/xlink" xmlns:sketch="http://www.bohemiancoding.com/sketch/ns">
    <!-- Generator: Sketch 3.1.1 (8761) - http://www.bohemiancoding.com/sketch -->
    <title>animals_crocadile</title>
    <desc>Created with Sketch.</desc>
    <defs></defs>
    <g id="Page-1" stroke="none" stroke-width="1" fill="none" fill-rule="evenodd" sketch:type="MSPage">
        <g id="animals_crocadile" sketch:type="MSLayerGroup" transform="translate(0.000000, 1.000000)" fill="#231F20">
            <rect id="Rectangle-path" sketch:type="MSShapeGroup" transform="translate(364.957870, 2.304135) rotate(-15.670717) translate(-364.957870, -2.304135) " x="363.907903" y="0.00420647361" width="2.09993474" height="4.59985705"></rect>
            <g id="Group" transform="translate(358.000000, 119.000000)" sketch:type="MSShapeGroup">
                <path d="M28.1,-0.3 L23.9,8.1 L19.8,-0.3 L28.1,-0.3 Z" id="Shape"></path>
                <path d="M18,-0.3 L13.9,8.1 L9.7,-0.3 L18,-0.3 Z" id="Shape"></path>
                <path d="M8,-0.3 L3.8,8.1 L-0.4,-0.3 L8,-0.3 Z" id="Shape"></path>
            </g>
            <g id="Group" transform="translate(162.000000, 117.000000)" sketch:type="MSShapeGroup">
                <path d="M30.5,-0.2 L26.3,8.2 L22.1,-0.2 L30.5,-0.2 Z" id="Shape"></path>
                <path d="M19.6,-0.2 L15.4,8.2 L11.3,-0.2 L19.6,-0.2 Z" id="Shape"></path>
                <path d="M8.8,-0.2 L4.6,8.2 L0.4,-0.2 L8.8,-0.2 Z" id="Shape"></path>
            </g>
            <g id="Group" transform="translate(410.000000, 61.000000)" sketch:type="MSShapeGroup">
                <path d="M94.8,-0.1 L88.1,11.6 L81.3,-0.1 L94.8,-0.1 Z" id="Shape"></path>
                <path d="M78.5,-0.1 L71.8,11.6 L65,-0.1 L78.5,-0.1 Z" id="Shape"></path>
                <path d="M62.3,-0.1 L55.5,11.6 L48.8,-0.1 L62.3,-0.1 Z" id="Shape"></path>
                <path d="M46,-0.1 L39.3,11.6 L32.5,-0.1 L46,-0.1 Z" id="Shape"></path>
                <path d="M29.7,-0.1 L23,11.6 L16.2,-0.1 L29.7,-0.1 Z" id="Shape"></path>
                <path d="M13.5,-0.1 L6.7,11.6 L0,-0.1 L13.5,-0.1 Z" id="Shape"></path>
            </g>
            <path d="M256.1,99.1 L258.3,99.1 L258.3,76.6 L256.1,76.6 L256.1,99.1 L256.1,99.1 Z M248.5,99.1 L250.7,99.1 L250.7,76.6 L248.5,76.6 L248.5,99.1 L248.5,99.1 Z M263.7,99.1 L265.9,99.1 L265.9,76.6 L263.7,76.6 L263.7,99.1 L263.7,99.1 Z M278.8,99.1 L281,99.1 L281,76.6 L278.8,76.6 L278.8,99.1 L278.8,99.1 Z M241,99.1 L243.2,99.1 L243.2,76.6 L241,76.6 L241,99.1 L241,99.1 Z M203.1,99.1 L205.3,99.1 L205.3,80.5 C204.6,81 203.8,81.5 203.1,82 L203.1,99.1 L203.1,99.1 Z M210.6,99.1 L212.8,99.1 L212.8,77.4 C212.1,77.6 211.3,77.8 210.6,78 L210.6,99.1 L210.6,99.1 Z M225.8,99.1 L228,99.1 L228,76.6 L225.8,76.6 L225.8,99.1 L225.8,99.1 Z M218.2,76.6 L218.2,99.1 L220.4,99.1 L220.4,76.6 L219.3,76.6 L218.2,76.6 L218.2,76.6 Z M233.4,99.1 L235.6,99.1 L235.6,76.6 L233.4,76.6 L233.4,99.1 L233.4,99.1 Z M271.3,99.1 L273.5,99.1 L273.5,76.6 L271.3,76.6 L271.3,99.1 L271.3,99.1 Z M324.3,99.1 L326.5,99.1 L326.5,76.6 L324.3,76.6 L324.3,99.1 L324.3,99.1 Z M331.9,99.1 L334.1,99.1 L334.1,76.9 C333.4,76.8 332.7,76.7 331.9,76.6 L331.9,99.1 L331.9,99.1 Z M339.5,99.1 L341.7,99.1 L341.7,79.3 C341,79 340.3,78.6 339.5,78.4 L339.5,99.1 L339.5,99.1 Z M195.5,99.1 L197.7,99.1 L197.7,87.4 C196.9,88.5 196.2,89.6 195.5,90.8 L195.5,99.1 L195.5,99.1 Z M347,81 L347,99.2 L349.2,99.2 L349.2,83 C348.5,82.3 347.8,81.6 347,81 L347,81 Z M294,99.1 L296.2,99.1 L296.2,76.6 L294,76.6 L294,99.1 L294,99.1 Z M286.4,99.1 L288.6,99.1 L288.6,76.6 L286.4,76.6 L286.4,99.1 L286.4,99.1 Z M301.6,99.1 L303.8,99.1 L303.8,76.6 L301.6,76.6 L301.6,99.1 L301.6,99.1 Z M309.2,99.1 L311.4,99.1 L311.4,76.6 L309.2,76.6 L309.2,99.1 L309.2,99.1 Z M316.7,99.1 L318.9,99.1 L318.9,76.6 L316.7,76.6 L316.7,99.1 L316.7,99.1 Z" id="Shape" sketch:type="MSShapeGroup"></path>
            <path d="M42.8,93.1 L54.3,109.1 C54.9,108.8 55.4,108.6 56,108.3 L44.7,91.8 C44.1,92.2 43.4,92.7 42.8,93.1 L42.8,93.1 Z M36.4,98.2 L48.5,112.2 C49,111.9 49.6,111.6 50.1,111.3 L38.1,96.7 C37.6,97.2 37,97.7 36.4,98.2 L36.4,98.2 Z M30.5,103.8 L42.8,115.7 C43.3,115.3 43.9,115 44.4,114.7 L32.1,102.2 C31.6,102.7 31,103.2 30.5,103.8 L30.5,103.8 Z M25.2,110 L37.3,119.7 C37.8,119.3 38.3,118.9 38.9,118.5 L26.7,108.2 C26.2,108.8 25.7,109.4 25.2,110 L25.2,110 Z M49.7,88.8 L60.3,106.7 C60.9,106.5 61.4,106.2 62,106 L51.7,87.6 C51,88 50.3,88.4 49.7,88.8 L49.7,88.8 Z M20.5,116.6 L31.9,124.3 C32.4,123.8 32.9,123.4 33.4,123 L21.7,114.7 C21.3,115.3 20.9,115.9 20.5,116.6 L20.5,116.6 Z M64.3,82 L72.3,102.8 C72.9,102.7 73.5,102.5 74.1,102.4 L66.5,81.2 C65.8,81.4 65.1,81.7 64.3,82 L64.3,82 Z M80.3,77 L84.8,100.7 C85.4,100.6 86,100.6 86.7,100.6 L82.6,76.6 C81.7,76.7 81,76.8 80.3,77 L80.3,77 Z M56.9,85 L66.2,104.4 C66.8,104.2 67.4,104.1 67.9,103.9 L58.9,84 C58.3,84.4 57.6,84.7 56.9,85 L56.9,85 Z M72,79.5 L78.6,101.5 C79.2,101.4 79.8,101.3 80.4,101.2 L74.2,78.9 C73.5,79.1 72.7,79.3 72,79.5 L72,79.5 Z M16.4,123.5 L26.8,129.3 C27.3,128.8 27.8,128.3 28.2,127.8 L17.5,121.5 C17.1,122.2 16.7,122.9 16.4,123.5 L16.4,123.5 Z M2.4,176.9 L3.6,177 C3.7,176.3 3.9,175.5 4,174.8 L2.6,174.7 C2.4,175.4 2.4,176.1 2.4,176.9 L2.4,176.9 Z M5.5,153.5 L10.1,154.6 C10.4,153.9 10.7,153.3 11,152.6 L6,151.3 C5.9,152 5.7,152.7 5.5,153.5 L5.5,153.5 Z M3,169 L5.1,169.3 C5.3,168.6 5.5,167.9 5.7,167.1 L3.3,166.7 C3.2,167.5 3.1,168.3 3,169 L3,169 Z M4.1,161.2 L7.4,161.8 C7.6,161.1 7.9,160.4 8.1,159.7 L4.4,159 C4.3,159.7 4.2,160.5 4.1,161.2 L4.1,161.2 Z M12.9,130.8 L22,135 C22.4,134.4 22.9,133.9 23.3,133.3 L13.8,128.6 C13.5,129.4 13.2,130.1 12.9,130.8 L12.9,130.8 Z M7.5,145.8 L13.6,147.7 C14,147.1 14.3,146.4 14.7,145.8 L8.2,143.6 C7.9,144.3 7.7,145 7.5,145.8 L7.5,145.8 Z M9.9,138.2 L17.5,141.1 C17.9,140.5 18.3,139.9 18.7,139.3 L10.6,136 C10.4,136.8 10.2,137.5 9.9,138.2 L9.9,138.2 Z M126.7,100.3 L128.9,100.3 L128.9,100.2 L126.7,100.3 L126.7,100.3 Z M142,100.3 L144.2,100.3 L142,100.3 L142,100.3 Z M119,100.3 L121.2,100.3 L121.2,100.2 L119,100.3 L119,100.3 Z M142,100.2 L144.2,100.2 L144.2,78.8 C143.5,78.6 142.8,78.3 142,78.1 L142,100.2 L142,100.2 Z M111.3,100.3 L113.5,100.3 L113.5,100.2 L111.3,100.3 L111.3,100.3 Z M89.8,100.4 C90.5,100.4 91.2,100.4 91.9,100.3 L90.6,77.1 L88.4,77.1 L89.8,100.4 L89.8,100.4 Z M157.3,88.4 L157.3,100.2 L159.5,100.2 L159.5,91.9 C158.8,90.6 158.1,89.5 157.3,88.4 L157.3,88.4 Z M103.7,100.3 L105.9,100.3 L105.9,100.2 L103.7,100.3 L103.7,100.3 Z M157.3,100.3 L159.5,100.3 L157.3,100.3 L157.3,100.3 Z M149.6,100.3 L151.8,100.3 L149.6,100.3 L149.6,100.3 Z M134.3,100.3 L136.5,100.3 L134.3,100.3 L134.3,100.3 Z M134.3,77.3 L134.3,100.2 L136.5,100.2 L136.5,77.3 C136.1,77.3 135.7,77.2 135.2,77.2 L134.3,77.3 L134.3,77.3 Z M96,100.3 L98.2,100.3 L98.2,100.2 L96,100.3 L96,100.3 Z M149.6,100.2 L151.8,100.2 L151.8,82.9 C151.1,82.4 150.4,81.9 149.6,81.4 L149.6,100.2 L149.6,100.2 Z M119,100.2 L121.2,100.2 L121.2,77.2 L119,77.2 L119,100.2 L119,100.2 Z M126.7,100.2 L128.9,100.2 L128.9,77.3 L126.7,77.3 L126.7,100.2 L126.7,100.2 Z M96,100.2 L98.2,100.2 L98.2,77.2 L96,77.2 L96,100.2 L96,100.2 Z M103.7,100.2 L105.9,100.2 L105.9,77.2 L103.7,77.2 L103.7,100.2 L103.7,100.2 Z M111.3,100.2 L113.5,100.2 L113.5,77.2 L111.3,77.2 L111.3,100.2 L111.3,100.2 Z" id="Shape" sketch:type="MSShapeGroup"></path>
            <g id="Group" transform="translate(121.000000, 13.000000)" sketch:type="MSShapeGroup">
                <path d="M0.2,11 L12.3,0.2 L24.3,11 L0.2,11 Z" id="Shape"></path>
                <path d="M29.3,11 L41.4,0.2 L53.4,11 L29.3,11 Z" id="Shape"></path>
                <path d="M58.4,11 L70.4,0.2 L82.5,11 L58.4,11 Z" id="Shape"></path>
                <path d="M87.5,11 L99.5,0.2 L111.6,11 L87.5,11 Z" id="Shape"></path>
                <path d="M116.6,11 L128.6,0.2 L140.7,11 L116.6,11 Z" id="Shape"></path>
                <path d="M145.7,11 L157.7,0.2 L169.8,11 L145.7,11 Z" id="Shape"></path>
                <path d="M174.8,11 L186.8,0.2 L198.9,11 L174.8,11 Z" id="Shape"></path>
                <path d="M203.8,11 L215.9,0.2 L228,11 L203.8,11 Z" id="Shape"></path>
            </g>
            <path d="M93,28.7 L102.9,15.9 L116.8,24.2 L93,28.7 Z" id="Shape" sketch:type="MSShapeGroup"></path>
            <path d="M67.3,39.7 L74,25 L89.4,29.9 L67.3,39.7 Z" id="Shape" sketch:type="MSShapeGroup"></path>
            <path d="M522.7,24.3 C522.7,21.4 520.4,19.1 517.5,19.1 C514.6,19.1 512.3,21.4 512.3,24.3 L512.3,24.4 L522.7,24.4 C522.6,24.4 522.7,24.3 522.7,24.3 L522.7,24.3 Z" id="Shape" sketch:type="MSShapeGroup"></path>
            <path d="M352.3,14 L351.1,15.7 L347.3,13 L348.5,11.3 L352.3,14 Z" id="Shape" sketch:type="MSShapeGroup"></path>
            <rect id="Rectangle-path" sketch:type="MSShapeGroup" transform="translate(356.386955, 7.124725) rotate(-39.888467) translate(-356.386955, -7.124725) " x="355.336947" y="4.82470777" width="2.10001573" height="4.60003445"></rect>
            <path d="M45.2,55.2 L49.1,39.5 L65.1,41.6 L45.2,55.2 Z" id="Shape" sketch:type="MSShapeGroup"></path>
            <rect id="Rectangle-path" sketch:type="MSShapeGroup" transform="translate(375.012539, 2.309073) rotate(4.740767) translate(-375.012539, -2.309073) " x="373.962517" y="0.0090242189" width="2.1000446" height="4.6000977"></rect>
            <path d="M383.9,6.3 L382,5.5 L383.8,1.2 L385.7,2.1 L383.9,6.3 Z" id="Shape" sketch:type="MSShapeGroup"></path>
            <path d="M470.8,57.8 L478.4,57.7 L510.8,57.7 C529.2,57.7 544.1,42.8 544.1,24.4 L543.9,24.4 L522.7,24.4 C522.6,27.2 520.3,29.5 517.5,29.5 C514.7,29.5 512.4,27.2 512.3,24.4 L393.5,24.4 L392.9,24.4 C390.7,15.1 382.4,8.1 372.4,8.1 C362.9,8.1 354.9,14.4 352.3,23 L349.5,22.9 L349.3,22.9 L131.9,22.9 L131.7,22.9 C59,22.9 0.1,81.8 0.1,154.5 L0.1,171.8 C0.1,169.3 0.2,166.8 0.3,164.4 L0.3,179.5 L1.4,189.7 C1.4,185.5 1.7,181.4 2.3,177.4 C3.7,149.6 14.8,89.4 82.4,77.2 L135.2,77.3 C148.7,77.3 159.9,87.1 162.2,100 L162.3,100 L162.3,100.4 L162.3,113.5 L192.3,113.5 L192.3,99.2 L192.6,99.2 C194.8,86.4 205.9,76.7 219.3,76.7 L328.1,76.7 C341.5,76.7 357.6,89.5 357.6,99.2 L357.6,115.2 L373.1,115.2 L386.2,115.2 L386.2,103.5 L386.2,101.5 L521,101.5 C521,88.2 510.2,77.3 496.8,77.3 L456,77.3 L450.5,77.2 L420.9,77.2 C407.2,77.2 395.4,68.9 390.4,57 L392.7,57.7 L470.8,57.7 L470.8,57.8 Z M43.1,73.4 L46.9,57.7 L63,59.6 L43.1,73.4 L43.1,73.4 Z M67,56.9 L73.7,42.2 L89.1,47.2 L67,56.9 L67,56.9 Z M94.6,45.3 L104.8,32.7 L118.5,41.3 L94.6,45.3 L94.6,45.3 Z M121.7,40.6 L133.8,29.8 L145.9,40.6 L121.7,40.6 L121.7,40.6 Z M150.8,40.6 L162.9,29.8 L175,40.6 L150.8,40.6 L150.8,40.6 Z M179.9,40.6 L192,29.9 L204.1,40.7 L179.9,40.7 L179.9,40.6 Z M209,40.6 L221.1,29.8 L233.2,40.6 L209,40.6 L209,40.6 Z M238.1,40.6 L250.2,29.8 L262.3,40.6 L238.1,40.6 L238.1,40.6 Z M267.2,40.6 L279.3,29.8 L291.4,40.6 L267.2,40.6 L267.2,40.6 Z M296.3,40.6 L308.4,29.8 L320.5,40.6 L296.3,40.6 L296.3,40.6 Z M325.4,40.6 L337.5,29.8 L349.6,40.6 L325.4,40.6 L325.4,40.6 Z M373,31.8 C370.1,31.8 367.8,29.5 367.8,26.6 C367.8,23.7 370.1,21.4 373,21.4 C375.9,21.4 378.2,23.7 378.2,26.6 C378.2,29.5 375.9,31.8 373,31.8 L373,31.8 Z" id="Shape" sketch:type="MSShapeGroup"></path>
            <path id="Shape" sketch:type="MSShapeGroup" d="M94,100.2 L162.4,100.3 L162.4,99.9 L162.3,99.9 C162.3,100 162.3,100.1 162.4,100.2 L94,100.2 L94,100.2 Z"></path>
            <rect id="Rectangle-path" sketch:type="MSShapeGroup" transform="translate(392.227135, 9.201935) rotate(45.437549) translate(-392.227135, -9.201935) " x="391.177114" y="6.90188999" width="2.1000411" height="4.60009002"></rect>
            <rect id="Rectangle-path" sketch:type="MSShapeGroup" transform="translate(397.350375, 17.108360) rotate(66.726926) translate(-397.350375, -17.108360) " x="396.300412" y="14.8084405" width="2.09992647" height="4.59983893"></rect>
        </g>
    </g>
</svg>