<?xml version="1.0" encoding="utf-8"?>
<!-- Generator: Adobe Illustrator 18.1.0, SVG Export Plug-In . SVG Version: 6.00 Build 0)  -->
<!DOCTYPE svg PUBLIC "-//W3C//DTD SVG 1.1//EN" "http://www.w3.org/Graphics/SVG/1.1/DTD/svg11.dtd">
<svg version="1.1" id="Layer_1" xmlns="http://www.w3.org/2000/svg" xmlns:xlink="http://www.w3.org/1999/xlink" x="0px" y="0px"
	 width="110px" height="174.4px" viewBox="0 0 110 174.4" enable-background="new 0 0 110 174.4" xml:space="preserve">
<g>
	<g>
		<g>
			<path fill="#231F20" d="M108.5,127.7c-1.6,0.2-3.3-1.4-3.8-2.5c-1.4-3-0.8-4.9-0.8-4.9h0c0.1-1,0.9-1.8,1.9-2
				c-0.4-1.3-0.9-2.5-1.3-3.6c-2.2-5.8-5-7.8-8.8-9.3c-2.1-0.8-4.2-1.6-5.9-2.1c0.8,0.5,1.6,1,2.3,1.6l-1.3,2.3H86l-2.4-4.2l1.1-1.9
				c0.9,0.3,1.7,0.6,2.4,0.9l0.1-0.4c0,0,4.7,1.5,8.9,3.1c3.9,1.5,6.9,3.7,9.2,9.7c0.5,1.2,0.9,2.5,1.4,3.9c1,0.1,1.9,0.9,2.1,1.9
				c0.4,2.3-0.7,4.8-1.2,6.7C107.3,127.7,107.5,126.9,108.5,127.7z"/>
		</g>
	</g>
	<g>
		<g>
			<path fill="#231F20" d="M27.5,2.2C28,1.5,28.3,1,28.4,0.7c0-0.1,0.1-0.2,0.1-0.2c0.6,0.2,1.1,0.4,1.6,0.9c0.5,0.4,0.8,0.9,1,1.5
				c-0.3,0-0.9,0.4-1.6,1.1L27.5,2.2z"/>
		</g>
	</g>
	<g>
		<g>
			<polygon fill="#231F20" points="31.3,48 36.1,48 38.6,52.2 36.1,56.4 31.3,56.4 28.9,52.2 			"/>
		</g>
	</g>
	<g>
		<g>
			<polygon fill="#231F20" points="38.8,72.9 36.3,77.1 31.5,77.1 29.1,72.9 31.5,68.7 36.3,68.7 			"/>
		</g>
	</g>
	<g>
		<g>
			<path fill="#231F20" d="M76.4,120.6c-0.2,0.1-0.4,0.1-0.6,0.2l-1.4-2.4l2.4-4.2h4.8l2.4,4.2l-2.4,4.2h-4.5
				C76.9,122,76.6,121.3,76.4,120.6z"/>
		</g>
	</g>
	<g>
		<g>
			<polygon fill="#231F20" points="31.3,58.1 36.1,58.1 38.6,62.3 36.1,66.5 31.3,66.5 28.9,62.3 			"/>
		</g>
	</g>
	<g>
		<g>
			<polygon fill="#231F20" points="67.7,117.7 65.2,113.5 67.7,109.3 72.5,109.3 74.9,113.5 72.5,117.7 			"/>
		</g>
	</g>
	<g>
		<g>
			<path fill="#231F20" d="M38.5,43.3l-2.1,3.6h-4.8l-2.4-4.2l2.4-4.2h4.8l1.7,2.9C38.2,42,38.4,42.7,38.5,43.3z"/>
		</g>
	</g>
	<g>
		<g>
			<polygon fill="#231F20" points="58.2,112.1 55.8,107.9 58.2,103.7 63.1,103.7 65.5,107.9 63.1,112.1 			"/>
		</g>
	</g>
	<g>
		<g>
			<polygon fill="#231F20" points="54.6,107.1 49.8,107.1 47.4,102.9 49.8,98.7 54.6,98.7 57.1,102.9 			"/>
		</g>
	</g>
	<g>
		<g>
			<polygon fill="#231F20" points="45.5,92.1 40.6,92.1 38.2,87.9 40.6,83.7 45.5,83.7 47.9,87.9 			"/>
		</g>
	</g>
	<g>
		<g>
			<polygon fill="#231F20" points="47.9,97.8 45.5,102 40.6,102 38.2,97.8 40.6,93.6 45.5,93.6 			"/>
		</g>
	</g>
	<g>
		<g>
			<path fill="#231F20" d="M50,88.8c1.5,1.9,3.7,3.7,6.6,4.9l-2,3.5h-4.8L47.4,93l2.4-4.2H50z"/>
		</g>
	</g>
	<g>
		<g>
			<path fill="#231F20" d="M44.9,72.1h-4.2l-2.4-4.2l2.4-4.2H43C43.7,66.7,44.3,69.6,44.9,72.1z"/>
		</g>
	</g>
	<g>
		<g>
			<path fill="#231F20" d="M40.8,53.6c0.6,2.9,1.3,5.7,1.9,8.4h-1.9l-2.4-4.2L40.8,53.6L40.8,53.6z"/>
		</g>
	</g>
	<g>
		<g>
			<path fill="#231F20" d="M46.6,80.2l-1.1,1.9h-4.8L38.2,78l2.4-4.2h4.6C45.9,76.6,46.3,78.9,46.6,80.2z"/>
		</g>
	</g>
	<g>
		<g>
			<path fill="#231F20" d="M40.3,51.2l-2-3.4l0.9-1.5C39.5,47.9,39.9,49.6,40.3,51.2z"/>
		</g>
	</g>
	<g>
		<g>
			<path fill="#231F20" d="M31.6,37l-2.4-4.2l2.4-4.2h3.6c0.5,2.3,1.1,4.9,1.7,7.6L36.4,37H31.6z"/>
		</g>
	</g>
	<g>
		<g>
			<path fill="#231F20" d="M50.5,128.9h3.7l2.4,4.2l-2,3.4C53.6,133.9,52.2,131.4,50.5,128.9z"/>
		</g>
	</g>
	<g>
		<g>
			<path fill="#231F20" d="M57.3,125.7c0.7,1.6,2,3.4,4.3,4.8c0,0.5,0,1,0,1.5h-3.1l-2.4-4.2L57.3,125.7z"/>
		</g>
	</g>
	<g>
		<g>
			<path fill="#231F20" d="M47,122.8l2.4-4.2h4.8l2.4,4.1c0,0,0,0.1,0,0.1l-2.4,4.2h-4.8L47,122.8z"/>
		</g>
	</g>
	<g>
		<g>
			<path fill="#231F20" d="M78,124.3h3.6l2.4,4.2l-0.2,0.3C81.5,127.9,79.6,126.7,78,124.3z"/>
		</g>
	</g>
	<g>
		<g>
			<path fill="#231F20" d="M58.2,133.7h3.4c0,2.5-0.1,5.4-0.1,8.4h-3.3l-2.4-4.2L58.2,133.7z"/>
		</g>
	</g>
	<g>
		<g>
			<polygon fill="#231F20" points="49.3,109.1 54.1,109.1 56.5,113.3 54.1,117.5 49.3,117.5 46.8,113.3 			"/>
		</g>
	</g>
	<g>
		<g>
			<path fill="#231F20" d="M57.5,145.8l1.1-1.9h2.9c0,2.8,0,5.7,0,8.4h-2.9l-0.2-0.4C58.2,150,57.9,148,57.5,145.8z"/>
		</g>
	</g>
	<g>
		<g>
			<path fill="#231F20" d="M58.6,154.1h2.9c0,3.1,0,6,0,8.4h-2.9l-0.1-0.2c0-0.1,0-0.2,0-0.3c0.1-2.2,0.2-4.9,0.1-7.8L58.6,154.1z"
				/>
		</g>
	</g>
	<g>
		<g>
			<path fill="#231F20" d="M86,129.2h4.8l1.7,3c-2.4-1.2-4.7-1.9-6.7-2.6L86,129.2z"/>
		</g>
	</g>
	<g>
		<g>
			<path fill="#231F20" d="M101.7,128.9l-2,3.5h-4.8l-2.4-4.2l2.4-4.2h4.7C100.3,126,101,127.6,101.7,128.9z"/>
		</g>
	</g>
	<g>
		<g>
			<polygon fill="#231F20" points="83.2,123.2 85.7,119 90.5,119 92.9,123.2 90.5,127.4 85.7,127.4 			"/>
		</g>
	</g>
	<g>
		<g>
			<path fill="#231F20" d="M96.5,112.4h-1.6l-2.4-4.2l1.1-1.9C94.7,107.8,95.6,109.7,96.5,112.4z"/>
		</g>
	</g>
	<g>
		<g>
			<path fill="#231F20" d="M97.6,116.9c0.4,2,0.9,3.8,1.4,5.4h-4.2l-2.4-4.2l2.4-4.2h2.1C97.1,114.8,97.4,115.8,97.6,116.9z"/>
		</g>
	</g>
	<g>
		<g>
			<polygon fill="#231F20" points="76.8,112.2 74.4,108 76.8,103.8 81.7,103.8 84.1,108 81.7,112.2 			"/>
		</g>
	</g>
	<g>
		<g>
			<polygon fill="#231F20" points="90.8,108.9 93.3,113.1 90.8,117.3 86,117.3 83.6,113.1 86,108.9 			"/>
		</g>
	</g>
	<g>
		<g>
			<polygon fill="#231F20" points="27.5,83.5 29.9,87.7 27.5,91.9 23,91.9 23,83.5 			"/>
		</g>
	</g>
	<g>
		<g>
			<path fill="#231F20" d="M104.8,164.5c0-1.5-0.1-3.4-0.2-5.4h3.3l0.2,6.2l0,0.9c0,0,0,0.5,0,1.3h-3.4c0.1-1.1,0.1-2.3,0.1-2.3
				V164.5z"/>
		</g>
	</g>
	<g>
		<g>
			<path fill="#231F20" d="M72.5,119.2l1.2,2.1c-3,0.7-5.6,0.9-7.8,0.9l1.7-3H72.5z"/>
		</g>
	</g>
	<g>
		<g>
			<path fill="#231F20" d="M108.2,169.2c0,1,0.1,2.1,0.2,2.9c-2.2-0.2-2.2,2.2-2.2,2.2H102l-0.4-0.8c0.8-0.9,2-2.6,2.7-4.4H108.2z"
				/>
		</g>
	</g>
	<g>
		<g>
			<path fill="#231F20" d="M99.8,134l2.4,4.2l-0.7,1.3c-0.3-0.7-0.6-1.2-1-1.5c-1.7-1.6-3.3-2.9-4.8-3.9H99.8z"/>
		</g>
	</g>
	<g>
		<g>
			<path fill="#231F20" d="M102.9,131c2.3,3.2,4.1,3.3,4.1,3.3l0.1,3.1h-3.1l-2.4-4.2L102.9,131z"/>
		</g>
	</g>
	<g>
		<g>
			<path fill="#231F20" d="M103.8,149.6l0.3-0.6h3.4l0.3,8.4h-3.4C104.3,154.8,104.1,152.1,103.8,149.6z"/>
		</g>
	</g>
	<g>
		<g>
			<path fill="#231F20" d="M102.4,142l1.7-3h3.1l0.3,8.4h-3.4l-0.9-1.5C103,144.5,102.7,143.2,102.4,142z"/>
		</g>
	</g>
	<g>
		<g>
			<path fill="#231F20" d="M56.1,117.7l2.4-4.2h4.8l2.4,4.2l-2.4,4.2h-1.2c-2-0.3-3.4-0.8-4.3-1.2L56.1,117.7z"/>
		</g>
	</g>
	<g>
		<g>
			<path fill="#231F20" d="M29.9,108.2l-0.6,1.1c-1.2-1.8-2.2-3.6-3.1-5.3h1.3L29.9,108.2z"/>
		</g>
	</g>
	<g>
		<g>
			<path fill="#231F20" d="M29.9,98.1l-2.4,4.2h-2c-1.4-3.5-2-6.5-2.3-8.4h4.3L29.9,98.1z"/>
		</g>
	</g>
	<g>
		<g>
			<path fill="#231F20" d="M36.6,109.1l2.4,4.2l-2.2,3.8c-2.5-1.8-4.6-3.8-6.3-5.9l1.2-2H36.6z"/>
		</g>
	</g>
	<g>
		<g>
			<path fill="#231F20" d="M45.1,114l2.4,4.2l-2.4,4.2h-0.6c-1.5-1.3-3.2-2.5-5.1-3.6c-0.5-0.3-1-0.6-1.4-0.9l2.2-3.9H45.1z"/>
		</g>
	</g>
	<g>
		<g>
			<path fill="#231F20" d="M56.9,173.9l-0.3,0.5h-2.4c0,0,0.8-0.9,1.7-2.1L56.9,173.9z"/>
		</g>
	</g>
	<g>
		<g>
			<path fill="#231F20" d="M58.5,164.7l0.3-0.5h2.7c0,0.3,0,0.7,0,1v1c0,0,0,1.3,0.1,2.8c0,1.1,0.1,2.2,0.3,3.1
				c-0.7,0-1.2,0.2-1.5,0.5h-1.6l-1.5-2.6c0.2-0.5,0.5-1,0.6-1.5C58.4,167.3,58.5,165.9,58.5,164.7z"/>
		</g>
	</g>
	<g>
		<g>
			<path fill="#231F20" d="M76.8,102l-2-3.5c3,0.7,5.7,1.3,7.8,1.9l-0.9,1.6H76.8z"/>
		</g>
	</g>
	<g>
		<g>
			<polygon fill="#231F20" points="27.3,63.3 29.7,67.5 27.3,71.7 23,71.7 23.1,63.3 			"/>
		</g>
	</g>
	<g>
		<g>
			<polygon fill="#231F20" points="27,53 29.4,57.2 27,61.4 23.1,61.4 23.1,53 			"/>
		</g>
	</g>
	<g>
		<g>
			<polygon fill="#231F20" points="40.6,112 38.2,107.8 40.6,103.6 45.5,103.6 47.9,107.8 45.5,112 			"/>
		</g>
	</g>
	<g>
		<g>
			<polygon fill="#231F20" points="27.3,42.9 29.7,47.1 27.3,51.3 23.1,51.3 23.2,42.9 			"/>
		</g>
	</g>
	<g>
		<g>
			<polygon fill="#231F20" points="31.5,107.1 29.1,102.9 31.5,98.7 36.3,98.7 38.8,102.9 36.3,107.1 			"/>
		</g>
	</g>
	<g>
		<g>
			<polygon fill="#231F20" points="31.8,78.5 36.6,78.5 39.1,82.7 36.6,86.8 31.8,86.8 29.4,82.7 			"/>
		</g>
	</g>
	<g>
		<g>
			<polygon fill="#231F20" points="31.8,88.6 36.6,88.6 39.1,92.8 36.6,97 31.8,97 29.4,92.8 			"/>
		</g>
	</g>
	<g>
		<g>
			<polygon fill="#231F20" points="23,81.8 23,73.4 27.3,73.4 29.7,77.6 27.3,81.8 			"/>
		</g>
	</g>
	<g>
		<g>
			<path fill="#231F20" d="M58.9,102.1l-2.4-4.2l2-3.5c2.1,0.7,4.4,1.4,6.8,2l0.9,1.6l-2.4,4.2H58.9z"/>
		</g>
	</g>
	<g>
		<g>
			<polygon fill="#231F20" points="27.3,32.8 29.7,37 27.3,41.2 23.2,41.2 23.2,32.8 			"/>
		</g>
	</g>
	<g>
		<g>
			<path fill="#231F20" d="M32.9,18.5c0.4,1.7,1.1,4.7,1.9,8.4h-3.2l-2.4-4.2l2.4-4.2H32.9z"/>
		</g>
	</g>
	<g>
		<g>
			<polygon fill="#231F20" points="72.5,107.6 67.7,107.6 65.2,103.4 67.7,99.2 72.5,99.2 74.9,103.4 			"/>
		</g>
	</g>
	<g>
		<g>
			<polygon fill="#231F20" points="27,23 29.4,27.2 27,31.4 23.2,31.4 23.2,23 			"/>
		</g>
	</g>
	<g>
		<g>
			<path fill="#231F20" d="M52.5,133.8c-0.1,9.5-0.1,24.3-0.1,30.8v1c0,0,0,1.3,0.1,2.8c0,1.1,0.1,2.2,0.3,3.1
				c-2.2-0.2-2.2,2.2-2.2,2.2h-5.4c0,0,2.6-2.9,3.7-5.8c0.9-2.5,0.5-5.3,0.5-6.6c0.5-7.9-1.2-27.1-9.1-41.1
				C46,123.9,49.9,128.7,52.5,133.8z"/>
		</g>
	</g>
	<g>
		<g>
			<path fill="#231F20" d="M86.4,130.6c3.5,1.2,7.4,2.5,11.7,6.3l0.9,27.9l0,0.9c0,0,0,1.3,0.1,2.8c0,1.1,0.1,2.2,0.3,3.1
				c-2.2-0.2-2.2,2.2-2.2,2.2h-5.4c0,0,2.8-2.8,3.7-5.8c0.3-1.1,0.3-3.4,0.3-3.4v-0.6c-0.2-7.5-1-23.3-4.3-26.6
				c-10.3-10.2-18.6-6.5-22.9-14.4c2.4-0.2,4.8-0.6,7.3-1.3C78.1,127.7,81.8,129,86.4,130.6z"/>
		</g>
	</g>
	<g>
		<g>
			<path fill="#231F20" d="M1.2,16.4c0,0.3,0.1,2.7,1.7,3.9C5,21.8,7,18.4,8.7,18.8c3.7,0.9,8.9,10.6,15.7,2.2l3.8,0l2.5-4.2l1.9,0
				c-0.2-0.8-0.4-1.5-0.7-2.2C30.9,14.9,29.9,15,29,15c-0.1,0-0.2,0-0.3,0c-1.2,0-2.4-0.3-3.5-0.8l-0.7-0.3l0.2-0.7
				c0.5-1.3,1.2-2.4,2.2-3.4C26,9.4,25,9.2,24,9c2-2,5-4.7,5-4.7l-1.9-1.7c0,0-3.7,4.8-5,6.4c-0.5,0-0.9,0.1-1.4,0.2l-5.5,2.1
				L1.2,16.4z M15.9,14.8c0.5-0.5,1.4-1.2,3.2-0.7c1.8,0.5,2.3,0.5,3,0.5C19.3,18.3,17.7,15.6,15.9,14.8z M3.4,17.8
				c0-0.4,0.3-0.8,0.8-0.8c0.4,0,0.8,0.3,0.8,0.8c0,0.4-0.3,0.8-0.8,0.8C3.7,18.6,3.4,18.2,3.4,17.8z"/>
		</g>
	</g>
	<g>
		<g>
			<path fill="#231F20" d="M47.6,81.4C47.1,77.7,33.8,19,33.3,16.6c-0.2-0.8-0.4-1.5-0.8-2.2c0,0,0.1,0,0.1,0
				c0.9-0.4,1.7-0.9,2.4-1.5c0.4,0.8,0.7,1.7,0.9,2.7c0.6,2.5,13.9,61.2,14.4,65c0.2,1.2,1.2,6.6,7.2,9.7l-1.4,2.5
				C49,89.2,47.8,82.8,47.6,81.4z"/>
		</g>
	</g>
	<g>
		<g>
			<path fill="#231F20" d="M32.3,13.6c0,0-0.1,0-0.1,0.1c-1.1,0.4-2.3,0.6-3.4,0.6c-1.1,0-2.2-0.3-3.2-0.8C26,12,27,10.7,28.2,9.7
				c0.6-0.4,1.2-0.8,1.9-1.1c2.3-0.9,4.7-0.8,6.8,0.1c-0.5,1.3-1.3,2.5-2.3,3.4C34,12.7,33.2,13.2,32.3,13.6z"/>
		</g>
	</g>
</g>
</svg>
