<?xml version="1.0" encoding="utf-8"?>
<!-- Generator: Adobe Illustrator 18.1.0, SVG Export Plug-In . SVG Version: 6.00 Build 0)  -->
<!DOCTYPE svg PUBLIC "-//W3C//DTD SVG 1.1//EN" "http://www.w3.org/Graphics/SVG/1.1/DTD/svg11.dtd">
<svg version="1.1" id="Layer_1" xmlns="http://www.w3.org/2000/svg" xmlns:xlink="http://www.w3.org/1999/xlink" x="0px" y="0px"
	 width="110px" height="86.6px" viewBox="0 0 110 86.6" enable-background="new 0 0 110 86.6" xml:space="preserve">
<g>
	<g>
		<g>
			<path fill="#231F20" d="M7.8,42H7.2v-8.5c0-3,2.5-5.5,5.5-5.5h2.2v0.6h-2.2c-2.7,0-4.9,2.2-4.9,4.9V42z"/>
		</g>
	</g>
	<g>
		<path fill="#231F20" d="M8.8,47.2v-4.1c0-0.7-0.5-1.2-1.2-1.2c-0.7,0-1.2,0.5-1.2,1.2v4.1H8.8z"/>
	</g>
	<g>
		<g>
			<path fill="#231F20" d="M18.3,53.7c-0.4-3.1-1.6-6-3.4-8.5l-0.3-0.4c-1.2-1.6-2.1-3.5-2.7-5.5c0.4,3.8-0.1,7.8-1.8,11.6
				c-1.3,3-3.2,5.6-5.5,7.7l0,0.1c0.3,2.6,0.3,5.2-0.1,7.7L1.3,83v1.7l9.6,0h0c-0.2-1.7-1.7-3-3.5-3l-1.6,0c-0.2,0-0.7,0-1.5,0
				C5.8,64.7,11.3,60.8,18.3,53.7z"/>
		</g>
	</g>
	<g>
		<path fill="#231F20" d="M31.4,83h-6.7l-0.2,1.2V86l9.6,0h0C33.9,84.5,32.8,83.3,31.4,83z"/>
	</g>
	<g>
		<path fill="#231F20" d="M86.9,10.5c1,1,2.2,1.4,3.5,1.3c0.1-1.3-0.3-2.6-1.3-3.5c-1-1-2.2-1.4-3.5-1.3
			C85.5,8.2,85.9,9.5,86.9,10.5z"/>
	</g>
	<g>
		<path fill="#231F20" d="M61.2,6.7c-1.9-3.3-5-3.3-6.9,0L50,14.1c0.1,0.1,0.3,0.2,0.5,0.2c0.9,0,0.9-1.2,1.8-1.2
			c0.9,0,0.9,1.2,1.8,1.2c0.9,0,0.9-1.2,1.8-1.2c0.9,0,0.9,1.2,1.8,1.2c0.9,0,0.9-1.2,1.8-1.2c0.9,0,0.9,1.2,1.8,1.2
			c0.9,0,0.9-1.2,1.8-1.2c0.9,0,0.9,1.2,1.8,1.2c0.3,0,0.5-0.2,0.7-0.4L61.2,6.7z M25.4,6.7l-4.3,7.4c0.1,0.1,0.3,0.2,0.5,0.2
			c0.9,0,0.9-1.2,1.8-1.2c0.9,0,0.9,1.2,1.8,1.2c0.9,0,0.9-1.2,1.8-1.2c0.9,0,0.9,1.2,1.8,1.2c0.9,0,0.9-1.2,1.8-1.2
			c0.9,0,0.9,1.2,1.8,1.2c0.9,0,0.9-1.2,1.8-1.2c0.9,0,0.9,1.2,1.8,1.2c0.3,0,0.5-0.1,0.6-0.3l-4.2-7.3C30.5,3.4,27.3,3.4,25.4,6.7z
			"/>
	</g>
	<g>
		<g>
			<path fill="#231F20" d="M74.8,49l-0.2,0.3h0C73.4,51.7,72,55,71,60.5c0.9,0.4,1.5,1.3,1.7,2.2c0.7-0.4,1.1-1.2,1.1-2.1
				c0-0.8-0.4-1.5-1-2c0.9-5.5,2.2-9.1,3.5-11.8C75.7,47.5,75.2,48.2,74.8,49z"/>
		</g>
		<g>
			<path fill="#231F20" d="M70.3,66.3c-0.4,4.2-0.6,9.1-0.5,14.4c0,0.4,0.1,0.7,0.1,1.1c0,0,0,0,0,0l2.1,0c1.2,0,2.3,0.6,3.1,1.4
				l3.1,0l0,0c-0.2-1.9-1.8-3.4-3.6-3.5l-2.6,0c-0.1-0.6-0.2-1.1-0.2-1.7c-0.1-5,0.1-9.3,0.4-12.9C71.6,65.8,71,66.2,70.3,66.3z"/>
		</g>
	</g>
	<g>
		<path fill="#231F20" d="M106.6,15.2L106.6,15.2c-0.5-1.3-1.7-2.2-3.2-2.2h-3.2c-0.8-2.1-2.8-3.7-5.2-3.7c-1.9,0-3.5,0.9-4.5,2.3
			c-4.6,0.8-8,4.8-8,9.6l0,0.4l0,2.3c0,2.8-2.2,5-4.9,5l-0.3,0c-1.4,0-2.8-0.7-3.7-2l-7.6-12.6c-0.2,0.2-0.5,0.4-1,0.4
			c-0.7,0-1.1-0.5-1.4-0.8c-0.2-0.3-0.3-0.4-0.4-0.4c-0.1,0-0.2,0.1-0.4,0.4c-0.2,0.3-0.6,0.8-1.4,0.8c-0.7,0-1.1-0.5-1.4-0.8
			c-0.2-0.3-0.3-0.4-0.4-0.4c-0.1,0-0.2,0.1-0.4,0.4c-0.2,0.3-0.6,0.8-1.4,0.8c-0.7,0-1.1-0.5-1.4-0.8c-0.2-0.3-0.3-0.4-0.4-0.4
			c-0.1,0-0.2,0.1-0.4,0.4c-0.2,0.3-0.6,0.8-1.4,0.8c-0.7,0-1.1-0.5-1.4-0.8c-0.2-0.3-0.3-0.4-0.4-0.4s-0.2,0.1-0.4,0.4
			c-0.2,0.3-0.6,0.8-1.4,0.8c-0.3,0-0.6-0.1-0.8-0.3l-2.9,5.1c-1.9,3.3-5,3.3-6.9,0l-3-5.1c-0.3,0.2-0.6,0.4-0.9,0.4
			c-0.7,0-1.1-0.5-1.4-0.8c-0.2-0.3-0.3-0.4-0.4-0.4c-0.1,0-0.2,0.1-0.4,0.4c-0.2,0.3-0.6,0.8-1.4,0.8c-0.7,0-1.1-0.5-1.4-0.8
			c-0.2-0.3-0.3-0.4-0.4-0.4c-0.1,0-0.2,0.1-0.4,0.4c-0.2,0.3-0.6,0.8-1.4,0.8c-0.7,0-1.1-0.5-1.4-0.8c-0.2-0.3-0.3-0.4-0.4-0.4
			c-0.1,0-0.2,0.1-0.4,0.4c-0.2,0.3-0.6,0.8-1.4,0.8c-0.7,0-1.1-0.5-1.4-0.8c-0.2-0.3-0.3-0.4-0.4-0.4c-0.1,0-0.2,0.1-0.4,0.4
			c-0.2,0.3-0.6,0.8-1.4,0.8c-0.3,0-0.6-0.1-0.8-0.3l-6.5,11.1c-1.9,2.3-3,5.3-3,8.6c0,2.6,0.7,5.1,2,7.1c0.5,0.9,1,1.8,1.6,2.6
			l0.3,0.4c2.3,3.1,3.6,6.9,3.6,11c0,3.3-0.8,6.3-2.3,9l0.2,0.4l8,21.4h5C17.9,71.3,22,58.8,25.7,48.7l-0.1,0l0.2-0.6
			c1.6-4.3,3-8,2.9-11.4c0-4.2-1.1-8.1-3.1-11.3l0.5-0.3c2.1,3.3,3.2,7.3,3.2,11.6c0,1.8-0.4,3.7-1,5.7c3,3.8,7.6,6.2,12.8,6.2
			c0,0,0,0,0,0l0,0h24.4l0.1-13.6l0.6,0l-0.1,12.3L65.9,85l0,0.9l9.7,0.1h0c-0.2-1.9-1.8-3.4-3.6-3.5l-2.6,0
			c-0.1-0.6-0.2-1.1-0.2-1.7c-0.1-6,0.1-10.9,0.6-15c0,0,0,0,0,0c1.4,0,2.5-1.1,2.5-2.5c0-1.1-0.8-2.1-1.8-2.4
			c1-5.9,2.5-9.5,3.8-12.2h0c1.6-2.8,4-3.9,6.3-3.8l0,0h4.2c6.7,0,12.1-5.4,12.1-12.1l0-10.2l0,0c0-1.3,0.8-2.3,1.9-2.8
			c0.6-0.5,1.4-0.8,2.3-0.8h5.2c0.9,0,1.8,0.3,2.4,0.9v-1.3C108.7,17,107.8,15.8,106.6,15.2z M94.9,15c-0.8,0-1.5-0.7-1.6-1.5h3.1
			C96.4,14.3,95.7,15,94.9,15z"/>
	</g>
	<g>
		<path fill="#231F20" d="M84.6,49.4c-0.1,0-0.2-0.2-0.2-0.3c-0.2-0.3-0.5-0.8-1.2-0.8c-0.7,0-1,0.5-1.2,0.8
			c-0.1,0.1-0.2,0.3-0.2,0.3c-0.1,0-0.2-0.2-0.3-0.3c-0.2-0.3-0.5-0.8-1.2-0.8c-0.7,0-1,0.5-1.2,0.8c-0.1,0.1-0.2,0.3-0.2,0.3
			c-0.1,0-0.2-0.2-0.3-0.3c-0.2-0.3-0.5-0.8-1.2-0.8c-0.7,0-1,0.5-1.2,0.8c-0.1,0.1-0.2,0.3-0.2,0.3c-0.1,0-0.2-0.2-0.3-0.3
			c-0.1-0.2-0.3-0.5-0.6-0.6c1.2-1.9,3-3,5.2-3c0.1,0,0.2,0,0.3,0h4.3c7,0,12.7-5.7,12.7-12.7l0-10l0-0.3c0-0.9,0.5-1.7,1.3-2.1
			c0.2,0.2,0.3,0.3,0.5,0.4c0.1,0,0.1,0.1,0.2,0.1c-0.1,0-0.1,0.1-0.2,0.1c-0.3,0.2-0.8,0.5-0.8,1.1c0,0.7,0.5,1,0.8,1.1
			c0.1,0,0.1,0.1,0.2,0.1c-0.1,0-0.1,0.1-0.2,0.1c-0.3,0.2-0.8,0.5-0.8,1.1c0,0.7,0.5,1,0.8,1.1c0.1,0,0.1,0.1,0.2,0.1
			c-0.1,0-0.1,0.1-0.2,0.1c-0.3,0.2-0.8,0.5-0.8,1.1c0,0.7,0.5,1,0.8,1.1c0.1,0,0.1,0.1,0.2,0.1c-0.1,0-0.1,0.1-0.2,0.1
			c-0.3,0.2-0.8,0.5-0.8,1.1c0,0.7,0.5,1,0.8,1.1c0.1,0,0.1,0.1,0.2,0.1c-0.1,0-0.1,0.1-0.2,0.1c-0.3,0.2-0.8,0.5-0.8,1.1
			c0,0.7,0.5,1,0.8,1.1c0.1,0,0.1,0.1,0.2,0.1c-0.1,0-0.1,0.1-0.2,0.1c-0.3,0.2-0.8,0.5-0.8,1.1c0,0.7,0.5,1,0.8,1.1
			c0.1,0,0.1,0.1,0.2,0.1c-0.1,0-0.1,0.1-0.2,0.1c-0.3,0.2-0.8,0.5-0.8,1.1c0,0.5,0.4,0.8,0.7,1.1c0,0,0.1,0.1,0.2,0.1
			c-0.1,0-0.1,0.1-0.2,0.1c-0.4,0.2-0.8,0.5-0.9,0.9c-0.1,0.5,0.2,0.9,0.5,1.2c0,0.1,0.1,0.1,0.1,0.2c-0.1,0-0.2,0.1-0.2,0.1
			c-0.4,0.1-0.9,0.3-1.1,0.7c-0.2,0.4,0,0.9,0.2,1.3c0,0.1,0.1,0.1,0.1,0.2c-0.1,0-0.2,0-0.2,0c-0.4,0-0.9,0.1-1.2,0.5
			c-0.3,0.4-0.2,0.9-0.1,1.3c0,0.1,0,0.1,0.1,0.2c-0.1,0-0.2,0-0.2,0c-0.2,0-0.4,0-0.5,0c-0.1,0-0.5,0-0.8,0.2
			c-0.4,0.3-0.3,0.8-0.3,1.3c0,0.1,0,0.2,0,0.2c-0.1,0-0.2-0.1-0.2-0.1c-0.3-0.1-0.6-0.2-0.8-0.2c-0.2,0-0.3,0-0.5,0.1
			c-0.4,0.2-0.5,0.7-0.6,1.2c0,0.1,0,0.2,0,0.2c-0.1,0-0.1-0.1-0.2-0.1c-0.3-0.2-0.6-0.4-1-0.4c-0.1,0-0.2,0-0.3,0
			c-0.5,0.1-0.6,0.6-0.8,1c0,0.1-0.1,0.1-0.1,0.2c-0.1-0.1-0.1-0.1-0.2-0.2c-0.3-0.3-0.6-0.6-1.1-0.6l-0.1,0c-0.5,0-0.8,0.5-1,0.8
			c-0.1,0.1-0.1,0.2-0.2,0.3c-0.1-0.1-0.1-0.2-0.2-0.2c-0.2-0.3-0.5-0.8-1.2-0.8c-0.7,0-1,0.5-1.2,0.8
			C84.8,49.3,84.7,49.4,84.6,49.4z"/>
	</g>
</g>
</svg>
