<?xml version="1.0" encoding="UTF-8" standalone="no"?>
<svg width="150px" height="193px" viewBox="0 0 150 193" version="1.1" xmlns="http://www.w3.org/2000/svg" xmlns:xlink="http://www.w3.org/1999/xlink" xmlns:sketch="http://www.bohemiancoding.com/sketch/ns">
    <!-- Generator: Sketch 3.1.1 (8761) - http://www.bohemiancoding.com/sketch -->
    <title>animals_cat</title>
    <desc>Created with Sketch.</desc>
    <defs></defs>
    <g id="Page-1" stroke="none" stroke-width="1" fill="none" fill-rule="evenodd" sketch:type="MSPage">
        <g id="animals_cat" sketch:type="MSLayerGroup">
            <g id="Group" sketch:type="MSShapeGroup">
                <g transform="translate(8.974359, 8.552339)">
                    <path d="M89.8717949,96.3420935 L89.8717949,138.120267 C98.5470085,137.564365 105.42735,130.380401 105.42735,121.571492 L105.42735,96.3420935 L89.8717949,96.3420935 L89.8717949,96.3420935 Z" id="Shape" fill="#231F20"></path>
                    <g>
                        <path d="M34.1025641,32.1567929 C27.008547,32.1567929 20.5555556,36.3046771 17.6068376,42.7616927 L20.5982906,44.1300668 C22.991453,38.8276169 28.3333333,35.4494432 34.1025641,35.4494432 C39.9145299,35.4494432 45.2136752,38.8703786 47.6068376,44.1300668 L50.5982906,42.7616927 C47.6923077,36.3474388 41.1965812,32.1567929 34.1025641,32.1567929 L34.1025641,32.1567929 Z" id="Shape"></path>
                        <path d="M-0.213675214,0.128285078 L6.36752137,24.7162584 L24.3589744,6.71358575 L-0.213675214,0.128285078 Z" id="Shape"></path>
                        <path d="M72.6923077,69.4022272 C69.4871795,69.4022272 66.8803419,66.7937639 66.8803419,63.586637 L66.0683761,63.586637 L65.2564103,63.586637 C65.2564103,66.7937639 62.6495726,69.4022272 59.4444444,69.4022272 C56.2393162,69.4022272 53.6324786,66.7937639 53.6324786,63.586637 L51.965812,63.586637 C51.965812,67.6917595 55.2991453,71.0699332 59.4444444,71.0699332 C62.3504274,71.0699332 64.8717949,69.3594655 66.1111111,66.922049 C67.3504274,69.3594655 69.8290598,71.0699332 72.7777778,71.0699332 C76.8803419,71.0699332 80.2564103,67.6917595 80.2564103,63.586637 L78.5897436,63.586637 C78.5042735,66.7937639 75.8974359,69.4022272 72.6923077,69.4022272 L72.6923077,69.4022272 Z" id="Shape"></path>
                        <path d="M73.7606838,56.0178174 C75.1709402,54.3073497 74.017094,52.9389755 71.1965812,52.9389755 L60.8547009,52.9389755 C58.034188,52.9389755 56.8803419,54.3501114 58.2905983,56.0178174 L63.4615385,62.2610245 C64.1452991,63.1162584 65.0854701,63.5438753 66.025641,63.5438753 C66.965812,63.5438753 67.8632479,63.1162584 68.5897436,62.2610245 L73.7606838,56.0178174 L73.7606838,56.0178174 Z" id="Shape"></path>
                        <rect id="Rectangle-path" x="3.41880342" y="56.0178174" width="10.3846154" height="1.7532294"></rect>
                        <rect id="Rectangle-path" x="3.41880342" y="66.7082405" width="10.3846154" height="1.7532294"></rect>
                        <rect id="Rectangle-path" x="3.41880342" y="61.5768374" width="10.3846154" height="1.7532294"></rect>
                        <rect id="Rectangle-path" x="118.803419" y="67.1358575" width="10.3846154" height="1.7532294"></rect>
                        <rect id="Rectangle-path" x="118.803419" y="56.0178174" width="10.3846154" height="1.7532294"></rect>
                        <path d="M125.726496,24.7162584 L132.307692,0.128285078 L107.735043,6.71358575 L125.726496,24.7162584 Z" id="Shape"></path>
                        <path d="M97.9487179,32.1567929 C90.8547009,32.1567929 84.4017094,36.3046771 81.4529915,42.7616927 L84.4444444,44.1300668 C86.8376068,38.8276169 92.1794872,35.4494432 97.9487179,35.4494432 C103.760684,35.4494432 109.059829,38.8703786 111.452991,44.1300668 L114.444444,42.7616927 C111.538462,36.3474388 105.042735,32.1567929 97.9487179,32.1567929 L97.9487179,32.1567929 Z" id="Shape"></path>
                        <rect id="Rectangle-path" x="118.803419" y="61.5768374" width="10.3846154" height="1.7532294"></rect>
                        <path d="M45.8974359,105.151002 C45.8974359,105.151002 43.6752137,109.042316 41.2393162,114.772383 L41.2393162,114.772383 C43.6752137,109.042316 45.8974359,105.151002 45.8974359,105.151002 L45.8974359,105.151002 Z" id="Shape" fill="#F7E6CF"></path>
                        <path d="M88.2478632,110.325167 C86.7094017,107.11804 85.5982906,105.151002 85.5982906,105.151002 C85.5982906,105.151002 86.7094017,107.11804 88.2478632,110.325167 L88.2478632,110.325167 L88.2478632,110.325167 Z" id="Shape" fill="#F7E6CF"></path>
                    </g>
                    <path d="M97.6495726,87.3621381 C93.3333333,87.3621381 89.8717949,90.8258352 89.8717949,95.1447661 L93.4615385,95.1447661 L93.4615385,91.2534521 L94.4871795,91.2534521 L94.4871795,95.1447661 L97.1794872,95.1447661 L97.1794872,91.2534521 L98.2051282,91.2534521 L98.2051282,95.1447661 L100.897436,95.1447661 L100.897436,91.2534521 L101.923077,91.2534521 L101.923077,95.1447661 L105.42735,95.1447661 C105.42735,90.8258352 101.965812,87.3621381 97.6495726,87.3621381 L97.6495726,87.3621381 Z" id="Shape" fill="#231F20"></path>
                    <g transform="translate(21.794872, 121.870824)" id="Shape" fill="#231F20">
                        <path d="M24.3589744,42.0775056 C24.3589744,39.0414254 25.0854701,36.1336303 26.3247863,33.5679287 L16.7521368,23.9893096 C15.3418803,22.535412 14.1880342,20.9104677 13.3333333,19.2 C13.3333333,21.6374165 13.5470085,23.9465479 14.1880342,25.9563474 C3.8034188,17.1902004 -11.4529915,23.4334076 13.1196581,53.4093541 C13.1196581,53.4093541 1.28205128,55.932294 7.00854701,61.6623608 L31.2393162,61.6623608 L43.9316239,61.6623608 C33.1196581,61.6623608 24.3589744,52.8962138 24.3589744,42.0775056 L24.3589744,42.0775056 Z"></path>
                        <path d="M38.8034188,21.6801782 C38.6752137,21.5518931 38.5470085,21.423608 38.4188034,21.3380846 L17.2222222,0.128285078 C11.4529915,6.67082405 11.6666667,16.6342984 17.9059829,22.8775056 L27.5213675,32.4988864 C27.6068376,32.5844098 27.6495726,32.6699332 27.7350427,32.7554566 C30.7692308,35.7915367 35.7264957,35.7915367 38.7606838,32.7554566 C41.8376068,29.6766147 41.8376068,24.7162584 38.8034188,21.6801782 L38.8034188,21.6801782 Z M34.7008547,34.636971 L31.965812,31.9002227 L32.6923077,31.1732739 L35.4273504,33.9100223 L34.7008547,34.636971 L34.7008547,34.636971 Z M37.3504274,31.9857461 L34.6153846,29.2489978 L35.3418803,28.522049 L38.0769231,31.2587973 L37.3504274,31.9857461 L37.3504274,31.9857461 Z M37.2222222,26.5977728 L37.9487179,25.8708241 L40.6837607,28.6075724 L39.957265,29.3345212 L37.2222222,26.5977728 L37.2222222,26.5977728 Z"></path>
                    </g>
                    <path d="M96.5384615,175.32294 C121.111111,145.304232 105.854701,139.103786 95.5128205,147.869933 C96.4102564,144.876615 96.6666667,141.541203 96.4957265,138.163029 C94.4871795,139.103786 92.3076923,139.659688 90,139.830735 L88.2478632,139.916258 L88.2478632,122.726058 C82.3504274,124.351002 76.1965812,125.377283 69.7863248,125.676615 C70.9401709,127.643653 72.0512821,129.952784 72.0512821,131.192873 C72.0512821,133.715813 70,135.811136 67.4358974,135.811136 C64.9145299,135.811136 62.8205128,133.758575 62.8205128,131.192873 C62.8205128,129.952784 63.9316239,127.729176 65.042735,125.762138 C56.8376068,125.719376 48.9316239,124.479287 41.4957265,122.212918 L61.2820513,142.011581 C61.4102564,142.097105 61.5384615,142.22539 61.6666667,142.353675 C62.3076923,142.9951 62.8205128,143.722049 63.2051282,144.491759 C64.017094,144.406236 64.7863248,144.320713 65.6410256,144.320713 C76.4529915,144.320713 85.2136752,153.08686 85.2136752,163.905568 C85.2136752,174.724276 76.4529915,183.490423 65.6410256,183.490423 L78.3333333,183.490423 L102.564103,183.490423 C108.376068,177.803118 96.5384615,175.32294 96.5384615,175.32294 L96.5384615,175.32294 Z" id="Shape" fill="#231F20"></path>
                </g>
                <path d="M149.529915,9.96347439 C151.452991,2.77951002 147.179487,-1.49665924 140,0.427616927 L113.675214,7.48329621 C111.794872,7.99643653 110.299145,8.76614699 109.188034,9.74966592 C99.0598291,4.6610245 87.3931624,1.71046771 75,1.71046771 C62.5641026,1.71046771 50.8974359,4.61826281 40.8119658,9.74966592 C39.7435897,8.76614699 38.2478632,7.99643653 36.3247863,7.48329621 L10.042735,0.427616927 C2.86324786,-1.49665924 -1.41025641,2.77951002 0.512820513,9.96347439 L7.56410256,36.2619154 C8.11965812,38.3572383 9.01709402,39.9394209 10.1282051,41.0512249 C6.88034188,48.3207127 5.04273504,56.2316258 5.04273504,64.5273942 C5.04273504,90.569265 22.6923077,112.890869 47.8205128,122.426726 L50.5555556,130.765256 L52.9059829,131.748775 L50.2564103,123.324722 C50.3418803,123.367483 50.4700855,123.410245 50.5128205,123.410245 C58.1196581,125.975947 66.4102564,127.387082 75,127.387082 C82.7777778,127.387082 90.2136752,126.232517 97.1794872,124.137194 L97.1794872,105.322049 L97.1794872,103.697105 L97.1794872,102.756347 L97.2222222,102.756347 C97.6923077,98.0097996 101.709402,94.2467706 106.623932,94.2467706 C111.495726,94.2467706 115.555556,97.9670379 116.025641,102.756347 L116.068376,102.756347 L116.068376,115.413808 C133.589744,103.996437 144.957265,85.4806236 144.957265,64.5701559 C144.957265,56.2743875 143.162393,48.3634744 139.91453,41.0939866 C141.025641,39.9821826 141.923077,38.4 142.478632,36.3046771 L149.529915,9.96347439 L149.529915,9.96347439 Z M8.76068376,8.68062361 L33.3333333,15.2659243 L15.3418803,33.2685969 L8.76068376,8.68062361 L8.76068376,8.68062361 Z M22.8632479,77.1848552 L12.4786325,77.1848552 L12.4786325,75.4316258 L22.8632479,75.4316258 L22.8632479,77.1848552 L22.8632479,77.1848552 Z M22.8632479,71.7541203 L12.4786325,71.7541203 L12.4786325,70.0008909 L22.8632479,70.0008909 L22.8632479,71.7541203 L22.8632479,71.7541203 Z M22.8632479,66.3233853 L12.4786325,66.3233853 L12.4786325,64.5701559 L22.8632479,64.5701559 L22.8632479,66.3233853 L22.8632479,66.3233853 Z M56.5811966,52.725167 C54.1880342,47.4227171 48.8888889,44.0445434 43.0769231,44.0445434 C37.2649573,44.0445434 31.965812,47.4654788 29.5726496,52.725167 L26.5811966,51.3567929 C29.5299145,44.8997773 36.025641,40.7518931 43.0769231,40.7518931 C50.1709402,40.7518931 56.6239316,44.8997773 59.5726496,51.3567929 L56.5811966,52.725167 L56.5811966,52.725167 Z M81.6666667,79.57951 C78.7606838,79.57951 76.2393162,77.8690423 75,75.4316258 C73.7606838,77.8690423 71.2820513,79.57951 68.3333333,79.57951 C64.2307692,79.57951 60.8547009,76.2013363 60.8547009,72.0962138 L62.5213675,72.0962138 C62.5213675,75.3033408 65.1282051,77.911804 68.3333333,77.911804 C71.5384615,77.911804 74.1452991,75.3033408 74.1452991,72.0962138 L74.957265,72.0962138 C74.017094,72.0962138 73.1196581,71.6685969 72.3931624,70.813363 L67.2649573,64.5701559 C65.8547009,62.8596882 67.008547,61.4485523 69.8290598,61.491314 L80.1709402,61.491314 C82.991453,61.491314 84.1452991,62.9024499 82.7350427,64.5701559 L77.5641026,70.813363 C76.8376068,71.6685969 75.9401709,72.0962138 75,72.0962138 L75.8119658,72.0962138 C75.8119658,75.3033408 78.4188034,77.911804 81.6239316,77.911804 C84.8290598,77.911804 87.4358974,75.3033408 87.4358974,72.0962138 L89.1025641,72.0962138 C89.1452991,76.244098 85.7692308,79.57951 81.6666667,79.57951 L81.6666667,79.57951 Z M120.42735,52.725167 C118.034188,47.4227171 112.692308,44.0445434 106.923077,44.0445434 C101.111111,44.0445434 95.8119658,47.4654788 93.4188034,52.725167 L90.4273504,51.3567929 C93.3760684,44.8997773 99.8717949,40.7518931 106.923077,40.7518931 C114.017094,40.7518931 120.470085,44.8997773 123.418803,51.3567929 L120.42735,52.725167 L120.42735,52.725167 Z M137.991453,77.2276169 L127.606838,77.2276169 L127.606838,75.4743875 L137.991453,75.4743875 L137.991453,77.2276169 L137.991453,77.2276169 Z M137.991453,71.796882 L127.606838,71.796882 L127.606838,70.0436526 L137.991453,70.0436526 L137.991453,71.796882 L137.991453,71.796882 Z M137.991453,66.3233853 L127.606838,66.3233853 L127.606838,64.5701559 L137.991453,64.5701559 L137.991453,66.3233853 L137.991453,66.3233853 Z M134.700855,33.2685969 L116.709402,15.2659243 L141.282051,8.68062361 L134.700855,33.2685969 L134.700855,33.2685969 Z" id="Shape" fill="#231F20"></path>
            </g>
        </g>
    </g>
</svg>