<?xml version="1.0" encoding="UTF-8" standalone="no"?>
<svg width="151px" height="235px" viewBox="0 0 151 235" version="1.1" xmlns="http://www.w3.org/2000/svg" xmlns:xlink="http://www.w3.org/1999/xlink" xmlns:sketch="http://www.bohemiancoding.com/sketch/ns">
    <!-- Generator: Sketch 3.1.1 (8761) - http://www.bohemiancoding.com/sketch -->
    <title>animals_koala</title>
    <desc>Created with Sketch.</desc>
    <defs></defs>
    <g id="Page-1" stroke="none" stroke-width="1" fill="none" fill-rule="evenodd" sketch:type="MSPage">
        <g id="animals_koala" sketch:type="MSLayerGroup" fill="#231F20">
            <path id="Shape" sketch:type="MSShapeGroup" d="M137.612613,230.751923 L137.702703,231.429808 C137.702703,231.113462 137.702703,230.751923 137.747748,230.435577 C137.702703,230.525962 137.657658,230.616346 137.612613,230.751923 L137.612613,230.751923 Z"></path>
            <path d="M30.4054054,57.8461538 C30.7207207,57.3038462 30.990991,56.7163462 31.2162162,56.0836538 L30.4054054,57.8461538 L30.4054054,57.8461538 Z" id="Shape" sketch:type="MSShapeGroup"></path>
            <path d="M60.7207207,33.9394231 C39.8198198,33.9394231 22.8378378,50.9317308 22.8378378,71.9461538 C22.8378378,92.9153846 39.7747748,109.952885 60.7207207,109.952885 C81.6216216,109.952885 98.6036036,92.9605769 98.6036036,71.9461538 C98.5585586,50.9317308 81.6216216,33.9394231 60.7207207,33.9394231 L60.7207207,33.9394231 Z M40.7207207,77.3692308 C38.1531532,77.3692308 36.0810811,75.2903846 36.0810811,72.7144231 C36.0810811,70.1384615 38.1531532,68.0596154 40.7207207,68.0596154 C43.2882883,68.0596154 45.3603604,70.1384615 45.3603604,72.7144231 C45.3153153,75.2903846 43.2882883,77.3692308 40.7207207,77.3692308 L40.7207207,77.3692308 Z M68.0630631,87.6730769 C68.0630631,91.5144231 64.954955,94.6326923 61.1261261,94.6326923 C57.2972973,94.6326923 54.1891892,91.5144231 54.1891892,87.6730769 L54.1891892,77.2788462 C54.1891892,73.4375 57.2972973,70.3192308 61.1261261,70.3192308 C64.954955,70.3192308 68.0630631,73.4375 68.0630631,77.2788462 L68.0630631,87.6730769 L68.0630631,87.6730769 Z M80.990991,77.55 C78.4234234,77.55 76.3513514,75.4711538 76.3513514,72.8951923 C76.3513514,70.3192308 78.4234234,68.2403846 80.990991,68.2403846 C83.5585586,68.2403846 85.6306306,70.3192308 85.6306306,72.8951923 C85.6306306,75.4711538 83.5585586,77.55 80.990991,77.55 L80.990991,77.55 Z" id="Shape" sketch:type="MSShapeGroup"></path>
            <path d="M43.963964,72.7144231 C43.963964,74.5221154 42.5225225,75.9682692 40.7207207,75.9682692 C38.9189189,75.9682692 37.4774775,74.5221154 37.4774775,72.7144231 C37.4774775,70.9067308 38.9189189,69.4605769 40.7207207,69.4605769 C42.5225225,69.4605769 43.963964,70.9067308 43.963964,72.7144231 L43.963964,72.7144231 Z" id="Shape" sketch:type="MSShapeGroup"></path>
            <g id="Group" transform="translate(38.738739, 70.500000)" sketch:type="MSShapeGroup">
                <path d="M0.990990991,3.07307692 C0.405405405,3.07307692 -0.0900900901,2.57596154 -0.0900900901,1.98846154 C-0.0900900901,1.40096154 0.405405405,0.903846154 0.990990991,0.903846154 C1.57657658,0.903846154 2.07207207,1.40096154 2.07207207,1.98846154 C2.07207207,2.57596154 1.57657658,3.07307692 0.990990991,3.07307692 L0.990990991,3.07307692 Z" id="Shape"></path>
                <path d="M2.47747748,0.994230769 C2.16216216,0.994230769 1.93693694,0.768269231 1.93693694,0.451923077 C1.93693694,0.135576923 2.16216216,-0.0903846154 2.47747748,-0.0903846154 C2.79279279,-0.0903846154 3.01801802,0.135576923 3.01801802,0.451923077 C3.01801802,0.768269231 2.79279279,0.994230769 2.47747748,0.994230769 L2.47747748,0.994230769 Z" id="Shape"></path>
            </g>
            <path id="Shape" sketch:type="MSShapeGroup" d="M115,118.0875 L115.09009,118.0875 L115.675676,118.0875 L115,118.0875 L115,118.0875 Z"></path>
            <g id="Group" transform="translate(125.225225, 7.230769)" sketch:type="MSShapeGroup">
                <path d="M24.8648649,0.723076923 L1.08108108,24.5846154 C7.07207207,24.8105769 13.2882883,22.5057692 18.018018,17.7605769 C22.7477477,13.0153846 25.045045,6.73365385 24.8648649,0.723076923 L24.8648649,0.723076923 Z" id="Shape"></path>
                <path d="M23.8738739,-0.180769231 C17.8828829,-0.497115385 11.6216216,1.7625 6.84684685,6.55288462 C2.07207207,11.3432692 -0.18018018,17.625 0.135135135,23.6355769 C0.27027027,23.6355769 23.8738739,-0.0903846154 23.8738739,-0.180769231 L23.8738739,-0.180769231 Z" id="Shape"></path>
            </g>
            <g id="Group" transform="translate(125.225225, 75.471154)" sketch:type="MSShapeGroup">
                <path d="M24.8648649,0.903846154 L1.08108108,24.7653846 C7.07207207,24.9913462 13.2882883,22.6865385 18.018018,17.9413462 C22.7927928,13.1509615 25.045045,6.91442308 24.8648649,0.903846154 L24.8648649,0.903846154 Z" id="Shape"></path>
                <path d="M23.8738739,-0.0451923077 C17.8828829,-0.361538462 11.6216216,1.89807692 6.84684685,6.68846154 C2.07207207,11.4788462 -0.18018018,17.7605769 0.135135135,23.7711538 C0.27027027,23.7711538 23.8738739,0.0903846154 23.8738739,-0.0451923077 L23.8738739,-0.0451923077 Z" id="Shape"></path>
            </g>
            <g id="Group" transform="translate(125.225225, 143.711538)" sketch:type="MSShapeGroup">
                <path d="M24.8648649,1.03942308 L1.08108108,24.9009615 C7.07207207,25.1269231 13.2882883,22.8221154 18.018018,18.0769231 C22.7477477,13.3317308 25.045045,7.05 24.8648649,1.03942308 L24.8648649,1.03942308 Z" id="Shape"></path>
                <path d="M23.8738739,0.135576923 C17.8828829,-0.180769231 11.6216216,2.07884615 6.84684685,6.86923077 C2.07207207,11.6596154 -0.18018018,17.9413462 0.135135135,23.9519231 C0.27027027,23.9519231 23.8738739,0.225961538 23.8738739,0.135576923 L23.8738739,0.135576923 Z" id="Shape"></path>
            </g>
            <path d="M117.837838,127.939423 C117.837838,126.3125 116.711712,124.956731 115.135135,124.730769 L115.135135,124.55 C116.666667,124.278846 117.837838,122.968269 117.837838,121.341346 C117.837838,119.714423 116.621622,118.358654 115.09009,118.132692 L99.5045045,118.132692 L99.5045045,118.042308 L85.4504505,118.042308 L85.4504505,115.647115 L99.5045045,115.647115 L99.5045045,82.1596154 C95,99.4682692 79.3243243,112.2125 60.6756757,112.2125 C43.4684685,112.2125 28.8288288,101.366346 23.1081081,86.0913462 L23.1081081,130.425 L23.1081081,132.323077 C23.1081081,170.239423 51.2612613,201.557692 87.7477477,206.393269 C85.1801802,204.088462 83.5585586,200.699038 83.5585586,196.993269 L83.5585586,186.779808 L85.9459459,186.779808 L85.9459459,196.993269 C85.9459459,201.874038 89.2792793,205.986538 94.009009,206.980769 C95.1801802,207.025962 96.3963964,207.071154 97.5675676,207.071154 C98.5135135,207.071154 99.4144144,207.025962 100.36036,206.980769 L112.837838,207.025962 L114.189189,207.025962 C115.810811,206.845192 117.027027,205.444231 117.027027,203.817308 C117.027027,202.145192 115.765766,200.789423 114.189189,200.608654 L114.189189,200.473077 C115.810811,200.247115 117.027027,198.891346 117.027027,197.264423 C117.027027,195.6375 115.900901,194.281731 114.324324,194.055769 L114.324324,193.875 C115.855856,193.603846 117.027027,192.293269 117.027027,190.666346 C117.027027,188.994231 115.765766,187.638462 114.189189,187.457692 L110.09009,187.457692 L103.243243,187.457692 L103.243243,186.870192 L103.243243,166.714423 C103.243243,162.059615 101.846847,157.766346 99.4594595,154.196154 L99.4594595,154.150962 C95.4954955,148.682692 89.1891892,145.428846 82.2522523,145.428846 C70.4504505,145.428846 60.8558559,155.054808 60.8558559,166.895192 L58.5585586,166.895192 C58.5585586,153.744231 69.2342342,143.033654 82.3423423,143.033654 C88.9189189,143.033654 95.1351351,145.835577 99.5495495,150.490385 L99.5495495,140.322115 L76.5765766,140.322115 C60.1801802,140.322115 47.8378378,128.752885 47.8378378,113.3875 L50.2252252,113.3875 C50.2252252,127.397115 61.5315315,137.926923 76.5765766,137.926923 L99.5045045,137.926923 L99.5045045,137.746154 L114.054054,137.746154 L114.954955,137.881731 C116.576577,137.655769 117.792793,136.3 117.792793,134.673077 C117.792793,133.000962 116.531532,131.645192 114.954955,131.464423 L114.954955,131.328846 C116.576577,130.922115 117.837838,129.566346 117.837838,127.939423 L117.837838,127.939423 Z" id="Shape" sketch:type="MSShapeGroup"></path>
            <path d="M84.2792793,72.8951923 C84.2792793,74.7028846 82.8378378,76.1490385 81.036036,76.1490385 C79.2342342,76.1490385 77.7927928,74.7028846 77.7927928,72.8951923 C77.7927928,71.0875 79.2342342,69.6413462 81.036036,69.6413462 C82.7927928,69.6413462 84.2792793,71.0875 84.2792793,72.8951923 L84.2792793,72.8951923 Z" id="Shape" sketch:type="MSShapeGroup"></path>
            <g id="Group" transform="translate(78.828829, 70.500000)" sketch:type="MSShapeGroup">
                <path d="M1.21621622,3.25384615 C0.630630631,3.25384615 0.135135135,2.75673077 0.135135135,2.16923077 C0.135135135,1.58173077 0.630630631,1.08461538 1.21621622,1.08461538 C1.8018018,1.08461538 2.2972973,1.58173077 2.2972973,2.16923077 C2.2972973,2.75673077 1.8018018,3.25384615 1.21621622,3.25384615 L1.21621622,3.25384615 Z" id="Shape"></path>
                <path d="M2.7027027,1.22019231 C2.38738739,1.22019231 2.16216216,0.994230769 2.16216216,0.677884615 C2.16216216,0.361538462 2.38738739,0.135576923 2.7027027,0.135576923 C3.01801802,0.135576923 3.24324324,0.361538462 3.24324324,0.677884615 C3.24324324,0.949038462 3.01801802,1.22019231 2.7027027,1.22019231 L2.7027027,1.22019231 Z" id="Shape"></path>
            </g>
            <path d="M21.8018018,62.8173077 C16.3063063,62.8173077 11.8018018,58.3432692 11.8018018,52.7846154 C11.8018018,47.2711538 16.2612613,42.7519231 21.8018018,42.7519231 C25.045045,42.7519231 27.9279279,44.3336538 29.7297297,46.7288462 C30.7207207,45.5086538 31.7567568,44.3788462 32.8378378,43.2942308 C31.6666667,39.9951923 29.2342342,37.1932692 25.8558559,35.6115385 L22.1621622,33.8942308 C15.4504505,30.8211538 7.52252252,33.7586538 4.45945946,40.4923077 L1.35135135,47.2711538 C-1.71171171,54.0048077 1.21621622,61.9586538 7.92792793,65.0317308 L11.6216216,66.7490385 C14.7297297,68.1951923 18.1081081,68.2855769 21.1261261,67.3817308 C21.3063063,65.8 21.5765766,64.2634615 21.9369369,62.7721154 C21.8468468,62.8173077 21.8468468,62.8173077 21.8018018,62.8173077 L21.8018018,62.8173077 Z" id="Shape" sketch:type="MSShapeGroup"></path>
            <g id="Group" transform="translate(113.063063, 0.000000)" sketch:type="MSShapeGroup">
                <path d="M5.13513514,40.2663462 L7.11711712,44.5596154 L7.11711712,0.180769231 L0.225225225,0.180769231 L0.225225225,34.3461538 C2.2972973,35.8375 4.00900901,37.8259615 5.13513514,40.2663462 L5.13513514,40.2663462 Z" id="Shape"></path>
                <path d="M1.08108108,66.3875 L0.18018018,66.7942308 L0.18018018,116.9125 L2.11711712,116.9125 L2.20720721,116.9125 C4.41441441,117.274038 5.99099099,119.081731 5.99099099,121.296154 C5.99099099,122.606731 5.45045045,123.781731 4.54954955,124.595192 C5.45045045,125.408654 5.99099099,126.583654 5.99099099,127.894231 C5.99099099,129.204808 5.40540541,130.379808 4.5045045,131.193269 C5.40540541,132.006731 5.99099099,133.181731 5.99099099,134.492308 C5.99099099,136.706731 4.32432432,138.604808 2.11711712,138.921154 L1.93693694,138.921154 L0.945945946,138.785577 L0.225225225,138.785577 L0.225225225,186.147115 L1.30630631,186.147115 L1.3963964,186.147115 C3.6036036,186.418269 5.27027027,188.316346 5.27027027,190.575962 C5.27027027,191.886538 4.72972973,193.061538 3.82882883,193.875 C4.72972973,194.688462 5.27027027,195.863462 5.27027027,197.174038 C5.27027027,198.484615 4.68468468,199.659615 3.78378378,200.473077 C4.68468468,201.286538 5.27027027,202.461538 5.27027027,203.772115 C5.27027027,206.031731 3.6036036,207.884615 1.3963964,208.200962 L1.30630631,208.200962 L0.225225225,208.200962 L0.225225225,234.909615 L7.11711712,234.909615 L7.11711712,61.2355769 C5.63063063,63.45 3.55855856,65.2576923 1.08108108,66.3875 L1.08108108,66.3875 Z" id="Shape"></path>
            </g>
            <path d="M99.7297297,63.0432692 C105.225225,63.0432692 109.72973,58.5692308 109.72973,53.0105769 C109.72973,47.4971154 105.27027,42.9778846 99.7297297,42.9778846 C96.4864865,42.9778846 93.6036036,44.5596154 91.8018018,46.9548077 C90.8108108,45.7346154 89.7747748,44.6048077 88.6936937,43.5201923 C89.8648649,40.2211538 92.2972973,37.4192308 95.6756757,35.8375 L99.3693694,34.1201923 C106.081081,31.0471154 114.009009,33.9846154 117.072072,40.7182692 L120.18018,47.4971154 C123.243243,54.2307692 120.315315,62.1846154 113.603604,65.2576923 L109.90991,66.975 C106.801802,68.4211538 103.423423,68.5115385 100.405405,67.6076923 C100.225225,66.0259615 99.954955,64.4894231 99.5945946,62.9980769 C99.6846847,62.9980769 99.6846847,63.0432692 99.7297297,63.0432692 L99.7297297,63.0432692 Z" id="Shape" sketch:type="MSShapeGroup"></path>
            <path d="M66.036036,87.5375 C66.036036,90.2942308 63.8288288,92.5086538 61.0810811,92.5086538 L61.0810811,92.5086538 C58.3333333,92.5086538 56.1261261,90.2942308 56.1261261,87.5375 L56.1261261,77.5048077 C56.1261261,74.7480769 58.3333333,72.5336538 61.0810811,72.5336538 L61.0810811,72.5336538 C63.8288288,72.5336538 66.036036,74.7480769 66.036036,77.5048077 L66.036036,87.5375 L66.036036,87.5375 Z" id="Shape" sketch:type="MSShapeGroup"></path>
        </g>
    </g>
</svg>