<?xml version="1.0" encoding="UTF-8" standalone="no"?>
<svg width="151px" height="115px" viewBox="0 0 151 115" version="1.1" xmlns="http://www.w3.org/2000/svg" xmlns:xlink="http://www.w3.org/1999/xlink" xmlns:sketch="http://www.bohemiancoding.com/sketch/ns">
    <!-- Generator: Sketch 3.1.1 (8761) - http://www.bohemiancoding.com/sketch -->
    <title>animals_bear</title>
    <desc>Created with Sketch.</desc>
    <defs></defs>
    <g id="Page-1" stroke="none" stroke-width="1" fill="none" fill-rule="evenodd" sketch:type="MSPage">
        <g id="animals_bear" sketch:type="MSLayerGroup" fill="#231F20">
            <g id="Group" transform="translate(89.655172, 109.782609)" sketch:type="MSShapeGroup">
                <path d="M13.9008621,0.0217391304 L12.3706897,0.0217391304 L13.125,2.56521739 L13.9008621,5.10869565 L14.6551724,2.56521739 L15.4310345,0.0217391304 L13.9008621,0.0217391304 Z" id="Shape"></path>
                <path d="M9.78448276,0.0217391304 L8.25431034,0.0217391304 L9.00862069,2.56521739 L9.78448276,5.10869565 L10.5387931,2.56521739 L11.2931034,0.0217391304 L9.78448276,0.0217391304 Z" id="Shape"></path>
                <path d="M5.64655172,0.0217391304 L4.13793103,0.0217391304 L4.89224138,2.56521739 L5.64655172,5.10869565 L6.42241379,2.56521739 L7.17672414,0.0217391304 L5.64655172,0.0217391304 Z" id="Shape"></path>
                <path d="M1.53017241,0.0217391304 L0,0.0217391304 L0.775862069,2.56521739 L1.53017241,5.10869565 L2.28448276,2.56521739 L3.06034483,0.0217391304 L1.53017241,0.0217391304 Z" id="Shape"></path>
            </g>
            <g id="Group" transform="translate(55.172414, 109.782609)" sketch:type="MSShapeGroup">
                <path d="M13.9439655,0.0217391304 L12.4353448,0.0217391304 L13.1896552,2.56521739 L13.9439655,5.10869565 L14.7198276,2.56521739 L15.4741379,0.0217391304 L13.9439655,0.0217391304 Z" id="Shape"></path>
                <path d="M9.82758621,0.0217391304 L8.29741379,0.0217391304 L9.07327586,2.56521739 L9.82758621,5.10869565 L10.5818966,2.56521739 L11.3577586,0.0217391304 L9.82758621,0.0217391304 Z" id="Shape"></path>
                <path d="M5.7112069,0.0217391304 L4.18103448,0.0217391304 L4.93534483,2.56521739 L5.7112069,5.10869565 L6.46551724,2.56521739 L7.21982759,0.0217391304 L5.7112069,0.0217391304 Z" id="Shape"></path>
                <path d="M1.57327586,0.0217391304 L0.0646551724,0.0217391304 L0.818965517,2.56521739 L1.57327586,5.10869565 L2.34913793,2.56521739 L3.10344828,0.0217391304 L1.57327586,0.0217391304 Z" id="Shape"></path>
            </g>
            <g id="Group" transform="translate(23.491379, 109.782609)" sketch:type="MSShapeGroup">
                <path d="M10,0.0217391304 L8.87931034,0.0217391304 L9.43965517,1.86956522 L10,3.7173913 L10.5387931,1.86956522 L11.0991379,0.0217391304 L10,0.0217391304 Z" id="Shape"></path>
                <path d="M7.00431034,0.0217391304 L5.88362069,0.0217391304 L6.44396552,1.86956522 L7.00431034,3.7173913 L7.56465517,1.86956522 L8.10344828,0.0217391304 L7.00431034,0.0217391304 Z" id="Shape"></path>
                <path d="M4.00862069,0.0217391304 L2.90948276,0.0217391304 L3.44827586,1.86956522 L4.00862069,3.7173913 L4.56896552,1.86956522 L5.10775862,0.0217391304 L4.00862069,0.0217391304 Z" id="Shape"></path>
                <path d="M1.01293103,0.0217391304 L-0.0862068966,0.0217391304 L0.474137931,1.86956522 L1.01293103,3.7173913 L1.57327586,1.86956522 L2.11206897,0.0217391304 L1.01293103,0.0217391304 Z" id="Shape"></path>
            </g>
            <path d="M135.517241,28.3913043 C135.517241,32.2608696 138.642241,35.4130435 142.478448,35.4130435 C146.314655,35.4130435 149.439655,32.2608696 149.439655,28.3913043 C149.439655,24.5217391 146.336207,21.3695652 142.478448,21.3695652 C138.642241,21.3695652 135.517241,24.5217391 135.517241,28.3913043 L135.517241,28.3913043 Z" id="Shape" sketch:type="MSShapeGroup"></path>
            <path d="M116.012931,54.6956522 L103.211207,54.6956522 C103.62069,57.673913 106.034483,60 109.051724,60.2608696 L109.051724,64.8913043 L105.387931,68.5869565 L106.185345,69.3913043 L109.547414,66 L113.060345,69.5434783 L113.857759,68.7391304 L110.193966,65.0217391 L110.193966,60.2608696 C113.189655,60 115.603448,57.6956522 116.012931,54.6956522 L116.012931,54.6956522 Z" id="Shape" sketch:type="MSShapeGroup"></path>
            <path d="M10.9482759,57.8695652 C9.82758621,57.1086957 8.49137931,56.673913 7.04741379,56.673913 C3.2112069,56.673913 0.0862068966,59.8043478 0.0862068966,63.6956522 C0.0862068966,67 2.34913793,69.7608696 5.40948276,70.5217391 C6.42241379,65.9782609 8.29741379,61.6956522 10.9482759,57.8695652 L10.9482759,57.8695652 Z" id="Shape" sketch:type="MSShapeGroup"></path>
            <path d="M106.551724,83.1086957 C66.1637931,83.1086957 62.0043103,54.5217391 61.9612069,54.2391304 L61.875,53.5652174 L71.487069,33.4782609 C70.7758621,33.7391304 70,33.8695652 69.1810345,33.8695652 C65.3448276,33.8695652 62.2198276,30.7173913 62.2198276,26.8478261 C62.2198276,22.9782609 65.3448276,19.826087 69.1810345,19.826087 C73.0172414,19.826087 76.1422414,22.9782609 76.1422414,26.8478261 C76.1422414,29.173913 75.0215517,31.2173913 73.3189655,32.5 L124.224138,32.5 C114.956897,14.4347826 98.4698276,0.0869565217 79.6336207,0.0869565217 C72.6077586,0.0869565217 65.9051724,2.08695652 59.7844828,5.52173913 C52.2413793,9.76086957 45.6034483,16.173913 40.3017241,23.7608696 L15.5603448,54.4565217 L15.4525862,54.9130435 C9.61206897,61.1086957 6.03448276,69.5 6.03448276,78.7173913 C6.03448276,91.4130435 12.8232759,102.521739 22.9310345,108.543478 L34.8275862,108.543478 C33.8362069,107.304348 33.2327586,105.73913 33.2327586,104.021739 C33.2327586,100.369565 35.9482759,97.3478261 39.4396552,96.8913043 C43.2758621,101.5 47.8663793,105.456522 53.0387931,108.543478 L71.1853448,108.543478 C69.6767241,106.652174 68.75,104.26087 68.75,101.630435 C68.75,95.5652174 73.6206897,90.673913 79.6336207,90.673913 C85.625,90.673913 90.4956897,95.5869565 90.4956897,101.630435 C90.4956897,104.23913 89.5905172,106.652174 88.0603448,108.543478 L106.206897,108.543478 C117.176724,102 125.560345,91.5434783 129.482759,79.0652174 C123.577586,81.5 116.077586,83.1086957 106.551724,83.1086957 L106.551724,83.1086957 Z" id="Shape" sketch:type="MSShapeGroup"></path>
            <path d="M140.387931,33.7173913 L72.6939655,33.7173913 L63.1034483,53.7608696 L63.1465517,54.0869565 C63.1896552,54.3695652 67.1982759,81.8913043 106.530172,81.8913043 C145.452586,81.8913043 149.956897,54.7608696 150,54.5 L150.043103,54.173913 L140.387931,33.7173913 L140.387931,33.7173913 Z M93.4267241,47.7608696 C92.3922414,47.7608696 91.5517241,46.9130435 91.5517241,45.8695652 C91.5517241,44.826087 92.3922414,43.9782609 93.4267241,43.9782609 C94.4612069,43.9782609 95.3017241,44.826087 95.3017241,45.8695652 C95.3017241,46.9130435 94.4612069,47.7608696 93.4267241,47.7608696 L93.4267241,47.7608696 Z M109.418103,73.6521739 C103.599138,73.6521739 98.8577586,68.8913043 98.8577586,63.0434783 C98.8577586,58.4565217 105.883621,49.5652174 109.418103,45.5434783 C112.952586,49.5652174 119.978448,58.4565217 119.978448,63.0434783 C119.978448,68.8913043 115.237069,73.6521739 109.418103,73.6521739 L109.418103,73.6521739 Z M124.913793,47.7608696 C123.87931,47.7608696 123.038793,46.9130435 123.038793,45.8695652 C123.038793,44.826087 123.87931,43.9782609 124.913793,43.9782609 C125.948276,43.9782609 126.788793,44.826087 126.788793,45.8695652 C126.788793,46.9130435 125.948276,47.7608696 124.913793,47.7608696 L124.913793,47.7608696 Z" id="Shape" sketch:type="MSShapeGroup"></path>
        </g>
    </g>
</svg>