<?xml version="1.0" encoding="UTF-8" standalone="no"?>
<svg width="150px" height="129px" viewBox="0 0 150 129" version="1.1" xmlns="http://www.w3.org/2000/svg" xmlns:xlink="http://www.w3.org/1999/xlink" xmlns:sketch="http://www.bohemiancoding.com/sketch/ns">
    <!-- Generator: Sketch 3.1.1 (8761) - http://www.bohemiancoding.com/sketch -->
    <title>animals_fish</title>
    <desc>Created with Sketch.</desc>
    <defs></defs>
    <g id="Page-1" stroke="none" stroke-width="1" fill="none" fill-rule="evenodd" sketch:type="MSPage">
        <g id="animals_fish" sketch:type="MSLayerGroup" transform="translate(0.000000, 1.000000)" fill="#231F20">
            <path d="M143.510363,44.4097561 C142.150259,46.7512195 139.857513,48.897561 136.904145,50.6146341 C137.836788,55.0243902 138.303109,59.5902439 138.303109,64.2731707 C138.303109,69.1512195 137.759067,73.9512195 136.787565,78.5560976 C139.818653,80.3121951 142.150259,82.4195122 143.549223,84.8390244 C147.551813,79.4146341 150,72.3512195 150,64.6243902 C149.96114,56.897561 147.551813,49.8731707 143.510363,44.4097561 L143.510363,44.4097561 Z" id="Shape" sketch:type="MSShapeGroup"></path>
            <path d="M32.6036269,31.3365854 C19.7020725,42.5756098 8.66580311,55.9219512 3.88601036,62.0097561 C3.49740933,61.502439 2.87564767,61.1902439 2.21502591,61.1902439 C1.01036269,61.1902439 0.0388601036,62.1658537 0.0388601036,63.3756098 C0.0388601036,64.2341463 0.505181347,64.9756098 1.24352332,65.3268293 C0.544041451,65.6780488 0.0388601036,66.4195122 0.0388601036,67.2780488 C0.0388601036,68.4878049 1.01036269,69.4634146 2.21502591,69.4634146 C2.91450777,69.4634146 3.49740933,69.1512195 3.88601036,68.6439024 C8.66580311,74.7317073 19.7020725,88.1170732 32.6036269,99.3170732 C37.3056995,89.9512195 40.1036269,78.1658537 40.1036269,65.2878049 C40.1036269,52.4878049 37.3056995,40.6634146 32.6036269,31.3365854 L32.6036269,31.3365854 Z M20.984456,63.7268293 C19.119171,63.7268293 17.642487,62.204878 17.642487,60.3707317 C17.642487,58.5365854 19.1580311,57.0146341 20.984456,57.0146341 C22.8497409,57.0146341 24.3264249,58.497561 24.3264249,60.3707317 C24.3264249,62.2439024 22.8497409,63.7268293 20.984456,63.7268293 L20.984456,63.7268293 Z" id="Shape" sketch:type="MSShapeGroup"></path>
            <path d="M69.015544,121.014634 C66.5284974,121.014634 63.8860104,120.663415 61.126943,119.960976 C72.2797927,128.936585 95.0906736,137.834146 129.753886,102.595122 C129.287565,93.3073171 124.779793,86.6731707 121.981865,83.4341463 C114.170984,105.639024 93.1476684,121.014634 69.015544,121.014634 L69.015544,121.014634 Z" id="Shape" sketch:type="MSShapeGroup"></path>
            <path d="M119.455959,39.804878 C121.787565,36.3707317 125.712435,29.0731707 124.974093,19.4731707 C85.142487,-11.8243902 63.5751295,1.32682927 53.9766839,11.8243902 C59.3782383,9.44390244 64.3911917,8.23414634 69.015544,8.23414634 C90.8937824,8.19512195 110.246114,20.8390244 119.455959,39.804878 L119.455959,39.804878 Z" id="Shape" sketch:type="MSShapeGroup"></path>
            <path d="M134.494819,51.395122 C130.880829,53.2292683 126.411917,54.5170732 121.515544,55.0634146 C117.046632,30.3609756 95.5181347,11.6682927 69.6761658,11.6682927 C58.8341969,11.6682927 46.5932642,19.0439024 35.5569948,28.2536585 C40.2590674,38.4390244 43.0569948,50.9658537 43.0569948,64.5463415 C43.0569948,78.1658537 40.2202073,90.6926829 35.5181347,100.917073 C46.5932642,110.165854 58.8341969,117.541463 69.6761658,117.541463 C95.5569948,117.541463 117.085492,98.8097561 121.554404,74.1073171 C126.411917,74.6536585 130.803109,75.902439 134.417098,77.7365854 C135.07772,73.2878049 135.427461,68.7609756 135.427461,64.1170732 C135.388601,59.8243902 135.07772,55.5707317 134.494819,51.395122 L134.494819,51.395122 Z M50.4404145,82.497561 C51.6839378,76.8390244 52.3834197,70.4780488 52.3834197,63.6878049 C52.3834197,56.897561 51.6839378,50.5365854 50.4404145,44.8780488 C53.8212435,49.6 55.9585492,56.2731707 55.9585492,63.6878049 C55.9196891,71.102439 53.8212435,77.7756098 50.4404145,82.497561 L50.4404145,82.497561 Z M63.9248705,87.0634146 C65.4792746,80.0390244 66.3341969,72.1170732 66.3341969,63.6878049 C66.3341969,55.2585366 65.4404145,47.297561 63.9248705,40.3121951 C68.1217617,46.1658537 70.7642487,54.4780488 70.7642487,63.6878049 C70.8031088,72.897561 68.1606218,81.2097561 63.9248705,87.0634146 L63.9248705,87.0634146 Z M78.9248705,86.9853659 C80.5569948,79.5317073 81.4896373,71.102439 81.4896373,62.1658537 C81.4896373,53.2292683 80.5569948,44.8 78.9248705,37.3463415 C83.3937824,43.5902439 86.1917098,52.3707317 86.1917098,62.1658537 C86.1917098,71.9609756 83.3937824,80.7414634 78.9248705,86.9853659 L78.9248705,86.9853659 Z M91.0492228,94.3219512 C93.1865285,84.6829268 94.3911917,73.7560976 94.3911917,62.204878 C94.3911917,50.6536585 93.1865285,39.6878049 91.0492228,30.0878049 C96.8393782,38.1658537 100.453368,49.5609756 100.453368,62.204878 C100.453368,74.8487805 96.8005181,86.2439024 91.0492228,94.3219512 L91.0492228,94.3219512 Z" id="Shape" sketch:type="MSShapeGroup"></path>
        </g>
    </g>
</svg>