<?xml version="1.0" encoding="utf-8"?>
<!-- Generator: Adobe Illustrator 18.1.0, SVG Export Plug-In . SVG Version: 6.00 Build 0)  -->
<!DOCTYPE svg PUBLIC "-//W3C//DTD SVG 1.1//EN" "http://www.w3.org/Graphics/SVG/1.1/DTD/svg11.dtd">
<svg version="1.1" id="Layer_1" xmlns="http://www.w3.org/2000/svg" xmlns:xlink="http://www.w3.org/1999/xlink" x="0px" y="0px"
	 width="110px" height="209.8px" viewBox="0 0 110 209.8" enable-background="new 0 0 110 209.8" xml:space="preserve">
<g>
	<g>
		<path fill="#231F20" d="M89.7,209.3c0,0,26.7-4.6,16.1-37c3.8,20.1-4.1,31.7-18,32.2L89.7,209.3z"/>
	</g>
	<g>
		<path fill="#231F20" d="M55.7,76.5c0,0-20.3,2.1-29.4-16.7c1.8,7.9,5.7,14.7-2.8,15.2c-1.1-3.1,0.2-18.7,0.2-18.7
			S43.9,73,56.7,63.7L55.7,76.5z"/>
	</g>
	<g>
		<g>
			<path fill="#231F20" d="M79.4,171.1c-1-4.8-2.2-9.8-3.6-14.9c-9.4,2.8-16,9.5-16,17.4c0,2.9,0.9,5.6,2.5,8.1
				C65.6,176.6,71.7,172.7,79.4,171.1z"/>
		</g>
		<g>
			<path fill="#231F20" d="M59.6,190.5c0-1.4,0.2-2.8,0.6-4.2c-3.8-0.8-6.6-1.4-7-1.4c-5.8,0-10.5,3.3-10.9,7.4l17.4-0.1
				C59.7,191.8,59.6,191.1,59.6,190.5z"/>
		</g>
	</g>
	<g>
		<path fill="#231F20" d="M40.9,45.9c2.5,5.3,6,8.9,9.6,11.4c1-2.2,2.1-4.3,3.4-6.2c-8.5-2.8-15.6-8.7-15.6-8.7S37.1,58,38.1,61.1
			C46.7,60.5,42.7,53.8,40.9,45.9z"/>
	</g>
	<g>
		<path fill="#231F20" d="M86.7,82.5c-8,0-14.6-6.5-14.6-14.6c0-3.6,1.3-18.9,3.5-34.1c-16.4,9.1-38.8,29-20.5,66
			c15.1,30.6,22.4,54.7,25.9,72.4c-11.5,1.9-20.1,9.4-20.1,18.3c0,6,3.8,11.2,9.7,14.7c-7.6-1.6-15.7-3.3-16.3-3.3
			c-5.8,0-10.5,3.3-10.9,7.4h46.6V82.1C89,82.3,87.9,82.5,86.7,82.5z"/>
	</g>
	<g>
		<path fill="#231F20" d="M99.9,67.9c0,7.3-5.9,13.2-13.2,13.2c-7.3,0-13.2-5.9-13.2-13.2c0-7.3,5.9-67,13.2-67
			C94,0.9,99.9,60.6,99.9,67.9z"/>
	</g>
	<g>
		<path fill="#231F20" d="M83,0.3h-6.3c0,1.6-1.3,2.9-2.9,2.9c-1.6,0-2.9-1.3-2.9-2.9H19l-0.2,0.5c-2,4.8-5.9,8.8-11,11.2
			c9.3,11.2,29.5,23,68.9-0.7v15.8c3.1-19.1,5.9-25,7.9-26.8C84.3,0.3,83.8,0.3,83,0.3z"/>
	</g>
	<g>
		<path fill="#231F20" d="M17.6,0.3H0.9c0,0,1.6,5.1,6,10.7C11.8,8.8,15.6,5,17.6,0.3z"/>
	</g>
</g>
</svg>
