<?xml version="1.0" encoding="UTF-8" standalone="no"?>
<svg width="151px" height="137px" viewBox="0 0 151 137" version="1.1" xmlns="http://www.w3.org/2000/svg" xmlns:xlink="http://www.w3.org/1999/xlink" xmlns:sketch="http://www.bohemiancoding.com/sketch/ns">
    <!-- Generator: Sketch 3.1.1 (8761) - http://www.bohemiancoding.com/sketch -->
    <title>animals_bird</title>
    <desc>Created with Sketch.</desc>
    <defs></defs>
    <g id="Page-1" stroke="none" stroke-width="1" fill="none" fill-rule="evenodd" sketch:type="MSPage">
        <g id="animals_bird" sketch:type="MSLayerGroup" transform="translate(1.000000, 1.000000)" fill="#231F20">
            <g id="Group" sketch:type="MSShapeGroup">
                <path d="M101.298201,24.5172414 C102.18509,25.3706897 103.033419,25.6422414 104.190231,25.5646552 C103.071979,23.1206897 102.763496,20.4827586 102.763496,17.5732759 C102.763496,16.5258621 102.879177,15.4784483 103.033419,14.4310345 C101.606684,15.4396552 100.218509,16.5646552 98.9845758,17.9224138 C98.1362468,18.8534483 97.3264781,19.7844828 96.6323907,20.7931034 L95.8226221,21.9568966 C95.7840617,21.9956897 95.7840617,21.9956897 95.7455013,21.9956897 L100.025707,21.9956897 C100.141388,22.9267241 100.565553,23.8189655 101.298201,24.5172414 L101.298201,24.5172414 Z" id="Shape"></path>
                <path d="M117.763496,15.8663793 C118.264781,15.8663793 118.650386,15.4784483 118.650386,14.9741379 C118.650386,14.4698276 118.264781,14.0818966 117.763496,14.0818966 C117.262211,14.0818966 116.876607,14.4698276 116.876607,14.9741379 C116.838046,15.4784483 117.262211,15.8663793 117.763496,15.8663793 L117.763496,15.8663793 Z" id="Shape"></path>
                <path d="M131.645244,2.67672414 C128.791774,0.853448276 125.398458,-0.193965517 121.773779,-0.193965517 C111.55527,-0.193965517 103.264781,8.14655172 103.264781,18.4267241 C103.264781,24.5560345 106.195373,29.987069 110.745501,33.362069 L109.820051,34.2931034 C110.012853,34.3706897 110.205656,34.4482759 110.398458,34.5258621 L110.398458,34.5258621 C110.62982,34.6034483 110.861183,34.7198276 111.092545,34.7974138 C110.861183,34.7198276 110.62982,34.6034483 110.398458,34.5258621 L102.879177,54.6982759 L122.660668,51.4008621 C122.660668,51.75 122.699229,52.0603448 122.699229,52.4094828 C122.699229,53.5344828 122.544987,54.5818966 122.352185,55.6681034 L96.5552699,59.9741379 L103.843188,40.5 L104.691517,38.2112069 L102.22365,40.5775862 L100.141388,42.5948276 L92.3521851,63.4655172 L121.773779,58.5775862 C121.465296,60.0905172 121.079692,61.5646552 120.578406,62.9612069 L85.9511568,68.6637931 L91.966581,52.5258621 L93.2390746,49.112069 L91.1568123,51.0905172 L88.6503856,53.4956897 L81.7095116,72.1551724 L119.151671,65.9094828 C118.303342,67.5387931 117.300771,69.0905172 116.182519,70.6034483 L75.3856041,77.3922414 L81.8637532,60.0905172 L78.2005141,63.6206897 L77.2750643,64.512931 L71.1439589,80.8836207 L113.40617,73.8232759 C113.637532,73.5517241 113.868895,73.3189655 114.100257,73.0474138 C113.984576,73.1637931 113.868895,73.2801724 113.791774,73.3965517 C113.676093,73.5517241 113.521851,73.6681034 113.40617,73.8232759 L113.367609,73.8232759 C111.59383,75.6465517 109.627249,77.3922414 107.467866,78.9827586 L64.781491,86.1594828 L70.2956298,71.3793103 L66.5552699,75.0646552 L65.6683805,75.9568966 L63.5861183,81.5818966 L60.5398458,89.6896552 L101.876607,82.7844828 C98.9845758,84.5301724 95.8226221,86.1594828 92.5449871,87.7112069 L92.5449871,87.9051724 C123.701799,78.1293103 141.323907,64.2025862 146.876607,48.2586207 L147.069409,48.1810345 C148.881748,43.875 149.884319,39.1034483 149.884319,34.137931 C149.884319,20.637931 142.51928,8.88362069 131.645244,2.67672414 L131.645244,2.67672414 Z M117.763496,11.5215517 C119.652956,11.5215517 121.195373,13.0732759 121.195373,14.9741379 C121.195373,16.875 119.652956,18.4267241 117.763496,18.4267241 C115.874036,18.4267241 114.33162,16.875 114.33162,14.9741379 C114.33162,13.0732759 115.874036,11.5215517 117.763496,11.5215517 L117.763496,11.5215517 Z M119.96144,42.4396552 C119.884319,42.3232759 119.807198,42.2068966 119.730077,42.0905172 L117.686375,42.4396552 L118.457584,40.3448276 C118.920308,40.887931 119.344473,41.5086207 119.730077,42.1293103 L119.768638,42.1293103 C119.807198,42.2068966 119.884319,42.3232759 119.96144,42.4396552 L119.96144,42.4396552 Z M122.313625,48.6465517 L107.082262,51.1681034 L112.866324,35.6508621 C114.100257,36.3491379 115.29563,37.1637931 116.336761,38.0948276 L116.336761,38.0948276 L116.336761,38.0948276 L113.40617,45.8922414 L121.041131,44.612069 C120.732648,43.875 120.347044,43.137931 119.922879,42.4396552 C120.347044,43.137931 120.732648,43.8362069 121.041131,44.612069 L121.041131,44.612069 C121.619537,45.9310345 122.043702,47.25 122.313625,48.6465517 L122.313625,48.6465517 C122.390746,49.0732759 122.467866,49.5387931 122.506427,49.9655172 C122.467866,49.5 122.390746,49.0732759 122.313625,48.6465517 L122.313625,48.6465517 Z M101.915167,82.7456897 C101.953728,82.7456897 101.992288,82.7068966 101.992288,82.7068966 L101.992288,82.7068966 C101.992288,82.7068966 101.953728,82.7456897 101.915167,82.7456897 L101.915167,82.7456897 Z M115.874036,71.0301724 C115.719794,71.2241379 115.565553,71.4181034 115.372751,71.612069 C115.642674,71.262931 115.912596,70.9525862 116.182519,70.6034483 C116.105398,70.7586207 115.989717,70.875 115.874036,71.0301724 L115.874036,71.0301724 Z" id="Shape"></path>
                <path d="M91.1953728,94.0732759 C89.7300771,94.2284483 88.3419023,94.887931 87.3393316,96.012931 L88.3419023,96.9439655 C89.2287918,95.9741379 90.5398458,95.3922414 91.8508997,95.3922414 C94.4730077,95.3922414 96.6323907,97.5646552 96.6323907,100.202586 C96.6323907,102.840517 94.4730077,105.012931 91.8508997,105.012931 C90.7712082,105.012931 89.7686375,104.663793 88.9588689,104.043103 C88.3804627,103.616379 87.9177378,103.034483 87.5706941,102.375 L86.3367609,102.99569 C86.7609254,103.810345 87.377892,104.547414 88.1105398,105.12931 C89.1902314,105.943966 90.4627249,106.409483 91.8508997,106.409483 C95.2442159,106.409483 98.0205656,103.616379 98.0205656,100.202586 C98.0205656,97.0215517 95.6298201,94.4224138 92.5449871,94.0732759 L92.5449871,87.8663793 C92.0822622,88.0215517 91.6195373,88.137931 91.1568123,88.2931034 L91.1568123,94.0732759 L91.1953728,94.0732759 Z" id="Shape"></path>
                <path d="M47.1979434,94.1508621 L43.9203085,97.4094828 L42.5706941,98.7284483 L40.9511568,103.034483 L39.562982,106.797414 C36.8251928,107.806034 34.1645244,108.814655 31.5809769,109.862069 L-0.0771208226,132.943966 L1.54241645,135.155172 L41.2982005,106.137931 C45.1928021,104.741379 49.1645244,103.383621 53.251928,102.064655 L53.2904884,102.064655 L43.6118252,103.693966 L47.1979434,94.1508621 L47.1979434,94.1508621 Z" id="Shape"></path>
                <path d="M54.2159383,94.887931 L58.7660668,82.7456897 L54.1388175,87.2844828 L50.0128535,98.3793103 L77.81491,93.762931 C81.940874,92.25 85.9511568,90.6594828 89.8071979,88.9913793 L54.2159383,94.887931 L54.2159383,94.887931 Z" id="Shape"></path>
            </g>
        </g>
    </g>
</svg>