<?xml version="1.0" encoding="UTF-8" standalone="no"?>
<svg width="151px" height="112px" viewBox="0 0 151 112" version="1.1" xmlns="http://www.w3.org/2000/svg" xmlns:xlink="http://www.w3.org/1999/xlink" xmlns:sketch="http://www.bohemiancoding.com/sketch/ns">
    <!-- Generator: Sketch 3.1.1 (8761) - http://www.bohemiancoding.com/sketch -->
    <title>animals_kangaroo</title>
    <desc>Created with Sketch.</desc>
    <defs></defs>
    <g id="Page-1" stroke="none" stroke-width="1" fill="none" fill-rule="evenodd" sketch:type="MSPage">
        <g id="animals_kangaroo" sketch:type="MSLayerGroup" transform="translate(1.000000, 0.000000)" fill="#231F20">
            <path d="M146.049618,27.6113111 L145.849237,27.0354756 C144.446565,21.8817481 140.438931,17.822108 135.343511,16.296144 C136.688931,15.6339332 137.948473,14.7413882 139.064885,13.618509 C142.700382,9.96195373 143.874046,4.77943445 142.614504,0.115167095 L126.526718,16.296144 C122.26145,17.5917738 118.769084,20.7012853 116.965649,24.7321337 L116.736641,25.1640103 C113.959924,29.1948586 109.408397,31.4694087 104.169847,31.4694087 C101.364504,31.4694087 98.730916,30.7208226 96.4408397,29.396401 L96.3263359,29.3100257 C90.8874046,26.1141388 84.9618321,24.7321337 78.2061069,24.7321337 C57.7671756,24.7321337 41.1927481,41.4025707 41.1927481,61.9598972 C41.1927481,62.9676093 41.25,63.9753213 41.3072519,64.9830334 L41.3072519,86.6632391 C41.3072519,97.7192802 32.4045802,106.673522 21.4122137,106.673522 L0.400763359,106.673522 L-0.114503817,106.673522 C-0.114503817,109.120823 2.60496183,111.913625 7.24236641,111.913625 L15.4580153,111.913625 L21.4980916,111.913625 L29.5992366,111.913625 C40.5916031,111.913625 48.4064885,103.39126 51.7270992,91.9321337 L53.5305344,81.9701799 C60.601145,87.5557841 69.7614504,89.1681234 78.0343511,86.7784062 L78.0343511,84.3023136 C78.0343511,80.7321337 75.2576336,77.7089974 71.7366412,77.4210797 L71.851145,75.8951157 C76.1736641,76.240617 79.5229008,79.9547558 79.5229008,84.3023136 L79.5229008,86.288946 L79.5515267,86.288946 L79.5515267,108.170694 C79.5515267,110.186118 81.1832061,111.827249 83.1870229,111.827249 L119.284351,111.827249 L120.171756,111.827249 C119.055344,108.401028 116.192748,106.385604 112.414122,106.385604 L104.599237,106.385604 L102.051527,106.385604 L93.4923664,106.385604 C89.8854962,106.385604 86.9656489,103.448843 86.9656489,99.8210797 L86.9656489,82.2868895 C87.0515267,82.2293059 87.1087786,82.1429306 87.1946565,82.085347 L87.1946565,65.933162 C87.1946565,56.3455013 79.4370229,48.5429306 69.9045802,48.5429306 C60.3721374,48.5429306 52.6145038,56.3455013 52.6145038,65.933162 L51.0973282,65.933162 C51.0973282,55.5105398 59.5419847,47.0169666 69.9045802,47.0169666 C80.2671756,47.0169666 88.740458,55.5681234 88.740458,65.9907455 L88.740458,67.5742931 L88.740458,80.8760925 C89.1412214,80.5305913 89.5133588,80.18509 89.8854962,79.8107969 L98.7881679,70.8565553 L101.908397,67.459126 L108.75,60.577892 L123.89313,75.5208226 L120.916031,79.0910026 C121.603053,79.8971722 122.604962,80.4154242 123.721374,80.5017995 C125.982824,80.6457584 127.929389,78.9182519 128.101145,76.6437018 C128.187023,75.5208226 127.78626,74.4843188 127.127863,73.7069409 L127.127863,73.7069409 L111.383588,58.2745501 L110.667939,57.5835476 C108.60687,55.5105398 107.461832,52.7465296 107.461832,49.8097686 C107.461832,46.8730077 108.60687,44.1089974 110.667939,42.0359897 L111.727099,43.1012853 C109.95229,44.8863753 108.979008,47.2760925 108.979008,49.8097686 C108.979008,52.3434447 109.95229,54.733162 111.727099,56.5182519 L112.270992,57.0652956 L118.883588,50.4143959 C122.54771,46.7290488 125.582061,40.1933162 126.841603,35.1547558 C124.780534,33.9167095 123.377863,31.6421594 123.377863,29.0508997 C123.377863,26.3156812 124.980916,23.7820051 127.442748,22.6015424 L128.072519,23.9835476 C126.125954,24.9048843 124.866412,26.8915167 124.866412,29.0508997 C124.866412,32.1316195 127.35687,34.6365039 130.419847,34.6365039 C131.335878,34.6365039 132.251908,34.4061697 133.053435,33.9742931 L133.769084,35.3275064 C132.73855,35.8745501 131.593511,36.1624679 130.448473,36.1912596 L141.956107,43.3316195 C143.902672,44.540874 145.935115,44.9439589 147.910305,44.5984576 C148.167939,42.7557841 148.854962,41.0570694 149.914122,39.5886889 L146.049618,27.6113111 L146.049618,27.6113111 Z M141.526718,27.8992288 C140.868321,27.8992288 140.353053,27.3809769 140.353053,26.7187661 C140.353053,26.0565553 140.868321,25.5383033 141.526718,25.5383033 C142.185115,25.5383033 142.700382,26.0565553 142.700382,26.7187661 C142.700382,27.3809769 142.156489,27.8992288 141.526718,27.8992288 L141.526718,27.8992288 Z" id="Shape" sketch:type="MSShapeGroup"></path>
        </g>
    </g>
</svg>