<?xml version="1.0" encoding="UTF-8" standalone="no"?>
<svg width="151px" height="115px" viewBox="0 0 151 115" version="1.1" xmlns="http://www.w3.org/2000/svg" xmlns:xlink="http://www.w3.org/1999/xlink" xmlns:sketch="http://www.bohemiancoding.com/sketch/ns">
    <!-- Generator: Sketch 3.1.1 (8761) - http://www.bohemiancoding.com/sketch -->
    <title>animals_cammel</title>
    <desc>Created with Sketch.</desc>
    <defs></defs>
    <g id="Page-1" stroke="none" stroke-width="1" fill="none" fill-rule="evenodd" sketch:type="MSPage">
        <g id="animals_cammel" sketch:type="MSLayerGroup" fill="#231F20">
            <g id="Group" sketch:type="MSShapeGroup">
                <path d="M9.23571429,52.9990637 L8.42142857,52.9990637 L8.42142857,41.0468165 C8.42142857,36.7827715 11.8714286,33.3155431 16.1142857,33.3155431 L19.1357143,33.3155431 L19.1357143,34.1338951 L16.0928571,34.1338951 C12.3,34.1338951 9.23571429,37.2350187 9.23571429,41.0252809 L9.23571429,52.9990637 L9.23571429,52.9990637 Z" id="Shape"></path>
                <path d="M10.5642857,60.2134831 L10.5642857,54.4850187 C10.5642857,53.5374532 9.79285714,52.7621723 8.85,52.7621723 C7.90714286,52.7621723 7.13571429,53.5374532 7.13571429,54.4850187 L7.13571429,60.2134831 L10.5642857,60.2134831 L10.5642857,60.2134831 Z" id="Shape"></path>
                <path d="M23.8714286,69.3876404 C23.2714286,64.9728464 21.6,60.9241573 19.0928571,57.5 L18.7071429,56.9831461 C16.9928571,54.7003745 15.7071429,52.0945693 14.9357143,49.2734082 C15.4928571,54.678839 14.7428571,60.2780899 12.4071429,65.5973783 C10.5642857,69.8183521 7.92857143,73.414794 4.75714286,76.343633 L4.71428571,76.5159176 C5.18571429,80.090824 5.14285714,83.7518727 4.58571429,87.3483146 L0.0857142857,110.477528 L0.0857142857,112.911049 L13.4571429,112.889513 L13.5214286,112.889513 C13.2214286,110.477528 11.1642857,108.625468 8.67857143,108.625468 L6.45,108.625468 L4.37142857,108.625468 C6.42857143,84.7425094 14.1,79.3370787 23.8714286,69.3876404 L23.8714286,69.3876404 Z" id="Shape"></path>
                <path d="M42.1928571,110.434457 L32.8071429,110.434457 L32.4642857,112.135768 L32.4642857,114.569288 L45.8571429,114.569288 L45.9214286,114.569288 C45.6642857,112.523408 44.1428571,110.886704 42.1928571,110.434457 L42.1928571,110.434457 Z" id="Shape"></path>
                <path d="M119.528571,8.74344569 C120.857143,10.0786517 122.657143,10.6816479 124.457143,10.57397 C124.564286,8.76498127 123.985714,6.95599251 122.635714,5.62078652 C121.307143,4.28558052 119.507143,3.68258427 117.707143,3.79026217 C117.6,5.57771536 118.2,7.38670412 119.528571,8.74344569 L119.528571,8.74344569 Z" id="Shape"></path>
                <path d="M83.7,3.46722846 C81.0428571,-1.16292135 76.6714286,-1.16292135 74.0142857,3.46722846 L68.1,13.7827715 C68.2928571,13.9550562 68.5285714,14.0627341 68.85,14.0627341 C70.0928571,14.0627341 70.0928571,12.3829588 71.3357143,12.3829588 C72.5785714,12.3829588 72.5785714,14.0627341 73.8214286,14.0627341 C75.0642857,14.0627341 75.0642857,12.3829588 76.3071429,12.3829588 C77.55,12.3829588 77.55,14.0627341 78.7928571,14.0627341 C80.0357143,14.0627341 80.0357143,12.3829588 81.2785714,12.3829588 C82.5214286,12.3829588 82.5214286,14.0627341 83.7642857,14.0627341 C85.0071429,14.0627341 85.0071429,12.3829588 86.25,12.3829588 C87.4928571,12.3829588 87.4928571,14.0627341 88.7357143,14.0627341 C89.2071429,14.0627341 89.5071429,13.8258427 89.7428571,13.5243446 L83.7,3.46722846 L83.7,3.46722846 Z M33.8142857,3.46722846 L27.8571429,13.7827715 C28.05,13.9550562 28.2857143,14.0627341 28.6071429,14.0627341 C29.85,14.0627341 29.85,12.3829588 31.0928571,12.3829588 C32.3357143,12.3829588 32.3357143,14.0627341 33.5785714,14.0627341 C34.8214286,14.0627341 34.8214286,12.3829588 36.0642857,12.3829588 C37.3071429,12.3829588 37.3071429,14.0627341 38.55,14.0627341 C39.7928571,14.0627341 39.7928571,12.3829588 41.0357143,12.3829588 C42.2785714,12.3829588 42.2785714,14.0627341 43.5214286,14.0627341 C44.7642857,14.0627341 44.7642857,12.3829588 46.0071429,12.3829588 C47.25,12.3829588 47.25,14.0627341 48.4928571,14.0627341 C48.8785714,14.0627341 49.1357143,13.8904494 49.35,13.6750936 L43.5,3.46722846 C40.8428571,-1.18445693 36.4714286,-1.18445693 33.8142857,3.46722846 L33.8142857,3.46722846 Z" id="Shape"></path>
                <g transform="translate(95.571429, 59.868914)" id="Shape">
                    <path d="M7.07142857,2.88576779 L6.83571429,3.3164794 L6.81428571,3.3164794 C5.20714286,6.61142322 3.25714286,11.3707865 1.88571429,19.0805243 C3.15,19.6835206 4.05,20.8464419 4.28571429,22.2247191 C5.20714286,21.6001873 5.82857143,20.5449438 5.82857143,19.3389513 C5.82857143,18.1975655 5.27142857,17.1853933 4.41428571,16.5608614 C5.67857143,8.80805243 7.52142857,3.79026217 9.3,0 C8.46428571,0.775280899 7.69285714,1.72284644 7.07142857,2.88576779 L7.07142857,2.88576779 Z"></path>
                    <path d="M0.792857143,27.1994382 C0.214285714,33.1217228 -0.0214285714,39.9269663 0.107142857,47.4644195 C0.107142857,47.9597378 0.214285714,48.4550562 0.3,48.9719101 L0.3,49.0149813 L3.25714286,49.0580524 C4.92857143,49.079588 6.45,49.8548689 7.54285714,51.082397 L11.8071429,51.1254682 L11.8714286,51.1254682 C11.5285714,48.3904494 9.38571429,46.3014981 6.79285714,46.2799625 L3.17142857,46.2368914 C3.04285714,45.4400749 2.82857143,44.7078652 2.82857143,43.8895131 C2.72142857,36.8258427 2.91428571,30.8604869 3.34285714,25.7565543 C2.7,26.488764 1.8,27.0271536 0.792857143,27.1994382 L0.792857143,27.1994382 Z"></path>
                </g>
                <path d="M147.064286,15.3333333 L147.192857,15.2902622 C146.421429,13.4812734 144.621429,12.2106742 142.542857,12.2106742 L138.042857,12.2106742 C136.95,9.21722846 134.1,7.06367041 130.735714,7.06367041 C128.121429,7.06367041 125.807143,8.37734082 124.392857,10.3586142 C118.007143,11.5215356 113.185714,17.1207865 113.185714,23.8614232 L113.185714,24.3782772 L113.142857,27.673221 C113.142857,31.571161 110.142857,34.7153558 106.242857,34.7153558 L105.857143,34.7153558 C103.864286,34.7153558 101.914286,33.7462547 100.757143,31.9588015 L90.15,14.2565543 C89.85,14.5580524 89.4,14.8810861 88.6928571,14.8810861 C87.6642857,14.8810861 87.1285714,14.170412 86.7857143,13.6966292 C86.4642857,13.2659176 86.3785714,13.1797753 86.2071429,13.1797753 C86.0357143,13.1797753 85.9285714,13.2659176 85.6285714,13.6966292 C85.2857143,14.170412 84.7714286,14.8810861 83.7214286,14.8810861 C82.6928571,14.8810861 82.1571429,14.170412 81.8142857,13.6966292 C81.4928571,13.2659176 81.4071429,13.1797753 81.2357143,13.1797753 C81.0642857,13.1797753 80.9785714,13.2659176 80.6571429,13.6966292 C80.3142857,14.170412 79.7785714,14.8810861 78.75,14.8810861 C77.7214286,14.8810861 77.1857143,14.170412 76.8428571,13.6966292 C76.5214286,13.2659176 76.4357143,13.1797753 76.2642857,13.1797753 C76.0928571,13.1797753 76.0071429,13.2659176 75.6857143,13.6966292 C75.3428571,14.170412 74.8285714,14.8810861 73.7785714,14.8810861 C72.75,14.8810861 72.2142857,14.170412 71.8714286,13.6966292 C71.55,13.2659176 71.4642857,13.1797753 71.2928571,13.1797753 C71.1214286,13.1797753 71.0142857,13.2659176 70.7142857,13.6966292 C70.3714286,14.170412 69.8571429,14.8810861 68.8071429,14.8810861 C68.3785714,14.8810861 67.9928571,14.7518727 67.65,14.4934457 L63.5785714,21.6001873 C60.9214286,26.2303371 56.55,26.2303371 53.8928571,21.6001873 L49.7571429,14.4073034 C49.3714286,14.7303371 48.9642857,14.9026217 48.4714286,14.9026217 C47.4428571,14.9026217 46.9071429,14.1919476 46.5642857,13.7181648 C46.2428571,13.2874532 46.1571429,13.2013109 45.9857143,13.2013109 C45.8142857,13.2013109 45.7285714,13.2874532 45.4071429,13.7181648 C45.0642857,14.1919476 44.5285714,14.9026217 43.5,14.9026217 C42.4714286,14.9026217 41.9357143,14.1919476 41.5928571,13.7181648 C41.2714286,13.2874532 41.1857143,13.2013109 41.0142857,13.2013109 C40.8428571,13.2013109 40.7571429,13.2874532 40.4357143,13.7181648 C40.0928571,14.1919476 39.5785714,14.9026217 38.5285714,14.9026217 C37.5,14.9026217 36.9642857,14.1919476 36.6214286,13.7181648 C36.3,13.2874532 36.2142857,13.2013109 36.0428571,13.2013109 C35.8714286,13.2013109 35.7642857,13.2874532 35.4642857,13.7181648 C35.1214286,14.1919476 34.6071429,14.9026217 33.5571429,14.9026217 C32.5285714,14.9026217 31.9928571,14.1919476 31.65,13.7181648 C31.3285714,13.2874532 31.2428571,13.2013109 31.0714286,13.2013109 C30.9,13.2013109 30.8142857,13.2874532 30.4928571,13.7181648 C30.15,14.1919476 29.6357143,14.9026217 28.5857143,14.9026217 C28.1571429,14.9026217 27.7714286,14.7734082 27.4071429,14.5149813 L18.4285714,30.1282772 C15.7714286,33.423221 14.1857143,37.6011236 14.1857143,42.1451311 C14.1857143,45.8061798 15.2142857,49.2303371 16.9928571,52.1376404 C17.6357143,53.4513109 18.3857143,54.678839 19.2428571,55.8417603 L19.6285714,56.3586142 C22.8,60.6872659 24.6642857,66.0280899 24.6642857,71.7996255 C24.6642857,76.3651685 23.5071429,80.6507491 21.45,84.3764045 L21.75,84.8932584 L32.9142857,114.892322 L39.9,114.892322 C23.3142857,94.0674157 28.9928571,76.5159176 34.2,62.3670412 L34.1142857,62.3455056 L34.4142857,61.5486891 C36.6428571,55.497191 38.5928571,50.2640449 38.5285714,45.6123596 C38.4642857,39.7762172 36.9428571,34.3061798 34.1571429,29.7837079 L34.8642857,29.3314607 C37.7357143,33.9831461 39.2785714,39.6254682 39.3642857,45.6123596 C39.3857143,48.1535581 38.85,50.82397 38.0142857,53.6666667 C42.1928571,58.9213483 48.6,62.32397 55.8214286,62.32397 L55.8857143,62.32397 L55.9071429,62.32397 L89.9357143,62.32397 L90.0428571,43.2649813 L90.8785714,43.2649813 L90.7714286,60.5149813 L90.3428571,113.212547 L90.3428571,114.418539 L103.8,114.547753 L103.864286,114.547753 C103.521429,111.83427 101.378571,109.723783 98.7857143,109.702247 L95.1642857,109.659176 C95.0357143,108.86236 94.8214286,108.13015 94.8214286,107.311798 C94.6928571,98.8698502 94.9928571,91.9784644 95.5928571,86.2715356 L95.6357143,86.2715356 C97.5428571,86.2715356 99.0857143,84.7209738 99.0857143,82.8043071 C99.0857143,81.1891386 97.9928571,79.8539326 96.5142857,79.4662921 C97.9071429,71.2397004 99.9642857,66.1573034 101.871429,62.32397 L101.914286,62.32397 C104.078571,58.3398876 107.442857,56.8539326 110.721429,57.0262172 L110.721429,57.0262172 L116.657143,57.0262172 C126,57.0262172 133.564286,49.4241573 133.564286,40.0346442 L133.521429,25.7134831 L133.564286,25.670412 C133.564286,23.8829588 134.678571,22.3754682 136.242857,21.7509363 C137.121429,21.0187266 138.257143,20.5664794 139.478571,20.5664794 L146.7,20.5664794 C147.985714,20.5664794 149.142857,21.0402622 150.042857,21.8370787 L150.042857,19.9419476 C150.042857,17.917603 148.821429,16.1301498 147.064286,15.3333333 L147.064286,15.3333333 Z M130.714286,15.0964419 C129.535714,15.0964419 128.592857,14.1488764 128.55,12.9859551 L132.9,12.9859551 C132.857143,14.1488764 131.892857,15.0964419 130.714286,15.0964419 L130.714286,15.0964419 Z" id="Shape"></path>
                <path d="M116.4,63.3361423 C116.314286,63.3146067 116.142857,63.0777154 116.057143,62.9269663 C115.778571,62.4962547 115.307143,61.7855805 114.364286,61.7855805 C113.421429,61.7855805 112.95,62.4962547 112.671429,62.9269663 C112.585714,63.0561798 112.414286,63.2930712 112.35,63.3146067 C112.242857,63.2930712 112.071429,63.0561798 111.985714,62.9269663 C111.707143,62.4962547 111.235714,61.7855805 110.292857,61.7855805 C109.35,61.7855805 108.878571,62.4962547 108.6,62.9269663 C108.514286,63.0561798 108.364286,63.2930712 108.278571,63.3146067 C108.171429,63.2930712 108.021429,63.0561798 107.935714,62.9269663 C107.657143,62.4962547 107.185714,61.7855805 106.242857,61.7855805 C105.3,61.7855805 104.828571,62.4962547 104.55,62.9269663 C104.464286,63.0561798 104.292857,63.2930712 104.228571,63.3146067 C104.121429,63.2930712 103.95,63.0561798 103.864286,62.9269663 C103.692857,62.6685393 103.435714,62.2808989 103.05,62.0440075 C104.764286,59.3305243 107.271429,57.8661049 110.25,57.8661049 C110.4,57.8661049 110.55,57.8661049 110.7,57.8876404 L116.678571,57.8876404 C126.45,57.8876404 134.4,49.8979401 134.4,40.0777154 L134.357143,26.1011236 L134.4,25.7134831 C134.4,24.4213483 135.107143,23.2799625 136.242857,22.6985019 C136.457143,22.9138577 136.714286,23.0646067 136.928571,23.1938202 C137.014286,23.2368914 137.121429,23.3230337 137.207143,23.3661049 C137.121429,23.4307116 137.014286,23.4953184 136.928571,23.5383895 C136.5,23.7968165 135.75,24.2275281 135.75,25.1320225 C135.75,26.0580524 136.478571,26.4672285 136.928571,26.7256554 C137.014286,26.7687266 137.121429,26.8333333 137.207143,26.8979401 C137.121429,26.9625468 137.014286,27.0271536 136.928571,27.0702247 C136.5,27.3286517 135.75,27.7593633 135.75,28.6638577 C135.75,29.5898876 136.478571,29.9990637 136.928571,30.2574906 C137.014286,30.3005618 137.121429,30.3651685 137.207143,30.4297753 C137.121429,30.494382 137.014286,30.5589888 136.928571,30.6020599 C136.5,30.8604869 135.75,31.2911985 135.75,32.1956929 C135.75,33.1217228 136.478571,33.5308989 136.928571,33.7893258 C137.014286,33.832397 137.121429,33.8970037 137.207143,33.9616105 C137.121429,34.0262172 137.014286,34.090824 136.928571,34.1338951 C136.5,34.3923221 135.75,34.8230337 135.75,35.7275281 C135.75,36.6535581 136.478571,37.0627341 136.928571,37.321161 C137.014286,37.3642322 137.121429,37.428839 137.207143,37.4934457 C137.121429,37.5580524 137.014286,37.6226592 136.928571,37.6657303 C136.5,37.9241573 135.75,38.3548689 135.75,39.2593633 C135.75,40.1853933 136.478571,40.5945693 136.928571,40.8529963 C137.014286,40.8960674 137.121429,40.9606742 137.207143,41.0252809 C137.121429,41.0898876 137.014286,41.1544944 136.928571,41.1975655 C136.5,41.4559925 135.75,41.8867041 135.75,42.7911985 C135.75,43.7172285 136.478571,44.1264045 136.928571,44.3848315 C137.014286,44.4279026 137.121429,44.4925094 137.207143,44.5571161 C137.121429,44.6217228 137.014286,44.6863296 136.928571,44.7294007 C136.5,44.9878277 135.75,45.4185393 135.75,46.3230337 C135.75,46.9906367 136.285714,47.4644195 136.757143,47.8735955 C136.821429,47.9382022 136.907143,48.002809 136.992857,48.0889513 C136.885714,48.1535581 136.778571,48.2181648 136.714286,48.261236 C136.178571,48.5627341 135.557143,48.9073034 135.428571,49.5533708 C135.3,50.2209738 135.707143,50.7808989 136.092857,51.2762172 C136.157143,51.340824 136.221429,51.4485019 136.285714,51.5346442 C136.178571,51.5777154 136.071429,51.5992509 135.964286,51.6423221 C135.364286,51.8146067 134.7,52.0299625 134.442857,52.6329588 C134.164286,53.2359551 134.464286,53.8820225 134.742857,54.4419476 C134.785714,54.5280899 134.828571,54.6357678 134.871429,54.7434457 C134.764286,54.7649813 134.635714,54.7649813 134.55,54.7649813 C133.928571,54.8080524 133.242857,54.8726592 132.835714,55.4110487 C132.45,55.9494382 132.6,56.6385768 132.75,57.241573 C132.771429,57.3277154 132.792857,57.4569288 132.814286,57.5646067 C132.707143,57.5646067 132.6,57.5430712 132.492857,57.5215356 C132.235714,57.4784644 131.957143,57.4569288 131.742857,57.4569288 C131.571429,57.4569288 131.078571,57.4569288 130.692857,57.8014981 C130.2,58.2537453 130.221429,58.9428839 130.221429,59.5674157 L130.221429,59.8904494 C130.114286,59.8473783 130.007143,59.8258427 129.921429,59.7827715 C129.535714,59.6535581 129.15,59.502809 128.764286,59.502809 C128.507143,59.502809 128.292857,59.5674157 128.1,59.6750936 C127.521429,59.9981273 127.392857,60.7088015 127.285714,61.3117978 C127.264286,61.3979401 127.242857,61.5271536 127.221429,61.6348315 C127.135714,61.5702247 127.028571,61.505618 126.942857,61.4625468 C126.514286,61.2041199 126.064286,60.9241573 125.55,60.9241573 C125.421429,60.9241573 125.292857,60.9456929 125.164286,60.988764 C124.542857,61.2041199 124.264286,61.8501873 124.028571,62.4101124 C123.985714,62.4962547 123.942857,62.6039326 123.9,62.7116105 C123.814286,62.6470037 123.728571,62.5608614 123.664286,62.4962547 C123.235714,62.0870787 122.764286,61.6348315 122.164286,61.6348315 L122.035714,61.6348315 C121.371429,61.6994382 120.985714,62.2808989 120.621429,62.7977528 C120.535714,62.9054307 120.428571,63.0777154 120.321429,63.2069288 C120.257143,63.1207865 120.15,62.991573 120.085714,62.8623596 C119.807143,62.4316479 119.335714,61.7209738 118.392857,61.7209738 C117.45,61.7209738 116.978571,62.4316479 116.7,62.8623596 C116.614286,63.1207865 116.464286,63.3361423 116.4,63.3361423 L116.4,63.3361423 Z" id="Shape"></path>
            </g>
        </g>
    </g>
</svg>