<?xml version="1.0" encoding="UTF-8" standalone="no"?>
<svg width="151px" height="167px" viewBox="0 0 151 167" version="1.1" xmlns="http://www.w3.org/2000/svg" xmlns:xlink="http://www.w3.org/1999/xlink" xmlns:sketch="http://www.bohemiancoding.com/sketch/ns">
    <!-- Generator: Sketch 3.1.1 (8761) - http://www.bohemiancoding.com/sketch -->
    <title>icons_shield</title>
    <desc>Created with Sketch.</desc>
    <defs></defs>
    <g id="Page-1" stroke="none" stroke-width="1" fill="none" fill-rule="evenodd" sketch:type="MSPage">
        <g id="icons_shield" sketch:type="MSLayerGroup" transform="translate(1.000000, 0.000000)" fill="#000000">
            <g id="Page-1" sketch:type="MSShapeGroup">
                <g id="icons_shield">
                    <path d="M146.111713,17.3523438 C146.111713,17.3523438 128.655098,13.650293 108.709328,8.85556643 C97.7277653,6.18095703 90.3904553,0 76.5618221,0 C63.3676789,0 52.8579176,5.78955078 41.5997831,8.57832031 C22.1420824,13.3730469 3.9208243,17.3523438 3.9208243,17.3523438 C0.894793924,18.5754883 -0.748373102,20.0595703 0.227765726,23.3702149 L15.0976139,72.459082 C24.7125814,114.274316 75.2928416,167 75.2928416,167 C75.2928416,167 118.438178,121.596875 132.13666,81.6245117 C132.364425,81.2331055 132.575921,80.8743164 132.640998,80.5155274 L149.755965,23.3539062 C150.780911,20.0595703 148.503254,18.8038086 146.111713,17.3523438 L146.111713,17.3523438 L146.111713,17.3523438 Z M126.377441,35.9930664 L114.370932,76.0795899 C114.289588,76.3568359 114.143167,76.634082 113.931671,76.8624024 C104.235358,104.081445 75.1952277,134.660059 75.1952277,134.660059 C75.1952277,134.660059 45.6832972,103.902051 35.8731019,76.6014649 C35.791757,76.4383789 35.6778742,76.2916016 35.5965293,76.1285156 L34.9620391,74.0083984 C34.9295011,73.8453125 34.8806942,73.7311524 34.8481562,73.5680664 L23.6713666,35.9930664 C23.0043384,33.7587891 24.1106291,32.7313476 26.1767896,31.8669922 C26.1767896,31.8669922 39.9566161,28.4911133 53.329718,25.1804688 C61.0574838,23.2886719 67.5,19.9454101 76.5618221,19.9454101 C86.0629068,19.9454101 89.3167032,23.3702149 96.8980474,25.2130859 C110.596529,28.5237305 123.855748,31.8669922 123.855748,31.8669922 C125.515184,32.8944336 127.044469,33.7587891 126.377441,35.9930664 L126.377441,35.9930664 L126.377441,35.9930664 Z M40.818872,40.6736328 L38.1182213,43.3808594 C38.1182213,43.5765625 38.1182213,43.7722656 38.1995661,44.0168945 L43.7635575,62.706543 L73.4381779,32.959668 C58.4707159,33.4326172 44.2678959,39.140625 40.818872,40.6736328 L40.818872,40.6736328 L40.818872,40.6736328 Z M48.2700651,76.4383789 C50.5802603,81.8691406 53.7689805,87.3814453 57.1854664,92.486035 L109.262473,40.2822266 C106.285249,38.9449219 99.2570497,36.1072266 90.2277653,34.3785156 L48.2700651,76.4383789 L48.2700651,76.4383789 Z M75.5531453,115.497461 C75.5531453,115.497461 96.5889371,93.3503907 103.617137,73.6006836 C103.731019,73.4049805 103.844902,73.2092774 103.926247,73.0135742 L107.847071,59.8688476 L64.8806942,103.037695 C70.7212581,110.425489 75.5531453,115.497461 75.5531453,115.497461 L75.5531453,115.497461 L75.5531453,115.497461 Z" id="Shape"></path>
                </g>
            </g>
        </g>
    </g>
</svg>