<?xml version="1.0" encoding="UTF-8" standalone="no"?>
<svg width="150px" height="99px" viewBox="0 0 150 99" version="1.1" xmlns="http://www.w3.org/2000/svg" xmlns:xlink="http://www.w3.org/1999/xlink" xmlns:sketch="http://www.bohemiancoding.com/sketch/ns">
    <!-- Generator: Sketch 3.1.1 (8761) - http://www.bohemiancoding.com/sketch -->
    <title>icons_battery</title>
    <desc>Created with Sketch.</desc>
    <defs></defs>
    <g id="Page-1" stroke="none" stroke-width="1" fill="none" fill-rule="evenodd" sketch:type="MSPage">
        <g id="icons_battery" sketch:type="MSLayerGroup" fill="#000000">
            <g id="Page-1" sketch:type="MSShapeGroup">
                <g id="icons_battery">
                    <path d="M38.2617187,23.2843227 L27.8759765,23.2843227 C25.3857422,23.2843227 23.3789063,25.3278538 23.3789063,27.8636226 L23.3789063,70.2855403 C23.3789063,72.821309 25.3857422,74.8648402 27.8759765,74.8648402 L38.2324219,74.8648402 C40.7226563,74.8648402 42.7294922,72.821309 42.7294922,70.2855403 L42.7294922,27.8636226 C42.758789,25.3278538 40.7373047,23.2843227 38.2617187,23.2843227 L38.2617187,23.2843227 L38.2617187,23.2843227 Z M63.6914063,23.2843227 L51.3574219,23.2843227 C48.8671875,23.2843227 46.8603515,25.3278538 46.8603515,27.8636226 L46.8603515,70.2855403 C46.8603515,72.821309 48.8671875,74.8648402 51.3574219,74.8648402 L63.6914063,74.8648402 C66.1816406,74.8648402 68.1884765,72.821309 68.1884765,70.2855403 L68.1884765,27.8636226 C68.1884765,25.3278538 66.1523437,23.2843227 63.6914063,23.2843227 L63.6914063,23.2843227 L63.6914063,23.2843227 Z M141.928711,18.55586 C141.723633,18.55586 141.547851,18.6155251 141.372071,18.6155251 L141.372071,9.21826487 C141.372071,4.16164384 137.34375,0.0596651446 132.377929,0.0596651446 L8.99414065,0.0596651446 C4.02832031,0.0596651446 0,4.16164384 0,9.21826487 L0,88.9010655 C0,93.9576862 4.02832031,98.0596651 8.99414065,98.0596651 L132.363281,98.0596651 C137.329101,98.0596651 141.357422,93.9576862 141.357422,88.9010655 L141.357422,79.4739726 C141.5625,79.4739726 141.738281,79.5336377 141.914063,79.5336377 C146.352539,79.5336377 149.985351,75.8642314 149.985351,71.3147641 L149.985351,26.7747337 C150,22.2550989 146.367188,18.55586 141.928711,18.55586 L141.928711,18.55586 L141.928711,18.55586 Z M126.621094,77.9375951 C126.621094,80.4733638 124.584961,82.516895 122.124024,82.516895 L19.2041015,82.516895 C16.7138672,82.516895 14.7070312,80.4435312 14.7070312,77.9375951 L14.7070312,20.2115678 C14.7070312,17.675799 16.7138672,15.6322679 19.2041015,15.6322679 L122.109375,15.6322679 C124.59961,15.6322679 126.606446,17.675799 126.606446,20.2115678 L126.621094,77.9375951 L126.621094,77.9375951 Z M89.1064456,23.2843227 L76.772461,23.2843227 C74.2822265,23.2843227 72.2753906,25.3278538 72.2753906,27.8636226 L72.2753906,70.2855403 C72.2753906,72.821309 74.2822265,74.8648402 76.772461,74.8648402 L89.1064456,74.8648402 C91.5966794,74.8648402 93.6035153,72.821309 93.6035153,70.2855403 L93.6035153,27.8636226 C93.6035153,25.3278538 91.5966794,23.2843227 89.1064456,23.2843227 L89.1064456,23.2843227 L89.1064456,23.2843227 Z" id="Shape"></path>
                </g>
            </g>
        </g>
    </g>
</svg>