<?xml version="1.0" encoding="utf-8"?>
<!-- Generator: Adobe Illustrator 18.1.0, SVG Export Plug-In . SVG Version: 6.00 Build 0)  -->
<!DOCTYPE svg PUBLIC "-//W3C//DTD SVG 1.1//EN" "http://www.w3.org/Graphics/SVG/1.1/DTD/svg11.dtd">
<svg version="1.1" id="Layer_1" xmlns="http://www.w3.org/2000/svg" xmlns:xlink="http://www.w3.org/1999/xlink" x="0px" y="0px"
	 width="110px" height="141px" viewBox="0 0 110 141" enable-background="new 0 0 110 141" xml:space="preserve">
<g>
	<path fill-rule="evenodd" clip-rule="evenodd" d="M106.2,53.8c0-4.5-3.6-8.1-8.1-8.1h-1.3V9.1c0-5-4.1-9.1-9.1-9.1H22.3
		c-5,0-9.1,4.1-9.1,9.1v36.7h-1.3c-4.5,0-8.1,3.6-8.1,8.1v38.5c0,1.9,0.7,3.6,1.8,5l-0.1,0c0,0,0.2,0.2,0.6,0.6c0,0,0,0,0,0
		c1.7,1.9,6.2,8,6.2,18.1v16.7c0,4.5,3.6,8.1,8.1,8.1h68.9c4.5,0,8.1-3.6,8.1-8.1v-16.7c0-10,4.4-16,6.1-18c0.1-0.1,0.2-0.3,0.4-0.4
		c0.2-0.2,0.3-0.3,0.3-0.3l0,0c1.1-1.4,1.8-3.1,1.8-5V53.8z M85.2,45.7H24.8V15.1c0-3.6,0.7-4.3,4.3-4.3h51.8c3.6,0,4.3,0.7,4.3,4.3
		V45.7z M45.9,24.2h-8.6c-2,0-3.7,1.6-3.7,3.7v1.6c0,2,1.6,3.7,3.7,3.7h8.6c2,0,3.7-1.6,3.7-3.7v-1.6C49.6,25.8,47.9,24.2,45.9,24.2
		z M72.6,24.2H64c-2,0-3.7,1.6-3.7,3.7v1.6c0,2,1.6,3.7,3.7,3.7h8.6c2,0,3.7-1.6,3.7-3.7v-1.6C76.2,25.8,74.6,24.2,72.6,24.2z"/>
</g>
</svg>
