<?xml version="1.0" encoding="UTF-8" standalone="no"?>
<svg width="152px" height="172px" viewBox="0 0 152 172" version="1.1" xmlns="http://www.w3.org/2000/svg" xmlns:xlink="http://www.w3.org/1999/xlink" xmlns:sketch="http://www.bohemiancoding.com/sketch/ns">
    <!-- Generator: Sketch 3.1.1 (8761) - http://www.bohemiancoding.com/sketch -->
    <title>icons_award</title>
    <desc>Created with Sketch.</desc>
    <defs></defs>
    <g id="Page-1" stroke="none" stroke-width="1" fill="none" fill-rule="evenodd" sketch:type="MSPage">
        <g id="icons_award" sketch:type="MSLayerGroup" transform="translate(1.000000, 0.000000)" fill="#000000">
            <g id="Page-1" sketch:type="MSShapeGroup">
                <g id="icons_award">
                    <path d="M145.25,91.2910152 C136.8,80.0203125 136.55,68.5816406 144.516667,56.975 C152.483333,45.3683594 149.533333,38.5824219 135.666667,36.6507813 C121.8,34.7191406 113.566667,26.8246094 111.083333,12.9167969 C108.55,-0.991015627 101.733334,-3.66171875 90.5499997,4.85429687 C79.3666667,13.3703125 68.0166667,13.6222656 56.5,5.59335937 C44.95,-2.43554687 38.2166666,0.5375 36.3,14.5292969 C34.3833334,28.5210937 26.55,36.7851563 12.75,39.3382813 C-1.05,41.8914063 -3.7,48.7613281 4.75,60.0320313 C13.2,71.3027344 13.45,82.7414063 5.48333333,94.3480466 C-2.48333333,105.954687 0.466666667,112.740625 14.3333333,114.672265 C25.0333333,116.150391 32.3333333,121.256641 36.3,129.890235 L23.3166667,167.448047 C22.6166666,170.001172 24.7833334,172.016797 28.1333333,172.016797 C31.9333333,172.016797 35.8,167.414453 40.6166666,167.414453 C44.8666667,167.414453 51.4666667,172.016797 54.3333334,172.016797 C57.8833333,172.016797 60.9833333,169.967578 61.7166667,167.448047 L71,140.657031 C74.0166667,139.867578 77.0833333,139.75 80.1,140.169922 L89.5333332,167.448047 C90.2333329,169.950781 93.5000003,172.016797 96.8333329,172.016797 C100.433333,172.016797 104.8,167.414453 110.3,167.414453 C114.633334,167.414453 119.15,172.016797 122.266667,172.016797 L122.35,172.016797 C125.7,172.016797 127.866667,169.967578 127.166666,167.448047 L114.75,131.519531 C117.766667,120.702344 125.283334,114.201953 137.2,112.018359 C151.05,109.465235 153.7,102.561719 145.25,91.2910152 L145.25,91.2910152 L145.25,91.2910152 Z M75.25,113.782031 C54.2166667,113.782031 37.1666666,96.598828 37.1666666,75.4011719 C37.1666666,54.2035156 54.2333333,37.0203125 75.25,37.0203125 C96.2666665,37.0203125 113.333333,54.2203125 113.333333,75.4011719 C113.333333,96.5820314 96.3,113.782031 75.25,113.782031 L75.25,113.782031 L75.25,113.782031 Z M96.9166668,172 L96.8833332,172 L96.9166668,172 L96.9166668,172 Z" id="Shape"></path>
                </g>
            </g>
        </g>
    </g>
</svg>