<?xml version="1.0" encoding="utf-8"?>
<!-- Generator: Adobe Illustrator 18.1.0, SVG Export Plug-In . SVG Version: 6.00 Build 0)  -->
<!DOCTYPE svg PUBLIC "-//W3C//DTD SVG 1.1//EN" "http://www.w3.org/Graphics/SVG/1.1/DTD/svg11.dtd">
<svg version="1.1" id="Layer_1" xmlns="http://www.w3.org/2000/svg" xmlns:xlink="http://www.w3.org/1999/xlink" x="0px" y="0px"
	 width="110px" height="67.4px" viewBox="0 0 110 67.4" enable-background="new 0 0 110 67.4" xml:space="preserve">
<g>
	<path fill-rule="evenodd" clip-rule="evenodd" d="M30,15.5h-7.1c-1.7,0-3.1,1.4-3.1,3.1V47c0,1.7,1.4,3.1,3.1,3.1H30
		c1.7,0,3.1-1.4,3.1-3.1V18.6C33,16.9,31.7,15.5,30,15.5z M47.3,15.5h-8.4c-1.7,0-3.1,1.4-3.1,3.1V47c0,1.7,1.4,3.1,3.1,3.1h8.4
		c1.7,0,3.1-1.4,3.1-3.1V18.6C50.4,16.9,49,15.5,47.3,15.5z M100.6,12.4c-0.1,0-0.3,0-0.4,0V6.1c0-3.4-2.7-6.1-6.1-6.1h-84
		C6.7,0,3.9,2.7,3.9,6.1v53.3c0,3.4,2.7,6.1,6.1,6.1h84c3.4,0,6.1-2.7,6.1-6.1v-6.3c0.1,0,0.3,0,0.4,0c3,0,5.5-2.5,5.5-5.5V17.9
		C106.1,14.8,103.6,12.4,100.6,12.4z M90.2,52.1c0,1.7-1.4,3.1-3.1,3.1H17c-1.7,0-3.1-1.4-3.1-3.1V13.5c0-1.7,1.4-3.1,3.1-3.1h70.1
		c1.7,0,3.1,1.4,3.1,3.1V52.1z M64.6,15.5h-8.4c-1.7,0-3.1,1.4-3.1,3.1V47c0,1.7,1.4,3.1,3.1,3.1h8.4c1.7,0,3.1-1.4,3.1-3.1V18.6
		C67.7,16.9,66.3,15.5,64.6,15.5z"/>
</g>
</svg>
