<?xml version="1.0" encoding="UTF-8" standalone="no"?>
<svg width="150px" height="142px" viewBox="0 0 150 142" version="1.1" xmlns="http://www.w3.org/2000/svg" xmlns:xlink="http://www.w3.org/1999/xlink" xmlns:sketch="http://www.bohemiancoding.com/sketch/ns">
    <!-- Generator: Sketch 3.1.1 (8761) - http://www.bohemiancoding.com/sketch -->
    <title>icons_sound</title>
    <desc>Created with Sketch.</desc>
    <defs></defs>
    <g id="Page-1" stroke="none" stroke-width="1" fill="none" fill-rule="evenodd" sketch:type="MSPage">
        <g id="icons_sound" sketch:type="MSLayerGroup" fill="#000000">
            <g id="Page-1" sketch:type="MSShapeGroup">
                <g id="icons_sound">
                    <path d="M69.0673828,1.52195629 L25.209961,32.5816858 C22.163086,34.42872 19.6582031,38.0045786 19.6582031,41.2110302 L19.6582031,44.8164412 L3.94042969,44.8164412 C1.7578125,44.8312175 0,46.6043704 0,48.8060354 L0,93.666805 C0,95.8684707 1.7578125,97.6416229 3.94042969,97.6416229 L19.6582031,97.6416229 L19.6582031,100.995838 C19.6582031,102.916753 21.7382812,107.068887 25.209961,109.669511 L69.0820313,140.906556 C74.2675781,143.758377 78.3544922,140.72924 78.3544922,136.355463 L78.3544922,6.07304891 C78.383789,1.6992716 74.4873047,-2.20166493 69.0673828,1.52195629 L69.0673828,1.52195629 L69.0673828,1.52195629 Z M106.772461,36.8520291 C105.834961,35.7733611 103.447265,34.1775234 101.542969,36.0984391 C98.671875,38.9945889 97.5,43.5013527 97.5,43.5013527 C97.5,43.5013527 96.3867185,46.2054111 98.4375,48.7026015 C103.447265,54.8790843 106.523437,62.7105098 106.523437,71.3103018 C106.523437,79.6884495 103.623047,87.3868887 98.8183597,93.4451617 C96.4599609,96.5186265 98.1005859,99.4 98.1005859,99.4 L101.323242,106.30052 C101.323242,106.30052 103.227539,110.053694 106.831054,105.679917 C114.565429,96.3265351 119.399414,84.4020811 119.399414,71.2955255 C119.384765,58.1594173 114.624024,46.1315296 106.772461,36.8520291 L106.772461,36.8520291 L106.772461,36.8520291 Z M128.305664,14.8206035 C124.907226,11.1708637 122.90039,14.525078 122.90039,14.525078 L119.106446,21.0266389 C119.106446,21.0266389 117.143554,23.5977107 120.615235,27.3508845 C131.176758,38.83205 137.153321,54.4801249 137.153321,71.3103018 C137.153321,88.0370447 131.000976,103.315713 120.864258,114.974193 C119.897461,116.097191 115.927735,119.953798 118.139649,121.978147 C120.747071,125.007284 122.797851,127.932987 122.797851,127.932987 C122.797851,127.932987 125.405274,131.154214 128.99414,126.987305 C141.914062,112.048491 150,92.6176895 150,71.2659729 C150,49.6039542 141.767578,29.7741936 128.305664,14.8206035 L128.305664,14.8206035 L128.305664,14.8206035 Z" id="Shape"></path>
                </g>
            </g>
        </g>
    </g>
</svg>