<?xml version="1.0" encoding="utf-8"?>
<!-- Generator: Adobe Illustrator 18.1.0, SVG Export Plug-In . SVG Version: 6.00 Build 0)  -->
<!DOCTYPE svg PUBLIC "-//W3C//DTD SVG 1.1//EN" "http://www.w3.org/Graphics/SVG/1.1/DTD/svg11.dtd">
<svg version="1.1" id="Layer_1" xmlns="http://www.w3.org/2000/svg" xmlns:xlink="http://www.w3.org/1999/xlink" x="0px" y="0px"
	 width="110px" height="127.3px" viewBox="0 0 110 127.3" enable-background="new 0 0 110 127.3" xml:space="preserve">
<g>
	<path fill-rule="evenodd" clip-rule="evenodd" d="M106.1,65.9c-6.2-8.1-6.3-16.4-0.5-24.8c5.8-8.4,3.7-13.3-6.5-14.7
		C89,25.1,83,19.4,81.2,9.3c-1.8-10-6.8-12-14.9-5.8C58.2,9.7,49.9,9.8,41.5,4c-8.4-5.8-13.3-3.6-14.7,6.4
		c-1.4,10.1-7.1,16.1-17.1,17.9c-10,1.8-12,6.8-5.8,14.9c6.2,8.1,6.3,16.4,0.5,24.8c-5.8,8.4-3.6,13.3,6.5,14.7
		c7.8,1.1,13.1,4.8,16,11l-9.4,27.1c-0.5,1.8,1.1,3.3,3.5,3.3c2.8,0,5.6-3.3,9.1-3.3c3.1,0,7.9,3.3,10,3.3c2.6,0,4.8-1.5,5.4-3.3
		l6.7-19.3c2.2-0.6,4.4-0.7,6.6-0.4l6.9,19.7c0.5,1.8,2.9,3.3,5.3,3.3c2.6,0,5.8-3.3,9.8-3.3c3.1,0,6.4,3.3,8.7,3.3c0,0,0,0,0,0
		c2.4,0,4-1.5,3.5-3.3l-9-25.9c2.2-7.8,7.6-12.5,16.3-14.1C110.3,79,112.2,74,106.1,65.9z M55.2,82.1c-15.3,0-27.7-12.4-27.7-27.7
		c0-15.3,12.4-27.7,27.7-27.7c15.3,0,27.7,12.4,27.7,27.7C82.9,69.7,70.5,82.1,55.2,82.1z M70.9,124.1
		C70.9,124.1,70.9,124.1,70.9,124.1C70.9,124.1,70.9,124.1,70.9,124.1C70.9,124.1,70.9,124.1,70.9,124.1z"/>
</g>
</svg>
