<?xml version="1.0" encoding="UTF-8" standalone="no"?>
<svg width="150px" height="208px" viewBox="0 0 150 208" version="1.1" xmlns="http://www.w3.org/2000/svg" xmlns:xlink="http://www.w3.org/1999/xlink" xmlns:sketch="http://www.bohemiancoding.com/sketch/ns">
    <!-- Generator: Sketch 3.1.1 (8761) - http://www.bohemiancoding.com/sketch -->
    <title>icons_robot</title>
    <desc>Created with Sketch.</desc>
    <defs></defs>
    <g id="Page-1" stroke="none" stroke-width="1" fill="none" fill-rule="evenodd" sketch:type="MSPage">
        <g id="icons_robot" sketch:type="MSLayerGroup" fill="#000000">
            <g id="Page-1" sketch:type="MSShapeGroup">
                <g id="icons_robot">
                    <path d="M149.882199,79.4038023 C149.882199,72.8 144.581152,67.461597 138.023561,67.461597 L136.099476,67.461597 L136.099476,13.3657795 C136.099476,5.97110266 130.170157,0 122.827225,0 L27.0549739,0 C19.7120419,0 13.7827225,5.97110266 13.7827225,13.3657795 L13.7827225,67.4220533 L11.8586388,67.4220533 C5.30104712,67.4220533 0,72.8 0,79.4038023 L0,136.188593 C0,138.996197 1.02094241,141.56654 2.63089005,143.58327 L2.55235602,143.622814 C2.55235602,143.622814 2.90575916,143.939163 3.45549739,144.571863 C3.45549739,144.571863 3.45549739,144.611407 3.49476439,144.611407 C6.0078534,147.458555 12.604712,156.395437 12.604712,171.263878 L12.604712,195.939163 C12.604712,202.542966 17.9057591,207.881369 24.4633508,207.881369 L125.379581,207.881369 C131.937173,207.881369 137.23822,202.542966 137.23822,195.939163 L137.23822,171.263878 C137.23822,156.553612 143.678011,147.656274 146.230367,144.730038 C146.426702,144.532319 146.583769,144.334601 146.780104,144.136882 C147.094241,143.820533 147.251309,143.622814 147.251309,143.622814 L147.212042,143.58327 C148.821989,141.526996 149.842932,138.956654 149.842932,136.149049 L149.842932,79.4038023 L149.882199,79.4038023 L149.882199,79.4038023 Z M119.136125,67.4220533 L30.7068063,67.4220533 L30.7068063,22.3026616 C30.7068063,16.9642585 31.6884817,15.9756654 36.9895288,15.9756654 L112.853404,15.9756654 C118.15445,15.9756654 119.136125,16.9642585 119.136125,22.3026616 L119.136125,67.4220533 L119.136125,67.4220533 Z M61.5706806,35.6288974 L49.0445026,35.6288974 C46.0602094,35.6288974 43.6649215,38.0410647 43.6649215,41.0463878 L43.6649215,43.4190114 C43.6649215,46.4243346 46.0602094,48.8365019 49.0445026,48.8365019 L61.5706806,48.8365019 C64.5549739,48.8365019 66.9502618,46.4243346 66.9502618,43.4190114 L66.9502618,41.0463878 C66.9502618,38.0410647 64.5549739,35.6288974 61.5706806,35.6288974 L61.5706806,35.6288974 L61.5706806,35.6288974 Z M100.641361,35.6288974 L88.1151832,35.6288974 C85.1308901,35.6288974 82.7356021,38.0410647 82.7356021,41.0463878 L82.7356021,43.4190114 C82.7356021,46.4243346 85.1308901,48.8365019 88.1151832,48.8365019 L100.641361,48.8365019 C103.625654,48.8365019 106.020942,46.4243346 106.020942,43.4190114 L106.020942,41.0463878 C106.020942,38.0410647 103.625654,35.6288974 100.641361,35.6288974 L100.641361,35.6288974 L100.641361,35.6288974 Z" id="Shape"></path>
                </g>
            </g>
        </g>
    </g>
</svg>