<?xml version="1.0" encoding="UTF-8" standalone="no"?>
<svg width="151px" height="190px" viewBox="0 0 151 190" version="1.1" xmlns="http://www.w3.org/2000/svg" xmlns:xlink="http://www.w3.org/1999/xlink" xmlns:sketch="http://www.bohemiancoding.com/sketch/ns">
    <!-- Generator: Sketch 3.1.1 (8761) - http://www.bohemiancoding.com/sketch -->
    <title>icons_location</title>
    <desc>Created with Sketch.</desc>
    <defs></defs>
    <g id="Page-1" stroke="none" stroke-width="1" fill="none" fill-rule="evenodd" sketch:type="MSPage">
        <g id="icons_location" sketch:type="MSLayerGroup" fill="#000000">
            <g id="Page-1" sketch:type="MSShapeGroup">
                <g id="icons_location">
                    <path d="M137.351852,116.894532 C137.185185,117.209961 137.259259,117.506836 137,117.822265 C134.555555,120.883789 85.2962963,182.225586 81.0740741,187.420898 C78.3148148,190.87207 71.6851852,190.797852 68.9444444,187.420898 C65.8518519,183.654297 16.3333333,122.145508 12.8888889,117.692383 C12.6666667,117.376953 12.7222222,117.080079 12.5370371,116.764648 C4.62962963,104.81543 1.4064894e-14,90.56543 1.4064894e-14,75.1650391 C-0.0185185185,33.6396485 33.5555555,0 75,0 C116.444444,0 150.018519,33.6396485 150.018519,75.1650391 C150.018519,90.6025393 145.333333,104.945312 137.351852,116.894532 L137.351852,116.894532 L137.351852,116.894532 Z M74.962963,45.8115235 C58.8148148,45.8115235 45.7037037,58.9296875 45.7037037,75.1279297 C45.7037037,91.3261715 58.7962963,104.444336 74.962963,104.444336 C91.1296297,104.444336 104.222223,91.3261715 104.222223,75.1279297 C104.222223,58.9296875 91.1111109,45.8115235 74.962963,45.8115235 L74.962963,45.8115235 L74.962963,45.8115235 Z" id="Shape"></path>
                </g>
            </g>
        </g>
    </g>
</svg>