<?xml version="1.0" encoding="utf-8"?>
<!-- Generator: Adobe Illustrator 18.1.0, SVG Export Plug-In . SVG Version: 6.00 Build 0)  -->
<!DOCTYPE svg PUBLIC "-//W3C//DTD SVG 1.1//EN" "http://www.w3.org/Graphics/SVG/1.1/DTD/svg11.dtd">
<svg version="1.1" id="Layer_1" xmlns="http://www.w3.org/2000/svg" xmlns:xlink="http://www.w3.org/1999/xlink" x="0px" y="0px"
	 width="110px" height="114.3px" viewBox="0 0 110 114.3" enable-background="new 0 0 110 114.3" xml:space="preserve">
<g>
	<path fill-rule="evenodd" clip-rule="evenodd" d="M103.8,11.9c0,0-12-2.5-25.7-5.8C70.6,4.2,65.6,0,56.1,0c-9.1,0-16.3,4-24,5.9
		c-13.4,3.3-25.8,6-25.8,6C4.2,12.7,3,13.7,3.7,16l10.2,33.6c6.6,28.6,41.3,64.7,41.3,64.7s29.6-31.1,39-58.4
		c0.2-0.3,0.3-0.5,0.4-0.8L106.3,16C107,13.7,105.4,12.9,103.8,11.9z M90.2,24.6L82,52.1c-0.1,0.2-0.2,0.4-0.3,0.5
		c-6.7,18.6-26.6,39.5-26.6,39.5s-20.3-21.1-27-39.8c-0.1-0.1-0.1-0.2-0.2-0.3l-0.4-1.5c0-0.1-0.1-0.2-0.1-0.3l-7.7-25.7
		c-0.5-1.5,0.3-2.2,1.7-2.8c0,0,9.5-2.3,18.6-4.6c5.3-1.3,9.7-3.6,15.9-3.6c6.5,0,8.8,2.4,13.9,3.6c9.4,2.3,18.5,4.6,18.5,4.6
		C89.6,22.5,90.7,23.1,90.2,24.6z M31.6,27.8l-1.9,1.9c0,0.1,0,0.3,0.1,0.4l3.8,12.8l20.4-20.4C43.7,22.9,33.9,26.8,31.6,27.8z
		 M36.7,52.3c1.6,3.7,3.8,7.5,6.1,11l35.7-35.7c-2-0.9-6.9-2.8-13.1-4L36.7,52.3z M55.4,79.1c0,0,14.4-15.1,19.3-28.7
		c0.1-0.1,0.2-0.3,0.2-0.4l2.7-9L48.1,70.5C52.1,75.6,55.4,79.1,55.4,79.1z"/>
</g>
</svg>
