<?xml version="1.0" encoding="UTF-8" standalone="no"?>
<svg width="150px" height="186px" viewBox="0 0 150 186" version="1.1" xmlns="http://www.w3.org/2000/svg" xmlns:xlink="http://www.w3.org/1999/xlink" xmlns:sketch="http://www.bohemiancoding.com/sketch/ns">
    <!-- Generator: Sketch 3.1.1 (8761) - http://www.bohemiancoding.com/sketch -->
    <title>icons_tools</title>
    <desc>Created with Sketch.</desc>
    <defs></defs>
    <g id="Page-1" stroke="none" stroke-width="1" fill="none" fill-rule="evenodd" sketch:type="MSPage">
        <g id="icons_tools" sketch:type="MSLayerGroup" fill="#000000">
            <g id="Page-1" sketch:type="MSShapeGroup">
                <g id="icons_tools">
                    <path d="M49.8126464,0 L49.8126464,31.1040076 L33.8290399,40.3893129 L17.8454333,31.1040076 L17.8454333,0 C7.23653396,5.71946565 0,16.9818703 0,29.9742367 C0,46.1087786 11.206089,59.6307252 26.206089,63.0906489 L26.206089,72.1641221 C18.2318501,73.2232825 12.0843092,80.1078244 12.0843092,88.4045801 L12.0843092,168.724236 C12.0843092,177.762404 19.3911007,185.105916 28.384075,185.105916 L39.2388759,185.105916 C48.2318501,185.105916 55.5386417,177.762404 55.5386417,168.724236 L55.5386417,88.3692748 C55.5386417,80.072519 49.3911007,73.1879771 41.4168619,72.1288168 L41.4168619,63.0553435 C56.4168619,59.5954199 67.6229509,46.0734733 67.6229509,29.9389313 C67.6229509,17.0171756 60.4215457,5.75477099 49.8126464,0 L49.8126464,0 L49.8126464,0 Z M138.442623,85.8979008 L138.829039,85.721374 C138.829039,81.2375954 136.47541,77.3187023 132.892271,75.1650764 L132.892271,28.9150764 L137.213115,22.0658397 L137.213115,1.02385496 L111.814988,1.02385496 L111.814988,22.101145 L116.135831,28.9503817 L116.135831,75.1650764 C112.587822,77.3187023 110.199064,81.2729008 110.199064,85.721374 L110.339578,85.8979008 C103.875878,86.9923664 98.9578456,92.1116416 98.9578456,98.8902673 L98.9578456,171.336832 C98.9578456,178.927481 105.070257,185.070611 112.622951,185.070611 L136.15925,185.070611 C143.711944,185.070611 149.824356,178.927481 149.824356,171.336832 L149.824356,99.4551529 C149.824356,92.6412214 144.906323,86.9923664 138.442623,85.8979008 L138.442623,85.8979008 L138.442623,85.8979008 Z M116.908665,170.348282 C116.908665,171.372137 115.714286,172.18416 114.274005,172.18416 C112.833724,172.18416 111.639344,171.372137 111.639344,170.348282 L111.639344,103.833015 C111.639344,102.80916 112.833724,101.997137 114.274005,101.997137 C115.714286,101.997137 116.908665,102.80916 116.908665,103.833015 L116.908665,170.348282 L116.908665,170.348282 Z M137.459016,170.348282 C137.459016,171.372137 136.264637,172.18416 134.824356,172.18416 C133.384075,172.18416 132.189695,171.372137 132.189695,170.348282 L132.189695,103.833015 C132.189695,102.80916 133.384075,101.997137 134.824356,101.997137 C136.264637,101.997137 137.459016,102.80916 137.459016,103.833015 L137.459016,170.348282 L137.459016,170.348282 Z" id="Shape"></path>
                </g>
            </g>
        </g>
    </g>
</svg>