<?xml version="1.0" encoding="utf-8"?>
<!-- Generator: Adobe Illustrator 18.1.0, SVG Export Plug-In . SVG Version: 6.00 Build 0)  -->
<!DOCTYPE svg PUBLIC "-//W3C//DTD SVG 1.1//EN" "http://www.w3.org/Graphics/SVG/1.1/DTD/svg11.dtd">
<svg version="1.1" id="Layer_1" xmlns="http://www.w3.org/2000/svg" xmlns:xlink="http://www.w3.org/1999/xlink" x="0px" y="0px"
	 width="110px" height="125.4px" viewBox="0 0 110 125.4" enable-background="new 0 0 110 125.4" xml:space="preserve">
<path fill-rule="evenodd" clip-rule="evenodd" d="M95.3,75.5c-0.1,0.2-0.1,0.4-0.2,0.6c-1.6,2-33.4,41.6-36.2,44.9
	c-1.8,2.2-6.1,2.2-7.9,0c-2-2.4-34-42.2-36.3-45c-0.1-0.2-0.1-0.4-0.2-0.6c-5.1-7.7-8.1-16.9-8.1-26.9C6.5,21.7,28.2,0,55,0
	c26.8,0,48.5,21.7,48.5,48.5C103.5,58.5,100.5,67.8,95.3,75.5z M55,29.6C44.5,29.6,36,38,36,48.5c0,10.5,8.5,18.9,18.9,18.9
	c10.5,0,18.9-8.5,18.9-18.9C73.9,38,65.4,29.6,55,29.6z"/>
</svg>
