<?xml version="1.0" encoding="utf-8"?>
<!-- Generator: Adobe Illustrator 18.1.0, SVG Export Plug-In . SVG Version: 6.00 Build 0)  -->
<!DOCTYPE svg PUBLIC "-//W3C//DTD SVG 1.1//EN" "http://www.w3.org/Graphics/SVG/1.1/DTD/svg11.dtd">
<svg version="1.1" id="Layer_1" xmlns="http://www.w3.org/2000/svg" xmlns:xlink="http://www.w3.org/1999/xlink" x="0px" y="0px"
	 width="110px" height="96.2px" viewBox="0 0 110 96.2" enable-background="new 0 0 110 96.2" xml:space="preserve">
<g>
	<path d="M51.1,1L21.9,21.4c-2,1.2-3.7,3.6-3.7,5.7v2.4H7.8c-1.4,0-2.6,1.2-2.6,2.6v29.5c0,1.4,1.2,2.6,2.6,2.6h10.4v2.2
		c0,1.3,1.4,4,3.7,5.7l29.1,20.6c3.5,1.9,6.2-0.1,6.2-3V4C57.2,1.1,54.7-1.5,51.1,1z M76.1,24.2c-0.6-0.7-2.2-1.8-3.5-0.5
		c-1.9,1.9-2.7,4.9-2.7,4.9s-0.7,1.8,0.6,3.4c3.3,4.1,5.4,9.2,5.4,14.9c0,5.5-1.9,10.6-5.1,14.6c-1.6,2-0.5,3.9-0.5,3.9l2.1,4.5
		c0,0,1.3,2.5,3.7-0.4c5.1-6.2,8.3-14,8.3-22.6C84.5,38.3,81.3,30.3,76.1,24.2z M90.4,9.7c-2.3-2.4-3.6-0.2-3.6-0.2l-2.5,4.3
		c0,0-1.3,1.7,1,4.2c7,7.6,11,17.8,11,28.9c0,11-4.1,21.1-10.8,28.8c-0.7,0.7-3.3,3.3-1.8,4.6c1.7,2,3.1,3.9,3.1,3.9
		s1.7,2.1,4.1-0.6c8.6-9.8,14-22.6,14-36.7C104.8,32.6,99.3,19.6,90.4,9.7z"/>
</g>
</svg>
