<?xml version="1.0" encoding="utf-8"?>
<!-- Generator: Adobe Illustrator 18.1.0, SVG Export Plug-In . SVG Version: 6.00 Build 0)  -->
<!DOCTYPE svg PUBLIC "-//W3C//DTD SVG 1.1//EN" "http://www.w3.org/Graphics/SVG/1.1/DTD/svg11.dtd">
<svg version="1.1" id="Layer_1" xmlns="http://www.w3.org/2000/svg" xmlns:xlink="http://www.w3.org/1999/xlink" x="0px" y="0px"
	 width="110px" height="128.4px" viewBox="0 0 110 128.4" enable-background="new 0 0 110 128.4" xml:space="preserve">
<g>
	<path fill-rule="evenodd" clip-rule="evenodd" d="M37.5,0v21.6L26.3,28l-11.1-6.4V0C7.8,4,2.7,11.8,2.7,20.8
		c0,11.2,7.8,20.6,18.3,23v6.3c-5.6,0.7-9.9,5.5-9.9,11.3v55.7c0,6.3,5.1,11.4,11.4,11.4h7.6c6.3,0,11.4-5.1,11.4-11.4V61.3
		c0-5.8-4.3-10.5-9.9-11.3v-6.3c10.5-2.4,18.3-11.8,18.3-23C49.9,11.8,44.9,4,37.5,0z M99.3,59.6l0.3-0.1c0-3.1-1.7-5.8-4.1-7.3
		V20.1l3-4.8V0.7H80.7v14.6l3,4.8v32.1c-2.5,1.5-4.1,4.2-4.1,7.3l0.1,0.1c-4.5,0.8-7.9,4.3-7.9,9v50.3c0,5.3,4.3,9.5,9.5,9.5h16.4
		c5.3,0,9.5-4.3,9.5-9.5V69C107.3,64.3,103.8,60.4,99.3,59.6z M84.3,118.2c0,0.7-0.8,1.3-1.8,1.3s-1.8-0.6-1.8-1.3V72
		c0-0.7,0.8-1.3,1.8-1.3s1.8,0.6,1.8,1.3V118.2z M98.6,118.2c0,0.7-0.8,1.3-1.8,1.3c-1,0-1.8-0.6-1.8-1.3V72c0-0.7,0.8-1.3,1.8-1.3
		c1,0,1.8,0.6,1.8,1.3V118.2z"/>
</g>
</svg>
